<svg width="1335" height="464" viewBox="0 0 1335 464" fill="none" xmlns="http://www.w3.org/2000/svg">
<g clip-path="url(#clip0_1528_81638)">
<mask id="mask0_1528_81638" style="mask-type:luminance" maskUnits="userSpaceOnUse" x="0" y="0" width="1335" height="464">
<path d="M1335 0H0V464H1335V0Z" fill="white"/>
</mask>
<g mask="url(#mask0_1528_81638)">
<path d="M1335 0H0V464H1335V0Z" fill="#D6E8D6"/>
<path d="M111.2 246.4H0V466H111.2V246.4Z" fill="#7CAA74"/>
<path d="M222.5 246.4H111.3V466H222.5V246.4Z" fill="#5E9653"/>
<path d="M333.7 246.4H222.5V466H333.7V246.4Z" fill="#7CAA74"/>
<path d="M445 246.4H333.8V466H445V246.4Z" fill="#5E9653"/>
<path d="M556.2 246.4H445V466H556.2V246.4Z" fill="#7CAA74"/>
<path d="M667.5 246.4H556.3V466H667.5V246.4Z" fill="#5E9653"/>
<path d="M778.7 246.4H667.5V466H778.7V246.4Z" fill="#7CAA74"/>
<path d="M890 246.4H778.8V466H890V246.4Z" fill="#5E9653"/>
<path d="M1001.2 246.4H890V466H1001.2V246.4Z" fill="#7CAA74"/>
<path d="M1112.5 246.4H1001.3V466H1112.5V246.4Z" fill="#5E9653"/>
<path d="M1223.7 246.4H1112.5V466H1223.7V246.4Z" fill="#80C198"/>
<path d="M1335 246.4H1223.8V466H1335V246.4Z" fill="#5E9653"/>
<path d="M1335 242H0V251H1335V242Z" fill="#EDF4ED"/>
<path d="M104.9 40.8L37.8999 41.2001L44.4999 69.7L104.9 40.8Z" fill="#ABCAA6"/>
<path d="M147.6 138.1L213.4 150.8L201.7 177.6L147.6 138.1Z" fill="#5E9653"/>
<path d="M985.9 28.4L1052.9 30.4L1045.7 58.7L985.9 28.4Z" fill="#FEF8EC"/>
<path d="M600 42.2L550.7 87.5999L536 62.2999L600 42.2Z" fill="#EDF4ED"/>
<path d="M438 43L375.7 18.3L371.1 47.2001L438 43Z" fill="#7CAA74"/>
<path d="M812.3 181.2L750 156.4L745.4 185.3L812.3 181.2Z" fill="#FEF8EC"/>
<path d="M841.2 29.3L774.2 27.4L779.7 56.1L841.2 29.3Z" fill="#5E9653"/>
<path d="M233.1 21.1L183 26.1L188 76.2L238.1 71.2L233.1 21.1Z" fill="#ABCAA6"/>
<path d="M952.3 164.3L902.2 169.3L907.2 219.4L957.3 214.4L952.3 164.3Z" fill="#ABCAA6"/>
<path d="M711.9 49.9001L665.1 31.3L646.5 78.1L693.3 96.7L711.9 49.9001Z" fill="#ABCAA6"/>
<path d="M120.9 170.9L42.3999 160.6L35.8999 210.6L114.4 220.9L120.9 170.9Z" fill="#7CAA74"/>
<path d="M524.6 139.9L474.6 133.4L468.1 183.4L518.1 189.9L524.6 139.9Z" fill="#ABCAA6"/>
<path d="M969.2 75L909.7 81L913.9 122.9L973.4 116.9L969.2 75Z" fill="#7CAA74"/>
<path d="M391.9 106.9C352.4 102.5 314.7 111.2 281.1 132.3H281L274 101.9H274.1C307.6 80.8 345.4 72.1 384.8 76.5H384.9L391.9 106.9Z" fill="#FEF8EC"/>
<path d="M780.5 86.9C808.7 114.8 843.7 131.5 883.1 135.7H883.2L869.8 163.9H869.7C830.3 159.6 795.3 143 767.1 115.1L780.5 86.9Z" fill="#EDF4ED"/>
<path d="M1295.1 81C1263.2 59.7 1227.2 45.3999 1189.5 39.0999H1189.4L1196.5 21.2H1196.6C1234.4 27.5 1270.4 41.7999 1302.2 63.0999L1295.1 81Z" fill="#5E9653"/>
<path d="M757.2 312.9V368.8C757.2 385.1 754.2 401.1 748.4 416.2C744.2 427.2 738.6 437.6 731.6 447.2L715.2 469.7H667.3L687 408.7L683.4 387.7L679.3 363.6L670.6 312.8L757.2 312.9Z" fill="#7A3C20"/>
<path d="M757.2 365.3V368.9C757.2 385.2 754.2 401.2 748.4 416.3L683.4 387.9L679.3 363.8L757.2 365.3Z" fill="#5E3520"/>
<path d="M784.8 202.7L842.7 219.8C882.5 231.6 896.7 280.6 869.3 311.8L846.7 337.6L771.2 315.3L740.6 256.6C725.1 226.9 752.8 193.2 784.8 202.7Z" fill="#5E3520"/>
<path d="M884.6 353.6L963.2 470.6L850.3 469.8L884.6 353.6Z" fill="#F1BE42"/>
<path d="M878 328.7L912.2 362.9C935.6 386.3 935.6 424.2 912.2 447.6L889.9 469.9H746.3L815.9 400.3C820.8 395.4 820.8 387.4 815.9 382.5L807 373.6L878 328.7Z" fill="#F3DEA6"/>
<path d="M779.6 492.3L778.2 490.9L853 416.1C858.7 410.4 861.9 402.7 861.9 394.6C861.9 386.5 858.7 378.9 853 373.1L818.2 338.3L819.6 336.9L854.4 371.7C860.5 377.8 863.9 386 863.9 394.6C863.9 403.3 860.5 411.4 854.4 417.5L779.6 492.3Z" fill="#E8BF5A"/>
<path d="M607.8 181.9L613.3 207.5L613.8 219.8L621.2 216.5L631.4 239.4L657.1 227.6L678.3 236.7L693.6 199.2L666.3 149L607.8 181.9Z" fill="#7A3C20"/>
<path d="M807 373.5L878 328.7L863.1 273.7C855.3 244.8 831.9 222.7 802.7 216.4L693.2 193L674.3 229.9C651 275.3 646.4 328 661.5 376.8H761.2C766.5 376.8 770.8 372.6 771 367.3L771.6 347.4C771.7 343.7 776.2 341.9 778.8 344.6L807 373.5Z" fill="#ABD1F6"/>
<path d="M707.8 195.5L700.6 189.5C699.4 188.5 697.6 188.6 696.6 189.8L661.6 231.3C660.6 232.5 660.7 234.3 661.9 235.3L669.1 241.3C670.3 242.3 672.1 242.2 673.1 241L708.1 199.5C709.2 198.3 709 196.5 707.8 195.5Z" fill="#45A8F8"/>
<path d="M877.485 327.892L806.514 372.636L807.58 374.328L878.551 329.584L877.485 327.892Z" fill="#7DB6F2"/>
<path d="M658 245.6C647.7 263.7 615.3 312.9 655.7 353.1C670.9 352.8 685 345.3 694 333C707 315.3 730.3 290.5 764.6 279.9C771.1 277.9 770.7 268.6 764.1 267L667.8 241.4C664 240.4 659.9 242.1 658 245.6Z" fill="#ABD1F6"/>
<path d="M707.3 196.1H777C789.3 196.1 799.9 204.6 802.7 216.5L707.3 196.1Z" fill="#ABD1F6"/>
<path d="M607.8 187.3L611.9 207C612.2 208.3 613.1 209.4 614.3 209.9L618.9 211.7L652 190.7V185.4L642 175.4L607.8 187.3Z" fill="#313030"/>
<path d="M631.1 183L606.1 194.4C604.8 195 603.4 193.6 604 192.3L605.3 169.1C606.2 152.5 616.3 137.9 631.4 131.1L635.3 129.3C649 123.1 664.8 124.3 677.4 132.4C689 139.8 696.5 152.2 697.6 165.9L699.9 192.3L677.8 203.6C673.1 206 667.5 205.8 663 203L631.1 183Z" fill="#FEF8EC"/>
<path d="M663.8 174.4L655.7 171.2C654.5 170.7 653.1 170.7 651.9 171.3L614.4 187.6C613.5 188 613.1 189 613.5 189.9C613.9 190.8 614.9 191.2 615.8 190.8L653.3 174.5C653.7 174.3 654.1 174.3 654.5 174.5L662.7 177.7C667.5 179.6 670.2 184.9 668.4 189.7C667.5 192.1 665.7 194 663.4 195L653.6 199.3C651.1 200.4 649.9 203.3 651 205.9L657.3 220.5C657.5 220.9 657.5 221.3 657.3 221.7L652.1 234.9C650.7 238.5 648 241.3 644.5 242.8C644.1 243 643.8 243.1 643.4 243.2L633.5 220.4C632.8 218.8 633.5 216.8 635.2 216.1L638.7 214.6C641.2 213.5 642.4 210.6 641.3 208L638.7 202.1C638.4 201.3 638.7 200.4 639.5 200.1L656.8 192.6C660 191.2 661.7 187.5 660.3 184.3C659.6 182.7 658.4 181.5 656.8 180.9L652.3 179.1C650.6 178.4 648.7 178.3 646.9 178.8C642.4 180.2 640.3 185.1 642.1 189.3L644.2 194.2L638.1 196.9C635.6 198 634.4 200.9 635.5 203.5L638.1 209.4C638.4 210.2 638.1 211.1 637.3 211.4L620.1 218.9C617.6 220 616.4 222.9 617.5 225.5L622.2 236.2C624.1 240.5 627.4 244.1 631.8 246C636.3 247.9 641.4 247.9 645.9 245.9C650.3 244 653.6 240.5 655.4 236.1L660.6 222.9C661.1 221.7 661.1 220.3 660.5 219.1L654.2 204.5C653.9 203.7 654.2 202.8 655 202.5L664.5 198.4C667.6 197 670.3 194.6 671.6 191.4C673 188.1 672.9 184.5 671.4 181.3C669.7 178.1 667 175.7 663.8 174.4ZM645.1 187.9C644 185.5 645.4 182.6 648.2 182C649 181.8 649.9 182 650.7 182.3L655.4 184.1C656.2 184.4 656.8 185.1 657.1 185.9C657.5 187.3 656.7 188.7 655.4 189.3L647.3 192.8L645.1 187.9ZM625.3 235L620.5 224.1C620.2 223.3 620.5 222.4 621.3 222.1L625.8 220.1C627.4 219.4 629.4 220.1 630.1 221.8L637.4 238.6C638.6 241.3 635.9 244 633.1 242.9C632.3 242.6 631.5 242.1 630.7 241.6C628.3 240.1 626.4 237.7 625.3 235Z" fill="#E9E9E9"/>
<path d="M658.6 171.1L656.5 176.3C656.3 176.8 656.6 177.4 657.1 177.6L659.9 178.7C660.4 178.9 661 178.6 661.2 178.1L663.2 172.9C663.4 172.4 663.1 171.8 662.6 171.6L659.8 170.5C659.4 170.4 658.8 170.6 658.6 171.1Z" fill="#CACACA"/>
<path d="M655.2 204.1L650.1 206.3C649.6 206.5 649.4 207.1 649.6 207.6L650.8 210.4C651 210.9 651.6 211.1 652.1 210.9L657.2 208.7C657.7 208.5 657.9 207.9 657.7 207.4L656.5 204.6C656.3 204.1 655.7 203.9 655.2 204.1Z" fill="#CACACA"/>
<path d="M615.4 186.4L610.3 188.6C609.8 188.8 609.6 189.4 609.8 189.9L611 192.7C611.2 193.2 611.8 193.4 612.3 193.2L617.4 191C617.9 190.8 618.1 190.2 617.9 189.7L616.7 186.9C616.5 186.4 615.9 186.2 615.4 186.4Z" fill="#CACACA"/>
<path d="M710.042 195.515L709.62 197.47L802.483 217.506L802.904 215.551L710.042 195.515Z" fill="#7DB6F2"/>
<path d="M654.9 155C657.1 152.7 658.7 149.9 659.4 146.9C659.9 144.9 660.9 143.4 662.3 143.1C663.7 142.7 665.3 143.4 666.7 144.9C668.9 147.2 671.7 148.7 674.7 149.6C676.1 150 677.1 150.7 677.3 151.7C677.6 152.6 677.1 153.7 676.1 154.8C673.9 157.1 672.3 159.9 671.6 162.9C671.1 164.9 670.1 166.4 668.7 166.7C667.3 167.1 665.7 166.4 664.3 164.9C662.1 162.6 659.3 161.1 656.3 160.2C654.9 159.8 653.9 159.1 653.7 158.1C653.5 157.1 653.9 156.1 654.9 155Z" fill="#45A8F8"/>
<path d="M761.2 375.8H661.5V377.8H761.2V375.8Z" fill="#342C5F"/>
<path d="M911.6 462.7L863.6 433.9C855.2 428.9 850.1 419.7 850.3 409.9L851.5 335.5C851.5 332.1 854.1 329.3 857.4 328.8C861.2 328.3 864.7 330.9 865.2 334.7L874.8 401.7L926 427.5L911.6 462.7Z" fill="#E9E9E9"/>
<path d="M830.2 256.6C864.6 242.9 901 237.7 934.9 242.1C987.4 248.8 1034 278.3 1058.4 333.7C1068.4 356.7 1073.6 381.1 1075 406.9C1075.4 416.9 1075.6 427.3 1074.2 439.7L1072.2 442.4C1037.3 456.2 1002.1 461.2 966 456.9C893 447.9 841.9 391.4 830.5 319.8C827.3 299.9 826 281.2 828.2 259.4L830.2 256.6Z" fill="#7F4C26"/>
<path d="M830.861 255.79L829.643 257.376L1071.65 443.182L1072.87 441.596L830.861 255.79Z" fill="#663718"/>
<path d="M1027.6 481.9C1027.6 481.9 976.7 425.4 999.5 380.4C1002.1 375.3 1000.7 369.1 996.1 365.7C990.9 361.8 983.6 362.9 979.8 368L937.1 425L885.9 402.1L865.1 362.1L860.9 343.3C860 339.3 856.2 336.7 852.2 337.3C848.3 337.9 845.4 341.3 845.5 345.3L846.3 370C846.4 372.3 846.9 374.5 847.8 376.7L864 414C864.9 416.1 866.2 418 867.8 419.6L896.2 448.2L944.2 494L1027.6 481.9Z" fill="#FEF8EC"/>
<path d="M1133.4 432.3L1095.6 391.4C1083.3 378.1 1064.1 373.7 1047.3 380.3L1025.5 388.9C1021.3 390.5 1016.6 389.2 1013.9 385.7C1010.5 381.3 1011.4 374.9 1015.9 371.6L1030 361.3C1046.7 349.1 1050.1 325.4 1037.5 309L1007.7 270.1L1063.8 284.3C1090.2 291 1111.1 311 1118.9 337.1C1121.6 346.2 1127.6 353.9 1135.8 358.8L1175.4 382.4L1133.4 432.3Z" fill="#FEF8EC"/>
<path d="M1048.8 135L1038.3 190.5C1036.5 199.7 1031.5 207.9 1024 213.6L1011.6 223C1007 226.5 1008.9 233.7 1014.6 234.5L1026.3 236L1023.3 290.4C1023.1 299.8 1029.9 308 1039.3 309.4L1095.3 317.7L1128.3 360.2L1248.3 359.8L1255.4 225.9L1109 135H1048.8Z" fill="#FF9999"/>
<path d="M1050.94 260.112L1024.86 261.081L1024.93 263.08L1051.02 262.111L1050.94 260.112Z" fill="#EC7043"/>
<path d="M1049.08 251.252L1047.13 251.705L1052.62 275.274L1054.56 274.82L1049.08 251.252Z" fill="#EC7043"/>
<path d="M1250.8 312.8L1282.3 243.4L1114.8 133.9L1084.5 151C1066.7 161 1068.1 187.1 1086.9 195.2C1102.8 202 1114.7 215.7 1119.2 232.3L1130.6 274.2L1182.5 308.2C1194.1 315.8 1208.1 318.9 1221.9 317L1250.8 312.8Z" fill="#313030"/>
<path d="M1258.5 348.7L1248.3 331.7L1101.9 355.6L1105.1 371.3L1258.5 348.7Z" fill="#0F3F66"/>
<path d="M1308.6 179.7L1294.8 275.2L1193.8 319.6C1189 318.9 1181.2 303 1164 300.6L1149.3 298.5C1135.4 296.5 1123.6 289 1115.9 278.6C1108.1 268.2 1104.3 254.8 1106.3 240.9C1107.3 234.2 1109.5 227.9 1112.9 222.2C1116.3 216.5 1120.7 211.5 1126.1 207.5C1134.2 201.5 1130.9 188.6 1120.9 187.2L1044.6 176.2C1031.5 174.3 1023.7 160 1029.8 148.3C1030 147.9 1030.2 147.5 1030.4 147.2L1046.1 120.8C1050.3 113.8 1055.1 107.1 1060.5 101C1060.8 100.6 1061.2 100.1 1061.6 99.7C1067.5 93.2 1073.9 87.3 1080.9 82C1100.2 67.6 1123 58.7 1146.5 56.1C1152.7 55.4 1159 55.1 1165.2 55.3C1170.3 55.4 1175.3 55.9 1180.4 56.6C1199 59.3 1216.7 65.6 1232.6 75C1248.5 84.4 1262.5 96.9 1273.8 112L1300 147.1C1307.2 156.5 1310.2 168.2 1308.6 179.7Z" fill="#FEF8EC"/>
<path d="M1177.8 192.1L1163.2 172.5C1161 169.5 1157.7 167.6 1154 167L1041.1 150.7C1038.5 150.3 1036 152.1 1035.6 154.8C1035.2 157.4 1037 159.9 1039.7 160.3L1152.6 176.6C1153.7 176.8 1154.8 177.4 1155.4 178.3L1170.1 197.9C1178.7 209.4 1177.2 226 1165.9 234.8C1160.3 239.2 1153.2 241.1 1146.2 240.1L1116.6 235.8C1109 234.7 1101.9 240 1100.8 247.6L1094.5 291.6C1094.3 292.7 1093.7 293.7 1092.8 294.4L1061 318.2C1052.4 324.6 1041.8 327.3 1031.2 325.8C1030.1 325.6 1029 325.4 1028 325.2L1037.9 256.5C1038.6 251.5 1043.2 248 1048.2 248.8L1058.7 250.3C1066.3 251.4 1073.4 246.1 1074.5 238.5L1077.1 220.6C1077.4 218.3 1079.6 216.6 1082 217L1134.1 224.5C1143.7 225.9 1153.1 219.6 1154.6 210C1155.3 205.3 1154.2 200.6 1151.3 196.8L1143.1 185.9C1140 181.8 1135.7 178.5 1130.7 177.3C1118.1 174.1 1105.8 182.6 1103.9 195.2L1101.8 210.1L1083.3 207.4C1075.7 206.3 1068.6 211.6 1067.5 219.2L1064.9 237.1C1064.6 239.5 1062.4 241.1 1060 240.7L1008.2 233.2C1000.6 232.1 993.5 237.4 992.4 245L987.7 277.4C985.8 290.5 988.5 304 996.1 314.8C1004.1 326.1 1016.1 333.4 1029.7 335.3C1043.3 337.2 1056 333.8 1066.7 325.9L1098.5 302.1C1101.5 299.9 1103.4 296.6 1103.9 292.9L1110.2 248.9C1110.5 246.5 1112.7 244.9 1115.1 245.3L1143.6 249.4C1153.1 250.8 1162.9 248.8 1170.7 243.1C1178.7 237.3 1183.9 228.6 1185.1 218.8C1186.5 209.4 1183.6 199.9 1177.8 192.1ZM1113.6 196.5C1114.7 189.1 1122.3 184.3 1129.7 187C1131.9 187.8 1133.8 189.4 1135.2 191.3L1143.6 202.6C1145 204.5 1145.5 207 1144.9 209.4C1143.9 213.3 1139.8 215.6 1135.8 215L1111.4 211.5L1113.6 196.5ZM997.3 279.5L1002.1 246.5C1002.4 244.1 1004.6 242.5 1007 242.9L1020.7 244.9C1025.7 245.6 1029.2 250.2 1028.4 255.2L1021.1 305.8C1019.9 313.9 1009.5 316.5 1004.6 309.8C1003.1 307.8 1001.8 305.6 1000.7 303.2C997.1 295.9 996.2 287.6 997.3 279.5Z" fill="#E9E9E9"/>
<path d="M1206.2 213.1C1205.8 201 1202.8 189.1 1196.4 178.8C1192.2 171.9 1191 165.4 1193.7 160.6C1196.4 155.8 1202.7 153.5 1210.7 153.6C1222.8 153.8 1234.6 150.4 1245.2 144.5C1250.1 141.8 1254.6 141.1 1257.9 143C1261.2 144.9 1262.9 149.1 1263 154.7C1263.4 166.8 1266.4 178.7 1272.8 189C1277 195.9 1278.2 202.4 1275.5 207.2C1272.8 212 1266.5 214.3 1258.5 214.2C1246.4 214 1234.6 217.4 1224 223.3C1219.1 226 1214.6 226.7 1211.3 224.8C1208.1 222.9 1206.4 218.7 1206.2 213.1Z" fill="#45A8F8"/>
<path d="M1170.9 176.3L1157.4 186.4C1156.4 187.1 1156.2 188.5 1157 189.4L1162.8 197.1C1163.5 198.1 1164.9 198.3 1165.8 197.5L1179.3 187.4C1180.3 186.7 1180.5 185.3 1179.7 184.4L1173.9 176.7C1173.2 175.8 1171.8 175.6 1170.9 176.3Z" fill="#CACACA"/>
<path d="M1114.4 250L1097.7 247.6C1096.5 247.4 1095.4 248.3 1095.3 249.4L1093.9 258.9C1093.7 260.1 1094.5 261.2 1095.7 261.4L1112.4 263.8C1113.6 264 1114.7 263.1 1114.9 262L1116.3 252.5C1116.5 251.3 1115.6 250.2 1114.4 250Z" fill="#CACACA"/>
<path d="M1045.9 149.6L1029.2 147.2C1028 147 1026.9 147.9 1026.7 149L1025.3 158.5C1025.1 159.7 1026 160.8 1027.1 161L1043.8 163.4C1045 163.6 1046.1 162.7 1046.3 161.6L1047.7 152.1C1047.9 150.8 1047.1 149.7 1045.9 149.6Z" fill="#CACACA"/>
<path d="M1460.2 466L1417.5 395.2C1378.1 329.7 1302.9 294.7 1227.5 306.5L1160.6 317C1110.8 324.8 1071.1 362.9 1061.3 412.4L1050.7 466.1H1460.2V466Z" fill="#7DB6F2"/>
<path d="M1049.2 217.3C1051.6 217.3 1053.6 215.3 1053.6 212.9C1053.6 210.5 1051.6 208.5 1049.2 208.5C1046.8 208.5 1044.8 210.5 1044.8 212.9C1044.8 215.3 1046.8 217.3 1049.2 217.3Z" fill="#02070A"/>
<path d="M1059.8 209.9L1041.7 208.8C1038.2 208.5 1038.8 203.3 1042.3 203.8L1060.1 207C1061.9 207.4 1061.5 210 1059.8 209.9Z" fill="#02070A"/>
<path d="M1324 428.3C1318.5 402.8 1304.3 379.6 1284 363.2C1263.7 346.8 1238.1 337.7 1212 337.7V331.7C1239.5 331.7 1266.4 341.2 1287.8 358.5C1309.2 375.8 1324.1 400.1 1329.9 427L1324 428.3Z" fill="#45A8F8"/>
<path d="M1106.7 407.1L1101.2 404.7C1120.2 360.4 1163.7 331.7 1212 331.7V337.7C1166.1 337.8 1124.8 365 1106.7 407.1Z" fill="#45A8F8"/>
<path d="M1191.7 291.3L1298.9 246.4L1294.8 275.2L1192.5 293.9C1190.9 294.2 1190.2 292 1191.7 291.3Z" fill="#E9E9E9"/>
<path d="M1165.4 55.3L1096.7 106.5C1085.2 115 1069 112.5 1060.6 101C1060.9 100.6 1061.3 100.1 1061.7 99.7C1067.6 93.2 1074 87.3 1081 82C1100.4 67.6 1123.1 58.7 1146.6 56.1C1152.9 55.4 1159.2 55.1 1165.4 55.3Z" fill="#E9E9E9"/>
<path d="M1028.76 139.923L1028.17 143.881L1167.86 164.482L1168.45 160.524L1028.76 139.923Z" fill="#45A8F8"/>
<path d="M706.5 334.5C702.9 329 698.1 324.4 692.2 321.5C688.3 319.5 685.9 316.9 685.8 313.9C685.7 310.9 687.9 308.1 691.7 305.8C697.3 302.4 701.8 297.5 705 291.8C706.5 289.1 708.4 287.6 710.4 287.5C712.4 287.4 714.4 288.9 716.1 291.4C719.7 296.9 724.5 301.5 730.4 304.5C734.3 306.5 736.7 309.1 736.8 312.1C736.9 315.1 734.7 317.9 730.9 320.2C725.3 323.6 720.8 328.5 717.6 334.2C716.1 336.9 714.2 338.4 712.2 338.5C710.2 338.5 708.2 337 706.5 334.5Z" fill="#7DB6F2"/>
<path d="M772.1 271H770.1V360.9H772.1V271Z" fill="#7DB6F2"/>
</g>
</g>
<defs>
<clipPath id="clip0_1528_81638">
<rect width="1335" height="464" fill="white"/>
</clipPath>
</defs>
</svg>
