<svg width="1335" height="464" viewBox="0 0 1335 464" fill="none" xmlns="http://www.w3.org/2000/svg">
<g clip-path="url(#clip0_1528_88320)">
<rect width="1335" height="464" fill="#C6E6C7"/>
<mask id="mask0_1528_88320" style="mask-type:luminance" maskUnits="userSpaceOnUse" x="-1" y="0" width="1337" height="464">
<path d="M1335.18 0H-0.179688V464H1335.18V0Z" fill="white"/>
</mask>
<g mask="url(#mask0_1528_88320)">
<path d="M1334.82 0H-0.179688V464H1334.82V0Z" fill="#C6E6C7"/>
<path d="M0.149902 350.06L1335.17 350.06V325.09L0.149902 325.09V350.06Z" fill="#75C476"/>
<path d="M1334.26 350.06H0.160156V385.63H1334.26V350.06Z" fill="#FDF9F0"/>
<path d="M808.88 358.15H802.7V385.64H808.88V358.15Z" fill="#121831"/>
<path d="M707.71 358.15H701.53V385.64H707.71V358.15Z" fill="#121831"/>
<path d="M606.531 358.15H600.351V385.64H606.531V358.15Z" fill="#121831"/>
<path d="M505.35 358.15H499.17V385.64H505.35V358.15Z" fill="#121831"/>
<path d="M404.17 358.15H397.99V385.64H404.17V358.15Z" fill="#121831"/>
<path d="M302.991 358.15H296.811V385.64H302.991V358.15Z" fill="#121831"/>
<path d="M201.821 358.15H195.641V385.64H201.821V358.15Z" fill="#121831"/>
<path d="M100.64 358.15H94.46V385.64H100.64V358.15Z" fill="#121831"/>
<path d="M785.911 371.89H780.211V385.63H785.911V371.89Z" fill="#57AAE3"/>
<path d="M767.68 371.89H761.98V385.63H767.68V371.89Z" fill="#57AAE3"/>
<path d="M749.45 371.89H743.75V385.63H749.45V371.89Z" fill="#57AAE3"/>
<path d="M731.22 371.89H725.521V385.63H731.22V371.89Z" fill="#57AAE3"/>
<path d="M684.22 371.89H678.521V385.63H684.22V371.89Z" fill="#57AAE3"/>
<path d="M665.99 371.89H660.29V385.63H665.99V371.89Z" fill="#57AAE3"/>
<path d="M647.761 371.89H642.061V385.63H647.761V371.89Z" fill="#57AAE3"/>
<path d="M629.53 371.89H623.83V385.63H629.53V371.89Z" fill="#57AAE3"/>
<path d="M582.53 371.89H576.83V385.63H582.53V371.89Z" fill="#57AAE3"/>
<path d="M564.301 371.89H558.601V385.63H564.301V371.89Z" fill="#57AAE3"/>
<path d="M546.07 371.89H540.37V385.63H546.07V371.89Z" fill="#57AAE3"/>
<path d="M527.85 371.89H522.15V385.63H527.85V371.89Z" fill="#57AAE3"/>
<path d="M480.84 371.89H475.14V385.63H480.84V371.89Z" fill="#57AAE3"/>
<path d="M462.61 371.89H456.91V385.63H462.61V371.89Z" fill="#57AAE3"/>
<path d="M444.39 371.89H438.69V385.63H444.39V371.89Z" fill="#57AAE3"/>
<path d="M426.16 371.89H420.46V385.63H426.16V371.89Z" fill="#57AAE3"/>
<path d="M379.161 371.89H373.461V385.63H379.161V371.89Z" fill="#57AAE3"/>
<path d="M360.93 371.89H355.23V385.63H360.93V371.89Z" fill="#57AAE3"/>
<path d="M342.701 371.89H337.001V385.63H342.701V371.89Z" fill="#57AAE3"/>
<path d="M324.471 371.89H318.771V385.63H324.471V371.89Z" fill="#57AAE3"/>
<path d="M277.471 371.89H271.771V385.63H277.471V371.89Z" fill="#57AAE3"/>
<path d="M259.24 371.89H253.54V385.63H259.24V371.89Z" fill="#57AAE3"/>
<path d="M241.011 371.89H235.311V385.63H241.011V371.89Z" fill="#57AAE3"/>
<path d="M222.78 371.89H217.08V385.63H222.78V371.89Z" fill="#57AAE3"/>
<path d="M175.781 371.89H170.081V385.63H175.781V371.89Z" fill="#57AAE3"/>
<path d="M157.551 371.89H151.851V385.63H157.551V371.89Z" fill="#57AAE3"/>
<path d="M139.321 371.89H133.621V385.63H139.321V371.89Z" fill="#57AAE3"/>
<path d="M121.091 371.89H115.391V385.63H121.091V371.89Z" fill="#57AAE3"/>
<path d="M808.89 385.64H94.46V464H808.89V385.64Z" fill="#F8DE9F"/>
<path d="M1334.26 385.64H808.891V464H1334.26V385.64Z" fill="#F3714D"/>
<path d="M0.1502 464H94.4502L94.4502 385.64H0.1502L0.1502 464Z" fill="#75C476"/>
<path d="M857.651 385.64H842.98V464H857.651V385.64Z" fill="#FFF9E3"/>
<path d="M760.071 135.34L746.961 128.7L747.451 123.91C748.471 113.99 740.751 105.35 730.781 105.25C722.291 105.17 715.051 111.4 713.861 119.81L713.501 122.39C713.291 123.91 712.761 125.37 711.961 126.68L709.761 130.27C709.341 130.95 709.691 131.83 710.461 132.05L713.221 132.82C714.371 133.14 715.381 133.83 716.091 134.79L719.111 138.88C720.671 140.99 723.241 142.1 725.841 141.8L736.551 140.56L760.011 164.69L760.061 135.35L760.071 135.34Z" fill="#FFAF9D"/>
<path d="M787.951 132.15L850.451 128.04C857.501 127.58 864.29 130.8 868.38 136.57L905.581 196.78L833.94 150.93L778.23 157.73L787.951 132.14V132.15Z" fill="#0D386C"/>
<path d="M752.951 131.73L755.811 133.18L757.591 130.05L753.161 127.8C751.731 127.07 751.161 125.33 751.881 123.9L753.171 121.36C755.321 117.12 753.621 111.94 749.381 109.79L741.691 105.9C739.441 99.05 730.941 96.7 725.501 101.43L716.981 108.84H707.471L707.541 109.14C709.191 116.49 717.781 120.05 723.981 115.77C724.021 115.74 724.061 115.71 724.111 115.68L721.781 117.32C719.741 118.75 719.781 121.79 721.861 123.17L725.661 125.68L727.781 124.99L725.571 121.64L729.721 118.94C730.871 118.19 732.381 118.32 733.391 119.26C734.531 120.32 734.661 122.08 733.691 123.3C732.871 124.33 733.031 125.82 734.051 126.66L743.781 134.6C745.571 131.32 749.641 130.06 752.971 131.75L752.951 131.73Z" fill="#212121"/>
<path d="M883.72 203.31C884.76 213.28 881.57 223.7 873.83 231.62C867.7 237.9 859.15 241.23 850.42 242.14L769.03 250.66L764.68 209.12L804.36 200.59L797.46 194.99L760.03 164.66L843.27 157.25L870.9 179.64C873.45 181.71 875.63 184.06 877.44 186.61C881 191.6 883.11 197.37 883.73 203.29L883.72 203.31Z" fill="#0D386C"/>
<path d="M877.43 186.63L797.451 195L760.021 164.67L843.26 157.26L870.891 179.65C873.441 181.72 875.62 184.07 877.43 186.62V186.63Z" fill="white"/>
<path d="M937.62 215.68L923.63 206.85H923.68L923.74 206.87L933 206.56C932.89 205.5 932.04 204.67 930.98 204.58L915.89 203.31L915.75 203.28L862.66 142.04C859.03 137.85 853.85 135.31 848.31 135L793.48 131.92L782.86 162.59L831.3 158.39L901.71 208.71C905.11 211.14 907.91 214.3 909.9 217.97L913.66 224.88C914.07 225.64 914.97 225.98 915.78 225.7C916.7 225.38 917.18 224.38 916.87 223.47L914.65 216.99L931.63 225.82C932.32 226.18 933.17 225.93 933.55 225.26C933.93 224.6 933.73 223.76 933.09 223.34L919.8 214.58L934.86 222.86C935.64 223.29 936.62 223.05 937.11 222.31C937.65 221.5 937.42 220.41 936.59 219.9L922.72 211.26L936.21 218.17C936.87 218.51 937.67 218.29 938.07 217.67C938.5 217 938.3 216.11 937.63 215.69L937.62 215.68Z" fill="#FFAF9D"/>
<path d="M755.811 133.18L753.801 158.28L760.021 164.68L797.451 195.01L800.261 128.52L755.811 133.18Z" fill="white"/>
<path d="M764.67 209.13L769.02 250.67L708.95 256.96L660.33 294.64L641.77 309.03L632.84 315.95C628.74 319.14 623.57 320.66 618.4 320.22L589.9 317.83C587.48 317.63 585.54 315.73 585.29 313.31C585 310.52 587.03 308.04 589.78 307.75C589.88 307.74 589.99 307.73 590.1 307.73L610.44 306.83C613.64 306.69 616.72 305.58 619.26 303.69C619.81 303.27 620.34 302.82 620.84 302.34L644.7 279.09L686.51 238.35C694.82 230.27 705.08 224.49 716.29 221.6L764.67 209.12V209.13Z" fill="#F78E7E"/>
<path d="M822.4 245.11L765.95 266.63L733.52 309.16L714.23 334.46L707.56 343.21C704.4 347.35 699.81 350.15 694.69 351.06L666.53 356.07C664.14 356.5 661.78 355.16 660.92 352.9C660.76 352.48 660.66 352.05 660.62 351.61C660.38 349.28 661.79 347 664.14 346.26L683.56 340.17C686.74 339.17 689.5 337.2 691.49 334.57C691.83 334.11 692.16 333.64 692.46 333.14L709.18 305.16L739.48 254.43C739.62 254.2 739.76 253.97 739.91 253.74C745.82 244.11 754.1 236.15 763.97 230.59L766.76 229.02L807.52 206.1L822.41 245.13L822.4 245.11Z" fill="#FFAF9D"/>
<path fill-rule="evenodd" clip-rule="evenodd" d="M764.842 230.08C765.113 230.561 764.942 231.171 764.461 231.442C754.512 237.036 746.2 245.132 740.349 254.933C740.066 255.407 739.452 255.562 738.978 255.279C738.504 254.996 738.349 254.382 738.632 253.907C744.661 243.807 753.228 235.464 763.48 229.698C763.962 229.428 764.571 229.598 764.842 230.08Z" fill="#E25E43"/>
<path d="M660.33 294.64L641.77 309.03L632.84 315.95C628.74 319.14 623.57 320.66 618.4 320.22L589.9 317.83C587.48 317.63 585.54 315.73 585.29 313.31C585 310.52 587.03 308.04 589.78 307.75C589.88 307.74 589.99 307.73 590.1 307.73L610.44 306.83C613.64 306.69 616.72 305.58 619.26 303.69C619.81 303.27 620.34 302.82 620.84 302.34L644.7 279.09L660.33 294.63V294.64Z" fill="#FDF9F0"/>
<path d="M733.52 309.15L714.23 334.45L707.56 343.2C704.4 347.34 699.81 350.14 694.69 351.05L666.53 356.06C664.14 356.49 661.78 355.15 660.92 352.89C660.76 352.47 660.66 352.04 660.62 351.6C660.38 349.27 661.79 346.99 664.14 346.25L683.56 340.16C686.74 339.16 689.5 337.19 691.49 334.56C691.83 334.1 692.16 333.63 692.46 333.13L709.18 305.15L733.52 309.15Z" fill="#FDF9F0"/>
<path d="M641.771 309.03L632.841 315.95C628.741 319.14 623.571 320.66 618.401 320.22L590.141 317.85C587.721 317.65 585.621 315.86 585.311 313.45C584.941 310.6 586.991 308.05 589.791 307.76C589.891 307.75 590.001 307.74 590.111 307.74L610.451 306.84C613.651 306.7 616.731 305.59 619.271 303.7L622.411 311.06L641.781 309.03H641.771Z" fill="#0D386C"/>
<path d="M714.23 334.45L707.56 343.2C704.4 347.34 699.81 350.14 694.69 351.05L666.53 356.06C664.14 356.49 661.78 355.15 660.92 352.89C660.76 352.47 660.66 352.04 660.62 351.6C660.38 349.27 661.79 346.99 664.14 346.25L683.56 340.16C686.74 339.16 689.5 337.19 691.49 334.56L697.58 341.67L714.23 334.45Z" fill="#0D386C"/>
</g>
</g>
<defs>
<clipPath id="clip0_1528_88320">
<rect width="1335" height="464" fill="white"/>
</clipPath>
</defs>
</svg>
