<svg width="1335" height="464" viewBox="0 0 1335 464" fill="none" xmlns="http://www.w3.org/2000/svg">
<g clip-path="url(#clip0_1528_81965)">
<rect width="1335" height="464" fill="#FEE3E2"/>
<path d="M1335 398.01H0V464.01H1335V398.01Z" fill="#FFB8CD"/>
<path d="M1335 -0.0200195H0V398.01H1335V-0.0200195Z" fill="#FEE3E2"/>
<path d="M213.25 379.73H1140.58" stroke="#FFB8CD" stroke-width="2" stroke-linejoin="round"/>
<path d="M304.09 131.44C304.22 132.22 304.28 133.04 304.24 133.86L304.2 134.67L303.78 144.7L303.46 152.39C303.41 153.65 303.25 154.91 302.99 156.13C302.04 160.75 299.69 165 296.21 168.28L272.48 190.71L281.47 209.78L239.82 216.75L239.37 202L212.07 192.31C199.72 187.93 190.71 177.2 188.54 164.27L182.87 130.42L177.33 119.94C175.99 117.41 175.1 114.72 174.65 112C173.39 104.45 175.45 96.5601 180.59 90.5301C188.69 81.0601 202.31 78.5501 213.26 84.5301L225.59 91.2801L243.02 88.3601C248.88 87.3801 254.71 90.2201 257.53 95.4501L268.15 115.08C270.77 117.25 273.92 118.67 277.28 119.19L294.36 121.81C294.56 121.84 294.76 121.87 294.96 121.92C299.75 122.91 303.32 126.74 304.11 131.42L304.09 131.44Z" fill="#BD6122"/>
<path d="M174.81 359.45L228.42 224.68C235.93 205.81 254.18 193.43 274.49 193.43C300.71 193.43 322.4 213.85 323.98 240.02L331.2 359.45H174.8H174.81Z" fill="#D47D45"/>
<path d="M391.62 335.4C388.53 349.55 376.04 359.46 361.76 359.46H309.87L258.52 204.48C236.34 228.69 215.31 257.63 215.31 257.63L257.42 312.05C264.12 320.71 265.46 332.39 260.88 342.34L253 359.46H204.39V321H175.43C147.87 321 128.91 293.32 138.87 267.62L149.83 239.35C160.37 212.14 186.55 194.2 215.74 194.2H243.76C247.53 194.2 251.3 193.97 255.03 193.51C258.77 193.06 262.48 192.37 266.14 191.46C288.57 185.88 311.62 197.99 319.75 219.62L328.21 242.13L344.69 285.96L348.94 288.12L374.9 301.3C387.45 307.67 394.63 321.65 391.62 335.4Z" fill="#BD6122"/>
<path d="M361.77 359.45C376.05 359.45 388.54 349.54 391.63 335.39" stroke="#6D3C1D" stroke-width="2" stroke-miterlimit="10"/>
<path d="M260.88 342.33C265.46 332.38 264.13 320.71 257.42 312.04" stroke="#6D3C1D" stroke-width="2" stroke-miterlimit="10"/>
<path d="M250.32 342.33C254.9 332.38 253.57 320.71 246.86 312.04" stroke="#6D3C1D" stroke-width="2" stroke-miterlimit="10"/>
<path d="M239.75 342.33C244.33 332.38 243 320.71 236.29 312.04" stroke="#6D3C1D" stroke-width="2" stroke-miterlimit="10"/>
<path d="M237.69 359.45L174.81 313.18V359.45H237.69Z" fill="#6D3C1D"/>
<path d="M279.6 359.45L342.48 313.18V359.45H279.6Z" fill="#6D3C1D"/>
<path d="M171.91 258.52C151.37 258.52 135.6 276.73 138.53 297.06L147.54 359.45H205.63V292.24C205.63 273.61 190.53 258.52 171.91 258.52Z" fill="#6D3C1D"/>
<path d="M340.58 291.6L296.73 301.91C283.56 305.01 274.25 316.76 274.25 330.29C274.25 346.39 287.3 359.45 303.41 359.45H348.46C367.45 359.45 382.84 344.06 382.84 325.07C382.84 302.9 362.17 286.53 340.59 291.6H340.58Z" fill="#6D3C1D"/>
<path d="M175.03 350.21C185.032 350.21 193.14 342.102 193.14 332.1C193.14 322.098 185.032 313.99 175.03 313.99C165.028 313.99 156.92 322.098 156.92 332.1C156.92 342.102 165.028 350.21 175.03 350.21Z" fill="#D47D45"/>
<path d="M151.29 306.33C156.294 306.33 160.35 302.274 160.35 297.27C160.35 292.266 156.294 288.21 151.29 288.21C146.286 288.21 142.23 292.266 142.23 297.27C142.23 302.274 146.286 306.33 151.29 306.33Z" fill="#D47D45"/>
<path d="M171.8 290.68C176.804 290.68 180.86 286.624 180.86 281.62C180.86 276.616 176.804 272.56 171.8 272.56C166.796 272.56 162.74 276.616 162.74 281.62C162.74 286.624 166.796 290.68 171.8 290.68Z" fill="#D47D45"/>
<path d="M193.14 306.33C198.144 306.33 202.2 302.274 202.2 297.27C202.2 292.266 198.144 288.21 193.14 288.21C188.136 288.21 184.08 292.266 184.08 297.27C184.08 302.274 188.136 306.33 193.14 306.33Z" fill="#D47D45"/>
<path d="M315.22 345.33C324.907 345.33 332.76 337.477 332.76 327.79C332.76 318.103 324.907 310.25 315.22 310.25C305.533 310.25 297.68 318.103 297.68 327.79C297.68 337.477 305.533 345.33 315.22 345.33Z" fill="#D47D45"/>
<path d="M348.94 313.57C353.783 313.57 357.71 309.644 357.71 304.8C357.71 299.956 353.783 296.03 348.94 296.03C344.096 296.03 340.17 299.956 340.17 304.8C340.17 309.644 344.096 313.57 348.94 313.57Z" fill="#D47D45"/>
<path d="M364.1 333.44C368.944 333.44 372.87 329.514 372.87 324.67C372.87 319.827 368.944 315.9 364.1 315.9C359.257 315.9 355.33 319.827 355.33 324.67C355.33 329.514 359.257 333.44 364.1 333.44Z" fill="#D47D45"/>
<path d="M348.94 354.1C353.783 354.1 357.71 350.174 357.71 345.33C357.71 340.487 353.783 336.56 348.94 336.56C344.096 336.56 340.17 340.487 340.17 345.33C340.17 350.174 344.096 354.1 348.94 354.1Z" fill="#D47D45"/>
<path d="M304.09 131.44C304.22 132.22 304.28 133.04 304.24 133.86L303.78 144.7L290.37 132.27C288.91 130.92 288.82 128.64 290.16 127.18L294.94 121.94C299.73 122.93 303.3 126.76 304.09 131.44Z" fill="#313030"/>
<path d="M247.48 124.16C251.733 124.16 255.18 120.713 255.18 116.46C255.18 112.207 251.733 108.76 247.48 108.76C243.227 108.76 239.78 112.207 239.78 116.46C239.78 120.713 243.227 124.16 247.48 124.16Z" fill="#313030"/>
<path d="M246.31 121.47C243.54 120.82 241.82 118.05 242.47 115.28" stroke="#FCF6EA" stroke-width="2" stroke-miterlimit="10" stroke-linecap="round"/>
<path d="M294.82 150.26L303.46 152.4C303.41 153.66 303.25 154.92 302.99 156.14L294.19 152.07C293.13 151.58 293.69 149.99 294.82 150.27V150.26Z" fill="#6D3C1D"/>
<path d="M304.2 134.68L303.78 144.71L303.46 152.4L299.78 133.42L304.2 134.68Z" fill="#313030"/>
<path d="M203.77 127.39C193.41 129.12 183.6 122.13 181.87 111.77C180.14 101.41 187.13 91.6001 197.49 89.8701L203.77 127.39Z" fill="#D47D45"/>
<path d="M213.25 84.55L235.01 95.73" stroke="#6D3C1D" stroke-width="2" stroke-miterlimit="10"/>
<path d="M362.38 412.86C370.581 412.86 377.23 406.211 377.23 398.01C377.23 389.809 370.581 383.16 362.38 383.16C354.179 383.16 347.53 389.809 347.53 398.01C347.53 406.211 354.179 412.86 362.38 412.86Z" fill="#313030"/>
<path d="M362.38 405.33C366.423 405.33 369.7 402.053 369.7 398.01C369.7 393.967 366.423 390.69 362.38 390.69C358.337 390.69 355.06 393.967 355.06 398.01C355.06 402.053 358.337 405.33 362.38 405.33Z" fill="#FCF6EA"/>
<path d="M166.11 412.86C174.311 412.86 180.96 406.211 180.96 398.01C180.96 389.809 174.311 383.16 166.11 383.16C157.909 383.16 151.26 389.809 151.26 398.01C151.26 406.211 157.909 412.86 166.11 412.86Z" fill="#313030"/>
<path d="M166.11 405.33C170.153 405.33 173.43 402.053 173.43 398.01C173.43 393.967 170.153 390.69 166.11 390.69C162.067 390.69 158.79 393.967 158.79 398.01C158.79 402.053 162.067 405.33 166.11 405.33Z" fill="#FCF6EA"/>
<path d="M148.19 359.45H380.31C386.93 359.45 392.31 364.83 392.31 371.45V400H136.19V371.45C136.19 364.83 141.57 359.45 148.19 359.45Z" fill="#A5D9EC"/>
<path d="M136.19 400H187.78L193.25 359.45L136.19 400Z" fill="#D2ECF5"/>
<path d="M205.76 400L193.25 359.45L187.78 400H205.76Z" fill="#6EC4E2"/>
<path d="M307.88 400L370.42 359.45L382.84 400H307.88Z" fill="#D2ECF5"/>
<path d="M217.2 400L256.68 359.45L269.19 400H217.2Z" fill="#D2ECF5"/>
<path d="M256.68 359.45L217.2 400H243.19L256.68 359.45Z" fill="#6EC4E2"/>
<path d="M370.42 359.45L307.88 400H270.94L370.42 359.45Z" fill="#6EC4E2"/>
<path d="M415.7 47.53C372.76 55.36 354.9 107.13 383.88 139.77L387.87 144.26L383.66 172.45C379.21 202.29 414.23 221.61 437.1 201.93C470.42 219.78 509.07 189.48 499.67 152.86L499.18 150.95L504.3 148.21C532.31 133.23 534.54 93.91 508.4 75.86L503.19 72.26L497.33 58.9C482.85 25.88 438.65 19.72 415.69 47.52L415.7 47.53Z" fill="#FEC7C6"/>
<path d="M509.62 359.45L542.48 297.32C551.12 280.99 568.08 270.77 586.55 270.77H587.77C623.21 270.77 647.34 306.71 633.91 339.52L649.79 318.2C654.25 312.21 661.28 308.68 668.74 308.68C684.2 308.68 695.5 323.28 691.61 338.25C690.1 344.06 694.48 349.72 700.48 349.72H716.6C719.29 349.72 721.46 351.9 721.46 354.58C721.46 357.27 719.28 359.44 716.6 359.44H509.61L509.62 359.45Z" fill="#A5D9EC"/>
<path d="M587.15 242.86L556.69 276.8C553.72 280.11 553.52 285.05 556.22 288.59L604.18 351.54" stroke="#FF5817" stroke-width="4" stroke-miterlimit="10"/>
<path d="M596.77 204.72V359.45" stroke="#FF5817" stroke-width="4" stroke-miterlimit="10"/>
<path d="M581.68 219.57L570.63 250.5C568.73 255.81 572.67 261.4 578.31 261.4C580.47 261.4 582.55 260.54 584.07 259.01L623.41 219.67L581.68 219.57Z" fill="#41B5DB"/>
<path d="M584.24 214.63L588.05 247.25C588.7 252.85 594.71 256.11 599.76 253.61C601.7 252.65 603.18 250.96 603.87 248.91L621.69 196.21L584.25 214.62L584.24 214.63Z" fill="#41B5DB"/>
<path d="M489.44 332.24C494.19 322.41 506.23 318.6 515.76 323.92L563.67 350.64C572.88 355.77 584.42 353.73 591.31 345.75L604.1 330.92C610.31 323.72 619.34 319.59 628.84 319.59H630.85C651.8 319.59 667.34 339.02 662.73 359.46L693.41 352.35C694.29 352.15 695.22 352.28 696.01 352.73C699.22 354.56 697.92 359.46 694.22 359.46H506.51C492.52 359.46 483.34 344.84 489.43 332.24H489.44Z" fill="#41B5DB"/>
<path d="M652.79 160.77C657.97 188.08 644.24 216.55 617.72 228.77L611.36 231.7L611.32 231.72L516.39 275.46V252.26C516.39 224.84 527.92 199.31 547.23 181.31C555.6 173.46 565.43 167.05 576.41 162.52L619.59 144.66L630.27 111.95C632.05 106.47 631.36 100.6 628.91 95.36C627.8 93.02 627.38 90.28 627.89 87.43C628.81 82.21 632.97 77.96 638.17 76.96C646.54 75.36 653.86 81.74 653.86 89.81C653.86 94.64 651.23 98.85 647.34 101.11V109.31C647.34 126.61 649.54 143.78 652.79 160.77Z" fill="#FCF6EA"/>
<path d="M554.71 286.4C557.09 286.4 559.02 284.47 559.02 282.09C559.02 279.71 557.09 277.78 554.71 277.78C552.33 277.78 550.4 279.71 550.4 282.09C550.4 284.47 552.33 286.4 554.71 286.4Z" fill="#FF5817"/>
<path d="M596.77 286.4C599.15 286.4 601.08 284.47 601.08 282.09C601.08 279.71 599.15 277.78 596.77 277.78C594.39 277.78 592.46 279.71 592.46 282.09C592.46 284.47 594.39 286.4 596.77 286.4Z" fill="#FF5817"/>
<path d="M717.44 191.1C715.57 195.55 712.83 199.69 709.26 203.27C704.46 208.07 698.69 211.31 692.59 213.02C689.26 213.95 685.83 214.41 682.39 214.41C678.92 214.41 675.47 213.93 672.11 212.99C666.04 211.3 660.3 208.04 655.53 203.28C654.25 202 653.07 200.65 652.01 199.22C647.35 193.03 644.79 185.66 644.45 178.15V178.13C644.11 170.8 645.89 163.34 649.89 156.71L657.33 144.43L660.03 139.95L668.94 125.24L678.09 110.15C678.7 109.14 679.57 108.46 680.55 108.09C680.57 108.09 680.57 108.07 680.57 108.07C680.8 107.98 681.05 107.91 681.3 107.87L681.5 107.82C681.8 107.75 682.1 107.73 682.41 107.73C684.08 107.73 685.76 108.53 686.73 110.15L691.48 118.01L710.13 148.79L714.92 156.71C715.03 156.89 715.13 157.05 715.22 157.23C718.44 162.71 720.13 168.76 720.38 174.83C720.61 180.38 719.61 185.95 717.46 191.11L717.44 191.1Z" fill="#41B5DB"/>
<path d="M717.44 191.1C715.57 195.55 712.83 199.69 709.26 203.27C704.46 208.07 698.69 211.31 692.59 213.02C692 211.26 691.68 209.37 691.68 207.42C691.68 197.46 699.76 189.38 709.72 189.38C712.48 189.38 715.09 190 717.44 191.11V191.1Z" fill="#FCF6EA"/>
<path d="M668.3 161.06C668.3 171.02 660.22 179.1 650.26 179.1C648.23 179.1 646.27 178.76 644.44 178.14V178.12C644.1 170.79 645.88 163.33 649.88 156.7L657.32 144.42C663.78 147.18 668.3 153.58 668.3 161.06Z" fill="#A5D9EC"/>
<path d="M710.11 148.79C707.19 150.84 703.63 152.03 699.81 152.03C689.85 152.03 681.77 143.95 681.77 133.99C681.77 127.03 685.7 121 691.47 118.01L710.12 148.79H710.11Z" fill="#FCF6EA"/>
<path d="M687.48 182.21C692.462 182.21 696.5 178.172 696.5 173.19C696.5 168.208 692.462 164.17 687.48 164.17C682.498 164.17 678.46 168.208 678.46 173.19C678.46 178.172 682.498 182.21 687.48 182.21Z" fill="#FCF6EA"/>
<path d="M675.79 133.98C675.79 138.96 671.75 143 666.77 143C664.08 143 661.66 141.83 660.03 139.94L668.94 125.23C672.87 126.21 675.79 129.75 675.79 133.98Z" fill="#FCF6EA"/>
<path d="M677.61 202.38C677.61 206.77 675.44 210.65 672.11 212.98C666.04 211.29 660.3 208.03 655.53 203.27C654.25 201.99 653.07 200.64 652.01 199.21C653.4 193.55 658.52 189.37 664.61 189.37C671.8 189.37 677.62 195.19 677.62 202.38H677.61Z" fill="#A5D9EC"/>
<path d="M720.36 174.82C719.92 174.91 719.47 174.94 719.01 174.94C713.89 174.94 709.72 170.79 709.72 165.67C709.72 161.9 711.96 158.66 715.2 157.22C718.42 162.7 720.11 168.75 720.36 174.82Z" fill="#A5D9EC"/>
<path d="M698.83 113.43C698.76 113.66 698.53 113.84 698.23 113.76L647.35 101.1L650.45 95.72L653.87 89.8L698.58 112.83C698.84 112.95 698.9 113.22 698.83 113.43Z" fill="#FF5817"/>
<path d="M686.87 108.62C686.78 108.66 686.67 108.69 686.59 108.71L686.39 108.76C686.15 108.8 685.9 108.87 685.67 108.96C685.67 108.96 685.67 108.96 685.65 108.96C684.72 109.19 683.78 109.3 682.87 109.3C679.15 109.3 675.6 107.55 673.36 104.59C672.94 104.05 672.56 103.47 672.25 102.86C671.98 102.37 671.75 101.85 671.56 101.31L669.22 94.6601L668.51 92.6701L667.58 90.0601C668.9 89.5901 670.26 89.3701 671.58 89.3701C676.52 89.3701 681.14 92.4401 682.88 97.3601L686.87 108.61V108.62Z" fill="#41B5DB"/>
<path d="M698.83 113.43C698.76 113.66 698.53 113.84 698.23 113.76L647.35 101.1L650.45 95.72L698.83 113.42V113.43Z" fill="#FBC400"/>
<path d="M641.108 86.9137L643.993 89.7986L641.108 92.6836C639.022 94.7696 635.628 94.7696 633.542 92.6836L630.657 89.7986L633.542 86.9136C635.628 84.8277 639.022 84.8277 641.108 86.9137Z" fill="#41B5DB"/>
<path d="M641.48 92.9299C643.209 92.9299 644.61 91.5286 644.61 89.7999C644.61 88.0713 643.209 86.6699 641.48 86.6699C639.751 86.6699 638.35 88.0713 638.35 89.7999C638.35 91.5286 639.751 92.9299 641.48 92.9299Z" fill="#313030"/>
<path d="M594.14 220.94C602.09 217.06 611.36 222.85 611.36 231.7L611.32 231.72L516.39 275.46V252.26C516.39 224.84 527.92 199.31 547.23 181.31C548.97 186.13 549.94 190.91 550.32 195.58C552.06 217.18 574.66 230.45 594.14 220.94Z" fill="#005597"/>
<path d="M692.52 82.47C694.5 84.06 695.83 86.15 696.5 88.41C696.71 89.1 696.85 89.8 696.93 90.52C697.17 92.73 696.81 94.97 695.79 97.03C695.41 97.84 694.93 98.6 694.36 99.32L686.88 108.62C684.3 106.54 682.8 103.62 682.47 100.57C682.39 99.83 682.39 99.1 682.43 98.37C682.6 96.04 683.46 93.74 685.04 91.78L692.52 82.48V82.47Z" fill="#41B5DB"/>
<path d="M687.88 89.11C690.23 91 690.6 94.42 688.72 96.76C687.17 98.68 684.59 99.28 682.42 98.37C682.59 96.04 683.45 93.74 685.03 91.78L687.43 88.8C687.58 88.9 687.73 88.99 687.88 89.12V89.11Z" fill="#A5D9EC"/>
<path d="M675.98 97.72C675.98 100.12 674.43 102.17 672.25 102.87C671.98 102.38 671.75 101.86 671.56 101.32L669.22 94.67L668.51 92.68C669.14 92.42 669.83 92.27 670.55 92.27C673.55 92.27 675.98 94.71 675.98 97.72Z" fill="#FCF6EA"/>
<path d="M696.5 88.4099C696.71 89.0999 696.85 89.7999 696.93 90.5199C697.17 92.7299 696.81 94.9699 695.79 97.0299C693.65 95.0999 693.37 91.8499 695.19 89.5999C695.58 89.1199 696.02 88.7299 696.5 88.4199V88.4099Z" fill="#FCF6EA"/>
<path d="M708.75 412.86C716.952 412.86 723.6 406.211 723.6 398.01C723.6 389.808 716.952 383.16 708.75 383.16C700.549 383.16 693.9 389.808 693.9 398.01C693.9 406.211 700.549 412.86 708.75 412.86Z" fill="#313030"/>
<path d="M708.75 405.33C712.793 405.33 716.07 402.053 716.07 398.01C716.07 393.967 712.793 390.69 708.75 390.69C704.707 390.69 701.43 393.967 701.43 398.01C701.43 402.053 704.707 405.33 708.75 405.33Z" fill="#FCF6EA"/>
<path d="M512.48 412.86C520.682 412.86 527.33 406.211 527.33 398.01C527.33 389.808 520.682 383.16 512.48 383.16C504.279 383.16 497.63 389.808 497.63 398.01C497.63 406.211 504.279 412.86 512.48 412.86Z" fill="#313030"/>
<path d="M512.48 405.33C516.523 405.33 519.8 402.053 519.8 398.01C519.8 393.967 516.523 390.69 512.48 390.69C508.437 390.69 505.16 393.967 505.16 398.01C505.16 402.053 508.437 405.33 512.48 405.33Z" fill="#FCF6EA"/>
<path d="M494.55 359.45H726.67C733.29 359.45 738.67 364.83 738.67 371.45V400H482.55V371.45C482.55 364.83 487.93 359.45 494.55 359.45Z" fill="#A5D9EC"/>
<path d="M482.55 400H534.15L539.62 359.45L482.55 400Z" fill="#D2ECF5"/>
<path d="M552.13 400L539.62 359.45L534.15 400H552.13Z" fill="#6EC4E2"/>
<path d="M654.25 400L716.79 359.45L738.67 400H654.25Z" fill="#D2ECF5"/>
<path d="M563.56 400L603.04 359.45L615.55 400H563.56Z" fill="#D2ECF5"/>
<path d="M603.04 359.45L576.46 400H608.91L603.04 359.45Z" fill="#6EC4E2"/>
<path d="M716.79 359.45L654.25 400H617.31L716.79 359.45Z" fill="#6EC4E2"/>
<path d="M539.59 230.57L623.4 187.44" stroke="#FFB8CD" stroke-width="2" stroke-linejoin="round"/>
<path d="M539.59 211.85L623.4 168.71" stroke="#FFB8CD" stroke-width="2" stroke-linejoin="round"/>
<path d="M1037.54 412.86C1045.74 412.86 1052.39 406.211 1052.39 398.01C1052.39 389.808 1045.74 383.16 1037.54 383.16C1029.34 383.16 1022.69 389.808 1022.69 398.01C1022.69 406.211 1029.34 412.86 1037.54 412.86Z" fill="#313030"/>
<path d="M1037.54 405.33C1041.58 405.33 1044.86 402.053 1044.86 398.01C1044.86 393.967 1041.58 390.69 1037.54 390.69C1033.5 390.69 1030.22 393.967 1030.22 398.01C1030.22 402.053 1033.5 405.33 1037.54 405.33Z" fill="#FCF6EA"/>
<path d="M841.27 412.86C849.471 412.86 856.12 406.211 856.12 398.01C856.12 389.808 849.471 383.16 841.27 383.16C833.069 383.16 826.42 389.808 826.42 398.01C826.42 406.211 833.069 412.86 841.27 412.86Z" fill="#313030"/>
<path d="M841.27 405.33C845.313 405.33 848.59 402.053 848.59 398.01C848.59 393.967 845.313 390.69 841.27 390.69C837.227 390.69 833.95 393.967 833.95 398.01C833.95 402.053 837.227 405.33 841.27 405.33Z" fill="#FCF6EA"/>
<path d="M823.34 359.45H1055.46C1062.08 359.45 1067.46 364.83 1067.46 371.45V400H811.34V371.45C811.34 364.83 816.72 359.45 823.34 359.45Z" fill="#A5D9EC"/>
<path d="M811.34 400H862.94L868.41 359.45L811.34 400Z" fill="#D2ECF5"/>
<path d="M880.92 400L868.41 359.45L862.94 400H880.92Z" fill="#6EC4E2"/>
<path d="M983.04 400L1045.58 359.45L1067.47 400H983.04Z" fill="#D2ECF5"/>
<path d="M892.36 400L931.84 359.45L944.34 400H892.36Z" fill="#D2ECF5"/>
<path d="M931.84 359.45L905.26 400H915.18L931.84 359.45Z" fill="#6EC4E2"/>
<path d="M1045.58 359.45L1015.13 400H946.1L1045.58 359.45Z" fill="#6EC4E2"/>
<path d="M1022.22 265.03H856.59V359.46H1022.22V265.03Z" fill="#41B5DB"/>
<path d="M939.41 295.26C957.13 295.26 971.51 309.64 971.51 327.36V359.46H907.31V327.36C907.31 309.64 921.69 295.26 939.41 295.26Z" fill="#313030"/>
<path d="M898 182.21L856.59 265.03H939.41L898 182.21Z" fill="#FF5817"/>
<path d="M958.38 99.8899L980.81 111.11V88.6799L958.38 99.8899Z" fill="#41B5DB"/>
<path d="M939.41 204.24V265.03H983.46V204.24H939.41Z" fill="#665EAE"/>
<path d="M961.43 226.26C973.591 226.26 983.45 216.401 983.45 204.24C983.45 192.079 973.591 182.22 961.43 182.22C949.269 182.22 939.41 192.079 939.41 204.24C939.41 216.401 949.269 226.26 961.43 226.26Z" fill="#847EBF"/>
<path d="M1022.22 152.52H856.59V182.22H1022.22V152.52Z" fill="#FBC400"/>
<path d="M1022.22 265.03C1000.81 265.03 983.45 246.49 983.45 223.62C983.45 200.75 1000.81 182.21 1022.22 182.21V265.02V265.03Z" fill="#005597"/>
<path d="M1022.22 152.52L980.81 111.11L939.41 152.52H980.81H1022.22Z" fill="#FF719C"/>
<path d="M1281.39 381.05C1290.5 381.05 1297.89 373.663 1297.89 364.55C1297.89 355.437 1290.5 348.05 1281.39 348.05C1272.28 348.05 1264.89 355.437 1264.89 364.55C1264.89 373.663 1272.28 381.05 1281.39 381.05Z" fill="#41B5DB"/>
<path d="M1289.88 344.81H1208.58V384.28H1289.88V344.81Z" fill="#005597"/>
<path d="M1297.72 384.28H1208.58V394.09H1297.72V384.28Z" fill="#41B5DB"/>
<path d="M1253.14 339.2L1208.58 329.55V344.81H1253.14V339.2Z" fill="#FFF4D0"/>
<path d="M1280.74 299.23H1253.14V344.81H1280.74V299.23Z" fill="#A5D9EC"/>
<path d="M1266.95 271.93L1272.67 277.65H1280.76V285.74L1286.48 291.46L1280.76 297.18V305.27H1272.67L1266.95 311L1261.22 305.27H1253.13V297.18L1247.41 291.46L1253.13 285.74V277.65H1261.22L1266.95 271.93Z" fill="#005597"/>
<path d="M1266.95 300.26C1271.81 300.26 1275.75 296.32 1275.75 291.46C1275.75 286.6 1271.81 282.66 1266.95 282.66C1262.09 282.66 1258.15 286.6 1258.15 291.46C1258.15 296.32 1262.09 300.26 1266.95 300.26Z" fill="#313030"/>
<path d="M1155.54 312.79V353.44H1127.28V394.09H1208.58V312.79H1155.54Z" fill="#41B5DB"/>
<path d="M1182.12 322.02C1188.66 322.02 1193.96 327.33 1193.96 333.86V353.43H1170.27V333.86C1170.27 327.32 1175.58 322.02 1182.11 322.02H1182.12Z" fill="#313030"/>
<path d="M1155.55 312.79H1127.28V322.02H1155.55V312.79Z" fill="#005597"/>
<path d="M1189.83 412.86C1200.2 412.86 1208.6 404.456 1208.6 394.09C1208.6 383.724 1200.2 375.32 1189.83 375.32C1179.46 375.32 1171.06 383.724 1171.06 394.09C1171.06 404.456 1179.46 412.86 1189.83 412.86Z" fill="#FFF4D0"/>
<path d="M1189.83 408.05C1197.54 408.05 1203.79 401.8 1203.79 394.09C1203.79 386.38 1197.54 380.13 1189.83 380.13C1182.12 380.13 1175.87 386.38 1175.87 394.09C1175.87 401.8 1182.12 408.05 1189.83 408.05Z" fill="#6EC4E2"/>
<path d="M1189.83 398.71C1192.38 398.71 1194.45 396.642 1194.45 394.09C1194.45 391.538 1192.38 389.47 1189.83 389.47C1187.28 389.47 1185.21 391.538 1185.21 394.09C1185.21 396.642 1187.28 398.71 1189.83 398.71Z" fill="#313030"/>
<path d="M1161.67 412.86C1166.86 412.86 1171.06 408.656 1171.06 403.47C1171.06 398.284 1166.86 394.08 1161.67 394.08C1156.48 394.08 1152.28 398.284 1152.28 403.47C1152.28 408.656 1156.48 412.86 1161.67 412.86Z" fill="#6EC4E2"/>
<path d="M1161.67 410.45C1165.52 410.45 1168.65 407.325 1168.65 403.47C1168.65 399.615 1165.52 396.49 1161.67 396.49C1157.82 396.49 1154.69 399.615 1154.69 403.47C1154.69 407.325 1157.82 410.45 1161.67 410.45Z" fill="#41B5DB"/>
<path d="M1161.67 405.78C1162.95 405.78 1163.98 404.746 1163.98 403.47C1163.98 402.194 1162.95 401.16 1161.67 401.16C1160.39 401.16 1159.36 402.194 1159.36 403.47C1159.36 404.746 1160.39 405.78 1161.67 405.78Z" fill="#313030"/>
<path d="M1142.89 412.86C1148.08 412.86 1152.28 408.656 1152.28 403.47C1152.28 398.284 1148.08 394.08 1142.89 394.08C1137.7 394.08 1133.5 398.284 1133.5 403.47C1133.5 408.656 1137.7 412.86 1142.89 412.86Z" fill="#6EC4E2"/>
<path d="M1142.89 410.45C1146.75 410.45 1149.87 407.325 1149.87 403.47C1149.87 399.615 1146.75 396.49 1142.89 396.49C1139.04 396.49 1135.91 399.615 1135.91 403.47C1135.91 407.325 1139.04 410.45 1142.89 410.45Z" fill="#41B5DB"/>
<path d="M1142.89 405.78C1144.17 405.78 1145.2 404.746 1145.2 403.47C1145.2 402.194 1144.17 401.16 1142.89 401.16C1141.61 401.16 1140.58 402.194 1140.58 403.47C1140.58 404.746 1141.61 405.78 1142.89 405.78Z" fill="#313030"/>
<path d="M1227.38 412.86C1237.75 412.86 1246.15 404.456 1246.15 394.09C1246.15 383.724 1237.75 375.32 1227.38 375.32C1217.01 375.32 1208.61 383.724 1208.61 394.09C1208.61 404.456 1217.01 412.86 1227.38 412.86Z" fill="#FFF4D0"/>
<path d="M1227.38 408.05C1235.09 408.05 1241.34 401.8 1241.34 394.09C1241.34 386.38 1235.09 380.13 1227.38 380.13C1219.67 380.13 1213.42 386.38 1213.42 394.09C1213.42 401.8 1219.67 408.05 1227.38 408.05Z" fill="#6EC4E2"/>
<path d="M1227.38 398.71C1229.93 398.71 1232 396.642 1232 394.09C1232 391.538 1229.93 389.47 1227.38 389.47C1224.83 389.47 1222.76 391.538 1222.76 394.09C1222.76 396.642 1224.83 398.71 1227.38 398.71Z" fill="#313030"/>
<path d="M1264.87 412.86C1275.24 412.86 1283.64 404.456 1283.64 394.09C1283.64 383.724 1275.24 375.32 1264.87 375.32C1254.5 375.32 1246.1 383.724 1246.1 394.09C1246.1 404.456 1254.5 412.86 1264.87 412.86Z" fill="#FFF4D0"/>
<path d="M1264.87 408.05C1272.58 408.05 1278.83 401.8 1278.83 394.09C1278.83 386.38 1272.58 380.13 1264.87 380.13C1257.16 380.13 1250.91 386.38 1250.91 394.09C1250.91 401.8 1257.16 408.05 1264.87 408.05Z" fill="#6EC4E2"/>
<path d="M1264.87 398.71C1267.42 398.71 1269.49 396.642 1269.49 394.09C1269.49 391.538 1267.42 389.47 1264.87 389.47C1262.32 389.47 1260.25 391.538 1260.25 394.09C1260.25 396.642 1262.32 398.71 1264.87 398.71Z" fill="#313030"/>
<path d="M1142.89 405.79L1161.67 401.16" stroke="#A5D9EC" stroke-width="6" stroke-miterlimit="10" stroke-linecap="round"/>
<path d="M1189.83 389.46L1227.38 398.71" stroke="#A5D9EC" stroke-width="8" stroke-miterlimit="10" stroke-linecap="round"/>
<path d="M1227.38 389.46L1264.92 398.71" stroke="#A5D9EC" stroke-width="8" stroke-miterlimit="10" stroke-linecap="round"/>
<path d="M1283.65 412.86H1306.38L1297.71 394.09H1283.65V412.86Z" fill="#005597"/>
<path d="M1133.51 394.09H1127.28V403.48H1133.51V394.09Z" fill="#005597"/>
<path d="M204.71 130.72L201.67 114.4C201.19 111.8 199.93 109.41 198.06 107.54L192.03 101.51" stroke="#6D3C1D" stroke-width="2" stroke-miterlimit="10"/>
<path d="M192.03 94.2C196.41 96.95 199.43 101.43 200.33 106.53L202.7 119.93" stroke="#6D3C1D" stroke-width="2" stroke-miterlimit="10"/>
<path d="M255.18 214.19C258.21 222.96 265.72 229.43 274.85 231.11" stroke="#6D3C1D" stroke-width="2" stroke-miterlimit="10"/>
<path d="M257.95 213.72L259.62 216.09C262.04 219.51 266.96 219.94 269.92 216.97" stroke="#6D3C1D" stroke-width="2" stroke-miterlimit="10"/>
<path d="M252.28 214.67C253.37 218.7 252.2 223 249.21 225.91L249.16 225.96" stroke="#6D3C1D" stroke-width="2" stroke-miterlimit="10"/>
<path d="M224.14 269.03L204.25 244.06" stroke="#6D3C1D" stroke-width="2" stroke-miterlimit="10"/>
<path d="M213.63 206.72C220.804 206.72 226.62 200.904 226.62 193.73C226.62 186.556 220.804 180.74 213.63 180.74C206.456 180.74 200.64 186.556 200.64 193.73C200.64 200.904 206.456 206.72 213.63 206.72Z" fill="#FF719C"/>
<path d="M217.83 190.28L171.33 190.96C166.39 191.03 162.59 195.33 163.11 200.24C163.6 204.85 167.73 208.18 172.34 207.69L190.63 205.74L167.18 208.24C162.56 208.73 159.21 212.88 159.71 217.5C160.21 222.16 164.42 225.52 169.08 224.96C184.19 223.15 197.98 215.43 207.41 203.48L217.84 190.28H217.83Z" fill="#FF719C"/>
<path d="M217.83 190.28L171.33 190.96C166.39 191.03 162.59 195.33 163.11 200.24C163.6 204.85 167.73 208.18 172.34 207.69L190.63 205.74L167.18 208.24C162.56 208.73 159.21 212.88 159.71 217.5C160.21 222.16 164.42 225.52 169.08 224.96C184.19 223.15 197.98 215.43 207.41 203.48L217.84 190.28H217.83Z" fill="#FF719C"/>
<path d="M210.73 195.45L187.09 225.39C184.58 228.57 185.34 233.21 188.74 235.42C191.93 237.49 196.19 236.59 198.26 233.4L206.49 220.76L195.94 236.97C193.86 240.16 194.77 244.44 197.96 246.52C201.18 248.62 205.5 247.67 207.56 244.42C214.23 233.87 216.45 221.1 213.74 208.91L210.74 195.44L210.73 195.45Z" fill="#FF719C"/>
<path d="M207.86 209.89C207.86 209.89 206.74 223.1 197.15 234.72" stroke="#FF4B7E" stroke-width="2" stroke-miterlimit="10"/>
<path d="M171.25 207.65C171.25 207.65 188.75 206.73 203.11 201.35" stroke="#FF4B7E" stroke-width="2" stroke-miterlimit="10"/>
<path d="M207.86 205.37C201.43 202.18 198.81 194.38 202 187.95" stroke="#FF4B7E" stroke-width="2" stroke-miterlimit="10"/>
<path d="M213.63 193.73C213.63 193.73 250.91 204.11 278.71 188.51" stroke="#FF719C" stroke-width="6" stroke-miterlimit="10" stroke-linecap="round"/>
<path d="M177.33 119.96L188.74 139.84" stroke="#6D3C1D" stroke-width="2" stroke-miterlimit="10"/>
<path d="M0 412.86H1335" stroke="#FF719C" stroke-width="2" stroke-linejoin="round"/>
<path d="M1262.46 291.46L1256.47 250.56C1238.21 267.94 1209.07 266.27 1192.91 246.92L1187.2 240.08L1185.7 241.92C1164.36 268.03 1124.81 269.1 1102.08 244.18L1096.31 243.81C1073.69 242.37 1063.5 214.8 1079.74 199C1069.8 177.32 1091.29 154.56 1113.5 163.24L1117.56 164.82C1130.3 134.27 1170.67 127.7 1192.45 152.62L1201.8 163.32L1212.63 155C1237.91 135.58 1274.56 152.81 1275.74 184.66C1298.35 199.49 1298.71 232.52 1276.43 247.84L1275.74 248.31L1273.05 291.46L1272.29 290.71C1269.47 287.91 1264.82 288.26 1262.45 291.46H1262.46Z" fill="#FEC7C6"/>
</g>
<defs>
<clipPath id="clip0_1528_81965">
<rect width="1335" height="464" fill="white"/>
</clipPath>
</defs>
</svg>
