<svg width="1335" height="464" viewBox="0 0 1335 464" fill="none" xmlns="http://www.w3.org/2000/svg">
<g clip-path="url(#clip0_1528_80547)">
<rect width="1335" height="464" fill="#FFD9E5"/>
<mask id="mask0_1528_80547" style="mask-type:luminance" maskUnits="userSpaceOnUse" x="0" y="0" width="1335" height="464">
<path d="M1335 0H0V464H1335V0Z" fill="white"/>
</mask>
<g mask="url(#mask0_1528_80547)">
<path d="M1335 0H0V464H1335V0Z" fill="#FFD9E5"/>
<path d="M1371.96 287.8H0V477H1371.96V287.8Z" fill="#7CAA74"/>
<path d="M1170.23 141.51H714.13C711.67 141.51 711.09 138.07 713.42 137.27L806.99 105C851.6 89.62 900.12 89.92 944.53 105.87L1000.07 125.81C1008.78 128.94 1018.21 129.52 1027.25 127.49L1074.74 116.82C1090.57 113.26 1107.09 114.33 1122.33 119.89L1170.92 137.61C1173.04 138.38 1172.48 141.52 1170.23 141.52V141.51Z" fill="white"/>
<path d="M726.22 236.41V258.53" stroke="#4EA151" stroke-width="6" stroke-miterlimit="10"/>
<path d="M333.43 236.41V258.53" stroke="#342C5F" stroke-width="6" stroke-miterlimit="10"/>
<path d="M104.51 236.41V258.53" stroke="#342C5F" stroke-width="6" stroke-miterlimit="10"/>
<path d="M385.62 77.05H52.3301C50.6732 77.05 49.3301 78.3932 49.3301 80.05V233.4C49.3301 235.057 50.6732 236.4 52.3301 236.4H385.62C387.277 236.4 388.62 235.057 388.62 233.4V80.05C388.62 78.3932 387.277 77.05 385.62 77.05Z" fill="#FEF8EC"/>
<path d="M131.08 101.66H77.9399V154.8H131.08V101.66Z" fill="#7DB6F2"/>
<path d="M235.73 111.47H202.2V145H235.73V111.47Z" fill="#E9E9E9"/>
<path d="M360 101.66H306.86V154.8H360V101.66Z" fill="#ABD1F6"/>
<path d="M131.08 158.71H77.9399V211.85H131.08V158.71Z" fill="#F7D857"/>
<path d="M235.73 168.52H202.2V202.05H235.73V168.52Z" fill="#CACACA"/>
<path d="M360 158.71H306.86V211.85H360V158.71Z" fill="#F7D857"/>
<path d="M137.49 156.73H300.45" stroke="#FF6633" stroke-width="2" stroke-miterlimit="10"/>
<path d="M1372.77 258.43H0V332H1372.77V258.43Z" fill="#ABCAA6"/>
<path d="M0 478.46L647.26 335.72C651.28 334.83 655.45 334.79 659.49 335.59L1372.77 476.99" stroke="#FEF8EC" stroke-width="2" stroke-miterlimit="10" stroke-linecap="round"/>
<path d="M869.62 448.92C1131.47 448.92 1415.21 470.39 1415.21 496.87" stroke="#FEF8EC" stroke-width="2" stroke-miterlimit="10" stroke-linecap="round"/>
<path d="M173.83 277.93H10.2499C8.68696 277.93 7.41992 279.197 7.41992 280.76V314.73C7.41992 316.293 8.68696 317.56 10.2499 317.56H173.83C175.393 317.56 176.66 316.293 176.66 314.73V280.76C176.66 279.197 175.393 277.93 173.83 277.93Z" fill="#5E9653"/>
<path d="M197.82 276.59H240.13V307.23C240.13 313.67 234.9 318.9 228.46 318.9H209.5C203.06 318.9 197.83 313.67 197.83 307.23V276.59H197.82Z" fill="#FEF8EC"/>
<path d="M0 332H1372.77" stroke="#5E9653" stroke-width="4" stroke-miterlimit="10"/>
<path d="M261.28 297.75C261.28 306.32 266.39 313.68 273.71 317.01C271.05 318.22 268.1 318.91 264.99 318.91H243.84V276.6H264.99C268.1 276.6 271.05 277.29 273.71 278.5C266.38 281.82 261.28 289.19 261.28 297.76V297.75Z" fill="#5E9653"/>
<path d="M282.44 318.9C279.33 318.9 276.38 318.21 273.72 317C281.05 313.68 286.15 306.31 286.15 297.74C286.15 289.17 281.04 281.81 273.72 278.48C276.38 277.27 279.33 276.58 282.44 276.58C294.12 276.58 303.59 286.05 303.59 297.73C303.59 309.41 294.12 318.88 282.44 318.88V318.9Z" fill="#FEF8EC"/>
<path d="M286.15 297.75C286.15 306.32 281.04 313.68 273.72 317.01C266.39 313.69 261.29 306.32 261.29 297.75C261.29 289.18 266.4 281.82 273.72 278.49C281.05 281.81 286.15 289.18 286.15 297.75Z" fill="#7CAA74"/>
<path d="M465.77 290.9H324.74V304.59H465.77V290.9Z" fill="#FEF8EC"/>
<path d="M652.98 290.9H511.95V304.59H652.98V290.9Z" fill="#5E9653"/>
<path d="M828.42 266.33H693.05C691.487 266.33 690.22 267.597 690.22 269.16V322.2C690.22 323.763 691.487 325.03 693.05 325.03H828.42C829.983 325.03 831.25 323.763 831.25 322.2V269.16C831.25 267.597 829.983 266.33 828.42 266.33Z" fill="#7CAA74"/>
<path d="M1331.07 266.33H1195.7C1194.14 266.33 1192.87 267.597 1192.87 269.16V322.2C1192.87 323.763 1194.14 325.03 1195.7 325.03H1331.07C1332.63 325.03 1333.9 323.763 1333.9 322.2V269.16C1333.9 267.597 1332.63 266.33 1331.07 266.33Z" fill="#5E9653"/>
<path d="M902.93 268.4H867.97V322.95H902.93V268.4Z" fill="#FEF8EC"/>
<path d="M902.93 295.22H867.97V322.95H902.93V295.22Z" fill="#5E9653"/>
<path d="M942.1 268.4H907.14V322.95H942.1V268.4Z" fill="#FEF8EC"/>
<path d="M942.1 295.22H907.14V322.95H942.1V295.22Z" fill="#5E9653"/>
<path d="M778.83 306.44L283.27 259.73C282.28 259.64 281.56 258.76 281.65 257.77C281.18 253.44 777.39 211.11 778.83 209.44C805.61 206.92 829.38 226.59 831.9 253.37C835.06 283.4 808.81 309.54 778.83 306.44Z" fill="#FEDE81"/>
<path d="M778.83 291.94C770.68 291.25 762.37 290.24 754.43 288.31C749.14 287.09 744.8 285.64 740.25 284.05C735.86 282.48 731.69 280.92 727.19 279.94C716.77 277.83 705.75 276.79 695.06 277.85C686.75 278.96 676.59 280.96 667.72 280.89C654.44 280.95 641.13 279.67 628.18 276.32C619.94 274.17 612.92 270.89 605.03 269.01C596.42 266.98 587.21 266.1 578.21 265.93C567.05 265.56 555.18 269.05 544.01 269.31C529.74 269.62 516.06 268.31 502.44 264.37C495.93 262.45 489.99 259.88 483.53 258.24C477.3 256.56 470.78 255.66 464.19 255.03C463.58 254.98 463.12 254.43 463.18 253.82C463.23 253.28 463.67 252.86 464.19 252.82C470.85 252.25 477.63 251.94 484.48 252.5C491.13 252.93 497.87 254.44 504.35 255.14C510.65 255.88 516.92 255.79 523.3 255.35C532.86 254.68 541.84 253.34 550.75 250.35C556.84 248.24 564.32 245.5 570.63 244.15C574.1 243.36 577.94 242.68 581.47 242.22C595.7 240.2 611.18 240.12 625.34 242.86C637.75 245.07 649.7 244.23 662.03 242.25C670.44 240.8 676.84 237.89 685.41 235.19C689.18 234.05 693.24 232.98 697.25 232.21C712.95 229.31 729.03 228.17 744.97 230.27C748.74 230.74 752.22 231.41 755.89 231.94C764.27 233.17 769.99 232.8 778.83 231.94C795.4 230.24 810.21 242.28 811.92 258.85C814.08 277.61 797.56 294.06 778.83 291.94Z" fill="#F26533"/>
<mask id="mask1_1528_80547" style="mask-type:luminance" maskUnits="userSpaceOnUse" x="741" y="216" width="84" height="85">
<path d="M783.24 300.1C806.198 300.1 824.81 281.488 824.81 258.53C824.81 235.572 806.198 216.96 783.24 216.96C760.281 216.96 741.67 235.572 741.67 258.53C741.67 281.488 760.281 300.1 783.24 300.1Z" fill="white"/>
</mask>
<g mask="url(#mask1_1528_80547)">
<path d="M783.24 300.1C806.198 300.1 824.81 281.488 824.81 258.53C824.81 235.572 806.198 216.96 783.24 216.96C760.281 216.96 741.67 235.572 741.67 258.53C741.67 281.488 760.281 300.1 783.24 300.1Z" fill="white"/>
<path d="M837.91 329.82C860.868 329.82 879.48 311.208 879.48 288.25C879.48 265.292 860.868 246.68 837.91 246.68C814.951 246.68 796.34 265.292 796.34 288.25C796.34 311.208 814.951 329.82 837.91 329.82Z" stroke="#EA5836" stroke-width="4" stroke-miterlimit="10"/>
<path d="M728.56 270.38C751.518 270.38 770.13 251.768 770.13 228.81C770.13 205.852 751.518 187.24 728.56 187.24C705.601 187.24 686.99 205.852 686.99 228.81C686.99 251.768 705.601 270.38 728.56 270.38Z" stroke="#EA5836" stroke-width="4" stroke-miterlimit="10"/>
</g>
<path d="M1132.26 183.69H1241.3C1257.75 183.69 1271.09 197.03 1271.09 213.48C1271.09 228.14 1260.43 240.62 1245.95 242.91L1142.73 259.25L1132.26 183.69Z" fill="#FFAA85"/>
<path d="M948.52 420.66L966.15 359.71L963.57 357.23C931.34 326.25 922.96 277.93 942.88 237.91C960.17 203.17 995.64 181.21 1034.44 181.21H1188.05V259.66H1148.48C1145.96 302.61 1133.34 344.36 1111.64 381.51L1074.18 445.66L948.51 420.65L948.52 420.66Z" fill="#F26533"/>
<path d="M1067.95 5.04001L1318.96 277.12C1320.68 278.99 1320.57 281.9 1318.7 283.63C1316.93 285.27 1314.2 285.23 1312.46 283.63L1040.37 32.62C1032.45 25.31 1031.95 12.96 1039.26 5.04001C1046.9 -3.32999 1060.3 -3.30999 1067.95 5.04001Z" fill="#663E23"/>
<path d="M1293.4 281.86L1186.72 378.84C1177.82 386.95 1166.22 391.43 1154.19 391.43C1149.43 391.43 1144.69 390.74 1140.16 389.35L1132.25 386.95L1056.41 363.99L1024.4 354.3L1056.41 301.97L1056.56 301.72L1065.04 287.86L1092.66 301.72L1132.25 321.6L1148.81 329.91L1274.55 263.02L1293.39 281.86H1293.4Z" fill="#FFAA85"/>
<path d="M1132.26 321.6V386.95L1056.42 363.99V301.72H1092.67L1132.26 321.6Z" fill="#E58765"/>
<path d="M1024.41 254.34L1128.16 306.47C1132.4 308.6 1133.35 314.24 1130.05 317.64L1062.51 387.19C1060.47 389.29 1057.34 389.91 1054.66 388.73L966.15 359.69L1024.41 254.33V254.34Z" fill="#F26533"/>
<path d="M1038.79 212.54L1039.26 207.21C1039.51 204.46 1036.16 202.92 1034.2 204.88L1031.13 207.95C1025.77 213.31 1018.61 216.18 1011.27 216.18C1008.69 216.18 1006.11 215.83 1003.58 215.11C987.19 210.47 978.66 192.45 985.51 176.83L997.14 150.2H988.93C987.49 150.2 986.8 148.39 987.89 147.42L994.73 141.45C997.83 138.75 999.61 134.83 999.61 130.69V126.23C999.61 114.31 1009.25 104.66 1021.18 104.66H1025.57C1045.95 104.66 1063.8 118.32 1069.13 137.98L1077.81 174.89H1077.83L1082.94 196.68L1095.06 248.12L1038.04 220.85L1038.78 212.52L1038.79 212.54Z" fill="#FFAA85"/>
<path d="M1086.77 193.58C1085.7 194.97 1084.37 196.01 1082.95 196.7C1081.46 197.42 1079.88 197.77 1078.29 197.77C1074.15 197.77 1070.01 195.39 1068.25 190.98L1067.17 188.28C1066.39 186.33 1063.75 186.06 1062.59 187.81L1059.46 192.52C1057.1 196.04 1052.59 197.45 1048.65 195.87C1046.94 195.2 1045.55 194.01 1044.56 192.57C1043.57 191.11 1043.02 189.37 1043.02 187.54V176.26L1039.28 207.22C1039.53 204.47 1036.18 202.93 1034.22 204.89L1031.15 207.96C1025.79 213.32 1018.63 216.19 1011.29 216.19C1008.71 216.19 1006.13 215.84 1003.6 215.12C987.21 210.48 978.68 192.46 985.53 176.84L997.16 150.21H1018.26L1023.47 134.49C1023.79 133.52 1022.83 132.63 1021.91 133.05C1018.29 134.76 1011.4 136.77 1005.05 131.61V119.21H1049.13L1077.84 174.89H1077.86L1082.79 177.15C1089.09 180.08 1091.05 188.08 1086.78 193.56L1086.77 193.58Z" fill="#7A3C20"/>
<path d="M1170.29 259.66L1142.48 227.92C1142.48 227.92 1149.56 246.72 1148.49 259.66H1170.29Z" fill="#342C5F"/>
<path d="M1066.87 126.11H988.47V131.63H1066.87V126.11Z" fill="#F26533"/>
<path d="M1024.41 131.62C1024.41 131.62 1018.52 174.9 1079.11 174.9L1069.23 129.44C1066.09 114.98 1053.29 104.66 1038.49 104.66H1014.79C1006.41 104.66 999.62 111.45 999.62 119.83V126.09L1024.41 131.61V131.62Z" fill="#FEF8EC"/>
<path d="M1029.37 216.79L1122.11 259.24" stroke="#342C5F" stroke-width="2" stroke-miterlimit="10"/>
<path d="M1145.03 289.77C1145.03 289.77 1154.96 252.35 1140.93 224.59" stroke="#342C5F" stroke-width="2" stroke-miterlimit="10"/>
<path d="M1258.57 271.52L1261.37 268.78C1266.93 263.32 1267.59 254.59 1262.9 248.37L1262.51 247.86C1260.03 244.57 1259.23 240.3 1260.36 236.33L1260.82 236.03C1264.38 239.31 1270.15 237.66 1271.45 233L1271.49 232.85C1272.76 228.29 1277.49 225.63 1282.05 226.91L1289.23 228.92C1293.59 230.14 1297.56 232.47 1300.76 235.67C1307 241.91 1309.71 250.86 1307.98 259.52C1305.02 274.33 1295.74 287.11 1282.57 294.51L1274.5 299.05L1258.57 271.53V271.52Z" fill="#FEF8EC"/>
<path d="M1236.38 187.45L1244.04 184.88C1252.91 181.91 1262.7 184.31 1269.19 191.06C1277.45 199.65 1278.23 212.98 1271.03 222.47L1266.24 228.78C1260.96 235.74 1250.73 236.37 1244.64 230.12L1230.36 215.48C1227.92 212.98 1227.9 209 1230.3 206.47C1233.64 202.96 1235.65 198.38 1235.98 193.55L1236.39 187.45H1236.38Z" fill="#FEF8EC"/>
<path d="M1316.95 289.05C1321.06 289.05 1324.39 285.719 1324.39 281.61C1324.39 277.501 1321.06 274.17 1316.95 274.17C1312.84 274.17 1309.51 277.501 1309.51 281.61C1309.51 285.719 1312.84 289.05 1316.95 289.05Z" fill="#7F4C26"/>
<path d="M948.52 420.66L962.39 406.79C975.16 394.02 992.19 386.39 1010.23 385.38L1033.5 384.07C1034.72 384 1034.95 382.29 1033.78 381.91L966.15 359.72L948.52 420.67V420.66Z" fill="#342C5F"/>
<path d="M988.47 131.62H1056.42" stroke="#FF6633" stroke-width="2" stroke-miterlimit="10"/>
<path d="M1188.06 216.79L1212.04 248.28L1188.06 252.07V216.79Z" fill="#E58765"/>
<path d="M1004.05 141.7C1005.1 141.7 1005.96 140.845 1005.96 139.79C1005.96 138.735 1005.1 137.88 1004.05 137.88C1003 137.88 1002.14 138.735 1002.14 139.79C1002.14 140.845 1003 141.7 1004.05 141.7Z" fill="#0A0A0A" stroke="#342C5F" stroke-miterlimit="10"/>
<path d="M993.75 157.58H1000.7" stroke="#342C5F" stroke-miterlimit="10"/>
<path d="M1074.19 445.66V521.32H1031.12L1074.19 445.66Z" fill="#CACACA"/>
<path d="M1074.19 445.66L1039.29 521.32H871.73L896.67 469.46C904.15 453.91 915.91 440.83 930.58 431.75L948.52 420.65L1074.19 445.66Z" fill="#E9E9E9"/>
<path d="M948.52 420.66L1052.66 494.96L1077.95 439.22L948.52 420.66Z" fill="#F26533"/>
<path d="M988.47 434.08C988.47 434.08 1050.45 426.64 1090.11 379.54" stroke="#342C5F" stroke-width="2" stroke-miterlimit="10"/>
<path d="M1007.06 440.28L1068.79 434.08" stroke="#342C5F" stroke-width="2" stroke-miterlimit="10"/>
<path d="M1068.38 142.77C1068.38 152.72 1060.31 160.79 1050.36 160.79C1040.41 160.79 1032.34 152.72 1032.34 142.77" stroke="#CACACA" stroke-width="2" stroke-miterlimit="10"/>
<path d="M125.87 57.27V43.88V30.49L162.54 43.88L125.87 57.27Z" fill="#F26533"/>
<path d="M125.87 30.49V77.05" stroke="#342C5F" stroke-width="4" stroke-miterlimit="10"/>
<path d="M186.89 57.27V43.88V30.49L223.56 43.88L186.89 57.27Z" fill="#F26533"/>
<path d="M186.89 30.49V77.05" stroke="#342C5F" stroke-width="4" stroke-miterlimit="10"/>
<path d="M247.91 57.27V43.88V30.49L284.58 43.88L247.91 57.27Z" fill="#F26533"/>
<path d="M247.91 30.49V77.05" stroke="#342C5F" stroke-width="4" stroke-miterlimit="10"/>
<path d="M308.93 57.27V43.88V30.49L345.61 43.88L308.93 57.27Z" fill="#F26533"/>
<path d="M308.93 30.49V77.05" stroke="#342C5F" stroke-width="4" stroke-miterlimit="10"/>
<path d="M425.63 187.38H852.02C854.06 187.38 854.23 184.38 852.2 184.16L702.67 167.39C697.21 166.78 691.93 165.08 687.13 162.41L643.44 138.06C624.4 127.45 601.24 127.38 582.14 137.87L524.74 169.4C519.73 172.15 513.94 173.15 508.3 172.22L481.52 167.83C476.03 166.93 470.41 167.37 465.13 169.12L424.83 182.46C422.11 183.36 422.76 187.38 425.62 187.38H425.63Z" fill="white"/>
<path d="M1258.57 271.52L1274.57 255.18" stroke="#CACACA" stroke-width="2" stroke-miterlimit="10"/>
<path d="M1246.45 189.48C1246.45 189.48 1269.31 189.33 1271.09 213.48" stroke="#CACACA" stroke-width="2" stroke-miterlimit="10"/>
<path d="M1069.96 379.54L1130.05 317.65" stroke="#342C5F" stroke-width="2" stroke-miterlimit="10"/>
</g>
<path d="M1078.55 370.69L1066.71 464L1112.05 380.83L1078.55 370.69Z" fill="#342C5F"/>
</g>
<defs>
<clipPath id="clip0_1528_80547">
<rect width="1335" height="464" fill="white"/>
</clipPath>
</defs>
</svg>
