<svg width="1335" height="464" viewBox="0 0 1335 464" fill="none" xmlns="http://www.w3.org/2000/svg">
<g clip-path="url(#clip0_1528_82255)">
<mask id="mask0_1528_82255" style="mask-type:luminance" maskUnits="userSpaceOnUse" x="0" y="0" width="1335" height="464">
<path d="M1335 0H0V464H1335V0Z" fill="white"/>
</mask>
<g mask="url(#mask0_1528_82255)">
<path d="M1335 0H0V464H1335V0Z" fill="#9FD7DD"/>
<path d="M104.8 449.73C70.9299 449.73 44.3299 420.73 47.2499 386.99L65.1399 179.92C66.9799 158.64 84.7899 142.3 106.15 142.3C127.72 142.3 145.63 158.94 147.21 180.45L162.42 387.74C164.88 421.22 138.38 449.73 104.81 449.73H104.8Z" fill="#19430D"/>
<path d="M514.55 397.05C473.84 397.05 441.87 362.19 445.37 321.64L466.87 72.73C469.08 47.15 490.49 27.51 516.17 27.51C542.09 27.51 563.62 47.52 565.52 73.37L583.8 322.54C586.75 362.78 554.9 397.06 514.55 397.06V397.05Z" fill="#19430D"/>
<path d="M162.58 432.62C121.87 432.62 89.8801 397.76 93.3901 357.19L104.94 223.52L114.41 113.78L114.89 108.28C117.11 82.7 138.52 63.05 164.19 63.05C177.17 63.05 189.02 68.06 197.88 76.29C206.75 84.52 212.6 95.98 213.54 108.93L231.82 358.08C234.78 398.33 202.92 432.61 162.58 432.61V432.62Z" fill="#6AC294"/>
<path d="M203.31 117.68V223.52H104.94L114.41 113.78C134.25 145.27 180.12 147.97 203.31 117.68Z" fill="#1A7249"/>
<path d="M498.67 203.34C498.67 231.74 492.6 258.49 481.9 281.85C478.04 290.28 473.58 298.27 468.59 305.74C442.81 344.32 402.81 369.09 357.86 369.09C312.91 369.09 258.77 344.32 221.04 305.74C193.46 277.55 174.69 241.98 174.69 203.34C174.69 155.28 192.06 111.99 219.83 81.72C244.96 54.32 278.58 37.57 315.52 37.57C393.29 37.57 498.68 111.78 498.68 203.34H498.67Z" fill="#1A7249"/>
<path d="M481.9 281.85C478.04 290.28 473.58 298.27 468.59 305.74H221.04C193.46 277.55 174.69 241.98 174.69 203.34C174.69 155.28 192.06 111.99 219.83 81.72C261.11 155.72 325.69 214.27 403.82 248.07L481.91 281.85H481.9Z" fill="#165134"/>
<path d="M-0.25 178.64H9.52C253.26 178.64 485.32 283.05 646.98 465.45H-0.25V178.64Z" fill="#709D5A"/>
<path d="M369.97 270.12C402.02 280.01 422.44 309.82 421.83 341.77C421.7 348.49 420.63 355.32 418.55 362.07C406.57 400.87 311.41 451.16 272.59 439.18C235.68 427.79 214.21 390 222.5 352.95C222.92 351.04 223.42 349.13 224.01 347.23C235.99 308.42 331.15 258.14 369.97 270.12Z" fill="#4C8431"/>
<path d="M421.82 341.77C421.69 348.49 420.62 355.32 418.54 362.07C406.56 400.87 311.4 451.16 272.58 439.18C235.67 427.79 214.2 390 222.49 352.95C240.96 363.44 272.37 372.8 297.86 337.72C336.59 284.42 301.89 420.3 340.44 380.18C365.85 353.76 400.85 324.55 421.81 341.77H421.82Z" fill="#165134"/>
<path d="M1336.1 178.64H1319.27C899.54 178.64 499.91 283.05 221.5 465.45H1335.5L1336.1 178.64Z" fill="#22A268"/>
<path fill-rule="evenodd" clip-rule="evenodd" d="M1048.17 301.348C1048.17 301.348 1048.17 301.349 1048.17 301.349L1104.7 468.008L1085.76 474.432L1033.18 319.403L980.59 474.432L961.65 468.008L1018.18 301.349C1018.18 301.349 1018.18 301.348 1018.18 301.348C1023.04 287.017 1043.31 287.017 1048.17 301.348ZM1037.12 307.771C1037.12 307.771 1037.12 307.772 1037.12 307.772L1037.12 307.771Z" fill="#310E09"/>
<path fill-rule="evenodd" clip-rule="evenodd" d="M1268.34 301.348C1268.34 301.348 1268.34 301.349 1268.34 301.349L1324.87 468.008L1305.93 474.432L1253.35 319.403L1200.76 474.432L1181.82 468.008L1238.35 301.349C1238.35 301.349 1238.35 301.348 1238.35 301.348C1243.21 287.017 1263.48 287.017 1268.34 301.348ZM1257.29 307.771C1257.29 307.771 1257.29 307.772 1257.29 307.772L1257.29 307.771Z" fill="#310E09"/>
<path d="M1099.08 382.62H958.62V408.3H1099.08V382.62Z" fill="#582C00"/>
<path d="M1099.08 408.29L1335.64 408.29V382.61H1099.08V408.29Z" fill="#763B00"/>
<path d="M1335.06 286.13H971.12V321.15H1335.06V286.13Z" fill="#763B00"/>
<path d="M1095.23 286.13H971.12V321.15H1095.23V286.13Z" fill="#582C00"/>
<path d="M1236.55 258.85V278.34C1236.55 282.65 1233.06 286.13 1228.77 286.13H1200.12C1195.81 286.13 1192.33 282.64 1192.33 278.34V258.85C1192.33 252.25 1196.11 246.54 1201.62 243.75C1205.4 241.82 1207.64 237.79 1207.64 233.55V210.3C1207.64 209.42 1208.35 208.71 1209.23 208.71H1219.66C1220.52 208.71 1221.25 209.42 1221.25 210.3V233.55C1221.25 237.79 1223.47 241.82 1227.26 243.75C1232.77 246.54 1236.55 252.25 1236.55 258.85Z" fill="#FF5F2F"/>
<path d="M1221.25 210.29V222.18H1207.65V210.29C1207.65 209.41 1208.36 208.7 1209.24 208.7H1219.67C1220.53 208.7 1221.26 209.41 1221.26 210.29H1221.25Z" fill="#70292C"/>
<path d="M1221.25 222.18H1207.65V226.09H1221.25V222.18Z" fill="#005D6F"/>
<path d="M1228.04 252.4H1200.86C1199.2 252.4 1197.86 253.743 1197.86 255.4V266.35C1197.86 268.007 1199.2 269.35 1200.86 269.35H1228.04C1229.7 269.35 1231.04 268.007 1231.04 266.35V255.4C1231.04 253.743 1229.7 252.4 1228.04 252.4Z" fill="#70292C"/>
<path d="M1214.44 278.08C1219.26 278.08 1223.17 274.171 1223.17 269.35C1223.17 264.529 1219.26 260.62 1214.44 260.62C1209.62 260.62 1205.71 264.529 1205.71 269.35C1205.71 274.171 1209.62 278.08 1214.44 278.08Z" fill="#F7BD25"/>
<path d="M1190.6 228.21L1188.53 206.1H1178.77L1176.7 228.21C1176.3 232.45 1173.95 236.15 1170.58 238.75C1168.07 240.69 1166.45 243.73 1166.45 247.15V282.12C1166.45 284.34 1168.25 286.14 1170.47 286.14H1196.84C1199.06 286.14 1200.86 284.34 1200.86 282.12V247.15C1200.86 243.73 1199.24 240.69 1196.73 238.75C1193.36 236.15 1191.01 232.45 1190.61 228.21H1190.6Z" fill="#FCD632"/>
<path d="M1189.34 200.58H1177.96V206.89H1189.34V200.58Z" fill="#70292C"/>
<path d="M1183.65 271.06C1190.3 271.06 1195.69 265.669 1195.69 259.02C1195.69 252.37 1190.3 246.98 1183.65 246.98C1177 246.98 1171.61 252.37 1171.61 259.02C1171.61 265.669 1177 271.06 1183.65 271.06Z" fill="white"/>
<path d="M1191.43 264.76H1175.88V273.93H1191.43V264.76Z" fill="#70292C"/>
<path d="M1137.31 246.99H1110.95L1113.79 286.13H1134.48L1137.31 246.99Z" fill="white"/>
<path d="M1099.08 246.99H1072.72L1075.56 286.13H1096.25L1099.08 246.99Z" fill="white"/>
<path d="M1018.8 246.99H992.45L995.28 286.13H1015.97L1018.8 246.99Z" fill="#FFD9E4"/>
<path fill-rule="evenodd" clip-rule="evenodd" d="M862.17 314.91C827.567 314.91 799.52 342.957 799.52 377.56V496.15H793.52V377.56C793.52 339.643 824.253 308.91 862.17 308.91C900.087 308.91 930.82 339.643 930.82 377.56V496.15H924.82V377.56C924.82 342.957 896.773 314.91 862.17 314.91Z" fill="#041E49"/>
<path d="M575.8 297.67H905.13V343.52C905.13 381.11 874.61 411.63 837.02 411.63H643.91C606.32 411.63 575.8 381.11 575.8 343.52V297.67Z" fill="#D8ECF9"/>
<path d="M575.8 297.67H687.9V353.72C687.9 384.66 662.78 409.77 631.85 409.77C600.91 409.77 575.8 384.65 575.8 353.72V297.67Z" fill="#106167"/>
<path d="M640.578 206.161L575.768 297.628L530.035 265.223C504.79 247.335 498.825 212.322 516.707 187.085C534.594 161.84 569.608 155.875 594.845 173.757L640.578 206.161Z" fill="#106167"/>
<path d="M905.13 206.19H640.61L575.8 297.67H840.33L905.13 206.19Z" fill="#010B1A"/>
<path d="M781.25 187.13C792.17 171.72 809.45 163.5 827 163.49H826.99H562.47L640.61 206.2H772.55C774.18 199.54 777.05 193.07 781.25 187.13Z" fill="#D8ECF9"/>
<path d="M859.39 173.79C849.54 166.81 838.22 163.48 827 163.49L905.13 206.2L859.39 173.8V173.79Z" fill="#D8ECF9"/>
<path d="M772.55 206.19C767.24 227.88 775.26 251.57 794.59 265.26L840.33 297.66L905.13 206.19H772.55Z" fill="#041E49"/>
<path d="M827 163.49C809.45 163.5 792.17 171.72 781.25 187.13C777.05 193.06 774.18 199.54 772.55 206.2H905.13L827 163.49Z" fill="#D8ECF9"/>
<path d="M878.26 285.15L838.58 270.39C830.97 267.56 822.99 273.59 823.65 281.69L824.08 286.96H877.94C878.98 286.96 879.24 285.51 878.27 285.15H878.26Z" fill="#F76341"/>
<path d="M830.93 284.48L776.57 264.26C766.14 260.38 755.22 268.65 756.12 279.74L756.71 286.95H830.49C831.92 286.95 832.27 284.97 830.94 284.47L830.93 284.48Z" fill="#F76341"/>
<path d="M702.16 279.71C702.16 281.94 701.3 283.96 699.91 285.5C699.82 285.6 699.73 285.71 699.63 285.81C698.06 287.38 695.91 288.34 693.53 288.34H628.08C626.82 288.34 625.61 288.16 624.48 287.82C619.13 286.27 615.22 281.32 615.22 275.47C615.22 268.78 620.27 263.42 626.59 262.69C627.08 262.63 627.56 262.6 628.07 262.6C628.62 262.6 629.18 262.63 629.74 262.7L633.94 263.25L642.09 264.31L649.45 265.26L657.9 266.37L665.37 267.33L675.47 268.64L682.81 269.6L691.33 270.71L694.64 271.14C696.25 271.35 697.71 272 698.91 272.96C700.9 274.54 702.16 276.99 702.16 279.71Z" fill="#763B00"/>
<path d="M633.93 263.25L631.83 288.33H628.08C626.82 288.33 625.61 288.15 624.48 287.81L626.59 262.68C627.08 262.62 627.56 262.59 628.07 262.59C628.62 262.59 629.18 262.62 629.74 262.69L633.94 263.24L633.93 263.25Z" fill="#552F0A"/>
<path d="M649.44 265.26V288.34H642.08V264.32L649.44 265.26Z" fill="#552F0A"/>
<path d="M667.03 288.34H659.65L657.89 266.37L665.36 267.33L667.03 288.34Z" fill="#552F0A"/>
<path d="M682.81 269.61L681.98 288.34H674.61L675.47 268.65L682.81 269.61Z" fill="#552F0A"/>
<path d="M699.91 285.5C699.82 285.6 699.73 285.71 699.63 285.81C698.06 287.38 695.91 288.34 693.53 288.34H692.73L691.33 270.72L694.64 271.15C696.25 271.36 697.71 272.01 698.91 272.97L699.91 285.51V285.5Z" fill="#552F0A"/>
<path d="M802.12 279.71C802.12 281.94 801.26 283.96 799.87 285.5C799.78 285.6 799.69 285.71 799.59 285.81C798.02 287.38 795.87 288.34 793.49 288.34H728.04C726.78 288.34 725.57 288.16 724.44 287.82C719.09 286.27 715.18 281.32 715.18 275.47C715.18 268.78 720.23 263.42 726.55 262.69C727.04 262.63 727.52 262.6 728.03 262.6C728.58 262.6 729.14 262.63 729.7 262.7L733.9 263.25L742.05 264.31L749.41 265.26L757.86 266.37L765.33 267.33L775.43 268.64L782.77 269.6L791.29 270.71L794.6 271.14C796.21 271.35 797.67 272 798.87 272.96C800.86 274.54 802.12 276.99 802.12 279.71Z" fill="#763B00"/>
<path d="M733.89 263.25L731.79 288.33H728.04C726.78 288.33 725.57 288.15 724.44 287.81L726.55 262.68C727.04 262.62 727.52 262.59 728.03 262.59C728.58 262.59 729.14 262.62 729.7 262.69L733.9 263.24L733.89 263.25Z" fill="#552F0A"/>
<path d="M749.4 265.26V288.34H742.05V264.32L749.4 265.26Z" fill="#552F0A"/>
<path d="M767 288.34H759.61L757.85 266.37L765.33 267.33L767 288.34Z" fill="#552F0A"/>
<path d="M782.77 269.61L781.94 288.34H774.57L775.43 268.65L782.77 269.61Z" fill="#552F0A"/>
<path d="M799.88 285.5C799.79 285.6 799.7 285.71 799.6 285.81C798.03 287.38 795.88 288.34 793.5 288.34H792.7L791.3 270.72L794.61 271.15C796.22 271.36 797.68 272.01 798.88 272.97L799.88 285.51V285.5Z" fill="#552F0A"/>
<path fill-rule="evenodd" clip-rule="evenodd" d="M687.91 290.83H592.22V285.83H687.91V290.83Z" fill="#070B0F"/>
<path fill-rule="evenodd" clip-rule="evenodd" d="M905.13 290.83H687.91V285.83H905.13V290.83Z" fill="#C1C5C8"/>
<path d="M607.95 383.15V325.7C607.95 324.07 606.63 322.75 605 322.75C603.37 322.75 602.05 324.07 602.05 325.7V383.15C602.05 384.78 600.73 386.1 599.1 386.1H585.85C584.22 386.1 582.9 387.42 582.9 389.05V453.89C582.9 455.52 584.22 456.84 585.85 456.84H624.16C625.79 456.84 627.11 455.52 627.11 453.89V389.05C627.11 387.42 625.79 386.1 624.16 386.1H610.91C609.28 386.1 607.96 384.78 607.96 383.15H607.95ZM618.24 407.72H617.29C615.66 407.72 614.34 406.4 614.34 404.77V394.97C614.34 393.34 615.66 392.02 617.29 392.02H618.24C619.87 392.02 621.19 393.34 621.19 394.97V404.77C621.19 406.4 619.87 407.72 618.24 407.72ZM601.56 426.38V416.58C601.56 414.95 602.88 413.63 604.51 413.63H605.46C607.09 413.63 608.41 414.95 608.41 416.58V426.38C608.41 428.01 607.09 429.33 605.46 429.33H604.51C602.88 429.33 601.56 428.01 601.56 426.38ZM608.42 438.2V448C608.42 449.63 607.1 450.95 605.47 450.95H604.52C602.89 450.95 601.57 449.63 601.57 448V438.2C601.57 436.57 602.89 435.25 604.52 435.25H605.47C607.1 435.25 608.42 436.57 608.42 438.2ZM592.69 429.34H591.74C590.11 429.34 588.79 428.02 588.79 426.39V416.59C588.79 414.96 590.11 413.64 591.74 413.64H592.69C594.32 413.64 595.64 414.96 595.64 416.59V426.39C595.64 428.02 594.32 429.34 592.69 429.34ZM601.55 404.77V394.97C601.55 393.34 602.87 392.02 604.5 392.02H605.45C607.08 392.02 608.4 393.34 608.4 394.97V404.77C608.4 406.4 607.08 407.72 605.45 407.72H604.5C602.87 407.72 601.55 406.4 601.55 404.77ZM617.28 413.63H618.23C619.86 413.63 621.18 414.95 621.18 416.58V426.38C621.18 428.01 619.86 429.33 618.23 429.33H617.28C615.65 429.33 614.33 428.01 614.33 426.38V416.58C614.33 414.95 615.65 413.63 617.28 413.63ZM595.65 394.97V404.77C595.65 406.4 594.33 407.72 592.7 407.72H591.75C590.12 407.72 588.8 406.4 588.8 404.77V394.97C588.8 393.34 590.12 392.02 591.75 392.02H592.7C594.33 392.02 595.65 393.34 595.65 394.97ZM591.74 435.24H592.69C594.32 435.24 595.64 436.56 595.64 438.19V447.99C595.64 449.62 594.32 450.94 592.69 450.94H591.74C590.11 450.94 588.79 449.62 588.79 447.99V438.19C588.79 436.56 590.11 435.24 591.74 435.24ZM614.33 447.99V438.19C614.33 436.56 615.65 435.24 617.28 435.24H618.23C619.86 435.24 621.18 436.56 621.18 438.19V447.99C621.18 449.62 619.86 450.94 618.23 450.94H617.28C615.65 450.94 614.33 449.62 614.33 447.99Z" fill="#041F49"/>
<path d="M638.13 371.65V323.23C638.13 321.6 636.81 320.28 635.18 320.28C633.55 320.28 632.23 321.6 632.23 323.23V371.65C632.23 372.43 631.92 373.18 631.36 373.74L615.21 389.89C613.35 391.75 614.67 394.93 617.3 394.93H653.05C655.68 394.93 657 391.75 655.14 389.89L638.99 373.74C638.44 373.19 638.12 372.43 638.12 371.65H638.13Z" fill="#121831"/>
<path d="M652.72 394.93H617.63V432.77H652.72V394.93Z" fill="#FCD632"/>
<path fill-rule="evenodd" clip-rule="evenodd" d="M622.4 314.91C587.797 314.91 559.75 342.957 559.75 377.56V496.15H553.75V377.56C553.75 339.643 584.483 308.91 622.4 308.91C660.317 308.91 691.05 339.643 691.05 377.56V496.15H685.05V377.56C685.05 342.957 657.003 314.91 622.4 314.91Z" fill="#9FC4DB"/>
<path fill-rule="evenodd" clip-rule="evenodd" d="M636.17 295.82V326.76H634.17V295.82H636.17Z" fill="#010B1A"/>
<path fill-rule="evenodd" clip-rule="evenodd" d="M605.99 295.82V326.76H603.99V295.82H605.99Z" fill="#010B1A"/>
<path d="M807.07 193.88H717.77C715.865 193.88 714.32 195.425 714.32 197.33V197.34C714.32 199.245 715.865 200.79 717.77 200.79H807.07C808.975 200.79 810.52 199.245 810.52 197.34V197.33C810.52 195.425 808.975 193.88 807.07 193.88Z" fill="#245E7F"/>
<path d="M1258.89 275.79H1327.84C1327.84 278.64 1325.52 280.96 1322.67 280.96H1264.06C1261.21 280.96 1258.89 278.64 1258.89 275.79Z" fill="#E5E0D8"/>
<path d="M1258.89 280.96H1327.84C1327.84 283.81 1325.52 286.13 1322.67 286.13H1264.06C1261.21 286.13 1258.89 283.81 1258.89 280.96Z" fill="white"/>
<path d="M1258.89 265.89H1327.84C1327.84 268.74 1325.52 271.06 1322.67 271.06H1264.06C1261.21 271.06 1258.89 268.74 1258.89 265.89Z" fill="#E5E0D8"/>
<path d="M1258.89 270.63H1327.84C1327.84 273.48 1325.52 275.8 1322.67 275.8H1264.06C1261.21 275.8 1258.89 273.48 1258.89 270.63Z" fill="white"/>
</g>
</g>
<defs>
<clipPath id="clip0_1528_82255">
<rect width="1335" height="464" fill="white"/>
</clipPath>
</defs>
</svg>
