<svg width="1335" height="464" viewBox="0 0 1335 464" fill="none" xmlns="http://www.w3.org/2000/svg">
<g clip-path="url(#clip0_1528_78426)">
<rect width="1335" height="464" fill="#FFEFF5"/>
<mask id="mask0_1528_78426" style="mask-type:luminance" maskUnits="userSpaceOnUse" x="0" y="0" width="1335" height="464">
<path d="M1335 0H0V464H1335V0Z" fill="white"/>
</mask>
<g mask="url(#mask0_1528_78426)">
<path d="M1335 0H0V464H1335V0Z" fill="#FFEFF5"/>
<path d="M1107.19 477.56L1092.43 145.16" stroke="#FF85AD" stroke-width="2" stroke-linejoin="round"/>
<path d="M1109.1 474.2L1161.22 269.51" stroke="#FF85AD" stroke-width="2" stroke-linejoin="round"/>
<path d="M1118.97 477.56L1204.15 383.92" stroke="#FF85AD" stroke-width="2" stroke-linejoin="round"/>
<path d="M681.92 314.79L775.86 485.74" stroke="#FF85AD" stroke-width="2" stroke-miterlimit="10"/>
<path d="M1335 280.19C1335 295.47 1328.81 310.76 1316.53 321.79L1255.1 377.44C1240.05 391.07 1219.69 395.03 1201.52 389.66L1205.41 409.78L1180.92 401.34L1196.38 387.88C1188.71 384.81 1181.63 380.04 1175.73 373.49C1170.96 368.23 1167.38 362.32 1164.97 356.08C1162.45 349.58 1161.21 342.71 1161.21 335.84C1161.21 320.56 1167.4 305.27 1179.68 294.18L1241.17 238.53C1243.49 236.42 1245.95 234.55 1248.5 232.91C1271.2 218.28 1301.76 221.8 1320.48 242.49C1330.22 253.23 1334.99 266.74 1334.99 280.2L1335 280.19Z" fill="#FF85AD"/>
<path d="M1248.73 313.21L1235.37 314.21C1225.15 314.98 1216.57 322.2 1214.07 332.13L1213.12 335.9C1208.37 354.78 1188.1 365.19 1169.98 358.05L1164.98 356.08C1162.46 349.58 1161.22 342.71 1161.22 335.84C1161.22 320.56 1167.41 305.27 1179.69 294.18L1241.18 238.53C1243.5 236.42 1245.96 234.55 1248.51 232.91L1243.09 247.2C1240.2 254.8 1242.42 263.39 1248.63 268.64L1260.06 278.3C1273.62 289.76 1266.44 311.89 1248.74 313.22L1248.73 313.21Z" fill="#FF6699"/>
<path d="M1247.9 270.27L1213.52 287.95C1209.81 289.86 1207.27 293.48 1206.73 297.63L1201.81 335.97C1200.47 346.41 1187.74 350.78 1180.27 343.37L1152.83 316.14C1152.23 315.54 1151.54 315.06 1150.85 314.61L1153.82 333.57L1132.43 325.32L1147.65 313.04C1145.69 312.43 1143.6 312.29 1141.53 312.68L1103.54 319.85C1093.2 321.8 1085.11 311.05 1089.85 301.65L1107.27 267.14C1109.15 263.41 1109.08 258.99 1107.07 255.33L1106.54 254.35L1088.52 221.41C1083.47 212.18 1091.2 201.16 1101.6 202.77L1139.81 208.67C1143.94 209.31 1148.12 207.87 1150.99 204.83L1177.51 176.7C1179.25 174.86 1181.32 173.68 1183.48 173.11C1190.29 171.31 1198.01 175.48 1199.29 183.37L1205.48 221.53C1206.15 225.66 1208.8 229.19 1212.58 230.97L1247.53 247.5C1257.04 252 1257.27 265.45 1247.91 270.27H1247.9Z" fill="#F4CB68"/>
<path d="M1180.27 343.37L1159.1 322.36" stroke="#D1A337" stroke-miterlimit="10"/>
<path d="M1201.81 335.97C1200.47 346.41 1187.74 350.78 1180.27 343.37" stroke="#D1A337" stroke-miterlimit="10"/>
<path d="M1206.73 297.62L1201.81 335.97" stroke="#D1A337" stroke-miterlimit="10"/>
<path d="M1213.52 287.95C1209.81 289.86 1207.27 293.48 1206.73 297.63" stroke="#D1A337" stroke-miterlimit="10"/>
<path d="M1247.9 270.27L1213.52 287.95" stroke="#D1A337" stroke-miterlimit="10"/>
<path d="M1183.47 173.1C1175.24 228.14 1141.25 248.51 1106.55 254.33L1088.53 221.39C1083.48 212.16 1091.21 201.14 1101.61 202.75L1139.82 208.65C1143.95 209.29 1148.13 207.85 1151 204.81L1177.52 176.68C1179.26 174.84 1181.33 173.66 1183.49 173.09L1183.47 173.1Z" fill="#F3C73A"/>
<path d="M1182.69 67.6C1179.75 112.11 1140.09 173.42 1095.71 172.85L1104.84 191.37L1078.99 189.66L1090.48 172.5C1087.97 172.19 1085.51 171.7 1083.09 171.01C1042.98 159.72 1015.41 98.69 1018.19 56.71C1018.78 47.71 1020.8 39.14 1024.01 31.22C1036.98 -0.890026 1069.44 -22.52 1105.89 -20.1C1151.29 -17.1 1185.71 22.14 1182.7 67.6H1182.69Z" fill="#BE82F9"/>
<path d="M681.92 314.78L700.56 322.3L680.7 337.83L677.89 317.93C675.88 319.34 673.77 320.58 671.57 321.65C635.15 339.49 575.54 313.12 550.31 280.86C544.9 273.95 540.8 266.43 537.98 258.6C526.56 226.89 536.06 190.14 564.07 168.23C576.78 158.28 591.55 152.78 606.52 151.49C631.43 149.33 656.88 158.85 674.24 179C675.09 179.97 675.91 180.97 676.71 181.99C700.74 212.72 712.08 272.5 690.52 304.91C688.96 307.25 687.23 309.45 685.32 311.49C684.25 312.64 683.11 313.74 681.92 314.78Z" fill="#BE82F9"/>
<path d="M690.52 304.91L643.09 257.48C636.54 250.93 633.26 242.33 633.26 233.75C633.26 225.17 636.54 216.57 643.09 210.01L606.52 151.49C631.43 149.33 656.88 158.85 674.24 179C675.09 179.97 675.91 180.97 676.71 181.99C700.74 212.72 712.08 272.5 690.52 304.91Z" fill="#9D5DE8"/>
<path d="M1129.81 126.375L1122.62 129.54L1130.14 146.598L1137.32 143.432L1129.81 126.375Z" fill="#FDF7F6"/>
<path d="M1214.26 324.343L1211.09 317.16L1194.04 324.676L1197.2 331.859L1214.26 324.343Z" fill="#FDF7F6"/>
<path d="M758.856 26.4622L765.368 22.0793L754.961 6.61518L748.448 10.998L758.856 26.4622Z" fill="#FDF7F6"/>
<path d="M1316.97 266.88C1324.98 281.28 1319.55 300.37 1304.95 308.06C1303.74 308.72 1302.22 308.27 1301.56 307.05C1300.92 305.88 1301.33 304.42 1302.45 303.73C1307.9 300.34 1311.87 294.8 1313.29 288.59C1314.7 282.51 1313.62 275.98 1310.31 270.73C1307.68 266.18 1314.33 262.32 1316.98 266.88H1316.97Z" fill="#FDF7F6"/>
<path d="M758.21 299.025L713.64 487.865" stroke="#FF85AD" stroke-width="2" stroke-miterlimit="10"/>
<path d="M769.1 318.656L756.96 325.386L758.21 299.026L781.23 311.926L769.1 318.656Z" fill="#FFB2CC"/>
<path d="M815.02 184.965C815.02 200.895 806.3 216.245 791.14 223.985C789.32 224.915 787.46 225.705 785.58 226.355C780.23 228.225 774.7 228.975 769.27 228.725L774.42 238.805L777.01 243.875C780.26 250.245 781.81 257.045 781.81 263.745C781.81 279.675 773.09 295.025 757.93 302.765C736.4 313.765 710.04 305.225 699.04 283.695L674.41 235.465C671.16 229.095 669.61 222.295 669.61 215.595C669.61 202.635 675.38 190.055 685.7 181.655C688.06 179.725 690.66 178.015 693.49 176.575C700.5 172.995 708.02 171.495 715.36 171.835L711.28 163.855L711.24 163.775L707.62 156.685C704.37 150.315 702.82 143.515 702.82 136.815C702.82 120.895 711.54 105.535 726.7 97.7953C748.23 86.8053 774.59 95.3453 785.59 116.875L810.22 165.095C813.47 171.465 815.02 178.265 815.02 184.965Z" fill="#FFB2CC"/>
<path d="M785.58 226.355C780.23 228.225 774.7 228.975 769.27 228.725L748.57 188.205C748.41 187.895 748.83 187.595 749.07 187.855L785.58 226.355Z" fill="#FF85AD"/>
<path d="M719.2 181.655H685.7C688.06 179.725 690.66 178.015 693.49 176.575C700.5 172.995 708.02 171.495 715.36 171.835L711.28 163.855L720.08 180.175C720.44 180.845 719.96 181.655 719.2 181.655Z" fill="#FF85AD"/>
<path d="M678.27 149.24C681.396 149.24 683.93 146.706 683.93 143.58C683.93 140.454 681.396 137.92 678.27 137.92C675.144 137.92 672.61 140.454 672.61 143.58C672.61 146.706 675.144 149.24 678.27 149.24Z" fill="#B1D9EB"/>
<path d="M789.96 512.95C786.88 549.88 774.28 583.96 748.61 595.27C704.32 614.78 636.29 559.88 607.64 512.95C604.58 507.94 601.97 503.02 599.89 498.29C594.26 485.51 591.61 472.17 591.64 459.04C591.72 421.84 613.3 386.4 649.54 370.43C698.55 348.84 755.8 371.06 777.39 420.08C777.62 420.61 777.85 421.15 778.08 421.69C787.9 445.05 792.69 480.13 789.96 512.95Z" fill="#F4CB68"/>
<path d="M143.002 146.208L108.194 122.65L97.8028 138.004L132.61 161.562L143.002 146.208Z" fill="#FFB2CC"/>
<path d="M546.966 317.246L510.567 338.261L519.837 354.317L556.236 333.302L546.966 317.246Z" fill="#FFB2CC"/>
<path d="M624.099 88.4124L582.853 80.3351L579.29 98.5295L620.536 106.607L624.099 88.4124Z" fill="#FFD9E5"/>
<path d="M341.416 274.045L300.17 265.968L296.607 284.162L337.853 292.24L341.416 274.045Z" fill="#F8DF97"/>
<path d="M1280.79 428.202L1291.87 387.658L1273.99 382.772L1262.91 423.316L1280.79 428.202Z" fill="#F8DF97"/>
<path d="M130.907 376.999L141.983 336.455L124.099 331.569L113.022 372.113L130.907 376.999Z" fill="#FFD9E5"/>
<path d="M433.18 69.2902C438.31 69.2902 442.47 65.1309 442.47 60.0002C442.47 54.8695 438.31 50.7102 433.18 50.7102C428.049 50.7102 423.89 54.8695 423.89 60.0002C423.89 65.1309 428.049 69.2902 433.18 69.2902Z" fill="#F8DF97"/>
<path d="M61.2998 278.8C66.4305 278.8 70.5898 274.641 70.5898 269.51C70.5898 264.379 66.4305 260.22 61.2998 260.22C56.169 260.22 52.0098 264.379 52.0098 269.51C52.0098 274.641 56.169 278.8 61.2998 278.8Z" fill="#B1D9EB"/>
<path d="M389.05 225.15C394.18 225.15 398.34 220.991 398.34 215.86C398.34 210.729 394.18 206.57 389.05 206.57C383.919 206.57 379.76 210.729 379.76 215.86C379.76 220.991 383.919 225.15 389.05 225.15Z" fill="#FF85AD"/>
<path d="M1234.07 167.94C1239.2 167.94 1243.36 163.781 1243.36 158.65C1243.36 153.519 1239.2 149.36 1234.07 149.36C1228.94 149.36 1224.78 153.519 1224.78 158.65C1224.78 163.781 1228.94 167.94 1234.07 167.94Z" fill="#B1D9EB"/>
<path d="M799.54 59.9999C804.671 59.9999 808.83 55.8406 808.83 50.7099C808.83 45.5792 804.671 41.4199 799.54 41.4199C794.409 41.4199 790.25 45.5792 790.25 50.7099C790.25 55.8406 794.409 59.9999 799.54 59.9999Z" fill="#F8DF97"/>
<path d="M296.6 408.34C299.793 408.34 302.38 405.752 302.38 402.56C302.38 399.368 299.793 396.78 296.6 396.78C293.408 396.78 290.82 399.368 290.82 402.56C290.82 405.752 293.408 408.34 296.6 408.34Z" fill="#B1D9EB"/>
<path d="M51.9997 54.7502C55.1919 54.7502 57.7797 52.1624 57.7797 48.9702C57.7797 45.778 55.1919 43.1902 51.9997 43.1902C48.8075 43.1902 46.2197 45.778 46.2197 48.9702C46.2197 52.1624 48.8075 54.7502 51.9997 54.7502Z" fill="#FF85AD"/>
<path d="M260.87 73.71C264.062 73.71 266.65 71.1222 266.65 67.93C266.65 64.7378 264.062 62.15 260.87 62.15C257.678 62.15 255.09 64.7378 255.09 67.93C255.09 71.1222 257.678 73.71 260.87 73.71Z" fill="#B1D9EB"/>
<path d="M1254.79 72.7299C1257.98 72.7299 1260.57 70.1421 1260.57 66.9499C1260.57 63.7577 1257.98 61.1699 1254.79 61.1699C1251.6 61.1699 1249.01 63.7577 1249.01 66.9499C1249.01 70.1421 1251.6 72.7299 1254.79 72.7299Z" fill="#FFB2CC"/>
<path d="M1015.56 296.327L1022.88 290.529L1009.11 273.14L1001.79 278.938L1015.56 296.327Z" fill="#444343"/>
<path d="M1006.37 405.43C1009.38 405.43 1011.82 402.99 1011.82 399.98C1011.82 396.97 1009.38 394.53 1006.37 394.53C1003.36 394.53 1000.92 396.97 1000.92 399.98C1000.92 402.99 1003.36 405.43 1006.37 405.43Z" fill="#444343"/>
<path d="M1028.13 296.06V355.1C1028.13 361.82 1022.68 367.27 1015.96 367.27H846.28C844.43 367.27 842.67 366.86 841.11 366.11H841.1C836.97 364.16 834.11 359.96 834.11 355.09V296.05H1028.13V296.06Z" fill="#FF85AD"/>
<path d="M1028.13 218.77H834.11V289.98H1028.13V218.77Z" fill="#EAB3D1"/>
<path d="M1028.13 309.44C1015.55 309.44 1008.82 305.22 1003.41 301.83C999.03 299.09 996.14 297.27 989.32 297.27C982.5 297.27 979.6 299.08 975.23 301.83C969.82 305.22 963.09 309.44 950.51 309.44C937.93 309.44 931.2 305.22 925.8 301.83C921.43 299.09 918.54 297.27 911.71 297.27C904.88 297.27 902 299.08 897.62 301.83C892.21 305.22 885.48 309.44 872.91 309.44C860.34 309.44 853.6 305.22 848.2 301.83C843.83 299.09 840.94 297.27 834.11 297.27V277.27C846.69 277.27 853.42 281.49 858.82 284.88C863.19 287.62 866.08 289.44 872.91 289.44C879.74 289.44 882.62 287.63 887 284.88C892.41 281.49 899.14 277.27 911.71 277.27C924.28 277.27 931.02 281.49 936.42 284.88C940.79 287.62 943.68 289.44 950.51 289.44C957.34 289.44 960.23 287.63 964.6 284.88C970.01 281.49 976.74 277.27 989.32 277.27C1001.9 277.27 1008.63 281.49 1014.04 284.88C1018.42 287.62 1021.31 289.44 1028.13 289.44V309.44Z" fill="#FEF8EC"/>
<path d="M1028.13 256.38V273.55C1020.9 273.55 1017.71 275.55 1013.29 278.31C1008.04 281.61 1001.5 285.71 989.33 285.71C977.16 285.71 970.62 281.61 965.37 278.31C960.95 275.55 957.76 273.55 950.53 273.55C943.3 273.55 940.11 275.55 935.69 278.31C930.44 281.61 923.9 285.71 911.73 285.71C899.56 285.71 893.02 281.61 887.77 278.31C883.35 275.55 880.16 273.55 872.93 273.55C865.7 273.55 862.5 275.55 858.08 278.31C852.83 281.61 846.29 285.71 834.12 285.71V203.68H1028.13V256.38Z" fill="#FFB2CC"/>
<path d="M1036.62 367.28V374.63C1036.62 377.67 1034.15 380.14 1031.11 380.14C1029.47 380.14 1028.13 381.47 1028.13 383.12C1028.13 386.34 1025.52 388.95 1022.3 388.95H839.94C836.72 388.95 834.11 386.34 834.11 383.12C834.11 381.48 832.78 380.14 831.13 380.14C828.09 380.14 825.62 377.67 825.62 374.63V367.28H1036.62Z" fill="#F8DEA0"/>
<path d="M831.12 380.14H939.83" stroke="#F1BE42" stroke-width="2" stroke-linejoin="round"/>
<path d="M1028.5 219.15C1028.38 219.18 1028.25 219.2 1028.13 219.21V218.29L1028.5 219.15Z" fill="#FFB82C"/>
<path d="M1028.5 219.15C1028.38 219.18 1028.25 219.2 1028.13 219.21V218.29L1028.5 219.15Z" fill="#FFB82C"/>
<path d="M933.56 55.68L941.6 76.6C942.14 78 943.74 78.67 945.12 78.06L965.6 68.95C967.8 67.97 970.04 70.22 969.07 72.42L959.96 92.9C959.35 94.27 960.01 95.88 961.42 96.42L982.34 104.46C984.58 105.32 984.58 108.5 982.34 109.36L961.42 117.4C960.02 117.94 959.35 119.54 959.96 120.92L969.07 141.4C970.05 143.6 967.8 145.84 965.6 144.87L945.12 135.76C943.75 135.15 942.14 135.81 941.6 137.22L933.56 158.14C932.7 160.38 929.52 160.38 928.66 158.14L920.62 137.22C920.08 135.82 918.48 135.15 917.1 135.76L896.62 144.87C894.42 145.85 892.18 143.6 893.15 141.4L902.26 120.92C902.87 119.55 902.21 117.94 900.8 117.4L879.88 109.36C877.64 108.5 877.64 105.32 879.88 104.46L900.8 96.42C902.2 95.88 902.87 94.28 902.26 92.9L893.15 72.42C892.17 70.22 894.42 67.98 896.62 68.95L917.1 78.06C918.47 78.67 920.08 78.01 920.62 76.6L928.66 55.68C929.52 53.44 932.7 53.44 933.56 55.68Z" fill="#F8DEA0"/>
<path d="M931.12 106.91L940.53 116.32C942.13 117.92 943.43 119.69 944.48 121.57C949.56 112.48 948.26 100.79 940.53 93.07L931.12 83.66L921.71 93.07C913.99 100.79 912.68 112.49 917.76 121.57C918.81 119.69 920.11 117.92 921.71 116.32L931.12 106.91Z" fill="#F3C73A"/>
<path d="M931.12 136.23L940.53 126.82C942.13 125.22 943.43 123.45 944.48 121.57C943.43 119.69 942.13 117.92 940.53 116.32L931.12 106.91L921.71 116.32C920.11 117.92 918.81 119.69 917.76 121.57C918.81 123.45 920.11 125.22 921.71 126.82L931.12 136.23Z" fill="#F3C73A"/>
<path d="M937.6 137.25H924.65V203.68H937.6V137.25Z" fill="white"/>
<path d="M937.59 141.9V160.2L924.65 173.14V154.84L937.59 141.9Z" fill="#FF85AD"/>
<path d="M937.59 171.97V199.24L924.65 203.21V184.91L937.59 171.97Z" fill="#FFB2CC"/>
<path d="M931.12 137.25V128.16" stroke="#606060" stroke-width="1.39" stroke-miterlimit="10"/>
<path d="M1017.71 190.94C1012.83 190.82 1008.6 193.64 1006.63 197.74C1004.7 193.72 1000.6 190.93 995.84 190.93C991.08 190.93 986.98 193.71 985.05 197.74C983.12 193.72 979.02 190.93 974.26 190.93C969.5 190.93 965.4 193.71 963.47 197.74C961.54 193.72 957.44 190.93 952.68 190.93C947.92 190.93 943.82 193.71 941.89 197.74C939.96 193.72 935.86 190.93 931.1 190.93C926.34 190.93 922.24 193.71 920.31 197.74C918.38 193.72 914.28 190.93 909.52 190.93C904.76 190.93 900.66 193.71 898.73 197.74C896.8 193.72 892.7 190.93 887.94 190.93C883.18 190.93 879.08 193.71 877.15 197.74C875.22 193.72 871.12 190.93 866.36 190.93C861.6 190.93 857.5 193.71 855.57 197.74C853.6 193.64 849.37 190.82 844.49 190.94C838.27 191.09 833.07 196.19 832.82 202.41C832.54 209.25 838 214.88 844.78 214.88C849.54 214.88 853.64 212.1 855.57 208.07C857.5 212.09 861.6 214.88 866.36 214.88C871.12 214.88 875.22 212.1 877.15 208.07C879.08 212.09 883.18 214.88 887.94 214.88C892.7 214.88 896.8 212.1 898.73 208.07C900.66 212.09 904.76 214.88 909.52 214.88C914.28 214.88 918.38 212.1 920.31 208.07C922.24 212.09 926.34 214.88 931.1 214.88C935.86 214.88 939.96 212.1 941.89 208.07C943.82 212.09 947.92 214.88 952.68 214.88C957.44 214.88 961.54 212.1 963.47 208.07C965.4 212.09 969.5 214.88 974.26 214.88C979.02 214.88 983.12 212.1 985.05 208.07C986.98 212.09 991.08 214.88 995.84 214.88C1000.6 214.88 1004.7 212.1 1006.63 208.07C1008.56 212.09 1012.66 214.88 1017.42 214.88C1024.2 214.88 1029.66 209.25 1029.38 202.41C1029.13 196.19 1023.93 191.09 1017.71 190.94Z" fill="#FF85AD"/>
<path d="M885.32 389.71V498.44H767.57L805.55 389.71H885.32Z" fill="#B1D9EB"/>
<path d="M985.34 373.72H1065.1L1080.29 482.44H985.34V373.72Z" fill="#6AB9F9"/>
<path d="M989.14 389.72H885.32V498.44H989.14V389.72Z" fill="#D8ECF5"/>
<path d="M772.64 510.05L826.44 398.34L799.54 510.05" stroke="#6AB9F9" stroke-width="2" stroke-linejoin="round"/>
<path d="M885.32 388.86V416.56L823.55 388.86H885.32Z" fill="#6AB9F9"/>
<path d="M858.72 498.44L885.32 418.6V498.44H858.72Z" fill="#6AB9F9"/>
<path d="M885.48 415.98L885.32 416.44V415.9L885.48 415.98Z" fill="#444343"/>
<path d="M885.32 404.35L989.13 388.86H885.32V404.35Z" fill="#B1C8E8"/>
<path d="M898.07 495.82C898.07 495.82 939.84 466.11 933.31 401.13" stroke="#A2D3FB" stroke-width="2" stroke-linejoin="round"/>
<path d="M989.13 482.44V394.27C989.13 394.27 996.52 462.37 1062.77 482.68L989.13 482.44Z" fill="#45A8F8"/>
<path d="M989.13 373.7V479.82" stroke="#3399FF" stroke-width="2" stroke-linejoin="round"/>
<path d="M917.76 231.78C919.842 231.78 921.53 230.092 921.53 228.01C921.53 225.928 919.842 224.24 917.76 224.24C915.678 224.24 913.99 225.928 913.99 228.01C913.99 230.092 915.678 231.78 917.76 231.78Z" fill="#FFEFF5"/>
<path d="M862.02 264.85C865.467 264.85 868.26 262.056 868.26 258.61C868.26 255.164 865.467 252.37 862.02 252.37C858.574 252.37 855.78 255.164 855.78 258.61C855.78 262.056 858.574 264.85 862.02 264.85Z" fill="#FF6699"/>
<path d="M1009.6 234.03C1012.55 234.03 1014.94 231.639 1014.94 228.69C1014.94 225.741 1012.55 223.35 1009.6 223.35C1006.65 223.35 1004.26 225.741 1004.26 228.69C1004.26 231.639 1006.65 234.03 1009.6 234.03Z" fill="#FF6699"/>
<path d="M915.45 258.27C917.598 258.27 919.34 256.528 919.34 254.38C919.34 252.231 917.598 250.49 915.45 250.49C913.301 250.49 911.56 252.231 911.56 254.38C911.56 256.528 913.301 258.27 915.45 258.27Z" fill="#6AB9F9"/>
<path d="M1008.48 208.23C1011.06 208.23 1013.15 206.139 1013.15 203.56C1013.15 200.981 1011.06 198.89 1008.48 198.89C1005.9 198.89 1003.81 200.981 1003.81 203.56C1003.81 206.139 1005.9 208.23 1008.48 208.23Z" fill="#6AB9F9"/>
<path d="M842.909 237.23C845.058 237.23 846.799 235.488 846.799 233.34C846.799 231.191 845.058 229.45 842.909 229.45C840.761 229.45 839.02 231.191 839.02 233.34C839.02 235.488 840.761 237.23 842.909 237.23Z" fill="#FF6699"/>
<path d="M964.83 265.49C966.979 265.49 968.72 263.748 968.72 261.6C968.72 259.452 966.979 257.71 964.83 257.71C962.682 257.71 960.94 259.452 960.94 261.6C960.94 263.748 962.682 265.49 964.83 265.49Z" fill="#FF6699"/>
<path d="M874.89 229.94C877.038 229.94 878.78 228.198 878.78 226.05C878.78 223.902 877.038 222.16 874.89 222.16C872.742 222.16 871 223.902 871 226.05C871 228.198 872.742 229.94 874.89 229.94Z" fill="#6AB9F9"/>
<path d="M953.99 243.01C956.138 243.01 957.88 241.268 957.88 239.12C957.88 236.972 956.138 235.23 953.99 235.23C951.841 235.23 950.1 236.972 950.1 239.12C950.1 241.268 951.841 243.01 953.99 243.01Z" fill="#6AB9F9"/>
<path d="M1002.8 253.38C1004.95 253.38 1006.69 251.638 1006.69 249.49C1006.69 247.342 1004.95 245.6 1002.8 245.6C1000.65 245.6 998.91 247.342 998.91 249.49C998.91 251.638 1000.65 253.38 1002.8 253.38Z" fill="#6AB9F9"/>
<path d="M979.539 216.78C982.174 216.78 984.31 214.644 984.31 212.01C984.31 209.375 982.174 207.24 979.539 207.24C976.905 207.24 974.77 209.375 974.77 212.01C974.77 214.644 976.905 216.78 979.539 216.78Z" fill="#FDF7F6"/>
<path d="M889.37 265.49C891.519 265.49 893.26 263.748 893.26 261.6C893.26 259.452 891.519 257.71 889.37 257.71C887.222 257.71 885.48 259.452 885.48 261.6C885.48 263.748 887.222 265.49 889.37 265.49Z" fill="#FDF7F6"/>
<path d="M805.55 389.69H1065.1" stroke="#3399FF" stroke-width="2" stroke-linejoin="round"/>
<path d="M1053.59 284.34C1056.78 284.34 1059.37 281.752 1059.37 278.56C1059.37 275.368 1056.78 272.78 1053.59 272.78C1050.4 272.78 1047.81 275.368 1047.81 278.56C1047.81 281.752 1050.4 284.34 1053.59 284.34Z" fill="#FFB2CC"/>
<path d="M1028.12 272.2H834.11V289.98H1028.12V272.2Z" fill="#423772"/>
<path d="M789.96 512.95H607.64C604.58 507.94 601.97 503.02 599.89 498.29C594.26 485.51 591.61 472.17 591.64 459.04L778.08 421.69C787.9 445.05 792.69 480.13 789.96 512.95Z" fill="#F3C73A"/>
</g>
</g>
<defs>
<clipPath id="clip0_1528_78426">
<rect width="1335" height="464" fill="white"/>
</clipPath>
</defs>
</svg>
