<svg width="1335" height="464" viewBox="0 0 1335 464" fill="none" xmlns="http://www.w3.org/2000/svg">
<g clip-path="url(#clip0_1528_87942)">
<rect width="1335" height="464" fill="#A5D9EC"/>
<mask id="mask0_1528_87942" style="mask-type:luminance" maskUnits="userSpaceOnUse" x="0" y="0" width="1335" height="464">
<path d="M1335 0H0V464H1335V0Z" fill="white"/>
</mask>
<g mask="url(#mask0_1528_87942)">
<path d="M1335 0H0V464H1335V0Z" fill="#A5D9EC"/>
<path d="M908.36 119.41L943.67 126.9C948.36 127.89 952.68 130.18 956.14 133.5L984.76 160.97C988.25 164.32 992.49 166.8 997.13 168.2L1002.69 169.88V177.49L989.47 173.49L984.48 177.67C983.74 178.29 982.7 178.4 981.85 177.95C980.58 177.28 980.19 175.65 981.02 174.48L982.1 172.94C983.25 171.32 982.7 169.06 980.94 168.13L949.1 151.39C947.5 150.55 946.3 149.12 945.74 147.41L944.37 143.24H908.34V119.41H908.36Z" fill="#F56E6F"/>
<path d="M924.63 282.1L577.58 535.88H1271.68L924.63 282.1Z" fill="#3A9EE0"/>
<path d="M922.17 303.65L930.42 327.17C931.02 328.87 930.3 330.75 928.73 331.63C925.4 333.49 926.72 338.56 930.54 338.56H945.06C948.63 338.56 950.13 334 947.26 331.88L944.7 329.99C944.1 329.55 943.65 328.94 943.4 328.24L934.72 303.65H922.17Z" fill="#FFF9E3"/>
<path d="M958.79 262.53L964.44 264.73C973.08 268.09 980.74 273.58 986.71 280.67L992.84 287.95C994.13 289.48 996.4 289.73 997.99 288.52C999.49 287.38 999.91 285.3 998.97 283.67L986.1 261.24L982.8 263.4L963.12 254.64L958.81 262.54L958.79 262.53Z" fill="#EC5E3A"/>
<path d="M978.55 258.62L972.97 278.2L940.63 268.89L921.6 263.41C917.45 262.22 913.48 260.27 909.79 257.69C902.06 252.29 895.6 244.08 891.4 234.04L870.69 184.51L906.42 173.12L916.6 216.3L919.52 228.71L947.27 242.77L978.55 258.62Z" fill="#707070"/>
<path d="M948.13 246.68C948.13 249.61 946.67 252.45 944.09 254.12C941.34 255.9 939.8 259.04 940.08 262.3L940.63 268.89L921.6 263.41C917.45 262.22 913.48 260.27 909.79 257.69L911.09 214.91L916.6 216.3L919.52 228.71L947.27 242.77L947.58 243.6C947.95 244.61 948.13 245.65 948.13 246.68Z" fill="#3F3F3F"/>
<path d="M893.56 262.27L924.63 321.95L942.03 319.08L920.5 217.6C919.32 212.02 919.22 206.25 920.2 200.78L921.34 194.48C922.58 187.63 922.1 180.34 919.97 173.57L883.53 186.41L885.08 230.17C885.48 241.37 888.37 252.34 893.54 262.27H893.56Z" fill="#B6B6B6"/>
<path d="M850.17 140.17L828.21 168.82C825.29 172.62 823.5 177.17 823.03 181.94L819.14 221.42C818.67 226.24 817.06 230.88 814.44 234.95L811.31 239.84L816.26 245.62L823.7 233.98L830.21 233.91C831.17 233.91 832.04 233.31 832.39 232.41C832.92 231.08 832.16 229.58 830.77 229.23L828.95 228.77C827.02 228.28 825.97 226.21 826.7 224.37L840 190.95C840.67 189.28 840.66 187.41 839.97 185.74L838.3 181.69L865.67 158.26L850.18 140.16L850.17 140.17Z" fill="#F56E6F"/>
<path d="M933.2 149.41H908.24L924.79 181.49L868.57 188.19L865.66 173.05H865.65L864.67 167.94L851.63 179.28L845.6 175.45L823.55 161.45L869.62 110.17L881.05 137.38L879.37 108.03L933.2 122.22V149.41Z" fill="#F9D3DD"/>
<path d="M869.62 110.17C866.11 110.56 863.46 113.52 863.46 117.05V123.14L869.62 124.4L868.4 130.09C868.06 131.7 868.33 133.38 869.16 134.79L887.32 165.58L890.4 131.12C890.54 129.55 889.99 128 888.88 126.87L885.83 123.76L890.61 122.03L888.27 113.62C887.35 110.31 884.34 108.03 880.9 108.03H879.36L879.99 131.64L869.61 110.16L869.62 110.17Z" fill="#FDF9F0"/>
<path fill-rule="evenodd" clip-rule="evenodd" d="M879.788 130.663C880.327 130.545 880.86 130.888 880.977 131.427L891.597 180.217C891.715 180.757 891.373 181.29 890.833 181.407C890.293 181.525 889.761 181.182 889.643 180.643L879.023 131.853C878.906 131.313 879.248 130.78 879.788 130.663Z" fill="#F0809C"/>
<path d="M888.07 317.31C888.07 337.18 882.77 355.81 873.51 371.87C854.62 404.64 819.23 426.7 778.68 426.7C734.5 426.7 696.44 400.51 679.18 362.8C672.83 348.95 669.3 333.54 669.3 317.31C669.3 316.01 669.32 314.72 669.37 313.44C670.44 282.71 684.18 255.2 705.54 235.99C711.99 230.17 719.14 225.11 726.84 220.96C742.27 212.64 759.92 207.92 778.68 207.92C832.92 207.92 877.94 247.4 886.57 299.18C887.56 305.08 888.07 311.13 888.07 317.31Z" fill="#7C73C9"/>
<path d="M873.51 371.87C854.62 404.64 819.23 426.7 778.68 426.7C734.5 426.7 696.44 400.51 679.18 362.8C672.83 348.95 669.3 333.54 669.3 317.31C669.3 316.01 669.32 314.72 669.37 313.44C699.95 349.08 784.32 430.86 873.51 371.87Z" fill="#0D386C"/>
<path d="M1231.3 339.73L1165.68 420.74C1162.41 424.78 1156.88 426.19 1152.07 424.22L1109.42 406.8C1104.61 404.84 1101.65 399.96 1102.15 394.79L1112.01 291C1115.06 258.87 1132.58 229.89 1159.6 212.26L1169.9 205.54C1173.76 203.03 1177.24 200.06 1180.32 196.73C1181.12 195.88 1181.88 195.01 1182.61 194.11C1185.4 190.7 1187.76 186.96 1189.68 182.97C1189.81 182.7 1189.93 182.44 1190.06 182.17C1190.39 181.44 1190.72 180.7 1191.03 179.95L1194.39 171.73C1196.36 166.9 1198.11 162 1199.66 157.04C1203.55 144.61 1206.19 131.79 1207.96 118.85C1208.43 115.42 1209.34 111.99 1210.71 108.64C1219.42 87.32 1243.64 77.01 1265.01 85.44C1286.53 93.92 1297.22 118.72 1288.6 140.18C1287.19 143.7 1285.35 146.92 1283.17 149.81C1275.36 160.19 1268.37 171.16 1262.5 182.72C1260.07 187.49 1257.83 192.36 1255.8 197.34L1252.62 205.13C1252.31 205.88 1252.03 206.64 1251.76 207.4C1251.66 207.68 1251.56 207.95 1251.47 208.23C1250.04 212.43 1249.11 216.75 1248.72 221.14C1248.62 222.3 1248.54 223.45 1248.52 224.62C1248.38 229.16 1248.81 233.72 1249.8 238.21L1252.44 250.22C1259.39 281.73 1251.61 314.69 1231.3 339.76V339.73Z" fill="#57AAE3"/>
<path d="M1262.51 182.69C1260.08 187.46 1257.84 192.33 1255.81 197.31L1255.73 197.51L1194.14 172.35L1194.4 171.71C1196.37 166.88 1198.12 161.98 1199.67 157.02L1262.51 182.69Z" fill="#1A6BCD"/>
<path d="M1248.52 224.58L1180.32 196.72C1181.12 195.87 1181.88 195 1182.61 194.1C1185.4 190.69 1187.76 186.95 1189.68 182.96L1251.46 208.2C1250.03 212.4 1249.1 216.72 1248.71 221.11C1248.61 222.27 1248.53 223.42 1248.51 224.59L1248.52 224.58Z" fill="#1A6BCD"/>
<path d="M1090.89 285.59L1056.94 349.57C1055.25 352.76 1051.67 354.46 1048.12 353.76L1016.72 347.56C1013.18 346.86 1010.51 343.93 1010.16 340.34L1003.05 268.25C1000.85 245.94 1008.93 223.84 1025.01 208.22L1031.14 202.26C1033.43 200.03 1035.41 197.55 1037.07 194.86C1037.5 194.18 1037.9 193.48 1038.28 192.77C1039.73 190.08 1040.84 187.21 1041.62 184.23C1041.68 184.03 1041.72 183.84 1041.77 183.64C1041.9 183.1 1042.03 182.55 1042.13 182L1043.32 175.94C1044.02 172.39 1044.56 168.81 1044.96 165.22C1045.96 156.23 1046.05 147.13 1045.53 138.07C1045.4 135.67 1045.56 133.21 1046.05 130.74C1049.15 115.04 1064.29 104.78 1079.99 107.69C1095.8 110.61 1106.39 126.09 1103.37 141.88C1102.88 144.47 1102.05 146.91 1100.95 149.17C1097.01 157.29 1093.7 165.7 1091.24 174.36C1090.22 177.94 1089.34 181.56 1088.62 185.22L1087.49 190.96C1087.38 191.51 1087.29 192.07 1087.2 192.62C1087.17 192.82 1087.14 193.02 1087.11 193.23C1086.69 196.28 1086.64 199.36 1086.95 202.4C1087.03 203.2 1087.14 204 1087.28 204.8C1087.79 207.91 1088.69 210.96 1089.96 213.9L1093.36 221.74C1102.3 242.3 1101.39 265.81 1090.88 285.62L1090.89 285.59Z" fill="#1A6BCD"/>
<path d="M1091.25 174.36C1090.23 177.94 1089.35 181.56 1088.63 185.22L1088.6 185.37L1043.25 176.42L1043.34 175.95C1044.04 172.4 1044.58 168.82 1044.98 165.23L1091.25 174.36Z" fill="#61B1E6"/>
<path d="M1087.29 204.78L1037.07 194.87C1037.5 194.19 1037.9 193.49 1038.28 192.78C1039.73 190.09 1040.84 187.22 1041.62 184.24L1087.11 193.22C1086.69 196.27 1086.64 199.35 1086.95 202.39C1087.03 203.19 1087.14 203.99 1087.28 204.79L1087.29 204.78Z" fill="#61B1E6"/>
<path d="M541.83 183.92L550.12 255.88C550.54 259.47 548.55 262.89 545.23 264.33L515.85 277.02C512.54 278.45 508.68 277.55 506.35 274.79L459.64 219.43C445.18 202.3 439.31 179.51 443.7 157.52L445.37 149.14C446 146 446.22 142.84 446.06 139.68C446.03 138.87 445.96 138.07 445.87 137.27C445.53 134.23 444.83 131.24 443.78 128.34C443.71 128.14 443.64 127.96 443.57 127.77C443.37 127.25 443.16 126.73 442.94 126.21L440.49 120.54C439.05 117.21 437.47 113.96 435.76 110.78C431.48 102.81 426.41 95.26 420.84 88.09C419.37 86.19 418.11 84.07 417.11 81.76C410.76 67.07 417.42 50.04 432 43.53C446.67 36.97 464.17 43.73 470.64 58.44C471.7 60.85 472.41 63.33 472.78 65.81C474.14 74.74 476.18 83.54 479.06 92.07C480.25 95.6 481.58 99.07 483.06 102.5L485.38 107.87C485.6 108.39 485.84 108.9 486.08 109.4C486.17 109.59 486.26 109.77 486.35 109.95C487.74 112.7 489.43 115.26 491.42 117.59C491.94 118.2 492.48 118.8 493.05 119.38C495.24 121.66 497.7 123.66 500.42 125.35L507.66 129.88C526.68 141.75 539.25 161.64 541.82 183.91L541.83 183.92Z" fill="#57AAE3"/>
<path d="M479.07 92.0801C480.26 95.6101 481.59 99.0801 483.07 102.51L483.13 102.65L440.69 120.99L440.5 120.55C439.06 117.22 437.481 113.97 435.771 110.79L479.07 92.0801Z" fill="#FAEECE"/>
<path d="M493.06 119.39L446.07 139.69C446.04 138.88 445.97 138.08 445.88 137.28C445.54 134.24 444.84 131.25 443.79 128.35L486.36 109.96C487.75 112.71 489.44 115.27 491.43 117.6C491.95 118.21 492.49 118.81 493.06 119.39Z" fill="#FAEECE"/>
<path d="M140.42 354.84L122.6 425.05C121.71 428.55 118.64 431.05 115.03 431.21L83.0497 432.63C79.4497 432.79 76.1597 430.57 74.9697 427.17L50.9797 358.82C43.5497 337.66 46.1697 314.28 58.0897 295.29L62.6297 288.05C64.3297 285.34 65.6698 282.46 66.6397 279.46C66.8997 278.69 67.1197 277.92 67.3197 277.14C68.0898 274.18 68.4898 271.13 68.5398 268.05C68.5398 267.84 68.5398 267.64 68.5398 267.44C68.5398 266.88 68.5298 266.32 68.4998 265.76L68.2297 259.59C68.0697 255.97 67.7397 252.37 67.2797 248.79C66.1197 239.82 64.0497 230.96 61.3997 222.28C60.6997 219.98 60.2797 217.55 60.1597 215.03C59.4497 199.05 71.7297 185.49 87.6597 184.59C103.71 183.68 117.66 196.21 118.47 212.26C118.6 214.89 118.38 217.46 117.85 219.91C115.94 228.73 114.73 237.69 114.39 246.69C114.25 250.41 114.25 254.13 114.42 257.86L114.68 263.7C114.71 264.26 114.75 264.83 114.79 265.38C114.81 265.59 114.82 265.78 114.85 265.99C115.17 269.05 115.84 272.05 116.87 274.93C117.14 275.69 117.43 276.44 117.76 277.18C118.99 280.08 120.59 282.84 122.52 285.38L127.68 292.19C141.24 310.04 145.92 333.1 140.41 354.84H140.42Z" fill="#61B1E6"/>
<path d="M114.399 246.69C114.259 250.41 114.259 254.13 114.429 257.86V258.01L68.2493 260.06L68.2293 259.58C68.0693 255.96 67.7393 252.36 67.2793 248.78L114.399 246.68V246.69Z" fill="#1A6BCD"/>
<path d="M117.77 277.19L66.6396 279.47C66.8996 278.7 67.1196 277.93 67.3196 277.15C68.0896 274.19 68.4897 271.14 68.5396 268.06L114.87 266C115.19 269.06 115.86 272.06 116.89 274.94C117.16 275.7 117.45 276.45 117.78 277.19H117.77Z" fill="#1A6BCD"/>
<path d="M1333.01 427.28L1335.36 499.68C1335.48 503.29 1333.21 506.54 1329.79 507.7L1299.46 517.94C1296.04 519.09 1292.27 517.88 1290.18 514.93L1248.18 455.92C1235.17 437.65 1231.2 414.46 1237.39 392.91L1239.75 384.69C1240.63 381.62 1241.12 378.48 1241.22 375.32C1241.26 374.51 1241.25 373.71 1241.23 372.9C1241.15 369.84 1240.69 366.8 1239.88 363.83C1239.83 363.63 1239.77 363.44 1239.71 363.24C1239.55 362.71 1239.39 362.17 1239.21 361.63L1237.24 355.78C1236.08 352.35 1234.77 348.98 1233.33 345.66C1229.72 337.36 1225.29 329.43 1220.33 321.82C1219.02 319.8 1217.94 317.59 1217.13 315.2C1212.01 300.04 1220.05 283.61 1235.11 278.33C1250.27 273 1267.16 281.17 1272.39 296.37C1273.25 298.86 1273.75 301.39 1273.92 303.9C1274.54 312.91 1275.85 321.85 1278.02 330.59C1278.91 334.2 1279.95 337.78 1281.15 341.32L1283.02 346.86C1283.2 347.39 1283.4 347.92 1283.6 348.44C1283.67 348.63 1283.74 348.82 1283.83 349.01C1284.99 351.86 1286.47 354.56 1288.25 357.04C1288.72 357.69 1289.21 358.33 1289.73 358.96C1291.72 361.41 1294.02 363.61 1296.58 365.52L1303.43 370.63C1321.41 384.02 1332.3 404.88 1333.03 427.29L1333.01 427.28Z" fill="#FDF9F0"/>
<path d="M1278.01 330.58C1278.9 334.19 1279.94 337.77 1281.14 341.31L1281.19 341.45L1237.39 356.23L1237.24 355.78C1236.08 352.35 1234.77 348.98 1233.33 345.66L1278.02 330.58H1278.01Z" fill="#EC5E3A"/>
<path d="M1289.71 358.95L1241.21 375.32C1241.25 374.51 1241.24 373.71 1241.22 372.9C1241.14 369.84 1240.68 366.8 1239.87 363.83L1283.81 349C1284.97 351.85 1286.45 354.55 1288.23 357.03C1288.7 357.68 1289.19 358.32 1289.71 358.95Z" fill="#EC5E3A"/>
<path d="M750.13 313.36L743.19 409.03C742.85 413.8 739.41 417.77 734.74 418.82L693.38 428.1C688.72 429.15 683.92 427.02 681.57 422.86L634.43 339.32C619.83 313.46 617.82 282.37 628.95 254.85L633.19 244.36C634.78 240.43 635.85 236.37 636.42 232.23C636.58 231.17 636.69 230.11 636.77 229.05C637.08 225.01 636.9 220.94 636.25 216.92C636.21 216.65 636.16 216.39 636.11 216.12C635.98 215.39 635.84 214.66 635.67 213.93L633.88 205.95C632.83 201.27 631.57 196.65 630.13 192.08C626.53 180.65 621.79 169.59 616.31 158.88C614.87 156.04 613.75 152.98 613.02 149.72C608.38 129.05 621.25 108.52 641.81 103.65C662.52 98.74 683.62 111.84 688.4 132.57C689.18 135.97 689.49 139.37 689.37 142.69C688.93 154.64 689.43 166.59 691.07 178.4C691.74 183.28 692.62 188.13 693.7 192.96L695.39 200.52C695.55 201.25 695.74 201.97 695.93 202.68C696 202.94 696.07 203.2 696.15 203.46C697.28 207.38 698.85 211.13 700.86 214.65C701.39 215.58 701.94 216.49 702.54 217.38C704.82 220.88 707.54 224.1 710.65 226.97L718.96 234.65C740.78 254.78 752.24 283.76 750.09 313.37L750.13 313.36Z" fill="#FFF9E3"/>
<path d="M691.11 178.4C691.78 183.28 692.66 188.13 693.74 192.96L693.78 193.16L634.05 206.56L633.91 205.94C632.86 201.26 631.6 196.64 630.16 192.07L691.1 178.4H691.11Z" fill="#EC5E3A"/>
<path d="M702.58 217.38L636.44 232.21C636.6 231.15 636.709 230.09 636.789 229.03C637.099 224.99 636.92 220.92 636.27 216.9L696.19 203.46C697.32 207.38 698.89 211.13 700.9 214.65C701.43 215.58 701.98 216.49 702.58 217.38Z" fill="#EC5E3A"/>
<path d="M324.64 151.02L270.77 230.38C268.09 234.34 263.13 236.06 258.56 234.63L218.11 221.97C213.55 220.54 210.46 216.3 210.51 211.52L211.49 115.6C211.79 85.91 225.6 57.98 249.01 39.72L257.94 32.76C261.28 30.16 264.24 27.17 266.81 23.87C267.48 23.03 268.1 22.17 268.71 21.29C271 17.95 272.88 14.34 274.33 10.53C274.43 10.28 274.52 10.03 274.61 9.77C274.86 9.07999 275.1 8.37 275.33 7.66L277.77 -0.139999C279.2 -4.72 280.42 -9.35001 281.46 -14.02C284.06 -25.72 285.49 -37.67 286.11 -49.68C286.28 -52.86 286.84 -56.08 287.84 -59.26C294.17 -79.48 315.57 -90.82 335.82 -84.74C356.21 -78.63 367.93 -56.73 361.69 -36.39C360.67 -33.05 359.24 -29.96 357.46 -27.14C351.11 -17.01 345.55 -6.42 341.07 4.64C339.21 9.21 337.54 13.84 336.06 18.56L333.75 25.95C333.53 26.66 333.32 27.38 333.13 28.09C333.06 28.35 332.99 28.61 332.93 28.88C331.94 32.84 331.43 36.88 331.41 40.93C331.41 42 331.43 43.06 331.5 44.13C331.73 48.3 332.47 52.45 333.73 56.49L337.08 67.3C345.9 95.65 341.33 126.47 324.65 151.04L324.64 151.02Z" fill="#FFF9E3"/>
<path d="M341.051 4.62998C339.191 9.19998 337.521 13.83 336.041 18.55L335.981 18.74L277.561 0.459981L277.751 -0.140019C279.181 -4.72002 280.401 -9.35002 281.441 -14.02L341.051 4.62998Z" fill="#EC5E3A"/>
<path d="M331.48 44.12L266.79 23.88C267.46 23.04 268.08 22.18 268.69 21.3C270.98 17.96 272.86 14.35 274.31 10.54L332.91 28.88C331.92 32.84 331.41 36.88 331.39 40.93C331.39 42 331.41 43.06 331.48 44.13V44.12Z" fill="#EC5E3A"/>
<path d="M490.53 296.28L586.42 293.81C591.2 293.68 595.49 296.71 596.99 301.26L610.28 341.51C611.78 346.05 610.13 351.03 606.22 353.77L527.7 408.87C503.4 425.93 472.65 430.99 444.17 422.61L433.31 419.41C429.25 418.21 425.1 417.55 420.92 417.38C419.85 417.32 418.78 417.32 417.72 417.34C413.67 417.42 409.64 418 405.7 419.05C405.43 419.12 405.18 419.19 404.92 419.26C404.21 419.46 403.49 419.68 402.79 419.91L395.03 422.47C390.47 423.97 386 425.68 381.6 427.56C370.58 432.26 360.03 438.07 349.91 444.57C347.23 446.29 344.29 447.7 341.12 448.75C321 455.39 299.31 444.6 292.45 424.61C285.53 404.48 296.5 382.2 316.67 375.4C319.98 374.29 323.33 373.65 326.65 373.45C338.58 372.71 350.43 371.05 362.03 368.25C366.82 367.1 371.57 365.76 376.26 364.21L383.61 361.78C384.32 361.55 385.02 361.29 385.71 361.03C385.97 360.93 386.21 360.84 386.47 360.74C390.26 359.23 393.84 357.3 397.15 354.96C398.02 354.34 398.87 353.7 399.7 353.02C402.96 350.4 405.89 347.39 408.45 344.01L415.28 334.99C433.17 311.3 460.89 297.06 490.57 296.29L490.53 296.28Z" fill="#FDF9F0"/>
<path d="M362 368.25C366.79 367.1 371.54 365.76 376.23 364.21L376.42 364.15L395.61 422.28L395.01 422.48C390.45 423.98 385.98 425.69 381.58 427.57L362 368.26V368.25Z" fill="#EC5E3A"/>
<path d="M399.67 353.02L420.92 417.39C419.85 417.33 418.78 417.33 417.72 417.35C413.67 417.43 409.64 418.01 405.7 419.06L386.45 360.75C390.24 359.24 393.82 357.31 397.13 354.97C398 354.35 398.85 353.71 399.68 353.03L399.67 353.02Z" fill="#EC5E3A"/>
<path d="M1074.44 396.23L976.74 432.6C971.87 434.42 966.4 432.82 963.25 428.67L935.39 391.98C932.25 387.85 932.18 382.14 935.24 377.94L996.51 293.59C1015.47 267.48 1045.3 251.43 1077.53 250L1089.82 249.45C1094.42 249.25 1098.92 248.47 1103.27 247.16C1104.39 246.84 1105.49 246.47 1106.58 246.07C1110.71 244.55 1114.65 242.54 1118.34 240.07C1118.59 239.91 1118.83 239.75 1119.07 239.57C1119.73 239.11 1120.39 238.64 1121.04 238.15L1128.12 232.78C1132.27 229.63 1136.27 226.29 1140.13 222.81C1149.8 214.09 1158.59 204.4 1166.7 194.15C1168.85 191.44 1171.38 188.95 1174.26 186.75C1192.6 172.82 1218.7 176.26 1232.81 194.39C1247.03 212.64 1243.62 239.42 1225.28 253.52C1222.27 255.83 1219.06 257.67 1215.71 259.05C1203.7 264.02 1192.11 269.91 1181.18 276.87C1176.66 279.74 1172.26 282.8 1167.98 286.05L1161.28 291.14C1160.63 291.63 1160 292.14 1159.38 292.65C1159.15 292.84 1158.93 293.02 1158.71 293.22C1155.34 296.11 1152.35 299.36 1149.78 302.93C1149.1 303.87 1148.45 304.83 1147.84 305.82C1145.41 309.66 1143.46 313.8 1142.03 318.17L1138.2 329.85C1128.16 360.51 1104.7 384.94 1074.46 396.2L1074.44 396.23Z" fill="#FDF9F0"/>
<path d="M1181.17 276.89C1176.65 279.76 1172.25 282.82 1167.97 286.07L1167.8 286.2L1127.56 233.21L1128.11 232.8C1132.26 229.65 1136.26 226.31 1140.12 222.83L1181.17 276.89Z" fill="#EC5E3A"/>
<path d="M1147.83 305.85L1103.28 247.18C1104.4 246.86 1105.5 246.49 1106.59 246.09C1110.72 244.57 1114.66 242.56 1118.35 240.09L1158.71 293.24C1155.34 296.13 1152.35 299.38 1149.78 302.95C1149.1 303.89 1148.45 304.85 1147.84 305.84L1147.83 305.85Z" fill="#EC5E3A"/>
<path d="M820.26 330.11C826.203 330.11 831.02 325.293 831.02 319.35C831.02 313.407 826.203 308.59 820.26 308.59C814.317 308.59 809.5 313.407 809.5 319.35C809.5 325.293 814.317 330.11 820.26 330.11Z" fill="#0D386C"/>
<path d="M843.51 353.35C849.453 353.35 854.27 348.533 854.27 342.59C854.27 336.647 849.453 331.83 843.51 331.83C837.567 331.83 832.75 336.647 832.75 342.59C832.75 348.533 837.567 353.35 843.51 353.35Z" fill="#0D386C"/>
<path d="M859.2 314.41C865.143 314.41 869.96 309.593 869.96 303.65C869.96 297.707 865.143 292.89 859.2 292.89C853.258 292.89 848.44 297.707 848.44 303.65C848.44 309.593 853.258 314.41 859.2 314.41Z" fill="#0D386C"/>
<path fill-rule="evenodd" clip-rule="evenodd" d="M912.233 184.403C912.695 184.101 913.315 184.231 913.617 184.693L919.337 193.443C919.64 193.905 919.51 194.525 919.048 194.827C918.585 195.129 917.966 194.999 917.663 194.537L911.943 185.787C911.641 185.325 911.771 184.705 912.233 184.403Z" fill="#707070"/>
<path d="M869.62 110.17V105.56L861.56 106.58L860.61 93.15C860.32 89.07 861.75 85.06 864.56 82.08C867.17 79.31 871.13 78.25 874.78 79.35C879.52 80.78 882.51 85.45 881.82 90.36L879.36 108.03L880.89 135.8L869.61 110.17H869.62Z" fill="#F56E6F"/>
<path d="M860.88 96.93L859.69 94.82C859.41 94.33 859.42 93.73 859.71 93.25L860.58 91.79L860.88 96.93Z" fill="#471B1C"/>
<path d="M882.04 82.76C881.18 81.04 879.87 79.64 878.29 78.66C876.72 77.69 874.881 77.15 872.961 77.15C871.351 77.15 869.761 77.53 868.331 78.26L866.18 79.36C863.54 80.71 861.541 83.05 860.591 85.86C860.201 87.03 860.011 88.25 860.011 89.47C860.011 89.96 860.04 90.45 860.1 90.93L860.88 96.93L859.87 102.03C859.18 105.54 861.86 108.81 865.44 108.81H873.221C876.141 108.81 878.59 106.58 878.87 103.67L879.471 97.39L878.48 92.06C878.41 91.7 878.521 91.33 878.761 91.06C879.001 90.78 879.321 90.66 879.641 90.66C880.151 90.66 880.65 90.98 880.8 91.55C880.86 91.79 880.901 92.04 880.901 92.29C880.901 92.77 880.78 93.24 880.54 93.67L879.88 94.88L880.35 100.99L882.911 91.75C883.741 88.75 883.43 85.55 882.04 82.76ZM868.521 93.17L866.831 95.91L866.35 93.41L861.69 96.41L861.031 93.67C860.741 92.47 860.93 91.19 861.55 90.12L862.49 88.48C863.11 87.4 863.33 86.13 863.11 84.91L863.451 85.31L872.73 86.06C874.49 86.2 876.24 85.66 877.62 84.54C876.69 85.7 876.19 87.13 876.19 88.59C876.19 88.95 876.221 89.31 876.281 89.67L877.05 94.29C877.22 95.31 876.22 96.13 875.25 95.76L868.521 93.17Z" fill="#793625"/>
<path d="M869.58 96.96L869.13 97.51L868.3 98.53C867.6 99.4 866.29 99.41 865.57 98.56L865.07 97.97L864.54 97.34L869.58 96.96Z" fill="#471B1C"/>
<path d="M864.54 97.35L866.8 96.49L869.58 96.96L864.54 97.35Z" fill="#A04D4E"/>
<path d="M869.58 96.96L869.13 97.51L868.39 97.73C867.44 98.01 866.45 98.1 865.48 98.01L865.07 97.97L864.54 97.34L869.58 96.96Z" fill="white"/>
<path d="M863.34 91.95C863.782 91.95 864.14 91.5918 864.14 91.15C864.14 90.7082 863.782 90.35 863.34 90.35C862.898 90.35 862.54 90.7082 862.54 91.15C862.54 91.5918 862.898 91.95 863.34 91.95Z" fill="black"/>
<path d="M872.37 91.95C872.812 91.95 873.17 91.5918 873.17 91.15C873.17 90.7082 872.812 90.35 872.37 90.35C871.928 90.35 871.57 90.7082 871.57 91.15C871.57 91.5918 871.928 91.95 872.37 91.95Z" fill="black"/>
<path d="M862.12 90.34L864.45 89.91L864.28 88.91L863.17 89.78L862.54 89.63L862.12 90.34Z" fill="black"/>
<path d="M873.69 90.34L871.37 89.91L871.53 88.91L872.64 89.78L873.28 89.63L873.69 90.34Z" fill="black"/>
<path d="M860.58 146.73L864.67 167.94L851.63 179.28L845.6 175.45L860.58 146.73Z" fill="#F4AABD"/>
<path d="M865.66 173.05H865.65L864.67 167.94L865.66 173.05Z" fill="#A04D4E"/>
<path d="M908.24 149.41L911.48 140.17L933.2 149.41H908.24Z" fill="#F4AABD"/>
<path d="M903.276 133.18L891.456 135.572L892.031 138.415L903.852 136.023L903.276 133.18Z" fill="#F4AABD"/>
<path fill-rule="evenodd" clip-rule="evenodd" d="M939.817 308.804L919.357 312.484L919.003 310.516L939.463 306.836L939.817 308.804Z" fill="#707070"/>
</g>
</g>
<defs>
<clipPath id="clip0_1528_87942">
<rect width="1335" height="464" fill="white"/>
</clipPath>
</defs>
</svg>
