<svg width="1335" height="464" viewBox="0 0 1335 464" fill="none" xmlns="http://www.w3.org/2000/svg">
<g clip-path="url(#clip0_1528_85886)">
<rect width="1335" height="464" fill="#FFECC1"/>
<mask id="mask0_1528_85886" style="mask-type:luminance" maskUnits="userSpaceOnUse" x="0" y="0" width="1335" height="464">
<path d="M1335 0H0V464H1335V0Z" fill="white"/>
</mask>
<g mask="url(#mask0_1528_85886)">
<path d="M1335 0H0.000732422V464H1335V0Z" fill="#FFECC1"/>
<path d="M206.22 271.27L336.51 227.31C383.2 211.56 434.66 219.94 473.94 249.7L497.9 267.85C520.51 284.99 550.63 288.55 576.62 277.17C633.39 252.31 699.77 273.99 730.92 327.56L809.8 463.18H206.22V271.26V271.27Z" fill="#FFD985"/>
<path d="M16.18 427.1L84.37 237.57C85.83 233.51 88.97 230.28 92.98 228.69L155.4 204.07C157.23 203.35 158.89 202.28 160.31 200.92L203.48 159.31C208.96 154.03 217.52 153.69 223.4 158.51L339.53 253.79C341.59 255.48 344.07 256.59 346.7 257.01L432.2 270.51C435.26 270.99 438.1 272.41 440.32 274.58L591.23 421.42C600.88 430.81 594.23 447.17 580.77 447.17H30.29C19.9 447.17 12.66 436.87 16.18 427.09V427.1Z" fill="#C1BDB1"/>
<path d="M-16.59 433.65V399.99L238.67 389.38C238.75 389.38 238.83 389.38 238.92 389.38L501.05 399.97C501.34 399.98 501.64 399.95 501.92 399.88L636.36 365.15C636.36 365.15 570.98 340.01 570.57 263.5C570.57 262.59 571.68 262.14 572.3 262.8L623.96 318.15C623.96 318.15 592 235.81 634.73 164.2C635.23 163.36 636.51 163.68 636.58 164.65L645.33 290.78C645.33 290.78 646.99 201.37 700.45 170.86C701.16 170.45 702.04 171.05 701.93 171.87L667.49 433.65H-16.59Z" fill="#C9CE89"/>
<path d="M-25.24 341.66L226.88 280.41C264.95 271.16 304.91 273.59 341.58 287.37L475.74 337.8C499.18 346.61 524.58 348.83 549.18 344.22L688.45 318.13V480.76H-25.24V341.64V341.66Z" fill="#94B583"/>
<path d="M1370.47 261.02L1293.92 273.07L1263 298.32L1186.45 290.78L1159.39 296.96L1080.97 256.38L915.38 271.27V487.56H1392.11L1370.47 261.02Z" fill="#B7BD61"/>
<path d="M761.85 227.97L820.26 233.16C823.13 233.41 825.91 234.25 828.45 235.6L869.8 257.71C872.9 259.37 876.37 260.24 879.89 260.24H917.25C921.38 260.24 925.42 261.43 928.88 263.68L950.74 277.84C954.2 280.08 958.24 281.28 962.37 281.28H997.9C1000.4 281.28 1002.88 281.72 1005.23 282.58L1160.96 339.41C1164.97 340.87 1169.34 341.1 1173.48 340.07L1213.04 330.17C1225.07 327.16 1237.6 326.77 1249.79 329.01L1260.37 330.96C1276.78 333.98 1293.54 327.87 1304.14 314.99L1313.23 303.96C1316.24 300.3 1320.39 297.75 1325.01 296.7C1338.39 293.67 1351.13 303.84 1351.13 317.56V501.74C1351.13 513.55 1341.55 523.13 1329.74 523.13H758.74C746.89 523.13 737.3 513.49 737.35 501.64L738.56 249.18C738.62 236.66 749.37 226.87 761.84 227.98L761.85 227.97Z" fill="#C9CE89"/>
<path d="M1366.39 413.58H-32.47V504.86H1366.39V413.58Z" fill="#709D5A"/>
<mask id="mask1_1528_85886" style="mask-type:luminance" maskUnits="userSpaceOnUse" x="645" y="36" width="246" height="380">
<path d="M645.33 413.58L688.47 36.6299H706.95L890.94 415.2L645.33 413.58Z" fill="white"/>
</mask>
<g mask="url(#mask1_1528_85886)">
<path d="M645.33 413.58L688.47 36.6299H706.95L890.94 415.2L645.33 413.58Z" fill="#94B583"/>
<path d="M650.68 197.93C650.68 197.93 731.82 187.29 759.75 90.1898C787.68 -6.91015 560.23 -44.1602 560.23 -44.1602L650.68 197.93Z" fill="#709D5A"/>
</g>
<mask id="mask2_1528_85886" style="mask-type:luminance" maskUnits="userSpaceOnUse" x="947" y="8" width="171" height="408">
<path d="M1117.28 413.58L1077.1 26.68L1059.11 8.46997L947 415.2L1117.28 413.58Z" fill="white"/>
</mask>
<g mask="url(#mask2_1528_85886)">
<path d="M1117.28 413.58L1077.1 26.68L1059.11 8.46997L947 415.2L1117.28 413.58Z" fill="#C9CE89"/>
<path d="M1011.16 100.82L1116.24 212.56L1093.63 50.28L1012.58 32.46L1011.16 100.82Z" fill="#B7BD61"/>
</g>
<mask id="mask3_1528_85886" style="mask-type:luminance" maskUnits="userSpaceOnUse" x="636" y="-114" width="384" height="528">
<path d="M854.75 413.58L830.57 146.61C828.47 123.38 815.68 102.47 795.98 89.98C759.91 67.11 697.63 26.09 636.35 -21.51H666.95C666.95 -21.51 675.83 -17.25 761.35 40.04C853.72 101.92 766.69 -106.28 766.69 -106.28L775.94 -113.46C775.94 -113.46 828.16 -50.24 828.16 43.15C828.16 97 865.09 86.43 885.18 71.59L1012.07 -25.82L1019.97 -18.64C1019.97 -18.64 963.43 38.03 906.73 88.09C886.85 105.65 877.72 132.4 882.71 158.45L931.61 413.57H854.74L854.75 413.58Z" fill="white"/>
</mask>
<g mask="url(#mask3_1528_85886)">
<path d="M854.75 413.58L830.57 146.61C828.47 123.38 815.68 102.47 795.98 89.98C759.91 67.11 697.63 26.09 636.35 -21.51H666.95C666.95 -21.51 675.83 -17.25 761.35 40.04C853.72 101.92 766.69 -106.28 766.69 -106.28L775.94 -113.46C775.94 -113.46 828.16 -50.24 828.16 43.15C828.16 97 865.09 86.43 885.18 71.59L1012.07 -25.82L1019.97 -18.64C1019.97 -18.64 963.43 38.03 906.73 88.09C886.85 105.65 877.72 132.4 882.71 158.45L931.61 413.57H854.74L854.75 413.58Z" fill="#FFD985"/>
<path d="M757.09 91.51L840.89 66.57L900.8 252.74L1008.5 52.61L782.03 -18.23L723.17 35.65L757.09 91.51Z" fill="#FFCD5C"/>
</g>
<path d="M476.19 -14.1501L590.37 83.6699C614.42 104.27 646.18 113.52 677.53 109.05L683.11 108.25C731.48 101.35 769.51 63.3999 776.51 15.0499L848.24 56.1999C901.96 87.0199 969.78 77.2199 1012.58 32.4599C1062.49 -19.7401 1062.34 -102.02 1012.23 -154.03L981.35 -186.08H476.19V-14.1501Z" fill="#4C8431"/>
<path d="M590.37 83.6698C614.42 104.27 646.18 113.52 677.53 109.05L683.11 108.25C731.48 101.35 769.51 63.3998 776.51 15.0498" stroke="#2C5E19" stroke-width="2" stroke-miterlimit="10"/>
<path d="M727.24 413.57L766.7 248.85L802.17 413.57H727.24Z" fill="#121831"/>
<path d="M766.7 248.85L1077.25 313.73L1112.71 413.57H802.17L766.7 248.85Z" fill="#F76341"/>
<path d="M766.7 248.85C766.7 248.85 798.38 374.61 874.53 374.61L802.17 413.57C802.17 413.57 766.7 290.11 766.7 248.85Z" fill="#F34429"/>
<path d="M688.47 413.57L766.7 248.85L727.24 413.57H688.47Z" fill="#403A76"/>
<path d="M915.38 413.57L930.62 391.77H976.92L982.19 369.5L1049 355.66L1079.48 398.8L1176.59 413.57H915.38Z" fill="#C1BDB1"/>
<path d="M737.44 388.24V413.58H731.38V411.18C731.38 410.5 730.83 409.96 730.16 409.96C729.49 409.96 728.94 410.51 728.94 411.18V413.58H707.69C705.86 413.58 704.24 412.68 703.25 411.31C702.59 410.41 702.2 409.29 702.2 408.09C702.2 405.06 704.66 402.6 707.69 402.6H713.58C717.25 402.6 720.22 399.63 720.22 395.96V388.24H737.44Z" fill="#E1E1E1"/>
<path d="M728.93 411.3H702.19V413.57H728.93V411.3Z" fill="#1B2E44"/>
<path d="M737.44 411.3H731.38V413.57H737.44V411.3Z" fill="#1B2E44"/>
<path d="M737.83 387.93H720.03C719.439 387.93 718.96 388.409 718.96 389V392.45C718.96 393.041 719.439 393.52 720.03 393.52H737.83C738.421 393.52 738.9 393.041 738.9 392.45V389C738.9 388.409 738.421 387.93 737.83 387.93Z" fill="#1B2E44"/>
<path d="M721.95 398.78C722.436 398.78 722.83 398.386 722.83 397.9C722.83 397.414 722.436 397.02 721.95 397.02C721.464 397.02 721.07 397.414 721.07 397.9C721.07 398.386 721.464 398.78 721.95 398.78Z" fill="black"/>
<path d="M721.95 395.92C722.436 395.92 722.83 395.526 722.83 395.04C722.83 394.554 722.436 394.16 721.95 394.16C721.464 394.16 721.07 394.554 721.07 395.04C721.07 395.526 721.464 395.92 721.95 395.92Z" fill="black"/>
<path d="M720.69 401.53C721.176 401.53 721.57 401.136 721.57 400.65C721.57 400.164 721.176 399.77 720.69 399.77C720.204 399.77 719.81 400.164 719.81 400.65C719.81 401.136 720.204 401.53 720.69 401.53Z" fill="black"/>
<path d="M718.39 403.69C718.876 403.69 719.27 403.296 719.27 402.81C719.27 402.324 718.876 401.93 718.39 401.93C717.904 401.93 717.51 402.324 717.51 402.81C717.51 403.296 717.904 403.69 718.39 403.69Z" fill="black"/>
<path d="M711.71 402.6V411.3H703.24C702.58 410.4 702.19 409.28 702.19 408.08C702.19 405.05 704.65 402.59 707.68 402.59H711.71V402.6Z" fill="black"/>
<path d="M737.44 401.68V411.3H731.38V411.17C731.43 406.99 733.88 403.38 737.44 401.68Z" fill="black"/>
<path d="M756.31 388.24V413.58H750.25V411.18C750.25 410.5 749.7 409.96 749.03 409.96C748.36 409.96 747.81 410.51 747.81 411.18V413.58H726.56C724.73 413.58 723.11 412.68 722.12 411.31C721.46 410.41 721.07 409.29 721.07 408.09C721.07 405.06 723.53 402.6 726.56 402.6H732.45C736.12 402.6 739.09 399.63 739.09 395.96V388.24H756.31Z" fill="#E1E1E1"/>
<path d="M747.81 411.3H721.07V413.57H747.81V411.3Z" fill="#1B2E44"/>
<path d="M756.31 411.3H750.25V413.57H756.31V411.3Z" fill="#1B2E44"/>
<path d="M756.7 387.93H738.9C738.309 387.93 737.83 388.409 737.83 389V392.45C737.83 393.041 738.309 393.52 738.9 393.52H756.7C757.291 393.52 757.77 393.041 757.77 392.45V389C757.77 388.409 757.291 387.93 756.7 387.93Z" fill="#1B2E44"/>
<path d="M740.82 398.78C741.306 398.78 741.7 398.386 741.7 397.9C741.7 397.414 741.306 397.02 740.82 397.02C740.334 397.02 739.94 397.414 739.94 397.9C739.94 398.386 740.334 398.78 740.82 398.78Z" fill="black"/>
<path d="M740.82 395.92C741.306 395.92 741.7 395.526 741.7 395.04C741.7 394.554 741.306 394.16 740.82 394.16C740.334 394.16 739.94 394.554 739.94 395.04C739.94 395.526 740.334 395.92 740.82 395.92Z" fill="black"/>
<path d="M739.57 401.53C740.056 401.53 740.45 401.136 740.45 400.65C740.45 400.164 740.056 399.77 739.57 399.77C739.084 399.77 738.69 400.164 738.69 400.65C738.69 401.136 739.084 401.53 739.57 401.53Z" fill="black"/>
<path d="M737.26 403.69C737.746 403.69 738.14 403.296 738.14 402.81C738.14 402.324 737.746 401.93 737.26 401.93C736.774 401.93 736.38 402.324 736.38 402.81C736.38 403.296 736.774 403.69 737.26 403.69Z" fill="black"/>
<path d="M730.58 402.6V411.3H722.11C721.45 410.4 721.06 409.28 721.06 408.08C721.06 405.05 723.52 402.59 726.55 402.59H730.58V402.6Z" fill="black"/>
<path d="M756.31 401.68V411.3H750.25V411.17C750.3 406.99 752.75 403.38 756.31 401.68Z" fill="black"/>
<path d="M797.47 413.58L792.17 398.78L801.54 410.65L796.31 386.4L809.1 411.3L816.99 405.62L812.97 413.58H797.47Z" fill="#1B2E44"/>
<path d="M900.59 -5.13013L915.76 17.6299C945.24 61.8499 994.87 88.4099 1048.01 88.4099H1083.4C1104.08 88.4099 1123.44 98.5899 1135.16 115.64L1138.32 120.24C1162.16 154.9 1201.53 175.61 1243.59 175.61H1355.47V-5.13013H900.58H900.59Z" fill="#709D5A"/>
<path d="M915.76 17.6299C945.24 61.8499 994.87 88.4099 1048.01 88.4099" stroke="#2C5E19" stroke-width="2" stroke-miterlimit="10"/>
<path d="M1006.69 413.58L996.67 325.61" stroke="#1A1207" stroke-width="2" stroke-linejoin="round"/>
<path d="M1209.72 413.58L1218.88 295.6C1220.8 270.89 1208.94 247.21 1188.14 233.74C1155.89 212.86 1112.53 167.77 1112.53 76.23H1123C1123 76.23 1107.03 175.6 1217.54 224.22C1220.69 225.61 1224.14 222.99 1223.64 219.58L1204.18 88.23H1211.39L1243.66 223.99C1244.22 226.34 1247.43 226.65 1248.43 224.45L1261.26 196.08L1265.18 197.26L1254.44 240.92C1254 242.72 1256.14 244.02 1257.53 242.79C1273.57 228.54 1327.08 176 1327.08 108.73H1332.17C1332.17 108.73 1325.67 202.69 1274.43 252.81C1258.05 268.84 1249.76 291.38 1251.9 314.2L1261.26 413.6H1209.73L1209.72 413.58Z" fill="#FFCD5C"/>
<path d="M989.99 333.34C989.99 333.34 1143.5 311.4 1204.39 212.73" stroke="#1A1207" stroke-width="2" stroke-linejoin="round"/>
<path d="M1016.94 333.1L1021.39 347.28L1016.51 356.63C1015.41 358.74 1016.22 361.35 1018.34 362.45C1020.45 363.55 1023.06 362.74 1024.16 360.62L1029.41 350.56C1030.56 348.36 1030.79 345.79 1030.05 343.42L1025.93 330.27L1016.95 333.09L1016.94 333.1Z" fill="#403A76"/>
<path d="M1028.93 330.17L1036.94 342.68L1034.68 352.98C1034.17 355.31 1035.64 357.61 1037.97 358.12C1040.3 358.63 1042.6 357.16 1043.11 354.83L1045.54 343.75C1046.07 341.32 1045.62 338.79 1044.28 336.69L1036.85 325.09L1028.93 330.16V330.17Z" fill="#403A76"/>
<path d="M1052.97 323.22L1060.98 335.73L1058.72 346.03C1058.21 348.36 1059.68 350.66 1062.01 351.17C1064.34 351.68 1066.64 350.21 1067.15 347.88L1069.58 336.8C1070.11 334.37 1069.66 331.84 1068.32 329.74L1060.89 318.14L1052.97 323.21V323.22Z" fill="#FBC400"/>
<path d="M1069.98 314.12L1075.19 328.03L1070.82 337.63C1069.83 339.8 1070.79 342.36 1072.96 343.34C1075.13 344.33 1077.69 343.37 1078.67 341.2L1083.37 330.87C1084.4 328.61 1084.49 326.03 1083.61 323.71L1078.77 310.81L1069.96 314.11L1069.98 314.12Z" fill="#FFDD9F"/>
<path d="M1149.56 320.03V340.39C1144.97 340.34 1140.86 341.05 1137.19 342.26C1136.33 342.55 1135.35 342.42 1134.64 341.86C1132.87 340.47 1130.52 339.78 1128.03 340.19C1124.4 340.79 1121.53 343.83 1121.13 347.49C1121.02 348.45 1121.08 349.37 1121.27 350.25C1121.51 351.38 1121.24 352.55 1120.46 353.4C1115 359.37 1112.55 365.14 1112.55 365.14L1096.49 351.49C1117.2 333.42 1094.91 305.3 1094.91 305.3L1122.24 290.77L1135.67 320.02H1149.57L1149.56 320.03Z" fill="#121831"/>
<path d="M1055.34 410.03L1053.66 400.24C1053.02 396.51 1054.23 392.7 1056.91 390.02L1058.61 388.32C1059.36 387.57 1060.65 388.1 1060.65 389.17V393.44L1068.34 385.75L1063.62 381.03C1062.7 380.11 1063.71 378.58 1064.92 379.08L1070.47 381.36C1074.33 382.95 1076.58 387.01 1075.86 391.13L1075.01 395.99L1079.29 394.23C1080.15 393.87 1081.07 394.6 1080.93 395.53L1078.05 413.58H1056.74L1055.32 410.03H1055.34Z" fill="#FFCD5C"/>
<path d="M1054.57 397.29H1066.74C1070.49 397.29 1073.54 400.34 1073.54 404.09V406.77C1073.54 410.52 1070.49 413.57 1066.74 413.57H1044.67V407.18C1044.67 401.72 1049.1 397.28 1054.57 397.28V397.29Z" fill="#5D5DB4"/>
<path d="M1091.81 397.29H1095.1C1098.85 397.29 1101.9 400.34 1101.9 404.09V406.77C1101.9 410.52 1098.85 413.57 1095.1 413.57H1081.92V407.18C1081.92 401.72 1086.35 397.28 1091.82 397.28L1091.81 397.29Z" fill="#5D5DB4"/>
<path d="M1056.44 406.75L1034.72 401.66C1032.55 401.15 1030.48 402.8 1030.48 405.02V410.11C1030.48 412.02 1032.03 413.57 1033.94 413.57H1055.66C1058.23 413.57 1059.9 410.86 1058.75 408.56C1058.29 407.65 1057.45 406.98 1056.45 406.75H1056.44Z" fill="#1A1207"/>
<path d="M1072.67 409.39L1090.21 413.5C1091.96 413.91 1093.64 412.58 1093.64 410.78V406.67C1093.64 405.13 1092.39 403.88 1090.85 403.88H1073.31C1071.23 403.88 1069.88 406.07 1070.82 407.93C1071.19 408.67 1071.87 409.2 1072.68 409.39H1072.67Z" fill="#403A76"/>
<path d="M1078.45 410.3L1067.56 408.02C1066.45 407.79 1065.42 408.63 1065.42 409.76V411.44C1065.42 412.61 1066.37 413.57 1067.55 413.57H1078.12C1079.03 413.57 1079.78 412.83 1079.78 411.91C1079.78 411.13 1079.23 410.45 1078.46 410.29L1078.45 410.3Z" fill="#1A1207"/>
<path d="M1045.99 378.22C1046.98 378.22 1047.79 377.414 1047.79 376.42C1047.79 375.426 1046.98 374.62 1045.99 374.62C1045 374.62 1044.19 375.426 1044.19 376.42C1044.19 377.414 1045 378.22 1045.99 378.22Z" fill="#FF5A23"/>
<path d="M1084.22 352.21C1085.57 352.21 1086.66 351.117 1086.66 349.77C1086.66 348.422 1085.57 347.33 1084.22 347.33C1082.87 347.33 1081.78 348.422 1081.78 349.77C1081.78 351.117 1082.87 352.21 1084.22 352.21Z" fill="#FF5A23"/>
<path d="M1045.99 273.07C1046.98 273.07 1047.79 272.264 1047.79 271.27C1047.79 270.276 1046.98 269.47 1045.99 269.47C1045 269.47 1044.19 270.276 1044.19 271.27C1044.19 272.264 1045 273.07 1045.99 273.07Z" fill="#FF5A23"/>
<path d="M1077.1 233.55C1078.41 233.55 1079.47 232.489 1079.47 231.18C1079.47 229.871 1078.41 228.81 1077.1 228.81C1075.79 228.81 1074.73 229.871 1074.73 231.18C1074.73 232.489 1075.79 233.55 1077.1 233.55Z" fill="#FF5A23"/>
<path d="M1077.1 298.32C1077.85 298.32 1078.46 297.711 1078.46 296.96C1078.46 296.209 1077.85 295.6 1077.1 295.6C1076.35 295.6 1075.74 296.209 1075.74 296.96C1075.74 297.711 1076.35 298.32 1077.1 298.32Z" fill="#FF5A23"/>
<path d="M849.82 266.22C849.82 315.86 869.54 363.46 904.64 398.56L911.57 405.49" stroke="#111111" stroke-width="2" stroke-miterlimit="10"/>
<path d="M617.69 395.04C665.96 395.04 709.95 367.34 730.8 323.8L766.7 248.85" stroke="#111111" stroke-width="2" stroke-miterlimit="10"/>
<path d="M1149.56 415.2L1155.47 380.56C1157.08 371.12 1166.48 365.12 1175.72 367.64C1184.47 370.02 1189.56 379.11 1187.04 387.81L1183.02 401.68C1183.02 401.68 1227.09 359.22 1289.12 386.4L1209.74 413.58L1149.57 415.2H1149.56Z" fill="#4C8431"/>
<path d="M1053.5 473.95L877.49 434.43C869.31 432.59 863.81 442.59 869.74 448.52L900.59 479.37H538.49C575.82 437.51 629.24 413.58 685.33 413.58H992.38C997.16 413.58 1001.49 416.4 1003.41 420.77C1005.4 425.27 1009.92 428.11 1014.83 427.96L1038.01 427.21C1041.55 427.1 1044.64 429.6 1045.25 433.09C1045.7 435.65 1047.51 437.76 1049.97 438.6L1153.74 473.95H1053.5Z" fill="#4C8431"/>
<path d="M9.53674e-06 387.93L84.22 384.62L193.8 440.51L463.77 410.78L595.8 479.37H-25.24L9.53674e-06 387.93Z" fill="#C1BDB1"/>
<path d="M625.09 382.75V413.58" stroke="#111111" stroke-width="2" stroke-miterlimit="10"/>
<path d="M903.84 392.28V413.58" stroke="#111111" stroke-width="2" stroke-miterlimit="10"/>
<path d="M1164.79 414.79L1171.44 376.17" stroke="#2C5E19" stroke-width="2" stroke-miterlimit="10"/>
<path d="M1186.74 414.79C1186.74 414.79 1219.33 384.15 1264.55 385.48" stroke="#2C5E19" stroke-width="2" stroke-miterlimit="10"/>
<path d="M554.91 413.58H876.81" stroke="#2C5E19" stroke-width="2" stroke-miterlimit="10"/>
<path d="M252.16 434.08L114.62 449.99L84.22 384.62L252.16 434.08Z" fill="#6F6855"/>
<path d="M953.46 391.77H993.86" stroke="#6F6855" stroke-width="2" stroke-miterlimit="10"/>
<path d="M356.04 422.64L62.75 455.64" stroke="#6F6855" stroke-width="2" stroke-miterlimit="10"/>
</g>
</g>
<defs>
<clipPath id="clip0_1528_85886">
<rect width="1335" height="464" fill="white"/>
</clipPath>
</defs>
</svg>
