<svg width="1335" height="464" viewBox="0 0 1335 464" fill="none" xmlns="http://www.w3.org/2000/svg">
<g clip-path="url(#clip0_1528_84298)">
<rect width="1335" height="464" fill="#A92A0A"/>
<mask id="mask0_1528_84298" style="mask-type:luminance" maskUnits="userSpaceOnUse" x="0" y="0" width="1335" height="464">
<path d="M1335 0H0V464H1335V0Z" fill="white"/>
</mask>
<g mask="url(#mask0_1528_84298)">
<path d="M1335 0H0V464H1335V0Z" fill="#F25B2F"/>
<path fill-rule="evenodd" clip-rule="evenodd" d="M644.25 354.76V403.35H642.25V354.76H644.25Z" fill="#0D386C"/>
<path d="M683.93 330.32H602.57V370.71H683.93V330.32Z" fill="#FDBD00"/>
<path d="M648.97 436.08L627.47 426.02L637.53 411.46H648.97V436.08Z" fill="#FDBD00"/>
<path d="M643.25 417.37C650.993 417.37 657.27 411.093 657.27 403.35C657.27 395.607 650.993 389.33 643.25 389.33C635.507 389.33 629.23 395.607 629.23 403.35C629.23 411.093 635.507 417.37 643.25 417.37Z" fill="#D23A13"/>
<mask id="mask1_1528_84298" style="mask-type:luminance" maskUnits="userSpaceOnUse" x="517" y="86" width="253" height="252">
<path d="M643.25 338C712.755 338 769.1 281.655 769.1 212.15C769.1 142.645 712.755 86.3 643.25 86.3C573.745 86.3 517.4 142.645 517.4 212.15C517.4 281.655 573.745 338 643.25 338Z" fill="white"/>
</mask>
<g mask="url(#mask1_1528_84298)">
<path d="M643.25 338C712.755 338 769.1 281.655 769.1 212.15C769.1 142.645 712.755 86.3 643.25 86.3C573.745 86.3 517.4 142.645 517.4 212.15C517.4 281.655 573.745 338 643.25 338Z" fill="#F6DC9D"/>
<path fill-rule="evenodd" clip-rule="evenodd" d="M797.34 103.45H489.17V101.45H797.34V103.45Z" fill="#F25B2F"/>
<path fill-rule="evenodd" clip-rule="evenodd" d="M797.34 123.39H489.17V121.39H797.34V123.39Z" fill="#F25B2F"/>
<path fill-rule="evenodd" clip-rule="evenodd" d="M797.34 143.34H489.17V141.34H797.34V143.34Z" fill="#F25B2F"/>
<path fill-rule="evenodd" clip-rule="evenodd" d="M797.34 163.29H489.17V161.29H797.34V163.29Z" fill="#F25B2F"/>
<path fill-rule="evenodd" clip-rule="evenodd" d="M797.34 183.23H489.17V181.23H797.34V183.23Z" fill="#F25B2F"/>
<path fill-rule="evenodd" clip-rule="evenodd" d="M797.34 203.18H489.17V201.18H797.34V203.18Z" fill="#F25B2F"/>
<path fill-rule="evenodd" clip-rule="evenodd" d="M797.34 223.12H489.17V221.12H797.34V223.12Z" fill="#F25B2F"/>
<path fill-rule="evenodd" clip-rule="evenodd" d="M797.34 243.07H489.17V241.07H797.34V243.07Z" fill="#F25B2F"/>
<path fill-rule="evenodd" clip-rule="evenodd" d="M797.34 263.02H489.17V261.02H797.34V263.02Z" fill="#F25B2F"/>
<path fill-rule="evenodd" clip-rule="evenodd" d="M797.34 282.96H489.17V280.96H797.34V282.96Z" fill="#F25B2F"/>
<path fill-rule="evenodd" clip-rule="evenodd" d="M797.34 302.91H489.17V300.91H797.34V302.91Z" fill="#F25B2F"/>
<path fill-rule="evenodd" clip-rule="evenodd" d="M797.34 322.86H489.17V320.86H797.34V322.86Z" fill="#F25B2F"/>
</g>
<path fill-rule="evenodd" clip-rule="evenodd" d="M1143.66 359.84V434.73H1141.66V359.84H1143.66Z" fill="#FDF9F0"/>
<path d="M1197.05 183.58H1088.28V231.04H1197.05V183.58Z" fill="#F6DC9D"/>
<path d="M1142.66 403.08C1230.04 403.08 1300.87 361.926 1300.87 311.16C1300.87 260.394 1230.04 219.24 1142.66 219.24C1055.28 219.24 984.45 260.394 984.45 311.16C984.45 361.926 1055.28 403.08 1142.66 403.08Z" fill="#D23A13"/>
<path d="M1142.66 376.37C1230.04 376.37 1300.87 347.175 1300.87 311.16C1300.87 275.146 1230.04 245.95 1142.66 245.95C1055.28 245.95 984.45 275.146 984.45 311.16C984.45 347.175 1055.28 376.37 1142.66 376.37Z" fill="#F25B2F"/>
<path d="M1142.66 349.75C1230.04 349.75 1300.87 332.473 1300.87 311.16C1300.87 289.847 1230.04 272.57 1142.66 272.57C1055.28 272.57 984.45 289.847 984.45 311.16C984.45 332.473 1055.28 349.75 1142.66 349.75Z" fill="#FDBD00"/>
<path d="M1142.66 331.22C1230.04 331.22 1300.87 322.239 1300.87 311.16C1300.87 300.081 1230.04 291.1 1142.66 291.1C1055.28 291.1 984.45 300.081 984.45 311.16C984.45 322.239 1055.28 331.22 1142.66 331.22Z" fill="#F25B2F"/>
<path d="M1142.66 316.17C1230.04 316.17 1300.87 313.927 1300.87 311.16C1300.87 308.393 1230.04 306.15 1142.66 306.15C1055.28 306.15 984.45 308.393 984.45 311.16C984.45 313.927 1055.28 316.17 1142.66 316.17Z" fill="#FDBD00"/>
<path d="M1142.66 455.49C1154.13 455.49 1163.42 446.195 1163.42 434.73C1163.42 423.265 1154.13 413.97 1142.66 413.97C1131.19 413.97 1121.9 423.265 1121.9 434.73C1121.9 446.195 1131.19 455.49 1142.66 455.49Z" fill="#121831"/>
<path d="M110.03 432.94L188.67 280.68L267.3 432.94H110.03Z" fill="#D23A13"/>
<path d="M267.3 100.68L188.67 252.94L110.03 100.68H267.3Z" fill="#D23A13"/>
<path d="M260.49 174.31H116.84C99.1778 174.31 84.8599 188.628 84.8599 206.29V349.94C84.8599 367.602 99.1778 381.92 116.84 381.92H260.49C278.152 381.92 292.47 367.602 292.47 349.94V206.29C292.47 188.628 278.152 174.31 260.49 174.31Z" fill="#FDBD00"/>
<path fill-rule="evenodd" clip-rule="evenodd" d="M107.1 190.26C107.652 190.26 108.1 190.708 108.1 191.26V364.96C108.1 365.512 107.652 365.96 107.1 365.96C106.548 365.96 106.1 365.512 106.1 364.96V191.26C106.1 190.708 106.548 190.26 107.1 190.26Z" fill="#F25B2F"/>
<path fill-rule="evenodd" clip-rule="evenodd" d="M147.89 190.26C148.442 190.26 148.89 190.708 148.89 191.26V364.96C148.89 365.512 148.442 365.96 147.89 365.96C147.337 365.96 146.89 365.512 146.89 364.96V191.26C146.89 190.708 147.337 190.26 147.89 190.26Z" fill="#F25B2F"/>
<path fill-rule="evenodd" clip-rule="evenodd" d="M188.67 190.26C189.222 190.26 189.67 190.708 189.67 191.26V364.96C189.67 365.512 189.222 365.96 188.67 365.96C188.118 365.96 187.67 365.512 187.67 364.96V191.26C187.67 190.708 188.118 190.26 188.67 190.26Z" fill="#F25B2F"/>
<path fill-rule="evenodd" clip-rule="evenodd" d="M229.45 190.26C230.002 190.26 230.45 190.708 230.45 191.26V364.96C230.45 365.512 230.002 365.96 229.45 365.96C228.897 365.96 228.45 365.512 228.45 364.96V191.26C228.45 190.708 228.897 190.26 229.45 190.26Z" fill="#F25B2F"/>
<path fill-rule="evenodd" clip-rule="evenodd" d="M270.23 190.26C270.782 190.26 271.23 190.708 271.23 191.26V364.96C271.23 365.512 270.782 365.96 270.23 365.96C269.678 365.96 269.23 365.512 269.23 364.96V191.26C269.23 190.708 269.678 190.26 270.23 190.26Z" fill="#F25B2F"/>
<path d="M878.87 366.48L882.11 379.42L891.39 369.83L887.73 382.67L900.56 379L890.97 388.28L903.92 391.52L890.97 394.76L900.56 404.04L887.73 400.37L891.39 413.21L882.11 403.62L878.87 416.56L875.63 403.62L866.35 413.21L870.02 400.37L857.18 404.04L866.78 394.76L853.83 391.52L866.78 388.28L857.18 379L870.02 382.67L866.35 369.83L875.63 379.42L878.87 366.48Z" fill="#FDF9F0"/>
<path d="M902.14 104.34H877.96V204.46H902.14V104.34Z" fill="#121831"/>
<path d="M1279.09 421.74C1285.89 421.74 1291.4 416.229 1291.4 409.43C1291.4 402.631 1285.89 397.12 1279.09 397.12C1272.29 397.12 1266.78 402.631 1266.78 409.43C1266.78 416.229 1272.29 421.74 1279.09 421.74Z" fill="#FDBD00"/>
<path d="M65.8699 86.3C76.3578 86.3 84.8599 77.7979 84.8599 67.31C84.8599 56.8221 76.3578 48.32 65.8699 48.32C55.382 48.32 46.8799 56.8221 46.8799 67.31C46.8799 77.7979 55.382 86.3 65.8699 86.3Z" fill="#FDBD00"/>
<path d="M384.1 414.69C390.54 414.69 395.76 409.47 395.76 403.03C395.76 396.59 390.54 391.37 384.1 391.37C377.66 391.37 372.44 396.59 372.44 403.03C372.44 409.47 377.66 414.69 384.1 414.69Z" fill="#F6DC9D"/>
<path d="M890.05 193.92C911.876 193.92 929.57 176.226 929.57 154.4C929.57 132.574 911.876 114.88 890.05 114.88C868.223 114.88 850.53 132.574 850.53 154.4C850.53 176.226 868.223 193.92 890.05 193.92Z" fill="#D23A13"/>
<path d="M890.05 275.23C911.876 275.23 929.57 257.536 929.57 235.71C929.57 213.884 911.876 196.19 890.05 196.19C868.223 196.19 850.53 213.884 850.53 235.71C850.53 257.536 868.223 275.23 890.05 275.23Z" fill="#D23A13"/>
<path d="M428.958 315.674L410.042 296.759L391.127 315.674L410.042 334.59L428.958 315.674Z" fill="#121831"/>
<path d="M419.04 270.76V252.75H401.03V270.76H419.04Z" fill="#121831"/>
<path d="M434.61 266.54H385.47V315.68H434.61V266.54Z" fill="#FDBD00"/>
<path d="M419.04 291.105C419.04 286.132 415.008 282.1 410.035 282.1C405.061 282.1 401.03 286.132 401.03 291.105C401.03 296.078 405.061 300.11 410.035 300.11C415.008 300.11 419.04 296.078 419.04 291.105Z" fill="#F25B2F"/>
<path fill-rule="evenodd" clip-rule="evenodd" d="M189.67 -18.33V100.68H187.67V-18.33H189.67Z" fill="#0D386C"/>
<path fill-rule="evenodd" clip-rule="evenodd" d="M411.04 -22.55V252.76H409.04V-22.55H411.04Z" fill="#FDF9F0"/>
<path fill-rule="evenodd" clip-rule="evenodd" d="M644.25 -15.62V86.3H642.25V-15.62H644.25Z" fill="#0D386C"/>
<path fill-rule="evenodd" clip-rule="evenodd" d="M891.05 -15.62V104.34H889.05V-15.62H891.05Z" fill="#0D386C"/>
<path fill-rule="evenodd" clip-rule="evenodd" d="M1143.66 0V183.58H1141.66V0H1143.66Z" fill="#FDF9F0"/>
<path d="M325.22 50.12L327.45 59.01L333.82 52.43L331.3 61.23L340.11 58.72L333.52 65.09L342.41 67.31L333.52 69.53L340.11 75.9L331.3 73.39L333.82 82.19L327.45 75.61L325.22 84.49L323 75.61L316.63 82.19L319.15 73.39L310.34 75.9L316.92 69.53L308.04 67.31L316.92 65.09L310.34 58.72L319.15 61.23L316.63 52.43L323 59.01L325.22 50.12Z" fill="#F6DC9D"/>
<path d="M1222.51 74.6L1224.74 83.49L1231.11 76.91L1228.59 85.71L1237.4 83.2L1230.81 89.56L1239.7 91.79L1230.81 94.01L1237.4 100.38L1228.59 97.86L1231.11 106.67L1224.74 100.09L1222.51 108.97L1220.29 100.09L1213.92 106.67L1216.44 97.86L1207.63 100.38L1214.21 94.01L1205.33 91.79L1214.21 89.56L1207.63 83.2L1216.44 85.71L1213.92 76.91L1220.29 83.49L1222.51 74.6Z" fill="#F6DC9D"/>
</g>
<g clip-path="url(#clip1_1528_84298)">
<mask id="mask2_1528_84298" style="mask-type:luminance" maskUnits="userSpaceOnUse" x="0" y="0" width="1335" height="464">
<path d="M1335 0H0V464H1335V0Z" fill="white"/>
</mask>
<g mask="url(#mask2_1528_84298)">
<path d="M1335 0H0V464H1335V0Z" fill="#A92A0A"/>
<path d="M643.25 403.35V354.76" stroke="#0D386C" stroke-width="2" stroke-miterlimit="10"/>
<path d="M683.93 330.32H602.57V370.71H683.93V330.32Z" fill="#FDBD00"/>
<path d="M648.97 436.08L627.47 426.02L637.53 411.46H648.97V436.08Z" fill="#FDBD00"/>
<path d="M643.25 417.37C650.993 417.37 657.27 411.093 657.27 403.35C657.27 395.607 650.993 389.33 643.25 389.33C635.507 389.33 629.23 395.607 629.23 403.35C629.23 411.093 635.507 417.37 643.25 417.37Z" fill="#F2462F"/>
<mask id="mask3_1528_84298" style="mask-type:luminance" maskUnits="userSpaceOnUse" x="517" y="86" width="253" height="252">
<path d="M643.25 338C712.755 338 769.1 281.655 769.1 212.15C769.1 142.645 712.755 86.3 643.25 86.3C573.745 86.3 517.4 142.645 517.4 212.15C517.4 281.655 573.745 338 643.25 338Z" fill="white"/>
</mask>
<g mask="url(#mask3_1528_84298)">
<path d="M643.25 338C712.755 338 769.1 281.655 769.1 212.15C769.1 142.645 712.755 86.3 643.25 86.3C573.745 86.3 517.4 142.645 517.4 212.15C517.4 281.655 573.745 338 643.25 338Z" fill="#F2462F"/>
<path d="M489.17 102.45H797.34" stroke="#9E2211" stroke-width="2" stroke-miterlimit="10"/>
<path d="M489.17 122.39H797.34" stroke="#9E2211" stroke-width="2" stroke-miterlimit="10"/>
<path d="M489.17 142.34H797.34" stroke="#9E2211" stroke-width="2" stroke-miterlimit="10"/>
<path d="M489.17 162.29H797.34" stroke="#9E2211" stroke-width="2" stroke-miterlimit="10"/>
<path d="M489.17 182.23H797.34" stroke="#9E2211" stroke-width="2" stroke-miterlimit="10"/>
<path d="M489.17 202.18H797.34" stroke="#9E2211" stroke-width="2" stroke-miterlimit="10"/>
<path d="M489.17 222.12H797.34" stroke="#9E2211" stroke-width="2" stroke-miterlimit="10"/>
<path d="M489.17 242.07H797.34" stroke="#9E2211" stroke-width="2" stroke-miterlimit="10"/>
<path d="M489.17 262.02H797.34" stroke="#9E2211" stroke-width="2" stroke-miterlimit="10"/>
<path d="M489.17 281.96H797.34" stroke="#9E2211" stroke-width="2" stroke-miterlimit="10"/>
<path d="M489.17 301.91H797.34" stroke="#9E2211" stroke-width="2" stroke-miterlimit="10"/>
<path d="M489.17 321.86H797.34" stroke="#9E2211" stroke-width="2" stroke-miterlimit="10"/>
</g>
<path d="M1142.66 434.73V359.84" stroke="#FDF9F0" stroke-width="2" stroke-miterlimit="10"/>
<path d="M1197.05 183.58H1088.28V231.04H1197.05V183.58Z" fill="#F6DC9D"/>
<path d="M1142.66 403.08C1230.04 403.08 1300.87 361.926 1300.87 311.16C1300.87 260.394 1230.04 219.24 1142.66 219.24C1055.28 219.24 984.45 260.394 984.45 311.16C984.45 361.926 1055.28 403.08 1142.66 403.08Z" fill="#F2462F"/>
<path d="M1142.66 376.37C1230.04 376.37 1300.87 347.175 1300.87 311.16C1300.87 275.146 1230.04 245.95 1142.66 245.95C1055.28 245.95 984.45 275.146 984.45 311.16C984.45 347.175 1055.28 376.37 1142.66 376.37Z" fill="#C33623"/>
<path d="M1142.66 349.75C1230.04 349.75 1300.87 332.473 1300.87 311.16C1300.87 289.847 1230.04 272.57 1142.66 272.57C1055.28 272.57 984.45 289.847 984.45 311.16C984.45 332.473 1055.28 349.75 1142.66 349.75Z" fill="#F2462F"/>
<path d="M1142.66 331.22C1230.04 331.22 1300.87 322.239 1300.87 311.16C1300.87 300.081 1230.04 291.1 1142.66 291.1C1055.28 291.1 984.45 300.081 984.45 311.16C984.45 322.239 1055.28 331.22 1142.66 331.22Z" fill="#C33623"/>
<path d="M1142.66 316.17C1230.04 316.17 1300.87 313.927 1300.87 311.16C1300.87 308.393 1230.04 306.15 1142.66 306.15C1055.28 306.15 984.45 308.393 984.45 311.16C984.45 313.927 1055.28 316.17 1142.66 316.17Z" fill="#F2462F"/>
<path d="M1142.66 455.49C1154.13 455.49 1163.42 446.195 1163.42 434.73C1163.42 423.265 1154.13 413.97 1142.66 413.97C1131.19 413.97 1121.9 423.265 1121.9 434.73C1121.9 446.195 1131.19 455.49 1142.66 455.49Z" fill="#121831"/>
<path d="M110.03 432.94L188.67 280.68L267.3 432.94H110.03Z" fill="#C33623"/>
<path d="M267.3 100.68L188.67 252.94L110.03 100.68H267.3Z" fill="#C33623"/>
<path d="M260.49 174.31H116.84C99.1778 174.31 84.8599 188.628 84.8599 206.29V349.94C84.8599 367.602 99.1778 381.92 116.84 381.92H260.49C278.152 381.92 292.47 367.602 292.47 349.94V206.29C292.47 188.628 278.152 174.31 260.49 174.31Z" fill="#F2462F"/>
<path d="M107.1 191.26V364.96" stroke="#9E2211" stroke-width="2" stroke-miterlimit="10" stroke-linecap="round"/>
<path d="M147.89 191.26V364.96" stroke="#9E2211" stroke-width="2" stroke-miterlimit="10" stroke-linecap="round"/>
<path d="M188.67 191.26V364.96" stroke="#9E2211" stroke-width="2" stroke-miterlimit="10" stroke-linecap="round"/>
<path d="M229.45 191.26V364.96" stroke="#9E2211" stroke-width="2" stroke-miterlimit="10" stroke-linecap="round"/>
<path d="M270.23 191.26V364.96" stroke="#9E2211" stroke-width="2" stroke-miterlimit="10" stroke-linecap="round"/>
<path d="M878.87 366.48L882.11 379.42L891.39 369.83L887.73 382.67L900.56 379L890.97 388.28L903.92 391.52L890.97 394.76L900.56 404.04L887.73 400.37L891.39 413.21L882.11 403.62L878.87 416.56L875.63 403.62L866.35 413.21L870.02 400.37L857.18 404.04L866.78 394.76L853.83 391.52L866.78 388.28L857.18 379L870.02 382.67L866.35 369.83L875.63 379.42L878.87 366.48Z" fill="#FDF9F0"/>
<path d="M902.14 104.34H877.96V204.46H902.14V104.34Z" fill="#121831"/>
<path d="M1279.09 421.74C1285.89 421.74 1291.4 416.229 1291.4 409.43C1291.4 402.631 1285.89 397.12 1279.09 397.12C1272.29 397.12 1266.78 402.631 1266.78 409.43C1266.78 416.229 1272.29 421.74 1279.09 421.74Z" fill="#FDBD00"/>
<path d="M65.8699 86.3C76.3578 86.3 84.8599 77.7979 84.8599 67.31C84.8599 56.8221 76.3578 48.32 65.8699 48.32C55.382 48.32 46.8799 56.8221 46.8799 67.31C46.8799 77.7979 55.382 86.3 65.8699 86.3Z" fill="#F25B2F"/>
<path d="M384.1 414.69C390.54 414.69 395.76 409.47 395.76 403.03C395.76 396.59 390.54 391.37 384.1 391.37C377.66 391.37 372.44 396.59 372.44 403.03C372.44 409.47 377.66 414.69 384.1 414.69Z" fill="#F6DC9D"/>
<path d="M890.05 193.92C911.876 193.92 929.57 176.226 929.57 154.4C929.57 132.574 911.876 114.88 890.05 114.88C868.223 114.88 850.53 132.574 850.53 154.4C850.53 176.226 868.223 193.92 890.05 193.92Z" fill="#F2462F"/>
<path d="M890.05 275.23C911.876 275.23 929.57 257.536 929.57 235.71C929.57 213.884 911.876 196.19 890.05 196.19C868.223 196.19 850.53 213.884 850.53 235.71C850.53 257.536 868.223 275.23 890.05 275.23Z" fill="#F2462F"/>
<path d="M428.958 315.674L410.042 296.759L391.127 315.674L410.042 334.59L428.958 315.674Z" fill="#121831"/>
<path d="M419.04 270.76V252.75H401.03V270.76H419.04Z" fill="#121831"/>
<path d="M434.61 266.54H385.47V315.68H434.61V266.54Z" fill="#F2462F"/>
<path d="M419.04 291.105C419.04 286.132 415.008 282.1 410.035 282.1C405.061 282.1 401.03 286.132 401.03 291.105C401.03 296.078 405.061 300.11 410.035 300.11C415.008 300.11 419.04 296.078 419.04 291.105Z" fill="#D23A13"/>
<path d="M188.67 100.68V-18.33" stroke="#0D386C" stroke-width="2" stroke-miterlimit="10"/>
<path d="M410.04 252.76V-22.55" stroke="#FDF9F0" stroke-width="2" stroke-miterlimit="10"/>
<path d="M643.25 86.3V-15.62" stroke="#0D386C" stroke-width="2" stroke-miterlimit="10"/>
<path d="M890.05 104.34V-15.62" stroke="#0D386C" stroke-width="2" stroke-miterlimit="10"/>
<path d="M1142.66 183.58V0" stroke="#FDF9F0" stroke-width="2" stroke-miterlimit="10"/>
<path d="M325.22 50.12L327.45 59.01L333.82 52.43L331.3 61.23L340.11 58.72L333.52 65.09L342.41 67.31L333.52 69.53L340.11 75.9L331.3 73.39L333.82 82.19L327.45 75.61L325.22 84.49L323 75.61L316.63 82.19L319.15 73.39L310.34 75.9L316.92 69.53L308.04 67.31L316.92 65.09L310.34 58.72L319.15 61.23L316.63 52.43L323 59.01L325.22 50.12Z" fill="#F6DC9D"/>
<path d="M1222.51 74.6L1224.74 83.49L1231.11 76.91L1228.59 85.71L1237.4 83.2L1230.81 89.56L1239.7 91.79L1230.81 94.01L1237.4 100.38L1228.59 97.86L1231.11 106.67L1224.74 100.09L1222.51 108.97L1220.29 100.09L1213.92 106.67L1216.44 97.86L1207.63 100.38L1214.21 94.01L1205.33 91.79L1214.21 89.56L1207.63 83.2L1216.44 85.71L1213.92 76.91L1220.29 83.49L1222.51 74.6Z" fill="#F6DC9D"/>
</g>
</g>
</g>
<defs>
<clipPath id="clip0_1528_84298">
<rect width="1335" height="464" fill="white"/>
</clipPath>
<clipPath id="clip1_1528_84298">
<rect width="1335" height="464" fill="white"/>
</clipPath>
</defs>
</svg>
