<svg width="1335" height="464" viewBox="0 0 1335 464" fill="none" xmlns="http://www.w3.org/2000/svg">
<g clip-path="url(#clip0_1528_86102)">
<rect width="1335" height="464" fill="#B2D9EB"/>
<mask id="mask0_1528_86102" style="mask-type:luminance" maskUnits="userSpaceOnUse" x="0" y="0" width="1335" height="464">
<path d="M1335 0H0V464H1335V0Z" fill="white"/>
</mask>
<g mask="url(#mask0_1528_86102)">
<path d="M1335 -0.290039H-197.66V464.29H1335V-0.290039Z" fill="#121831"/>
<path d="M729.22 333.28L1164.81 492.08L1334.41 304.6L1033.55 62.74L729.22 333.28Z" fill="#77A2B8"/>
<path d="M1033.55 62.7399L1334.41 304.6H1463.73V-11.8301L1033.55 62.7399Z" fill="#9FC4DB"/>
<path d="M311.18 161.79L399.81 317.75H617.27L483.53 -85.37L311.18 161.79Z" fill="#9FC4DB"/>
<path d="M311.18 161.79L452.05 409.68L-197.66 363.25V-85.37L311.18 161.79Z" fill="#77A2B8"/>
<path d="M1131.45 -22.37L1033.55 62.74L1463.73 -11.83V-85.37H1143.76L1131.45 -22.37Z" fill="#B2D9EB"/>
<path d="M-197.66 363.25L452.05 409.68L547.92 492.08L729.22 333.28L1164.81 492.08H-197.66V363.25Z" fill="#B2D9EB"/>
<path d="M-197.66 -85.37L311.18 161.79L483.53 -85.37H-197.66Z" fill="#B2D9EB"/>
<path d="M617.27 317.75L452.05 409.68L399.81 317.75H617.27Z" fill="#4C6671"/>
<path d="M483.53 -85.37L1033.55 62.74L1131.45 -22.37L1143.76 -85.37H483.53Z" fill="#77A2B8"/>
<path d="M483.53 -85.37L617.27 317.75L729.22 333.28L1033.55 62.74L483.53 -85.37Z" fill="#B2D9EB"/>
<path d="M1153.62 409.11C1148.74 408.87 1144.21 410.37 1140.62 413.04C1137.63 415.26 1133.56 415.13 1130.8 412.63C1128.88 410.89 1126.49 409.63 1123.76 409.07C1116.11 407.51 1108.33 412.3 1106.29 419.84C1104.06 428.1 1109.15 436.48 1117.41 438.38C1118.9 438.72 1120.39 438.83 1121.84 438.72C1128.26 438.25 1134.68 440.44 1139.59 444.6C1143.1 447.57 1147.63 449.37 1152.59 449.37C1164.03 449.37 1173.25 439.83 1172.71 428.27C1172.24 418.04 1163.84 409.62 1153.62 409.11Z" fill="#118BC5"/>
<path d="M800.12 409.94C800.06 409.94 800.01 409.93 799.95 409.92C795.61 409.5 791.52 407.71 788.48 404.58C785.5 401.52 781.86 399.1 777.79 397.57C773.87 396.09 771.21 392.58 770.43 388.47C769.91 385.68 768.59 383 766.47 380.78C761 375.08 751.76 374.6 745.73 379.7C739.12 385.3 738.53 395.21 744.32 401.54C744.32 401.54 744.34 401.56 744.35 401.57C745.66 402.99 745.8 405.11 744.59 406.62C740.11 412.16 737.61 419.36 738.16 427.16C739.2 441.91 751.41 453.74 766.19 454.36C775.6 454.75 784.08 450.7 789.71 444.14C791.91 441.58 795.09 440.21 798.46 440.22C798.48 440.22 798.5 440.22 798.52 440.22C806.97 440.22 813.81 433.31 813.7 424.83C813.6 417.25 807.66 410.75 800.12 409.94Z" fill="#FFC033"/>
<path d="M766.99 94.23L766.47 105.99C766.35 108.61 764.93 110.99 762.68 112.32L757.49 115.41C755.49 116.6 753.06 116.83 750.87 116.04L735.54 110.48C732.8 109.49 730.85 107.04 730.48 104.15L729.27 94.57C729.05 92.85 729.42 91.11 730.3 89.63L735.04 81.66C735.7 80.55 736.63 79.62 737.75 78.95L744.04 75.21C746.49 73.75 749.54 73.75 751.98 75.21L758.27 78.95C759.38 79.61 760.31 80.54 760.98 81.66L765.9 89.93C766.67 91.23 767.05 92.73 766.98 94.24L766.99 94.23Z" fill="#22A268"/>
<path d="M562.86 428.17L551.66 424.55C549.17 423.74 547.25 421.74 546.56 419.22L544.96 413.39C544.34 411.14 544.77 408.74 546.11 406.84L555.54 393.54C557.23 391.16 560.1 389.93 562.99 390.34L572.55 391.72C574.26 391.97 575.84 392.78 577.04 394.02L583.47 400.7C584.37 401.63 585.02 402.78 585.36 404.03L587.3 411.09C588.05 413.84 587.25 416.77 585.19 418.75L579.91 423.83C578.98 424.73 577.83 425.38 576.58 425.72L567.3 428.27C565.84 428.67 564.29 428.64 562.85 428.17H562.86Z" fill="#22A268"/>
<path d="M152.74 261.25L141.54 257.63C139.05 256.82 137.13 254.82 136.44 252.3L134.84 246.47C134.22 244.22 134.65 241.82 135.99 239.92L145.42 226.62C147.11 224.24 149.98 223.01 152.87 223.42L162.43 224.8C164.14 225.05 165.72 225.86 166.92 227.1L173.35 233.78C174.25 234.71 174.9 235.86 175.24 237.11L177.18 244.17C177.93 246.92 177.13 249.85 175.07 251.83L169.79 256.91C168.86 257.81 167.71 258.46 166.46 258.8L157.18 261.35C155.72 261.75 154.17 261.72 152.73 261.25H152.74Z" fill="#443676"/>
<path d="M1210.14 133.21L1198.94 129.59C1196.45 128.78 1194.53 126.78 1193.84 124.26L1192.24 118.43C1191.62 116.18 1192.05 113.78 1193.39 111.88L1202.82 98.58C1204.51 96.2 1207.38 94.97 1210.27 95.38L1219.83 96.76C1221.54 97.01 1223.12 97.82 1224.32 99.06L1230.75 105.74C1231.65 106.67 1232.3 107.82 1232.64 109.07L1234.58 116.13C1235.33 118.88 1234.53 121.81 1232.47 123.79L1227.19 128.87C1226.26 129.77 1225.11 130.42 1223.86 130.76L1214.58 133.31C1213.12 133.71 1211.57 133.68 1210.13 133.21H1210.14Z" fill="white"/>
<path d="M1418.83 437.5L1417.75 444.08C1416.84 449.63 1412.48 453.97 1406.93 454.86L1348.94 464.12C1346.43 464.52 1343.86 464.18 1341.54 463.14L1325.38 455.89C1323.78 455.17 1322.35 454.14 1321.16 452.86L1307.33 437.95C1302.68 432.94 1302.68 425.2 1307.33 420.2L1321.16 405.29C1322.35 404.01 1323.79 402.98 1325.38 402.26L1336.5 397.27C1341.63 394.97 1347.66 396.21 1351.46 400.36L1358.84 408.41C1360.6 410.33 1362.89 411.68 1365.42 412.28L1408.99 422.71C1415.64 424.3 1419.94 430.76 1418.83 437.51V437.5Z" fill="#FF5F2F"/>
<path d="M446.12 261.47L440.77 260.59C436.26 259.85 432.73 256.31 432.01 251.79L424.48 204.64C424.15 202.6 424.43 200.51 425.28 198.62L431.18 185.48C431.76 184.18 432.6 183.01 433.64 182.05L445.76 170.8C449.83 167.02 456.12 167.02 460.19 170.8L472.31 182.05C473.35 183.02 474.19 184.19 474.77 185.48L478.83 194.52C480.7 198.69 479.69 203.59 476.32 206.68L469.78 212.68C468.22 214.11 467.12 215.97 466.63 218.03L458.15 253.45C456.86 258.86 451.61 262.35 446.12 261.45V261.47Z" fill="#118BC5"/>
<path d="M-16.44 163.19C-11.56 163.43 -7.02998 161.93 -3.43998 159.26C-0.449982 157.04 3.62002 157.17 6.38002 159.67C8.30001 161.41 10.69 162.67 13.42 163.23C21.07 164.79 28.85 160 30.89 152.46C33.12 144.2 28.03 135.82 19.77 133.92C18.28 133.58 16.79 133.47 15.34 133.58C8.92002 134.05 2.50002 131.86 -2.40998 127.7C-5.91998 124.73 -10.45 122.93 -15.41 122.93C-26.85 122.93 -36.07 132.47 -35.53 144.03C-35.06 154.26 -26.66 162.68 -16.44 163.19Z" fill="#118BC5"/>
<path d="M-26.29 323.09C-26.23 323.09 -26.18 323.1 -26.12 323.11C-21.78 323.53 -17.69 325.32 -14.65 328.45C-11.67 331.51 -8.03 333.93 -3.96 335.46C-0.0400009 336.94 2.62 340.45 3.4 344.56C3.92 347.35 5.24 350.03 7.36 352.25C12.83 357.95 22.07 358.43 28.1 353.33C34.71 347.73 35.3 337.82 29.51 331.49C29.51 331.49 29.49 331.47 29.48 331.46C28.17 330.04 28.03 327.92 29.24 326.41C33.72 320.87 36.22 313.67 35.67 305.87C34.63 291.12 22.42 279.29 7.64 278.67C-1.77 278.28 -10.25 282.33 -15.88 288.89C-18.08 291.45 -21.26 292.82 -24.63 292.81C-24.65 292.81 -24.67 292.81 -24.69 292.81C-33.14 292.81 -39.98 299.72 -39.87 308.2C-39.77 315.78 -33.83 322.28 -26.29 323.09Z" fill="white"/>
<path d="M315.23 478.07L315.75 466.31C315.87 463.69 317.29 461.31 319.54 459.98L324.73 456.89C326.73 455.7 329.16 455.47 331.35 456.26L346.68 461.82C349.42 462.81 351.37 465.26 351.74 468.15L352.95 477.73C353.17 479.45 352.8 481.19 351.92 482.67L347.18 490.64C346.52 491.75 345.59 492.68 344.47 493.35L338.18 497.09C335.73 498.55 332.68 498.55 330.24 497.09L323.95 493.35C322.84 492.69 321.91 491.76 321.24 490.64L316.32 482.37C315.55 481.07 315.17 479.57 315.24 478.06L315.23 478.07Z" fill="white"/>
<path fill-rule="evenodd" clip-rule="evenodd" d="M847.055 -14.9507L864.315 -104.07L870.205 -102.93L852.945 -13.8096L852.945 -13.8094C835.287 77.3273 854.66 171.746 906.783 248.576L904.3 250.26L906.783 248.576L963.093 331.586L958.127 334.954L901.817 251.944C848.8 173.794 829.093 77.7527 847.055 -14.9507Z" fill="#151524"/>
<path d="M548.08 -2.11998L559.28 1.50003C561.77 2.31003 563.69 4.31003 564.38 6.83003L565.98 12.66C566.6 14.91 566.17 17.31 564.83 19.21L555.4 32.51C553.71 34.89 550.84 36.12 547.95 35.71L538.39 34.33C536.68 34.08 535.1 33.27 533.9 32.03L527.47 25.35C526.57 24.42 525.92 23.27 525.58 22.02L523.64 14.96C522.89 12.21 523.69 9.28003 525.75 7.30003L531.03 2.22003C531.96 1.32002 533.11 0.670025 534.36 0.330025L543.64 -2.21998C545.1 -2.61998 546.65 -2.58998 548.09 -2.11998H548.08Z" fill="#FF5F2F"/>
<path d="M104.5 441.54L116.58 416C117.5 414.06 119.08 412.5 121.05 411.62L136.45 404.71C138.8 403.65 141.49 403.65 143.85 404.71L159.25 411.62C161.21 412.5 162.8 414.05 163.72 416L175.8 441.54C177.38 444.88 176.77 448.84 174.26 451.55L163.54 463.1C162.72 463.99 161.72 464.7 160.62 465.2L143.85 472.72C141.5 473.78 138.81 473.78 136.45 472.72L119.68 465.2C118.57 464.7 117.58 463.99 116.76 463.1L106.04 451.55C103.53 448.84 102.92 444.88 104.5 441.54Z" fill="#FF5F2F"/>
<path d="M196.19 34.1699L236.48 20.3699C249.04 16.0699 262.96 19.2899 272.35 28.6799L279.63 35.9599C282.11 38.4399 286.13 38.4399 288.6 35.9599L293.18 31.3799C295.66 28.8999 295.66 24.8799 293.18 22.4099L259.33 -11.4401C246.99 -23.7801 226.99 -23.7801 214.66 -11.4401L181.04 22.1799C177.41 25.8099 179.37 32.0299 184.43 32.9199L193.04 34.4299C194.09 34.6099 195.18 34.5299 196.19 34.1799V34.1699Z" fill="#FFC033"/>
<path d="M1139.74 296.72L1144.91 298.29C1151.44 300.28 1158.53 298.5 1163.35 293.68L1180.79 276.24C1188 269.03 1199.7 269.03 1206.91 276.24L1210.65 279.98C1217.86 287.19 1229.56 287.19 1236.77 279.98C1243.98 272.77 1243.98 261.07 1236.77 253.86L1218.8 235.89C1203.16 220.25 1177.8 220.25 1162.16 235.89L1132.06 265.99C1122.2 275.85 1126.4 292.66 1139.74 296.72Z" fill="#FFC033"/>
<path d="M921.65 210.09L919.2 198.23C918.3 193.86 915.62 190.06 911.8 187.74L904.06 183.03C900.33 180.76 897.94 176.81 897.67 172.45L896.94 160.5L891.66 158.84C890.27 158.4 890.15 156.47 891.49 155.88L901.38 151.44L903.66 148.84C910.55 140.98 920.35 136.29 930.79 135.86C937.47 135.58 943.99 137.98 948.9 142.54C957.72 150.73 959.48 164.03 953.08 174.23L941.23 193.13V210.11H921.64L921.65 210.09Z" fill="#FB883E"/>
<path d="M1087.22 349.23V389.25C1087.22 394.92 1090.82 399.97 1096.19 401.81L1134.49 414.95C1140.02 416.85 1144.29 409.94 1140.12 405.84L1119.69 385.76C1115.32 381.47 1112.87 375.6 1112.87 369.48V349.23H1087.22Z" fill="#151524"/>
<path d="M1171.88 103.2L1147.35 109.4C1138.1 111.74 1128.79 105.82 1126.99 96.46C1125.68 89.7 1128.69 82.83 1134.54 79.2L1157.05 65.25C1166.55 59.36 1179.04 64.36 1181.86 75.18L1183.88 82.93C1186.2 91.85 1180.81 100.94 1171.88 103.2Z" fill="#22A268"/>
<path d="M682.24 237.43C672.26 238.49 662.99 232.16 660.35 222.48L656.32 207.71C652.38 193.27 664.76 179.63 679.51 182.15L679.85 182.21C687.84 183.58 694.26 189.53 696.24 197.39L699.94 212.1C702.97 224.16 694.63 236.12 682.26 237.43H682.24Z" fill="#443676"/>
<path d="M1158.21 55.67C1150.19 48.37 1137.69 49.07 1130.02 56.74L1098.09 88.67L1112.34 102.92L1121.95 93.31C1126.24 89.02 1132.56 87.8 1138.31 89.71C1145.31 92.03 1153.34 90.41 1158.92 84.83C1167.02 76.73 1166.78 63.46 1158.22 55.66L1158.21 55.67Z" fill="#FB883E"/>
<path d="M653.4 235.92C653.91 246.76 663.25 255.1 674.1 255.1H719.26V234.95H705.67C699.61 234.95 694.27 231.34 691.55 225.92C688.24 219.32 681.41 214.8 673.53 214.8C662.08 214.8 652.86 224.35 653.4 235.92Z" fill="#FB883E"/>
<path d="M1148.82 368.3L1074.15 368.97L1073.68 316.28L973.95 370.08L915.15 526.34L845.26 500.04L908.99 330.7C912.16 322.27 918.27 315.27 926.2 310.99L927.01 310.57L910.42 283.96L995.85 231.31L1010.68 265.43L1077.62 229.31C1092.45 221.31 1109.99 221.64 1124.51 230.22C1139.02 238.79 1147.78 253.99 1147.94 270.84L1148.81 368.3H1148.82Z" fill="#4A2F74"/>
<path d="M910.19 293.94H710.14V219.27H910.19C919.76 219.27 928.75 215.54 935.52 208.78L1081.88 62.4199L1134.68 115.22L988.32 261.58C967.45 282.45 939.7 293.94 910.19 293.94Z" fill="white"/>
<path d="M1010.68 265.43L927 310.56L910.41 283.96L995.84 231.3L1010.68 265.43Z" fill="white"/>
<path fill-rule="evenodd" clip-rule="evenodd" d="M1010.36 263.955C1011.04 263.804 1011.74 264.15 1012.04 264.789L1030.78 305.199L1030.78 305.199C1038.26 321.348 1031.89 340.523 1016.23 348.97L974.652 371.4C974.309 371.585 973.907 371.629 973.532 371.523L899.772 350.683C899.306 350.552 898.932 350.203 898.768 349.747C898.604 349.29 898.671 348.783 898.947 348.385L925.767 309.715C925.902 309.521 926.08 309.362 926.288 309.25L1009.83 264.185C1009.98 264.077 1010.16 263.998 1010.36 263.955ZM1009.99 267.505L928.028 311.72L902.61 348.368L973.763 368.471L1014.81 346.33C1029.07 338.637 1034.88 321.171 1028.06 306.461L1009.99 267.505Z" fill="#1C7A80"/>
<path d="M888.53 304.6H929.9V339.77C929.9 348.94 922.45 356.39 913.28 356.39H905.15C895.98 356.39 888.53 348.94 888.53 339.77V304.6Z" fill="#1C7A80"/>
<path d="M948.24 198.3H906.7V231.31H948.24V198.3Z" fill="white"/>
<path d="M909.21 142.59L919.57 174.12L929.32 164.99C930.77 163.63 933.04 163.67 934.44 165.07C935.88 166.51 935.88 168.84 934.44 170.28L930.61 174.11L941.25 193.1L952.22 182.13C963.41 170.94 963.41 152.79 952.22 141.6C942.56 131.94 927.42 130.44 916.05 138.02L909.22 142.58L909.21 142.59Z" fill="#382618"/>
<path d="M971.43 161.79C980.421 161.79 987.71 154.501 987.71 145.51C987.71 136.519 980.421 129.23 971.43 129.23C962.439 129.23 955.15 136.519 955.15 145.51C955.15 154.501 962.439 161.79 971.43 161.79Z" fill="#382618"/>
<path fill-rule="evenodd" clip-rule="evenodd" d="M1010.68 257.07C1012.34 257.07 1013.68 258.413 1013.68 260.07V516.41C1013.68 518.067 1012.34 519.41 1010.68 519.41C1009.02 519.41 1007.68 518.067 1007.68 516.41V260.07C1007.68 258.413 1009.02 257.07 1010.68 257.07Z" fill="#151524"/>
<path fill-rule="evenodd" clip-rule="evenodd" d="M577.52 318.75H399.81V316.75H577.52V318.75Z" fill="#77A2B8"/>
<path fill-rule="evenodd" clip-rule="evenodd" d="M452.702 408.922L521.302 467.882L519.998 469.398L451.398 410.438L452.702 408.922Z" fill="#77A2B8"/>
<path fill-rule="evenodd" clip-rule="evenodd" d="M310.36 161.218L404.97 25.548L406.61 26.692L312 162.362L310.36 161.218Z" fill="#77A2B8"/>
<path fill-rule="evenodd" clip-rule="evenodd" d="M1281.02 21.5157L1033.72 63.7257L1033.38 61.7542L1280.68 19.5442L1281.02 21.5157Z" fill="#77A2B8"/>
<path fill-rule="evenodd" clip-rule="evenodd" d="M1114.71 295.753L1050.05 330.153L1049.11 328.387L1113.77 293.987L1114.71 295.753Z" fill="#111111"/>
</g>
</g>
<defs>
<clipPath id="clip0_1528_86102">
<rect width="1335" height="464" fill="white"/>
</clipPath>
</defs>
</svg>
