<svg width="1335" height="464" viewBox="0 0 1335 464" fill="none" xmlns="http://www.w3.org/2000/svg">
<g clip-path="url(#clip0_1528_81197)">
<rect width="1335" height="464" fill="#D8ECF5"/>
<mask id="mask0_1528_81197" style="mask-type:luminance" maskUnits="userSpaceOnUse" x="0" y="0" width="1335" height="464">
<path d="M1335 0H0V464H1335V0Z" fill="white"/>
</mask>
<g mask="url(#mask0_1528_81197)">
<path d="M1335 0H0.000976562V464H1335V0Z" fill="#D8ECF5"/>
<path d="M196.4 172.1H1139.5C1285.1 172.1 1403.2 290.2 1403.2 435.8C1403.2 581.4 1285.1 699.5 1139.5 699.5H196.4C50.8002 699.5 -67.2998 581.4 -67.2998 435.8C-67.2998 290.1 50.8002 172.1 196.4 172.1Z" fill="#6EAD6E"/>
<path d="M1285.8 435.8C1285.8 478.6 1269.5 517.5 1242.9 546.8C1242.4 547.4 1241.9 547.9 1241.3 548.5C1240.1 549.8 1238.8 551.1 1237.5 552.4C1207.7 582.2 1166.4 600.7 1120.9 600.7H215.1C167.6 600.7 124.8 580.6 94.7001 548.5C94.2001 547.9 93.6001 547.4 93.1001 546.8C66.4001 517.5 50.1001 478.5 50.1001 435.8C50.1001 427.2 50.8001 418.8 52.0001 410.5C52.1001 409.9 52.2001 409.4 52.3001 408.8C58.0001 374.1 74.6001 343 98.4001 319.1C128.3 289.2 169.5 270.8 215 270.8H1120.7C1202.6 270.8 1270.6 330.5 1283.4 408.8C1283.5 409.4 1283.6 409.9 1283.7 410.5C1285.1 418.7 1285.8 427.2 1285.8 435.8Z" fill="#4A994A"/>
<path d="M1283.8 410.5C1285.1 418.7 1285.7 427.2 1285.7 435.8C1285.7 478.6 1269.4 517.5 1242.8 546.8C1242.3 547.4 1241.8 547.9 1241.2 548.5H94.7001C94.2001 547.9 93.6001 547.4 93.1001 546.8C66.4001 517.5 50.1001 478.5 50.1001 435.8C50.1001 427.2 50.8001 418.8 52.0001 410.5C52.1001 409.9 52.2001 409.4 52.3001 408.8" fill="#ABCAA6"/>
<path d="M1039.1 436.6H1265.4" stroke="#6EAD6E" stroke-width="16" stroke-miterlimit="10"/>
<path d="M96 436.6H267.3" stroke="#6EAD6E" stroke-width="16" stroke-miterlimit="10"/>
<path d="M281.7 193.8L269.1 226L255.4 221.1L242.7 224.5C238 225.8 233.1 226 228.3 225.1L182.9 217.3C179.2 216.7 175.4 217.4 172.2 219.3L163 224.7C162.8 224.8 162.7 224.9 162.5 224.9C161.8 225.1 161 225 160.4 224.6C159.2 223.7 159.1 222 160.1 221L162.3 218.9C163.4 217.9 162.9 216.1 161.5 215.7L145.9 211.1C145.1 210.9 144.6 210.3 144.3 209.6C144.2 209.3 144.2 208.9 144.2 208.5C144.4 207.2 145.8 206.3 147.1 206.6L159 209.7L146.9 201.7C146.5 201.4 146.2 201 146 200.5C145.8 200 145.9 199.5 146.1 199C146.6 197.8 148 197.3 149.1 197.9L164.2 205.8L154.3 198.4C153.9 198.1 153.7 197.8 153.6 197.4C153.4 196.8 153.5 196.1 154 195.5C154.6 194.8 155.7 194.6 156.5 195.1L171.1 203.7L165 198.4C164.7 198.2 164.5 197.8 164.4 197.5C164.2 196.9 164.3 196.2 164.7 195.7C165.3 194.9 166.4 194.7 167.2 195.2L176.2 200.2C180.9 202.8 186.2 203.9 191.5 203.3L281.7 193.8Z" fill="#FF9999"/>
<path d="M193 435.8H153.2C148.3 435.8 145 430.9 146.7 426.3L165.3 377.5H198.1L177 420.6L194.4 426.8C199.3 428.6 198.1 435.8 193 435.8Z" fill="#F7D857"/>
<path d="M303.9 154.6L317.1 141.3L329 138.4C331 137.9 332.6 136.3 333.1 134.3L335 126.5L338.8 123.9C339.3 123.6 339.2 122.9 338.7 122.7L334.6 120.8L321.3 105.4L296.8 109.7L299.4 130L281.6 144.1L303.9 154.6Z" fill="#FF9999"/>
<path d="M131.6 311.8L101.3 321C97.5 322.1 94.5 325 93.2 328.7L83.5 356C82 360.2 87.2 363.6 90.4 360.5L103.7 347.8C107.6 344.1 112.3 341.4 117.5 339.9L148.7 330.9C149.7 330.6 150 329.4 149.3 328.6L133 312.1C132.6 311.8 132.1 311.7 131.6 311.8Z" fill="#F7D857"/>
<path d="M267.3 226L265.9 229.7L262.8 238L261.7 241L234.9 312.3L215 365.3L199.5 406.6L150.9 393L155.3 365.3L160.4 333L165.6 300.3L167.9 285.6C169.5 275.7 171.9 266.1 175.2 256.7C181.5 238.8 190.9 222.1 203.1 207.4L209.1 200.1L209.6 200.3L267.3 226Z" fill="#FEF8EC"/>
<path d="M234.8 312.4L214.9 365.3H155.3L160.4 333L234.8 312.4Z" fill="#D8ECF5"/>
<path d="M209.1 247.3L189.2 300.3H165.6L167.9 285.6C169.5 275.7 171.9 266.1 175.2 256.7L209.1 247.3Z" fill="#B1D9EB"/>
<path d="M315.9 177.4C322.6 170.7 333.8 177.3 331.2 186.4L328.4 196.3L326.7 202.3C322.7 216.4 309.9 226.1 295.3 226.1H267.3L297 196.4L315.9 177.4Z" fill="#FF9999"/>
<path d="M209.1 200.1L257.6 294.9C267.9 315 255.7 339.3 233.4 343L137.3 359.1L118.1 307.7L186.1 284.2C167.1 261.2 171.5 227 195.8 209.6L209.1 200.1Z" fill="#FEF8EC"/>
<path d="M257.6 294.9C267.9 315 255.7 339.3 233.4 343" stroke="#B7DBC4" stroke-width="2" stroke-miterlimit="10"/>
<path d="M248.3 276.6L257.6 294.9" stroke="#B7DBC4" stroke-width="2" stroke-miterlimit="10"/>
<path d="M248.3 276.6L229.7 240.3" stroke="#E8F3F3" stroke-width="2" stroke-miterlimit="10"/>
<path d="M334.4 175.3C337.9 163 330.1 150.4 317.6 147.9L226.4 129.7L137.9 112C132.7 110.9 127.9 108.3 124.2 104.4L117.1 96.9C116.4 96.2 115.3 96.1 114.5 96.7C113.9 97.1 113.7 97.7 113.7 98.3C113.7 98.6 113.8 99 114 99.3L118.2 106.2L106.8 93.7C106.1 93 105.1 92.8 104.2 93.4C103.6 93.8 103.3 94.4 103.3 95.1C103.3 95.5 103.4 95.9 103.7 96.3L110.9 106.3L98.7998 94.1C97.8998 93.2 96.3998 93.3 95.5998 94.3C95.2998 94.7 95.0998 95.2 95.0998 95.7C95.0998 96.2 95.2998 96.7 95.5998 97.1L104.7 108.3L94.2998 101.7C93.0998 101 91.5998 101.4 90.9998 102.6C90.7998 102.9 90.7998 103.3 90.7998 103.6C90.7998 104.3 91.1998 105.1 91.7998 105.5L105.3 114.6C106.5 115.4 106.4 117.2 105.1 117.9L102.3 119.3C101 120 100.6 121.7 101.5 122.8C102 123.4 102.7 123.7 103.4 123.7C103.6 123.7 103.7 123.7 103.9 123.6L114.3 121.2C118 120.3 121.8 120.8 125.1 122.5L166.1 143.5C170.4 145.7 175.2 146.9 180 147.1L193.2 147.7L204.8 156.5L229.2 175L209.1 200.1L267.3 226L297 196.3H328.4L334.4 175.3Z" fill="#FEF8EC"/>
<path d="M226.4 129.6L204.8 156.5L193.2 147.7L180 147.1C175.2 146.9 170.4 145.7 166.1 143.5L125.1 122.5C121.8 120.8 117.9 120.3 114.3 121.2L103.9 123.6C103.7 123.6 103.6 123.7 103.4 123.7C102.7 123.7 102 123.4 101.5 122.8C100.6 121.6 101 119.9 102.3 119.3L105.1 117.9C106.4 117.2 106.5 115.4 105.3 114.6L91.7998 105.5C91.0998 105.1 90.7998 104.3 90.7998 103.6C90.7998 103.3 90.8998 102.9 90.9998 102.6C91.5998 101.4 93.0998 101 94.2998 101.7L104.7 108.3L95.5998 97C95.2998 96.6 95.0998 96.1 95.0998 95.6C95.0998 95.1 95.2998 94.6 95.5998 94.2C96.3998 93.2 97.8998 93.1 98.7998 94L110.9 106.1L103.7 96.1C103.4 95.8 103.3 95.3 103.3 94.9C103.3 94.2 103.6 93.6 104.2 93.2C105 92.7 106.1 92.8 106.8 93.5L118.2 106L114 99.1C113.8 98.8 113.7 98.4 113.7 98.1C113.7 97.5 114 96.9 114.5 96.5C115.3 95.9 116.4 96 117.1 96.7L124.2 104.2C127.9 108.1 132.7 110.7 137.9 111.8L226.4 129.6Z" fill="#FF9999"/>
<path d="M226.4 129.6L193.2 147.7L209.8 160.3L226.4 129.6Z" fill="#FF6666"/>
<path d="M226.4 129.6L202.5 159.5L229.2 175L226.4 129.6Z" fill="#B1D9EB"/>
<path d="M217.8 189.2L239.8 159.5" stroke="#FEDE81" stroke-width="2" stroke-miterlimit="10"/>
<path d="M784.5 368.7L611.2 397.7C610.6 397.8 610.1 397.4 610 396.8C609.9 396.3 610.2 395.8 610.7 395.7L777.2 339.6C785.1 336.9 793.6 341.2 796.3 349.1C799.3 357.7 793.6 367.3 784.5 368.7Z" fill="white"/>
<path d="M781.2 367.5C788.546 367.5 794.5 361.545 794.5 354.2C794.5 346.855 788.546 340.9 781.2 340.9C773.855 340.9 767.9 346.855 767.9 354.2C767.9 361.545 773.855 367.5 781.2 367.5Z" fill="#F26533"/>
<path d="M1325.3 277.8H1313.5V410.5H1325.3V277.8Z" fill="#FEF8EC"/>
<path d="M1306.9 277.8H1295.1V410.5H1306.9V277.8Z" fill="#FEF8EC"/>
<path d="M1288.6 277.8H1276.8V410.5H1288.6V277.8Z" fill="#FEF8EC"/>
<path d="M1325.3 273H1276.8V277.8H1325.3V273Z" fill="#F7D857"/>
<path d="M1290.2 271.1H1293.4C1294.3 271.1 1295.1 271.9 1295.1 272.8V277.8C1295.1 278.7 1294.3 279.5 1293.4 279.5H1290.2C1289.3 279.5 1288.5 278.7 1288.5 277.8V272.8C1288.5 271.9 1289.3 271.1 1290.2 271.1Z" fill="#F7D857"/>
<path d="M1308.6 271.1H1311.8C1312.7 271.1 1313.5 271.9 1313.5 272.8V277.8C1313.5 278.7 1312.7 279.5 1311.8 279.5H1308.6C1307.7 279.5 1306.9 278.7 1306.9 277.8V272.8C1306.9 271.9 1307.6 271.1 1308.6 271.1Z" fill="#F7D857"/>
<path d="M60.0002 276.1H48.2002V408.8H60.0002V276.1Z" fill="#FEF8EC"/>
<path d="M41.6999 276.1H29.8999V408.8H41.6999V276.1Z" fill="#FEF8EC"/>
<path d="M23.3001 276.1H11.6001V408.8H23.3001V276.1Z" fill="#FEF8EC"/>
<path d="M60.1001 271.3H11.6001V276.1H60.1001V271.3Z" fill="#F7D857"/>
<path d="M25.0003 269.5H28.2003C29.1003 269.5 29.9003 270.3 29.9003 271.2V276.2C29.9003 277.1 29.1003 277.9 28.2003 277.9H25.0003C24.1003 277.9 23.3003 277.1 23.3003 276.2V271.2C23.3003 270.3 24.1003 269.5 25.0003 269.5Z" fill="#F7D857"/>
<path d="M43.4002 269.5H46.6002C47.5002 269.5 48.3002 270.3 48.3002 271.2V276.2C48.3002 277.1 47.5002 277.9 46.6002 277.9H43.4002C42.5002 277.9 41.7002 277.1 41.7002 276.2V271.2C41.7002 270.3 42.4002 269.5 43.4002 269.5Z" fill="white"/>
<path d="M1098.8 386.8L1115.5 436.6H1060.1C1056.7 436.6 1056.1 431.8 1059.3 430.9L1089.1 422.5L1077.2 386.8H1098.8Z" fill="#362C62"/>
<path d="M1091.4 325.4L1116.5 413.1H1076.6L1046 339.2C1039.1 322.4 1043.9 303.1 1057.9 291.6C1061.6 288.6 1065.7 286.2 1070.2 284.7C1074.6 283.1 1079.3 282.3 1084.1 282.3H1157.1V325.4H1091.4Z" fill="#45A8F8"/>
<path d="M1105.6 355.2H1069.3V365.2H1105.6V355.2Z" fill="#B1D9EB"/>
<path d="M1115.5 386.8H1079.2V396.8H1115.5V386.8Z" fill="#B1D9EB"/>
<path d="M1046.7 320.9C1050.9 320.9 1054.3 324.3 1054.3 328.5V339.5C1066.4 339.5 1077.1 347.5 1080.4 359.1L1098.9 422.6H1089.1L1078.9 414.9C1077.4 413.8 1075.6 413.2 1073.7 413.2C1070 413.2 1066.7 410.8 1065.5 407.3L1039.5 330.9C1037.9 326 1041.5 320.9 1046.7 320.9Z" fill="#FEF8EC"/>
<path d="M1256.4 434.2L1226.2 416.3C1222.6 414.2 1218.5 413.1 1214.4 413.1H1145.3C1130 413.1 1116.6 402.8 1112.7 387.9L1103.9 354.1L1111.3 336.6L1135.9 278.2L1136.7 277.7L1172.6 256.6L1188.7 277.7L1192.4 282.6C1194.4 285.2 1195.8 288.1 1196.7 291C1198.9 298.2 1197.9 306.2 1193.6 312.8L1159.2 366.5L1212.4 376.8L1213.1 388.5L1224.8 388.1L1258.2 432.3C1258.9 433.6 1257.6 434.9 1256.4 434.2Z" fill="#45A8F8"/>
<path d="M1168.7 366.1H1158.7V402.4H1168.7V366.1Z" fill="#B1D9EB"/>
<path d="M1193.7 366.1H1183.7V402.4H1193.7V366.1Z" fill="#B1D9EB"/>
<path d="M1100 336.6H1116C1123.4 336.6 1129.3 342.6 1129.3 349.9V374.7L1213.1 388.4V416.6H1149C1129.2 416.6 1111.8 403.3 1106.7 384.2L1093.9 336.6H1100Z" fill="#FEF8EC"/>
<path d="M1153.6 411.3C1133.8 411.3 1116.4 398 1111.3 378.9" stroke="#D0E9FD" stroke-width="2" stroke-miterlimit="10"/>
<path d="M1056.8 217.1H1036.3L1033 235L1013.9 227.1L1010 206.9C1008 196.6 1015.9 187 1026.4 187H1059.3L1056.8 217.1Z" fill="#A5734E"/>
<path d="M1196.7 291.1L1111.3 336.7L1135.9 278.3L1136.7 277.8H1188.7L1192.4 282.7C1194.3 285.2 1195.8 288.1 1196.7 291.1Z" fill="#3399FF"/>
<path d="M1193.6 284.2L1165.7 284.5C1162.1 288.1 1157.1 290.2 1152 290.2H1137.6C1135.9 290.2 1134.4 289.5 1133.2 288.4C1132.1 287.3 1130.6 286.6 1129 286.6L1119.4 286.2L1113.3 285.9L1076.2 217.2H1045V176.3L1101.1 184.9C1114.3 186.9 1126.6 192.3 1136.9 200.3C1144.3 206 1150.3 213.2 1155.2 221.2L1193.6 284.2Z" fill="#45A8F8"/>
<path d="M1038.9 272.5C1038.3 272.9 1037.7 273.1 1037 273.1C1035.9 273.1 1034.9 272.6 1034.2 271.9C1030.3 268 1023.9 268 1020 271.9L1028.3 282.3L1027.6 282.4L1010 271.9C1005.3 269.1 1002.8 264.1 1002.8 259.2C1002.8 255.5 1004.2 251.7 1007.1 248.7C1011.4 244.4 1013.8 238.6 1013.8 232.5V227.3L1032.9 235.2L1030.7 246.7C1029.8 251.3 1031 256 1033.8 259.7L1039.7 267.4C1041.1 268.9 1040.7 271.3 1038.9 272.5Z" fill="#FEF8EC"/>
<path d="M1177.2 421.6L1175.4 423.4C1173.7 425.1 1171 425.1 1169.4 423.4L1020.7 274.7C1019.9 273.9 1019.4 272.8 1019.4 271.7C1019.4 270.7 1019.8 269.6 1020.5 268.8C1022.2 267 1024.9 267 1026.7 268.7L1052.9 294.9H1057.2C1061.8 294.9 1066.2 296.7 1069.4 300L1165.7 396.3C1167.3 397.9 1168.6 399.7 1169.7 401.6L1177.8 416.5C1178.8 418.2 1178.5 420.3 1177.2 421.6Z" fill="#F7D857"/>
<path d="M1052.9 294.9L1046.9 300.9L1020.7 274.7C1019.9 273.9 1019.4 272.8 1019.4 271.7C1019.4 270.7 1019.8 269.6 1020.5 268.8C1022.2 267 1024.9 267 1026.7 268.7L1052.9 294.9Z" fill="#362C62"/>
<path d="M1138.8 229.9L1131.3 251.1L1118.1 288.6L1113.7 301.2C1112.4 304.8 1110.1 307.8 1107.1 309.9C1104.1 312 1100.5 313.2 1096.7 313.2C1091.9 313.2 1087.4 311.3 1084 307.9L1063.1 287C1062.2 286.1 1061.2 285.4 1060 284.9C1056.5 283.4 1052.2 284.1 1049.4 287L1047.2 289.2L1026.5 268.5L1037.7 270.7C1040.2 271.2 1042.8 270.7 1045 269.4L1047 268.2C1050.1 266.3 1053.9 266.1 1057.2 267.5L1066.5 271.6L1093.8 283.5V229.7L1138.8 229.9Z" fill="#A5734E"/>
<path d="M1131.4 251.2L1119.1 286.1L1093.9 277.1V247.8L1131.4 251.2Z" fill="#84502C"/>
<path d="M1087.4 209.7L1088.5 265.7L1131.8 274L1140.9 226.6C1143.6 212.5 1131 200.2 1117 203.3L1087.4 209.7Z" fill="#45A8F8"/>
<path d="M1043.3 297.3H1033.3C1028.2 297.3 1023.9 293.7 1023.1 288.7L1021.8 280.9C1021.2 277.6 1023.8 274.6 1027.1 274.6C1029 274.6 1030.8 275.6 1031.7 277.2L1043.3 297.3Z" fill="#F7D857"/>
<path d="M1066.7 271.8L1060.2 285.1C1056.7 283.6 1052.4 284.3 1049.6 287.2L1047.4 289.4L1022 264L1037.9 270.9C1040.4 271.4 1043 270.9 1045.2 269.6L1047.2 268.4C1050.3 266.5 1054.1 266.3 1057.4 267.7L1066.7 271.8Z" fill="#FEF8EC"/>
<path d="M1094.6 190.6L1089 184.8L1087.3 161.8L1047.5 179.7L1050.5 186.4L1048.1 192.8C1047.6 194.1 1049 195.4 1050.3 194.8L1053.1 193.6L1056.7 201.7C1059 206.7 1065.3 208.3 1069.7 205L1076.3 200L1086.5 203.9L1094.6 190.6Z" fill="#A5734E"/>
<path d="M1049 183.2L1067.8 179.8L1070.1 184.9L1072.4 179.1C1073 177.7 1074.3 176.9 1075.8 177.1C1077.5 177.3 1078.7 178.7 1078.7 180.4C1078.6 183.5 1080.9 186.1 1083.9 186.5L1091.3 187.4L1088.9 184.9C1091.2 184.3 1092.1 181.7 1090.7 179.8C1089.8 178.5 1088.8 177.1 1088.2 175.6C1091.8 174 1092.3 169.1 1089.2 166.7L1084.1 162.8L1047.2 179.4L1049 183.2Z" fill="#CBCBCB"/>
<path d="M1054.3 198.8L1058 195.9" stroke="#303030" stroke-width="1.03" stroke-linejoin="round"/>
<path d="M1060.2 175.4L1062.7 180.9C1064.8 185.5 1068.6 189.1 1073.3 190.9L1077.7 192.6L1076.2 200.1L1086.4 204L1078.3 186.1C1073.6 184.3 1069.8 180.7 1067.7 176.1L1066.2 172.7L1060.2 175.4Z" fill="#362C62"/>
<path d="M1078.6 164.3L1080.7 169L1076.5 205.3C1076.5 205.3 1059.2 218.6 1049.9 198.1L1078.5 185.5C1078.7 185.4 1078.8 185.6 1078.7 185.7L1056.2 206.6" stroke="#FEF8EC" stroke-width="2.07" stroke-linejoin="round"/>
<path d="M1060.1 149.1L1056.7 150.4C1047.3 154 1041.9 163.9 1043.9 173.8L1044.3 176L1039.4 181L1041.9 186.5L1051.8 182L1088.8 165.3L1086.3 159.8C1081.8 149.9 1070.3 145.1 1060.1 149.1Z" fill="#362C62"/>
<path d="M1078.45 164.275L1054.38 175.115L1056.48 179.765L1080.55 168.925L1078.45 164.275Z" fill="#FFF6DE"/>
<path d="M1054.4 188.3C1055.34 188.3 1056.1 187.539 1056.1 186.6C1056.1 185.661 1055.34 184.9 1054.4 184.9C1053.46 184.9 1052.7 185.661 1052.7 186.6C1052.7 187.539 1053.46 188.3 1054.4 188.3Z" fill="#282828"/>
<path d="M1081.7 208.7L1081.3 199.2L1088.9 184.9L1099.2 191.3L1081.7 208.7Z" fill="#3399FF"/>
<path d="M177.1 420.7H170.9C169.2 420.7 167.4 421.1 165.9 421.9L162.6 423.5C160.6 424.5 158.2 423.9 156.9 422L152.2 415.1C151.8 414.5 151 414.1 150.2 414.1C149.2 414.1 148.4 414.7 148 415.6L142.8 428.2C141.3 431.9 144 435.9 147.9 435.9H193.8C196.4 435.9 198.8 434.2 199.7 431.7C201 428 198.6 424.1 194.8 423.5L177.1 420.7Z" fill="#313030"/>
<path d="M103.1 345.4L105.3 339.6C105.9 338 106.1 336.2 106 334.5L105.6 330.8C105.4 328.6 106.8 326.5 109 326L117.2 324C118 323.8 118.6 323.3 118.9 322.5C119.2 321.6 119 320.6 118.3 319.9L108.4 310.6C105.5 307.9 100.8 309 99.4001 312.7L83.2001 355.6C82.3001 358.1 83.0001 360.9 85.0001 362.6C88.0001 365.1 92.5001 364.3 94.4001 360.9L103.1 345.4Z" fill="#313030"/>
<path d="M311.8 146.7L310.5 142.9C309.2 138.8 305.8 135.8 301.6 134.9L279.8 130.1L281.6 140.7L311.8 146.7Z" fill="#FEF8EC"/>
<path d="M299.4 130H311.8L312.7 126.9C313.3 124.7 313.1 122.4 312.2 120.4C311.5 119 312 117.3 313.4 116.5C314.6 115.8 316.1 116 317 117L318.9 118.9V121.2H320.9L322.3 115.5C322.9 113 321.5 110.5 319.1 109.7L315.8 108.7L324.1 110.4C326.3 110.8 328.4 109.5 329 107.3C329.5 105.1 328.3 102.9 326.1 102.3L314.1 98.9C311.8 98.2 309.3 98.9 307.6 100.6L305.3 102.8L301.8 102.7C297.4 102.5 294.2 106.9 295.8 111L296.6 113.1L295.3 116.2C293.7 120 294.4 124.3 297.2 127.3L299.4 130Z" fill="#313030"/>
<path d="M332.5 122.7L334 121.4C334.9 120.6 336.2 120.7 337 121.6L333.9 124.3L332.5 122.7Z" fill="white"/>
<path d="M327.5 122.1C328.273 122.1 328.9 121.473 328.9 120.7C328.9 119.927 328.273 119.3 327.5 119.3C326.727 119.3 326.1 119.927 326.1 120.7C326.1 121.473 326.727 122.1 327.5 122.1Z" fill="#313030"/>
<path d="M325.5 118.8C326.6 117.7 328.3 117.7 329.4 118.8" stroke="#313030" stroke-miterlimit="10"/>
<path d="M213 232L234.8 217.9" stroke="#FEDE81" stroke-width="2" stroke-miterlimit="10"/>
<path d="M265.9 229.7L262.8 238C261.1 237.4 259.9 235.8 259.9 233.9C259.9 231.5 261.9 229.5 264.3 229.5C264.9 229.4 265.4 229.5 265.9 229.7Z" fill="#0B1D46"/>
<path d="M297.1 196.2H281.7L267.3 226L297.1 196.2Z" fill="#D8ECF5"/>
<path d="M1129.6 293.1L1116 325.4H1102.3L1129.6 293.1Z" fill="#362C62"/>
<path d="M1039.1 217.1H1021.6" stroke="#84502C" stroke-width="2" stroke-miterlimit="10"/>
<path d="M1092.9 278.4V282.2L1086.9 279.6L1086.1 281.4L1092.9 284.4V291.8H1094.9V278.4H1092.9Z" fill="#84502C"/>
<path d="M1165.7 284.5C1162.1 288.1 1157.1 290.2 1152 290.2H1137.6C1135.9 290.2 1134.4 289.5 1133.2 288.4C1132.1 287.3 1130.6 286.6 1129 286.6L1119.2 286.2L1124 272.7L1131.8 274.2L1139.7 233.3L1143.1 274.2L1165.7 284.5Z" fill="#362C62"/>
<path d="M484 172.1H484.1C500.7 172.1 516.5 165.1 527.6 152.7L534.3 145.3C534.5 145.1 534.9 145.3 534.8 145.6L526.4 167.1L569.7 146.7C570.4 146.4 571 147.3 570.4 147.8L545.7 167.1L583.1 160.4C584.1 160.2 584.6 161.6 583.7 162.1L566.9 172.1H484Z" fill="#6EAD6E"/>
<path d="M416.8 71.7H676.5C678.5 71.7 678.7 68.8 676.7 68.6L597.3 57.4C584.1 55.5 570.6 56.2 557.6 59.4L540.7 63.6C534.9 65 528.8 65.2 523 64L501.8 59.8C494 58.2 485.9 58.1 478 59.4L416.5 69.5C415.3 69.7 415.4 71.7 416.8 71.7Z" fill="#FEF8EC"/>
<path d="M209.1 200.1L267.3 226" stroke="#FEDE81" stroke-width="2" stroke-miterlimit="10"/>
<path d="M1256.4 434.2L1226.2 416.3C1222.6 414.2 1218.5 413.1 1214.4 413.1H1213.2V388.5L1224.9 388.1L1258.3 432.3C1258.9 433.6 1257.6 434.9 1256.4 434.2Z" fill="#362C62"/>
<path d="M611 172.1V154.6H668V138.4H718.3V164.3L742.2 140.5H762V164.3H883.1V109.4H909.4V147.7H951.3V172.1H611Z" fill="#B1D9EB"/>
<path d="M1114.3 329.5L1130.8 290.2" stroke="#030B19" stroke-miterlimit="10"/>
<path d="M1076.1 217.1L1045 206.8V217.1H1076.1Z" fill="#3399FF"/>
<path d="M1125.5 145.5H1320.2C1321 145.5 1321.1 144.4 1320.4 144.2L1266.9 130.3C1256.1 127.5 1244.8 127.9 1234.2 131.3L1209 139.6C1201.1 142.2 1192.5 142 1184.7 139L1166.4 132C1156.4 128.2 1145.1 129.6 1136.4 135.7L1125 143.7C1124.2 144.4 1124.6 145.5 1125.5 145.5Z" fill="#FEF8EC"/>
<path d="M130.7 303.4L149.7 357" stroke="#D0E9FD" stroke-width="2" stroke-miterlimit="10"/>
<path d="M154.5 377.6L204.8 392.1" stroke="#D0E9FD" stroke-width="2" stroke-miterlimit="10"/>
<path d="M1051.5 343.4L1074 410.7" stroke="#D0E9FD" stroke-width="2" stroke-miterlimit="10"/>
<path d="M1065.5 349.4L1088.1 416.7" stroke="#D0E9FD" stroke-width="2" stroke-miterlimit="10"/>
<path d="M1179.4 411.3H1209.4" stroke="#D0E9FD" stroke-width="2" stroke-miterlimit="10"/>
<path d="M785.4 436.6H808.2" stroke="#6EAD6E" stroke-width="16" stroke-miterlimit="10" stroke-linecap="round"/>
</g>
</g>
<defs>
<clipPath id="clip0_1528_81197">
<rect width="1335" height="464" fill="white"/>
</clipPath>
</defs>
</svg>
