<svg width="1335" height="464" viewBox="0 0 1335 464" fill="none" xmlns="http://www.w3.org/2000/svg">
<g clip-path="url(#clip0_1528_80443)">
<rect width="1335" height="464" fill="#FBEFD0"/>
<mask id="mask0_1528_80443" style="mask-type:luminance" maskUnits="userSpaceOnUse" x="0" y="0" width="1335" height="464">
<path d="M1335 0H0V464H1335V0Z" fill="white"/>
</mask>
<g mask="url(#mask0_1528_80443)">
<path d="M1335 0H-0.000976562V464H1335V0Z" fill="#FBEFD0"/>
<path d="M1335 374.5H0V464H1335V374.5Z" fill="#6EAD6E"/>
<path d="M1335 443.5H-0.200195V464H1335V443.5Z" fill="#CBCBCB"/>
<path d="M1226 234.6C1184.4 250.4 1152.2 284.3 1138.4 326.6L1100.5 443.3H1425.3V372C1425.4 269 1322.2 197.9 1226 234.6Z" fill="#6EAD6E"/>
<path d="M1201.6 443.3H500.4V414.8L567.3 348.4C594.9 320.9 637.7 318.1 668.6 339.7C672.3 342.3 675.7 345.2 679 348.4C679 348.4 679.1 348.5 679.2 348.5C709.4 318.4 748.9 303.3 788.4 303.3C827.9 303.3 867.4 318.4 897.6 348.5L953.3 404.2L992.1 365.4C1028.5 329 1087.6 329 1124 365.4L1201.6 443.3Z" fill="#ABCAA6"/>
<path d="M938.3 103.7L901.1 102.5C898.2 102.4 895.4 103.4 893.1 105.3L888.9 108.9C883.2 113.7 874.6 113 869.8 107.3L857.9 93.1L849.7 96.1C848.1 96.7 846.5 95.2 847 93.5L853.8 72.7L857.6 58C860.7 46.1 870.7 37.3 882.8 35.8L883.6 35.7C904 33.1 921.4 50.4 918.8 70.7L918.6 72L922.8 78.7L933.7 74.8L938.3 103.7Z" fill="#DDA25B"/>
<path d="M852.4 63.9L872.3 78.6C876.4 81.6 882.1 80.6 885 76.4L890.9 67.6C891.7 66.3 893.3 65.7 894.8 66.1C897.1 66.7 898.3 69.2 897.2 71.3L895.4 74.7C895.4 74.7 915.1 103.4 933.7 74.6L923.2 72.2L926.1 65.8C926.5 64.9 925.5 64 924.6 64.4L917.7 68.1C917.8 68.2 933.7 34.4 852.4 63.9Z" fill="#313030"/>
<path d="M890.2 107.8L887.6 57.3L904.6 58.7L893.1 105.3L890.2 107.8Z" stroke="white" stroke-width="2" stroke-miterlimit="10"/>
<path d="M852.4 63.9L926.5 73.4L926.3 55.9H858.4L852.4 63.9Z" fill="white"/>
<path d="M852.4 63.9H925C927.8 63.9 930.6 62.8 932.6 60.8C938.2 55.2 936 45.7 928.5 43.1L895.6 31.8C892.4 30.7 889.1 30.1 885.7 30.1C873.8 30.1 863 37 858 47.7L857.4 48.9C854.9 54.4 850.7 58.9 845.5 62V63.9H852.4Z" fill="#0B1D46"/>
<path d="M860.2 95.8H869.6L864.4 100.9L860.2 95.8Z" fill="#5B4518"/>
<path d="M869.6 95.8L862 98.2C860.9 98.5 859.8 98.1 859.2 97.1L858 95L869.6 95.8Z" fill="#84621F"/>
<path d="M861.7 78.2H862.8C863.2 78.2 863.6 78.6 863.6 79V82.5C863.6 82.9 863.2 83.3 862.8 83.3H861.7C861.3 83.3 860.9 82.9 860.9 82.5V79C860.9 78.6 861.2 78.2 861.7 78.2Z" fill="black"/>
<path d="M851.2 71.4L855.6 84.9C856.1 86.5 857.6 87.5 859.2 87.5H869.1C869.6 87.5 869.9 86.8 869.5 86.4L854.9 72.8C853.9 71.9 852.5 71.4 851.2 71.4Z" fill="white"/>
<path d="M857.6 77.9L877.6 68.3" stroke="white" stroke-width="2" stroke-miterlimit="10"/>
<path d="M1073.4 217.9L1133.9 458.6H1151.7V348.6H1138.8L1151.7 76.1C1092.4 95.5 1058.2 157.5 1073.4 217.9Z" fill="#40376E"/>
<path d="M926.3 68.3L1002.7 162.5C1013.2 175.5 1016 193.2 1009.9 208.8C1002 229 981.2 241.1 959.7 237.9L893.8 228.1L805.3 199.6L807.8 179.9C810.9 170.4 820.4 164.5 830.3 166.1L942.6 183.5L926.3 68.3Z" fill="#936431"/>
<path d="M1292.6 465.6C1292.6 466.3 1291.4 466.9 1291.4 467.6C1291.4 468.3 1292.5 469.1 1292.4 469.7C1292.3 470.3 1291 470.8 1290.9 471.5C1290.8 472.2 1291.7 473.1 1291.6 473.8C1291.5 474.5 1290.1 474.8 1289.8 475.4C1289.5 476 1290.4 477.1 1290.1 477.7C1289.8 478.3 1288.5 478.4 1288.2 479C1287.9 479.6 1288.6 480.8 1288.2 481.4C1287.8 482 1286.5 481.9 1286.1 482.4C1285.7 482.9 1286.2 484.2 1285.8 484.7C1285.4 485.2 1284 485 1283.6 485.5C1283.2 486 1283.5 487.3 1283 487.8C1282.5 488.3 1281.2 487.8 1280.7 488.3C1280.2 488.8 1280.4 490.1 1279.8 490.5C1279.2 490.9 1278 490.3 1277.4 490.6C1276.8 490.9 1276.8 492.3 1276.2 492.6C1275.6 492.9 1274.5 492.1 1273.9 492.4C1273.3 492.7 1273.1 494 1272.4 494.3C1271.7 494.6 1270.7 493.6 1270.1 493.8C1269.5 494 1269.1 495.3 1268.4 495.4C1267.7 495.5 1266.9 494.5 1266.2 494.6C1265.5 494.7 1265 495.9 1264.3 496C1263.6 496 1262.9 494.9 1262.2 494.9C1261.5 494.9 1260.8 496.1 1260.1 496C1259.4 496 1258.9 494.7 1258.2 494.6C1257.5 494.5 1256.6 495.6 1256 495.4C1255.4 495.2 1254.9 493.9 1254.3 493.8C1253.7 493.7 1252.6 494.5 1252 494.3C1251.4 494.1 1251.2 492.7 1250.5 492.4C1249.8 492.1 1248.7 492.9 1248.2 492.6C1247.7 492.3 1247.6 490.9 1247 490.6C1246.4 490.3 1245.2 490.9 1244.6 490.5C1244 490.1 1244.2 488.7 1243.7 488.3C1243.2 487.9 1241.9 488.3 1241.4 487.8C1240.9 487.3 1241.3 486 1240.8 485.5C1240.3 485 1239 485.3 1238.6 484.7C1238.2 484.1 1238.7 482.9 1238.3 482.4C1237.9 481.9 1236.5 481.9 1236.2 481.4C1235.9 480.9 1236.5 479.6 1236.2 479C1235.9 478.4 1234.5 478.3 1234.3 477.7C1234 477.1 1234.9 476 1234.6 475.4C1234.3 474.8 1233 474.5 1232.8 473.8C1232.6 473.1 1233.6 472.2 1233.5 471.5C1233.4 470.8 1232.1 470.4 1232 469.7C1231.9 469 1233 468.2 1233 467.6C1233 467 1231.8 466.3 1231.8 465.6C1231.8 464.9 1233 464.3 1233 463.6C1233.1 462.9 1231.9 462.1 1232 461.5C1232.1 460.9 1233.4 460.4 1233.5 459.7C1233.6 459 1232.7 458.1 1232.8 457.4C1232.9 456.7 1234.3 456.4 1234.6 455.8C1234.9 455.2 1234 454.1 1234.3 453.5C1234.6 452.9 1235.9 452.8 1236.2 452.2C1236.5 451.6 1235.8 450.4 1236.2 449.8C1236.6 449.2 1237.9 449.3 1238.3 448.8C1238.7 448.3 1238.2 447 1238.6 446.5C1239 446 1240.4 446.2 1240.8 445.7C1241.2 445.2 1240.9 443.9 1241.4 443.4C1241.9 442.9 1243.2 443.4 1243.7 442.9C1244.2 442.5 1244 441.1 1244.6 440.7C1245.2 440.3 1246.4 440.9 1247 440.6C1247.6 440.3 1247.6 438.9 1248.2 438.6C1248.8 438.3 1249.9 439.1 1250.5 438.8C1251.1 438.5 1251.3 437.2 1252 436.9C1252.7 436.6 1253.7 437.6 1254.3 437.4C1254.9 437.2 1255.3 435.9 1256 435.8C1256.7 435.7 1257.5 436.7 1258.2 436.6C1258.9 436.5 1259.4 435.3 1260.1 435.2C1260.8 435.1 1261.5 436.3 1262.2 436.3C1262.9 436.3 1263.6 435.1 1264.3 435.2C1265 435.3 1265.5 436.5 1266.2 436.6C1266.9 436.7 1267.8 435.6 1268.4 435.8C1269 436 1269.5 437.3 1270.1 437.4C1270.7 437.5 1271.8 436.7 1272.4 436.9C1273 437.1 1273.2 438.5 1273.9 438.8C1274.6 439.1 1275.7 438.3 1276.2 438.6C1276.7 438.9 1276.8 440.3 1277.4 440.6C1278 440.9 1279.2 440.3 1279.8 440.7C1280.4 441.1 1280.2 442.5 1280.7 442.9C1281.2 443.3 1282.5 442.9 1283 443.4C1283.5 443.9 1283.1 445.2 1283.6 445.7C1284.1 446.2 1285.4 445.9 1285.8 446.5C1286.2 447.1 1285.7 448.3 1286.1 448.8C1286.5 449.3 1287.9 449.3 1288.2 449.8C1288.5 450.3 1287.9 451.6 1288.2 452.2C1288.5 452.8 1289.9 452.9 1290.1 453.5C1290.4 454.1 1289.5 455.2 1289.8 455.8C1290.1 456.4 1291.4 456.7 1291.6 457.4C1291.8 458.1 1290.8 459 1290.9 459.7C1291 460.4 1292.3 460.8 1292.4 461.5C1292.5 462.2 1291.4 463 1291.4 463.6C1291.4 464.2 1292.6 465 1292.6 465.6Z" fill="#989797"/>
<path d="M1262.2 486.1C1273.52 486.1 1282.7 476.922 1282.7 465.6C1282.7 454.278 1273.52 445.1 1262.2 445.1C1250.88 445.1 1241.7 454.278 1241.7 465.6C1241.7 476.922 1250.88 486.1 1262.2 486.1Z" fill="#CBCBCB"/>
<path d="M837.7 343.8C770.4 342.9 715.2 396.8 714.3 464.1C713.4 531.4 767.3 586.6 834.6 587.5C901.9 588.4 957.1 534.5 958 467.2C958.9 399.9 905 344.7 837.7 343.8ZM834.9 561.4C782 560.7 739.7 517.3 740.4 464.4C741.1 411.5 784.5 369.2 837.4 369.9C890.3 370.6 932.6 414 931.9 466.9C931.2 519.8 887.8 562.1 834.9 561.4Z" fill="#EAEAEA"/>
<path d="M836.1 482.6C845.488 482.6 853.1 474.989 853.1 465.6C853.1 456.211 845.488 448.6 836.1 448.6C826.711 448.6 819.1 456.211 819.1 465.6C819.1 474.989 826.711 482.6 836.1 482.6Z" fill="#8E822F"/>
<path d="M838.1 313.3C754 312.2 684.9 379.6 683.8 463.7C682.7 547.8 750 616.9 834.2 618C918.3 619.1 987.4 551.7 988.5 467.6C989.6 383.5 922.2 314.4 838.1 313.3ZM834.6 585.4C768.5 584.6 715.5 530.2 716.4 464.1C717.2 398 771.6 345 837.7 345.9C903.8 346.7 956.8 401 955.9 467.2C955 533.3 900.7 586.2 834.6 585.4Z" fill="#40376E"/>
<path d="M1263.7 343.8C1196.4 342.9 1141.2 396.8 1140.3 464.1C1139.4 531.4 1193.3 586.6 1260.6 587.5C1327.9 588.4 1383.1 534.5 1384 467.2C1384.9 399.9 1331 344.7 1263.7 343.8ZM1260.9 561.4C1208 560.7 1165.7 517.3 1166.3 464.4C1167 411.5 1210.4 369.2 1263.3 369.9C1316.2 370.6 1358.5 414 1357.9 466.9C1357.2 519.8 1313.8 562.1 1260.9 561.4Z" fill="#EAEAEA"/>
<path d="M1264.1 313.3C1180 312.2 1110.9 379.6 1109.8 463.7C1108.7 547.8 1176.1 616.9 1260.2 618C1344.3 619.1 1413.4 551.7 1414.5 467.6C1415.6 383.4 1348.2 314.4 1264.1 313.3ZM1260.6 585.4C1194.5 584.6 1141.5 530.2 1142.4 464.1C1143.2 398 1197.6 345 1263.7 345.9C1329.8 346.7 1382.8 401 1381.9 467.2C1381.1 533.3 1326.8 586.2 1260.6 585.4Z" fill="#40376E"/>
<path d="M867.2 231.4H809C804.5 231.4 800.8 235.1 800.8 239.6C800.8 241.8 801.7 243.9 803.2 245.4L835.2 277.4" stroke="#989797" stroke-width="10" stroke-miterlimit="10"/>
<path d="M1243.2 436.6L1095.9 452C1073.9 454.3 1057.2 472.9 1057.2 495C1057.2 519.9 1078.2 539.7 1103.1 538.2L1268.4 527.9C1284.5 526.9 1297 513.6 1297 497.5V494.2C1297 477.4 1283.3 463.7 1266.5 463.7V458.7" stroke="#313030" stroke-width="3" stroke-miterlimit="10"/>
<path d="M859.3 341.9L879.2 350.6C882.5 352 883.9 355.8 882.5 359.1L879.6 365.8C878.2 369.1 874.4 370.5 871.1 369.1L851.2 360.4C847.9 359 846.5 355.2 847.9 351.9L850.8 345.2C852.3 342 856 340.5 859.3 341.9Z" fill="#989797"/>
<path d="M845.9 231.4L874.1 241.4C887.7 246.2 891.6 263.6 881.4 273.8L879.1 276.1C872.9 282.3 872.9 292.5 879.1 298.7C890.2 309.8 890.6 327.7 880 339.3L865.3 355.4" stroke="#40376E" stroke-width="2" stroke-miterlimit="10"/>
<path d="M1270.4 457.4L1182.7 369.7C1173.3 360.3 1166.8 348.6 1163.8 335.9C1162.5 330.5 1161.8 324.9 1161.8 319.2V216.4H1138.5V261.4C1138.5 271.6 1130.2 279.9 1120 279.9H928C927.5 279.9 927.1 279.7 926.8 279.4C926.5 279.1 926.4 278.7 926.4 278.3C926.4 278.1 926.4 277.9 926.5 277.7L935.4 256.2C936 254.8 936.3 253.3 936.4 251.8C936.4 246.6 933.2 242.2 928.6 240.6L859.8 216.5C844.8 211.3 831.3 202.4 820.4 190.9C819.3 189.7 818.2 188.5 817.1 187.2L788 153L770.3 168.1L799.4 202.3C800.8 203.9 802.2 205.5 803.7 207.1C817.1 221.2 833.7 232 852.1 238.5L897.3 254.3C903.8 256.6 907.1 263.8 904.4 270.2L896 290.5L825.4 461.2L846.9 470.1L916.2 302.5L1092.5 500.6C1094.7 503.1 1097.9 504.5 1101.2 504.5C1101.9 504.5 1102.5 504.5 1103.1 504.3L1264.1 477C1268.4 476.3 1271.9 473.2 1273.3 469C1274.6 465 1273.5 460.5 1270.4 457.4ZM1097.8 371.2C1091.7 381 1088.6 392.3 1088.7 404.1L1089.1 441.1C1089.2 448.4 1080.2 451.8 1075.3 446.4L960.1 316.9C955.4 311.6 959.1 303.2 966.2 303.2H1115.3C1128.1 303.2 1138.4 313.5 1138.4 326.3C1138.4 335.3 1133.2 343.6 1125 347.3C1118.1 350.4 1111.8 354.7 1106.4 360.2C1103.1 363.5 1100.2 367.2 1097.8 371.2ZM1208.4 462.9L1112.7 479.1L1112.1 417L1112 403.7C1111.9 393.4 1115.8 383.8 1123.1 376.5C1129.1 370.5 1136.7 366.7 1144.9 365.6C1145.1 365.6 1145.4 365.5 1145.6 365.5L1216.8 436.7C1225.6 445.6 1220.8 460.8 1208.4 462.9Z" fill="#9B9835"/>
<path d="M904.3 270.2C906.9 263.8 903.7 256.6 897.2 254.3L852 238.5C833.6 232.1 817 221.3 803.6 207.1L820.3 190.9C831.2 202.4 844.7 211.2 859.7 216.5L928.5 240.6C933.1 242.2 936.3 246.5 936.3 251.8C936.3 253.3 935.9 254.8 935.3 256.2L926.4 277.7C926.3 277.9 926.3 278.1 926.3 278.3C926.3 278.7 926.5 279.1 926.7 279.4C927 279.8 927.5 279.9 927.9 279.9H990.1L896 290.5L904.3 270.2Z" fill="#8E822F"/>
<path d="M1163.8 335.9L1144.9 365.6C1136.6 366.7 1129 370.5 1123.1 376.5C1115.9 383.8 1111.9 393.5 1112 403.7L1112.1 417L1110.7 419.1L1097.8 371C1100.2 367.1 1103.1 363.4 1106.5 360C1112 354.5 1118.3 350.1 1125.1 347.1C1133.3 343.4 1138.5 335.1 1138.5 326.1C1138.5 313.3 1128.2 303 1115.4 303H1079.5L1073.2 279.7H1120C1130.2 279.7 1138.5 271.4 1138.5 261.2V216.1H1161.8V318.9C1161.8 324.9 1162.5 330.5 1163.8 335.9Z" fill="#8E822F"/>
<path d="M1146.8 496C1146.8 497.1 1144.9 498 1144.9 499.1C1144.9 500.2 1146.5 501.4 1146.4 502.4C1146.3 503.4 1144.3 504.2 1144.1 505.2C1143.9 506.2 1145.4 507.7 1145.1 508.7C1144.8 509.7 1142.8 510.2 1142.4 511.2C1142 512.2 1143.4 513.8 1142.9 514.8C1142.5 515.8 1140.4 515.9 1139.9 516.9C1139.4 517.9 1140.5 519.7 1140 520.5C1139.5 521.3 1137.3 521.3 1136.7 522.1C1136.1 522.9 1136.9 524.9 1136.3 525.7C1135.7 526.5 1133.6 526.1 1132.9 526.9C1132.2 527.7 1132.7 529.7 1132 530.4C1131.2 531.1 1129.2 530.4 1128.4 531.1C1127.6 531.8 1127.9 533.9 1127 534.5C1126.1 535.1 1124.3 534.2 1123.4 534.7C1122.5 535.2 1122.5 537.4 1121.6 537.8C1120.7 538.3 1118.9 537.1 1118 537.5C1117.1 537.9 1116.7 540 1115.7 540.4C1114.7 540.7 1113.2 539.3 1112.1 539.6C1111.1 539.9 1110.5 541.9 1109.5 542.1C1108.5 542.3 1107.1 540.7 1106.1 540.8C1105.1 540.9 1104.2 542.9 1103.2 542.9C1102.2 542.9 1101 541.2 1100 541.2C1099 541.2 1097.8 543 1096.8 542.9C1095.8 542.8 1094.9 540.9 1093.9 540.8C1092.9 540.7 1091.5 542.3 1090.5 542.1C1089.5 541.9 1088.9 539.9 1087.9 539.6C1086.9 539.3 1085.3 540.7 1084.3 540.4C1083.3 540.1 1083 538 1082 537.5C1081 537.1 1079.3 538.3 1078.4 537.8C1077.5 537.3 1077.5 535.2 1076.6 534.7C1075.7 534.2 1073.8 535.1 1073 534.5C1072.2 533.9 1072.4 531.8 1071.6 531.1C1070.8 530.4 1068.8 531.1 1068 530.4C1067.2 529.7 1067.8 527.6 1067.1 526.9C1066.4 526.1 1064.3 526.5 1063.7 525.7C1063.1 524.9 1063.9 522.9 1063.3 522.1C1062.7 521.3 1060.6 521.4 1060 520.5C1059.4 519.6 1060.5 517.8 1060.1 516.9C1059.7 516 1057.5 515.8 1057.1 514.8C1056.7 513.8 1058 512.2 1057.7 511.2C1057.4 510.2 1055.3 509.8 1055 508.7C1054.7 507.6 1056.2 506.2 1056 505.2C1055.8 504.2 1053.8 503.4 1053.7 502.4C1053.6 501.4 1055.3 500.1 1055.2 499.1C1055.1 498.1 1053.3 497.1 1053.3 496C1053.3 494.9 1055.2 494 1055.2 492.9C1055.3 491.8 1053.6 490.6 1053.7 489.6C1053.8 488.6 1055.8 487.8 1056 486.8C1056.2 485.8 1054.7 484.3 1055 483.3C1055.3 482.3 1057.3 481.8 1057.7 480.8C1058 479.8 1056.7 478.2 1057.2 477.2C1057.7 476.2 1059.7 476.1 1060.2 475.1C1060.7 474.1 1059.6 472.3 1060.1 471.5C1060.7 470.6 1062.8 470.7 1063.4 469.9C1064 469.1 1063.2 467.1 1063.8 466.3C1064.4 465.5 1066.5 465.9 1067.2 465.1C1067.9 464.3 1067.4 462.3 1068.1 461.6C1068.9 460.9 1070.9 461.6 1071.7 460.9C1072.5 460.2 1072.2 458.1 1073.1 457.5C1074 456.9 1075.8 457.9 1076.7 457.3C1077.6 456.7 1077.6 454.7 1078.5 454.2C1079.4 453.7 1081.2 454.9 1082.1 454.5C1083 454.1 1083.4 452 1084.4 451.6C1085.4 451.2 1086.9 452.7 1088 452.4C1089 452.1 1089.6 450.1 1090.6 449.9C1091.6 449.7 1093 451.3 1094 451.2C1095 451.1 1095.9 449.1 1096.9 449.1C1097.9 449.1 1099.1 450.8 1100.1 450.8C1101.1 450.8 1102.3 449 1103.3 449.1C1104.4 449.2 1105.2 451.1 1106.2 451.2C1107.2 451.3 1108.6 449.7 1109.6 449.9C1110.6 450.1 1111.2 452.1 1112.2 452.4C1113.2 452.7 1114.8 451.3 1115.8 451.6C1116.8 451.9 1117.1 454 1118.1 454.5C1119.1 455 1120.8 453.7 1121.7 454.2C1122.6 454.7 1122.6 456.8 1123.5 457.3C1124.4 457.8 1126.3 456.9 1127.1 457.5C1128 458.1 1127.7 460.2 1128.5 460.9C1129.3 461.6 1131.3 460.9 1132.1 461.6C1132.9 462.3 1132.3 464.4 1133 465.1C1133.7 465.8 1135.8 465.5 1136.4 466.3C1137 467.1 1136.2 469.1 1136.8 469.9C1137.4 470.7 1139.5 470.6 1140.1 471.5C1140.7 472.4 1139.6 474.2 1140 475.1C1140.5 476 1142.6 476.2 1143 477.2C1143.4 478.2 1142.1 479.8 1142.4 480.8C1142.7 481.8 1144.8 482.2 1145.1 483.3C1145.4 484.3 1143.9 485.8 1144.1 486.8C1144.3 487.8 1146.3 488.6 1146.4 489.6C1146.5 490.6 1144.8 491.9 1144.9 492.9C1145 494 1146.8 495 1146.8 496Z" fill="#989797"/>
<path d="M1119.1 214L1186.5 189.7C1193 187.3 1200.2 190.7 1202.6 197.3C1205.3 204.6 1200.5 212.8 1192.8 214L1122.1 225.4C1115 226.3 1112.5 216.5 1119.1 214Z" fill="#313030"/>
<path d="M1262.2 469.8C1264.52 469.8 1266.4 467.92 1266.4 465.6C1266.4 463.28 1264.52 461.4 1262.2 461.4C1259.88 461.4 1258 463.28 1258 465.6C1258 467.92 1259.88 469.8 1262.2 469.8Z" fill="#40376E"/>
<path d="M839.1 231.7C844.126 231.7 848.2 227.626 848.2 222.6C848.2 217.574 844.126 213.5 839.1 213.5C834.074 213.5 830 217.574 830 222.6C830 227.626 834.074 231.7 839.1 231.7Z" fill="#40376E"/>
<path d="M418.6 107.6L413.2 148.3L405.4 207.3L399.3 253.7L399.8 261.1C400.4 269.8 397.2 278.4 391 284.6L385 362.7L370.6 366.8L359.4 207.4L357.2 148.4L355.7 107.7L418.6 107.6Z" fill="#CC7E4A"/>
<path d="M431.7 133.6L405.5 207.3H359.5L357.3 148.3L431.7 133.6Z" fill="#8E822F"/>
<path d="M257 77.4L253.8 156.9L184.6 136L188.5 156.1C188.5 156.1 229.6 179.6 267.1 189.1C277.2 191.7 286.9 183.8 286.7 173.4L284.5 77.3C284.5 77.4 257 77.4 257 77.4Z" fill="#CC7E4A"/>
<path d="M1210.6 137.1V138C1210.6 155.4 1204.1 172.2 1192.3 185C1174.9 204 1148.1 233.1 1125.7 257.5C1120.3 263.3 1115.2 268.9 1110.5 274C1095.6 290.2 1085.2 301.6 1085.2 301.6C1093.1 301.6 1099.9 307 1101.7 314.7L1118.2 385.4L1132.7 447.4H1144.3C1146.3 447.4 1147.9 449.3 1147.4 451.3L1128 531.3C1127.2 534.6 1124.2 537 1120.8 537C1118.9 537 1117.2 536.3 1115.8 535.1C1114.5 533.9 1113.6 532.3 1113.4 530.4L1109.1 492.5C1107.9 481.7 1104.9 471.3 1100.2 461.5L1074 407.1L1040.1 336.6C1030.7 317 1027.9 295 1031.8 273.9V273.8C1033.3 266.1 1036.1 258.7 1040 251.9L1051.8 230.9L1093.9 155.9L1048 155.8L1024.3 155.7L1017.1 164.4L1009.2 173.9L960.1 233.3C955.1 239.3 946.9 241.5 939.6 238.9L847 206.3C843.7 205.1 840.1 204.9 836.7 205.7C824.7 208.5 814.6 210.8 808.3 212.2C804.1 213.2 799.8 211.3 797.5 207.6L791.4 197.6C791.4 197.6 808.9 182 806.5 177.7L802.9 171.3L819.8 171.4C826.2 171.5 832.3 174 836.8 178.5L838.4 180.1C840.6 182.3 843.6 183.6 846.7 183.6H930.1L929.4 164.4L929.1 156.3L926.1 68.3C962.8 51.9 1002 43.8 1041.2 43.8C1085.3 43.8 1129.3 54.1 1169.5 74.6C1170.8 75.3 1172.1 75.9 1173.3 76.5C1196.3 88.1 1210.6 111.4 1210.6 137.1Z" fill="#DDA25B"/>
<path d="M1210.6 137.1V138C1210.6 155.4 1204.1 172.2 1192.3 185C1174.9 204 1148.1 233.1 1125.7 257.5C1120.3 263.3 1115.2 268.9 1110.5 274L1051.7 231L1093.8 156H1093.4L1047.8 155.9L1024.1 155.8L1016.9 164.5H929.4L929.1 156.4L926.1 68.4C962.8 52 1002 43.9 1041.3 43.9C1076.5 43.9 1111.6 50.5 1144.8 63.6C1153.2 66.9 1161.5 70.6 1169.6 74.8C1170.9 75.5 1172.2 76.1 1173.4 76.7C1196.3 88.1 1210.6 111.5 1210.6 137.1Z" fill="#ABCAA6"/>
<path d="M1048 125.8V155.8H1024.3L1017.1 164.4L1048 125.8Z" fill="#6EAD6E"/>
<path d="M1017.1 164.4L1072.9 95.8" stroke="#3D8A3D" stroke-width="2" stroke-miterlimit="10"/>
<path d="M928.1 118.1L926.4 68.3" stroke="#37704C" stroke-width="2" stroke-miterlimit="10"/>
<path d="M889.4 183.6H954.5" stroke="#936431" stroke-width="2" stroke-miterlimit="10"/>
<path d="M1147.3 451.3L1127.9 531.4C1127.1 534.7 1124.1 537.1 1120.7 537.1C1118.8 537.1 1117.1 536.4 1115.7 535.2C1114.4 534 1113.5 532.4 1113.3 530.5L1109 492.6C1108.5 488.1 1107.7 483.6 1106.5 479.1C1104.9 473.1 1102.8 467.2 1100.1 461.6L1073.9 407.2L1118.1 385.4L1132.6 447.4H1144.2C1146.3 447.4 1147.8 449.3 1147.3 451.3Z" fill="#FFB2CC"/>
<path d="M1147.3 451.3L1127.9 531.4C1127.1 534.7 1124.1 537.1 1120.7 537.1C1118.8 537.1 1117.1 536.4 1115.7 535.2C1114.4 534 1113.5 532.4 1113.3 530.5L1109 492.6C1108.5 488.1 1107.7 483.6 1106.5 479.1H1127.5C1130.7 479.1 1132.2 475.3 1130 473.1L1127.8 470.9C1123.1 466.2 1122.8 458.7 1127.2 453.7L1132.6 447.5H1144.2C1146.3 447.4 1147.8 449.3 1147.3 451.3Z" fill="white"/>
<path d="M1210.6 137.1V138C1210.6 155.4 1204.1 172.2 1192.3 185C1174.9 204 1148.1 233.1 1125.7 257.5C1120.3 263.3 1115.2 268.9 1110.5 274L1051.7 231L1093.5 156L1145 63.6C1153.4 66.9 1161.7 70.6 1169.8 74.8C1171.1 75.5 1172.4 76.1 1173.6 76.7C1196.3 88.1 1210.6 111.5 1210.6 137.1Z" fill="#3D8A3D"/>
<path d="M1112.6 241.2C1128.45 241.2 1141.3 228.351 1141.3 212.5C1141.3 196.649 1128.45 183.8 1112.6 183.8C1096.75 183.8 1083.9 196.649 1083.9 212.5C1083.9 228.351 1096.75 241.2 1112.6 241.2Z" fill="#FFB2CC"/>
<path d="M957.6 141.6C963.233 141.6 967.8 137.033 967.8 131.4C967.8 125.767 963.233 121.2 957.6 121.2C951.967 121.2 947.4 125.767 947.4 131.4C947.4 137.033 951.967 141.6 957.6 141.6Z" fill="#FFB2CC"/>
<path d="M1008.5 128.8H971.8V134H1008.5V128.8Z" fill="#3D8A3D"/>
<path d="M1101.5 141.6L1145 63.5" stroke="#40376E" stroke-width="2" stroke-miterlimit="10"/>
<path d="M516.1 374.5C516.1 374.9 515.8 375.2 515.7 375.6C515.6 376 515.9 376.4 515.8 376.7C515.7 377 515.3 377.3 515.1 377.6C514.9 377.9 515 378.4 514.8 378.7C514.6 379 514.1 379.1 513.9 379.4C513.7 379.7 513.6 380.2 513.3 380.4C513 380.6 512.5 380.6 512.2 380.8C511.9 381 511.7 381.4 511.4 381.6C511.1 381.8 510.6 381.6 510.3 381.7C510 381.8 509.7 382.2 509.3 382.2C508.9 382.2 508.5 382 508.2 382C507.9 382 507.4 382.3 507.1 382.2C506.8 382.1 506.4 381.8 506.1 381.7C505.8 381.6 505.3 381.7 505 381.6C504.7 381.5 504.5 381 504.2 380.8C503.9 380.6 503.4 380.6 503.1 380.4C502.8 380.2 502.8 379.7 502.5 379.4C502.2 379.1 501.8 379 501.6 378.7C501.4 378.4 501.5 377.9 501.3 377.6C501.1 377.3 500.7 377 500.6 376.7C500.5 376.4 500.7 375.9 500.7 375.6C500.7 375.3 500.3 374.9 500.3 374.5C500.3 374.1 500.6 373.8 500.7 373.4C500.8 373 500.5 372.6 500.6 372.3C500.7 372 501.1 371.7 501.3 371.4C501.5 371.1 501.4 370.6 501.6 370.3C501.8 370 502.3 369.9 502.5 369.6C502.7 369.3 502.8 368.8 503.1 368.6C503.4 368.4 503.9 368.4 504.2 368.2C504.5 368 504.7 367.6 505 367.4C505.3 367.2 505.8 367.4 506.1 367.3C506.4 367.2 506.7 366.8 507.1 366.8C507.5 366.8 507.9 367 508.2 367C508.5 367 509 366.7 509.3 366.8C509.6 366.9 510 367.2 510.3 367.3C510.6 367.4 511.1 367.3 511.4 367.4C511.7 367.5 511.9 368 512.2 368.2C512.5 368.4 513 368.4 513.3 368.6C513.6 368.8 513.6 369.3 513.9 369.6C514.2 369.9 514.6 370 514.8 370.3C515 370.6 514.9 371.1 515.1 371.4C515.3 371.7 515.7 372 515.8 372.3C515.9 372.6 515.7 373.1 515.7 373.4C515.7 373.7 516.1 374.1 516.1 374.5Z" fill="#989797"/>
<path d="M519 341.7C519 342.2 518.2 342.6 518.2 343C518.2 343.4 518.9 344 518.9 344.4C518.9 344.8 518 345.2 517.9 345.6C517.8 346 518.5 346.7 518.4 347.1C518.3 347.5 517.4 347.7 517.2 348.2C517 348.7 517.6 349.3 517.4 349.8C517.2 350.3 516.3 350.3 516.1 350.7C515.9 351.1 516.4 351.9 516.1 352.3C515.8 352.7 514.9 352.6 514.7 353C514.5 353.4 514.8 354.2 514.5 354.6C514.2 355 513.3 354.8 513 355.1C512.7 355.4 512.9 356.3 512.6 356.6C512.3 356.9 511.4 356.6 511.1 356.9C510.8 357.2 510.9 358.1 510.5 358.4C510.1 358.7 509.3 358.3 508.9 358.5C508.5 358.7 508.5 359.6 508.1 359.9C507.7 360.2 507 359.6 506.5 359.8C506 360 506 360.9 505.5 361C505 361.1 504.4 360.5 504 360.7C503.6 360.9 503.3 361.7 502.9 361.8C502.5 361.9 501.9 361.2 501.4 361.3C500.9 361.4 500.6 362.2 500.1 362.2C499.6 362.2 499.2 361.4 498.7 361.4C498.2 361.4 497.8 362.2 497.3 362.2C496.8 362.2 496.5 361.3 496 361.3C495.5 361.3 495 361.9 494.5 361.8C494 361.7 493.8 360.8 493.4 360.7C493 360.6 492.3 361.2 491.9 361C491.5 360.8 491.3 359.9 490.9 359.8C490.5 359.7 489.7 360.1 489.3 359.9C488.9 359.7 488.9 358.8 488.5 358.5C488.1 358.2 487.3 358.7 486.9 358.4C486.5 358.1 486.7 357.2 486.3 356.9C485.9 356.6 485.1 356.9 484.8 356.6C484.5 356.3 484.7 355.4 484.4 355.1C484.1 354.8 483.2 355 482.9 354.6C482.6 354.2 483 353.4 482.7 353C482.4 352.6 481.5 352.7 481.3 352.3C481.1 351.9 481.5 351.1 481.3 350.7C481.1 350.3 480.2 350.2 480 349.8C479.8 349.4 480.4 348.7 480.2 348.2C480 347.7 479.2 347.6 479 347.1C478.8 346.6 479.5 346 479.5 345.6C479.5 345.2 478.5 344.8 478.5 344.4C478.5 344 479.2 343.4 479.1 343C479 342.6 478.3 342.1 478.3 341.7C478.3 341.3 479.1 340.8 479.1 340.4C479.1 340 478.4 339.4 478.5 339C478.6 338.6 479.4 338.2 479.5 337.8C479.6 337.4 478.9 336.7 479 336.3C479.1 335.9 480 335.7 480.2 335.2C480.4 334.7 479.8 334.1 480 333.6C480.2 333.1 481.1 333.1 481.3 332.7C481.5 332.3 481 331.5 481.3 331.1C481.6 330.7 482.4 330.8 482.7 330.4C483 330 482.6 329.2 482.9 328.8C483.2 328.4 484.1 328.6 484.4 328.3C484.7 328 484.5 327.1 484.8 326.8C485.1 326.5 486 326.8 486.3 326.5C486.6 326.2 486.5 325.3 486.9 325C487.3 324.7 488.1 325.1 488.5 324.9C488.9 324.7 488.9 323.8 489.3 323.5C489.7 323.2 490.4 323.8 490.9 323.6C491.4 323.4 491.4 322.5 491.9 322.4C492.4 322.3 493 322.9 493.4 322.7C493.8 322.5 494.1 321.7 494.5 321.6C494.9 321.5 495.5 322.2 496 322.1C496.5 322 496.8 321.2 497.3 321.2C497.8 321.2 498.2 322 498.7 322C499.2 322 499.6 321.2 500.1 321.2C500.6 321.2 500.9 322.1 501.4 322.1C501.9 322.1 502.4 321.5 502.9 321.6C503.4 321.7 503.6 322.6 504 322.7C504.4 322.8 505.1 322.2 505.5 322.4C505.9 322.6 506.1 323.5 506.5 323.6C506.9 323.7 507.7 323.3 508.1 323.5C508.5 323.7 508.5 324.6 508.9 324.9C509.3 325.2 510.1 324.7 510.5 325C510.9 325.3 510.7 326.2 511.1 326.5C511.5 326.8 512.3 326.5 512.6 326.8C512.9 327.1 512.7 328 513 328.3C513.3 328.6 514.2 328.4 514.5 328.8C514.8 329.2 514.4 330 514.7 330.4C515 330.8 515.9 330.7 516.1 331.1C516.3 331.5 515.9 332.3 516.1 332.7C516.3 333.1 517.2 333.2 517.4 333.6C517.6 334 517 334.7 517.2 335.2C517.4 335.7 518.2 335.8 518.4 336.3C518.6 336.8 517.9 337.4 517.9 337.8C517.9 338.2 518.9 338.6 518.9 339C518.9 339.4 518.2 340 518.2 340.4C518.2 340.8 519 341.2 519 341.7Z" fill="#CBCBCB"/>
<path d="M498.6 355.4C506.166 355.4 512.3 349.266 512.3 341.7C512.3 334.134 506.166 328 498.6 328C491.034 328 484.9 334.134 484.9 341.7C484.9 349.266 491.034 355.4 498.6 355.4Z" fill="#989797"/>
<path d="M215.1 260.3C170.2 259.7 133.3 295.7 132.7 340.7C132.1 385.7 168.1 422.6 213.1 423.1C258.1 423.7 295 387.7 295.5 342.7C296 297.7 260 260.8 215.1 260.3ZM213.2 405.6C177.9 405.1 149.6 376.1 150 340.8C150.4 305.5 179.5 277.2 214.8 277.6C250.1 278 278.4 307.1 278 342.4C277.6 377.7 248.6 406.1 213.2 405.6Z" fill="#FFB2CC"/>
<path d="M214 353C220.241 353 225.3 347.941 225.3 341.7C225.3 335.459 220.241 330.4 214 330.4C207.759 330.4 202.7 335.459 202.7 341.7C202.7 347.941 207.759 353 214 353Z" fill="#CBCBCB"/>
<path d="M215.3 239.9C159.1 239.2 112.9 284.2 112.2 340.4C111.5 396.6 156.5 442.8 212.7 443.5C268.9 444.2 315.1 399.2 315.8 343C316.5 286.8 271.5 240.6 215.3 239.9ZM213 421.7C168.8 421.1 133.4 384.9 134 340.7C134.6 296.5 170.8 261.1 215 261.7C259.2 262.3 294.6 298.5 294 342.7C293.5 386.9 257.2 422.2 213 421.7Z" fill="#313030"/>
<path d="M499.7 260.3C454.7 259.7 417.8 295.7 417.3 340.7C416.7 385.7 452.7 422.6 497.7 423.1C542.6 423.7 579.6 387.7 580.1 342.7C580.6 297.7 544.6 260.8 499.7 260.3ZM497.8 405.6C462.5 405.1 434.2 376.1 434.6 340.8C435.1 305.5 464.1 277.2 499.4 277.6C534.7 278 563 307.1 562.6 342.4C562.2 377.7 533.1 406.1 497.8 405.6Z" fill="#FFB2CC"/>
<path d="M499.9 239.9C443.7 239.2 397.5 284.2 396.8 340.4C396.1 396.6 441.1 442.8 497.3 443.5C553.5 444.2 599.7 399.2 600.4 343C601.1 286.8 556.1 240.6 499.9 239.9ZM497.6 421.7C453.4 421.1 418.1 384.9 418.6 340.7C419.2 296.5 455.4 261.1 499.6 261.7C543.8 262.3 579.1 298.5 578.6 342.7C578.1 386.9 541.8 422.2 497.6 421.7Z" fill="#313030"/>
<path d="M492.5 324L390.7 333.9C376.3 335.4 365.4 347.5 365.4 361.9C365.4 378.2 379.1 391.1 395.4 390L503.3 383.3C513.8 382.7 522 373.9 522 363.4V361.2C522 350.2 513.1 341.3 502.1 341.3V338.1" stroke="#313030" stroke-width="3" stroke-miterlimit="10"/>
<path d="M234.8 185.2H195.9C192.9 185.2 190.4 187.6 190.4 190.7C190.4 192.1 191 193.5 192 194.6L213.4 216" stroke="#989797" stroke-width="8" stroke-miterlimit="10"/>
<path d="M229.1 258.8L243.3 265C245.2 265.8 246.1 268.1 245.3 270L243 275.3C242.2 277.2 239.9 278.1 238 277.3L223.8 271.1C221.9 270.3 221 268 221.8 266.1L224.1 260.8C224.9 258.9 227.1 258 229.1 258.8Z" fill="#989797"/>
<path d="M220.6 185.2L239.4 191.9C248.5 195.1 251.1 206.7 244.3 213.6L242.7 215.2C238.5 219.4 238.5 226.1 242.7 230.3C250.1 237.7 250.4 249.7 243.3 257.4L233.5 268.1" stroke="white" stroke-width="2" stroke-miterlimit="10"/>
<path d="M504.1 336.2L445.5 277.6C436.5 268.6 431.5 256.5 431.5 243.8V175.1H416V205.2C416 212 410.5 217.6 403.6 217.6H275.4C275.1 217.6 274.8 217.5 274.6 217.2C274.3 216.9 274.2 216.4 274.4 216.1L280.4 201.7C280.8 200.8 281 199.8 281 198.8C281 195.3 278.8 192.4 275.8 191.3L229.9 175.2C218.8 171.3 209 164.6 201.4 155.7L182 132.8L170 142.9L189.4 165.8C198.8 176.8 211 185.2 224.6 189.9L254.8 200.5C259.1 202 261.3 206.9 259.5 211.1L206.7 338.7L221.1 344.7L267.4 232.8L385.2 365.2C386.7 366.9 388.8 367.8 391 367.8C391.4 367.8 391.9 367.8 392.3 367.7L499.8 349.5C502.7 349 505 347 505.9 344.2C506.9 341.3 506.2 338.2 504.1 336.2ZM416 248.6C416 254.6 412.5 260.1 407 262.6C402.4 264.6 398.2 267.6 394.5 271.2C386.7 279.1 382.5 289.4 382.6 300.5L382.8 325.2C382.8 330.1 376.8 332.4 373.6 328.7L296.7 242.2C293.6 238.7 296.1 233.1 300.8 233.1H400.4C409.1 233.2 416 240.1 416 248.6ZM398.8 350.7L398.3 300.3C398.2 293.4 400.8 287 405.7 282.1C409.8 278 415.1 275.4 420.8 274.7L468.3 322.2C474.2 328.1 471 338.3 462.7 339.7L398.8 350.7Z" fill="#F26533"/>
<path d="M421.6 362C421.6 362.7 420.4 363.4 420.3 364.1C420.2 364.8 421.4 365.6 421.3 366.3C421.2 367 419.9 367.5 419.7 368.2C419.5 368.9 420.6 369.9 420.4 370.5C420.2 371.1 418.8 371.5 418.6 372.1C418.4 372.7 419.2 373.9 419 374.5C418.8 375.1 417.3 375.3 417 375.9C416.7 376.5 417.4 377.7 417 378.3C416.6 378.9 415.2 378.8 414.8 379.4C414.4 380 414.9 381.3 414.5 381.8C414.1 382.3 412.7 382.1 412.2 382.6C411.7 383.1 412.1 384.5 411.6 385C411.1 385.5 409.8 385 409.2 385.5C408.6 386 408.8 387.3 408.3 387.7C407.8 388.1 406.5 387.5 405.9 387.8C405.3 388.1 405.3 389.6 404.7 389.9C404.1 390.2 402.9 389.4 402.3 389.7C401.7 390 401.5 391.4 400.8 391.6C400.1 391.8 399.1 390.9 398.4 391.1C397.7 391.3 397.3 392.6 396.6 392.8C395.9 393 395 391.9 394.3 391.9C393.6 391.9 393 393.3 392.3 393.3C391.6 393.3 390.9 392.2 390.2 392.2C389.5 392.2 388.7 393.4 388.1 393.3C387.5 393.2 386.8 392 386.1 391.9C385.4 391.8 384.5 392.9 383.8 392.8C383.1 392.7 382.7 391.3 382 391.1C381.3 390.9 380.3 391.9 379.6 391.6C378.9 391.3 378.7 390 378.1 389.7C377.5 389.4 376.3 390.2 375.7 389.9C375.1 389.6 375.1 388.2 374.5 387.8C373.9 387.4 372.6 388.1 372.1 387.7C371.5 387.3 371.7 385.9 371.2 385.5C370.7 385.1 369.3 385.5 368.8 385C368.3 384.5 368.7 383.2 368.2 382.6C367.7 382.1 366.3 382.4 365.9 381.8C365.5 381.2 366 380 365.6 379.4C365.2 378.8 363.8 378.9 363.4 378.3C363 377.7 363.8 376.5 363.4 375.9C363 375.3 361.7 375.2 361.4 374.5C361.1 373.8 362 372.8 361.8 372.1C361.6 371.4 360.2 371.1 360 370.5C359.8 369.9 360.8 368.9 360.7 368.2C360.6 367.5 359.2 367 359.1 366.3C359 365.6 360.1 364.8 360.1 364.1C360.1 363.4 358.8 362.7 358.8 362C358.8 361.3 360 360.6 360.1 359.9C360.1 359.2 359 358.4 359.1 357.7C359.2 357 360.5 356.5 360.7 355.8C360.9 355.1 359.8 354.1 360 353.5C360.2 352.9 361.6 352.5 361.8 351.9C362 351.3 361.2 350.1 361.4 349.5C361.6 348.9 363.1 348.7 363.4 348.1C363.7 347.5 363 346.3 363.4 345.7C363.8 345.1 365.2 345.2 365.6 344.6C366 344 365.5 342.7 365.9 342.2C366.3 341.7 367.7 341.9 368.2 341.4C368.7 340.9 368.3 339.5 368.8 339C369.3 338.5 370.6 339 371.2 338.5C371.8 338 371.6 336.7 372.1 336.3C372.6 335.9 373.9 336.5 374.5 336.2C375.1 335.9 375.1 334.4 375.7 334.1C376.3 333.8 377.5 334.6 378.1 334.3C378.7 334 378.9 332.6 379.6 332.4C380.3 332.2 381.3 333.1 382 332.9C382.7 332.7 383.1 331.4 383.8 331.2C384.5 331 385.4 332.1 386.1 332.1C386.8 332 387.4 330.7 388.1 330.7C388.8 330.7 389.5 331.8 390.2 331.8C390.9 331.8 391.7 330.6 392.3 330.7C392.9 330.8 393.6 332 394.3 332.1C395 332.2 395.9 331.1 396.6 331.2C397.3 331.3 397.7 332.7 398.4 332.9C399.1 333.1 400.1 332.1 400.8 332.4C401.5 332.7 401.7 334 402.3 334.3C402.9 334.6 404.1 333.8 404.7 334.1C405.3 334.4 405.3 335.8 405.9 336.2C406.5 336.6 407.8 335.9 408.3 336.3C408.8 336.7 408.7 338.1 409.2 338.5C409.7 338.9 411.1 338.5 411.6 339C412.1 339.5 411.7 340.8 412.2 341.4C412.7 341.9 414.1 341.6 414.5 342.2C414.9 342.8 414.4 344 414.8 344.6C415.2 345.2 416.6 345.1 417 345.7C417.4 346.3 416.6 347.5 417 348.1C417.4 348.7 418.7 348.8 419 349.5C419.3 350.2 418.4 351.2 418.6 351.9C418.8 352.6 420.2 352.9 420.4 353.5C420.6 354.1 419.6 355.1 419.7 355.8C419.8 356.5 421.2 357 421.3 357.7C421.4 358.4 420.3 359.2 420.3 359.9C420.3 360.6 421.6 361.3 421.6 362Z" fill="#CBCBCB"/>
<path d="M390.2 383.1C401.853 383.1 411.3 373.653 411.3 362C411.3 350.347 401.853 340.9 390.2 340.9C378.547 340.9 369.1 350.347 369.1 362C369.1 373.653 378.547 383.1 390.2 383.1Z" fill="#989797"/>
<path d="M396.8 181.6L441.8 165.2C452.7 161.7 458.3 177 447.7 181.4C447.2 181.6 446.6 181.7 446.1 181.8L398.8 189.3C394 190.1 392.3 183.3 396.8 181.6Z" fill="#313030"/>
<path d="M498.6 344.5C500.146 344.5 501.4 343.246 501.4 341.7C501.4 340.154 500.146 338.9 498.6 338.9C497.053 338.9 495.8 340.154 495.8 341.7C495.8 343.246 497.053 344.5 498.6 344.5Z" fill="#989797"/>
<path d="M214 344.5C215.547 344.5 216.8 343.246 216.8 341.7C216.8 340.154 215.547 338.9 214 338.9C212.454 338.9 211.2 340.154 211.2 341.7C211.2 343.246 212.454 344.5 214 344.5Z" fill="#989797"/>
<path d="M220.6 190.8C223.693 190.8 226.2 188.293 226.2 185.2C226.2 182.107 223.693 179.6 220.6 179.6C217.507 179.6 215 182.107 215 185.2C215 188.293 217.507 190.8 220.6 190.8Z" fill="#313030"/>
<path d="M250.2 83.1L225.7 82.3C223.8 82.2 221.9 82.9 220.5 84.1L217.4 86.7C213.8 89.8 208.3 89.3 205.3 85.7L197.2 76.1L193 77.6C191.9 78 190.9 76.7 191.6 75.7L192.8 74.1C194 72.5 194.7 70.6 195 68.7L197.1 52.9C199.1 45.1 205.7 39.3 213.7 38.2L214.2 38.1C227.7 36.4 239.1 47.8 237.4 61.2L237.3 62L240.1 66.4L247.3 63.8L250.2 83.1Z" fill="#FFAF78"/>
<path d="M193.6 56.8L201.1 62.3C206.9 66.5 215 65.2 219 59.2C219.6 58.4 220.6 58 221.6 58.2C223.1 58.6 223.9 60.3 223.2 61.6L222 64C222 64 231.6 77.9 242 69.9C244.9 67.7 243.8 63.2 240.3 62.4L242.2 58.2C242.5 57.6 241.8 57 241.2 57.3L236.6 59.7C236.7 59.7 247.2 37.4 193.6 56.8Z" fill="#F26533"/>
<path d="M200.5 72.4C201.9 72.4 203.3 71.8 204.3 70.8L211.9 63.2C213.5 61.6 215.6 60.8 217.8 60.8V58.6H193.3L195.1 68.1C195.7 70.5 197.9 72.4 200.5 72.4Z" fill="#313030"/>
<path d="M215.3 87.9L214.2 54.6L229.5 52.5L220.4 84.1L215.3 87.9Z" stroke="#0B1D46" stroke-linejoin="round"/>
<path d="M245.5 60.6C245.5 60.6 244.5 42.8 218.1 34.4C202.5 29.4 188.1 44.7 193.6 60.1C193.6 60.2 229.1 60.6 245.5 60.6Z" fill="white"/>
<path d="M392.9 366.9L395.7 339.5" stroke="#025F95" stroke-width="3" stroke-miterlimit="10"/>
<path d="M399 311.7L392.2 361.7C392.1 362.8 391.5 363.7 390.8 364.4C390.1 365.1 389 365.5 388 365.5C385.9 365.5 384.1 364 383.8 361.9L379 331.7L378.9 331C377.9 324.4 374.9 318.3 370.3 313.5L362.7 305.3L376.9 289.4L389.8 311.8H399V311.7Z" fill="#313030"/>
<path d="M399 311.7L392.2 361.7C392.1 362.8 391.5 363.7 390.8 364.4C390.1 365.1 389 365.5 388 365.5C385.9 365.5 384.1 364 383.8 361.9L379 331.7L389.8 320.9V311.7H399Z" fill="white"/>
<path d="M399 325.6L403 326.1C404.5 326.3 405.5 327.6 405.3 329.1L402.3 351.1C402.1 352.6 400.8 353.6 399.3 353.4L395.3 352.9C393.8 352.7 392.8 351.4 393 349.9L396 327.9C396.2 326.4 397.5 325.4 399 325.6Z" fill="#5B8AEE"/>
<path d="M213 443.5H449.7C463 443.5 468.5 426.5 457.7 418.7C451.8 414.4 443.7 415.5 439.1 421.1L428.9 433.6L411.5 422.2C395.9 412 376.1 410.7 359.4 418.9L329.5 433.6L324.4 429.9C314.4 422.6 301.6 420.1 289.7 423.3L213 443.5Z" fill="white"/>
<path d="M440.4 114.9C440.4 127.8 434.8 140.1 424.9 148.6L371 195L334.2 226.6L341.3 229.2C345.7 230.8 349.3 234 351.4 238.2L376.9 289.4L362.7 305.3L293.7 225C286.2 216.3 286.7 203.3 294.8 195.1L333 156.9L347 142.9C349.8 140.1 351.2 136.4 351.2 132.7C351.2 129 349.8 125.3 347 122.5C344.3 119.8 340.6 118.3 336.8 118.3H313.5C302.8 118.3 293.3 124 288 132.8C286.6 135.1 285.6 137.6 284.9 140.2V140.3L277.2 169.8C274.4 180.3 262.9 185.9 252.9 181.6L202.6 159.7C199.3 158.3 195.4 159 192.8 161.5L189.5 164.7C188.6 165.6 187.1 165.6 186.2 164.7L181.6 160.3C181 159.7 180.8 159 180.9 158.2L191.9 143.4C193.9 140.7 197.2 139.5 200.5 140.2L230 146.9L249.8 151.7V151.6L250.2 144.9L251 132.6L253.9 89.4H244.3V60.4H257.2C258.9 50.4 268.6 43.9 278.5 45.8L404.8 71C415.2 73.1 424.1 78.7 430.4 86.4C436.7 94.4 440.4 104.3 440.4 114.9Z" fill="#FFAF78"/>
<path d="M293.6 225C286.1 216.3 286.6 203.3 294.7 195.1" stroke="#7F4232" stroke-width="2" stroke-miterlimit="10"/>
<path d="M440.4 114.9C440.4 127.8 434.8 140.1 424.9 148.6L371 195L333 157L347 143C349.8 140.2 351.2 136.5 351.2 132.8C351.2 129.1 349.8 125.4 347 122.6C345.6 121.2 344 120.2 342.2 119.4C340.5 118.7 338.7 118.3 336.8 118.3H313.5C302.8 118.3 293.3 124 288 132.8H251L253.9 89.6H244.3V60.6H257.2C258.9 50.6 268.6 44.1 278.5 46L387.3 67.7L392.7 68.8L404.8 71.2C415.2 73.3 424.1 78.9 430.4 86.6C436.7 94.4 440.4 104.3 440.4 114.9Z" fill="#9B9835"/>
<path d="M343.2 167.2L389.6 120.8C393.8 116.6 400.7 116.6 405 120.8C409.2 125 409.2 131.9 405 136.2L358.6 182.6L343.2 167.2Z" fill="#8E822F"/>
<path d="M253.9 89.6L257.1 60.6L244.2 89.6H253.9Z" fill="#8E822F"/>
<path d="M45.8998 233.6H159.9C162 233.6 162.7 230.8 160.9 229.8L123.4 208.9C112.2 202.7 98.3998 203.6 88.1998 211.3L74.1998 221.9C70.1998 224.9 65.0998 225.7 60.3998 224.1L48.0998 220C45.3998 219.1 42.3998 219.9 40.5998 222.1C36.6998 226.6 39.8998 233.6 45.8998 233.6Z" fill="#F7D857"/>
<path d="M496.8 128.2H680.4C681.5 128.2 681.8 126.7 680.8 126.3L630.2 104.3C619 99.4 606.3 100 595.6 105.7L577.7 115.3C573.4 117.6 568.2 118 563.6 116.5L538.4 108C530 105.2 520.7 106.8 513.8 112.4L496.3 126.5C495.5 127 495.9 128.2 496.8 128.2Z" fill="#F7D857"/>
<path d="M288 132.8C286.6 135.1 285.6 137.6 284.9 140.2L250.2 145.1L251 132.8H288Z" fill="#CC7E4A"/>
<path d="M333 156.9L371 195L355.8 208.1L318.8 171.1L333 156.9Z" fill="#CC7E4A"/>
<path d="M295.5 119.4L303.2 89.6" stroke="#8E822F" stroke-width="2" stroke-miterlimit="10"/>
<path d="M253.2 102.6L257.8 58.2" stroke="#8E822F" stroke-width="2" stroke-miterlimit="10"/>
<path d="M678.9 348.3L643 384.9C642 385.9 640.4 384.7 641.2 383.5L668.5 339.6C672.1 342.2 675.6 345.1 678.9 348.3Z" fill="#6EAD6E"/>
<path d="M392.6 68.9L342.2 119.3C340.5 118.6 338.7 118.2 336.8 118.2L387.3 67.7L392.6 68.9Z" fill="#313030"/>
<path d="M227.6 146.5L264.4 155.5" stroke="#7F4232" stroke-width="2" stroke-miterlimit="10"/>
</g>
</g>
<defs>
<clipPath id="clip0_1528_80443">
<rect width="1335" height="464" fill="white"/>
</clipPath>
</defs>
</svg>
