<svg width="1335" height="464" viewBox="0 0 1335 464" fill="none" xmlns="http://www.w3.org/2000/svg">
<g clip-path="url(#clip0_1528_78940)">
<rect width="1335" height="464" fill="#C4E2F6"/>
<mask id="mask0_1528_78940" style="mask-type:luminance" maskUnits="userSpaceOnUse" x="0" y="0" width="1335" height="464">
<path d="M1335 0H0V464H1335V0Z" fill="white"/>
</mask>
<g mask="url(#mask0_1528_78940)">
<path d="M1335 -0.100098H0V464.1H1335V-0.100098Z" fill="#D9EFF2"/>
<path d="M1389.7 600.4H1388.7V-141.3H-53.2002V600.4H-54.2002V-142.3H1389.7V600.4Z" fill="#C4E2F6"/>
<path d="M1389.2 43.7C1389.2 43.1 1388.7 42.7 1388.2 42.7H1102.6C1102.1 42.7 1101.6 42.2 1101.6 41.7V-140.9C1101.6 -141.5 1101.2 -141.9 1100.6 -141.9C1100.1 -141.9 1099.6 -141.5 1099.6 -140.9V41.7C1099.6 42.2 1099.2 42.7 1098.6 42.7H814C813.5 42.7 813 42.2 813 41.7V-140.9C813 -141.5 812.6 -141.9 812 -141.9C811.5 -141.9 811 -141.5 811 -140.9V41.7C811 42.2 810.6 42.7 810 42.7H525.5C525 42.7 524.5 42.2 524.5 41.7V-140.9C524.5 -141.5 524.1 -141.9 523.5 -141.9C523 -141.9 522.5 -141.5 522.5 -140.9V41.7C522.5 42.2 522.1 42.7 521.5 42.7H236.9C236.3 42.7 235.9 42.2 235.9 41.7V-140.9C235.9 -141.5 235.5 -141.9 234.9 -141.9C234.3 -141.9 233.9 -141.5 233.9 -140.9V41.7C233.9 42.2 233.5 42.7 232.9 42.7H-52.7002C-53.2002 42.7 -53.7002 43.1 -53.7002 43.7C-53.7002 44.2 -53.2002 44.7 -52.7002 44.7H232.9C233.5 44.7 233.9 45.1 233.9 45.7V227.3C233.9 227.9 233.5 228.3 232.9 228.3H-52.7002C-53.2002 228.3 -53.7002 228.7 -53.7002 229.3C-53.7002 229.9 -53.2002 230.3 -52.7002 230.3H232.9C233.5 230.3 233.9 230.7 233.9 231.3V412.9C233.9 413.5 233.5 413.9 232.9 413.9H-52.7002C-53.2002 413.9 -53.7002 414.4 -53.7002 414.9C-53.7002 415.5 -53.2002 415.9 -52.7002 415.9H232.9C233.5 415.9 233.9 416.4 233.9 416.9V599.5C233.9 600 234.3 600.5 234.9 600.5C235.5 600.5 235.9 600 235.9 599.5V416.8C235.9 416.3 236.3 415.8 236.9 415.8H521.5C522 415.8 522.5 416.3 522.5 416.8V599.4C522.5 599.9 522.9 600.4 523.5 600.4C524 600.4 524.5 599.9 524.5 599.4V416.8C524.5 416.3 524.9 415.8 525.5 415.8H810C810.5 415.8 811 416.3 811 416.8V599.4C811 599.9 811.4 600.4 812 600.4C812.5 600.4 813 599.9 813 599.4V416.8C813 416.3 813.4 415.8 814 415.8H1098.6C1099.2 415.8 1099.6 416.3 1099.6 416.8V599.4C1099.6 599.9 1100.1 600.4 1100.6 600.4C1101.2 600.4 1101.6 599.9 1101.6 599.4V416.8C1101.6 416.3 1102.1 415.8 1102.6 415.8H1388.2C1388.7 415.8 1389.2 415.4 1389.2 414.8C1389.2 414.3 1388.7 413.8 1388.2 413.8H1102.6C1102.1 413.8 1101.6 413.4 1101.6 412.8V231.3C1101.6 230.7 1102.1 230.3 1102.6 230.3H1388.2C1388.7 230.3 1389.2 229.9 1389.2 229.3C1389.2 228.7 1388.7 228.3 1388.2 228.3H1102.6C1102.1 228.3 1101.6 227.9 1101.6 227.3V45.7C1101.6 45.1 1102.1 44.7 1102.6 44.7H1388.2C1388.7 44.7 1389.2 44.3 1389.2 43.7ZM811 45.7V227.3C811 227.9 810.6 228.3 810 228.3H525.5C525 228.3 524.5 227.9 524.5 227.3V45.7C524.5 45.1 525 44.7 525.5 44.7H810C810.6 44.7 811 45.2 811 45.7ZM236.9 44.7H521.5C522.1 44.7 522.5 45.1 522.5 45.7V227.3C522.5 227.9 522.1 228.3 521.5 228.3H236.9C236.3 228.3 235.9 227.9 235.9 227.3V45.7C235.9 45.2 236.3 44.7 236.9 44.7ZM235.9 412.8V231.3C235.9 230.7 236.4 230.3 236.9 230.3H521.5C522.1 230.3 522.5 230.7 522.5 231.3V412.9C522.5 413.5 522.1 413.9 521.5 413.9H236.9C236.3 413.8 235.9 413.4 235.9 412.8ZM524.5 412.8V231.3C524.5 230.7 525 230.3 525.5 230.3H810C810.6 230.3 811 230.7 811 231.3V412.9C811 413.5 810.6 413.9 810 413.9H525.5C524.9 413.8 524.5 413.4 524.5 412.8ZM1098.6 413.8H814C813.5 413.8 813 413.4 813 412.8V231.3C813 230.7 813.5 230.3 814 230.3H1098.6C1099.2 230.3 1099.6 230.7 1099.6 231.3V412.9C1099.6 413.4 1099.2 413.8 1098.6 413.8ZM1098.6 228.3H814C813.5 228.3 813 227.9 813 227.3V45.7C813 45.1 813.5 44.7 814 44.7H1098.6C1099.2 44.7 1099.6 45.1 1099.6 45.7V227.3C1099.6 227.8 1099.2 228.3 1098.6 228.3Z" fill="#C4E2F6"/>
<path d="M1015 455.3C1005.5 455.3 996.7 450.1 992.2 441.7L952.4 368.5C947.9 360.2 936.099 360 931.299 368.1L886.499 443C881.899 450.6 873.699 455.3 864.799 455.3C853.599 455.3 843.699 447.9 840.599 437.1L768.4 190.5C751.5 132.8 799.499 76.9 859.099 84.7L929.499 94L1004.4 86.6C1074.2 79.7 1128.6 146 1108.1 213.1L1039.9 436.9C1036.5 447.8 1026.4 455.3 1015 455.3Z" fill="white"/>
<path d="M1125.9 255.4L1124.2 251.9C1123.9 251.3 1123.8 250.8 1123.7 250.1L1123.6 248.5C1123.4 246 1122.2 243.8 1120.1 242.5L1116.3 239.7L1117.3 245.8L1115.7 237.9C1112.4 237.9 1113.2 249.2 1113.2 249.2C1113.3 251.5 1114.6 253.6 1116.7 254.6L1118 255.3C1119 255.8 1119.7 256.6 1120.1 257.6L1120.2 257.9L1125.9 255.4Z" fill="#FDB0B4"/>
<path d="M1118.4 262.8L1116.9 258.7L1128.1 253.8L1130.1 258.7L1118.4 262.8Z" fill="#FDEBF6"/>
<path d="M1081.8 446.7L1095.4 424L1108 431.3L1098.3 448.7C1097.7 449.8 1096.5 450.5 1095.3 450.5H1081.7L1081.8 446.7Z" fill="#FFC033"/>
<path d="M1083.9 438.7C1082.3 443.2 1078 446.2 1073.2 446.2H1070.6C1068.1 446.2 1066.1 448.2 1066.1 450.7C1066.1 453.2 1068.1 455.2 1070.6 455.2H1096.3C1097.7 455.2 1098.9 454 1098.9 452.6V450.3H1091.9C1088.4 450.3 1085.6 447.5 1085.6 444V439C1085.6 438 1084.2 437.8 1083.9 438.7Z" fill="#313030"/>
<path d="M1175.2 446.7L1169.6 423.2L1182.2 430.5L1190.8 450.4H1175.2V446.7Z" fill="#FFC033"/>
<path d="M1172.6 442.1C1172 444.5 1169.8 446.2 1167.3 446.2H1163.9C1161.4 446.2 1159.4 448.2 1159.4 450.7C1159.4 453.2 1161.4 455.2 1163.9 455.2H1192.2V450.4H1185.1C1181.3 450.4 1178 448.1 1176.6 444.6L1175.5 441.8C1175.1 440.4 1173 440.6 1172.6 442.1Z" fill="#313030"/>
<path d="M1195 255.5C1183 249.8 1170.3 246 1174.1 233.2C1175.5 228.5 1180.7 216 1188.8 214.8C1202.6 212.8 1212.2 228 1204.7 260.1L1195 255.5Z" fill="#6D3C1D"/>
<path d="M1159.5 279L1098.9 377.7C1098.9 377.7 1127.5 412.4 1197.8 412.4L1188.7 279H1159.5Z" fill="#49BBFF"/>
<path fill-rule="evenodd" clip-rule="evenodd" d="M1153.3 292.8L1201.5 307.5L1177.1 370C1174.5 376.6 1174.5 383.9 1177 390.6L1191.8 429.8L1164.7 440L1149.9 400.8C1146.3 391.1 1145.3 380.7 1147 370.7L1111.9 441.4L1085.9 428.5L1153.3 292.8Z" fill="#0053AB"/>
<path d="M752.499 436.5C748.299 447.4 737.799 455.2 725.199 455.2H649.599C633.499 455.2 620.399 442.1 620.399 426V347C620.399 330.9 633.499 317.8 649.599 317.8H716.299C731.199 317.8 743.599 329 745.299 343.7L753.699 417.7L754.299 422.9C754.799 427.6 754.099 432.3 752.499 436.5Z" fill="#FFAECD"/>
<path d="M752.5 436.5L743.6 427.6L753.6 417.6L754.2 422.8C754.8 427.6 754.1 432.3 752.5 436.5Z" fill="#FF5799"/>
<path d="M690.5 397.3C700.1 397.3 707.9 389.5 707.9 379.9C707.9 370.3 700.1 362.5 690.5 362.5C680.9 362.5 673.1 370.3 673.1 379.9C673 389.5 680.8 397.3 690.5 397.3Z" fill="#FF7CAE"/>
<path d="M690.5 385.7C693.7 385.7 696.3 383.1 696.3 379.9C696.3 376.7 693.7 374.1 690.5 374.1C687.3 374.1 684.7 376.7 684.7 379.9C684.6 383.1 687.2 385.7 690.5 385.7Z" fill="#005159"/>
<path d="M970.1 103.9C973.7 102.6 977.1 100.5 980.1 97.5999C991.3 86.8999 991.5 68.6999 980.6 57.7999C975 52.1999 967.6 49.4999 960.2 49.6999C956.3 49.7999 953.1 46.6999 952.9 42.7999C952.6 35.4999 949.5 28.3999 943.6 23.0999C933 13.5999 916.7 13.7999 906.2 23.4999C894.5 34.2999 894.3 52.4999 905.4 63.5999C913.1 71.2999 924.3 73.5999 934 70.2999C931.9 77.8999 933.2 86.2999 937.7 93.0999C930.8 93.9999 924.2 96.7999 918.6 101.3C917.7 95.3999 915 89.7999 910.4 85.3999C899.9 75.1999 882.9 74.9999 872.2 84.9999C860.6 95.7999 860.3 114 871.4 125.1L871.5 125.2C875.6 129.3 877.1 135.3 875.1 140.7C871.4 150.6 873.6 162.1 881.5 170.1C888.4 177 898.1 179.5 907 177.6C903.1 181.7 900.8 187.4 901.3 193.6C902 203.8 910.3 212.1 920.6 212.8C932.8 213.6 942.9 204 942.9 192C942.9 191.6 942.9 191.3 942.9 190.9C950.2 193.4 958.5 191.7 964.3 185.9C970.3 179.9 971.9 171.1 969 163.6C968.3 161.8 968.7 159.8 970.1 158.4C985.1 143.3 985.1 118.9 970.1 103.9ZM901.3 193.4C902 203.6 910.3 211.9 920.6 212.6L901.3 193.4ZM907.1 177.5C903.2 181.6 900.9 187.3 901.4 193.5L907.1 177.5Z" fill="#9CCEEF"/>
<path d="M949.399 189.5V187.5C958.899 187.5 966.599 179.8 966.599 170.3C966.599 160.8 958.899 153.1 949.399 153.1V151.1C959.999 151.1 968.599 159.7 968.599 170.3C968.599 180.9 959.999 189.5 949.399 189.5Z" fill="#00ABFF"/>
<path d="M922.1 213.7C910.1 213.7 900.3 203.9 900.3 191.9H902.3C902.3 202.8 911.2 211.7 922.1 211.7V213.7Z" fill="#00ABFF"/>
<path d="M870.2 114.9C864.3 104.7 867.8 91.6 878 85.6L879 87.3C869.7 92.7 866.5 104.6 871.9 113.8L870.2 114.9Z" fill="#00ABFF"/>
<path d="M1163.4 270L1149.4 301.5L1191.6 314.6L1202.7 269.9L1167.9 257.1L1163.4 270Z" fill="#A5D9EC"/>
<path d="M1197.8 412.3L1152.5 418.1L1164.4 325.3L1166.2 311.4L1169.5 285.9L1190.8 294.4L1192.1 317L1194.4 356.3L1197.8 412.3Z" fill="#9CCEEF"/>
<path d="M1194.5 356.2L1164.5 325.2L1166.3 311.3L1192.2 316.8L1194.5 356.2Z" fill="#3A9EE0"/>
<path d="M1191.7 331C1189.5 331 1187.3 330.5 1185.3 329.4L1143.5 307.6C1141.8 308.1 1139.9 308.3 1138.1 308.1C1133.4 307.5 1129.4 304.5 1127.5 300.1L1112.2 264.1L1136.5 253.7L1142.8 268.6L1153.4 254.4C1153.7 254 1154 253.6 1154.4 253.2C1161.2 245.9 1171.9 243.9 1180.9 248.2L1202.8 258.6C1212.9 263.4 1218.1 274.7 1215.1 285.5L1205.3 320.7C1204.2 324.8 1201.3 328.1 1197.4 329.8C1195.5 330.6 1193.6 331 1191.7 331ZM1161.8 287.4L1183.9 298.9L1188.8 281.3L1172.2 273.5L1161.8 287.4Z" fill="#9CCEEF"/>
<path d="M1236.3 404.1C1212.8 386.3 1191.7 366.6 1173.4 345.6C1153.7 323 1139.4 301.9 1129.4 281.1C1117.2 255.7 1111.3 230.4 1111.4 203.9V182C1111.4 128.4 1067.8 84.7999 1014.2 84.7999H986.399V82.7999H1014.2C1068.9 82.7999 1113.4 127.3 1113.4 182V204C1113.3 230.2 1119.1 255.1 1131.2 280.3C1141.1 300.9 1155.4 321.8 1174.9 344.3C1193.1 365.2 1214.1 384.8 1237.5 402.5L1236.3 404.1Z" fill="#0053AB"/>
<path d="M695.6 453.7C657.8 453.7 627 422.9 627 385.1C627 352.9 653.2 326.6 685.5 326.6C713 326.6 735.3 349 735.3 376.4C735.3 399.8 716.2 418.9 692.8 418.9C672.8 418.9 656.5 402.6 656.5 382.6C656.5 365.5 670.4 351.6 687.5 351.6C702.1 351.6 714 363.5 714 378.1C714 390.6 703.8 400.8 691.3 400.8C681.7 400.8 673.6 393.9 672.1 384.4C670.9 376.6 675.1 369 682.5 365.9C687.3 363.9 692.4 364.3 696.5 367C700.5 369.7 702.9 374.1 702.9 378.9C702.9 385.7 697.4 391.2 690.6 391.2C687 391.2 683.7 389.3 681.7 386.2C679.7 383.1 679.5 379.6 680.9 376.6C682.3 373.8 685.1 371.8 688.2 371.5C691.7 371.1 695 373 696.5 376.3C697.5 378.5 697.4 380.9 696.2 382.9C695 384.8 693 386.1 690.8 386.2C688.3 386.4 685.9 385 684.8 382.7C684 380.9 684 379 685 377.4C686 375.9 687.6 374.9 689.5 374.9C691.1 374.9 692.6 375.8 693.5 377.2C694.3 378.6 694.4 380.1 693.7 381.4C693.1 382.6 691.8 383.5 690.5 383.6C688.9 383.8 687.4 382.8 686.8 381.4C686.4 380.4 686.4 379.3 687 378.4C687.2 378.1 687.5 377.8 687.8 377.5C687.4 377.7 687.1 378.1 686.8 378.5C686.2 379.5 686.1 380.7 686.7 381.9C687.5 383.5 689 384.4 690.7 384.3C692.3 384.2 693.7 383.3 694.5 381.9C695.4 380.5 695.4 378.8 694.7 377.1C693.6 374.6 691.1 373.2 688.5 373.4C686.1 373.7 683.9 375.2 682.8 377.4C681.7 379.8 681.9 382.6 683.5 385.1C685.1 387.6 687.8 389.2 690.7 389.2C696.4 389.2 701 384.6 701 378.9C701 374.8 698.9 370.9 695.5 368.6C692 366.3 687.6 365.9 683.4 367.6C676.9 370.3 673.1 377 674.2 383.9C675.6 392.4 682.8 398.6 691.4 398.6C702.8 398.6 712.1 389.3 712.1 377.9C712.1 364.4 701.1 353.4 687.6 353.4C671.6 353.4 658.6 366.4 658.6 382.4C658.6 401.3 674 416.7 692.9 416.7C715.2 416.7 733.4 398.5 733.4 376.2C733.4 349.8 711.9 328.4 685.6 328.4C654.5 328.4 629.1 353.7 629.1 384.9C629.1 421.6 659 451.5 695.7 451.5C739 451.5 774.2 416.3 774.2 373V152.9C774.2 114.3 805.6 82.8999 844.2 82.8999H958.2V84.8999H844.2C806.7 84.8999 776.2 115.4 776.2 152.9V373.1C776.1 417.5 740 453.7 695.6 453.7ZM689.5 379C689 379 688.7 379.3 688.5 379.6C688.3 380 688.3 380.4 688.4 380.8C688.6 381.4 689.2 381.8 689.8 381.8V380.5C690 380.5 690.2 380.4 690.3 380.2C690.4 380.1 690.5 379.8 690.3 379.5C690.2 379.2 689.9 379 689.5 379Z" fill="#0053AB"/>
<path d="M1149.1 290.1L1135.5 286.2C1134.7 286 1133.9 286.5 1133.7 287.3C1133.6 287.9 1133.8 288.5 1134.4 288.8L1136.8 290.2C1137.3 290.5 1137.3 291.1 1136.9 291.5L1135.2 293C1134.1 294 1134 295.8 1135.1 296.9L1136.6 298.5C1137.5 299.5 1139 299.6 1140.1 298.9L1141.6 297.9C1143 297 1144.8 296.8 1146.4 297.5L1149.1 290.1Z" fill="#FDB0B4"/>
<path d="M1148.9 301.8L1144.9 300.1L1149.1 288.6L1154 290.6L1148.9 301.8Z" fill="#FDEBF6"/>
<path d="M1183.7 232.4L1183.2 229.8C1183 228.7 1183.9 227.8 1185 227.9H1185.2L1183.7 232.4Z" fill="#FF838F"/>
<path d="M1198.8 246L1189.1 241.2L1184.3 250.9L1194 255.7L1198.8 246Z" fill="#FDB0B4"/>
<path d="M1200 253.1L1183.3 245.2L1182.5 249.2L1180.7 248.4L1173 267C1170.1 273.8 1160.9 288.2 1160.9 288.2L1175.2 294.4L1197.8 256.3L1196.8 255.8L1200 253.1Z" fill="#FDDD97"/>
<path d="M961.3 273.9C965.8 273.9 969.5 270.2 969.5 265.7C969.5 261.2 965.8 257.5 961.3 257.5C956.8 257.5 953.1 261.2 953.1 265.7C953.1 270.3 956.7 273.9 961.3 273.9Z" fill="#9CCEEF"/>
<path d="M838.2 51.9C842.1 51.9 845.3 48.7 845.3 44.8C845.3 40.9 842.1 37.6 838.2 37.6C834.3 37.6 831 40.8 831 44.8C831 48.7 834.2 51.9 838.2 51.9Z" fill="#FFAECD"/>
<path d="M989.8 188.3L992.8 196.8L1000.9 192.9L997.1 201L1005.6 204L997.1 207L1000.9 215.1L992.8 211.2L989.8 219.6L986.8 211.2L978.7 215.1L982.5 207L974 204L982.5 201L978.7 192.9L986.8 196.8L989.8 188.3Z" fill="#FFAECD"/>
<path d="M838.2 114.4L842.2 125.6L852.9 120.5L847.8 131.2L858.9 135.2L847.8 139.2L852.9 149.9L842.2 144.8L838.2 155.9L834.2 144.8L823.5 149.9L828.6 139.2L817.5 135.2L828.6 131.2L823.5 120.5L834.2 125.6L838.2 114.4Z" fill="#FFAECD"/>
<path d="M780.4 60.2999L783.4 68.7999L791.5 64.8999L787.7 72.9999L796.2 75.9999L787.7 78.9999L791.5 87.0999L783.4 83.2999L780.4 91.6999L777.4 83.2999L769.3 87.0999L773.2 78.9999L764.7 75.9999L773.2 72.9999L769.3 64.8999L777.4 68.7999L780.4 60.2999Z" fill="#A5D9EC"/>
<path d="M1140.71 261.438L1138.88 262.229L1143.9 273.894L1145.73 273.103L1140.71 261.438Z" fill="#00ABFF"/>
<path d="M1160.75 286.903L1159.9 288.711L1183.39 299.836L1184.25 298.029L1160.75 286.903Z" fill="#00ABFF"/>
<path d="M1169.3 345.1L1167.1 346.9L1176.9 358.8L1179.1 357L1169.3 345.1Z" fill="#3A9EE0"/>
<path d="M1169.9 260.6L1174.1 257.2L1173.7 249.8C1173.6 247.6 1175.8 246.1 1177.8 247L1180.9 248.4C1180.9 248.4 1172.6 271.6 1163.5 284.4L1166.3 267C1166.6 264.4 1167.9 262.2 1169.9 260.6Z" fill="#3A9EE0"/>
<path d="M1176.8 291.8L1197.8 256.4L1202.4 258.6C1203.8 259.3 1204 261.2 1202.8 262.1L1198.6 265.5C1197.5 266.4 1196.7 267.7 1196.4 269.1L1196 271C1195.3 274.5 1193.4 277.6 1190.7 279.9L1176.8 291.8Z" fill="#3A9EE0"/>
<path d="M1137.6 121.2C1091.8 136 1074.6 150.5 1052.1 193C1051.6 193.9 1050.2 193.8 1049.9 192.8C1035.1 147 1020.6 129.8 978.1 107.4C977.1 106.9 977.3 105.5 978.3 105.2C1024.1 90.3999 1041.3 75.8999 1063.7 33.3999C1064.2 32.4999 1065.6 32.5999 1065.9 33.5999C1080.7 79.3999 1095.2 96.5999 1137.7 119C1138.8 119.4 1138.7 120.8 1137.6 121.2Z" fill="#FFCD5C"/>
<path d="M1053.1 193.4L1051.3 192.5C1073.8 149.9 1091.5 135 1137.3 120.2L1137.9 122.1C1092.2 136.9 1075.5 150.9 1053.1 193.4Z" fill="#FFC033"/>
<path d="M935.8 27.0999L971.4 43.6999C975.4 45.5999 977.1 50.2999 975.3 54.2999L939.4 131C937.5 135 932.8 136.7 928.8 134.9L893.2 118.3L935.8 27.0999Z" fill="#FFFBF2"/>
<path d="M869.178 100.72L868.755 101.626L953.194 141.069L953.617 140.163L869.178 100.72Z" fill="#0053AB"/>
<path d="M872.642 93.3643L872.219 94.2703L956.658 133.713L957.081 132.807L872.642 93.3643Z" fill="#0053AB"/>
<path d="M876.066 85.8804L875.643 86.7864L960.082 126.229L960.505 125.323L876.066 85.8804Z" fill="#0053AB"/>
<path d="M879.579 78.4381L879.156 79.3441L963.595 118.786L964.019 117.88L879.579 78.4381Z" fill="#0053AB"/>
<path d="M883.04 71.0792L882.617 71.9852L967.056 111.427L967.48 110.521L883.04 71.0792Z" fill="#0053AB"/>
<path d="M886.499 63.563L886.076 64.4691L970.525 103.902L970.948 102.996L886.499 63.563Z" fill="#0053AB"/>
<path d="M889.972 56.1558L889.549 57.0618L973.988 96.504L974.411 95.598L889.972 56.1558Z" fill="#0053AB"/>
<path d="M893.444 48.8031L893.021 49.7091L977.46 89.1513L977.883 88.2453L893.444 48.8031Z" fill="#0053AB"/>
<path d="M896.958 41.3615L896.535 42.2675L980.974 81.7097L981.398 80.8037L896.958 41.3615Z" fill="#0053AB"/>
<path d="M900.373 33.8723L899.95 34.7783L984.389 74.2206L984.813 73.3146L900.373 33.8723Z" fill="#0053AB"/>
<path d="M903.884 26.4276L903.461 27.3336L987.9 66.7759L988.323 65.8699L903.884 26.4276Z" fill="#0053AB"/>
<path d="M907.362 19.0343L906.938 19.9403L991.378 59.3919L991.801 58.4859L907.362 19.0343Z" fill="#0053AB"/>
<path d="M884.899 431.5V455.3H905.299C907.699 455.3 909.699 453.3 909.699 450.9C909.699 448 906.999 446 904.299 446.6C900.199 447.6 896.299 444.5 896.299 440.3V431.5H884.899Z" fill="#313030"/>
<path d="M884.899 451.6C888.499 451.6 891.899 450.1 894.299 447.5C895.599 446.1 896.299 444.2 896.299 442.3V431.5H884.899V451.6Z" fill="#4C8431"/>
<path d="M884.3 447.4L893.8 450.6V452L884.3 450.2V447.4Z" fill="#313030"/>
<path d="M871.3 449.6H858.4C857.6 449.6 857 450.2 857 451V453.9C857 454.7 857.6 455.3 858.4 455.3H871.3C872.1 455.3 872.7 454.7 872.7 453.9V451C872.6 450.3 872 449.6 871.3 449.6Z" fill="#313030"/>
<path d="M868 434.1H856.2L858.5 447.5C858.7 448.7 859.8 449.7 861.1 449.7H867.6C869.2 449.7 870.4 448.3 870.2 446.7L868 434.1Z" fill="#4C8431"/>
<path d="M870.7 446H857.3L856.7 442.8H870.2L870.7 446Z" fill="#313030"/>
<path d="M955.3 63.3999L934.8 107.2C931.9 113.4 927.1 118.1 921.4 121C906.2 128.6 894.3 141.4 887.2 156.8L880.7 170.7C871.6 190.2 864.4 210.6 860 231.6C858.8 237.2 857.9 242.9 857.2 248.6C856.9 250.6 856.4 252.5 855.5 254.4L813.2 345L802.2 368.5C798.9 375.7 791.8 379.9 784.3 379.9C781.5 379.9 778.7 379.3 776 378C766.2 373.4 761.9 361.7 766.5 351.8L789.6 302.4L796.3 288.1L819.9 237.7C820.8 235.8 821.9 234.1 823.3 232.7C841.8 212.7 856.4 189.4 868 164.7L874.5 150.8C881.7 135.4 883.9 118.1 880 101.6C878.5 95.3999 879.1 88.6999 882 82.4999L902.5 38.6999C909.3 24.0999 926.7 17.6999 941.4 24.5999C955.9 31.2999 962.2 48.6999 955.3 63.3999Z" fill="#996699"/>
<path d="M860 231.6C858.8 237.2 857.9 242.9 857.2 248.6C856.9 250.6 856.4 252.5 855.5 254.4L813.2 345C809.3 343.8 805.9 341 804.1 336.6L789.7 302.4L796.4 288.1L800.2 286.1L812.2 299.8L813.3 278.1C813.5 274.2 816 270.9 819.6 269.6C821.3 269 822.8 267.9 823.9 266.5C825 265.1 825.7 263.4 825.9 261.6L826.8 252.8C827.6 244.8 832.9 238 840.5 235.2L859.3 228.4L860 231.6Z" fill="#613E7F"/>
<path d="M804.3 298.5L801.6 296.6C792.7 290.4 793.7 276.8 803.5 272.2C803.8 272.1 804 272 804.3 271.8L800.5 280C800.3 280.4 800.9 280.8 801.2 280.4L802.7 278.4C803.1 277.9 803.8 277.7 804.4 278C805 278.3 805.3 278.9 805.2 279.6L804.2 283.9C803.8 285.6 804.3 287.3 805.5 288.6L808.8 291.9L804.3 298.5Z" fill="#B76C55"/>
<path d="M861 243.7L854.4 223.6C854.1 222.7 854.4 221.7 855.2 221.1C856.2 220.3 857.7 220.7 858.4 221.8L859.6 223.9C860.1 224.8 861.5 224.6 861.8 223.6L864.6 213.2L865.9 218.7C866.3 220.4 866.4 222.1 866.3 223.8L865.7 230.9C865.6 232.5 865.8 234.1 866.3 235.7L868.8 242.5L861 243.7Z" fill="#B76C55"/>
<path d="M903.4 438.6H876.6C876.6 433.9 876.5 429.1 876.3 424.4C875.8 414.6 874.9 405 873.7 395.5C871.4 377.6 868 360.6 864.4 345.8L863.4 360.1C862.6 372 863.2 383.8 865.1 395.5C865.8 399.6 866.6 403.7 867.6 407.8L872.1 426L874.4 435.4L848.4 441.8L842 415.9L841.6 414.2C840.1 408 838.9 401.8 838 395.6C836.3 383.3 835.9 370.8 836.7 358.4L841.5 288.4C842 281.4 847.8 275.9 854.8 275.9H861.5C867 275.9 872 279.3 874 284.5C875 287 893.6 336.4 900.7 395.6C901.4 401.1 901.9 406.6 902.3 412.2C903 420.9 903.4 429.7 903.4 438.6Z" fill="#0053AB"/>
<path d="M867.6 407.8L872.1 426L842.1 415.9L841.7 414.2C840.2 408 839 401.8 838.1 395.6H865.2C865.8 399.6 866.6 403.7 867.6 407.8Z" fill="#00459C"/>
<path d="M902.4 412.1C886.7 413.6 879.3 420.6 876.3 424.4C875.8 414.6 874.9 405 873.7 395.5H900.7C901.4 401 901.9 406.5 902.4 412.1Z" fill="#00459C"/>
<path d="M885.4 311.1C885.8 311 886.2 310.8 886.6 310.6C893.2 307.7 896.7 300.4 894.7 293.4L878.5 235.4L850.6 243.2L857 266L830.8 273.1C825 274.7 820.8 279.6 820.2 285.5L816.6 281.8L795.7 301.9L824.3 331.6C827 334.4 830.7 336 834.4 336C832.9 357.6 831.8 390 836.2 407.9H908.5L885.4 311.1Z" fill="#9CCEEF"/>
<path d="M878.322 281.759L876.386 282.26L891.322 339.959L893.258 339.458L878.322 281.759Z" fill="#00ABFF"/>
<path d="M834.5 337.1V335.1C838.1 335.1 841.5 333.5 843.8 330.8C846.1 328.1 847.1 324.4 846.5 320.9L844.3 307.8L846.3 307.5L848.5 320.6C849.2 324.7 848.1 328.9 845.4 332.1C842.6 335.3 838.7 337.1 834.5 337.1Z" fill="#00ABFF"/>
<path d="M855.4 241.7L853.6 243.4C852.8 244.1 852.7 245.4 853.5 246.2C854.2 247 855.5 247.1 856.3 246.3L858.1 244.6C858.9 243.9 859 242.6 858.2 241.8C857.4 241 856.2 241 855.4 241.7Z" fill="#8B4936"/>
<path d="M858.2 246.4C856.2 239.1 848.4 234.8 841.1 237.3C834.5 239.5 830.6 246.7 832.3 253.4C833.5 257.8 836.7 261.2 840.7 262.6C842.9 263.4 844.7 265.1 845.3 267.4L845.8 269.3L854.6 266.9L852.9 260.9C857.6 257.7 859.8 252 858.2 246.4Z" fill="#B76C55"/>
<path d="M501.6 457.7H477.5C462.9 457.7 449.8 448.4 445.1 434.6C444.9 434 444.7 433.3 444.6 432.7L440.5 414.2L420.1 412.4C410.5 411.5 403.4 403 404.2 393.4C405.1 383.8 413.6 376.7 423.2 377.5L456.4 380.5C464 381.2 470.3 386.7 471.9 394.1L478.3 422.7H501.8C511.5 422.7 519.3 430.5 519.3 440.2C519.3 449.9 511.2 457.7 501.6 457.7Z" fill="white"/>
<path d="M842.4 276.9L837.3 268.4L857.7 262.5L858.7 271.8L842.4 276.9Z" fill="#9CCEEF"/>
<path d="M1189.4 232.9L1190.4 232.4C1190.7 232.3 1191.1 232.4 1191.2 232.7L1191.7 233.9C1191.7 234 1191.6 234.1 1191.6 234C1191.2 233.6 1190.3 233 1189.4 232.9Z" fill="#FD5449"/>
<path d="M1187.7 234.7L1192.3 236.8L1191.8 237C1190 237.6 1188.1 236.5 1187.7 234.7Z" fill="black"/>
<path d="M1192.2 236.8C1192.2 236.8 1190.4 234.5 1187.6 234.7L1192.2 236.8Z" fill="#FD5449"/>
<path d="M1186.5 228.6C1186.7 228 1187.4 227.7 1188.1 227.9C1188.7 228.1 1189 228.9 1188.8 229.5L1186.5 228.6Z" fill="black"/>
<path d="M1194.4 231.9C1194.6 231.3 1195.3 231 1196 231.2C1196.6 231.4 1196.9 232.1 1196.7 232.8L1194.4 231.9Z" fill="black"/>
<path d="M1188.8 242.8C1184.8 241 1182.5 236.6 1183.4 232.2L1184.7 225.9C1184.7 225.9 1189.3 227.9 1197.4 224.8C1197.4 224.8 1195.2 230.5 1199.4 234.7C1199.4 234.7 1191.4 242.4 1198.9 245.9L1188.8 242.8Z" fill="#FDB0B4"/>
<path d="M1187.8 229.6C1187.7 230 1187.4 229.9 1186.9 229.8C1186.5 229.7 1186.1 229.8 1186.1 229.3C1186.2 228.9 1186.6 228.5 1187.1 228.6C1187.6 228.7 1187.9 229.1 1187.8 229.6Z" fill="#362F2F"/>
<path d="M1195.1 230.9C1195 231.3 1194.7 231.2 1194.2 231.1C1193.8 231 1193.4 231.1 1193.4 230.6C1193.4 230.1 1193.9 229.8 1194.4 229.9C1194.9 230 1195.2 230.4 1195.1 230.9Z" fill="#362F2F"/>
<path d="M1186.5 246.5L1192.1 243.7L1188.5 242.5L1186.5 246.5Z" fill="#FF838F"/>
<path d="M1187.5 234.6C1187.5 234.6 1189.6 232.8 1192.3 234.7L1187.5 234.6Z" fill="#FF838F"/>
<path d="M1187.5 234.6C1187.5 234.6 1189.7 237.6 1192.3 234.7L1187.5 234.6Z" fill="#FC6E7E"/>
<path d="M1189.4 232.4L1189.2 231.5C1189.1 231.2 1189.3 230.8 1189.7 230.7L1190.4 230.5L1189.4 232.4Z" fill="#FF838F"/>
<path d="M586.2 455.4H537.8C536.7 455.4 535.8 454.6 535.6 453.5L535.2 450.5L534.7 446.1L530 408.8C529.9 407.7 530.6 406.7 531.6 406.4L578.5 394.5C579.5 394.2 580.5 394.7 581 395.6C581.1 395.8 581.2 396.1 581.2 396.3L587.2 444.2L587.7 448.6L588.2 452.9C588.6 454.3 587.6 455.4 586.2 455.4Z" fill="#9CCEEF"/>
<path d="M587.9 448.7L535.3 450.5L534.8 446.1L587.4 444.3L587.9 448.7Z" fill="#49BBFF"/>
<path d="M533.2 433.9L585.3 428.2L585.8 432.5L533.7 438.2L533.2 433.9Z" fill="#49BBFF"/>
<path d="M583.1 410.5L583.6 414.8L532.2 425.9L531.7 421.6L583.1 410.5Z" fill="#49BBFF"/>
<path d="M581.1 395.7C581.2 395.9 581.3 396.2 581.3 396.4L581.8 400L530.7 414L530.2 409.6L581.1 395.7Z" fill="#49BBFF"/>
<path d="M410.7 372.8L406.5 413.7L439.5 417.1L443.7 376.2L410.7 372.8Z" fill="#A5D9EC"/>
<path d="M438.765 367.327L434.77 367.522L437.421 421.956L441.416 421.762L438.765 367.327Z" fill="#00ABFF"/>
<path d="M427.967 366.226L423.972 366.42L426.614 420.855L430.609 420.661L427.967 366.226Z" fill="#00ABFF"/>
<path d="M417.167 365.131L413.172 365.326L415.823 419.761L419.819 419.566L417.167 365.131Z" fill="#00ABFF"/>
<path d="M384.8 360.3L378.5 420.6L413.2 424.2L419.5 363.9L384.8 360.3Z" fill="#49BBFF"/>
<path d="M403.099 352.6L394.899 432C393.499 445.3 382.299 455.4 368.999 455.4H294.199H185.599H146.999L67.3994 455.5L70.4994 425.9L87.4994 261.8L382.599 324.5C395.699 327.1 404.499 339.3 403.099 352.6Z" fill="#9CCEEF"/>
<path d="M61.6 259L41.5 452.7L67.4 455.4L87.5 261.7L61.6 259Z" fill="#49BBFF"/>
<path d="M85.5888 261.452L65.5244 455.22L69.5032 455.632L89.5676 261.864L85.5888 261.452Z" fill="#00ABFF"/>
<path d="M413.2 424.2L406.8 362.6H402L395.8 422.4L413.2 424.2Z" fill="#3A9EE0"/>
<path d="M213.336 390.813L159.01 447.752L161.904 450.514L216.23 393.574L213.336 390.813Z" fill="#00ABFF"/>
<path d="M401.101 352.369L392.842 431.738L396.82 432.152L405.079 352.783L401.101 352.369Z" fill="#EAF6FF"/>
<path d="M161.2 411.7C160.8 411.7 160.5 411.5 160 411.2L158.4 410.1L159.5 408.5C159.5 408.5 159.6 408.4 159.7 408.2C159.8 408.1 169.8 397.2 193.3 367.1C224.2 327.5 221.1 322.5 220.6 322C220.3 321.7 217.4 319.7 199.3 330.5C188.7 336.8 174.8 346.3 157.9 358.8C129 380.2 101.1 403.2 100.8 403.4L98.2998 400.3C98.5998 400.1 126.6 377 155.6 355.6C172.6 343 186.7 333.4 197.4 327C207.9 320.7 219.3 314.9 223.6 319.1C227.1 322.5 226.6 331.2 196.7 369.5C191.7 375.9 187.3 381.4 183.6 386.1C218.6 357 286 313.8 344.9 350.8L342.8 354.2C324.5 342.7 303.8 338.4 281.2 341.4C263 343.8 243.6 351 223.4 362.8C188.2 383.3 163.1 410.6 162.9 410.9C162.2 411.4 161.7 411.7 161.2 411.7Z" fill="#EAF6FF"/>
<path d="M842.5 262.8L847.3 261.4C849.5 260.8 850.5 258.3 849.5 256.3L846.8 250.9C846.5 250.3 846.6 249.6 847 249C847.5 248.2 848.6 248 849.4 248.5L851.5 249.7L852.8 249.2L852.5 244.6C852.3 241.7 850 239.5 847.1 239.4L845.3 239.3L850.4 238.7C851.4 238.6 852.3 237.8 852.6 236.8C853 235.3 852 233.8 850.5 233.6L845.8 232.9C843.9 232.6 842 233.4 840.8 234.9L840.7 235C839.6 236.4 838.1 237.4 836.5 237.9C832.1 239.4 829.1 243.5 829.1 248.2C829.1 250.1 830.2 251.8 832 252.6L831.9 253.5C831.5 256.9 833.1 260.1 836 261.9C837.9 263.1 840.3 263.4 842.5 262.8Z" fill="#313030"/>
<path d="M1334.8 454.3H0.200195V464.1H1334.7V454.3H1334.8Z" fill="#C4E2F6"/>
</g>
</g>
<defs>
<clipPath id="clip0_1528_78940">
<rect width="1335" height="464" fill="white"/>
</clipPath>
</defs>
</svg>
