<svg width="1335" height="464" viewBox="0 0 1335 464" fill="none" xmlns="http://www.w3.org/2000/svg">
<g clip-path="url(#clip0_1528_82491)">
<mask id="mask0_1528_82491" style="mask-type:luminance" maskUnits="userSpaceOnUse" x="0" y="0" width="1335" height="465">
<path d="M1335 0H0V464.071H1335V0Z" fill="white"/>
</mask>
<g mask="url(#mask0_1528_82491)">
<path d="M1335 0H0V464.071H1335V0Z" fill="#CAB0E3"/>
<path d="M505.611 306.604L418.579 393.637C389.281 422.935 389.281 470.436 418.579 499.734L418.579 499.734C447.877 529.032 495.378 529.032 524.676 499.734L611.708 412.702C641.006 383.404 641.006 335.902 611.708 306.604C582.41 277.307 534.909 277.307 505.611 306.604Z" fill="#B89FD4"/>
<path d="M696.618 528.798L842.323 639.066C849.663 644.621 860.117 643.173 865.672 635.833L975.94 490.128C981.494 482.788 980.047 472.334 972.707 466.779L827.002 356.511C819.662 350.956 809.208 352.404 803.653 359.744L693.385 505.449C687.83 512.789 689.278 523.243 696.618 528.798Z" fill="#B89FD4"/>
<path d="M638.806 457.451L784.511 567.718C791.852 573.273 802.305 571.826 807.86 564.486L918.128 418.78C923.683 411.44 922.235 400.987 914.895 395.432L769.19 285.164C761.85 279.609 751.396 281.056 745.841 288.397L635.574 434.102C630.019 441.442 631.466 451.896 638.806 457.451Z" fill="#FDF6E9"/>
<path d="M794.535 571.599C790.82 571.599 787.224 570.397 784.21 568.116L638.505 457.849C630.957 452.137 629.463 441.348 635.175 433.8L745.443 288.095C748.21 284.438 752.236 282.078 756.778 281.449C761.321 280.819 765.836 281.998 769.493 284.765L915.198 395.033C918.854 397.8 921.214 401.826 921.843 406.368C922.472 410.91 921.294 415.426 918.527 419.082L808.26 564.787C805.492 568.444 801.467 570.804 796.924 571.433C796.125 571.544 795.327 571.599 794.535 571.599ZM759.166 282.284C758.419 282.284 757.668 282.335 756.915 282.44C752.638 283.032 748.847 285.254 746.241 288.698L635.973 434.403C630.593 441.512 632 451.672 639.108 457.051L784.814 567.319C788.258 569.925 792.51 571.036 796.787 570.442C801.065 569.85 804.856 567.628 807.462 564.183L917.729 418.478C920.336 415.035 921.445 410.783 920.852 406.505C920.261 402.227 918.038 398.436 914.594 395.83L768.889 285.563C766.051 283.415 762.664 282.284 759.166 282.284Z" fill="#FD5817"/>
<path d="M795.627 562.061L641.231 445.217L641.532 444.818L726.099 333.074L726.896 333.677L642.631 445.022L795.433 560.661L911.071 407.859L834.67 350.04L835.274 349.243L912.472 407.665L912.17 408.064L795.627 562.061Z" fill="#FD5817"/>
<path d="M777.438 325.099C779.352 326.548 779.73 326.049 781.644 327.498C783.558 328.946 783.681 328.784 785.595 330.233C787.509 331.681 788.018 331.009 789.931 332.457C791.845 333.906 790.877 335.186 792.791 336.634C794.705 338.083 795.384 337.186 797.299 338.635C799.216 340.086 799.636 339.531 801.553 340.983C803.471 342.434 802.592 343.596 804.509 345.047C805.704 345.951 806.878 346.79 807.838 347.867C808.827 348.978 810.698 349.556 811.432 350.81C812.179 352.085 811.735 354.012 812.212 355.393C812.693 356.784 813.101 358.18 813.302 359.633C813.503 361.086 814.006 362.57 813.92 364.04C813.836 365.498 813.483 366.996 813.111 368.427C812.744 369.833 810.988 370.663 810.338 372.001C809.707 373.299 810.896 375.764 809.992 376.958C808.544 378.872 807.268 377.907 805.82 379.822C804.371 381.736 804.344 381.716 802.896 383.63C801.447 385.544 801.913 385.896 800.465 387.81C799.016 389.724 798.598 389.407 797.149 391.321C795.701 393.235 796.292 393.683 794.843 395.598C793.392 397.515 793.637 397.701 792.186 399.618C790.734 401.536 790.859 401.63 789.408 403.547C788.504 404.742 786.12 404.509 785.042 405.469C783.931 406.458 783.517 408.228 782.263 408.963C780.988 409.71 779.22 409.153 777.84 409.63C776.449 410.111 775.53 412.559 774.078 412.76C772.625 412.961 771.065 411.051 769.596 410.966C768.137 410.881 766.668 411.44 765.237 411.067C763.831 410.701 762.52 410.12 761.183 409.47C759.885 408.839 758.649 408.129 757.454 407.225C755.54 405.776 755.101 406.356 753.187 404.907C751.273 403.458 750.904 403.946 748.989 402.497C747.076 401.049 747.44 400.567 745.527 399.119C743.613 397.67 743.48 397.845 741.566 396.397C739.651 394.948 740.718 393.538 738.804 392.089C736.886 390.638 735.992 391.82 734.074 390.369C732.156 388.918 731.816 389.369 729.898 387.917C728.703 387.013 728.637 384.847 727.677 383.769C726.688 382.659 724.632 382.286 723.897 381.032C723.15 379.757 723.973 377.73 723.495 376.35C723.014 374.959 720.83 373.914 720.629 372.461C720.428 371.009 722.4 369.419 722.485 367.949C722.57 366.491 722.696 365.178 723.069 363.748C723.435 362.342 722.354 360.353 723.004 359.015C723.635 357.718 725.863 357.336 726.767 356.142C728.215 354.227 726.834 353.182 728.283 351.268C729.731 349.353 730.163 349.68 731.611 347.766C733.06 345.852 734.017 346.576 735.466 344.663C736.914 342.749 736.024 342.075 737.472 340.161C738.921 338.247 738.746 338.114 740.194 336.199C741.646 334.282 742.694 335.075 744.145 333.157C745.596 331.24 745.098 330.862 746.549 328.945C747.453 327.75 748.584 326.853 749.661 325.893C750.772 324.904 751.194 322.859 752.448 322.124C753.724 321.377 755.586 321.634 756.967 321.156C758.358 320.675 759.801 320.317 761.253 320.116C762.706 319.915 764.207 319.615 765.676 319.7C767.134 319.784 768.523 320.512 769.953 320.884C771.359 321.25 773.253 320.617 774.59 321.268C775.888 321.899 776.243 324.196 777.438 325.099Z" fill="#7D7901"/>
<path d="M736.636 384.576L758.094 400.815C766.934 407.505 779.525 405.762 786.215 396.922L802.454 375.465C809.144 366.624 807.401 354.034 798.561 347.343L777.103 331.105C768.263 324.414 755.672 326.157 748.982 334.998L732.743 356.455C726.053 365.296 727.796 377.886 736.636 384.576Z" fill="#FDF6E9"/>
<path d="M815.576 424.49L836.726 440.496C838.245 441.645 840.409 441.346 841.558 439.827L857.565 418.677C858.714 417.158 858.415 414.994 856.896 413.845L835.745 397.838C834.226 396.689 832.063 396.988 830.913 398.507L814.907 419.658C813.758 421.177 814.057 423.34 815.576 424.49Z" fill="#FFA6CC"/>
<path d="M847.231 377.918C849.146 379.367 849.523 378.868 851.438 380.317C853.352 381.765 853.475 381.603 855.389 383.052C857.303 384.5 857.811 383.828 859.725 385.276C861.639 386.725 860.671 388.005 862.585 389.453C864.499 390.902 865.178 390.005 867.093 391.454C869.01 392.905 869.43 392.35 871.347 393.802C873.265 395.253 872.385 396.415 874.303 397.866C875.497 398.77 876.672 399.609 877.632 400.686C878.621 401.797 880.491 402.375 881.226 403.629C881.973 404.904 881.528 406.831 882.006 408.212C882.487 409.603 882.895 410.999 883.096 412.452C883.297 413.905 883.799 415.389 883.714 416.859C883.63 418.317 883.277 419.815 882.904 421.246C882.538 422.652 880.781 423.482 880.131 424.82C879.5 426.118 880.69 428.583 879.786 429.777C878.337 431.691 877.062 430.726 875.613 432.641C874.165 434.555 874.138 434.535 872.689 436.449C871.241 438.363 871.707 438.715 870.259 440.629C868.81 442.543 868.391 442.226 866.943 444.14C865.494 446.054 866.086 446.502 864.637 448.417C863.186 450.334 863.431 450.52 861.979 452.437C860.528 454.355 860.652 454.449 859.201 456.366C858.297 457.561 855.913 457.328 854.836 458.288C853.725 459.277 853.311 461.047 852.057 461.782C850.781 462.529 849.014 461.972 847.634 462.449C846.243 462.93 845.324 465.378 843.871 465.579C842.419 465.78 840.859 463.87 839.389 463.785C837.931 463.7 836.461 464.259 835.031 463.886C833.625 463.52 832.314 462.939 830.977 462.289C829.679 461.658 828.442 460.948 827.248 460.044C825.334 458.595 824.895 459.175 822.981 457.726C821.066 456.277 820.697 456.765 818.783 455.316C816.869 453.867 817.234 453.386 815.32 451.938C813.406 450.489 813.274 450.664 811.36 449.216C809.445 447.767 810.512 446.357 808.598 444.908C806.68 443.457 805.785 444.639 803.868 443.188C801.95 441.737 801.609 442.188 799.692 440.736C798.497 439.832 798.431 437.666 797.471 436.588C796.482 435.478 794.426 435.105 793.691 433.851C792.944 432.576 793.766 430.549 793.289 429.169C792.808 427.778 790.624 426.733 790.423 425.28C790.222 423.828 792.194 422.238 792.279 420.768C792.364 419.31 792.49 417.997 792.863 416.567C793.229 415.161 792.148 413.172 792.798 411.834C793.429 410.537 795.656 410.155 796.56 408.961C798.009 407.046 796.628 406.001 798.076 404.087C799.525 402.172 799.956 402.499 801.405 400.585C802.853 398.671 803.811 399.395 805.259 397.482C806.708 395.568 805.818 394.894 807.266 392.98C808.715 391.066 808.539 390.933 809.988 389.018C811.439 387.101 812.488 387.894 813.939 385.976C815.39 384.059 814.891 383.681 816.343 381.764C817.247 380.569 818.377 379.672 819.455 378.712C820.566 377.723 820.988 375.678 822.242 374.943C823.518 374.196 825.38 374.453 826.761 373.975C828.152 373.494 829.594 373.136 831.047 372.935C832.5 372.734 834 372.434 835.47 372.519C836.928 372.603 838.316 373.331 839.747 373.703C841.153 374.069 843.047 373.436 844.384 374.087C845.682 374.718 846.037 377.015 847.231 377.918Z" fill="#7D7901"/>
<path d="M806.43 437.395L827.887 453.634C836.728 460.324 849.318 458.581 856.009 449.741L872.247 428.283C878.938 419.443 877.195 406.853 868.354 400.162L846.897 383.924C838.056 377.233 825.466 378.976 818.775 387.817L802.537 409.274C795.846 418.115 797.589 430.705 806.43 437.395Z" fill="#FDF6E9"/>
<path d="M844.145 400.917L867.401 418.516L844.947 438.099L826.545 424.172L844.145 400.917Z" fill="#FBA9A7"/>
<path d="M835.478 431.227L823.999 421.632C821.834 419.822 818.611 420.11 816.801 422.275C814.991 424.441 815.279 427.664 817.445 429.474L828.923 439.068C831.089 440.878 834.312 440.59 836.122 438.425C837.932 436.259 837.644 433.037 835.478 431.227Z" fill="#719B5A"/>
<path d="M843.847 399.785L832.786 412.529L820.043 401.467L822.094 399.104C827.067 393.375 835.756 392.761 841.485 397.735L843.847 399.785Z" fill="#B5BB61"/>
<path d="M843.817 439.557C841.45 430.549 846.843 421.315 855.85 418.949L856.645 421.975C858.572 429.312 854.18 436.834 846.843 438.762L843.817 439.557Z" fill="#7D7901"/>
<path d="M821.87 419.362L813.646 413.138L820.291 404.358L828.515 410.582C830.938 412.415 831.416 415.871 829.583 418.294C827.749 420.717 824.293 421.196 821.87 419.362Z" fill="#FD5817"/>
<path d="M766.661 386.613C775.954 386.613 783.488 379.079 783.488 369.786C783.488 360.492 775.954 352.958 766.661 352.958C757.367 352.958 749.833 360.492 749.833 369.786C749.833 379.079 757.367 386.613 766.661 386.613Z" fill="#719B5A"/>
<path d="M790.128 382.352L760.969 381.805L767.602 352.76L790.676 353.193L790.128 382.352Z" fill="#FD5817"/>
<path d="M772.697 345.94L761.635 358.683L748.892 347.621L750.943 345.258C755.916 339.529 764.605 338.916 770.334 343.889L772.697 345.94Z" fill="#7D7901"/>
<path d="M747.733 351.026L763.672 364.861L749.836 380.799L746.881 378.234C739.716 372.014 738.948 361.146 745.168 353.981L747.733 351.026Z" fill="#FBA9A7"/>
<path d="M773.476 386.063L781.581 386.231L782.351 349.085L774.246 348.917L773.476 386.063Z" fill="#7D7901"/>
<path d="M776.265 527.782C774.351 526.334 773.973 526.833 772.059 525.384C770.145 523.935 770.022 524.098 768.107 522.649C766.193 521.2 765.685 521.873 763.771 520.425C761.858 518.976 762.826 517.696 760.912 516.248C758.997 514.799 758.318 515.696 756.404 514.247C754.486 512.796 754.067 513.35 752.149 511.899C750.232 510.448 751.111 509.286 749.194 507.835C747.999 506.931 746.825 506.092 745.865 505.015C744.875 503.904 743.005 503.326 742.271 502.072C741.524 500.797 741.968 498.869 741.491 497.489C741.01 496.098 740.602 494.702 740.401 493.249C740.2 491.796 739.697 490.312 739.782 488.842C739.867 487.384 740.22 485.886 740.592 484.455C740.958 483.049 742.715 482.219 743.365 480.881C743.996 479.583 742.807 477.118 743.71 475.924C745.159 474.009 746.434 474.975 747.883 473.06C749.332 471.146 749.358 471.166 750.807 469.252C752.255 467.338 751.79 466.986 753.238 465.072C754.686 463.158 755.105 463.475 756.554 461.561C758.003 459.646 757.411 459.199 758.86 457.284C760.311 455.367 760.066 455.181 761.517 453.264C762.968 451.346 762.844 451.252 764.295 449.334C765.199 448.14 767.583 448.373 768.661 447.413C769.771 446.423 770.186 444.654 771.44 443.919C772.715 443.172 774.482 443.729 775.863 443.252C777.254 442.771 778.172 440.323 779.625 440.122C781.078 439.921 782.638 441.831 784.107 441.916C785.565 442 787.035 441.442 788.465 441.815C789.871 442.181 791.183 442.762 792.52 443.412C793.818 444.043 795.054 444.753 796.249 445.657C798.163 447.106 798.602 446.526 800.516 447.975C802.43 449.424 802.799 448.936 804.713 450.385C806.627 451.833 806.262 452.315 808.176 453.763C810.09 455.212 810.223 455.036 812.137 456.485C814.051 457.934 812.984 459.344 814.899 460.792C816.817 462.244 817.711 461.061 819.629 462.513C821.546 463.964 821.887 463.513 823.805 464.964C824.999 465.868 825.066 468.035 826.025 469.113C827.015 470.223 829.071 470.596 829.805 471.849C830.552 473.125 829.73 475.151 830.208 476.532C830.689 477.923 832.873 478.968 833.074 480.421C833.275 481.873 831.303 483.463 831.217 484.933C831.133 486.391 831.006 487.704 830.634 489.134C830.268 490.54 831.349 492.529 830.699 493.866C830.068 495.164 827.84 495.546 826.936 496.74C825.487 498.655 826.869 499.7 825.42 501.614C823.972 503.529 823.54 503.202 822.091 505.116C820.643 507.031 819.686 506.305 818.237 508.219C816.789 510.133 817.679 510.807 816.23 512.721C814.782 514.635 814.957 514.768 813.508 516.683C812.057 518.6 811.009 517.807 809.558 519.724C808.106 521.642 808.605 522.019 807.154 523.937C806.25 525.131 805.119 526.028 804.041 526.988C802.931 527.978 802.508 530.023 801.254 530.758C799.979 531.505 798.116 531.248 796.736 531.726C795.345 532.207 793.902 532.565 792.449 532.766C790.997 532.967 789.496 533.267 788.027 533.182C786.569 533.098 785.18 532.37 783.75 531.998C782.344 531.632 780.45 532.264 779.113 531.614C777.815 530.983 777.46 528.686 776.265 527.782Z" fill="#7D7901"/>
<path d="M817.067 468.306L795.609 452.067C786.769 445.376 774.178 447.12 767.488 455.96L751.249 477.417C744.559 486.258 746.302 498.848 755.143 505.539L776.6 521.777C785.441 528.468 798.031 526.725 804.721 517.884L820.96 496.427C827.65 487.586 825.907 474.996 817.067 468.306Z" fill="#FDF6E9"/>
<path d="M706.472 474.964C704.557 473.515 704.18 474.014 702.265 472.565C700.351 471.117 700.228 471.279 698.314 469.83C696.4 468.382 695.892 469.054 693.978 467.606C692.064 466.157 693.032 464.877 691.118 463.429C689.204 461.98 688.525 462.877 686.61 461.428C684.693 459.977 684.273 460.532 682.356 459.08C680.438 457.629 681.318 456.467 679.4 455.016C678.206 454.112 677.031 453.273 676.071 452.196C675.082 451.085 673.212 450.507 672.477 449.253C671.73 447.978 672.175 446.051 671.697 444.67C671.216 443.279 670.808 441.883 670.607 440.43C670.406 438.977 669.904 437.493 669.989 436.023C670.073 434.565 670.426 433.067 670.799 431.636C671.165 430.23 672.922 429.4 673.572 428.062C674.203 426.764 673.013 424.299 673.917 423.105C675.366 421.191 676.641 422.156 678.09 420.241C679.538 418.327 679.565 418.347 681.014 416.433C682.462 414.519 681.996 414.167 683.444 412.253C684.893 410.339 685.312 410.656 686.76 408.742C688.209 406.827 687.617 406.38 689.066 404.465C690.517 402.548 690.272 402.362 691.724 400.445C693.175 398.527 693.051 398.433 694.502 396.516C695.406 395.321 697.79 395.554 698.867 394.594C699.978 393.605 700.392 391.835 701.646 391.1C702.922 390.353 704.689 390.91 706.069 390.433C707.46 389.952 708.379 387.504 709.832 387.303C711.284 387.102 712.844 389.012 714.314 389.097C715.772 389.182 717.242 388.623 718.672 388.996C720.078 389.362 721.389 389.943 722.726 390.593C724.024 391.224 725.261 391.934 726.455 392.838C728.369 394.287 728.808 393.707 730.722 395.156C732.637 396.605 733.006 396.117 734.92 397.566C736.834 399.014 736.469 399.496 738.383 400.944C740.297 402.393 740.429 402.218 742.343 403.666C744.257 405.115 743.191 406.525 745.105 407.974C747.023 409.425 747.918 408.243 749.835 409.694C751.753 411.145 752.094 410.694 754.011 412.146C755.206 413.05 755.272 415.216 756.232 416.294C757.221 417.404 759.277 417.777 760.012 419.031C760.759 420.306 759.937 422.333 760.414 423.713C760.895 425.104 763.079 426.149 763.28 427.602C763.481 429.054 761.509 430.644 761.424 432.114C761.339 433.572 761.213 434.885 760.84 436.315C760.474 437.721 761.555 439.71 760.905 441.048C760.274 442.345 758.047 442.727 757.143 443.921C755.694 445.836 757.075 446.881 755.627 448.795C754.178 450.71 753.747 450.383 752.298 452.297C750.849 454.212 749.892 453.487 748.444 455.4C746.995 457.314 747.886 457.988 746.437 459.902C744.989 461.816 745.164 461.949 743.715 463.864C742.264 465.781 741.215 464.988 739.764 466.906C738.313 468.823 738.812 469.201 737.36 471.118C736.456 472.313 735.326 473.21 734.248 474.17C733.137 475.159 732.715 477.204 731.461 477.939C730.185 478.686 728.323 478.429 726.942 478.907C725.551 479.388 724.109 479.746 722.656 479.947C721.203 480.148 719.703 480.448 718.233 480.363C716.775 480.279 715.387 479.551 713.956 479.179C712.55 478.813 710.656 479.446 709.319 478.795C708.021 478.164 707.666 475.867 706.472 474.964Z" fill="#7D7901"/>
<path d="M747.273 415.487L725.816 399.248C716.975 392.558 704.385 394.301 697.694 403.141L681.456 424.599C674.765 433.439 676.508 446.029 685.349 452.72L706.806 468.958C715.647 475.649 728.237 473.906 734.928 465.065L751.166 443.608C757.857 434.767 756.113 422.177 747.273 415.487Z" fill="#FDF6E9"/>
<path d="M738.127 428.392L716.976 412.386C715.457 411.237 713.294 411.536 712.145 413.055L696.138 434.205C694.989 435.724 695.288 437.888 696.807 439.037L717.958 455.044C719.477 456.193 721.64 455.894 722.789 454.375L738.796 433.224C739.945 431.705 739.646 429.542 738.127 428.392Z" fill="#FD5817"/>
<path d="M709.558 451.965L686.302 434.366L708.756 414.783L727.158 428.71L709.558 451.965Z" fill="#FBA9A7"/>
<path d="M718.225 421.655L729.704 431.25C731.869 433.06 735.092 432.772 736.902 430.606C738.712 428.441 738.424 425.218 736.258 423.408L724.78 413.814C722.614 412.004 719.391 412.292 717.581 414.457C715.771 416.623 716.06 419.845 718.225 421.655Z" fill="#36841E"/>
<path d="M709.855 453.096L720.917 440.353L733.66 451.415L731.609 453.778C726.636 459.507 717.947 460.121 712.218 455.147L709.855 453.096Z" fill="#719B5A"/>
<path d="M709.886 413.325C712.252 422.333 706.86 431.567 697.853 433.933L697.058 430.907C695.13 423.57 699.523 416.048 706.86 414.12L709.886 413.325Z" fill="#FA7371"/>
<path d="M731.833 433.52L740.057 439.744L733.412 448.524L725.188 442.3C722.765 440.467 722.287 437.011 724.12 434.588C725.954 432.165 729.41 431.686 731.833 433.52Z" fill="#B5BB61"/>
<path d="M1520.62 -16.1241L1289.6 161.484C1288.79 162.105 1287.65 162.02 1286.94 161.286L1121.33 -10.6851C1120.31 -11.7429 1120.74 -13.5012 1122.14 -13.9685L1444.08 -122.027C1444.91 -122.305 1445.82 -122.014 1446.33 -121.309L1521.01 -18.8881C1521.65 -18.0116 1521.48 -16.7853 1520.62 -16.1241Z" fill="#FBE1E0"/>
<path d="M673.154 -55.847L394.062 76.8738C393.285 77.2432 392.359 77.0745 391.762 76.4549L226.34 -95.3223C225.226 -96.4791 225.861 -98.4108 227.444 -98.6811L597.416 -161.855C598.165 -161.983 598.921 -161.675 599.369 -161.062L673.911 -58.8316C674.649 -57.8192 674.285 -56.3851 673.154 -55.847Z" fill="#FBE1E0"/>
<path d="M1404.11 372.492L1183.73 571.108C1182.91 571.849 1181.64 571.781 1180.9 570.957L981.225 348.203C980.421 347.306 980.586 345.907 981.577 345.223L1249.31 160.176C1250.2 159.558 1251.43 159.766 1252.07 160.644L1404.39 369.829L1404.11 372.492Z" fill="#6860AD"/>
<path d="M1393.49 266.146L1297.7 303.72C1296.68 304.124 1295.52 303.617 1295.11 302.589L1257.65 207.081C1257.2 205.952 1257.86 204.691 1259.04 204.406L1360 180.044C1360.97 179.81 1361.97 180.328 1362.33 181.258L1394.62 263.554C1395.02 264.582 1394.51 265.743 1393.49 266.146Z" fill="#B89FD4"/>
<path d="M1239.35 263.18C1274.63 288.45 1277.47 361.757 1252.2 397.048C1231.24 426.299 1193.92 436.879 1161.66 425.221C1155.01 422.825 1148.59 419.488 1142.56 415.171C1107.27 389.892 1104.42 316.585 1129.69 281.306C1132.04 278.029 1134.59 274.995 1137.32 272.196C1163.96 244.793 1207.34 240.248 1239.35 263.18Z" fill="#433899"/>
<path d="M1259.51 290.845C1266.94 335.775 1236.54 378.221 1191.59 385.651C1154.34 391.809 1118.79 371.963 1103.5 339.376C1100.35 332.665 1098.06 325.42 1096.79 317.743C1089.36 272.797 1119.76 230.351 1164.69 222.924C1168.86 222.234 1173.01 221.876 1177.11 221.82C1217.22 221.261 1252.77 250.071 1259.51 290.845Z" fill="#AA3E28"/>
<path d="M1265.88 286.766C1267.71 297.84 1254.26 308.34 1251.86 318.63C1249.37 329.298 1256.63 344.646 1250.35 353.413C1244.07 362.18 1227.2 360.249 1217.9 366.039C1208.93 371.624 1203.32 387.73 1192.24 389.561C1181.17 391.391 1170.67 377.949 1160.38 375.547C1149.71 373.058 1134.36 380.314 1125.6 374.034C1116.83 367.754 1118.76 350.887 1112.97 341.588C1107.39 332.618 1091.28 327.003 1089.45 315.929C1087.62 304.854 1101.06 294.355 1103.46 284.064C1105.95 273.397 1098.7 258.048 1104.98 249.281C1111.26 240.514 1128.12 242.445 1137.42 236.656C1146.39 231.07 1152.01 214.964 1163.08 213.133C1174.16 211.303 1184.66 224.745 1194.95 227.147C1205.61 229.637 1220.96 222.38 1229.73 228.66C1238.5 234.94 1236.56 251.807 1242.35 261.106C1247.94 270.076 1264.05 275.691 1265.88 286.766Z" fill="#719B5A"/>
<path d="M1258.04 318.83C1255.84 328.92 1240.78 333.333 1235.24 341.316C1229.49 349.591 1230.48 365.178 1222.13 370.541C1213.79 375.905 1200.02 368.527 1190.11 370.32C1180.54 372.05 1170.27 383.914 1160.18 381.72C1150.09 379.525 1145.68 364.467 1137.69 358.92C1129.42 353.17 1113.83 354.163 1108.47 345.817C1103.11 337.471 1110.48 323.706 1108.69 313.79C1106.96 304.224 1095.1 293.955 1097.29 283.865C1099.49 273.774 1114.54 269.362 1120.09 261.379C1125.84 253.103 1124.85 237.517 1133.19 232.153C1141.54 226.79 1155.3 234.167 1165.22 232.374C1174.79 230.644 1185.06 218.78 1195.15 220.975C1205.24 223.17 1209.65 238.227 1217.63 243.775C1225.91 249.525 1241.49 248.532 1246.86 256.878C1252.22 265.223 1244.84 278.989 1246.64 288.905C1248.37 298.471 1260.23 308.739 1258.04 318.83Z" fill="#B5BB61"/>
<path d="M1257.6 275.307C1265.03 320.238 1234.62 362.684 1189.68 370.113C1152.42 376.271 1116.88 356.426 1101.59 323.839C1098.44 317.128 1096.14 309.883 1094.87 302.206C1087.44 257.26 1117.85 214.813 1162.78 207.387C1166.95 206.697 1171.1 206.339 1175.2 206.283C1215.3 205.723 1250.86 234.534 1257.6 275.307Z" fill="#FFD574"/>
<path d="M1175.2 206.283L1101.59 323.839C1098.44 317.128 1096.14 309.883 1094.87 302.206C1087.44 257.26 1117.85 214.813 1162.78 207.386C1166.95 206.697 1171.1 206.339 1175.2 206.283Z" fill="#FFC83F"/>
<path d="M1181.36 303.447L1183.44 304.933C1184.58 305.754 1184.85 307.35 1184.03 308.496C1183.2 309.642 1181.61 309.905 1180.46 309.085C1179.32 308.264 1179.05 306.668 1179.87 305.522L1181.36 303.447Z" fill="#FDBF32"/>
<path d="M1160.16 324.78L1159.26 327.17C1158.76 328.489 1157.29 329.157 1155.97 328.661C1154.65 328.165 1153.98 326.691 1154.48 325.372C1154.98 324.053 1156.45 323.385 1157.77 323.881L1160.16 324.78Z" fill="#FDBF32"/>
<path d="M1179.31 271.419L1179.49 268.872C1179.59 267.466 1180.82 266.406 1182.22 266.505C1183.63 266.604 1184.69 267.826 1184.59 269.232C1184.49 270.638 1183.27 271.698 1181.86 271.599L1179.31 271.419Z" fill="#FDBF32"/>
<path d="M1215.96 301.153L1216.14 298.606C1216.24 297.2 1217.46 296.139 1218.87 296.239C1220.27 296.338 1221.33 297.56 1221.24 298.966C1221.14 300.371 1219.91 301.432 1218.51 301.333L1215.96 301.153Z" fill="#FDBF32"/>
<path d="M1154.07 301.355L1154.25 298.808C1154.34 297.403 1155.57 296.342 1156.97 296.441C1158.38 296.541 1159.44 297.762 1159.34 299.168C1159.24 300.574 1158.02 301.635 1156.61 301.535L1154.07 301.355Z" fill="#FDBF32"/>
<path d="M1168.75 280.68L1166.78 282.301C1165.69 283.195 1164.08 283.037 1163.18 281.947C1162.29 280.858 1162.45 279.248 1163.54 278.354C1164.62 277.46 1166.23 277.618 1167.13 278.707L1168.75 280.68Z" fill="#FDBF32"/>
<path d="M1189.04 321.327L1187.85 319.067C1187.2 317.819 1187.68 316.274 1188.92 315.619C1190.17 314.963 1191.72 315.444 1192.37 316.692C1193.03 317.939 1192.55 319.484 1191.3 320.14L1189.04 321.327Z" fill="#FDBF32"/>
<path d="M1171.75 291.456L1173.72 289.836C1174.81 288.942 1176.42 289.1 1177.32 290.189C1178.21 291.279 1178.05 292.889 1176.96 293.783C1175.87 294.677 1174.26 294.519 1173.37 293.43L1171.75 291.456Z" fill="#FDBF32"/>
<path d="M1162.51 307.123L1164.49 305.503C1165.58 304.609 1167.19 304.767 1168.08 305.856C1168.98 306.945 1168.82 308.555 1167.73 309.45C1166.64 310.344 1165.03 310.186 1164.13 309.096L1162.51 307.123Z" fill="#FDBF32"/>
<path d="M1167.54 327.335L1167.79 324.793C1167.93 323.391 1169.18 322.364 1170.58 322.502C1171.99 322.64 1173.01 323.891 1172.88 325.293C1172.74 326.695 1171.49 327.722 1170.08 327.584L1167.54 327.335Z" fill="#FDBF32"/>
<path d="M1196.62 335.03L1199.14 334.613C1200.53 334.383 1201.85 335.326 1202.08 336.716C1202.31 338.106 1201.36 339.422 1199.97 339.652C1198.58 339.881 1197.27 338.939 1197.04 337.549L1196.62 335.03Z" fill="#FDBF32"/>
<path d="M1140.83 345.122L1138.53 346.24C1137.27 346.857 1135.74 346.329 1135.12 345.062C1134.5 343.795 1135.03 342.265 1136.3 341.648C1137.57 341.032 1139.1 341.559 1139.71 342.826L1140.83 345.122Z" fill="#FDBF32"/>
<path d="M1179.38 352.019L1177.08 353.137C1175.82 353.754 1174.29 353.226 1173.67 351.959C1173.05 350.692 1173.58 349.162 1174.85 348.546C1176.12 347.929 1177.65 348.457 1178.26 349.724L1179.38 352.019Z" fill="#FDBF32"/>
<path d="M1154.13 349.639L1156.52 350.538C1157.84 351.034 1158.51 352.508 1158.01 353.827C1157.52 355.146 1156.04 355.814 1154.73 355.318C1153.41 354.822 1152.74 353.348 1153.23 352.029L1154.13 349.639Z" fill="#FDBF32"/>
<path d="M1151.83 312.875L1150.46 315.034C1149.71 316.225 1148.13 316.581 1146.94 315.828C1145.75 315.076 1145.39 313.497 1146.15 312.306C1146.9 311.115 1148.48 310.759 1149.67 311.511L1151.83 312.875Z" fill="#FDBF32"/>
<path d="M1151.68 339.608L1149.29 338.71C1147.97 338.213 1147.3 336.74 1147.8 335.421C1148.29 334.102 1149.76 333.434 1151.08 333.93C1152.4 334.426 1153.07 335.9 1152.57 337.219L1151.68 339.608Z" fill="#FDBF32"/>
<path d="M1180.15 341.817L1177.76 340.918C1176.44 340.422 1175.77 338.949 1176.27 337.63C1176.77 336.311 1178.24 335.643 1179.56 336.139C1180.88 336.635 1181.55 338.109 1181.05 339.428L1180.15 341.817Z" fill="#FDBF32"/>
<path d="M1118.82 289.095L1118.06 286.659C1117.64 285.314 1118.39 283.88 1119.73 283.459C1121.08 283.039 1122.51 283.789 1122.93 285.134C1123.35 286.479 1122.6 287.913 1121.26 288.333L1118.82 289.095Z" fill="#FDBF32"/>
<path d="M1148.59 284.826L1150.75 283.459C1151.94 282.705 1153.52 283.059 1154.27 284.249C1155.03 285.439 1154.67 287.018 1153.48 287.772C1152.29 288.527 1150.71 288.173 1149.96 286.983L1148.59 284.826Z" fill="#FDBF32"/>
<path d="M1203.07 320.849L1205.23 319.482C1206.42 318.728 1208 319.082 1208.75 320.272C1209.5 321.462 1209.15 323.041 1207.96 323.796C1206.77 324.55 1205.19 324.196 1204.44 323.006L1203.07 320.849Z" fill="#FDBF32"/>
<path d="M1139.35 307.2L1137.68 309.125C1136.75 310.188 1135.14 310.299 1134.08 309.374C1133.01 308.448 1132.9 306.834 1133.83 305.771C1134.75 304.709 1136.37 304.597 1137.43 305.523L1139.35 307.2Z" fill="#FDBF32"/>
<path d="M1115.18 314.866L1117.73 314.761C1119.14 314.702 1120.33 315.798 1120.39 317.206C1120.45 318.614 1119.35 319.805 1117.94 319.863C1116.54 319.921 1115.35 318.825 1115.29 317.417L1115.18 314.866Z" fill="#FDBF32"/>
<path d="M1123.45 270.196L1123.04 272.716C1122.81 274.106 1121.5 275.05 1120.11 274.823C1118.72 274.595 1117.77 273.281 1118 271.89C1118.23 270.5 1119.54 269.555 1120.93 269.783L1123.45 270.196Z" fill="#FDBF32"/>
<path d="M1241.92 288.63L1241.51 291.15C1241.28 292.541 1239.97 293.485 1238.58 293.257C1237.19 293.029 1236.24 291.715 1236.47 290.325C1236.7 288.934 1238.01 287.99 1239.4 288.218L1241.92 288.63Z" fill="#FDBF32"/>
<path d="M1119.27 304.456L1116.72 304.562C1115.32 304.62 1114.12 303.524 1114.07 302.116C1114.01 300.708 1115.1 299.518 1116.51 299.459C1117.92 299.401 1119.11 300.497 1119.17 301.905L1119.27 304.456Z" fill="#FDBF32"/>
<path d="M1136.08 297.506L1133.53 297.611C1132.12 297.669 1130.93 296.574 1130.87 295.166C1130.82 293.758 1131.91 292.567 1133.32 292.509C1134.73 292.451 1135.92 293.547 1135.98 294.955L1136.08 297.506Z" fill="#FDBF32"/>
<path d="M1144.23 278.341L1142.5 280.219C1141.55 281.256 1139.93 281.323 1138.9 280.369C1137.86 279.414 1137.79 277.798 1138.75 276.761C1139.7 275.724 1141.32 275.657 1142.36 276.612L1144.23 278.341Z" fill="#FDBF32"/>
<path d="M1125.65 254.691L1123.39 253.507C1122.14 252.853 1121.66 251.309 1122.31 250.06C1122.96 248.812 1124.51 248.329 1125.76 248.983C1127 249.636 1127.49 251.18 1126.83 252.429L1125.65 254.691Z" fill="#FDBF32"/>
<path d="M1176.27 280.222L1178.78 280.712C1180.16 280.982 1181.06 282.325 1180.79 283.708C1180.52 285.091 1179.18 285.994 1177.8 285.724C1176.41 285.454 1175.51 284.111 1175.78 282.728L1176.27 280.222Z" fill="#FDBF32"/>
<path d="M1154.7 258.447L1157.2 258.936C1158.58 259.207 1159.49 260.549 1159.22 261.932C1158.95 263.315 1157.61 264.219 1156.22 263.948C1154.84 263.678 1153.94 262.336 1154.21 260.953L1154.7 258.447Z" fill="#FDBF32"/>
<path d="M1168.37 268.606L1167 266.449C1166.25 265.259 1166.6 263.68 1167.79 262.926C1168.98 262.171 1170.56 262.525 1171.32 263.715C1172.07 264.906 1171.72 266.485 1170.53 267.239L1168.37 268.606Z" fill="#FDBF32"/>
<path d="M1125.55 283.776L1127.94 282.874C1129.26 282.376 1130.73 283.041 1131.23 284.36C1131.73 285.678 1131.06 287.153 1129.74 287.651C1128.42 288.149 1126.95 287.483 1126.45 286.165L1125.55 283.776Z" fill="#FDBF32"/>
<path d="M1157.31 270.267L1158.67 272.424C1159.43 273.614 1159.08 275.193 1157.88 275.948C1156.69 276.702 1155.12 276.348 1154.36 275.158C1153.61 273.968 1153.96 272.389 1155.15 271.634L1157.31 270.267Z" fill="#FDBF32"/>
<path d="M1142.89 259.187L1144.25 261.343C1145.01 262.534 1144.65 264.112 1143.46 264.867C1142.27 265.621 1140.7 265.267 1139.94 264.077C1139.19 262.887 1139.54 261.308 1140.73 260.554L1142.89 259.187Z" fill="#FDBF32"/>
<path d="M1207.37 290.765L1207.3 293.318C1207.27 294.726 1206.09 295.839 1204.68 295.8C1203.27 295.762 1202.16 294.587 1202.2 293.178C1202.24 291.77 1203.41 290.657 1204.82 290.696L1207.37 290.765Z" fill="#FDBF32"/>
<path d="M1232.76 271.136L1234.97 269.859C1236.19 269.154 1237.76 269.573 1238.46 270.793C1239.17 272.013 1238.75 273.576 1237.53 274.281C1236.31 274.986 1234.74 274.567 1234.04 273.347L1232.76 271.136Z" fill="#FDBF32"/>
<path d="M1193.82 266.977L1196.03 265.7C1197.25 264.995 1198.82 265.414 1199.52 266.634C1200.23 267.855 1199.81 269.417 1198.59 270.122C1197.37 270.827 1195.8 270.409 1195.1 269.188L1193.82 266.977Z" fill="#FDBF32"/>
<path d="M1219.17 267.567L1216.73 266.84C1215.38 266.438 1214.61 265.015 1215.01 263.664C1215.41 262.314 1216.83 261.543 1218.18 261.945C1219.53 262.347 1220.3 263.769 1219.9 265.12L1219.17 267.567Z" fill="#FDBF32"/>
<path d="M1211.93 276.089L1214.37 276.817C1215.72 277.219 1216.49 278.642 1216.09 279.992C1215.69 281.343 1214.27 282.113 1212.92 281.712C1211.57 281.31 1210.8 279.887 1211.2 278.537L1211.93 276.089Z" fill="#FDBF32"/>
<path d="M1193.77 277.21L1196.22 277.938C1197.57 278.34 1198.34 279.762 1197.94 281.113C1197.54 282.464 1196.12 283.234 1194.77 282.833C1193.41 282.431 1192.64 281.008 1193.05 279.658L1193.77 277.21Z" fill="#FDBF32"/>
<path d="M1199.28 293.613L1196.73 293.692C1195.32 293.735 1194.14 292.627 1194.1 291.218C1194.05 289.81 1195.16 288.631 1196.57 288.588C1197.98 288.544 1199.16 289.652 1199.2 291.061L1199.28 293.613Z" fill="#FDBF32"/>
<path d="M1184.24 230.912L1185.84 228.916C1186.72 227.814 1188.32 227.633 1189.42 228.512C1190.53 229.391 1190.71 230.999 1189.83 232.101C1188.95 233.202 1187.34 233.383 1186.24 232.504L1184.24 230.912Z" fill="#FDBF32"/>
<path d="M1201.21 311.095L1202.8 309.099C1203.68 307.997 1205.28 307.816 1206.39 308.695C1207.49 309.574 1207.67 311.182 1206.79 312.283C1205.91 313.385 1204.3 313.566 1203.2 312.687L1201.21 311.095Z" fill="#FDBF32"/>
<path d="M1204.45 253.19L1206.79 254.211C1208.08 254.775 1208.68 256.281 1208.11 257.572C1207.55 258.864 1206.04 259.455 1204.75 258.891C1203.46 258.327 1202.87 256.821 1203.43 255.53L1204.45 253.19Z" fill="#FDBF32"/>
<path d="M1180.74 258.063L1178.21 257.751C1176.81 257.579 1175.81 256.304 1175.99 254.905C1176.16 253.507 1177.43 252.511 1178.83 252.683C1180.23 252.855 1181.23 254.13 1181.05 255.529L1180.74 258.063Z" fill="#FDBF32"/>
<path d="M1160.86 242.328L1162.37 244.382C1163.21 245.516 1162.97 247.116 1161.83 247.953C1160.7 248.79 1159.1 248.548 1158.26 247.414C1157.43 246.28 1157.67 244.68 1158.8 243.844L1160.86 242.328Z" fill="#FDBF32"/>
<path d="M1202.5 224.169L1200.18 225.238C1198.9 225.828 1197.38 225.268 1196.79 223.988C1196.2 222.708 1196.76 221.19 1198.04 220.6C1199.32 220.01 1200.84 220.571 1201.43 221.85L1202.5 224.169Z" fill="#FDBF32"/>
<path d="M1171.77 239.889L1170.26 237.835C1169.42 236.701 1169.66 235.101 1170.8 234.264C1171.93 233.428 1173.53 233.669 1174.37 234.803C1175.2 235.937 1174.96 237.537 1173.83 238.373L1171.77 239.889Z" fill="#FDBF32"/>
<path d="M1186.94 249.923L1185.42 247.868C1184.59 246.734 1184.83 245.134 1185.96 244.298C1187.1 243.461 1188.7 243.702 1189.53 244.836C1190.37 245.97 1190.13 247.57 1189 248.407L1186.94 249.923Z" fill="#FDBF32"/>
<path d="M1207.38 245.948L1204.86 245.567C1203.47 245.357 1202.51 244.055 1202.72 242.661C1202.93 241.268 1204.23 240.307 1205.62 240.517C1207.02 240.728 1207.98 242.03 1207.77 243.423L1207.38 245.948Z" fill="#FDBF32"/>
<path d="M1192.07 307.492L1191.79 304.955C1191.63 303.554 1192.64 302.29 1194.04 302.132C1195.44 301.974 1196.7 302.983 1196.86 304.384C1197.02 305.784 1196.01 307.049 1194.61 307.207L1192.07 307.492Z" fill="#FDBF32"/>
<path d="M1223.76 273.545L1224.76 275.895C1225.31 277.192 1224.71 278.692 1223.41 279.243C1222.11 279.793 1220.61 279.187 1220.06 277.89C1219.51 276.592 1220.12 275.092 1221.41 274.542L1223.76 273.545Z" fill="#FDBF32"/>
<path d="M1133.08 321.057L1134.07 323.408C1134.62 324.705 1134.02 326.205 1132.72 326.755C1131.42 327.306 1129.92 326.699 1129.37 325.402C1128.82 324.105 1129.43 322.605 1130.73 322.054L1133.08 321.057Z" fill="#FDBF32"/>
<path d="M1228.97 260.493L1229.99 258.153C1230.55 256.862 1232.06 256.271 1233.35 256.835C1234.64 257.398 1235.23 258.905 1234.67 260.196C1234.1 261.488 1232.6 262.078 1231.31 261.515L1228.97 260.493Z" fill="#FDBF32"/>
<path d="M1192.42 233.51L1194.5 234.983C1195.66 235.797 1195.93 237.391 1195.12 238.542C1194.3 239.693 1192.71 239.967 1191.56 239.154C1190.41 238.34 1190.13 236.746 1190.95 235.595L1192.42 233.51Z" fill="#FDBF32"/>
<path d="M1221.4 252.259L1220.37 254.599C1219.81 255.89 1218.3 256.481 1217.01 255.917C1215.72 255.354 1215.13 253.847 1215.69 252.556C1216.26 251.264 1217.76 250.673 1219.06 251.237L1221.4 252.259Z" fill="#FDBF32"/>
<path d="M1222.5 234.106L1221.48 236.446C1220.92 237.737 1219.41 238.328 1218.12 237.764C1216.83 237.201 1216.24 235.694 1216.8 234.403C1217.36 233.111 1218.87 232.52 1220.16 233.084L1222.5 234.106Z" fill="#FDBF32"/>
<path d="M1094.38 302.288C1086.92 257.147 1117.57 214.353 1162.7 206.893L1162.86 207.879C1118.27 215.25 1088 257.528 1095.37 302.124L1094.38 302.288Z" fill="#753914"/>
<path d="M1101.14 324.052C1097.9 317.17 1095.63 309.848 1094.38 302.288L1095.37 302.124C1096.6 309.594 1098.85 316.828 1102.04 323.626L1101.14 324.052Z" fill="#753914"/>
<path d="M1176.33 371.71C1144.61 371.71 1114.9 353.379 1101.14 324.051L1102.04 323.626C1117.54 356.666 1153.55 375.576 1189.6 369.62L1189.76 370.606C1185.27 371.349 1180.78 371.71 1176.33 371.71Z" fill="#753914"/>
<path d="M1106.87 379.418C1110.7 374.075 1108.87 366.209 1102.78 361.849C1096.7 357.488 1088.66 358.285 1084.83 363.628C1081 368.971 1082.84 376.837 1088.92 381.198C1095.01 385.558 1103.05 384.761 1106.87 379.418Z" fill="#FD5817"/>
<path d="M1112.61 397.439C1117.82 395.81 1121.05 391.334 1119.84 387.44C1118.62 383.547 1113.41 381.711 1108.2 383.34C1102.99 384.969 1099.76 389.446 1100.98 393.339C1102.19 397.233 1107.4 399.068 1112.61 397.439Z" fill="#FDBF32"/>
<path d="M1124.54 457.017L1122.52 450.316C1131.43 447.624 1136.27 447.296 1140.95 446.979C1145.44 446.676 1149.68 446.389 1157.83 443.926C1165.99 441.462 1169.68 439.353 1173.58 437.121C1177.66 434.792 1181.87 432.385 1190.78 429.692C1199.7 426.999 1204.54 426.671 1209.22 426.354C1213.71 426.051 1217.95 425.764 1226.1 423.3L1228.13 430.001C1219.21 432.694 1214.37 433.022 1209.69 433.339C1205.2 433.643 1200.96 433.93 1192.81 436.393C1184.65 438.856 1180.96 440.965 1177.06 443.198C1172.98 445.526 1168.77 447.934 1159.86 450.627C1150.94 453.319 1146.1 453.647 1141.42 453.964C1136.93 454.268 1132.69 454.554 1124.54 457.017Z" fill="#FDBF32"/>
<path d="M1172.67 505.469L1168.19 500.09C1178.37 491.614 1184.33 488.261 1190.1 485.017C1195.85 481.786 1201.28 478.734 1210.96 470.668C1220.64 462.602 1224.63 457.814 1228.84 452.746C1233.08 447.659 1237.45 442.398 1247.63 433.922C1257.8 425.448 1263.77 422.095 1269.53 418.852C1275.28 415.621 1280.71 412.57 1290.39 404.505L1294.87 409.884C1284.7 418.358 1278.73 421.711 1272.97 424.954C1267.22 428.185 1261.79 431.236 1252.11 439.301C1242.42 447.367 1238.44 452.155 1234.22 457.223C1229.99 462.311 1225.62 467.571 1215.44 476.047C1205.26 484.522 1199.3 487.876 1193.53 491.119C1187.78 494.351 1182.35 497.402 1172.67 505.469Z" fill="#FFD574"/>
<path d="M1231.95 396.446L1127.11 404.972L1127.68 411.949L1232.52 403.423L1231.95 396.446Z" fill="#FDBF32"/>
<path d="M1261.7 446.217L1135.95 462.565L1136.85 469.506L1262.61 453.158L1261.7 446.217Z" fill="#FDBF32"/>
<path d="M1239.19 380.418L1147.16 416.445L1149.71 422.964L1241.74 386.936L1239.19 380.418Z" fill="#FFD574"/>
<path d="M1212.08 441.592L1131.19 447.43L1131.69 454.411L1212.58 448.573L1212.08 441.592Z" fill="#FFD574"/>
<path d="M1302.54 327.359L1250.97 404.676L1256.8 408.56L1308.36 331.243L1302.54 327.359Z" fill="#FFD574"/>
<path d="M1297.78 391.515C1292.28 390.226 1289.64 388.92 1287.09 387.657C1284.79 386.52 1282.62 385.446 1277.91 384.341C1273.2 383.236 1270.78 383.235 1268.21 383.233C1265.37 383.231 1262.42 383.229 1256.92 381.941C1251.42 380.652 1248.79 379.346 1246.24 378.083C1243.94 376.946 1241.77 375.872 1237.06 374.767L1238.65 367.952C1244.15 369.241 1246.79 370.546 1249.34 371.81C1251.64 372.947 1253.81 374.021 1258.52 375.125C1263.24 376.23 1265.66 376.232 1268.22 376.233C1271.06 376.235 1274.01 376.237 1279.51 377.526C1285.01 378.815 1287.64 380.121 1290.2 381.384C1292.49 382.521 1294.66 383.595 1299.37 384.699L1297.78 391.515Z" fill="#FDBF32"/>
<path d="M396.794 -16.3762L492.351 201.212L487.389 203.485L385.053 -10.9987L396.794 -16.3762Z" fill="#B89FD4"/>
<path d="M430.947 -40.1958L498.333 187.697L493.123 189.326L418.622 -36.3401L430.947 -40.1958Z" fill="#B89FD4"/>
<path d="M843.264 -83.0746C926.414 -73.4933 987.743 11.2183 980.247 106.134C972.752 201.049 887.586 271.974 790.025 264.549C692.464 257.123 631.134 172.412 653.042 75.3403C674.95 -21.7311 760.115 -92.6559 843.264 -83.0746Z" fill="#B89FD4"/>
<path d="M857.429 -72.1366C940.634 -62.5489 1002.74 15.8206 996.151 102.906C989.56 189.992 905.104 254.311 807.514 246.566C709.923 238.821 647.816 160.451 668.792 71.5226C689.769 -17.4059 774.224 -81.7244 857.429 -72.1366Z" fill="#FBE1E0"/>
<path d="M807.434 247.563C782.365 245.573 759.225 238.985 738.659 227.982C718.775 217.344 702.259 203.125 689.57 185.721C665.821 153.147 658.097 112.51 667.819 71.2933L669.765 71.7523C660.179 112.391 667.786 152.448 691.186 184.543C703.697 201.702 719.986 215.723 739.602 226.219C759.924 237.091 782.8 243.601 807.592 245.569L807.434 247.563Z" fill="#6860AD"/>
<path d="M823.165 248.186C817.939 248.186 812.691 247.98 807.435 247.563L807.593 245.569C857.641 249.54 906.905 234.215 942.757 203.521C973.632 177.089 992.24 141.329 995.154 102.831L997.148 102.982C994.194 142.015 975.34 178.26 944.058 205.04C911.573 232.851 868.213 248.186 823.165 248.186Z" fill="#6860AD"/>
<path d="M785.954 -51.2269L813.027 -55.1687L839.921 -51.9792L865.692 -43.9822L890.03 -32.3561L914.45 -20.8544L936.853 -5.7487L956.945 12.718L966.909 38.0297L974.03 64.0392L972.964 91.4083L962.513 116.652L952.154 141.581L941.558 166.667L924.057 187.557L904.753 206.331L881.344 219.879L854.632 224.627L828.19 219.517L800.987 216.331L777.358 202.645L753.562 189.981L730.759 175.522L712.849 155.403L698.826 132.356L693.228 105.681L695.359 78.4304L706.64 53.6079L715.116 27.9333L729.916 5.3001L741.793 -19.3614L763.96 -35.2241L785.954 -51.2269Z" fill="#FFD574"/>
<path d="M854.613 227.169L827.807 221.989L800.182 218.754L776.105 204.808L752.224 192.092L729.125 177.446L710.714 156.702L696.467 133.289L690.707 105.843L692.901 77.7966L704.309 52.696L712.845 26.8391L727.735 4.06861L739.818 -21.0222L762.505 -37.2576L784.983 -53.6121L812.994 -57.6902L840.661 -54.367L866.77 -46.2381L891.107 -34.6121L915.847 -22.9275L938.545 -7.58958L959.06 11.2668L969.32 37.3693L976.543 63.7506L975.445 91.9513L954.463 142.54L943.715 167.985L925.8 189.349L906.273 208.339L882.215 222.263L854.613 227.169ZM801.792 213.909L828.665 217.062L854.651 222.084L880.473 217.495L903.232 204.323L922.222 185.854L939.4 165.348L949.852 140.608L970.483 90.8645L971.517 64.3269L964.533 38.8196L954.83 14.1692L935.299 -3.78098L913.211 -18.675L888.964 -30.0944L864.778 -41.6481L839.399 -49.5236L813.06 -52.6471L786.925 -48.8424L765.431 -33.2028L743.768 -17.7004L732.009 6.66831L717.388 29.0277L708.916 54.642L697.817 79.0644L695.748 105.518L701.184 131.423L714.868 153.91L732.393 173.599L754.821 187.819L778.533 200.438L801.792 213.909Z" fill="#FDF6E9"/>
<path d="M848.39 99.7716C842.378 91.8999 832.144 100.481 835.869 108.789C840.045 118.102 853.799 116.087 858.304 108.209C864.34 97.6513 856.586 85.6665 847.01 80.7683C837.916 76.1163 823.774 73.6671 815.225 80.8209C804.671 89.6527 812.341 103.582 819.842 111.345C828.367 120.168 839.882 130.233 853.151 128.063C864.047 126.28 872.597 116.062 873.638 105.27C874.721 94.0416 867.129 83.8723 857.176 79.4113C833.307 68.713 810.567 94.2939 816.774 117.521C823.881 144.116 856.638 153.166 878.896 139.302C889.426 132.743 896.53 121.637 895.501 108.968C894.397 95.3887 885.983 82.5007 876.981 72.6981C860.278 54.508 833.889 44.6963 811.063 57.761C800.913 63.5709 793.655 73.382 792.296 85.1282C790.68 99.094 796.493 113.278 804.878 124.203C820.267 144.253 847.58 156.281 872.099 146.36C896.515 136.48 909.556 110.214 899.01 85.3905C888.731 61.1994 860.656 46.9475 835.032 52.5699C810.546 57.9428 791.366 80.6928 791.633 105.956C791.922 133.301 812.299 155.914 839.343 159.351C864.903 162.598 891.077 148.111 902.287 124.944C913.597 101.567 908.205 71.6648 889.419 53.7338C869.948 35.1486 840.228 31.1036 816.065 42.3359C792.089 53.4814 776.082 77.3505 775.539 103.849C774.979 131.183 789.794 156.743 814.106 169.348C837.644 181.552 865.939 180.504 888.307 166.199C911.11 151.616 924.348 126.402 923.908 99.4045C923.454 71.5385 909.726 44.1197 887.785 26.968C866.261 10.1416 838.657 6.55857 813.907 18.4628C788.561 30.654 772.673 55.4183 768.636 82.8631C764.676 109.786 770.885 140.015 788.272 161.405C807.283 184.793 839.083 189.779 867.52 185.665C895.104 181.675 922.774 165.231 930.236 136.774C934.184 121.716 931.95 105.828 928.282 90.9524C924.889 77.1938 920.463 63.5624 914.397 50.7372C902.783 26.1777 883.653 5.21126 856.223 -0.741535C828.379 -6.78424 799.7 2.79916 779.294 22.2003C757.757 42.676 745.75 72.6617 746.953 102.337C748.134 131.477 762.221 159.553 785.137 177.64C805.956 194.072 833.053 202.45 859.52 200.437C885.99 198.424 911.089 185.917 929.579 167.018C971.23 124.448 971.246 54.8481 933.551 9.78736C896.08 -35.0063 828.111 -47.1513 778.102 -16.0756C731.458 12.9091 710.096 72.9678 730.273 124.347C739.681 148.303 756.708 168.898 778.921 181.994C780.575 182.969 782.075 180.397 780.424 179.424C739.053 155.034 716.958 104.173 728.464 57.3897C740.399 8.86436 782.879 -27.0832 832.794 -30.228C884.133 -33.4625 933.161 -2.67794 951.256 45.7875C969.408 94.406 953.002 150.869 909.47 179.845C869.064 206.741 813.582 202.588 778.789 168.065C739.919 129.498 741.267 64.2493 779.748 25.9073C797.989 7.73277 823.38 -2.25533 849.18 1.06347C874.799 4.35897 894.431 20.924 906.943 42.8327C912.801 53.0909 917.196 64.1201 920.774 75.3588C924.8 88.0043 928.361 101.141 929.177 114.435C930.021 128.175 927.334 141.725 919.419 153.16C912.589 163.028 902.798 170.643 891.942 175.629C878.66 181.73 863.85 183.992 849.32 183.913C835.686 183.84 821.675 181.676 809.506 175.232C787.518 163.589 775.72 139.2 771.868 115.505C767.748 90.1592 772.58 62.2086 788.994 41.8887C803.872 23.4712 828.044 11.7159 851.923 14.5557C902.6 20.5822 933.804 83.8533 915.596 129.289C906.603 151.731 885.7 169.029 861.992 173.708C838.3 178.384 812.54 169.819 796.226 152.05C779.52 133.854 774.121 106.429 782.207 83.1568C790.029 60.6421 811.009 43.5527 834.428 39.6959C859.29 35.6014 886.029 47.5537 898.066 69.9724C909.682 91.6077 906.977 119.162 890.236 137.34C873.181 155.859 845.151 162.648 822.225 151.139C800.113 140.038 789.097 112.601 797.357 89.2418C805.294 66.798 828.79 51.9649 852.425 54.6423C878.434 57.5888 902.901 80.913 899.741 108.447C897.003 132.299 872.364 148.83 849.355 146.806C824.948 144.659 803.07 124.906 796.672 101.539C793.126 88.5891 795.383 74.8823 805.455 65.519C813.295 58.2309 824.263 54.445 834.898 54.5836C859.79 54.9079 882.558 77.1181 890.409 99.6303C894.896 112.496 891.946 125.296 881.248 134.001C870.899 142.422 856.236 145.012 843.525 141.163C831.049 137.385 821.271 126.836 819.015 113.902C816.892 101.73 822.82 89.2363 833.627 83.1867C844.878 76.8878 859.231 80.3055 866.692 90.8143C874.137 101.299 870.48 116.135 859.443 122.6C846.827 129.989 833.903 120.865 824.869 112.158C820.075 107.536 814.805 102.317 813.407 95.5404C811.704 87.2811 816.887 81.2571 824.706 79.8168C836.174 77.7041 852.471 83.1356 856.46 95.0208C858.651 101.547 856.613 109.499 849.366 111.592C846.69 112.364 843.539 112.271 841.171 110.654C838.897 109.102 837.264 105.924 838.123 103.122C839.105 99.9167 843.409 98.1157 845.821 101.273C846.968 102.775 849.554 101.295 848.39 99.7716Z" fill="#FDBF32"/>
<mask id="mask1_1528_82491" style="mask-type:luminance" maskUnits="userSpaceOnUse" x="729" y="-13" width="184" height="184">
<path d="M790.324 -8.88832C798.02 -11.5962 806.581 -9.67352 814.347 -10.2736C822.381 -10.8945 830.558 -14.0386 838.297 -12.5806C846.147 -11.1018 852.622 -5.16592 859.777 -1.73512C866.932 1.69568 875.614 3.02708 881.682 8.22098C887.664 13.3415 890.333 21.6858 894.879 28.3385C899.273 34.7685 906.133 40.2389 908.841 47.9345C911.549 55.6305 909.626 64.1914 910.226 71.9568C910.847 79.9911 913.991 88.1686 912.533 95.9072C911.054 103.757 905.118 110.232 901.688 117.387C898.257 124.542 896.925 133.224 891.731 139.292C886.611 145.274 878.267 147.943 871.614 152.489C865.184 156.884 859.714 163.743 852.018 166.451C844.322 169.159 835.761 167.236 827.996 167.836C819.961 168.457 811.784 171.601 804.045 170.143C796.196 168.664 789.72 162.728 782.565 159.298C775.411 155.867 766.728 154.535 760.661 149.342C754.679 144.221 752.01 135.877 747.463 129.224C743.069 122.794 736.209 117.324 733.502 109.628C730.794 101.932 732.716 93.3712 732.116 85.6058C731.495 77.5715 728.351 69.394 729.809 61.6554C731.288 53.8059 737.224 47.3306 740.655 40.1755C744.085 33.0208 745.417 24.3384 750.611 18.2707C755.731 12.2887 764.076 9.61988 770.728 5.07328C777.158 0.678982 782.629 -6.18062 790.324 -8.88832Z" fill="white"/>
</mask>
<g mask="url(#mask1_1528_82491)">
<path d="M790.325 -8.88832C798.021 -11.5962 806.581 -9.67352 814.347 -10.2736C822.381 -10.8945 830.559 -14.0386 838.297 -12.5806C846.147 -11.1018 852.622 -5.16592 859.777 -1.73512C866.932 1.69568 875.614 3.02708 881.682 8.22098C887.664 13.3415 890.333 21.6858 894.879 28.3385C899.274 34.7685 906.133 40.2389 908.841 47.9345C911.549 55.6305 909.626 64.1914 910.226 71.9568C910.847 79.9911 913.991 88.1686 912.533 95.9072C911.054 103.757 905.119 110.232 901.688 117.387C898.257 124.542 896.926 133.224 891.732 139.292C886.611 145.274 878.267 147.943 871.614 152.489C865.184 156.884 859.714 163.743 852.018 166.451C844.322 169.159 835.761 167.236 827.996 167.836C819.962 168.457 811.784 171.601 804.045 170.143C796.196 168.664 789.721 162.728 782.566 159.298C775.411 155.867 766.728 154.535 760.661 149.342C754.679 144.221 752.01 135.877 747.463 129.224C743.069 122.794 736.209 117.324 733.502 109.628C730.794 101.932 732.717 93.3712 732.116 85.6058C731.496 77.5715 728.352 69.394 729.81 61.6554C731.288 53.8059 737.224 47.3306 740.655 40.1755C744.085 33.0208 745.417 24.3384 750.611 18.2707C755.732 12.2887 764.076 9.61988 770.729 5.07328C777.159 0.678982 782.629 -6.18062 790.325 -8.88832Z" fill="#FD5817"/>
<path d="M848.39 99.7716C842.378 91.8999 832.144 100.481 835.869 108.789C840.045 118.102 853.799 116.087 858.304 108.209C864.34 97.6513 856.586 85.6665 847.01 80.7683C837.916 76.1163 823.774 73.6671 815.225 80.8209C804.671 89.6527 812.341 103.582 819.842 111.345C828.367 120.168 839.882 130.233 853.151 128.063C864.047 126.28 872.597 116.062 873.638 105.27C874.721 94.0416 867.129 83.8723 857.176 79.4113C833.307 68.713 810.567 94.2939 816.774 117.521C823.881 144.116 856.638 153.166 878.896 139.302C889.426 132.743 896.53 121.637 895.501 108.968C894.397 95.3887 885.983 82.5007 876.981 72.6981C860.278 54.508 833.889 44.6963 811.063 57.761C800.913 63.5709 793.655 73.382 792.296 85.1282C790.68 99.094 796.493 113.278 804.878 124.203C820.267 144.253 847.58 156.281 872.099 146.36C896.515 136.48 909.556 110.214 899.01 85.3905C888.731 61.1994 860.656 46.9475 835.032 52.5699C810.546 57.9428 791.366 80.6928 791.633 105.956C791.922 133.301 812.299 155.914 839.343 159.351C864.903 162.598 891.077 148.111 902.287 124.944C913.597 101.567 908.205 71.6648 889.419 53.7338C869.948 35.1486 840.228 31.1036 816.065 42.3359C792.089 53.4814 776.082 77.3505 775.539 103.849C774.979 131.183 789.794 156.743 814.106 169.348C837.644 181.552 865.939 180.504 888.307 166.199C911.11 151.616 924.348 126.402 923.908 99.4045C923.454 71.5385 909.726 44.1197 887.785 26.968C866.261 10.1416 838.657 6.55857 813.907 18.4628C788.561 30.654 772.673 55.4183 768.636 82.8631C764.676 109.786 770.885 140.015 788.272 161.405C807.283 184.793 839.083 189.779 867.52 185.665C895.104 181.675 922.774 165.231 930.236 136.774C934.184 121.716 931.95 105.828 928.282 90.9524C924.889 77.1938 920.463 63.5624 914.397 50.7372C902.783 26.1777 883.653 5.21126 856.223 -0.741535C828.379 -6.78424 799.7 2.79916 779.294 22.2003C757.757 42.676 745.75 72.6617 746.953 102.337C748.134 131.477 762.221 159.553 785.137 177.64C805.956 194.072 833.053 202.45 859.52 200.437C885.99 198.424 911.089 185.917 929.579 167.018C971.23 124.448 971.246 54.8481 933.551 9.78736C896.08 -35.0063 828.111 -47.1513 778.102 -16.0756C731.458 12.9091 710.096 72.9678 730.273 124.347C739.681 148.303 756.708 168.898 778.921 181.994C780.575 182.969 782.075 180.397 780.424 179.424C739.053 155.034 716.958 104.173 728.464 57.3897C740.399 8.86436 782.879 -27.0832 832.794 -30.228C884.133 -33.4625 933.161 -2.67794 951.256 45.7875C969.408 94.406 953.002 150.869 909.47 179.845C869.064 206.741 813.582 202.588 778.789 168.065C739.919 129.498 741.267 64.2493 779.748 25.9073C797.989 7.73277 823.38 -2.25533 849.18 1.06347C874.799 4.35897 894.431 20.924 906.943 42.8327C912.801 53.0909 917.196 64.1201 920.774 75.3588C924.8 88.0043 928.361 101.141 929.177 114.435C930.021 128.175 927.334 141.725 919.419 153.16C912.589 163.028 902.798 170.643 891.942 175.629C878.66 181.73 863.85 183.992 849.32 183.913C835.686 183.84 821.675 181.676 809.506 175.232C787.518 163.589 775.72 139.2 771.868 115.505C767.748 90.1592 772.58 62.2086 788.994 41.8887C803.872 23.4712 828.044 11.7159 851.923 14.5557C902.6 20.5822 933.804 83.8533 915.596 129.289C906.603 151.731 885.7 169.029 861.992 173.708C838.3 178.384 812.54 169.819 796.226 152.05C779.52 133.854 774.121 106.429 782.207 83.1568C790.029 60.6421 811.009 43.5527 834.428 39.6959C859.29 35.6014 886.029 47.5537 898.066 69.9724C909.682 91.6077 906.977 119.162 890.236 137.34C873.181 155.859 845.151 162.648 822.225 151.139C800.113 140.038 789.097 112.601 797.357 89.2418C805.294 66.798 828.79 51.9649 852.425 54.6423C878.434 57.5888 902.901 80.913 899.741 108.447C897.003 132.299 872.364 148.83 849.355 146.806C824.948 144.659 803.07 124.906 796.672 101.539C793.126 88.5891 795.383 74.8823 805.455 65.519C813.295 58.2309 824.263 54.445 834.898 54.5836C859.79 54.9079 882.558 77.1181 890.409 99.6303C894.896 112.496 891.946 125.296 881.248 134.001C870.899 142.422 856.236 145.012 843.525 141.163C831.049 137.385 821.271 126.836 819.015 113.902C816.892 101.73 822.82 89.2363 833.627 83.1867C844.878 76.8878 859.231 80.3055 866.692 90.8143C874.137 101.299 870.48 116.135 859.443 122.6C846.827 129.989 833.903 120.865 824.869 112.158C820.075 107.536 814.805 102.317 813.407 95.5404C811.704 87.2811 816.887 81.2571 824.706 79.8168C836.174 77.7041 852.471 83.1356 856.46 95.0208C858.651 101.547 856.613 109.499 849.366 111.592C846.69 112.364 843.539 112.271 841.171 110.654C838.897 109.102 837.264 105.924 838.123 103.122C839.105 99.9167 843.409 98.1157 845.821 101.273C846.968 102.775 849.554 101.295 848.39 99.7716Z" fill="#E34612"/>
</g>
<path d="M1134.97 146.871L947.392 294.037C946.519 294.722 946.766 296.106 947.823 296.446L954.177 298.492C960.753 300.61 967.928 299.738 973.805 296.105L1037.25 256.898C1046.31 251.297 1052.72 242.263 1055.01 231.858L1055.4 230.087L1149.44 166.761C1155.17 162.905 1156.6 155.095 1152.62 149.455C1148.56 143.703 1140.51 142.525 1134.97 146.871Z" fill="#B89FD4"/>
<path d="M812.174 100.544C815.888 94.7314 812.259 85.7769 804.068 80.5437C795.877 75.3104 786.227 75.7803 782.513 81.5931C778.799 87.4058 782.428 96.3604 790.619 101.594C798.81 106.827 808.46 106.357 812.174 100.544Z" fill="#719B5A"/>
<path d="M840.339 79.6601C845.572 71.4694 845.102 61.8187 839.289 58.1049C833.476 54.391 824.522 58.0202 819.289 66.2109C814.055 74.4017 814.525 84.0523 820.338 87.7662C826.151 91.4801 835.105 87.8509 840.339 79.6601Z" fill="#719B5A"/>
<path d="M831.001 110.668C821.843 104.817 819.151 92.6029 825.003 83.444L831.166 73.799L828.461 72.0706L822.298 81.7156C817.782 88.7839 817.664 97.4055 821.193 104.401L788.512 83.521L786.783 86.2261L837.719 118.77L839.447 116.064L831.001 110.668Z" fill="#4C8230"/>
<path d="M1009.12 164.693L1048.61 119.21C1052.12 115.165 1057.17 113.254 1062.15 113.556C1062.13 113.577 1062.11 113.595 1062.09 113.616L1015.28 170.038L1018.99 173.258L1067.04 117.909L1067.07 117.876C1068.23 116.554 1070.24 116.418 1071.57 117.572L1071.92 117.872C1072.98 118.799 1073.47 120.324 1072.9 121.621C1072.77 121.937 1072.58 122.238 1072.34 122.512L1024.29 177.861L1028 181.081L1077.29 126.805C1077.3 126.785 1077.32 126.762 1077.34 126.741C1078.34 131.623 1077.15 136.897 1073.64 140.942L1034.16 186.426L1037.87 189.646L1078.59 145.235C1083.24 139.872 1084.98 132.957 1083.94 126.439C1082.62 118.144 1085.31 109.71 1090.81 103.367L1179.84 9.98339C1184.15 5.46569 1183.81 -1.73431 1179.1 -5.82601C1174.38 -9.91771 1167.21 -9.24241 1163.34 -4.34311L1083.4 96.9275C1077.89 103.27 1069.92 107.114 1061.52 106.972C1054.92 106.861 1048.32 109.553 1043.66 114.917L1005.42 161.474L1009.12 164.693Z" fill="#B89FD4"/>
<path d="M582.452 395.767C653.503 340.629 685.548 263.001 654.025 222.381C622.502 181.761 539.35 193.531 468.298 248.669C397.247 303.807 365.203 381.435 396.725 422.055C428.248 462.675 511.4 450.906 582.452 395.767Z" fill="#FBE1E0"/>
<path d="M455.847 428.764C436.436 428.765 420.607 422.96 411.192 410.828C385.851 378.173 416.456 311.856 479.417 262.997C509.873 239.362 543.272 223.272 573.464 217.69C603.768 212.087 627.243 217.74 639.558 233.609C651.872 249.478 651.521 273.619 638.569 301.586C625.667 329.446 601.789 357.806 571.333 381.441C531.764 412.148 488.683 428.763 455.847 428.764ZM594.995 216.582C588.36 216.582 581.221 217.273 573.645 218.674C543.609 224.227 510.362 240.248 480.03 263.787C417.505 312.308 386.979 377.996 411.982 410.215C421.221 422.12 436.775 427.815 455.862 427.817C488.431 427.819 531.299 411.243 570.72 380.65C601.052 357.112 624.826 328.884 637.662 301.166C650.449 273.555 650.841 249.78 638.767 234.222C629.751 222.603 614.568 216.582 594.995 216.582Z" fill="#8C86C1"/>
<path d="M481.36 390.439C492.296 405.261 488.744 426.436 473.422 437.74C458.101 449.044 436.821 446.19 425.885 431.368C418.369 421.181 417.692 407.985 422.988 397.056L422.996 397.05C425.403 392.093 429.035 387.599 433.823 384.067C439.069 380.196 445.025 377.977 451.02 377.344C462.51 376.124 474.171 380.694 481.36 390.439Z" fill="#FD5817"/>
<path d="M531.678 395.271C544.471 385.833 547.439 368.148 538.307 355.771C529.175 343.393 511.402 341.011 498.609 350.45C485.816 359.888 482.848 377.573 491.98 389.95C501.111 402.328 518.885 404.71 531.678 395.271Z" fill="#F46441"/>
<path d="M587.817 296.796C598.753 311.619 595.201 332.794 579.879 344.098C564.558 355.402 543.278 352.548 532.342 337.726C528.572 332.616 526.526 326.744 526.081 320.784C525.25 309.467 530.24 297.82 540.274 290.417C552.24 281.588 567.836 281.403 579.306 288.797C582.526 290.871 585.419 293.545 587.817 296.796Z" fill="#FD5817"/>
<path d="M652.639 264.071C663.574 278.893 660.022 300.068 644.701 311.372C629.379 322.676 608.099 319.822 597.163 305C592.621 298.844 590.576 291.592 590.845 284.41C591.206 274.288 596.145 264.307 605.101 257.699C606.179 256.903 607.283 256.176 608.418 255.525C623.371 246.854 642.475 250.294 652.639 264.071Z" fill="#F46441"/>
<path d="M591.615 220.016C595.569 225.375 597.462 231.646 597.432 237.906C597.409 247.542 592.845 257.173 584.315 263.466C573.822 271.208 560.28 271.717 549.912 265.834C546.367 263.826 543.207 261.075 540.654 257.615C530.609 243.999 533.879 224.548 547.945 214.171C562.019 203.787 581.57 206.401 591.615 220.016Z" fill="#FD5817"/>
<path d="M521.228 264.602C524.155 268.569 526.041 272.994 526.945 277.572C529.414 290.065 524.5 303.633 513.29 311.903C502.483 319.877 488.706 320.808 477.691 315.464C473.087 313.231 468.969 309.907 465.745 305.537C454.809 290.715 458.37 269.534 473.691 258.23C489.004 246.932 510.293 249.78 521.228 264.602Z" fill="#F46441"/>
<path d="M480.556 391.033C473.778 381.847 462.778 377.102 451.126 378.338L450.915 376.349C463.285 375.04 474.962 380.082 482.165 389.845L480.556 391.033Z" fill="#E34612"/>
<path d="M531.538 338.319C527.79 333.24 525.558 327.201 525.084 320.859L527.078 320.709C527.524 326.677 529.623 332.355 533.147 337.132L531.538 338.319Z" fill="#E34612"/>
<path d="M623.896 319.291C622.32 319.291 620.737 319.186 619.155 318.975C609.906 317.735 601.81 312.983 596.359 305.594L597.968 304.406C603.095 311.355 610.713 315.825 619.42 316.992C628.14 318.164 636.907 315.879 644.107 310.567L645.294 312.177C638.98 316.835 631.522 319.291 623.896 319.291Z" fill="#E34612"/>
<path d="M464.94 306.131C459.489 298.743 457.339 289.604 458.885 280.399C460.429 271.207 465.477 263.048 473.097 257.426L474.284 259.035C467.084 264.348 462.315 272.052 460.858 280.73C459.402 289.396 461.423 297.995 466.55 304.944L464.94 306.131Z" fill="#E34612"/>
<path d="M467.747 313.927C469.664 316.526 471.139 319.316 472.174 322.218C477.073 335.865 472.443 351.907 459.809 361.228C449.268 369.006 435.897 370.085 425.025 365.169C420.098 362.938 415.679 359.476 412.272 354.857C401.336 340.034 404.888 318.86 420.21 307.556C435.531 296.252 456.811 299.105 467.747 313.927Z" fill="#FD5817"/>
<path d="M433.823 384.067C439.069 380.196 445.025 377.977 451.02 377.344L422.997 397.05C425.404 392.093 429.035 387.599 433.823 384.067Z" fill="#E34612"/>
<path d="M472.174 322.218C477.073 335.865 472.443 351.908 459.809 361.229C449.268 369.006 435.897 370.085 425.025 365.169C442.09 358.047 469.728 343.36 472.174 322.218Z" fill="#E34612"/>
<path d="M513.29 311.903C502.483 319.876 488.706 320.808 477.691 315.464C487.293 307.187 508.171 289.72 526.945 277.571C529.415 290.065 524.5 303.633 513.29 311.903Z" fill="#E34612"/>
<path d="M579.306 288.797C567.121 289.598 544.517 294.904 526.081 320.784C525.25 309.467 530.24 297.82 540.274 290.417C552.24 281.588 567.836 281.403 579.306 288.797Z" fill="#E34612"/>
<path d="M549.912 265.834C561.155 261.08 581.321 251.458 597.432 237.906C597.409 247.542 592.845 257.173 584.315 263.466C573.822 271.208 560.28 271.717 549.912 265.834Z" fill="#E34612"/>
<path d="M605.101 257.699C606.179 256.904 607.283 256.176 608.418 255.525L590.845 284.41C591.206 274.288 596.145 264.307 605.101 257.699Z" fill="#E34612"/>
<path d="M461.003 410.005C458.233 412.324 457.027 414.322 456.268 417.853C456.093 418.666 455.059 418.922 454.525 418.285C452.207 415.515 450.208 414.309 446.677 413.55C445.864 413.375 445.608 412.341 446.246 411.807C449.015 409.489 450.221 407.49 450.981 403.959C451.155 403.146 452.19 402.89 452.723 403.527C455.042 406.297 457.041 407.503 460.572 408.263C461.384 408.437 461.64 409.471 461.003 410.005Z" fill="#4C8230"/>
<path d="M520.547 369.805C519.152 372.479 518.861 374.407 519.405 377.374C519.53 378.056 518.814 378.585 518.198 378.264C515.524 376.869 513.596 376.578 510.63 377.122C509.947 377.247 509.419 376.531 509.74 375.915C511.134 373.241 511.425 371.313 510.882 368.347C510.757 367.664 511.473 367.136 512.088 367.457C514.762 368.851 516.69 369.142 519.657 368.599C520.339 368.474 520.868 369.19 520.547 369.805Z" fill="#4C8230"/>
<path d="M567.31 315.551C564.813 318.161 563.834 320.28 563.468 323.873C563.384 324.7 562.384 325.069 561.784 324.494C559.174 321.997 557.055 321.018 553.462 320.653C552.635 320.568 552.266 319.569 552.841 318.968C555.338 316.359 556.317 314.239 556.682 310.646C556.767 309.819 557.766 309.451 558.367 310.025C560.976 312.522 563.096 313.501 566.689 313.867C567.516 313.951 567.884 314.951 567.31 315.551Z" fill="#4C8230"/>
<path d="M625.113 277.108C626.992 280.193 628.788 281.684 632.166 282.962C632.943 283.257 633.042 284.318 632.332 284.75C629.248 286.629 627.756 288.425 626.478 291.803C626.184 292.581 625.123 292.679 624.691 291.969C622.812 288.885 621.015 287.394 617.637 286.115C616.86 285.821 616.761 284.76 617.471 284.328C620.556 282.449 622.047 280.652 623.325 277.275C623.619 276.497 624.68 276.399 625.113 277.108Z" fill="#4C8230"/>
<path d="M571.604 234.729C570.455 237.841 570.407 239.985 571.414 243.145C571.646 243.873 570.938 244.549 570.222 244.285C567.11 243.136 564.966 243.088 561.805 244.095C561.078 244.327 560.402 243.619 560.666 242.903C561.815 239.791 561.863 237.647 560.856 234.486C560.624 233.759 561.331 233.083 562.048 233.347C565.16 234.496 567.304 234.544 570.464 233.537C571.192 233.305 571.868 234.012 571.604 234.729Z" fill="#4C8230"/>
<path d="M499.312 289.692C495.716 289.348 493.446 289.894 490.399 291.832C489.698 292.279 488.789 291.722 488.868 290.895C489.212 287.299 488.666 285.029 486.727 281.982C486.281 281.281 486.838 280.372 487.665 280.451C491.261 280.795 493.531 280.249 496.578 278.311C497.279 277.864 498.188 278.421 498.109 279.248C497.765 282.844 498.31 285.114 500.249 288.161C500.696 288.862 500.139 289.771 499.312 289.692Z" fill="#4C8230"/>
<path d="M447.188 332.455C444.775 335.143 443.864 337.292 443.613 340.895C443.555 341.724 442.567 342.124 441.949 341.569C439.261 339.156 437.112 338.245 433.509 337.993C432.68 337.935 432.28 336.948 432.835 336.329C435.248 333.642 436.159 331.492 436.411 327.889C436.468 327.06 437.456 326.66 438.075 327.216C440.762 329.629 442.912 330.539 446.514 330.791C447.344 330.849 447.743 331.837 447.188 332.455Z" fill="#4C8230"/>
<path d="M661.756 199.262C643.491 211.038 623.272 225.192 602.614 240.299C602.576 240.327 602.526 240.327 602.487 240.3C601.683 239.739 600.624 239.584 599.657 239.997L597.29 241.007C595.739 241.669 595.018 243.464 595.681 245.015L595.769 245.221C595.789 245.269 595.774 245.326 595.732 245.357C589.69 249.815 583.627 254.34 577.577 258.897C577.537 258.927 577.485 258.926 577.445 258.897C576.667 258.313 575.627 258.123 574.66 258.484C574.603 258.506 574.539 258.479 574.517 258.422L567.112 238.573C567.09 238.514 567.024 238.484 566.965 238.506L565.305 239.125C565.245 239.147 565.215 239.213 565.237 239.272L572.675 259.207C572.696 259.264 572.669 259.328 572.612 259.352L572.167 259.543C570.616 260.205 569.895 261.999 570.557 263.55L570.733 263.962C570.754 264.01 570.739 264.066 570.697 264.098C566.688 267.139 562.691 270.188 558.718 273.236C558.69 273.257 558.652 273.264 558.618 273.254C537.948 267.091 523.124 285.537 521.873 287.153C521.828 287.212 521.85 287.297 521.915 287.33C529.609 291.154 538.992 287.142 543.547 284.663C543.671 284.596 543.78 284.769 543.668 284.856C541.673 286.405 539.689 287.951 537.715 289.491C537.69 289.511 537.659 289.519 537.628 289.514L537.172 289.445C535.504 289.194 533.948 290.342 533.696 292.009L533.597 292.671C533.592 292.7 533.577 292.726 533.554 292.744C522.545 301.365 511.931 309.78 501.966 317.755C501.917 317.794 501.847 317.783 501.81 317.732C501.364 317.127 500.693 316.688 499.891 316.567L499.579 316.52L494.494 285.025C494.484 284.963 494.425 284.92 494.363 284.93L492.614 285.213C492.552 285.223 492.509 285.281 492.519 285.344L497.477 316.052C497.49 316.129 497.424 316.195 497.347 316.184C495.679 315.932 494.123 317.08 493.872 318.748L493.488 321.292C493.346 322.23 493.669 323.129 494.279 323.764C494.325 323.812 494.322 323.886 494.271 323.927C492.968 324.975 491.672 326.017 490.397 327.045C484.067 332.148 477.91 337.14 471.97 341.98C471.945 342 471.912 342.009 471.881 342.004L470.274 341.762C468.607 341.51 467.051 342.658 466.799 344.326L466.483 346.418C466.479 346.446 466.464 346.472 466.442 346.49C464.415 348.147 462.418 349.782 460.45 351.395C460.425 351.416 460.393 351.425 460.361 351.42L458.342 351.115C457.756 351.027 457.186 351.121 456.684 351.35C456.641 351.371 456.591 351.361 456.559 351.325L440.833 333.81C440.79 333.763 440.718 333.759 440.671 333.801L439.353 334.984C439.306 335.027 439.302 335.099 439.344 335.146L455.227 352.836C455.123 353.071 455.038 353.317 454.998 353.583L454.61 356.154C454.605 356.182 454.591 356.207 454.569 356.225C448.397 361.302 442.569 366.121 437.161 370.611C437.121 370.644 437.066 370.643 437.024 370.612C436.012 369.841 434.581 369.784 433.505 370.577L431.343 372.173C430.13 373.067 429.817 374.713 430.549 375.99C430.576 376.037 430.566 376.096 430.524 376.131C410.216 393.052 397.16 404.211 396.006 405.198C395.958 405.239 395.959 405.306 396.001 405.354L399.104 408.977C399.145 409.025 399.212 409.036 399.26 408.995C400.424 407.999 413.631 396.711 434.145 379.622C434.168 379.603 434.199 379.594 434.23 379.599C434.723 379.676 435.233 379.627 435.713 379.446C435.778 379.422 435.847 379.454 435.86 379.522C437.332 387.104 441.553 402.067 452.893 411.598C452.942 411.64 453.017 411.633 453.058 411.584L454.194 410.224C454.234 410.176 454.227 410.106 454.179 410.066C442.936 400.614 438.937 385.084 437.663 378.155L438.591 377.47C439.404 376.87 439.815 375.93 439.779 374.991C439.778 374.957 439.791 374.926 439.817 374.904C445.479 370.202 451.605 365.136 458.115 359.783C458.14 359.762 458.173 359.753 458.205 359.758L459.608 359.969C461.276 360.221 462.832 359.073 463.084 357.405L463.37 355.505C463.375 355.477 463.389 355.451 463.411 355.433C465.444 353.766 467.509 352.076 469.605 350.362C469.63 350.341 469.663 350.332 469.695 350.337L471.54 350.616C472.321 350.733 473.076 350.532 473.674 350.109C473.709 350.084 473.754 350.082 473.791 350.103L514.543 373.669C514.598 373.7 514.668 373.682 514.7 373.627L515.587 372.093C515.618 372.039 515.599 371.969 515.545 371.937L474.823 348.389C474.843 348.308 474.872 348.231 474.885 348.147L475.239 345.804C475.243 345.775 475.257 345.75 475.279 345.732C481.169 340.933 487.273 335.985 493.546 330.928C506.275 320.668 520.399 309.405 535.253 297.763C535.422 297.822 535.597 297.871 535.78 297.898L538.437 298.299C538.538 298.314 538.637 298.309 538.736 298.314C539.463 299.819 540.354 301.489 541.435 303.221C546.286 310.993 552.597 316.167 559.692 318.191C559.754 318.208 559.82 318.171 559.837 318.109L560.315 316.403C560.331 316.343 560.296 316.282 560.237 316.265C550.013 313.35 543.86 304.135 540.722 297.777C540.7 297.731 540.713 297.679 540.753 297.646C541.287 297.202 541.67 296.572 541.782 295.831L542.183 293.174C542.226 292.893 542.213 292.618 542.177 292.35C552.619 284.208 563.361 275.933 574.194 267.718C574.213 267.704 574.235 267.697 574.258 267.697C574.647 267.7 575.043 267.629 575.424 267.466L577.896 266.411C579.036 265.924 579.701 264.802 579.671 263.634C579.671 263.599 579.686 263.566 579.714 263.545C586.141 258.699 592.583 253.889 599 249.156C599.021 249.14 599.047 249.134 599.074 249.137C599.482 249.182 599.902 249.139 600.313 249.003C599.686 257.961 601.681 275.565 624.398 285.41C624.456 285.436 624.526 285.409 624.551 285.35L625.252 283.725C625.277 283.667 625.249 283.6 625.192 283.576C602.404 273.7 601.431 256.177 602.323 248.172L603.019 247.875C603.82 247.533 604.384 246.878 604.639 246.113C604.925 245.252 605.393 244.46 606.125 243.925C626.511 229.029 646.447 215.081 664.464 203.465C664.517 203.431 664.531 203.361 664.497 203.308L661.913 199.297C661.879 199.243 661.809 199.228 661.756 199.262Z" fill="#4C8230"/>
<path d="M924.086 77.7528C922.973 81.9618 920.004 85.151 917.139 88.0298C914.183 90.9997 910.951 93.9486 906.908 95.0502C902.99 96.118 898.743 95.277 894.534 94.1643C890.325 93.0516 886.217 91.6837 883.339 88.8187C880.369 85.8631 879.016 81.7021 877.915 77.6596C876.847 73.7412 875.841 69.5012 876.954 65.2924C878.067 61.0836 881.036 57.8942 883.901 55.0154C886.857 52.0455 890.089 49.0966 894.132 47.995C898.05 46.9272 902.297 47.7682 906.506 48.8809C910.715 49.9936 914.823 51.3615 917.701 54.2265C920.671 57.1821 922.024 61.3431 923.125 65.3856C924.193 69.304 925.199 73.544 924.086 77.7528Z" fill="#AA3E28"/>
<path d="M833.23 155.331C833.23 158.924 831.534 162.095 829.855 164.996C828.124 167.988 826.167 171.023 823.174 172.754C820.273 174.433 816.708 174.658 813.115 174.658C809.522 174.658 805.957 174.433 803.055 172.754C800.063 171.023 798.106 167.988 796.374 164.995C794.696 162.094 793 158.924 793 155.331C793 151.739 794.696 148.568 796.375 145.667C798.106 142.674 800.063 139.639 803.056 137.908C805.957 136.229 809.522 136.005 813.115 136.005C816.708 136.005 820.273 136.229 823.175 137.908C826.167 139.64 828.124 142.674 829.856 145.667C831.534 148.568 833.23 151.739 833.23 155.331Z" fill="#AA3E28"/>
<path d="M825.473 10.7412C827.266 14.6593 826.999 18.964 826.616 22.9655C826.221 27.0936 825.602 31.3795 823.202 34.7616C820.876 38.0399 817.1 40.0648 813.182 41.8578C809.264 43.6508 805.263 45.1854 801.262 44.8028C797.133 44.4081 793.485 42.0753 790.103 39.6757C786.825 37.3497 783.392 34.7386 781.599 30.8206C779.806 26.9026 780.073 22.5978 780.456 18.5963C780.851 14.4682 781.47 10.1823 783.87 6.80018C786.196 3.52188 789.972 1.49698 793.89 -0.29602C797.808 -2.08902 801.809 -3.62362 805.811 -3.24102C809.939 -2.84632 813.587 -0.51352 816.969 1.88608C820.248 4.21208 823.68 6.82318 825.473 10.7412Z" fill="#AA3E28"/>
<path d="M791.48 36.6173C792.975 36.6173 794.187 35.4053 794.187 33.9102C794.187 32.4151 792.975 31.2031 791.48 31.2031C789.984 31.2031 788.772 32.4151 788.772 33.9102C788.772 35.4053 789.984 36.6173 791.48 36.6173Z" fill="#382C65"/>
<path d="M804.45 32.6882C805.271 32.6882 805.935 32.0233 805.935 31.203C805.935 30.3828 805.271 29.7178 804.45 29.7178C803.63 29.7178 802.965 30.3828 802.965 31.203C802.965 32.0233 803.63 32.6882 804.45 32.6882Z" fill="#382C65"/>
<path d="M895.997 84.7292C897.701 84.7292 899.082 83.3482 899.082 81.6446C899.082 79.941 897.701 78.56 895.997 78.56C894.294 78.56 892.913 79.941 892.913 81.6446C892.913 83.3482 894.294 84.7292 895.997 84.7292Z" fill="#382C65"/>
<path d="M901.832 74.2621C902.565 74.2621 903.159 73.6681 903.159 72.9355C903.159 72.2028 902.565 71.6089 901.832 71.6089C901.1 71.6089 900.506 72.2028 900.506 72.9355C900.506 73.6681 901.1 74.2621 901.832 74.2621Z" fill="#382C65"/>
<path d="M802.965 161.844C803.785 161.844 804.45 161.179 804.45 160.359C804.45 159.539 803.785 158.874 802.965 158.874C802.145 158.874 801.48 159.539 801.48 160.359C801.48 161.179 802.145 161.844 802.965 161.844Z" fill="#382C65"/>
<path d="M811.095 149.601C812.211 149.601 813.115 148.697 813.115 147.581C813.115 146.466 812.211 145.561 811.095 145.561C809.98 145.561 809.075 146.466 809.075 147.581C809.075 148.697 809.98 149.601 811.095 149.601Z" fill="#382C65"/>
<path d="M813.115 156.952C814.01 156.952 814.736 156.226 814.736 155.331C814.736 154.436 814.01 153.71 813.115 153.71C812.22 153.71 811.494 154.436 811.494 155.331C811.494 156.226 812.22 156.952 813.115 156.952Z" fill="#382C65"/>
<path d="M764.309 105.166L755.993 100.364L751.191 108.681L759.508 113.482L764.309 105.166Z" fill="#FDF6E9"/>
<path d="M863.787 25.8812L858.24 28.0068L860.365 33.5542L865.913 31.4285L863.787 25.8812Z" fill="#FDF6E9"/>
<path d="M876.354 132.654L866.99 129.991L864.328 139.355L873.692 142.018L876.354 132.654Z" fill="#FDF6E9"/>
<path d="M892.891 152.814L886.284 154.482L887.951 161.089L894.559 159.422L892.891 152.814Z" fill="#FDF6E9"/>
</g>
</g>
<defs>
<clipPath id="clip0_1528_82491">
<rect width="1335" height="464" fill="white"/>
</clipPath>
</defs>
</svg>
