<svg width="1335" height="464" viewBox="0 0 1335 464" fill="none" xmlns="http://www.w3.org/2000/svg">
<g clip-path="url(#clip0_1528_80229)">
<rect width="1335" height="464" fill="#F8DEA0"/>
<mask id="mask0_1528_80229" style="mask-type:luminance" maskUnits="userSpaceOnUse" x="0" y="0" width="1335" height="464">
<path d="M1335 0H0V464H1335V0Z" fill="white"/>
</mask>
<g mask="url(#mask0_1528_80229)">
<path d="M1335.48 0H-1V464.414H1335.48V0Z" fill="#F8DEA0"/>
<path d="M73.082 388.43V21.9243" stroke="#6EAD6E" stroke-width="2" stroke-miterlimit="10"/>
<path d="M26.6309 84.6938H530.389" stroke="#6EAD6E" stroke-width="2" stroke-miterlimit="10"/>
<path d="M750.332 84.6938H1534" stroke="#6EAD6E" stroke-width="2" stroke-miterlimit="10"/>
<path d="M48.355 182.202H702.079" stroke="#6EAD6E" stroke-width="2" stroke-miterlimit="10"/>
<path d="M26.6309 283.614H589.454" stroke="#6EAD6E" stroke-width="2" stroke-miterlimit="10"/>
<path d="M151.669 388.43V70.2778" stroke="#6EAD6E" stroke-width="2" stroke-miterlimit="10"/>
<path d="M230.356 388.43V120.533" stroke="#6EAD6E" stroke-width="2" stroke-miterlimit="10"/>
<path d="M308.943 388.43V34.8386" stroke="#6EAD6E" stroke-width="2" stroke-miterlimit="10"/>
<path d="M387.53 388.43V45.4503" stroke="#6EAD6E" stroke-width="2" stroke-miterlimit="10"/>
<path d="M466.218 388.43V98.2087" stroke="#6EAD6E" stroke-width="2" stroke-miterlimit="10"/>
<path d="M544.805 388.43V165.784" stroke="#6EAD6E" stroke-width="2" stroke-miterlimit="10"/>
<path d="M623.492 388.43V41.9464" stroke="#6EAD6E" stroke-width="2" stroke-miterlimit="10"/>
<path d="M702.079 388.43V82.8918" stroke="#6EAD6E" stroke-width="2" stroke-miterlimit="10"/>
<path d="M780.766 388.43V21.9243" stroke="#6EAD6E" stroke-width="2" stroke-miterlimit="10"/>
<path d="M859.453 388.43V0.100098" stroke="#6EAD6E" stroke-width="2" stroke-miterlimit="10"/>
<path d="M938.04 388.43V34.8386" stroke="#6EAD6E" stroke-width="2" stroke-miterlimit="10"/>
<path d="M1016.63 388.43V70.7783" stroke="#6EAD6E" stroke-width="2" stroke-miterlimit="10"/>
<path d="M1095.31 388.43V21.9243" stroke="#6EAD6E" stroke-width="2" stroke-miterlimit="10"/>
<path d="M1174 388.43V45.4503" stroke="#6EAD6E" stroke-width="2" stroke-miterlimit="10"/>
<path d="M1252.59 388.43V34.8386" stroke="#6EAD6E" stroke-width="2" stroke-miterlimit="10"/>
<path d="M-0.199113 366.506L1335.68 27.3303V464.414H-1L-0.199113 366.506Z" fill="#FEF8EC"/>
<path d="M-1 465.916L617.485 304.437C852.645 243.069 1099.22 240.266 1335.68 296.428V464.514L-1 465.916Z" fill="#B1D9EB"/>
<path d="M617.485 304.437C852.645 243.069 1099.22 240.266 1335.68 296.428" stroke="#40376E" stroke-width="2" stroke-miterlimit="10"/>
<path d="M589.454 216.84L1230.96 53.9598" stroke="#6EAD6E" stroke-width="2" stroke-miterlimit="10"/>
<path d="M740.021 297.029L733.313 327.463C732.212 332.268 735.916 336.873 740.822 336.873C743.825 336.873 746.628 335.071 747.829 332.268L763.346 297.129H740.021V297.029Z" fill="white"/>
<path d="M785.671 245.272V296.629C785.671 314.248 767.651 326.261 751.333 319.454C746.728 317.552 742.924 314.348 740.321 310.344C737.718 306.339 736.216 301.634 736.216 296.629V258.086L716.094 268.597L704.681 274.504L645.916 305.138L640.911 310.744L596.261 360.699H542.502C540.299 360.699 539.899 357.596 542.001 357.096L570.533 349.687C572.335 349.187 574.037 348.586 575.638 347.785C580.244 345.483 584.148 341.879 586.851 337.474L610.677 297.83L613.981 292.324C618.486 284.815 624.493 278.308 631.701 273.303L662.635 251.679L673.046 244.371L692.368 230.856L693.068 230.055L708.886 212.836L757.74 189.31C759.142 190.311 760.443 191.412 761.745 192.613C773.558 202.925 781.566 216.84 784.47 232.057C785.17 236.262 785.671 240.767 785.671 245.272Z" fill="#E28279"/>
<path d="M785.671 245.272V262.991L736.216 284.415V258.086L716.094 268.597L704.681 274.504L662.635 251.378L673.046 244.07L692.368 230.555L693.068 229.754L784.47 231.757C785.17 236.262 785.671 240.767 785.671 245.272Z" fill="#CE645F"/>
<path d="M640.811 310.744L596.161 360.699H575.639V347.685C580.244 345.383 584.148 341.779 586.851 337.374L610.677 297.73L640.811 310.744Z" fill="#F3B4CA"/>
<path d="M785.671 245.272V256.484C768.452 268.597 751.533 272.502 736.216 271.901C729.108 271.601 722.401 270.399 716.094 268.497C695.371 262.491 679.554 249.877 673.046 244.07C670.844 242.168 669.743 240.967 669.743 240.967L708.886 212.635L760.243 192.313C760.743 192.313 761.244 192.313 761.745 192.313C776.761 205.628 785.671 224.949 785.671 245.272Z" fill="#D8ECF5"/>
<path d="M725.805 215.839L702.879 257.185" stroke="#A2D3FB" stroke-width="2" stroke-miterlimit="10"/>
<path d="M737.218 208.431L730.811 264.092" stroke="#A2D3FB" stroke-width="2" stroke-miterlimit="10"/>
<path d="M750.332 206.929L771.055 259.387" stroke="#A2D3FB" stroke-width="2" stroke-miterlimit="10"/>
<path d="M750.332 261.59L740.221 259.487L699.376 300.333L651.022 348.686C650.622 349.087 650.121 348.786 650.121 348.286C650.121 348.186 650.121 348.086 650.221 347.985C651.423 346.083 651.923 344.081 651.923 342.179C651.923 336.272 647.218 330.967 640.711 330.967C636.206 330.967 632.101 333.67 630.299 337.874L626.795 346.284C623.692 353.692 629.198 361.801 637.207 361.801H652.724C655.026 361.801 657.229 360.9 658.731 359.198L707.585 307.14L750.332 261.59Z" fill="#1E52A5"/>
<path d="M786.072 222.046C786.072 222.947 785.771 223.748 785.071 224.449L772.857 237.463L772.657 237.663L770.955 239.465L761.945 249.076L761.845 249.176L757.24 254.081L750.232 261.49L737.118 275.405L730.31 282.713C733.814 278.809 733.914 272.902 730.51 268.898L752.835 246.573C752.835 246.573 752.935 246.573 752.935 246.473L755.838 243.57L779.965 219.443C781.367 218.041 783.569 218.041 784.971 219.443C784.971 219.443 784.971 219.443 785.071 219.543C785.771 220.344 786.072 221.145 786.072 222.046Z" fill="#122D6B"/>
<path d="M771.055 239.465L750.332 261.49L740.221 259.387L762.045 237.563L771.055 239.465Z" fill="white"/>
<path d="M750.332 261.59L737.218 275.505L726.406 273.203L740.221 259.387L750.332 261.59Z" fill="white"/>
<path d="M725.805 287.719L730.51 282.813C730.51 282.913 730.41 282.913 730.31 283.013L725.805 287.719Z" fill="#EE9573"/>
<path d="M809.398 193.915L785.071 219.643L771.055 234.56L772.957 237.463L776.161 242.368C777.062 243.77 776.661 245.672 775.16 246.573L763.847 253.18C762.746 253.781 761.545 254.182 760.343 254.182H757.44L761.945 249.476C762.045 249.376 762.045 249.376 762.145 249.276L762.245 249.176C762.846 248.475 763.046 247.574 763.046 246.673C763.046 245.372 762.446 243.97 761.144 243.169C759.542 242.168 757.34 242.569 756.038 243.87L753.235 246.673L753.135 246.773C752.735 247.174 752.134 247.374 751.533 247.374C751.033 247.374 750.632 247.274 750.232 246.974C749.231 246.273 748.931 244.971 749.431 243.87L779.564 189.109L741.723 180.3L715.093 189.109L700.877 237.563L719.498 263.892C721.5 263.892 723.402 264.293 725.204 264.994C727.207 265.895 729.209 267.196 730.61 268.898L708.085 291.423L715.994 275.405L687.563 255.283C682.157 251.378 679.053 245.071 679.353 238.364L681.756 192.413L694.47 176.395L761.344 153.37L805.093 172.791C813.502 176.395 815.704 187.307 809.398 193.915Z" fill="#E28279"/>
<path d="M789.275 160.177L761.544 192.313L707.885 212.936L683.358 217.241L676.45 218.442V189.91C676.45 178.698 680.755 167.586 688.764 159.176C700.977 146.262 717.696 139.555 734.615 139.555C744.626 139.555 754.637 141.957 763.947 146.763L789.275 160.177Z" fill="#1E52A5"/>
<path d="M610.077 345.082L596.161 360.699H542.402C540.199 360.699 539.799 357.596 541.901 357.095L570.433 349.687C577.24 347.885 583.147 343.48 586.751 337.474H591.256C588.353 340.377 590.455 345.282 594.459 345.282C599.064 345.282 603.569 344.181 607.674 342.179C609.676 340.978 611.578 343.48 610.077 345.082Z" fill="white"/>
<path d="M780.566 390.533C786.205 390.533 790.777 385.961 790.777 380.321C790.777 374.682 786.205 370.11 780.566 370.11C774.926 370.11 770.354 374.682 770.354 380.321C770.354 385.961 774.926 390.533 780.566 390.533Z" fill="white"/>
<path d="M730.811 277.708L730.61 268.998L726.406 270.099L727.807 278.008C727.907 278.709 728.508 279.209 729.309 279.209C730.21 279.209 730.811 278.508 730.811 277.708Z" fill="#EE9573"/>
<path d="M765.849 111.924L761.444 114.227V120.033C761.444 122.135 760.143 124.037 758.141 124.738L742.123 130.645L735.716 149.065L715.994 142.758L725.405 128.142L724.403 127.441C720.599 124.638 719.698 119.232 722.501 115.328L725.204 111.524L725.004 109.922C723.903 101.913 731.211 95.3056 739.02 97.2077L746.528 99.0097C749.131 99.6103 751.533 100.812 753.536 102.514C754.036 102.914 754.537 103.415 755.037 103.915L760.844 110.122L765.649 110.823C766.15 110.823 766.35 111.624 765.849 111.924Z" fill="#E28279"/>
<path d="M726.005 111.724C726.005 111.724 720.699 75.884 659.231 104.716L666.94 140.155C666.839 140.055 701.177 140.656 726.005 111.724Z" fill="#313030"/>
<path d="M753.535 102.413C752.334 108.42 745.026 111.624 745.026 111.624L743.324 108.921C742.824 108.22 742.123 107.819 741.322 107.819C740.921 107.819 740.521 107.92 740.121 108.12C739.119 108.72 738.719 109.922 739.119 111.023L741.022 115.928C741.622 117.53 741.022 119.232 739.52 120.033L725.404 127.942L724.403 127.241C720.599 124.438 719.698 119.032 722.501 115.127L725.204 111.323L725.004 109.722C723.903 101.713 731.211 95.1053 739.019 97.0074L746.528 98.8094C749.131 99.5102 751.533 100.712 753.535 102.413Z" fill="#313030"/>
<path d="M742.023 117.03C743.018 117.03 743.825 116.223 743.825 115.228C743.825 114.232 743.018 113.426 742.023 113.426C741.027 113.426 740.221 114.232 740.221 115.228C740.221 116.223 741.027 117.03 742.023 117.03Z" fill="white"/>
<path d="M700.978 237.563L717.796 182.102" stroke="#40376E" stroke-width="2" stroke-miterlimit="10"/>
<path d="M754.337 112.024C754.724 112.024 755.037 111.71 755.037 111.323C755.037 110.936 754.724 110.622 754.337 110.622C753.95 110.622 753.636 110.936 753.636 111.323C753.636 111.71 753.95 112.024 754.337 112.024Z" fill="#313030" stroke="black" stroke-miterlimit="10"/>
<path d="M761.344 116.93L757.14 116.729" stroke="black" stroke-width="0.5" stroke-miterlimit="10"/>
<path d="M1163.19 284.815L1155.68 292.724L1135.76 313.647L1109.43 341.378C1114.03 343.18 1117.44 347.285 1118.14 352.19L1119.14 358.597L1128.15 417.863H1080.6C1078.6 417.863 1077.99 415.06 1079.9 414.259L1106.63 403.447L1091.11 358.597L1086.5 345.383C1084.7 340.177 1084.9 334.37 1087 329.365L1103.42 290.622L1111.63 271.3L1122.34 245.972L1150.07 272.402L1160.39 282.313L1163.19 284.815Z" fill="#E29B6A"/>
<path d="M1164.89 272.802L1160.59 282.313L1155.78 292.724L1135.86 313.647L1129.85 306.039C1123.34 297.73 1113.93 292.224 1103.52 290.622L1111.73 271.3L1150.17 272.402L1164.89 272.802Z" fill="#C17B4C"/>
<path d="M1059.27 203.525L980.086 277.607L1069.49 227.352L1059.27 203.525Z" fill="#C17B4C"/>
<path d="M1072.99 188.809L1049.76 209.532L1070.69 223.347L1072.99 188.809Z" fill="#3D8A3D"/>
<path d="M1236.57 389.031L1205.44 417.162C1203.23 419.164 1199.83 416.461 1201.43 413.858L1211.24 397.74C1213.65 393.736 1211.64 388.63 1207.14 387.329L1163.19 374.615L1151.48 371.211C1139.96 367.907 1132.25 356.995 1133.16 344.982L1137.86 275.906L1185.31 261.189L1167.69 343.781L1181.61 350.889L1235.17 378.419C1239.17 380.722 1239.87 386.128 1236.57 389.031Z" fill="#E29B6A"/>
<path d="M1192.02 263.191V289.32L1137.16 287.218L1105.42 286.017L1098.52 285.716L1107.63 256.884L1092.51 225.55L1107.13 194.716L1131.85 219.443H1148.27C1172.5 219.443 1192.02 238.965 1192.02 263.191Z" fill="#F7D857"/>
<path d="M1102.22 180.8L1084.9 194.515L1076.19 177.196L1063.98 177.797C1060.48 177.897 1057.37 175.795 1056.17 172.591L1053.97 166.384L1047.26 165.784C1046.26 165.684 1045.86 164.482 1046.46 163.781L1050.96 158.976L1050.86 154.471C1050.86 152.869 1051.07 151.368 1051.47 149.866C1053.37 143.058 1059.57 138.153 1066.88 138.153C1067.28 138.153 1067.68 138.153 1068.08 138.253C1076.39 138.854 1082.9 145.761 1083 154.071L1083.1 167.085L1102.22 180.8Z" fill="#E29B6A"/>
<path d="M1042.96 251.178L849.742 389.632C846.138 392.234 841.834 393.536 837.429 393.436C822.012 393.035 812.701 376.217 820.51 363.002L820.71 362.702L830.02 362.902C836.427 363.102 841.533 368.408 841.333 374.915L1036.45 243.77L1042.96 251.178Z" fill="#122D6B"/>
<path d="M1102.02 191.412C1103.42 186.807 1098.12 183.203 1094.31 186.206L963.068 291.222C962.267 291.923 962.067 293.125 962.767 294.026C963.268 294.626 964.169 294.826 964.97 294.526L972.878 291.122C975.581 290.021 978.585 291.823 978.785 294.726C978.885 296.328 978.184 297.83 976.883 298.731L971.377 302.335L978.184 302.835C979.586 302.935 980.987 302.635 982.189 301.834L990.598 296.628C991.399 296.128 992.2 295.427 992.7 294.526L995.704 289.721C997.906 286.217 1000.91 283.214 1004.41 281.011L1091.01 226.251L1102.02 191.412Z" fill="#E29B6A"/>
<path d="M1128.15 417.963H1080.6C1078.6 417.963 1077.99 415.16 1079.9 414.359L1106.63 403.547L1091.11 358.697H1119.14L1125.65 401.445L1128.15 417.963Z" fill="#FEF8EC"/>
<path d="M1236.57 389.031L1205.44 417.162C1203.23 419.164 1199.83 416.461 1201.43 413.858L1211.24 397.74C1213.65 393.736 1211.64 388.63 1207.14 387.329L1203.73 386.328L1163.19 374.615L1181.61 351.089L1223.06 372.412L1235.17 378.619C1239.17 380.722 1239.87 386.128 1236.57 389.031Z" fill="#FEF8EC"/>
<path d="M1128.15 417.963H1080.6C1078.6 417.963 1077.99 415.16 1079.9 414.359L1106.63 403.547L1116.94 409.253L1125.65 401.344L1128.15 417.963Z" fill="#40376E"/>
<path d="M1236.57 389.031L1205.44 417.162C1203.23 419.164 1199.83 416.461 1201.43 413.858L1211.24 397.74C1213.64 393.736 1211.64 388.63 1207.14 387.329L1203.73 386.328H1221.45L1222.96 372.412L1235.07 378.619C1239.17 380.722 1239.87 386.128 1236.57 389.031Z" fill="#40376E"/>
<path d="M1131.85 219.443L1096.62 245.972L1089.61 232.357L1089.51 232.257L1079.7 241.668L1060.48 194.015L1081.6 174.693C1085.9 171.39 1091.01 169.688 1096.12 169.688C1101.22 169.688 1106.33 171.39 1110.63 174.693C1119.94 182.002 1122.24 194.716 1116.94 204.527L1131.85 219.443Z" fill="#6EAD6E"/>
<path d="M1092.51 150.066C1103.68 150.066 1112.73 141.012 1112.73 129.844C1112.73 118.675 1103.68 109.621 1092.51 109.621C1081.34 109.621 1072.29 118.675 1072.29 129.844C1072.29 141.012 1081.34 150.066 1092.51 150.066Z" fill="#313030"/>
<path d="M1083.1 167.185C1068.98 167.185 1058.97 159.376 1053.17 152.969C1052.37 152.068 1051.77 151.067 1051.47 150.066C1053.37 143.259 1059.57 138.353 1066.88 138.353C1067.28 138.353 1067.68 138.353 1068.08 138.453C1076.39 139.054 1082.9 145.962 1083 154.271L1083.1 167.185Z" fill="#313030"/>
<path d="M1058.87 159.777L1063.18 157.374C1064.08 156.874 1065.18 156.974 1065.98 157.775C1067.18 158.976 1066.78 160.878 1065.18 161.579L1061.58 163.081L1058.87 159.777Z" fill="#E29B6A"/>
<path d="M1054.37 167.485H1058.37C1058.37 167.485 1057.67 169.688 1055.47 170.589L1054.37 167.485Z" fill="#C17B4C"/>
<path d="M1058.37 167.485L1054.37 169.087V167.485H1058.37Z" fill="#965B33"/>
<path d="M1049.76 153.07L1052.37 163.281" stroke="#232323" stroke-miterlimit="10"/>
<path d="M1050.87 158.175H1059.78" stroke="#232323" stroke-miterlimit="10"/>
<path d="M1102.22 220.344L1096.62 245.972L1089.51 232.357L1102.22 220.344Z" fill="#3D8A3D"/>
<path d="M1083.6 237.863L1107.73 215.038" stroke="#40376E" stroke-miterlimit="10"/>
<path d="M1137.96 276.106L1137.16 287.218L1105.43 286.017L1137.96 276.106Z" fill="#F3C73A"/>
<path d="M1137.16 287.218L1138.86 260.889" stroke="#40376E" stroke-miterlimit="10"/>
<path d="M1102.32 273.803L1110.43 248.375" stroke="#EEB236" stroke-miterlimit="10"/>
<path d="M346.284 336.573L298.131 342.079L284.315 343.681V383.024C284.315 385.127 281.312 385.527 280.812 383.525L268.999 342.88L280.711 323.859L282.914 320.255L287.919 319.153L288.32 319.053L338.976 307.641L346.284 336.573Z" fill="#F3B4CA"/>
<path d="M298.131 342.179L284.315 343.781V383.124C284.315 385.227 281.312 385.627 280.812 383.625L268.999 342.98L280.711 323.959L282.914 320.355L287.919 319.254L288.32 319.153L285.116 335.071L298.131 342.179Z" fill="#40376E"/>
<path d="M378.821 223.648L370.612 234.76L366.207 240.667L344.583 269.799L329.666 289.921L259.989 383.825L230.356 423.769C226.152 429.476 223.148 435.983 221.547 442.991L215.74 468.919C215.54 469.92 214.639 470.621 213.638 470.621C212.537 470.621 211.535 469.72 211.535 468.619L208.732 429.776C208.632 428.475 208.933 427.173 209.533 425.972L243.07 365.104L264.194 326.762C267.798 320.255 272.803 314.749 278.91 310.644L288.421 304.237L290.223 297.63L307.742 234.96L310.845 223.848H378.821V223.648Z" fill="#F9968F"/>
<path d="M393.237 304.838C393.237 319.754 382.024 332.668 366.707 334.37L346.285 336.673L339.077 307.641L359.7 303.436L344.683 269.799L329.066 234.86L326.463 228.954L358.198 226.351L363.003 234.86L366.307 240.767L381.123 267.096C386.83 277.207 390.734 288.219 392.836 299.732C393.037 301.334 393.237 303.136 393.237 304.838Z" fill="#F9968F"/>
<path d="M393.237 304.838C393.237 319.754 382.024 332.668 366.707 334.37L346.285 336.673L359.7 303.436L344.683 269.799L329.766 289.921L290.423 297.53L307.942 234.86H370.612L366.207 240.767L381.023 267.096C386.73 277.207 390.634 288.219 392.736 299.732C393.036 301.334 393.237 303.136 393.237 304.838Z" fill="#ED7774"/>
<path d="M389.633 282.313L283.315 282.613L307.842 232.357L316.952 213.637L377.82 225.85L388.531 277.107L389.633 282.313Z" fill="#D8ECF5"/>
<path d="M389.633 282.313L283.315 282.613L307.842 232.357L317.553 265.694L388.531 277.107L389.633 282.313Z" fill="#B1D9EB"/>
<path d="M259.989 383.825L230.356 423.769C229.155 425.371 228.054 426.973 227.153 428.675C224.55 433.08 222.748 437.885 221.547 442.89L215.84 468.819C215.64 469.82 214.739 470.521 213.738 470.521C212.637 470.521 211.636 469.62 211.636 468.519L208.832 429.676C208.732 428.374 209.033 427.073 209.633 425.872L215.54 415.06L243.07 365.004L259.989 383.825Z" fill="#F3B4CA"/>
<path d="M227.153 428.675C224.55 433.08 222.748 437.885 221.547 442.891L215.84 468.819C215.64 469.82 214.739 470.521 213.738 470.521C212.637 470.521 211.636 469.62 211.636 468.519L208.832 429.676C208.732 428.374 209.033 427.073 209.633 425.872L215.54 415.06L217.642 435.082C217.742 435.082 220.646 429.976 227.153 428.675Z" fill="#FEF8EC"/>
<path d="M368.309 106.418L366.107 103.715C365.306 102.714 364.204 102.113 363.003 101.813H362.903C359.8 101.212 356.796 103.014 355.795 105.917L354.293 105.317C349.088 103.114 343.181 106.418 342.38 112.024C337.975 113.125 336.073 118.231 338.476 122.035L340.678 125.439C338.176 126.64 337.475 129.844 339.277 132.046C337.174 133.348 336.374 136.051 337.475 138.253L338.176 139.655C336.774 141.156 337.675 143.559 339.677 143.859L340.578 143.959C341.079 146.963 344.683 148.164 346.885 146.062L349.088 143.859C350.389 147.463 355.295 147.764 357.097 144.46L357.397 143.859C359.599 145.962 363.404 144.76 363.904 141.757L364.605 137.853C366.607 139.254 369.31 137.652 368.809 135.25C370.111 135.65 371.212 134.048 370.311 132.947L362.202 122.536C363.704 122.235 364.405 120.433 363.404 119.232L361.201 116.529C362.803 115.728 363.704 113.926 363.303 112.224L362.803 110.322L367.308 109.121C368.609 108.821 369.11 107.319 368.309 106.418Z" fill="#663E23"/>
<path d="M306.34 225.85H377.819L373.515 190.411L400.445 180.9L399.844 170.789C399.243 161.179 392.636 152.969 383.326 150.467L346.785 140.556C339.777 139.855 332.87 141.957 327.464 146.462L313.048 158.476L331.168 180.7L306.34 225.85Z" fill="#1E52A5"/>
<path d="M273.704 264.893L509.265 294.026C513.67 294.526 518.075 293.525 521.879 291.223C535.094 283.214 534.893 264.092 521.479 256.384L521.178 256.284L513.169 261.089C507.663 264.393 505.861 271.601 509.265 277.107L274.805 259.587L273.704 264.893Z" fill="#1E52A5"/>
<path d="M317.552 163.881L292.024 188.609C288.22 192.313 286.818 197.919 288.52 203.025L308.542 262.891L309.544 274.104L324.16 275.906L322.958 268.297C322.558 266.095 324.46 264.092 326.663 264.193L329.265 264.393C330.166 264.493 330.967 263.692 330.967 262.791C330.967 262.09 330.467 261.49 329.866 261.289L323.759 259.387C320.956 258.486 318.854 256.184 318.453 253.28L310.645 203.525L334.772 184.705L317.552 163.881Z" fill="#F9968F"/>
<path d="M371.713 136.651C380.172 136.651 387.03 129.794 387.03 121.334C387.03 112.875 380.172 106.017 371.713 106.017C363.254 106.017 356.396 112.875 356.396 121.334C356.396 129.794 363.254 136.651 371.713 136.651Z" fill="#F9968F"/>
<path d="M356.787 124.351C357.779 124.005 358.097 122.328 357.497 120.605C356.897 118.882 355.606 117.765 354.614 118.111C353.622 118.456 353.304 120.133 353.904 121.856C354.504 123.579 355.795 124.696 356.787 124.351Z" fill="#F9968F"/>
<path d="M362.402 128.743L357.897 146.963L373.315 154.371L375.317 128.743H362.402Z" fill="#F9968F"/>
<path d="M370.611 124.938L377.919 125.94C377.919 125.94 373.815 130.344 370.611 124.938Z" fill="#E06161"/>
<path d="M370.611 124.938C370.611 124.938 374.916 123.337 377.919 125.939L370.611 124.938Z" fill="#ED7774"/>
<path d="M369.911 119.833C370.408 119.833 370.812 119.429 370.812 118.932C370.812 118.434 370.408 118.031 369.911 118.031C369.413 118.031 369.01 118.434 369.01 118.932C369.01 119.429 369.413 119.833 369.911 119.833Z" fill="#313030"/>
<path d="M380.322 121.334C380.82 121.334 381.223 120.931 381.223 120.433C381.223 119.936 380.82 119.532 380.322 119.532C379.825 119.532 379.421 119.936 379.421 120.433C379.421 120.931 379.825 121.334 380.322 121.334Z" fill="#313030"/>
<path d="M373.114 122.235L376.818 123.136L376.518 122.335C376.118 121.334 374.916 120.934 374.015 121.535L373.114 122.235Z" fill="#ED7774"/>
<path d="M373.515 190.311L377.819 225.75L401.746 269.298L411.657 269.999L414.76 277.007C415.061 277.808 415.862 278.308 416.763 278.308C418.164 278.308 419.265 276.907 418.765 275.605L416.362 267.696C416.062 266.595 415.161 265.794 414.16 265.494L412.358 264.994C410.456 264.493 408.954 262.991 408.453 260.989L400.745 233.759C399.443 229.354 397.241 225.149 394.137 221.746L397.241 181.901L373.515 190.311Z" fill="#F9968F"/>
<path d="M618.787 398.141H917.317" stroke="#61A5F1" stroke-width="2" stroke-miterlimit="10"/>
<path d="M412.357 437.084H679.253" stroke="#61A5F1" stroke-width="2" stroke-miterlimit="10"/>
<path d="M20.4238 361.3L263.293 299.632" stroke="#6EAD6E" stroke-width="2" stroke-miterlimit="10"/>
<path d="M373.915 110.723L372.914 107.219C372.314 105.116 374.616 103.415 376.418 104.616L380.222 107.019C383.526 105.817 387.13 108.12 387.43 111.624L387.631 114.527C390.334 116.028 391.335 119.432 390.033 122.235L386.93 128.743C388.632 129.543 388.431 132.046 386.529 132.447L383.626 133.047L383.426 134.149C382.825 137.152 379.522 138.754 376.819 137.452V140.856C376.819 142.258 375.017 142.758 374.216 141.657V137.052C374.216 134.949 375.717 133.147 377.82 132.847L378.22 130.444C378.621 128.442 380.423 127.041 382.425 127.141L382.325 123.937C382.225 122.235 382.525 120.634 383.226 119.132L380.222 115.928C379.421 116.929 377.82 116.629 377.419 115.428L377.219 114.627C377.019 113.826 376.318 113.125 375.617 112.825C374.816 112.324 374.216 111.624 373.915 110.723Z" fill="#663E23"/>
<path d="M374.816 108.22L374.316 104.416C374.015 102.213 371.613 101.112 369.811 102.213L368.509 101.813C366.207 101.112 363.904 102.514 363.304 104.816L362.903 104.916C358.899 105.417 355.996 108.82 356.296 112.825L355.695 113.025C354.194 113.426 353.393 115.228 354.093 116.629C354.594 117.63 355.895 117.931 356.796 117.23L356.596 118.832C356.396 120.433 358.198 121.635 359.499 120.634L359.099 122.135C358.699 123.837 360.901 124.838 361.902 123.337C363.204 123.937 364.705 122.736 364.205 121.334L362.903 117.23C365.106 116.929 366.808 114.927 366.607 112.625V111.624L368.009 112.024C370.011 112.525 371.813 110.823 371.513 108.82L374.816 108.22Z" fill="#663E23"/>
<path d="M317.553 163.881L334.572 184.805L324.56 192.613L317.553 163.881Z" fill="#ED7774"/>
<path d="M375.517 207.029L396.64 188.609L397.241 182.002L373.515 190.311L375.517 207.029Z" fill="#ED7774"/>
<path d="M324.26 254.482L329.466 230.155" stroke="#A2D3FB" stroke-width="2" stroke-miterlimit="10"/>
<path d="M343.381 230.155V263.091" stroke="#A2D3FB" stroke-width="2" stroke-miterlimit="10"/>
<path d="M360.601 229.154L367.608 264.092" stroke="#A2D3FB" stroke-width="2" stroke-miterlimit="10"/>
<path d="M354.594 123.036L355.995 121.635L357.397 123.036C358.198 123.837 358.098 125.038 357.397 125.739C356.596 126.54 355.395 126.44 354.694 125.739C353.893 125.038 353.893 123.837 354.594 123.036Z" fill="#F7D857"/>
<path d="M369.911 178.898H363.303V185.505H369.911V178.898Z" fill="#FEF8EC"/>
<path d="M747.938 164.966L742.075 167.291L744.437 173.247L750.3 170.922L747.938 164.966Z" fill="#FEF8EC"/>
<path d="M779.465 189.109L782.668 176.996C783.469 173.893 779.565 171.69 777.362 174.193L766.851 186.206L779.465 189.109Z" fill="#CE645F"/>
<path d="M334.572 184.805L341.78 179.799" stroke="#40376E" stroke-width="2" stroke-miterlimit="10"/>
<path d="M357.897 146.963L375.317 155.272" stroke="#40376E" stroke-width="2" stroke-miterlimit="10"/>
</g>
</g>
<defs>
<clipPath id="clip0_1528_80229">
<rect width="1335" height="464" fill="white"/>
</clipPath>
</defs>
</svg>
