<svg width="1335" height="464" viewBox="0 0 1335 464" fill="none" xmlns="http://www.w3.org/2000/svg">
<g clip-path="url(#clip0_1528_88849)">
<rect width="1335" height="464" fill="#D9EFF2"/>
<mask id="mask0_1528_88849" style="mask-type:luminance" maskUnits="userSpaceOnUse" x="0" y="0" width="1335" height="464">
<path d="M1335 0H0V464H1335V0Z" fill="white"/>
</mask>
<g mask="url(#mask0_1528_88849)">
<path d="M1335 0H0V464H1335V0Z" fill="#D9EFF2"/>
<path d="M1335 0H0V464H1335V0Z" fill="#D9EFF2"/>
<path d="M1208.6 241.2L1209.3 225L1197.7 216C1194.8 213.8 1193.3 210.3 1193.5 206.6L1194.3 194.5L1190.7 191.5C1189.9 190.8 1190.1 189.4 1191.2 189.1L1194 188.3C1195.2 187.9 1196.2 186.9 1196.5 185.7L1197.9 180.1C1199.4 173.9 1203.4 168.7 1208.9 165.6C1215.7 161.8 1223.9 161.8 1230.7 165.4L1241.9 171.4C1251.4 176.5 1255.5 188 1251.2 198L1240.3 223.2L1243.3 241.3L1208.6 241.2Z" fill="#FFA777"/>
<path d="M909.2 142.5L902.7 127.1C902.2 125.8 901.9 124.4 901.9 123V109.7C901.9 108.6 901 107.8 900 107.8C899.2 107.8 898.4 108.4 898.2 109.2L897.6 111.2C897.2 112.5 895.5 112.9 894.5 112L889.6 107.2L879.9 97.5C879 96.6 877.6 96.6 876.7 97.5C875.8 98.4 875.8 99.7999 876.7 100.7L885 109L871.7 99.5C870.9 98.9 869.8 99.1 869.3 99.9C868.8 100.6 868.9 101.7 869.5 102.3L881 112.4L868.7 104.9C867.9 104.4 866.9 104.6 866.3 105.3C865.7 106.1 865.8 107.2 866.6 107.9L879.6 118.6C879.8 118.8 879.6 119.1 879.4 119L872.8 116.4C872 116.1 871 116.4 870.6 117.2C870.2 118 870.4 119 871.2 119.5L888.8 130L893.5 150.5L909.2 142.5Z" fill="#A66A08"/>
<path d="M407.5 253.4L395.7 224.4C394.1 220.5 394.2 216 396.1 212.2L399 206.2C400.5 203.1 400.4 199.6 398.8 196.6L393 185.5L394.4 179.2C394.5 178.6 393.9 178 393.3 178.2L388.1 179.9L379.8 176.9C369 173 357 176.5 350 185.6C340.9 197.5 343.6 214.6 355.9 223.2L373.6 235.4L374 254.5L407.5 253.4Z" fill="#FFB4A7"/>
<path d="M497.7 266.7L498.9 250C499 248.6 498.8 247.2 498.4 245.8L494.1 233.2C493.8 232.2 494.3 231.1 495.3 230.8C496.1 230.5 497 230.8 497.5 231.5L498.7 233.2C499.5 234.3 501.2 234.2 501.8 232.9L504.8 226.7L510.8 214.4C511.3 213.3 512.7 212.8 513.8 213.4C514.9 213.9 515.4 215.3 514.8 216.4L509.7 226.9L519.2 213.6C519.7 212.8 520.8 212.6 521.6 213.2C522.4 213.7 522.6 214.7 522.1 215.5L514.5 228.8L523.7 217.7C524.3 217 525.3 216.8 526.1 217.3C527 217.8 527.2 219 526.7 219.8L517.8 234.1C517.7 234.3 517.9 234.5 518.1 234.4L523.5 229.8C524.2 229.2 525.2 229.2 525.8 229.9C526.5 230.5 526.5 231.6 525.9 232.3L512.7 247.9L515 268.8L497.7 266.7Z" fill="#FFB4A7"/>
<path d="M833.9 201.6H831.5L826.1 201.8L823.9 191.7C821.2 179.3 808.4 171.9 796.3 175.7C786.5 178.8 780.2 188.3 781.2 198.6L782.5 211C783.1 216.6 786.6 221.5 791.7 223.8L796.4 225.9L798.8 241.7L835.1 239.1L831 224.3L828.1 211L834.9 209.1C836.5 208.7 837.7 207.2 837.7 205.5C837.7 203.3 836 201.6 833.9 201.6Z" fill="#FF984A"/>
<path d="M1335.3 364.5V261.7L1137.1 242.6L1117.3 257.9L951.4 204.4L910 135.8L888.3 149.4L903.2 240.6C905.3 253.5 896.2 265.6 883.2 267.1L728.4 250.8H711L536.7 249.9L484.8 258.1L308.6 341.1C308.6 382.4 293.6 422.3 266.4 453.3L257.1 463.9H1335L1335.3 364.5Z" fill="#121831"/>
<path d="M424.7 417.9C454 408.4 473.8 381 473.5 350.3L472.4 227.5L306.5 281L336 372.6C348 409.5 387.7 429.9 424.7 417.9Z" fill="#49BBFF"/>
<path d="M416.8 381.4C439.6 374.1 454.9 352.8 454.7 328.8L453.8 233.4L325 275L347.9 346.2C357.2 374.9 388.1 390.7 416.8 381.4Z" fill="#3A9EE0"/>
<path d="M409.6 347.9C426.4 342.5 437.7 326.8 437.5 309.2L436.9 238.9L342 269.5L358.9 321.9C365.8 343.1 388.5 354.7 409.6 347.9Z" fill="#1F7AD0"/>
<path d="M401.9 233.5L364.6 236.6L363.7 248.8C363 258.1 364.1 267.4 367 276.2L372 291.8C375.6 303 387 310.1 398.5 307.7C409.2 305.4 416.7 296 416.6 285.3L416.2 245.7L401.9 233.5Z" fill="#121831"/>
<path d="M608.1 201.6H605.7C603.6 201.6 601.9 203.3 601.9 205.4C601.9 207.1 603 208.6 604.7 209L612.2 211.1L604.5 239L640.8 241.6L644.9 214.6L651.6 212.5C653.1 212 654.3 210.7 654.7 209.1C655.3 206.3 653.2 203.6 650.4 203.5L648.1 203.4L608.1 201.6Z" fill="#935B21"/>
<path d="M606.3 416.9C637.1 417.1 664.4 397.2 673.8 367.8L711 250.8L536.7 249.9L536.2 346.1C536 385 567.4 416.7 606.3 416.9Z" fill="#49BBFF"/>
<path d="M610.2 379.7C634.1 379.8 655.4 364.4 662.6 341.6L691.5 250.7L556.1 250L555.7 324.8C555.6 355 580 379.6 610.2 379.7Z" fill="#3A9EE0"/>
<path d="M613.8 345.6C631.4 345.7 647.1 334.3 652.4 317.5L673.7 250.5L574 250L573.7 305.1C573.6 327.4 591.5 345.5 613.8 345.6Z" fill="#1F7AD0"/>
<path d="M642.1 234.6L605.7 225.9L601 237.2C597.5 245.8 595.6 255 595.6 264.3L595.5 280.6C595.4 292.3 604 302.6 615.7 303.9C626.6 305.1 636.6 298.4 639.9 288.2L651.9 250.5L642.1 234.6Z" fill="#121831"/>
<path d="M833.3 416.9C802.5 417.1 775.2 397.2 765.8 367.8L728.6 250.8L902.9 249.9L903.4 346.1C903.6 385 872.2 416.7 833.3 416.9Z" fill="#49BBFF"/>
<path d="M829.4 379.7C805.5 379.8 784.2 364.4 777 341.6L748.1 250.7L883.5 250L883.9 324.8C884 355 859.6 379.6 829.4 379.7Z" fill="#3A9EE0"/>
<path d="M825.8 345.6C808.2 345.7 792.5 334.3 787.2 317.5L765.9 250.5L865.6 250L865.9 305.1C866 327.4 848.1 345.5 825.8 345.6Z" fill="#1F7AD0"/>
<path d="M797.5 234.6L833.9 225.9L838.6 237.2C842.1 245.8 844 255 844 264.3L844.1 280.6C844.2 292.3 835.6 302.6 823.9 303.9C813 305.1 803 298.4 799.7 288.2L787.7 250.5L797.5 234.6Z" fill="#121831"/>
<path d="M456 132.9L448.5 110.3L465.2 93.6L487.8 101.1L456 132.9Z" fill="#041F49"/>
<path d="M472 73.4H428.4V117H472V73.4Z" fill="#3A9EE0"/>
<path d="M451.1 95.4L449.2 94.9C449.2 94.7 452.7 79.5 444.9 72.9C439.5 68.3 429.8 68.7 416.3 74.3L415.5 72.4C429.8 66.6 440.2 66.2 446.2 71.4C454.9 78.9 451.3 94.7 451.1 95.4Z" fill="#041F49"/>
<path d="M415.9 76.9C417.9 76.9 419.5 75.3 419.5 73.3C419.5 71.3 417.9 69.7 415.9 69.7C413.9 69.7 412.3 71.3 412.3 73.3C412.3 75.3 413.9 76.9 415.9 76.9Z" fill="#041F49"/>
<path d="M401.6 76.5V67.8L416.2 71.5V76.5H401.6Z" fill="#041F49"/>
<path d="M1083.3 52.9L1106.9 49.7L1120.3 69.1999L1108.8 90L1083.3 52.9Z" fill="#041F49"/>
<path d="M1139 79.4L1147 36.5L1104.1 28.5L1096.1 71.4L1139 79.4Z" fill="#3A9EE0"/>
<path d="M1134.7 57.8C1127.8 57.8 1121.5 55 1121.1 54.9L1121.9 53.1C1122 53.2 1136.4 59.4 1144.3 52.9C1149.8 48.4 1151.2 38.9 1148.2 24.5L1150.2 24.1C1153.3 39.3 1151.8 49.5 1145.6 54.5C1142.4 57 1138.5 57.8 1134.7 57.8Z" fill="#041F49"/>
<path d="M1149.2 27.9C1151.2 27.9 1152.8 26.2999 1152.8 24.2999C1152.8 22.2999 1151.2 20.7 1149.2 20.7C1147.2 20.7 1145.6 22.2999 1145.6 24.2999C1145.6 26.2999 1147.2 27.9 1149.2 27.9Z" fill="#041F49"/>
<path d="M1148.8 9.59998L1157.4 11.2L1151.1 24.9L1146.2 24L1148.8 9.59998Z" fill="#041F49"/>
<path d="M220.1 209.2L243.7 206L257.1 225.5L245.6 246.4L220.1 209.2Z" fill="#041F49"/>
<path d="M275.7 235.8L283.7 192.9L240.8 184.9L232.8 227.8L275.7 235.8Z" fill="#3A9EE0"/>
<path d="M271.5 214.2C264.6 214.2 258.3 211.4 257.9 211.3L258.7 209.5C258.8 209.6 273.2 215.8 281.1 209.3C286.6 204.8 288 195.3 285 180.9L287 180.5C290.1 195.7 288.6 205.9 282.4 210.9C279.2 213.4 275.3 214.2 271.5 214.2Z" fill="#041F49"/>
<path d="M286 184.3C288 184.3 289.6 182.7 289.6 180.7C289.6 178.7 288 177.1 286 177.1C284 177.1 282.4 178.7 282.4 180.7C282.4 182.7 284 184.3 286 184.3Z" fill="#041F49"/>
<path d="M285.5 166L294.1 167.6L287.7 181.3L282.8 180.4L285.5 166Z" fill="#041F49"/>
<path d="M802.5 95.9L810 73.3L793.3 56.6L770.6 64L802.5 95.9Z" fill="#041F49"/>
<path d="M786.6 79.9H830.2V36.4H786.6V79.9Z" fill="#3A9EE0"/>
<path d="M807.4 58.4C807.2 57.7 803.6 41.9 812.3 34.4C818.3 29.2 828.7 29.6 843 35.4L842.2 37.3C828.6 31.8 819 31.3 813.5 35.9C805.7 42.6 809.2 57.7 809.2 57.9L807.4 58.4Z" fill="#041F49"/>
<path d="M842.6 39.9C844.6 39.9 846.2 38.2999 846.2 36.2999C846.2 34.2999 844.6 32.7 842.6 32.7C840.6 32.7 839 34.2999 839 36.2999C839 38.2999 840.6 39.9 842.6 39.9Z" fill="#041F49"/>
<path d="M856.9 39.5V30.8L842.3 34.5V39.5H856.9Z" fill="#041F49"/>
<path d="M308.4 354.2L283.5 313.6L300.7 298.4L279.6 307.2L274.5 298.9L313.4 286.4L271.8 294.6L257.1 270.7L342 254.4C342 254.4 325.1 200.2 338.7 182.4C350.2 167.4 369.8 170.8 369.8 170.8L384.8 190.4L376.4 194.6C372.9 196.3 371.9 200.8 374.2 203.9C375.4 205.5 377.2 206.4 379.1 206.4C380 206.4 380.9 206.2 381.8 205.8L389.7 202C389.8 202 437.8 270.6 308.4 354.2Z" fill="#A34B30"/>
<path d="M1012.4 228.3L1024.2 199.4C1025.8 195.5 1025.7 191 1023.9 187.2L1021 181.2C1019.5 178.1 1019.6 174.6 1021.2 171.6L1026.9 160.5L1025.5 154.2C1025.4 153.6 1026 153 1026.6 153.2L1031.8 154.9L1040 151.9C1050.8 148 1062.8 151.5 1069.8 160.6C1078.9 172.5 1076.2 189.7 1063.9 198.2L1046.2 210.4L1045.8 229.5L1012.4 228.3Z" fill="#A66A08"/>
<path d="M999.2 394.8C969.9 385.3 950.1 357.9 950.4 327.2L951.5 204.4L1117.4 257.9L1087.9 349.5C1075.9 386.4 1036.2 406.8 999.2 394.8Z" fill="#49BBFF"/>
<path d="M1007.1 358.3C984.3 351 969 329.7 969.2 305.7L970.1 210.3L1099 251.8L1076 323C1066.7 351.8 1035.8 367.6 1007.1 358.3Z" fill="#3A9EE0"/>
<path d="M1014.3 324.8C997.5 319.4 986.2 303.7 986.4 286.1L987 215.8L1081.9 246.4L1065 298.8C1058.2 320 1035.5 331.6 1014.3 324.8Z" fill="#1F7AD0"/>
<path d="M1022 210.4L1059.3 213.5L1060.2 225.7C1060.9 235 1059.8 244.3 1056.9 253.1L1051.9 268.7C1048.3 279.9 1036.9 287 1025.4 284.6C1014.7 282.3 1007.2 272.9 1007.3 262.2L1007.7 222.6L1022 210.4Z" fill="#041F49"/>
<path d="M609.4 188.7L604.8 195.8C603.2 198.3 605 201.7 608.1 201.6V206.8C608.1 208.8 607.4 210.8 606.1 212.4L605.9 212.6C603 216 603.4 221.1 606.8 224L607 224.1C610.9 227.5 616.8 226.8 619.7 222.5C620.9 220.7 621.8 219.4 621.8 219.4L621.3 222.4C620.6 227.1 624.2 231.4 629 231.4C632.7 231.4 635.8 228.8 636.6 225.2L637.7 220.3L640.1 224.9C641.5 227.7 644.8 229.1 647.8 228.2H647.9C651.5 227.1 653.5 223.3 652.4 219.7C651.9 218.1 651.3 216.5 650.9 215.1C650.3 213.3 650.1 211.5 650.3 209.6L650.7 206.1C650.9 204.1 651.7 202.2 652.9 200.6C654.3 198.8 654.5 196.4 653.5 194.4L648.4 184.7L609.4 188.7Z" fill="#041F49"/>
<path d="M604.5 193.3L615 169.9L640.5 168.8L653 191.2L604.5 193.3Z" fill="#1671F2"/>
<path d="M660.4 169.1L625.8 137.4L594.1 172L628.7 203.7L660.4 169.1Z" fill="#3A9EE0"/>
<path d="M833.9 225.9L828.1 211L830.2 209C835.1 204.5 834 196.5 828.1 193.4L828.9 189.3C830.1 183 826.1 176.9 819.9 175.4L814 172C807.6 168.3 800.2 166.9 793 167.9C789.3 168.4 786.5 171.6 786.5 175.3L780 179.3C775.7 182 773.1 186.6 773.1 191.7C773.1 199.4 779 205.7 786.7 206.3L791.8 206.7L793.1 212.1C795.2 220.8 801.2 228.1 809.4 231.8L833.9 225.9Z" fill="#3C231E"/>
<path d="M775.4 181.1L794.1 163.5L818 172.3L820.9 197.8L775.4 181.1Z" fill="#1671F2"/>
<path d="M841.2 189.1L821.4 146.5L778.8 166.3L798.6 208.9L841.2 189.1Z" fill="#3A9EE0"/>
<path d="M1224.6 418.4C1193.9 415.4 1168.8 392.9 1162.4 362.8L1137.2 242.6L1310.7 259.3L1301.5 355.1C1297.7 393.8 1263.3 422.1 1224.6 418.4Z" fill="#49BBFF"/>
<path d="M1224.4 381C1200.6 378.7 1181 361.2 1176.1 337.8L1156.5 244.4L1291.3 257.4L1284.1 331.8C1281.2 361.9 1254.5 383.9 1224.4 381Z" fill="#3A9EE0"/>
<path d="M1224.3 346.7C1206.8 345 1192.3 332.1 1188.7 314.9L1174.3 246.1L1273.6 255.7L1268.3 310.5C1266.1 332.7 1246.4 348.9 1224.3 346.7Z" fill="#1F7AD0"/>
<path d="M1207.3 233.4L1244.4 228.4L1247.9 240.1C1250.5 249 1251.4 258.3 1250.6 267.6L1249 283.9C1247.9 295.6 1238.3 305 1226.6 305.1C1215.6 305.2 1206.4 297.6 1204.1 287.1L1196 248.3L1207.3 233.4Z" fill="#121831"/>
<path d="M987 215.8L996.5 211.3C1005.8 206.8 1016.3 205.3 1026.5 206.9L1063.5 212.7L1077.6 238.6C1079.1 241.4 1076.4 244.7 1073.4 243.7L987 215.8Z" fill="#FFAECD"/>
<path d="M1063.6 212.7L1071.6 210C1074.4 209.1 1075.8 205.8 1074.4 203.1L1072.6 199.6L1082.9 190.5C1087.8 186.1 1090.6 179.9 1090.6 173.3C1090.6 162.7 1083.4 153.5 1073 151L1040.8 143.2V172.6L1014.7 189.5C1010.2 192.4 1007.8 197.7 1008.6 203L1010.1 212.6L1063.6 212.7Z" fill="#FFAECD"/>
<path d="M368.2 63L347.8 53L343.2 62.3L363.6 72.3L368.2 63Z" fill="#F76341"/>
<path d="M105.9 385.6L128.6 384.1L127.9 373.8L105.2 375.3L105.9 385.6Z" fill="#4C8431"/>
<path d="M69.7 150.3L87.3 164.7L93.8 156.7L76.2 142.3L69.7 150.3Z" fill="#115EC1"/>
<path d="M490.6 162.6L477 180.8L485.3 187L498.9 168.8L490.6 162.6Z" fill="#FBBA06"/>
<path d="M969.1 106.7L982.7 124.9L991 118.7L977.4 100.5L969.1 106.7Z" fill="#FFCD5C"/>
<path d="M716.1 42L693.4 41.1L693 51.4L715.7 52.3L716.1 42Z" fill="#FF81B9"/>
<path d="M1161.2 215.8L1143.5 201.6L1137 209.7L1154.7 223.9L1161.2 215.8Z" fill="#4C8431"/>
<path d="M1270.5 40.4L1284.7 22.7L1276.6 16.2L1262.4 33.9L1270.5 40.4Z" fill="#3A9EE0"/>
<path d="M472.4 227.4L484.8 258.1L472.7 263.8L472.4 227.4Z" fill="#041F49"/>
<path d="M1240.2 223.2H1218.2C1214.1 223.2 1210.8 220 1210.6 215.9L1210 196.3C1210 195.9 1209.8 195.6 1209.6 195.3C1208.7 194.4 1207 195 1207 196.4V197.2L1203.9 194.1V178.2C1203.9 176 1205.7 174.1 1208 174.1H1215.2H1202.7C1200.1 174.1 1197.6 173.1 1195.7 171.2L1192.6 168.1C1192.6 168.1 1214 145 1229.6 163.5C1229.6 163.5 1253.4 159.4 1252.8 182.7C1252.8 182.7 1263.6 195.1 1247.4 210.6L1240.2 223.2Z" fill="#2F201A"/>
</g>
</g>
<defs>
<clipPath id="clip0_1528_88849">
<rect width="1335" height="464" fill="white"/>
</clipPath>
</defs>
</svg>
