<svg width="1335" height="464" viewBox="0 0 1335 464" fill="none" xmlns="http://www.w3.org/2000/svg">
<g clip-path="url(#clip0_1528_86265)">
<mask id="mask0_1528_86265" style="mask-type:luminance" maskUnits="userSpaceOnUse" x="0" y="0" width="1335" height="465">
<path d="M1335 0H0V464.071H1335V0Z" fill="white"/>
</mask>
<g mask="url(#mask0_1528_86265)">
<path d="M1335 0H0V464.071H1335V0Z" fill="#D0EAF3"/>
<path d="M745.811 251.047C775.006 202.228 761.773 140.585 716.255 113.364C670.736 86.1427 610.168 103.651 580.973 152.47C551.778 201.29 565.011 262.933 610.53 290.154C656.049 317.375 716.616 299.867 745.811 251.047Z" fill="#B7DAF0"/>
<path d="M329.254 98.0751C350.333 57.9835 334.92 8.39483 294.829 -12.6843L279.839 -20.5657L222.236 -50.8515L207.246 -58.7329C167.155 -79.812 117.566 -64.3994 96.4869 -24.3077C75.4078 15.7841 90.8204 65.3728 130.912 86.4519L145.902 94.3333L203.505 124.619L218.495 132.501C258.586 153.58 308.175 138.167 329.254 98.0751Z" fill="#B7DAF0"/>
<path d="M155.658 396.115L161.927 403.327C164.169 405.906 167.65 407.037 170.979 406.268L180.29 404.118C185.761 402.855 191.084 406.723 191.573 412.316L192.406 421.836C192.704 425.239 194.855 428.201 198 429.536L206.797 433.269C211.965 435.463 213.998 441.721 211.107 446.533L206.185 454.724C204.425 457.653 204.425 461.314 206.185 464.242L211.107 472.433C213.998 477.246 211.965 483.504 206.797 485.697L198 489.431C194.855 490.766 192.704 493.727 192.406 497.131L191.573 506.651C191.084 512.244 185.761 516.111 180.29 514.848L170.979 512.698C167.65 511.93 164.169 513.061 161.927 515.64L155.658 522.852C151.975 527.089 145.395 527.089 141.712 522.852L135.443 515.64C133.201 513.061 129.72 511.93 126.391 512.698L117.08 514.848C111.609 516.111 106.286 512.244 105.797 506.651L104.964 497.131C104.666 493.727 102.515 490.766 99.3696 489.431L90.5731 485.697C85.4049 483.504 83.3716 477.246 86.2634 472.433L91.1854 464.242C92.9452 461.314 92.9452 457.653 91.1854 454.724L86.2634 446.533C83.3716 441.721 85.4049 435.463 90.5731 433.269L99.3696 429.536C102.515 428.201 104.666 425.239 104.964 421.836L105.797 412.316C106.286 406.723 111.609 402.855 117.08 404.118L126.391 406.268C129.72 407.037 133.201 405.906 135.443 403.327L141.712 396.115C145.395 391.878 151.975 391.878 155.658 396.115Z" fill="#B7DAF0"/>
<path d="M897.441 -125.95L909.203 -113.346C913.409 -108.84 919.758 -107.022 925.711 -108.62L942.361 -113.09C952.143 -115.716 961.987 -109.082 963.225 -99.0291L965.333 -81.919C966.086 -75.8015 970.154 -70.5992 975.91 -68.3929L992.007 -62.2221C1001.46 -58.5966 1005.53 -47.4435 1000.62 -38.5829L992.27 -23.5017C989.284 -18.1096 989.517 -11.5097 992.876 -6.34186L1002.27 8.11214C1007.79 16.6042 1004.53 28.0164 995.347 32.3005L979.726 39.5922C974.14 42.1993 970.45 47.6758 970.13 53.8312L969.235 71.0474C968.71 81.1624 959.359 88.4746 949.415 86.5458L932.491 83.2629C926.44 82.0891 920.236 84.3504 916.359 89.1423L905.516 102.545C899.145 110.419 887.282 110.838 880.371 103.433L868.609 90.8297C864.404 86.3234 858.055 84.5058 852.102 86.1037L835.452 90.5731C825.67 93.199 815.826 86.5651 814.587 76.5124L812.48 59.4023C811.726 53.2848 807.658 48.0825 801.903 45.8762L785.806 39.7054C776.348 36.0799 772.284 24.9268 777.191 16.0662L785.543 0.985046C788.529 -4.40705 788.296 -11.007 784.936 -16.1748L775.54 -30.6288C770.02 -39.1209 773.287 -50.5331 782.465 -54.8172L798.087 -62.1089C803.672 -64.716 807.363 -70.1925 807.683 -76.3479L808.577 -93.5641C809.103 -103.679 818.454 -110.991 828.397 -109.062L845.321 -105.78C851.372 -104.606 857.577 -106.867 861.454 -111.659L872.297 -125.061C878.667 -132.936 890.531 -133.355 897.441 -125.95Z" fill="#B7DAF0"/>
<path d="M950.067 346.046C968.426 347.567 983.186 359.257 990.031 374.161C990.544 375.111 991.374 375.196 992.328 374.917C1054.96 359.803 1079.58 446.844 1020.88 468.212C1002.85 473.333 964.336 484.25 947.006 489.143C942.669 490.329 940.38 491.093 937.708 491.736C937.385 491.055 913.953 441.539 905.014 422.649C903.313 419.003 902.19 416.826 900.757 413.516C886.546 380.246 913.155 342.979 949.629 346.01L950.067 346.046Z" fill="#B7DAF0"/>
<path d="M851.849 297.388C873.356 287.642 897.175 291.531 914.134 303.952C915.3 304.697 916.282 304.274 917.177 303.366C977.889 247.388 1059.74 329.506 1007.32 390.038C990.328 407.015 954.003 443.256 937.647 459.541C933.53 463.574 931.443 465.858 928.852 468.243C928.065 467.682 870.951 426.843 849.161 411.263C844.983 408.24 842.368 406.502 838.699 403.689C802.039 375.293 808.601 316.968 851.335 297.62L851.849 297.388Z" fill="#62AFE4"/>
<path d="M925.809 415.21C923.765 415.21 922.021 413.651 921.83 411.576C921.628 409.376 923.248 407.428 925.448 407.226L968.977 403.228L976.358 323.868C976.533 321.986 978.001 320.483 979.878 320.264C981.751 320.051 983.529 321.172 984.132 322.963L1007.08 391.182L1017.48 360.19C1017.98 358.687 1019.32 357.624 1020.9 357.478C1022.48 357.338 1024 358.134 1024.77 359.52L1045.14 396.234L1088 392.298C1090.19 392.085 1092.15 393.715 1092.35 395.915C1092.56 398.115 1090.94 400.062 1088.74 400.264L1043.28 404.439C1041.7 404.575 1040.18 403.783 1039.41 402.397L1022.18 371.34L1010.88 405.017C1010.34 406.646 1008.81 407.745 1007.09 407.746H1007.09C1005.37 407.746 1003.85 406.649 1003.3 405.021L982.574 343.419L976.635 407.278C976.456 409.196 974.936 410.715 973.017 410.891L926.179 415.193C926.055 415.205 925.931 415.21 925.809 415.21Z" fill="#FDF6E9"/>
<path d="M745.783 404.346L740.605 386.866L692.268 401.185L697.446 418.664L745.783 404.346Z" fill="#B8A29E"/>
<path d="M697.446 418.664L692.269 401.185L521.468 451.78L526.646 469.26L697.446 418.664Z" fill="#B8A29E"/>
<path d="M589.27 508.54L552.594 384.728L519.794 394.445L556.47 518.257L589.27 508.54Z" fill="#62AFE4"/>
<path d="M622.071 498.824L585.395 375.012L552.594 384.728L589.27 508.54L622.071 498.824Z" fill="#382C65"/>
<path d="M713.196 471.831L676.519 348.019L643.719 357.735L680.395 481.547L713.196 471.831Z" fill="#382C65"/>
<path d="M745.996 462.114L709.32 338.302L676.519 348.018L713.196 471.831L745.996 462.114Z" fill="#62AFE4"/>
<path d="M709.8 338.161L708.841 338.445L745.518 462.256L746.476 461.972L709.8 338.161Z" fill="#FDF6E9"/>
<path d="M666.569 435.288L657.319 404.062L599.108 421.305L608.358 452.531L666.569 435.288Z" fill="#D1B7B1"/>
<path d="M898.05 447.449C897.889 447.334 896.931 446.633 895.323 445.455C887.318 439.59 862.959 421.744 840.662 405.802L841.825 404.175C864.132 420.124 888.498 437.975 896.505 443.841C898.101 445.011 899.051 445.707 899.211 445.82L898.05 447.449Z" fill="#1E7ACE"/>
<path d="M608.358 452.531L657.319 404.062L666.569 435.288L608.358 452.531Z" fill="#B8A29E"/>
<path d="M677.479 347.734L675.561 348.302L712.237 472.115L714.155 471.546L677.479 347.734Z" fill="#62AFE4"/>
<path d="M553.554 384.444L551.636 385.012L588.312 508.825L590.23 508.256L553.554 384.444Z" fill="#62AFE4"/>
<path d="M1374.09 335.247C1343.48 311.036 1299.04 316.223 1274.83 346.833L1265.78 358.278L1230.99 402.257L1221.94 413.702C1197.73 444.311 1202.92 488.752 1233.53 512.963C1264.14 537.174 1308.58 531.986 1332.79 501.377L1341.84 489.932L1376.62 445.953L1385.68 434.508C1409.89 403.898 1404.7 359.457 1374.09 335.247Z" fill="#B7DAF0"/>
<path d="M1294.06 179.295L1263.98 173.461L1201.54 495.374L1231.62 501.208L1294.06 179.295Z" fill="#382C65"/>
<path d="M1294.06 179.296L1219.11 164.756C1210.61 163.108 1202.26 168.224 1199.88 176.543L1180.2 245.132L1175.02 244.128C1172.53 243.646 1170.13 245.269 1169.65 247.754L1159.11 302.065L1263.25 322.267L1273.79 267.955C1274.27 265.471 1272.65 263.066 1270.16 262.584L1294.06 179.296Z" fill="#DDCBC8"/>
<path d="M1256.5 357.083L1250.01 390.492V390.507L1245.96 411.4C1245.48 413.885 1243.07 415.512 1240.6 415.03L1237.09 448.77L1231.62 501.204L1156.67 486.669C1148.17 485.027 1142.34 477.149 1143.23 468.548L1144.03 460.836L1149.32 410.21L1150.63 397.572L1145.45 396.563C1142.96 396.081 1141.33 393.686 1141.82 391.2L1152.36 336.884L1256.5 357.083Z" fill="#DDCBC8"/>
<path d="M1250.01 390.492V390.508L1245.96 411.4C1245.48 413.885 1243.07 415.512 1240.6 415.03L1237.09 448.771L1144.03 460.836L1149.32 410.21L1250.01 390.492Z" fill="#B8A29E"/>
<path d="M1204.43 434.485C1252.75 434.485 1291.92 395.311 1291.92 346.988C1291.92 298.664 1252.75 259.49 1204.43 259.49C1156.1 259.49 1116.93 298.664 1116.93 346.988C1116.93 395.311 1156.1 434.485 1204.43 434.485Z" fill="#382C65"/>
<path d="M1204.43 409.717C1169.84 409.717 1141.7 381.576 1141.7 346.987C1141.7 323.831 1154.37 302.647 1174.78 291.704L1175.22 291.468L1204.73 346.487H1267.16V346.987C1267.16 381.576 1239.02 409.717 1204.43 409.717ZM1174.82 292.823C1154.99 303.66 1142.7 324.367 1142.7 346.987C1142.7 381.025 1170.39 408.717 1204.43 408.717C1238.3 408.717 1265.89 381.297 1266.15 347.487H1204.13L1174.82 292.823Z" fill="#FDF6E9"/>
<path d="M1187.57 433.865C1164.37 429.364 1144.3 416.095 1131.08 396.503C1117.85 376.911 1113.05 353.341 1117.55 330.135L1119.51 330.516C1115.11 353.197 1119.81 376.234 1132.73 395.384C1145.66 414.533 1165.27 427.502 1187.95 431.902L1187.57 433.865Z" fill="#FDF6E9"/>
<path d="M1204.61 435.512C1198.95 435.512 1193.25 434.968 1187.57 433.865L1187.95 431.902C1210.64 436.301 1233.67 431.607 1252.82 418.679C1271.97 405.752 1284.94 386.142 1289.34 363.46L1291.3 363.841C1286.8 387.047 1273.53 407.11 1253.94 420.337C1239.14 430.325 1222.08 435.512 1204.61 435.512Z" fill="#FDF6E9"/>
<path d="M1289.72 378.294C1296.1 378.294 1301.27 373.123 1301.27 366.743C1301.27 360.364 1296.1 355.192 1289.72 355.192C1283.34 355.192 1278.17 360.364 1278.17 366.743C1278.17 373.123 1283.34 378.294 1289.72 378.294Z" fill="#DDCBC8"/>
<path d="M1204.43 381.605C1223.54 381.605 1239.04 366.106 1239.04 346.988C1239.04 327.869 1223.54 312.37 1204.43 312.37C1185.31 312.37 1169.81 327.869 1169.81 346.988C1169.81 366.106 1185.31 381.605 1204.43 381.605Z" fill="#382C65"/>
<path d="M1204.48 382.12C1201.35 382.12 1198.19 381.696 1195.09 380.841C1186.05 378.347 1178.52 372.48 1173.89 364.323C1169.26 356.165 1168.08 346.693 1170.57 337.65C1175.72 318.983 1195.1 307.985 1213.76 313.134C1232.43 318.283 1243.43 337.659 1238.28 356.325C1235.78 365.367 1229.92 372.897 1221.76 377.528C1216.4 380.568 1210.48 382.12 1204.48 382.12ZM1204.44 312.866C1189.47 312.866 1175.71 322.804 1171.54 337.916C1169.11 346.701 1170.26 355.904 1174.76 363.829C1179.25 371.755 1186.57 377.453 1195.35 379.876C1204.14 382.3 1213.34 381.157 1221.27 376.658C1229.19 372.16 1234.89 364.844 1237.32 356.06C1242.32 337.926 1231.63 319.103 1213.5 314.099C1210.47 313.265 1207.43 312.866 1204.44 312.866Z" fill="#62AFE4"/>
<path d="M1211.54 303.229H1197.32C1196.31 303.229 1195.49 304.046 1195.49 305.055V310.691C1195.49 311.699 1196.31 312.517 1197.32 312.517H1211.54C1212.55 312.517 1213.36 311.699 1213.36 310.691V305.055C1213.36 304.046 1212.55 303.229 1211.54 303.229Z" fill="#382C65"/>
<path d="M1211.54 313.017H1197.32C1196.03 313.017 1194.99 311.973 1194.99 310.69V305.055C1194.99 303.772 1196.03 302.728 1197.32 302.728H1211.54C1212.82 302.728 1213.86 303.772 1213.86 305.055V310.69C1213.86 311.973 1212.82 313.017 1211.54 313.017ZM1197.32 303.728C1196.58 303.728 1195.99 304.323 1195.99 305.055V310.69C1195.99 311.422 1196.58 312.017 1197.32 312.017H1211.54C1212.27 312.017 1212.86 311.422 1212.86 310.69V305.055C1212.86 304.323 1212.27 303.728 1211.54 303.728H1197.32Z" fill="#62AFE4"/>
<path d="M1208.83 354.95C1202.46 358.568 1194.51 354.213 1194.12 346.894L1193.2 329.348C1193.15 328.464 1194.13 327.907 1194.87 328.4L1209.46 338.189C1215.54 342.271 1215.21 351.332 1208.83 354.95Z" fill="#FA7371"/>
<path d="M1204.43 349.921C1206.05 349.921 1207.36 348.608 1207.36 346.988C1207.36 345.368 1206.05 344.054 1204.43 344.054C1202.81 344.054 1201.49 345.368 1201.49 346.988C1201.49 348.608 1202.81 349.921 1204.43 349.921Z" fill="#382C65"/>
<path d="M1175.18 243.141L1174.86 245.115L1226.42 253.567L1226.75 251.592L1175.18 243.141Z" fill="#9F827F"/>
<path d="M752.955 200.715C748.21 200.715 743.771 198.578 740.766 194.756L683.488 121.905C678.658 115.762 677.509 107.763 680.415 100.508C683.32 93.2538 689.672 88.2587 697.408 87.1483L778.802 75.453C786.537 74.3397 794.04 77.3465 798.87 83.49C803.7 89.6336 804.849 97.6316 801.943 104.887L767.493 190.914C765.398 196.146 760.817 199.749 755.239 200.55C754.473 200.66 753.709 200.715 752.955 200.715ZM781.972 89.2246C781.597 89.2246 781.203 89.2519 780.793 89.3105L699.398 101.006C695.47 101.57 693.902 104.485 693.411 105.713C692.919 106.94 692.041 110.132 694.494 113.253L751.771 186.102C752.24 186.698 752.833 186.753 753.247 186.692C753.661 186.633 754.214 186.414 754.496 185.71L788.947 99.6815C790.422 95.9969 788.681 93.1825 787.864 92.1424C787.132 91.2117 785.191 89.2246 781.972 89.2246Z" fill="#62AFE4"/>
<path d="M752.932 206.217C746.513 206.217 740.508 203.326 736.443 198.155L698.521 149.924L718.175 134.473L751.908 177.378L772.199 126.711L795.407 136.004L772.598 192.959C769.765 200.037 763.568 204.91 756.021 205.994C754.985 206.144 753.953 206.217 752.932 206.217Z" fill="#1E7ACE"/>
<path d="M828.176 198.255C828.918 203.417 829.1 208.544 828.754 213.556C827.478 232.408 818.853 249.688 805.39 262.044L724.418 273.678C708.098 265.645 695 251.587 688.442 233.978C686.66 229.198 685.35 224.146 684.594 218.884C678.897 179.227 706.428 142.474 746.071 136.778C785.727 131.081 822.479 158.598 828.176 198.255Z" fill="#62AFE4"/>
<path d="M777.205 211.92C772.242 216.864 765.696 220.299 758.229 221.37C739.746 224.024 722.612 211.197 719.958 192.714C719.501 189.501 719.501 186.332 719.932 183.275C721.938 168.72 733.345 156.651 748.615 154.443C767.098 151.789 784.232 164.617 786.886 183.1C788.468 194.116 784.55 204.654 777.205 211.92Z" fill="#B7DAF0"/>
<path d="M777.205 211.92C772.242 216.864 765.696 220.299 758.229 221.37C739.746 224.024 722.612 211.197 719.958 192.714C719.501 189.5 719.501 186.332 719.932 183.275L777.205 211.92Z" fill="#3A9CDE"/>
<path d="M753.349 222.721C745.88 222.721 738.643 220.324 732.559 215.769C725.116 210.196 720.29 202.06 718.969 192.856L720.948 192.571C722.194 201.246 726.743 208.916 733.757 214.168C740.772 219.421 749.414 221.628 758.087 220.38L758.371 222.36C756.693 222.601 755.015 222.721 753.349 222.721Z" fill="#1E7ACE"/>
<path d="M753.33 231.495C743.981 231.495 734.922 228.496 727.304 222.792C717.987 215.816 711.944 205.629 710.289 194.108L712.269 193.823C713.848 204.815 719.613 214.535 728.503 221.191C737.393 227.848 748.34 230.648 759.335 229.063C782.027 225.804 797.835 204.69 794.576 181.998L796.555 181.713C799.972 205.497 783.403 227.627 759.619 231.044C757.518 231.346 755.416 231.495 753.33 231.495Z" fill="#3A9CDE"/>
<path d="M828.754 213.556L763.239 260.437C762.814 260.748 762.303 260.893 761.796 260.869C761.562 260.858 761.33 260.812 761.106 260.729L688.442 233.978C695 251.587 708.099 265.645 724.418 273.678L805.39 262.044C818.853 249.688 827.478 232.408 828.754 213.556Z" fill="#3A9CDE"/>
<path d="M724.418 274.678C724.266 274.678 724.114 274.642 723.976 274.575C707.014 266.226 694.061 251.932 687.505 234.327L689.379 233.63C695.721 250.657 708.217 264.502 724.583 272.644L765.009 266.835L765.293 268.815L724.56 274.668C724.513 274.675 724.465 274.678 724.418 274.678Z" fill="#1E7ACE"/>
<path d="M730.273 94.498C727.827 94.498 725.688 92.7001 725.33 90.208C724.937 87.4746 726.835 84.9403 729.568 84.5477L768.814 78.9091C771.541 78.5234 774.082 80.414 774.475 83.1474C774.867 85.8808 772.97 88.415 770.236 88.8076L730.99 94.4462C730.75 94.4804 730.51 94.498 730.273 94.498Z" fill="#FDF6E9"/>
<path d="M1070.05 152.097L1080.96 72.156C1081.27 69.8844 1079.68 67.7915 1077.41 67.4813L1012.18 58.5743C1009.91 58.2641 1007.81 59.8542 1007.5 62.1257L996.588 142.067C996.278 144.338 994.185 145.928 991.914 145.618C989.642 145.308 987.549 146.898 987.239 149.169L978.145 215.77C977.835 218.042 979.425 220.135 981.696 220.445L1063.38 231.598C1065.65 231.909 1067.74 230.319 1068.05 228.047L1077.15 161.446C1077.46 159.175 1075.87 157.082 1073.6 156.771C1071.33 156.461 1069.74 154.368 1070.05 152.097Z" fill="#B7DAF0"/>
<path d="M1062.38 79.2998L1010.99 58.444L1007.8 58.7811C1004.24 59.1584 1001.17 61.4691 999.819 64.7924L950.953 185.194C949.61 188.504 951.204 192.276 954.514 193.619L1008.67 215.6C1011.98 216.943 1015.76 215.349 1017.1 212.04L1065.96 91.6378C1067.31 88.3144 1066.72 84.5184 1064.43 81.7621L1062.38 79.2998Z" fill="#FDF6E9"/>
<path d="M1065.62 71.3154L1014.23 50.4596L1010.99 58.4437L1062.38 79.2995L1065.62 71.3154Z" fill="#62AFE4"/>
<path d="M1078.19 46.0152L1022.85 23.556L1012.25 49.6579L1067.59 72.117L1078.19 46.0152Z" fill="#382C65"/>
<path d="M1029.78 19.7721L1038.3 23.2286C1039.77 23.8241 1040.47 25.4987 1039.88 26.9661L1038.66 29.9721L1024.82 24.3577L1026.04 21.3517C1026.64 19.8843 1028.31 19.1766 1029.78 19.7721Z" fill="#FDF6E9"/>
<path d="M1041.52 42.3064C1044.49 40.2943 1048.52 41.065 1050.54 44.0264L1080.43 88.0269L1069.7 95.3184L1039.8 51.3179C1037.79 48.3565 1038.56 44.3185 1041.52 42.3064Z" fill="#3A9CDE"/>
<path d="M1045.22 50.172C1046.51 50.172 1047.56 49.1265 1047.56 47.837C1047.56 46.5474 1046.51 45.502 1045.22 45.502C1043.93 45.502 1042.89 46.5474 1042.89 47.837C1042.89 49.1265 1043.93 50.172 1045.22 50.172Z" fill="#FDF6E9"/>
<path d="M1036.89 172.04L1020.64 212.083C1018.68 216.909 1013.19 219.227 1008.37 217.269L963.952 199.244L953.564 195.033C948.748 193.076 946.42 187.582 948.379 182.756L964.63 142.713L1034.48 171.06L1036.89 172.04Z" fill="#62AFE4"/>
<path d="M972.261 145.808L1060.01 106.301L1033.84 170.799L972.261 145.808Z" fill="#DDCBC8"/>
<path d="M1036.89 172.04L1020.64 212.083C1018.68 216.909 1013.19 219.227 1008.37 217.269L963.952 199.244L1034.48 171.06L1036.89 172.04Z" fill="#3A9CDE"/>
<path d="M953.942 194.104L953.19 195.957L1007.99 218.2L1008.75 216.347L953.942 194.104Z" fill="#382C65"/>
</g>
</g>
<defs>
<clipPath id="clip0_1528_86265">
<rect width="1335" height="464" fill="white"/>
</clipPath>
</defs>
</svg>
