<svg width="1335" height="464" viewBox="0 0 1335 464" fill="none" xmlns="http://www.w3.org/2000/svg">
<g clip-path="url(#clip0_1528_80002)">
<rect width="1335" height="464" fill="#FFECC1"/>
<mask id="mask0_1528_80002" style="mask-type:luminance" maskUnits="userSpaceOnUse" x="0" y="0" width="1335" height="464">
<path d="M1335 464H0V0L1335 0.3V464Z" fill="white"/>
</mask>
<g mask="url(#mask0_1528_80002)">
<path d="M1335 464H0V0L1335 0.3V464Z" fill="#FFECC1"/>
<path d="M1422.94 418.07H0V486.03H1422.94V418.07Z" fill="#655EAA"/>
<path d="M698.68 100.81V376.27C698.68 386.94 690.03 395.59 679.36 395.59H402.31C400.84 395.59 399.41 395.43 398.04 395.11C389.43 393.17 383 385.47 383 376.27V100.81C383 90.1402 391.65 81.4902 402.31 81.4902H679.36C690.03 81.4902 698.68 90.1402 698.68 100.81Z" fill="#FFD985"/>
<path fill-rule="evenodd" clip-rule="evenodd" d="M414.33 94.4199C404.201 94.4199 395.99 102.614 395.99 112.73V364.36C395.99 374.466 404.201 382.67 414.33 382.67V384.67C403.099 384.67 393.99 375.574 393.99 364.36V112.73C393.99 101.506 403.1 92.4199 414.33 92.4199H667.36C678.591 92.4199 687.7 101.516 687.7 112.73V364.35C687.7 375.574 678.591 384.66 667.36 384.66V382.66C677.49 382.66 685.7 374.466 685.7 364.35V112.73C685.7 102.624 677.489 94.4199 667.36 94.4199H414.33Z" fill="#FFC033"/>
<path d="M441.16 384.06H640.52C660.87 384.06 677.4 400.58 677.4 420.94V464.3H404.29V420.94C404.29 400.59 420.81 384.06 441.17 384.06H441.16Z" fill="#121831"/>
<path d="M421.809 75.6504C427.321 75.6504 431.789 71.1822 431.789 65.6704C431.789 60.1586 427.321 55.6904 421.809 55.6904C416.297 55.6904 411.829 60.1586 411.829 65.6704C411.829 71.1822 416.297 75.6504 421.809 75.6504Z" fill="#121831"/>
<path d="M421.809 89.7504C429.602 89.7504 435.919 83.4332 435.919 75.6404C435.919 67.8477 429.602 61.5304 421.809 61.5304C414.016 61.5304 407.699 67.8477 407.699 75.6404C407.699 83.4332 414.016 89.7504 421.809 89.7504Z" fill="#FFFBF2"/>
<path d="M501.161 75.6504C506.672 75.6504 511.141 71.1822 511.141 65.6704C511.141 60.1586 506.672 55.6904 501.161 55.6904C495.649 55.6904 491.181 60.1586 491.181 65.6704C491.181 71.1822 495.649 75.6504 501.161 75.6504Z" fill="#121831"/>
<path d="M501.161 89.7504C508.954 89.7504 515.271 83.4332 515.271 75.6404C515.271 67.8477 508.954 61.5304 501.161 61.5304C493.368 61.5304 487.051 67.8477 487.051 75.6404C487.051 83.4332 493.368 89.7504 501.161 89.7504Z" fill="#FFFBF2"/>
<path d="M580.52 75.6504C586.032 75.6504 590.5 71.1822 590.5 65.6704C590.5 60.1586 586.032 55.6904 580.52 55.6904C575.008 55.6904 570.54 60.1586 570.54 65.6704C570.54 71.1822 575.008 75.6504 580.52 75.6504Z" fill="#121831"/>
<path d="M580.52 89.7504C588.313 89.7504 594.63 83.4332 594.63 75.6404C594.63 67.8477 588.313 61.5304 580.52 61.5304C572.727 61.5304 566.41 67.8477 566.41 75.6404C566.41 83.4332 572.727 89.7504 580.52 89.7504Z" fill="#FFFBF2"/>
<path d="M659.87 75.6504C665.381 75.6504 669.85 71.1822 669.85 65.6704C669.85 60.1586 665.381 55.6904 659.87 55.6904C654.358 55.6904 649.89 60.1586 649.89 65.6704C649.89 71.1822 654.358 75.6504 659.87 75.6504Z" fill="#121831"/>
<path d="M659.87 89.7504C667.663 89.7504 673.98 83.4332 673.98 75.6404C673.98 67.8477 667.663 61.5304 659.87 61.5304C652.077 61.5304 645.76 67.8477 645.76 75.6404C645.76 83.4332 652.077 89.7504 659.87 89.7504Z" fill="#FFFBF2"/>
<path d="M735.6 328.368L742.2 399.568C742.91 407.188 737.54 414.028 729.96 415.178L715.66 417.338L714.86 412.028L714.38 408.888L734.81 404.528L714 406.388L713.74 404.658L734.17 400.298L713.36 402.158L713.1 400.428L733.53 396.068L712.72 397.928L712.46 396.198L732.89 391.838L712.08 393.698L711.82 391.968L732.25 387.608L711.44 389.468L711.18 387.738L731.61 383.378L710.8 385.238L710.54 383.508L730.97 379.148L710.16 381.008L709.9 379.278L730.33 374.918L709.52 376.778L709.26 375.048L729.69 370.688L708.88 372.548L708.62 370.818L729.05 366.458L708.24 368.318L707.98 366.588L728.41 362.228L707.6 364.088L707.34 362.358L727.77 357.998L706.96 359.858L706.7 358.128L727.13 353.768L706.32 355.628L706.06 353.898L726.49 349.538L705.68 351.398L705.42 349.668L725.85 345.308L705.04 347.168L704.78 345.438L725.21 341.078L704.4 342.938L704.14 341.208L724.57 336.848L703.76 338.708L703.5 336.978L723.93 332.618L703.12 334.478L702.86 332.748L723.29 328.388L702.48 330.248L702.22 328.518L703.4 328.268H698.32V408.968C698.32 413.398 701.8 417.068 706.43 417.868C707 417.968 707.62 418.008 708.23 418.008H766.86C767.47 418.008 768.08 417.978 768.66 417.868C773.29 417.068 776.77 413.398 776.77 408.968V328.268H735.57L735.6 328.368Z" fill="#FFB2CC"/>
<path d="M730.74 275.868L729.63 263.918C729.24 259.728 727.1 256.138 724.02 253.788C721.02 251.488 717.12 250.368 713.07 250.978L691 254.308L691.8 259.618L712.53 256.488L712.56 256.648L692.02 261.038L692.28 262.768L713.09 260.908L692.66 265.268L692.92 266.998L713.73 265.138L693.3 269.498L693.56 271.228L714.37 269.368L693.94 273.728L694.2 275.458L715.01 273.598L694.58 277.958L694.84 279.688L715.65 277.828L695.22 282.188L695.48 283.918L716.29 282.058L695.86 286.418L696.12 288.148L716.93 286.288L696.5 290.648L696.76 292.378L717.57 290.518L697.14 294.878L697.4 296.608L718.21 294.748L697.78 299.108L698.04 300.838L718.85 298.978L698.42 303.338L698.68 305.068L719.49 303.208L699.06 307.568L699.32 309.298L720.13 307.438L699.7 311.798L699.96 313.528L720.77 311.668L700.34 316.028L700.6 317.758L721.41 315.898L700.98 320.258L701.24 321.988L722.05 320.128L701.62 324.488L701.88 326.218L722.69 324.358L703.44 328.468H735.62L730.76 275.968L730.74 275.868Z" fill="#FFB2CC"/>
<path d="M702.5 330.348L723.31 328.488L702.88 332.848L703.14 334.578L723.95 332.718L703.52 337.078L703.78 338.808L724.59 336.948L704.16 341.308L704.42 343.038L725.23 341.178L704.8 345.538L705.06 347.268L725.87 345.408L705.44 349.768L705.7 351.498L726.51 349.638L706.08 353.998L706.34 355.728L727.15 353.868L706.72 358.228L706.98 359.958L727.79 358.098L707.36 362.458L707.62 364.188L728.43 362.328L708 366.688L708.26 368.418L729.07 366.558L708.64 370.918L708.9 372.648L729.71 370.788L709.28 375.148L709.54 376.878L730.35 375.018L709.92 379.378L710.18 381.108L730.99 379.248L710.56 383.608L710.82 385.338L731.63 383.478L711.2 387.838L711.46 389.568L732.27 387.708L711.84 392.068L712.1 393.798L732.91 391.938L712.48 396.298L712.74 398.028L733.55 396.168L713.12 400.528L713.38 402.258L734.19 400.398L713.76 404.758L714.02 406.488L734.83 404.628L714.4 408.988L714.88 412.128L715.68 417.438L729.98 415.278C737.56 414.138 742.93 407.288 742.22 399.668L735.62 328.468H703.44L702.26 328.718L702.52 330.448L702.5 330.348Z" fill="#655EAA"/>
<path d="M748 294.599L706.31 396.679C704.21 401.809 704.34 407.579 706.67 412.619L709.2 418.109L761.31 300.489L747.99 294.609L748 294.599Z" fill="white"/>
<path d="M772.76 305.528L727.13 400.858C723.44 408.578 717.07 414.698 709.21 418.098L760.04 299.908L772.76 305.528Z" fill="#FCDEE6"/>
<path d="M762.33 235.249C749.66 229.459 734.66 235.249 729.19 248.039C723.84 260.549 729.8 275.039 742.26 280.539H742.27C746.79 282.539 748.83 287.819 746.83 292.339L746.18 293.799L760.37 300.069L774.54 268.079C780.05 255.639 774.71 240.909 762.32 235.249H762.33ZM729.19 248.039C723.84 260.549 729.8 275.039 742.26 280.539L729.19 248.039ZM738.43 253.199C741.31 244.739 751.13 240.949 758.96 245.279C764.96 248.599 767.77 255.849 765.56 262.329C762.68 270.789 752.86 274.579 745.03 270.249C739.03 266.929 736.22 259.679 738.43 253.199Z" fill="#655EAA"/>
<path d="M747.84 335.398C751.728 335.398 754.88 332.25 754.88 328.368C754.88 324.485 751.728 321.338 747.84 321.338C743.952 321.338 740.8 324.485 740.8 328.368C740.8 332.25 743.952 335.398 747.84 335.398Z" fill="white"/>
<path fill-rule="evenodd" clip-rule="evenodd" d="M776.8 329.368H698.35V327.368H776.8V329.368Z" fill="#FCDEE6"/>
<path d="M818.86 245.529C809.76 248.749 800.48 251.409 791.13 253.849C784.06 255.689 777.86 260.609 774.68 267.789L760.38 300.069L774.57 306.339L775.22 304.879C777.22 300.369 782.51 298.319 787.03 300.319C799.42 305.789 814.09 300.559 819.83 288.309C824.62 278.079 821.79 266.289 813.77 259.219C813.58 259.049 813.76 258.739 814 258.829L822.23 261.739C825.59 262.929 829.33 262.079 831.85 259.569C835.46 255.969 835.46 250.119 831.85 246.519C829.33 243.999 825.59 243.159 822.23 244.349L818.86 245.539V245.529ZM810.81 282.719C807.83 290.819 798.4 294.459 790.73 290.469C784.39 287.169 781.46 279.589 783.92 272.889C786.9 264.789 796.33 261.149 804 265.139C810.34 268.439 813.27 276.019 810.81 282.719Z" fill="#FFB2CC"/>
<path fill-rule="evenodd" clip-rule="evenodd" d="M775.594 268.183L763.294 295.943L761.466 295.133L773.766 267.373L775.594 268.183Z" fill="#FCDEE6"/>
<path d="M1492.63 100.81V376.27C1492.63 386.94 1483.98 395.59 1473.31 395.59H1196.26C1194.79 395.59 1193.36 395.43 1191.99 395.11C1183.38 393.17 1176.95 385.47 1176.95 376.27V100.81C1176.95 90.1404 1185.6 81.4904 1196.26 81.4904H1473.31C1483.98 81.4904 1492.63 90.1404 1492.63 100.81Z" fill="#FFD985"/>
<path fill-rule="evenodd" clip-rule="evenodd" d="M1208.28 94.4204C1198.15 94.4204 1189.94 102.614 1189.94 112.73V364.36C1189.94 374.467 1198.15 382.67 1208.28 382.67V384.67C1197.05 384.67 1187.94 375.574 1187.94 364.36V112.73C1187.94 101.506 1197.05 92.4204 1208.28 92.4204H1461.31C1472.54 92.4204 1481.65 101.517 1481.65 112.73V364.35C1481.65 375.574 1472.54 384.66 1461.31 384.66V382.66C1471.44 382.66 1479.65 374.466 1479.65 364.35V112.73C1479.65 102.624 1471.44 94.4204 1461.31 94.4204H1208.28Z" fill="#FFC033"/>
<path d="M1235.11 384.06H1434.47C1454.82 384.06 1471.35 400.58 1471.35 420.94V464.3H1198.24V420.94C1198.24 400.59 1214.76 384.06 1235.12 384.06H1235.11Z" fill="#121831"/>
<path d="M1105.6 232.03H1153.45C1158.4 232.03 1162.41 236.04 1162.41 240.99C1162.41 245.94 1158.4 249.95 1153.45 249.95H1105.6C1100.65 249.95 1096.64 245.94 1096.64 240.99C1096.64 236.04 1100.65 232.03 1105.6 232.03Z" fill="#FFB2CC"/>
<path d="M1129.52 189.01C1116.92 189.01 1106.71 178.8 1106.71 166.2H1152.34C1152.34 178.8 1142.13 189.01 1129.53 189.01H1129.52Z" fill="#655EAA"/>
<path d="M1152.34 154.99H1106.71V166.2H1152.34V154.99Z" fill="#ECF6FE"/>
<path d="M1109.05 150.31H1150C1151.29 150.31 1152.34 151.36 1152.34 152.65C1152.34 153.94 1151.29 154.99 1150 154.99H1109.05C1107.76 154.99 1106.71 153.94 1106.71 152.65C1106.71 151.36 1107.76 150.31 1109.05 150.31Z" fill="#121831"/>
<path fill-rule="evenodd" clip-rule="evenodd" d="M1128.52 389.61V308.25H1130.52V389.61C1130.52 404.778 1142.81 417.07 1157.98 417.07H1225.73V419.07H1157.98C1141.71 419.07 1128.52 405.883 1128.52 389.61Z" fill="#121831"/>
<path d="M1129.51 285.68C1132 285.68 1134.02 287.7 1134.02 290.19V303.74C1134.02 306.23 1132 308.25 1129.51 308.25C1127.02 308.25 1125 306.23 1125 303.74V290.19C1125 287.7 1127.02 285.68 1129.51 285.68Z" fill="#655EAA"/>
<path d="M1109.33 182.69H1149.71V279.1C1149.71 290.24 1140.66 299.29 1129.52 299.29C1118.38 299.29 1109.33 290.24 1109.33 279.1V182.69Z" fill="#121831"/>
<path d="M1129.52 232.02C1132.93 232.02 1135.7 229.254 1135.7 225.84C1135.7 222.427 1132.93 219.66 1129.52 219.66C1126.11 219.66 1123.34 222.427 1123.34 225.84C1123.34 229.254 1126.11 232.02 1129.52 232.02Z" fill="#FFB2CC"/>
<path fill-rule="evenodd" clip-rule="evenodd" d="M1107.92 166.2V154.99H1108.92V166.2H1107.92Z" fill="#655EAA"/>
<path fill-rule="evenodd" clip-rule="evenodd" d="M1110.26 166.2V154.99H1111.26V166.2H1110.26Z" fill="#655EAA"/>
<path fill-rule="evenodd" clip-rule="evenodd" d="M1112.61 166.2V154.99H1113.61V166.2H1112.61Z" fill="#655EAA"/>
<path fill-rule="evenodd" clip-rule="evenodd" d="M1114.95 166.2V154.99H1115.95V166.2H1114.95Z" fill="#655EAA"/>
<path fill-rule="evenodd" clip-rule="evenodd" d="M1117.3 166.2V154.99H1118.3V166.2H1117.3Z" fill="#655EAA"/>
<path fill-rule="evenodd" clip-rule="evenodd" d="M1119.64 166.2V154.99H1120.64V166.2H1119.64Z" fill="#655EAA"/>
<path fill-rule="evenodd" clip-rule="evenodd" d="M1121.99 166.2V154.99H1122.99V166.2H1121.99Z" fill="#655EAA"/>
<path fill-rule="evenodd" clip-rule="evenodd" d="M1124.33 166.2V154.99H1125.33V166.2H1124.33Z" fill="#655EAA"/>
<path fill-rule="evenodd" clip-rule="evenodd" d="M1126.68 166.2V154.99H1127.68V166.2H1126.68Z" fill="#655EAA"/>
<path fill-rule="evenodd" clip-rule="evenodd" d="M1129.02 166.2V154.99H1130.02V166.2H1129.02Z" fill="#655EAA"/>
<path fill-rule="evenodd" clip-rule="evenodd" d="M1131.37 166.2V154.99H1132.37V166.2H1131.37Z" fill="#655EAA"/>
<path fill-rule="evenodd" clip-rule="evenodd" d="M1133.71 166.2V154.99H1134.71V166.2H1133.71Z" fill="#655EAA"/>
<path fill-rule="evenodd" clip-rule="evenodd" d="M1136.06 166.2V154.99H1137.06V166.2H1136.06Z" fill="#655EAA"/>
<path fill-rule="evenodd" clip-rule="evenodd" d="M1138.4 166.2V154.99H1139.4V166.2H1138.4Z" fill="#655EAA"/>
<path fill-rule="evenodd" clip-rule="evenodd" d="M1140.75 166.2V154.99H1141.75V166.2H1140.75Z" fill="#655EAA"/>
<path fill-rule="evenodd" clip-rule="evenodd" d="M1143.09 166.2V154.99H1144.09V166.2H1143.09Z" fill="#655EAA"/>
<path fill-rule="evenodd" clip-rule="evenodd" d="M1145.43 166.2V154.99H1146.43V166.2H1145.43Z" fill="#655EAA"/>
<path fill-rule="evenodd" clip-rule="evenodd" d="M1147.78 166.2V154.99H1148.78V166.2H1147.78Z" fill="#655EAA"/>
<path fill-rule="evenodd" clip-rule="evenodd" d="M1150.12 166.2V154.99H1151.12V166.2H1150.12Z" fill="#655EAA"/>
<path d="M1215.76 75.6504C1221.27 75.6504 1225.74 71.1822 1225.74 65.6704C1225.74 60.1586 1221.27 55.6904 1215.76 55.6904C1210.25 55.6904 1205.78 60.1586 1205.78 65.6704C1205.78 71.1822 1210.25 75.6504 1215.76 75.6504Z" fill="#121831"/>
<path d="M1215.76 89.7504C1223.55 89.7504 1229.87 83.4332 1229.87 75.6404C1229.87 67.8477 1223.55 61.5304 1215.76 61.5304C1207.97 61.5304 1201.65 67.8477 1201.65 75.6404C1201.65 83.4332 1207.97 89.7504 1215.76 89.7504Z" fill="#FFFBF2"/>
<path d="M1295.11 75.6504C1300.62 75.6504 1305.09 71.1822 1305.09 65.6704C1305.09 60.1586 1300.62 55.6904 1295.11 55.6904C1289.6 55.6904 1285.13 60.1586 1285.13 65.6704C1285.13 71.1822 1289.6 75.6504 1295.11 75.6504Z" fill="#121831"/>
<path d="M1295.11 89.7504C1302.9 89.7504 1309.22 83.4332 1309.22 75.6404C1309.22 67.8477 1302.9 61.5304 1295.11 61.5304C1287.32 61.5304 1281 67.8477 1281 75.6404C1281 83.4332 1287.32 89.7504 1295.11 89.7504Z" fill="#FFFBF2"/>
<path fill-rule="evenodd" clip-rule="evenodd" d="M1422.64 138.418L1211.15 349.918L1209.73 348.503L1421.22 137.003L1422.64 138.418Z" fill="#FFFBF2"/>
<path d="M872.108 241.503H910.735V220.319H872.108V241.503Z" fill="#655EAA"/>
<path d="M848.691 276.086C857.664 276.086 864.937 268.824 864.937 259.861V241.503H917.908V259.861C917.908 268.824 925.18 276.086 934.153 276.086C939.323 276.086 943.508 280.271 943.508 285.431V408.655C943.508 413.815 939.323 418 934.153 418H848.681C843.511 418 839.326 413.815 839.326 408.655V285.431C839.326 280.271 843.511 276.086 848.681 276.086H848.691Z" fill="#FFB2CC"/>
<path fill-rule="evenodd" clip-rule="evenodd" d="M849.892 277.286C845.383 277.286 841.737 280.934 841.737 285.431H839.337C839.337 279.607 844.06 274.886 849.892 274.886V277.286Z" fill="#655EAA"/>
<path d="M936.114 223.185H846.719V178H902.165C920.895 178 936.114 193.209 936.114 211.949V223.185Z" fill="#FCDEE6"/>
<path d="M823 212.442H846.729V188.753H823V212.442Z" fill="#FFB2CC"/>
<path d="M852.131 223.185H864.936L858.528 258.131H852.131V223.185Z" fill="#FFB2CC"/>
<path fill-rule="evenodd" clip-rule="evenodd" d="M846.729 195.093H823V192.093H846.729V195.093Z" fill="#655EAA"/>
<path fill-rule="evenodd" clip-rule="evenodd" d="M846.729 202.285H823V199.285H846.729V202.285Z" fill="#655EAA"/>
<path fill-rule="evenodd" clip-rule="evenodd" d="M846.729 209.105H823V206.105H846.729V209.105Z" fill="#655EAA"/>
<path fill-rule="evenodd" clip-rule="evenodd" d="M913.304 277.286H849.892V274.886H913.304V277.286Z" fill="#655EAA"/>
<path d="M925.6 378.445H1045.68V415.115C1045.68 416.945 1044.19 418.435 1042.36 418.435H928.92C927.09 418.435 925.6 416.945 925.6 415.115V378.445Z" fill="#FCDEE6"/>
<path d="M1019.27 385L999.62 418.24H1019.27V385Z" fill="#FFB2CC"/>
<path d="M1048.28 355.265H923V378.455H1048.28V355.265Z" fill="#313030"/>
<path d="M1057.52 311.225C1057.52 307.325 1059.55 303.675 1062.91 301.705C1068.89 298.205 1072.74 291.475 1072.06 283.915C1071.23 274.725 1063.45 267.375 1054.22 267.015C1043.57 266.595 1034.81 275.095 1034.81 285.635C1034.81 292.545 1038.58 298.575 1044.18 301.785C1047.52 303.695 1049.43 307.385 1049.43 311.225C1049.43 315.885 1046.56 320.145 1042.14 321.655C1028.39 326.355 1018.51 339.355 1018.51 354.675V418.445H1088.43V354.675C1088.43 339.355 1078.54 326.355 1064.8 321.655C1060.39 320.145 1057.51 315.885 1057.51 311.225H1057.52Z" fill="#99643D"/>
<path fill-rule="evenodd" clip-rule="evenodd" d="M1023.26 369.195V418.445H1021.26V369.195H1023.26Z" fill="#663E23"/>
<path fill-rule="evenodd" clip-rule="evenodd" d="M1028.46 369.195V418.445H1026.46V369.195H1028.46Z" fill="#663E23"/>
<path fill-rule="evenodd" clip-rule="evenodd" d="M1033.67 369.195V418.445H1031.67V369.195H1033.67Z" fill="#663E23"/>
<path fill-rule="evenodd" clip-rule="evenodd" d="M1038.87 369.195V418.445H1036.87V369.195H1038.87Z" fill="#663E23"/>
<path fill-rule="evenodd" clip-rule="evenodd" d="M1044.07 369.195V418.445H1042.07V369.195H1044.07Z" fill="#663E23"/>
<path fill-rule="evenodd" clip-rule="evenodd" d="M1049.28 369.195V418.445H1047.28V369.195H1049.28Z" fill="#663E23"/>
<path fill-rule="evenodd" clip-rule="evenodd" d="M1054.48 369.195V418.445H1052.48V369.195H1054.48Z" fill="#663E23"/>
<path fill-rule="evenodd" clip-rule="evenodd" d="M1059.69 369.195V418.445H1057.69V369.195H1059.69Z" fill="#663E23"/>
<path fill-rule="evenodd" clip-rule="evenodd" d="M1064.89 369.195V418.445H1062.89V369.195H1064.89Z" fill="#663E23"/>
<path fill-rule="evenodd" clip-rule="evenodd" d="M1070.1 369.195V418.445H1068.1V369.195H1070.1Z" fill="#663E23"/>
<path fill-rule="evenodd" clip-rule="evenodd" d="M1075.3 369.195V418.445H1073.3V369.195H1075.3Z" fill="#663E23"/>
<path fill-rule="evenodd" clip-rule="evenodd" d="M1080.5 369.195V418.445H1078.5V369.195H1080.5Z" fill="#663E23"/>
<path fill-rule="evenodd" clip-rule="evenodd" d="M1085.71 369.195V418.445H1083.71V369.195H1085.71Z" fill="#663E23"/>
</g>
<path fill-rule="evenodd" clip-rule="evenodd" d="M1100 418.83H860V417.17H1100V418.83Z" fill="#121831"/>
</g>
<defs>
<clipPath id="clip0_1528_80002">
<rect width="1335" height="464" fill="white"/>
</clipPath>
</defs>
</svg>
