<svg width="1335" height="464" viewBox="0 0 1335 464" fill="none" xmlns="http://www.w3.org/2000/svg">
<g clip-path="url(#clip0_1528_86341)">
<rect width="1335" height="464" fill="#C6E6C7"/>
<mask id="mask0_1528_86341" style="mask-type:luminance" maskUnits="userSpaceOnUse" x="0" y="0" width="1335" height="464">
<path d="M1335 0H0V464H1335V0Z" fill="white"/>
</mask>
<g mask="url(#mask0_1528_86341)">
<path d="M1335 0H0V464H1335V0Z" fill="#C6E6C7"/>
<path d="M52.31 222.69L101.57 212.04C131.1 205.66 155.4 184.78 166.16 156.55L171.18 143.38C180.7 118.4 204.66 101.9 231.39 101.9H245.74C278.39 101.9 309.7 88.93 332.79 65.84L370.6 28.03C380.87 17.76 394.79 12 409.31 12C439.54 12 464.05 36.51 464.05 66.74V93.89C464.05 121.41 476.07 147.56 496.95 165.48C517.84 183.4 529.85 209.55 529.85 237.07C529.85 256.47 537.56 275.07 551.27 288.78C561.74 299.25 554.32 317.15 539.52 317.15H62.41C36.02 317.15 14.63 295.76 14.63 269.37C14.63 246.87 30.32 227.42 52.31 222.67V222.69Z" fill="#FFFBF2"/>
<path d="M236.09 310.28L447.64 293.36C486.07 290.29 524.55 298.72 558.17 317.6L614.83 349.41C643.45 365.48 677.65 368.26 708.49 357.04L896.43 288.65H1087.44L1123.83 277.2C1148.63 269.4 1172.73 259.51 1195.86 247.64C1263.84 212.75 1322.05 161.49 1365.26 98.4701L1379 78.4301V526.05H236.09V310.29V310.28Z" fill="#4C8431"/>
<path d="M-22.89 245.56H210.38C261.34 245.56 311.07 261.18 352.87 290.32L437.31 349.18C498.26 391.66 570.76 414.44 645.05 414.44C741.4 414.44 833.8 376.16 901.93 308.03L1008.21 201.75L1087.43 280.97C1116.81 310.35 1164.46 310.35 1193.84 280.97C1230.9 243.91 1281.16 223.09 1333.57 223.09H1384.12V503.54H-22.89V245.56Z" fill="#22A268"/>
<path d="M486.61 392.29H471.96C468.04 392.29 465.28 388.45 466.52 384.73L481.17 341.07C481.95 338.73 484.14 337.16 486.61 337.16C489.78 337.16 492.34 339.73 492.34 342.89V386.55C492.34 389.72 489.77 392.28 486.61 392.28V392.29Z" fill="#253B1E"/>
<path d="M494.28 371.72C497.62 361.11 510.38 356.9 519.37 363.45L544.76 381.92C546.75 383.37 547.6 385.93 546.86 388.28C545.91 391.3 542.69 392.98 539.67 392.03L498.03 378.92C495.01 377.97 493.33 374.75 494.28 371.73V371.72Z" fill="#253B1E"/>
<path d="M464.7 397.51H450.05C446.13 397.51 443.37 393.67 444.61 389.95L459.26 346.29C460.04 343.95 462.23 342.38 464.7 342.38C467.87 342.38 470.43 344.95 470.43 348.11V391.77C470.43 394.94 467.86 397.5 464.7 397.5V397.51Z" fill="#253B1E"/>
<path d="M653.78 433.68C665.61 433.68 675.2 424.09 675.2 412.26C675.2 400.43 665.61 390.84 653.78 390.84C641.95 390.84 632.36 400.43 632.36 412.26C632.36 424.09 641.95 433.68 653.78 433.68Z" fill="#253B1E"/>
<path d="M630.17 410.75C630.17 420.32 622.41 428.08 612.84 428.08C603.27 428.08 595.51 420.32 595.51 410.75C595.51 401.18 603.27 376.31 612.84 376.31C622.41 376.31 630.17 401.18 630.17 410.75Z" fill="#253B1E"/>
<path d="M1348.33 257.12V511.59H-22.89V310.28C-22.89 310.28 77.63 279.06 210.78 291.16C217.33 291.75 223.96 292.45 230.65 293.27C274.95 298.65 322.34 309 370.5 326.89C580.74 404.99 1042.94 562.51 1348.33 257.12Z" fill="#6AC294"/>
<path d="M230.65 293.27L63.47 493.32H0C0 493.32 96.97 350.97 210.78 291.16C217.33 291.75 223.96 292.45 230.65 293.27Z" fill="#C6E6C7"/>
<path d="M801.56 126.08L798.65 128.14V134.73C798.65 137.83 796.72 140.61 793.8 141.69L783.94 145.34V156.71L759.58 149.73L760.72 142.09L754.91 131.19C753.36 128.29 752.59 125.1 752.59 121.91C752.59 118.72 753.38 115.45 754.97 112.53C757.38 108.08 761.4 104.73 766.21 103.16L768.02 102.57C772.79 101.02 777.96 101.34 782.49 103.46L783.8 104.07C787.63 105.86 790.77 108.84 792.77 112.53C793.03 113.02 793.28 113.52 793.5 114.04L797.31 122.75C797.61 123.45 798.2 123.98 798.93 124.21L801.4 125C801.88 125.15 801.98 125.79 801.56 126.08Z" fill="#C86057"/>
<path d="M789.63 174.65V150.71L753.25 146.85L747.82 182.31L789.63 174.65Z" fill="white"/>
<path d="M722.65 269.53L690.72 498.15H742.61L788.05 269.53H722.65Z" fill="#4C6671"/>
<mask id="mask1_1528_86341" style="mask-type:luminance" maskUnits="userSpaceOnUse" x="647" y="269" width="145" height="222">
<path d="M791.98 281.11L774.2 398.95C771.6 416.17 761.79 431.47 747.23 441.03L672.06 490.35L647.7 450.58L730.14 389.8L712.33 341.54C708.48 331.1 708.08 319.71 711.18 309.03L722.64 269.56L791.97 281.14L791.98 281.11Z" fill="white"/>
</mask>
<g mask="url(#mask1_1528_86341)">
<path d="M791.98 281.11L774.2 398.95C771.6 416.17 761.79 431.47 747.23 441.03L672.06 490.35L647.7 450.58L730.14 389.8L712.33 341.54C708.48 331.1 708.08 319.71 711.18 309.03L722.64 269.56L791.97 281.14L791.98 281.11Z" fill="#77A2B8"/>
<path d="M697.24 325.9L795.67 302.4L801.43 285.55L704.33 298.85L697.24 325.9Z" fill="#4C6671"/>
</g>
<path fill-rule="evenodd" clip-rule="evenodd" d="M729.547 388.985C729.719 388.858 729.927 388.79 730.14 388.79H750.11V390.79H730.469L674.003 432.415L672.817 430.805L729.547 388.985Z" fill="#0D386C"/>
<path d="M854.01 238.8L863.35 217.72C865.64 212.54 863.55 206.47 858.55 203.8C853.76 201.25 847.82 202.64 844.66 207.06L834.85 220.79L854.01 238.8Z" fill="#C86057"/>
<path d="M653.85 323.69L642.01 348.2C641.74 348.77 642.08 349.44 642.7 349.55C643.07 349.61 643.45 349.45 643.66 349.13L649.35 340.32L644.31 351.96C643.98 352.72 644.45 353.58 645.26 353.72C645.81 353.82 646.36 353.54 646.61 353.05L652.3 341.97L647.31 354.63C647.05 355.3 647.46 356.05 648.17 356.17C648.66 356.26 649.15 356.01 649.38 355.57L655.62 343.36L652.34 352.14C652 353.04 652.57 354.02 653.51 354.19C654.2 354.31 654.88 353.95 655.17 353.31L661 340.41L660.94 346.12C660.94 346.84 661.45 347.46 662.16 347.58C662.96 347.72 663.72 347.18 663.86 346.38L665.5 336.92C665.95 334.33 665.35 331.67 663.84 329.52L660.72 325.09L653.85 323.71V323.69Z" fill="#C86057"/>
<path fill-rule="evenodd" clip-rule="evenodd" d="M809.524 471.152L844.524 246.732L848.476 247.348L813.476 471.768L809.524 471.152Z" fill="#002F6C"/>
<path fill-rule="evenodd" clip-rule="evenodd" d="M850.544 208.142L853.854 186.892L857.806 187.508L854.496 208.758L850.544 208.142Z" fill="#002F6C"/>
<path d="M863.03 236.34C863.03 241.32 861.8 246.33 859.27 250.91C851.31 265.28 833.32 270.63 818.8 262.94L812.94 259.84L801.48 253.77V253.83L796.08 276L791.01 296.88C790.69 298.23 789.48 299.17 788.1 299.17H716.64C712.48 299.17 709.4 295.31 710.33 291.25L723.31 234.89C723.42 234.41 722.73 234.22 722.57 234.68L703.61 289.5C700.42 298.73 691.72 304.92 681.95 304.92H677.58L667.37 326.89H643.46L659.94 240.06C661.61 231.25 664.77 222.78 669.29 215.03L686.17 186.1C693.68 173.23 707.4 165.24 722.3 165.07L795.53 164.24C800.52 164.18 805.32 166.14 808.85 169.67L854.21 215.03C860 220.82 863.03 228.54 863.03 236.34Z" fill="#FFAECD"/>
<path fill-rule="evenodd" clip-rule="evenodd" d="M819.268 262.056C833.306 269.491 850.699 264.319 858.395 250.426L860.145 251.395C851.921 266.241 833.334 271.769 818.332 263.824L819.268 262.056Z" fill="#FD8F8D"/>
<path d="M795.53 164.24L753.22 152.62C742.05 149.55 731.03 157.96 731.03 169.54C731.03 182.81 745.19 191.28 756.88 185L795.54 164.24H795.53Z" fill="#307BF2"/>
<path d="M801.47 253.83L796.08 276L770.55 239.96C769.89 239.02 770.93 237.83 771.95 238.36L801.48 253.82L801.47 253.83Z" fill="#451613"/>
<path d="M716.87 165.63L792.25 281.86C794.31 285.04 794.76 289.01 793.46 292.57L711.76 168.98C710.42 166.95 711.87 164.24 714.31 164.24C715.35 164.24 716.31 164.76 716.88 165.63H716.87Z" fill="#451613"/>
<path d="M715.888 203.788L731.533 193.417L765.198 244.202L749.553 254.573C744.277 258.07 737.161 256.62 733.67 251.353L712.668 219.671C709.171 214.395 710.621 207.28 715.888 203.788Z" fill="#451613"/>
<path d="M744.75 220.652C742.278 216.924 737.252 215.905 733.523 218.376C729.794 220.848 728.775 225.874 731.247 229.603L740.336 243.314C742.808 247.043 747.834 248.062 751.563 245.59C755.291 243.119 756.31 238.092 753.839 234.363L744.75 220.652Z" fill="#307BF2"/>
<path d="M787.98 114.33L781.7 111.26L785.2 114.62L776.44 118.27L778.69 126.26C780.93 134.21 774.96 142.09 766.71 142.09H760.72L754.91 131.19C753.36 128.29 752.59 125.1 752.59 121.91C752.59 118.72 753.38 115.45 754.97 112.53C757.38 108.08 761.4 104.73 766.21 103.16L768.02 102.57C772.79 101.02 777.96 101.34 782.49 103.46L783.8 104.07C787.63 105.86 790.77 108.84 792.77 112.53L787.98 114.33Z" fill="#462920"/>
<path d="M781.263 123.63L777.71 122.494C776.4 122.076 774.999 122.798 774.58 124.108C774.161 125.418 774.884 126.819 776.194 127.238L779.746 128.374C781.056 128.793 782.458 128.07 782.876 126.76C783.295 125.45 782.573 124.049 781.263 123.63Z" fill="#C86057"/>
<path d="M1020.69 121.27C1020.69 104.06 1006.49 90.1799 989.16 90.6999C973.48 91.1699 960.52 103.71 959.57 119.36C959.07 127.63 961.85 135.24 966.74 141.01C973.52 149.02 977.53 159.01 977.53 169.5V179.6H1002.67V169.5C1002.67 159.01 1006.66 149.03 1013.44 141.03C1017.96 135.7 1020.69 128.8 1020.69 121.27Z" fill="#451613"/>
<mask id="mask2_1528_86341" style="mask-type:luminance" maskUnits="userSpaceOnUse" x="923" y="304" width="141" height="226">
<path d="M935.09 304.92L931.47 318.77C924.67 344.83 922.11 371.81 923.91 398.68L932.68 529.63H994.77V374.69L1006.66 529.63H1055.98L1062.61 448.47C1066.39 402.23 1060.1 355.73 1044.19 312.15L1041.55 304.91H935.1L935.09 304.92Z" fill="white"/>
</mask>
<g mask="url(#mask2_1528_86341)">
<path d="M935.09 304.92L931.47 318.77C924.67 344.83 922.11 371.81 923.91 398.68L932.68 529.63H994.77V374.69L1006.66 529.63H1055.98L1062.61 448.47C1066.39 402.23 1060.1 355.73 1044.19 312.15L1041.55 304.91H935.1L935.09 304.92Z" fill="#66291D"/>
<path d="M914.5 326.34L923.75 337.44C936.7 352.99 958.27 358.29 976.96 350.52C985.66 346.9 995.26 346.03 1004.46 348.03L1076.34 363.59L1053.14 296.2L906.53 309.95L914.51 326.36L914.5 326.34Z" fill="#451613"/>
</g>
<path fill-rule="evenodd" clip-rule="evenodd" d="M1014.83 375.221L982.024 379.651L981.756 377.669L1014.57 373.239L1014.83 375.221Z" fill="#451613"/>
<path d="M1082.39 313.44C1070.63 313.44 1058.98 308.28 1051.08 298.37L1007.9 244.17H977.84L921.26 301.53C905.76 317.27 880.43 317.44 864.69 301.92C848.96 286.41 848.79 261.09 864.3 245.35L944.37 164.17H1046.43L1113.64 248.52C1127.4 265.8 1124.56 290.97 1107.28 304.73C1099.92 310.6 1091.12 313.45 1082.38 313.45L1082.39 313.44Z" fill="#403A76"/>
<path d="M927.08 187.2H1053.13V302.08C1053.13 315.77 1042.01 326.89 1028.32 326.89H951.89C938.2 326.89 927.08 315.77 927.08 302.08V187.2Z" fill="#FFC033"/>
<path d="M958.51 132.87C956.79 133.06 955.16 132.05 954.56 130.43L952.75 125.57C951.75 122.87 953.55 119.95 956.41 119.63C958.84 119.36 961.02 121.12 961.29 123.54L961.85 128.69C962.08 130.76 960.58 132.63 958.51 132.86V132.87Z" fill="#FFA5A0"/>
<path d="M1021.7 132.87C1023.42 133.06 1025.05 132.05 1025.65 130.43L1027.46 125.57C1028.46 122.87 1026.66 119.95 1023.8 119.63C1021.37 119.36 1019.19 121.12 1018.92 123.54L1018.36 128.69C1018.13 130.76 1019.63 132.63 1021.7 132.86V132.87Z" fill="#FFA5A0"/>
<path d="M961.88 113.35L957.67 134.5C957.5 135.33 958.48 135.91 959.12 135.36L961.87 133.06C961.87 133.06 963.6 138.87 961.76 142.66C961.42 143.35 962.04 144.13 962.78 143.93C963.74 143.66 964.9 143.14 965.93 142.11C965.93 142.11 965.71 147.67 968.67 151.13C969.22 151.77 970.27 151.41 970.27 150.56V148.11C970.27 148.11 974.8 153.92 973.91 157.37H1008.09C1008.09 157.37 1006.22 152.45 1009.76 149.1C1009.76 149.1 1010.51 150.5 1012.02 151.49C1012.73 151.95 1013.64 151.25 1013.36 150.45C1012.65 148.4 1012.05 145.04 1014.19 142.2C1014.19 142.2 1014.99 144.3 1017.64 144.9C1018.3 145.05 1018.87 144.41 1018.67 143.76C1018.03 141.66 1017.08 137.51 1018.72 135.14L1021.02 135.25C1021.8 135.29 1022.26 134.37 1021.74 133.78C1019.43 131.14 1015.81 124.95 1017.83 113.35H961.86H961.88Z" fill="#041F49"/>
<path d="M928.11 150.71H1052.11C1055.42 150.71 1058.11 153.4 1058.11 156.71V253.05C1058.11 255.26 1056.32 257.05 1054.11 257.05H926.11C923.9 257.05 922.11 255.26 922.11 253.05V156.71C922.11 153.4 924.8 150.71 928.11 150.71Z" fill="#F6DC9D"/>
<path d="M1020.08 106.22H960.12C958.833 106.22 957.79 107.263 957.79 108.55V118.14C957.79 119.427 958.833 120.47 960.12 120.47H1020.08C1021.37 120.47 1022.41 119.427 1022.41 118.14V108.55C1022.41 107.263 1021.37 106.22 1020.08 106.22Z" fill="#307BF2"/>
<path d="M985.41 75.33C972.4 77.28 962.77 88.46 962.77 101.62V106.22H1017.45L1015.4 96.26C1012.55 82.43 999.38 73.24 985.42 75.33H985.41Z" fill="#46A6F6"/>
<path d="M1001.94 79.01C1008.48 79.01 1013.78 73.709 1013.78 67.17C1013.78 60.6309 1008.48 55.33 1001.94 55.33C995.401 55.33 990.1 60.6309 990.1 67.17C990.1 73.709 995.401 79.01 1001.94 79.01Z" fill="#307BF2"/>
<path d="M990.1 265.48C994.756 265.48 998.53 261.706 998.53 257.05C998.53 252.394 994.756 248.62 990.1 248.62C985.444 248.62 981.67 252.394 981.67 257.05C981.67 261.706 985.444 265.48 990.1 265.48Z" fill="#041F49"/>
<path fill-rule="evenodd" clip-rule="evenodd" d="M1082.39 312.44C1090.91 312.44 1099.49 309.662 1106.67 303.938L1107.91 305.502C1100.37 311.518 1091.35 314.44 1082.39 314.44V312.44Z" fill="#121831"/>
<path fill-rule="evenodd" clip-rule="evenodd" d="M1106.67 303.938C1123.51 290.522 1126.28 265.981 1112.87 249.133L1114.43 247.887C1128.54 265.599 1125.63 291.398 1107.91 305.502L1106.67 303.938Z" fill="#121831"/>
<path fill-rule="evenodd" clip-rule="evenodd" d="M865.392 301.208C880.739 316.341 905.436 316.174 920.547 300.828L921.972 302.232C906.084 318.366 880.121 318.539 863.988 302.632L865.392 301.208Z" fill="#121831"/>
<path d="M941.67 274.86H1038.55V296.48C1038.55 304.1 1032.36 310.28 1024.75 310.28H955.48C947.86 310.28 941.68 304.09 941.68 296.48V274.86H941.67Z" fill="#F6DC9D"/>
<path d="M1048.41 160.71H1014.92V173.45H1048.41V160.71Z" fill="#FBC400"/>
<path d="M971.5 475.12L938.42 401.11C937.48 399 934.31 399.9 934.61 402.19L938.55 431.83L909.68 366.36C908.85 364.47 906.04 364.93 905.86 366.99L900.93 422.22C900.82 423.47 898.99 423.45 898.9 422.2L893.04 336.73C892.88 334.45 889.63 334.17 889.1 336.4L855.85 475.12H971.51H971.5Z" fill="#709D5A"/>
<path d="M1088.85 475.12L1066.99 456.99C1051.73 444.33 1050.65 421.29 1064.67 407.27C1077.82 394.12 1099.13 394.12 1112.28 407.27L1128.84 423.83L1104.73 399.72C1084.79 379.78 1084.79 347.46 1104.73 327.53C1124.67 307.59 1156.99 307.59 1176.92 327.53L1322.23 472.84L1244.66 395.27C1223.69 374.3 1223.69 340.3 1244.66 319.33C1265.63 298.36 1299.63 298.36 1320.6 319.33L1384.14 382.87V475.13H1088.86L1088.85 475.12Z" fill="#1A7249"/>
<path d="M671.04 475.12L617.49 421.44C572.6 376.44 499.72 376.4 454.77 421.34L444.85 431.26C432.46 443.65 413.36 446.38 398 437.94L278.68 372.42C179.87 318.16 56.72 338.89 -18.88 422.52L-66.42 475.11H671.04V475.12Z" fill="#22A268"/>
<path d="M612.84 289.46C612.84 289.46 612.31 272.23 600.77 258.38L601.78 257.37C602.7 256.45 602.97 255.14 602.62 253.98L603.77 252.93L602.05 252.88C601.96 252.77 601.88 252.65 601.77 252.54C600.44 251.21 598.27 251.21 596.94 252.54L596 253.48C588.96 247.26 578.99 242.46 564.85 241.48L582.93 259.56L556.18 261.86L574.32 280L588.85 265.47L612.84 289.46Z" fill="#253B1E"/>
<path fill-rule="evenodd" clip-rule="evenodd" d="M1300.9 452.927L1184.29 336.317L1185.71 334.903L1302.32 451.513L1300.9 452.927Z" fill="#253B1E"/>
<path fill-rule="evenodd" clip-rule="evenodd" d="M1150.68 447.087L1104.02 400.427L1105.44 399.013L1152.1 445.673L1150.68 447.087Z" fill="#253B1E"/>
</g>
</g>
<defs>
<clipPath id="clip0_1528_86341">
<rect width="1335" height="464" fill="white"/>
</clipPath>
</defs>
</svg>
