<svg width="1335" height="464" viewBox="0 0 1335 464" fill="none" xmlns="http://www.w3.org/2000/svg">
<g clip-path="url(#clip0_1528_85236)">
<mask id="mask0_1528_85236" style="mask-type:luminance" maskUnits="userSpaceOnUse" x="0" y="0" width="1335" height="465">
<path d="M1335 0H0V464.071H1335V0Z" fill="white"/>
</mask>
<g mask="url(#mask0_1528_85236)">
<path d="M1335 0H0V464.071H1335V0Z" fill="#CFE6D1"/>
<path d="M1335 0H0V464.071H1335V0Z" fill="#CFE6D1"/>
<path d="M1487.79 183.735L1188.82 131.406L1113.47 561.897L1412.44 614.226L1487.79 183.735Z" fill="#BEDDC2"/>
<path d="M1543.32 59.3965L1258.03 -44.1948L1108.87 366.599L1394.16 470.19L1543.32 59.3965Z" fill="#FDF6E9"/>
<path d="M1257.09 -44.5358L1107.92 366.256L1109.8 366.939L1258.97 -43.8532L1257.09 -44.5358Z" fill="#A0C8A0"/>
<path d="M1328.8 -18.4965L1179.64 392.295L1181.52 392.978L1330.68 -17.8138L1328.8 -18.4965Z" fill="#B5BB61"/>
<path d="M1351.95 192.759L1281.17 167.061L1278.59 174.17L1349.36 199.868L1351.95 192.759Z" fill="#CFE6D1"/>
<path d="M1316.13 210.977L1280.74 198.128L1279.62 201.238L1315 214.087L1316.13 210.977Z" fill="#A0C8A0"/>
<path d="M1203.54 264.377L1168.15 251.527L1167.02 254.637L1202.41 267.486L1203.54 264.377Z" fill="#62AFE4"/>
<path d="M1273.56 200.434C1275.3 200.434 1276.71 199.021 1276.71 197.278C1276.71 195.535 1275.3 194.122 1273.56 194.122C1271.81 194.122 1270.4 195.535 1270.4 197.278C1270.4 199.021 1271.81 200.434 1273.56 200.434Z" fill="#A0C8A0"/>
<path d="M1311.81 222.877L1276.42 210.028L1275.29 213.138L1310.68 225.987L1311.81 222.877Z" fill="#A0C8A0"/>
<path d="M1269.24 212.334C1270.98 212.334 1272.39 210.921 1272.39 209.178C1272.39 207.435 1270.98 206.022 1269.24 206.022C1267.49 206.022 1266.08 207.435 1266.08 209.178C1266.08 210.921 1267.49 212.334 1269.24 212.334Z" fill="#A0C8A0"/>
<path d="M1307.49 234.778L1272.1 221.928L1270.97 225.038L1306.36 237.887L1307.49 234.778Z" fill="#A0C8A0"/>
<path d="M1264.92 224.234C1266.66 224.234 1268.07 222.821 1268.07 221.078C1268.07 219.335 1266.66 217.922 1264.92 217.922C1263.17 217.922 1261.76 219.335 1261.76 221.078C1261.76 222.821 1263.17 224.234 1264.92 224.234Z" fill="#A0C8A0"/>
<path d="M1303.17 246.678L1267.78 233.829L1266.65 236.938L1302.04 249.787L1303.17 246.678Z" fill="#A0C8A0"/>
<path d="M1260.59 236.134C1262.34 236.134 1263.75 234.721 1263.75 232.978C1263.75 231.235 1262.34 229.822 1260.59 229.822C1258.85 229.822 1257.44 231.235 1257.44 232.978C1257.44 234.721 1258.85 236.134 1260.59 236.134Z" fill="#A0C8A0"/>
<path d="M1298.85 258.578L1263.46 245.729L1262.33 248.838L1297.72 261.687L1298.85 258.578Z" fill="#A0C8A0"/>
<path d="M1256.27 248.034C1258.02 248.034 1259.43 246.621 1259.43 244.878C1259.43 243.135 1258.02 241.722 1256.27 241.722C1254.53 241.722 1253.12 243.135 1253.12 244.878C1253.12 246.621 1254.53 248.034 1256.27 248.034Z" fill="#A0C8A0"/>
<path d="M1294.53 270.478L1259.14 257.629L1258.01 260.738L1293.4 273.587L1294.53 270.478Z" fill="#A0C8A0"/>
<path d="M1251.95 259.934C1253.7 259.934 1255.11 258.521 1255.11 256.778C1255.11 255.035 1253.7 253.622 1251.95 253.622C1250.21 253.622 1248.8 255.035 1248.8 256.778C1248.8 258.521 1250.21 259.934 1251.95 259.934Z" fill="#A0C8A0"/>
<path d="M1290.21 282.378L1254.82 269.529L1253.69 272.638L1289.08 285.488L1290.21 282.378Z" fill="#A0C8A0"/>
<path d="M1247.63 271.834C1249.37 271.834 1250.79 270.421 1250.79 268.678C1250.79 266.935 1249.37 265.522 1247.63 265.522C1245.89 265.522 1244.48 266.935 1244.48 268.678C1244.48 270.421 1245.89 271.834 1247.63 271.834Z" fill="#A0C8A0"/>
<path d="M1285.88 294.278L1250.5 281.429L1249.37 284.538L1284.76 297.388L1285.88 294.278Z" fill="#A0C8A0"/>
<path d="M1243.31 283.734C1245.05 283.734 1246.47 282.321 1246.47 280.578C1246.47 278.835 1245.05 277.422 1243.31 277.422C1241.57 277.422 1240.16 278.835 1240.16 280.578C1240.16 282.321 1241.57 283.734 1243.31 283.734Z" fill="#A0C8A0"/>
<path d="M895.47 269.59L895.469 269.591C845.758 277.366 811.762 323.968 819.538 373.68L844.096 530.688C851.871 580.4 898.473 614.396 948.185 606.62L948.185 606.62C997.897 598.845 1031.89 552.242 1024.12 502.531L999.559 345.522C991.783 295.811 945.181 261.815 895.47 269.59Z" fill="#BEDDC2"/>
<path d="M806.66 548.58L700.445 696.63L442.002 471.668L529.485 349.728L806.66 548.58Z" fill="#BEDDC2"/>
<path d="M608.519 254.644L531.327 282.599L454.134 310.554L580.836 564.642L627.364 547.792L704.557 519.837L751.085 502.987L685.712 226.69L608.519 254.644Z" fill="#FFFAF1"/>
<path d="M607.62 203.029L498.968 242.377C503.56 255.057 497.003 269.059 484.323 273.651L436.719 290.89L453.348 336.809L703.128 246.353L686.499 200.435L638.894 217.674C626.214 222.266 612.212 215.709 607.62 203.029Z" fill="#1E7ACE"/>
<path d="M582.74 222.458L530.519 241.369C527.006 242.641 525.189 246.521 526.461 250.034C527.734 253.547 531.613 255.364 535.126 254.092L587.348 235.18C590.861 233.908 592.677 230.028 591.405 226.515C590.133 223.002 586.254 221.185 582.74 222.458Z" fill="#382C65"/>
<path d="M480.92 364.27L691.372 250.61L465.104 332.552L480.92 364.27Z" fill="#62AFE4"/>
<path d="M517.501 260.582L436.375 289.941L437.056 291.822L518.181 262.463L517.501 260.582Z" fill="#FDF6E9"/>
<path d="M975.652 318.555L1054.68 339.032L1014.65 493.498C1011.06 507.357 996.892 515.694 983.032 512.102L929.12 498.133L975.652 318.555Z" fill="#B5BB61"/>
<path d="M984.187 176.569L1025.59 246.926L974.281 277.115C954.865 288.539 929.827 282.051 918.403 262.635C906.978 243.22 913.466 218.182 932.882 206.757L984.187 176.569Z" fill="#B5BB61"/>
<path d="M927.836 394.141L1006.86 414.618L981.69 511.754L934.763 499.595C917.048 495.004 906.393 476.895 910.983 459.18L927.836 394.141Z" fill="#1E7ACE"/>
<path d="M984.212 176.575L1048.46 193.223C1056.61 195.336 1061.52 203.674 1059.41 211.83L1038.07 294.188L959.042 273.712L984.212 176.575Z" fill="#62AFE4"/>
<path d="M983.814 434.841C1035.73 434.841 1077.82 392.752 1077.82 340.833C1077.82 288.913 1035.73 246.824 983.814 246.824C931.895 246.824 889.806 288.913 889.806 340.833C889.806 392.752 931.895 434.841 983.814 434.841Z" fill="#433899"/>
<path d="M1076.75 364.915L1072.88 363.912C1079.05 340.121 1075.58 315.353 1063.11 294.172C1050.65 272.99 1030.68 257.93 1006.89 251.766L1007.9 247.894C1032.72 254.326 1053.56 270.041 1066.56 292.144C1079.57 314.246 1083.19 340.09 1076.75 364.915Z" fill="#FDF6E9"/>
<path d="M892.811 317.252C879.788 367.512 909.974 418.813 960.234 431.836L892.811 317.252Z" fill="#382C65"/>
<path d="M983.814 414.547C1024.53 414.547 1057.53 381.544 1057.53 340.833C1057.53 300.121 1024.53 267.119 983.814 267.119C943.103 267.119 910.1 300.121 910.1 340.833C910.1 381.544 943.103 414.547 983.814 414.547Z" fill="#FFFAF1"/>
<path d="M1055.17 361.323C1055.01 361.323 1054.84 361.302 1054.67 361.259C1053.6 360.982 1052.96 359.89 1053.24 358.821C1063.15 320.542 1040.08 281.33 1001.8 271.411C1000.73 271.134 1000.09 270.042 1000.37 268.974C1000.65 267.904 1001.74 267.264 1002.81 267.539C1043.22 278.011 1067.58 319.411 1057.11 359.824C1056.87 360.726 1056.06 361.323 1055.17 361.323Z" fill="#62AFE4"/>
<path d="M1088.73 353.277L1080.13 351.049C1079.17 350.801 1078.2 351.377 1077.95 352.335L1071.69 376.492C1071.44 377.451 1072.01 378.429 1072.97 378.677L1081.57 380.905C1082.53 381.153 1083.51 380.578 1083.76 379.619L1090.02 355.462C1090.26 354.504 1089.69 353.526 1088.73 353.277Z" fill="#382C65"/>
<path d="M988.701 272.914L981.822 340.63L985.801 341.034L992.681 273.318L988.701 272.914Z" fill="#CFE6D1"/>
<path d="M984.567 337.928L983.062 343.737L1032.71 356.601L1034.21 350.792L984.567 337.928Z" fill="#CFE6D1"/>
<path d="M983.814 347.451C987.47 347.451 990.433 344.488 990.433 340.832C990.433 337.177 987.47 334.214 983.814 334.214C980.159 334.214 977.195 337.177 977.195 340.832C977.195 344.488 980.159 347.451 983.814 347.451Z" fill="#B5BB61"/>
<path d="M867.998 274.45L763.193 254.315C762.286 254.14 761.408 254.735 761.234 255.642L748.632 321.238C748.457 322.146 749.052 323.023 749.959 323.197L854.764 343.332C855.672 343.507 856.549 342.912 856.723 342.005L869.325 276.409C869.5 275.501 868.905 274.624 867.998 274.45Z" fill="#FFFAF1"/>
<path d="M855.081 344.362C854.914 344.362 854.745 344.347 854.576 344.314L854.953 342.35C855.321 342.422 855.671 342.18 855.741 341.816L857.705 342.193C857.46 343.471 856.336 344.362 855.081 344.362Z" fill="#4C8230"/>
<path d="M864.033 298.634L855.744 341.816L857.708 342.193L865.997 299.011L864.033 298.634Z" fill="#4C8230"/>
<path d="M799.255 331.649L798.878 333.613L854.576 344.314L854.953 342.35L799.255 331.649Z" fill="#4C8230"/>
<path d="M860.638 280.867L827.745 274.547L821.426 307.44L854.319 313.76L860.638 280.867Z" fill="#A0C8A0"/>
<path d="M853.456 318.25L820.563 311.93L819.722 316.309L852.615 322.628L853.456 318.25Z" fill="#1E7ACE"/>
<path d="M852.151 325.044L819.258 318.725L818.837 320.914L851.73 327.234L852.151 325.044Z" fill="#1E7ACE"/>
<path d="M775.953 272.268C776.483 269.508 778.949 267.61 781.673 267.71C782.171 267.729 782.613 267.398 782.707 266.908C782.81 266.368 782.457 265.846 781.916 265.742L769.076 263.275C768.535 263.171 768.013 263.525 767.909 264.065L765.442 276.906C765.339 277.447 765.692 277.969 766.233 278.072L779.073 280.539C779.614 280.643 780.136 280.289 780.24 279.749C780.334 279.26 780.046 278.789 779.577 278.621C777.009 277.705 775.423 275.028 775.953 272.268Z" fill="#433899"/>
<path d="M782.534 267.809L780.413 278.849C783.461 279.435 786.408 277.438 786.993 274.389C787.579 271.341 785.582 268.394 782.534 267.809Z" fill="#1E7ACE"/>
<path d="M775.953 272.268C775.367 275.317 777.364 278.263 780.413 278.849L782.534 267.809C779.485 267.223 776.539 269.219 775.953 272.268Z" fill="#A0C8A0"/>
<path d="M780.111 279.992L770.897 272.018C770.41 271.597 769.649 271.86 769.528 272.493L767.229 284.459C767.107 285.092 767.716 285.619 768.325 285.408L779.838 281.416C780.446 281.205 780.598 280.414 780.111 279.992Z" fill="#B5BB61"/>
<path d="M824.117 254.655C827.153 256.511 828.111 260.483 826.256 263.519L816.742 279.084L805.739 272.359L815.253 256.794C817.109 253.758 821.081 252.799 824.117 254.655Z" fill="#433899"/>
<path d="M814.415 273.961C816.311 273.961 817.848 272.424 817.848 270.528C817.848 268.632 816.311 267.095 814.415 267.095C812.519 267.095 810.982 268.632 810.982 270.528C810.982 272.424 812.519 273.961 814.415 273.961Z" fill="#B5BB61"/>
<path d="M780.936 -186.261L597.845 54.7306C594.581 59.1859 595.546 65.4439 600.001 68.7081L747.87 177.048L936.872 -72.0101L780.936 -186.261Z" fill="#BEDDC2"/>
<path d="M896.848 -42.8088L715.82 138.219L728.486 150.885L909.514 -30.1426L896.848 -42.8088Z" fill="#FDF6E9"/>
<path d="M596.67 6.06773L764.697 -161.959C768.285 -165.547 774.11 -165.547 777.698 -161.959L896.848 -42.8089L715.82 138.218L596.67 19.0682C593.083 15.4806 593.083 9.65538 596.67 6.06773Z" fill="#FFFAF1"/>
<path d="M897.827 -41.8291L716.8 139.198L717.507 139.905L898.534 -41.122L897.827 -41.8291Z" fill="#4C8230"/>
<path d="M899.827 -39.8291L718.8 141.198L719.507 141.905L900.534 -39.122L899.827 -39.8291Z" fill="#4C8230"/>
<path d="M901.827 -37.8291L720.8 143.198L721.507 143.905L902.534 -37.122L901.827 -37.8291Z" fill="#4C8230"/>
<path d="M903.827 -35.8291L722.8 145.198L723.507 145.905L904.534 -35.122L903.827 -35.8291Z" fill="#4C8230"/>
<path d="M905.827 -33.8291L724.8 147.198L725.507 147.905L906.534 -33.122L905.827 -33.8291Z" fill="#4C8230"/>
<path d="M907.827 -31.829L726.8 149.198L727.507 149.905L908.534 -31.122L907.827 -31.829Z" fill="#4C8230"/>
<path d="M792.565 -147.091L611.538 33.9364L612.952 35.3505L793.979 -145.677L792.565 -147.091Z" fill="#7D7901"/>
<path d="M707.982 73.5821L654.796 15.3674L638.579 30.1834L691.765 88.398L707.982 73.5821Z" fill="#62AFE4"/>
<path d="M839.393 132.426L859.547 174.505L1172.81 24.4709L1152.65 -17.6086L839.393 132.426Z" fill="#A0C8A0"/>
<path d="M839.39 132.43L859.54 174.502L818.139 179.191L796.166 181.667C793.755 181.921 792.373 179.037 794.093 177.341L809.797 161.771L839.39 132.43Z" fill="#FDF6E9"/>
<path d="M809.797 161.771L818.139 179.191L796.165 181.667C793.755 181.921 792.373 179.037 794.094 177.341L809.797 161.771Z" fill="#382C65"/>
<path d="M1152.65 -17.6085L1172.81 24.4711L1200.79 11.066L1180.64 -31.0135L1152.65 -17.6085Z" fill="#BEDDC2"/>
<path d="M1200.79 11.0661L1180.64 -31.0135L1198.44 -39.5398C1200.95 -40.7422 1203.97 -39.6802 1205.17 -37.1696L1220.97 -4.18768C1222.17 -1.67708 1221.11 1.33743 1218.6 2.53987L1200.79 11.0661Z" fill="#382C65"/>
<path d="M1168.45 15.3817L855.182 165.404L856.478 168.11L1169.75 18.0877L1168.45 15.3817Z" fill="#4C8230"/>
<path d="M1157.16 -8.20761L843.884 141.814L845.18 144.52L1158.45 -5.5016L1157.16 -8.20761Z" fill="#4C8230"/>
<path d="M1162.84 -22.4902L1160.14 -21.1942L1180.29 20.8853L1183 19.5893L1162.84 -22.4902Z" fill="#4C8230"/>
<path d="M1173.41 -27.5536L1170.71 -26.2576L1190.86 15.822L1193.57 14.526L1173.41 -27.5536Z" fill="#4C8230"/>
<path d="M984.212 176.575L945.664 199.236L965.55 248.593L984.212 176.575Z" fill="#382C65"/>
<path d="M1235.5 -7.21224L1014.9 98.4298L1016.2 101.136L1236.8 -4.50623L1235.5 -7.21224Z" fill="#382C65"/>
<path d="M465.998 332.105L464.208 332.998L579.941 565.088L581.731 564.195L465.998 332.105Z" fill="#B5BB61"/>
</g>
</g>
<defs>
<clipPath id="clip0_1528_85236">
<rect width="1335" height="464" fill="white"/>
</clipPath>
</defs>
</svg>
