<svg width="1335" height="464" viewBox="0 0 1335 464" fill="none" xmlns="http://www.w3.org/2000/svg">
<g clip-path="url(#clip0_1528_88017)">
<rect width="1335" height="464" fill="#C4E2F6"/>
<mask id="mask0_1528_88017" style="mask-type:luminance" maskUnits="userSpaceOnUse" x="-1" y="-1" width="1337" height="466">
<path d="M1335.18 -0.0300293H-0.180176V464.04H1335.18V-0.0300293Z" fill="white"/>
</mask>
<g mask="url(#mask0_1528_88017)">
<path d="M1334.82 -0.0300293H-0.180176V464H1334.82V-0.0300293Z" fill="#C4E2F6"/>
<path d="M1335.18 428.22H-0.180176V464.04H1335.18V428.22Z" fill="#A0D1F9"/>
<path d="M322.17 428.09H283.89C282.12 428.09 281.61 425.67 283.23 424.94L299.78 417.59C302.2 416.51 303.46 413.84 302.79 411.32C302.77 411.23 302.75 411.14 302.72 411.05L293.7 383L284.22 353.54L306.04 348.09L316.59 386.81L324.74 416.69L326.36 422.61C327.11 425.38 325.03 428.1 322.17 428.1V428.09Z" fill="#CC6A52"/>
<path d="M549.959 242.04L544.269 270.55C543.489 274.49 539.589 276.97 535.699 275.98L527.719 273.99L509.689 269.49L499.189 266.87V250.3L509.689 253.07L524.529 256.99L535.959 260L547.169 240.99C548.029 239.51 550.289 240.37 549.959 242.05V242.04Z" fill="#CC6A52"/>
<path d="M615.25 428.09H580.29C577.68 428.09 575.57 425.98 575.57 423.37C575.57 421.36 574.29 419.58 572.38 418.92L561.48 415.18L525.01 402.66L494.35 392.12L510.12 376.35L539.83 388.98L566.22 400.21L616.57 421.63C619.94 423.07 618.92 428.08 615.26 428.08L615.25 428.09Z" fill="#CC6A52"/>
<path d="M527.719 273.99L509.699 269.49V253.07L524.529 256.99L527.719 273.99Z" fill="#8C2F1D"/>
<path d="M566.22 400.22L561.48 415.19L525.01 402.66L539.83 388.99L566.22 400.22Z" fill="#8C2F1D"/>
<path d="M324.739 416.68L302.789 411.32C302.769 411.23 302.749 411.14 302.719 411.05L293.699 383L316.589 386.81L324.739 416.69V416.68Z" fill="#8C2F1D"/>
<path d="M352.109 300.8H294.349C271.699 300.8 255.399 322.54 261.739 344.28L274.519 401.42H336.349L324.229 354.14C349.759 353.74 375.259 355.9 400.359 360.59C411.919 362.75 423.179 366.33 433.859 371.24L536.379 418.39L568.289 385.27L394.539 300.8H352.109Z" fill="#FFF9E3"/>
<path d="M299.63 401.42L324.22 354.14L336.35 401.42H299.63Z" fill="#CDCDCD"/>
<path d="M307.729 214.25L302.449 215.92C275.219 224.54 263.569 256.65 278.939 280.72C286.919 293.22 300.729 300.79 315.569 300.79H385.449L397.049 266.18L518.199 293.58V245.98L420.389 214.5C402.059 208.6 382.909 205.59 363.649 205.59C344.679 205.59 325.819 208.5 307.739 214.23L307.729 214.25Z" fill="#FFF9E3"/>
<path d="M394.539 295.58V292.37H352.109V300.81H384.839V313.94H391.709V300.81L398.449 323.44H408.279L397.249 305.28C395.479 302.36 394.539 299.01 394.539 295.59V295.58Z" fill="#F2BF43"/>
<path d="M435.669 274.93L403.129 250.69L397.039 266.19L435.669 274.93Z" fill="#CDCDCD"/>
<path d="M347.359 281.69V300.8H378.369C383.729 300.8 388.069 296.46 388.069 291.1C388.069 282.46 377.619 278.13 371.509 284.24L365.139 290.61L347.359 281.69Z" fill="#CC6A52"/>
<path d="M347.359 300.8V269.28" stroke="#C6C6C6" stroke-width="2" stroke-linejoin="round"/>
<path d="M390.85 284.67L406.05 242.61" stroke="#C6C6C6" stroke-width="2" stroke-linejoin="round"/>
<path d="M334.53 354.12H313.92" stroke="#C6C6C6" stroke-width="2" stroke-linejoin="round"/>
<path d="M313.92 365.05L324.22 354.14" stroke="#C6C6C6" stroke-width="2" stroke-linejoin="round"/>
<path d="M334.529 207.92L360.189 242.61L375.749 205.61L357.529 203.01L334.529 207.92Z" fill="#CC6A52"/>
<path d="M315.569 300.8H331.479" stroke="#C6C6C6" stroke-width="2" stroke-linejoin="round"/>
<path d="M278.939 280.73C286.919 293.23 300.729 300.8 315.569 300.8" stroke="#C6C6C6" stroke-width="2" stroke-linejoin="round"/>
<path d="M308.949 246.85L311.459 269.58L303.949 258.21" stroke="#C6C6C6" stroke-width="2" stroke-linejoin="round"/>
<path d="M334.529 207.92L360.189 242.61V284.67" stroke="#F15A2F" stroke-width="2" stroke-linejoin="round"/>
<path d="M344.949 208.16L353.569 229.42L368.609 214.71L368.419 195.11L379.899 194.63C382.469 194.52 384.569 192.54 384.819 189.98L385.909 178.93L391.539 177.68L389.019 175.78C386.919 174.2 385.109 172.27 383.669 170.07L380.329 164.96C377.739 161 373.669 158.24 369.029 157.3L360.949 155.66C352.559 153.96 344.159 158.5 340.979 166.44C338.909 171.62 339.399 177.47 342.299 182.24L350.449 195.62L344.959 208.16H344.949Z" fill="#CC6A52"/>
<path d="M350.44 195.62L354.17 189.45C357.71 183.59 358.58 176.5 356.55 169.96L371.26 175.29L363.19 165.93L377.39 168.81L373.24 164.95C373.24 164.95 386.19 167.91 390.59 159.51C390.59 159.51 383.94 161.86 375.28 154.05C366.62 146.25 344.9 143.3 341.85 160.6C341.85 160.6 324.92 175.55 350.43 195.62H350.44Z" fill="#232221"/>
<path d="M353.95 180.15L355.36 170.19C352.87 168.83 350.08 171.4 351.23 173.99L353.95 180.15Z" fill="#CC6A52"/>
<path d="M379.31 178.76L385.66 181.39L385.31 185.53L379.31 178.76Z" fill="#600B0B"/>
<path d="M379.31 178.76L385.52 183.08L385.66 181.39L379.31 178.76Z" fill="#8C2F1D"/>
<path d="M379.128 173.424L377.657 172.458C377.445 172.318 377.159 172.377 377.02 172.59L376.509 173.367C376.37 173.579 376.429 173.865 376.641 174.004L378.112 174.97C378.325 175.11 378.61 175.051 378.749 174.838L379.26 174.061C379.399 173.849 379.34 173.564 379.128 173.424Z" fill="#232221"/>
<path d="M375.319 171.09L376.799 171.2C377.819 171.28 378.809 171.53 379.739 171.96L381.139 172.61L381.309 171.76L381.159 171.68C379.459 170.85 377.519 170.61 375.669 171.01L375.329 171.08L375.319 171.09Z" fill="#232221"/>
<path d="M786.58 426.79C785.25 428.35 783.3 429.36 781.06 429.36H739.74C736.39 429.36 735.71 424.64 738.92 423.7L753.99 419.32C757.57 418.28 760.33 415.7 761.69 412.49C762.66 410.25 762.95 407.68 762.37 405.13L759.35 391.72L750.82 353.78L776.42 353.76L782.64 389.29L788.16 420.91C788.55 423.12 787.89 425.23 786.58 426.79Z" fill="#FDBCA2"/>
<path d="M786.58 426.79L761.69 412.48C762.66 410.24 762.95 407.67 762.37 405.12L759.35 391.71L782.64 389.28L788.16 420.9C788.55 423.11 787.89 425.22 786.58 426.78V426.79Z" fill="#FF9A7B"/>
<path d="M854.15 146.39C854.38 147.85 853.99 149.27 853.16 150.4C852.34 151.52 851.1 152.32 849.64 152.55L829.81 155.62L834.42 158.98C835.94 160.11 836.27 162.25 835.16 163.77C834.6 164.54 833.78 165.02 832.92 165.15C832.04 165.29 831.12 165.08 830.37 164.51L825.8 161.18C822.83 159 819.09 158.09 815.45 158.65L790.39 162.52L783.76 144.95L791.68 144.37L804.52 143.44L817.56 142.49L848.7 141.82C851.4 141.77 853.73 143.72 854.15 146.38V146.39Z" fill="#FDBCA2"/>
<path d="M813.61 158.93L794.39 161.91L791.68 144.38L804.52 143.44L813.61 158.93Z" fill="#FF9A7B"/>
<path d="M974.579 186.01C974.859 189.04 971.819 191.18 969.059 189.94L960.169 186.14C956.219 184.45 952.059 183.67 947.769 184.11C947.139 184.14 946.619 184.19 945.989 184.32L924.789 187.72L899.159 191.86L909.549 168.7L922.829 166.68L930.209 165.55L962.789 160.44C967.859 159.56 972.619 163.21 973.079 168.34L974.599 186.01H974.579Z" fill="#FDBCA2"/>
<path d="M971.59 191C974.462 191 976.79 188.672 976.79 185.8C976.79 182.928 974.462 180.6 971.59 180.6C968.718 180.6 966.39 182.928 966.39 185.8C966.39 188.672 968.718 191 971.59 191Z" fill="#FF9A7B"/>
<path d="M970.87 181.74C972.609 181.74 974.02 180.33 974.02 178.59C974.02 176.85 972.609 175.44 970.87 175.44C969.13 175.44 967.72 176.85 967.72 178.59C967.72 180.33 969.13 181.74 970.87 181.74Z" fill="#FF9A7B"/>
<path d="M970.37 176.77C972.109 176.77 973.52 175.36 973.52 173.62C973.52 171.88 972.109 170.47 970.37 170.47C968.63 170.47 967.22 171.88 967.22 173.62C967.22 175.36 968.63 176.77 970.37 176.77Z" fill="#FF9A7B"/>
<path d="M969.849 171.63C971.589 171.63 972.999 170.22 972.999 168.48C972.999 166.74 971.589 165.33 969.849 165.33C968.109 165.33 966.699 166.74 966.699 168.48C966.699 170.22 968.109 171.63 969.849 171.63Z" fill="#FF9A7B"/>
<path d="M969.42 165.98C970.447 165.98 971.28 165.147 971.28 164.12C971.28 163.093 970.447 162.26 969.42 162.26C968.392 162.26 967.56 163.093 967.56 164.12C967.56 165.147 968.392 165.98 969.42 165.98Z" fill="#FF9A7B"/>
<path d="M947.769 184.11C947.139 184.14 946.619 184.19 945.989 184.32L924.789 187.72L922.819 166.69L930.199 165.56L947.769 184.12V184.11Z" fill="#FF9A7B"/>
<path d="M716.45 250.21C706.56 271.17 705.03 295.12 712.18 317.17L740.16 403.51L797.67 394.62L771.36 293.49C767.6 279.05 770.54 263.68 779.35 251.64C787.13 241.01 798.82 233.91 811.84 231.89L934.77 212.88L926.02 156.31L746.31 184.1L743.12 188.45C739.86 192.91 732.83 191.19 731.99 185.73C731.47 182.35 733.79 179.18 737.17 178.65L801.98 168.63L795.1 124.17L726.4 134.79C688.56 140.64 654.6 161.28 631.99 192.17L625.42 201.15C606.51 226.98 603.44 261.16 617.44 289.95L620.99 297.24C627.14 309.89 640.82 317.05 654.72 314.9C673.72 311.96 685.88 293.08 680.7 274.57L674 250.62L716.46 250.2L716.45 250.21Z" fill="#FFF8E2"/>
<path d="M737.159 178.66L786.569 163.11L787.769 170.84L737.159 178.66Z" fill="#CDCDCD"/>
<path d="M773.81 398.31L773.99 303.64L797.66 394.62L773.81 398.31Z" fill="#CDCDCD"/>
<path d="M668.569 239.42L694.989 250.42L673.989 250.63L668.569 239.42Z" fill="#CDCDCD"/>
<path d="M673.99 250.63L656.42 253.35L658.72 241.77L653.67 233.56C651.49 230.02 651.91 225.46 654.71 222.38C657.16 219.69 660.94 218.66 664.42 219.75L665.28 220.02C670.37 221.62 673.09 227.14 671.25 232.15L668.58 239.43L673.99 250.63Z" fill="#FDBCA2"/>
<path d="M779.35 182.42L739.75 243.18L718.51 240.11L771.27 182.42H779.35Z" fill="#121831"/>
<path d="M721.54 238.93C730.24 245.3 736.05 254.87 737.7 265.52L739.46 276.9L720.22 279.88L723.91 261.63C724.96 256.43 721.64 251.34 716.45 250.21L692.05 283.53L684.6 278.08L721.54 238.93Z" fill="#121831"/>
<path d="M665.879 186.18L667.889 171.01L646.659 155.87L660.879 151.09L658.029 136.38C656.029 126.06 645.429 119.83 635.439 123.11C626.099 126.18 621.139 136.35 624.459 145.6L639.649 187.83L665.869 186.17L665.879 186.18Z" fill="#FDBCA2"/>
<path d="M658.359 138.06L663.859 147.51C666.829 152.61 664.319 159.14 658.699 160.94L649.629 163.85C644.849 165.39 639.709 162.81 638.079 158.06L633.749 145.47C633.089 143.54 631.029 142.46 629.059 143C626.969 143.58 625.769 145.75 626.379 147.83L631.729 165.82L621.629 154.85C619.189 152.2 618.519 148.37 619.899 145.05L621.799 140.51L621.089 135.2C620.299 129.28 623.389 123.51 628.749 120.88L643.909 113.44L647.369 118.3C648.499 119.89 650.089 121.11 651.929 121.78L659.719 124.64L659.919 128.34C660.099 131.65 659.559 134.97 658.349 138.05L658.359 138.06Z" fill="#793625"/>
<path d="M653.189 128.54L657.819 140.04L650.879 141.11L651.179 143.06L646.179 142.04L637.039 146.04L631.199 134.46L634.239 134.21C636.629 134.02 638.779 132.66 639.979 130.58L642.219 126.7L643.259 127.35C646.019 129.07 649.369 129.57 652.499 128.71L653.189 128.52V128.54Z" fill="#FDBCA2"/>
<path d="M650.96 135.23C651.573 135.23 652.07 134.733 652.07 134.12C652.07 133.507 651.573 133.01 650.96 133.01C650.347 133.01 649.85 133.507 649.85 134.12C649.85 134.733 650.347 135.23 650.96 135.23Z" fill="#332826"/>
<path d="M653.319 132.04C651.639 130.81 649.289 131.18 648.069 132.85" stroke="#332826" stroke-width="2" stroke-miterlimit="10"/>
<path d="M642.279 133.75C640.599 132.52 638.249 132.89 637.029 134.56" stroke="#332826" stroke-width="2" stroke-miterlimit="10"/>
<path d="M639.909 136.94C640.522 136.94 641.019 136.443 641.019 135.83C641.019 135.217 640.522 134.72 639.909 134.72C639.296 134.72 638.799 135.217 638.799 135.83C638.799 136.443 639.296 136.94 639.909 136.94Z" fill="#332826"/>
<path d="M652.359 135.03L650.029 135.39L649.689 133.19" stroke="#332826" stroke-miterlimit="10"/>
<path d="M652.069 144.25L646.249 143.7L646.749 146.92L652.069 144.25Z" fill="#332826"/>
<path d="M652.069 144.25L650.069 143.28L646.249 143.7L652.069 144.25Z" fill="#FDBCA2"/>
<path d="M639.659 187.84L665.879 186.18L710.009 220.46L699.989 212.68C691.349 205.97 685.229 196.56 682.589 185.94" stroke="#F2BF43" stroke-width="2" stroke-linejoin="round"/>
<path d="M642.739 255.46L673.989 250.63" stroke="#C6C6C6" stroke-width="2" stroke-linejoin="round"/>
<path d="M1146.47 119.93L1130.18 127.06L1129.43 115.28L1122.44 108.64C1119.42 105.78 1118.67 101.26 1120.58 97.57C1122.25 94.34 1125.65 92.38 1129.29 92.54L1130.19 92.58C1135.52 92.82 1139.56 97.46 1139.07 102.77L1138.36 110.49L1146.46 119.93H1146.47Z" fill="#FCA586"/>
<path d="M1181.75 429.36H1150.14C1148.74 429.36 1147.52 428.58 1146.88 427.41C1146.57 426.81 1146.42 426.1 1146.48 425.37L1150.36 379.58L1151.4 367.46H1167.97L1166.57 379.58L1163.49 406.19C1163.31 407.7 1163.38 409.2 1163.69 410.62C1164.53 414.96 1167.39 418.75 1171.55 420.72L1182.54 425.93C1184.27 426.75 1183.69 429.36 1181.76 429.36H1181.75Z" fill="#FCA586"/>
<path d="M997.429 362.61L993.839 379.58L986.109 416.07L983.499 428.34C983.369 428.94 982.839 429.36 982.239 429.36H951.959C950.059 429.36 949.499 426.79 951.209 425.99L963.129 420.5C967.269 418.57 970.289 414.87 971.369 410.47C971.479 410.09 971.549 409.7 971.629 409.3L976.479 379.57L979.249 362.6H997.419L997.429 362.61Z" fill="#FCA586"/>
<path d="M976.49 379.58H993.84L986.11 416.07C981.32 413.68 976.32 411.86 971.38 410.47C971.49 410.09 971.56 409.7 971.64 409.3L976.49 379.57V379.58Z" fill="#F15A2F"/>
<path d="M1163.69 410.62L1146.88 427.41C1146.57 426.81 1146.42 426.1 1146.48 425.37L1150.36 379.58H1166.56L1163.48 406.19C1163.3 407.7 1163.37 409.2 1163.68 410.62H1163.69Z" fill="#F15A2F"/>
<path d="M980.86 281.55L979.38 282.79L963.74 295.88C963.23 296.32 962.76 296.79 962.37 297.34C961.53 298.45 960.98 299.76 960.78 301.15L959.9 306.95C959.74 307.93 958.88 308.68 957.88 308.68C956.77 308.68 955.86 307.77 955.86 306.64V300.39L946.51 301.79L939.24 308.68L932.06 305.93L937.42 298.64C939.37 296 942.23 294.16 945.46 293.48L949.65 292.59C951.89 292.12 954.02 291.26 955.94 290.02C957.45 289.07 958.84 287.89 960.04 286.52L967.9 277.55L972.84 271.9L980.86 281.56V281.55Z" fill="#FCA586"/>
<path d="M979.389 282.79L963.749 295.88C963.239 296.32 962.769 296.79 962.379 297.34L955.949 290.01C957.459 289.06 958.849 287.88 960.049 286.51L967.909 277.54L979.389 282.79Z" fill="#F15A2F"/>
<path d="M1199.8 332.81L1199.44 399.25H1139.27L1143.99 341.1H1017.43L1002.96 399.25H946.979L967.19 326.38C971.89 309.43 985.84 296.61 1003.15 293.39L1058.95 282.98L1112.1 280.08L1170.65 295.05C1187.88 299.46 1199.89 315.03 1199.8 332.82V332.81Z" fill="#FFF8E2"/>
<path d="M943.949 273.6L983.959 301.76L1037.3 255.65L1049.42 268.38L1016.69 290.43L1088.22 323.07L1147.62 292.82L1119.74 273.59L1130.65 238.68L1175.13 214.62C1185.61 208.95 1189.96 196.18 1185.14 185.3L1153.68 114.35L1113.67 130.82L1139.13 175.27L1050.98 198.54C1026.87 204.9 1004.71 217.11 986.449 234.09L943.949 273.6Z" fill="#FFF8E2"/>
<path d="M1003.15 293.38C985.839 296.61 971.889 309.41 967.189 326.38" stroke="#C6C6C6" stroke-width="2" stroke-linejoin="round"/>
<path d="M1124.67 263.94H1042.88L1036.64 277H1059.93L1045.82 291.11L1053.26 298.55L1065.53 286.29V301.59H1075.66V277H1124.67V263.94Z" fill="#57AAE3"/>
<path d="M1097.25 194.73L1087.77 208.97L1080.66 231.62V220.64L1076.51 194.73L1080 179.02L1074.35 176.43C1072.06 175.38 1070.45 173.26 1070.05 170.78L1068.91 163.71L1062 161.5L1066.99 158.21C1067.98 157.56 1068.8 156.68 1069.38 155.64L1073.63 148.06C1076.41 143.11 1081.31 139.72 1086.92 138.88C1093.32 137.91 1099.76 140.38 1103.87 145.38L1104.56 146.21C1109.39 152.09 1110.1 160.34 1106.35 166.96L1099.73 178.64L1097.25 194.74V194.73Z" fill="#FCA586"/>
<path d="M1099.73 178.63L1090.65 164.13L1093.25 159.38C1093.94 158.12 1093.57 156.54 1092.4 155.71C1091.09 154.79 1089.27 155.14 1088.4 156.49L1086.43 159.56L1084 156.32C1080.05 151.05 1077.47 144.87 1076.51 138.36L1076.15 135.95L1092.15 134.72C1098.25 134.25 1104.18 136.86 1107.95 141.68C1112.56 147.58 1113.11 155.69 1109.34 162.15L1099.73 178.62V178.63Z" fill="#EA5E3A"/>
<path d="M1117.27 152.09C1124.35 152.09 1130.09 146.35 1130.09 139.27C1130.09 132.19 1124.35 126.45 1117.27 126.45C1110.19 126.45 1104.45 132.19 1104.45 139.27C1104.45 146.35 1110.19 152.09 1117.27 152.09Z" fill="#EA5E3A"/>
<path d="M1069.29 166.04L1069.11 164.9L1074.4 165.47L1069.56 167.71L1069.29 166.04Z" fill="#FD9071"/>
<path d="M1074.94 158.41C1075.63 158.41 1076.19 157.622 1076.19 156.65C1076.19 155.678 1075.63 154.89 1074.94 154.89C1074.25 154.89 1073.69 155.678 1073.69 156.65C1073.69 157.622 1074.25 158.41 1074.94 158.41Z" fill="#282120"/>
<path d="M1079.17 155.73C1079.17 155.73 1076.55 152.99 1073.1 153.41C1073.1 153.41 1074.81 155.77 1079.17 155.73Z" fill="#282120"/>
<path d="M1076.51 194.73L1076.58 195.1C1080.48 216.08 1081.35 237.52 1079.17 258.75L1082.28 228.55C1083.57 215.98 1088.82 204.14 1097.26 194.73" stroke="#1D7DBB" stroke-width="2" stroke-linejoin="round"/>
<path d="M1032.19 341.1H999.659" stroke="#C6C6C6" stroke-width="2" stroke-linejoin="round"/>
<path d="M1017.44 341.1L1010.32 348.22" stroke="#C6C6C6" stroke-width="2" stroke-linejoin="round"/>
<path d="M1172.82 341.1L1139.26 399.25L1143.99 341.1H1172.82Z" fill="#C6C6C6"/>
<path d="M1041.93 260.53L1031.18 248.85" stroke="#C6C6C6" stroke-width="2" stroke-linejoin="round"/>
<path d="M1147.96 173.28L1124.66 179.09L1129.12 177.91C1135.54 176.22 1142.36 177.08 1148.16 180.32L1150.38 181.56" stroke="#C6C6C6" stroke-width="2" stroke-linejoin="round"/>
<path d="M1053.26 298.55L1075.66 277" stroke="#1D7DBB" stroke-width="2" stroke-linejoin="round"/>
<path d="M1065.53 301.59V286.29" stroke="#1D7DBB" stroke-width="2" stroke-linejoin="round"/>
<path d="M1017.88 293.4L1084.84 323.95L1140.46 295.63" stroke="#C6C6C6" stroke-width="2" stroke-linejoin="round"/>
<path d="M173.189 428.22H354.129" stroke="#1D7DBB" stroke-width="2" stroke-linejoin="round"/>
<path d="M542.97 428.22H639.15" stroke="#1D7DBB" stroke-width="2" stroke-linejoin="round"/>
<path d="M711.25 428.22H807.43" stroke="#1D7DBB" stroke-width="2" stroke-linejoin="round"/>
<path d="M919.43 428.22H1015.61" stroke="#1D7DBB" stroke-width="2" stroke-linejoin="round"/>
<path d="M1109.66 428.22H1205.83" stroke="#1D7DBB" stroke-width="2" stroke-linejoin="round"/>
</g>
</g>
<defs>
<clipPath id="clip0_1528_88017">
<rect width="1335" height="464" fill="white"/>
</clipPath>
</defs>
</svg>
