<svg width="1335" height="464" viewBox="0 0 1335 464" fill="none" xmlns="http://www.w3.org/2000/svg">
<g clip-path="url(#clip0_1528_86758)">
<rect width="1335" height="464" fill="#A0D1F9"/>
<mask id="mask0_1528_86758" style="mask-type:luminance" maskUnits="userSpaceOnUse" x="0" y="0" width="1335" height="464">
<path d="M1335 0H0V464H1335V0Z" fill="white"/>
</mask>
<g mask="url(#mask0_1528_86758)">
<path d="M1335 0H0V464H1335V0Z" fill="#C4E2F6"/>
<path d="M0 201.36L757.98 289.93H0V201.36Z" fill="#008C31"/>
<path d="M1335 286.87H0V464H1335V286.87Z" fill="#A0D1F9"/>
<path d="M1335 112.79H579.55C499.63 112.79 420.4 127.56 345.84 156.35L0 289.93H1335V112.79Z" fill="#B7BD61"/>
<path d="M597.09 213.49C592.38 214.01 588.13 215 584.58 216.3C577.35 218.94 569.6 219.09 562.42 216.32C552.4 212.46 539.87 210.2 526.97 210.46C500.34 210.98 478.36 224.33 477.88 240.26C477.4 256.19 502.68 266.27 534.34 262.75C561.84 259.69 582.03 249.23 583.88 238.05C584.09 236.77 585.16 235.9 586.4 236.28C590.63 237.55 595.54 238.27 600.57 238.17C613.14 237.92 623.51 231.63 623.74 224.1C623.97 216.58 612.04 211.83 597.09 213.49Z" fill="#709D5A"/>
<path d="M867.91 112.79H694.24L640.76 289.93H828.37L867.91 112.79Z" fill="#58AF67"/>
<path d="M975.75 160.12L974.97 289.93H1335L1081.64 159.86L975.75 160.12Z" fill="#2C5E19"/>
<path d="M867.91 112.92L828.37 289.93H975.75V112.66L867.91 112.92Z" fill="#4C8431"/>
<path d="M484.44 182.82C484.44 182.82 553.16 185.31 553.16 240.75H568.04C568.04 240.75 562.27 201.02 614.05 201.02V196.46C614.05 196.46 573.77 192.22 565.09 216.48L556.09 169.76H550.71L559.14 212.4C559.14 212.4 529.9 179.85 484.44 179.85V182.82Z" fill="#FFEDFF"/>
<path d="M561.42 133.44H493.21C475.807 133.44 461.7 147.548 461.7 164.95V164.96C461.7 182.362 475.807 196.47 493.21 196.47H561.42C578.822 196.47 592.93 182.362 592.93 164.96V164.95C592.93 147.548 578.822 133.44 561.42 133.44Z" fill="#58AF67"/>
<path d="M620.35 174.73H607.76C594.665 174.73 584.05 185.345 584.05 198.44C584.05 211.535 594.665 222.15 607.76 222.15H620.35C633.445 222.15 644.06 211.535 644.06 198.44C644.06 185.345 633.445 174.73 620.35 174.73Z" fill="#58AF67"/>
<path fill-rule="evenodd" clip-rule="evenodd" d="M607.76 175.73C595.213 175.73 585.05 185.902 585.05 198.44H583.05C583.05 184.798 594.108 173.73 607.76 173.73V175.73Z" fill="#4C8431"/>
<path d="M1018.08 160.36H963.71C925.83 160.36 906.88 114.55 933.68 87.79L956.41 65.1C967.84 53.68 984.77 49.77 1000.06 55C1017.19 60.87 1028.7 76.97 1028.7 95.07V149.74C1028.7 155.6 1023.95 160.36 1018.08 160.36Z" fill="#A2CAA2"/>
<path d="M975.75 160.36C975.75 131.12 999.46 107.41 1028.7 107.41C1057.94 107.41 1081.65 131.12 1081.65 160.36H975.75Z" fill="#58AF67"/>
<path fill-rule="evenodd" clip-rule="evenodd" d="M1028.7 108.41C1000.01 108.41 976.75 131.672 976.75 160.36H974.75C974.75 130.568 998.908 106.41 1028.7 106.41V108.41Z" fill="#2C5E19"/>
<path d="M0 289.93H1335C1335 289.93 1295.36 279.4 1277.78 251.36C1277.42 250.79 1276.63 250.72 1276.18 251.22L1251.84 278.96L1223.73 249.83C1222.97 249.05 1221.69 249.87 1222.08 250.88L1231.93 276.45L1183.52 242.39C1182.63 241.77 1181.53 242.8 1182.09 243.73L1201.97 276.46L1182.36 262.93C1181.99 262.67 1181.49 262.7 1181.15 262.99L1157.87 282.52L1149.62 255.67C1149.33 254.73 1148 254.73 1147.71 255.67L1138.54 285.02L1129.41 264.45C1128.95 263.42 1127.41 263.82 1127.5 264.94L1128.28 274.19C1128.77 280.02 1124.17 285.02 1118.32 285.02C1111.22 285.02 1106.38 277.82 1109.07 271.24L1113.95 259.31C1114.37 258.29 1113.06 257.44 1112.3 258.24L1090.56 281.11L1069.39 263.95C1068.71 263.4 1067.7 263.93 1067.76 264.8L1068.63 276.45L1037.95 253.73C1037.22 253.19 1036.21 253.82 1036.37 254.71L1039.4 271.44L989.64 285L997.46 257.27C997.75 256.24 996.44 255.53 995.74 256.35L973.29 282.5L965.99 267.17C965.73 266.62 965.05 266.43 964.54 266.76L945.82 278.95L916.27 268C915.34 267.65 914.53 268.74 915.12 269.54L926.64 285C926.64 285 846.56 282.93 822.35 250.46C821.81 249.73 820.66 250.03 820.56 250.93C819.89 256.76 819.15 271.04 826.82 276.85C826.82 276.85 747.11 296.83 696.54 248.54C695.82 247.85 694.65 248.53 694.88 249.5C696.65 256.86 702.78 274.86 721.38 282.51C721.38 282.51 656.13 262.85 636.48 282.51L630.57 262.72C630.26 261.68 628.74 261.81 628.62 262.89L626.39 282.51L608.74 255.96C608.14 255.05 606.73 255.63 606.92 256.7L611.72 282.51L598.42 264.16C597.81 263.32 596.49 263.85 596.62 264.87L597.4 270.99C598.08 276.32 594.56 281.27 589.3 282.38C580.8 284.18 574.02 275.3 578 267.57C578.08 267.41 577.89 267.25 577.75 267.36C574.1 270.33 554.86 285.01 531.07 285.01C505.64 285.01 457.47 253.33 405.8 266.21C404.68 266.49 404.84 268.14 405.99 268.19C419.3 268.8 449.32 271.56 461.72 283.95L393.92 274.36C392.94 274.22 392.38 275.44 393.11 276.1L401.88 283.95L370.57 271.93C369.26 271.43 367.9 272.55 368.15 273.94L369.53 281.53H340.34C332.44 281.53 325.88 275.45 325.28 267.57L324.62 258.85C324.49 257.09 322.31 256.35 321.13 257.67L295.85 286.03L288.06 266.11C287.23 263.98 284.06 264.69 284.2 266.97L285.11 281.18L267.38 267.36C265.77 266.11 263.54 267.78 264.29 269.68L270.55 285.33L221.6 267.83C220.13 267.3 218.65 268.6 218.97 270.13L222.04 284.64L152.56 275.3C140.6 273.69 128.43 274.84 116.98 278.66L111.58 280.46C100.68 284.09 88.97 284.47 77.86 281.55L57.05 276.07C43 272.37 28.25 272.3 14.16 275.86L0 279.45V289.93Z" fill="#1A7249"/>
<path d="M59.88 106.75H343.87C358.03 106.75 369.51 95.27 369.51 81.11C369.51 58.27 341.89 46.83 325.74 62.98L260.21 128.51C249.68 139.04 231.68 131.58 231.68 116.69V109.91C231.68 86.41 209.58 69.17 186.79 74.89L59.88 106.74V106.75Z" fill="white"/>
<path d="M573.34 387.48H731.66C739.96 387.48 746.68 394.21 746.68 402.5C746.68 411.57 754.65 418.57 763.65 417.4L976.07 389.66C987.19 388.21 998.4 387.48 1009.61 387.48H1174.8C1191.76 387.48 1208.37 382.72 1222.76 373.75H573.34C569.55 373.75 566.48 376.82 566.48 380.61C566.48 384.4 569.55 387.47 573.34 387.47V387.48Z" fill="white"/>
<path d="M1018.84 316.83H932.74V329.36H797.17L798.67 331.71C813.1 354.29 832.56 368.3 853.43 371.12L872.96 373.76H1216.06L1237.26 369.54C1253.66 366.27 1269.01 356.08 1281.54 340.33C1285.06 335.9 1281.83 329.35 1276.16 329.35H1076.14C1056.36 329.35 1036.81 325.08 1018.84 316.82V316.83Z" fill="#115EC1"/>
<path fill-rule="evenodd" clip-rule="evenodd" d="M1093.41 261.511C1093.58 272.553 1084.77 281.644 1073.73 281.818L1010.07 282.82L951.154 290.19L941.529 309.334C938.133 316.088 931.219 320.35 923.66 320.35H901.77C890.724 320.35 881.77 311.396 881.77 300.35C881.77 289.304 890.724 280.35 901.77 280.35H911.33L920.211 262.686C923.208 256.726 928.979 252.653 935.598 251.825L1006.19 242.995C1006.91 242.905 1007.63 242.854 1008.35 242.842L1068.14 241.901C1068.25 241.897 1068.37 241.894 1068.49 241.892L1073.11 241.822C1084.15 241.655 1093.24 250.469 1093.41 261.511Z" fill="#FCD632"/>
<path d="M935.64 277.42L945.48 309.58L945.45 316.83H1006.51L1015.28 277.42H935.64Z" fill="#FCD632"/>
<path d="M960.46 209.78L954.73 217.47C950.45 223.21 951.82 231.36 957.74 235.38L965.37 240.56L977.64 220.07L960.46 209.79V209.78Z" fill="#6E2D1C"/>
<path d="M966.74 241.37L968.19 229.95L960.35 228.74C957.22 228.26 955.27 225.08 956.26 222.08L959.7 211.64C961.2 207.09 965.72 204.24 970.48 204.87L972.91 205.19C980.84 206.23 985.39 214.76 981.84 221.92L978.78 228.1L984.2 251.83L966.74 241.38V241.37Z" fill="#FFA586"/>
<path d="M966.55 212.08L966.15 223.52C965.99 228.13 968.35 232.47 972.31 234.84L986.49 243.33L978.78 228.1L983.05 220.96L966.55 212.09V212.08Z" fill="#6E2D1C"/>
<path d="M972.2 259.92L962.49 260.79L960.32 236.59L990.85 233.85L986.85 247.81C984.94 254.48 979.12 259.29 972.2 259.91V259.92Z" fill="#FCD632"/>
<path d="M986.053 215.892L964.086 202.746C963.233 202.235 962.128 202.513 961.618 203.366L958.547 208.497C958.036 209.35 958.314 210.455 959.167 210.966L981.133 224.113C981.986 224.623 983.092 224.345 983.602 223.492L986.673 218.361C987.184 217.508 986.906 216.403 986.053 215.892Z" fill="#362C62"/>
<path d="M983 218.39L962.6 206.18L968.56 202.02C970.94 200.36 974 199.98 976.71 201.01L979.23 201.97C983.45 203.58 985.77 208.12 984.59 212.48L982.99 218.39H983Z" fill="#362C62"/>
<path d="M994.052 278.927L959.755 282.169L960.632 291.448L994.93 288.206L994.052 278.927Z" fill="#362C62"/>
<path d="M991.775 254.838L957.478 258.08L958.355 267.359L992.652 264.117L991.775 254.838Z" fill="#362C62"/>
<path d="M957.944 242.886L945.052 244.105C938.168 244.756 933.115 250.864 933.765 257.748L937.143 293.478C937.794 300.362 943.902 305.415 950.786 304.764L963.678 303.546C970.562 302.895 975.615 296.787 974.964 289.903L971.587 254.172C970.936 247.288 964.828 242.235 957.944 242.886Z" fill="#FF5F2F"/>
<path d="M1001.84 238.734L988.946 239.953C982.062 240.604 977.009 246.712 977.66 253.596L981.038 289.326C981.688 296.21 987.796 301.263 994.68 300.612L1007.57 299.394C1014.46 298.743 1019.51 292.635 1018.86 285.751L1015.48 250.02C1014.83 243.136 1008.72 238.083 1001.84 238.734Z" fill="#FF5F2F"/>
<path d="M1182.69 249.399L1132.65 261.967C1122.38 264.547 1111.96 258.299 1109.38 248.038L1108.38 244.051C1105.8 233.78 1112.05 223.354 1122.31 220.777L1172.34 208.209C1175.67 207.373 1179.04 209.392 1179.88 212.719L1187.2 241.873C1188.04 245.2 1186.02 248.573 1182.69 249.409L1182.69 249.399Z" fill="#041F49"/>
<path d="M790.588 304.373L840.624 291.805C850.894 289.225 861.321 295.473 863.898 305.734L864.899 309.72C867.479 319.991 861.231 330.418 850.97 332.995L800.934 345.563C797.607 346.399 794.234 344.38 793.398 341.053L786.075 311.899C785.24 308.572 787.259 305.199 790.585 304.363L790.588 304.373Z" fill="#041F49"/>
<path fill-rule="evenodd" clip-rule="evenodd" d="M1157.9 233.691C1158.24 235.03 1157.43 236.388 1156.09 236.725L812.659 322.975C811.32 323.311 809.962 322.498 809.625 321.159C809.289 319.82 810.102 318.462 811.441 318.125L1154.87 231.875C1156.21 231.539 1157.57 232.352 1157.9 233.691Z" fill="#362C62"/>
<path d="M873.85 304.88L874.92 307.56C876.05 310.39 879.08 311.97 882.04 311.27C885.55 310.45 887.61 306.79 886.49 303.36C885.79 301.22 887.05 298.93 889.23 298.38L894.62 297L880.28 296.04C875.54 295.72 872.1 300.46 873.86 304.87L873.85 304.88Z" fill="#FFA586"/>
<path d="M1051.73 260.4L1052.8 263.08C1053.93 265.91 1056.96 267.49 1059.92 266.79C1063.43 265.97 1065.49 262.31 1064.37 258.88C1063.67 256.74 1064.93 254.45 1067.11 253.9L1072.5 252.52L1058.16 251.56C1053.42 251.24 1049.98 255.98 1051.74 260.39L1051.73 260.4Z" fill="#FFA586"/>
<path d="M1261.1 307C1265.31 307 1268.72 306.467 1268.72 305.81C1268.72 305.153 1265.31 304.62 1261.1 304.62C1256.89 304.62 1253.48 305.153 1253.48 305.81C1253.48 306.467 1256.89 307 1261.1 307Z" fill="#F5B900"/>
<path d="M1261.95 304.67C1261.95 298.77 1256.84 294.06 1250.8 294.73C1246.21 295.24 1242.49 298.97 1241.99 303.56C1241.55 307.6 1243.52 311.2 1246.64 313.15V314.53L1203.62 296.19V313.89C1203.62 322.43 1210.55 329.36 1219.09 329.36H1251.03C1254.46 329.36 1257.24 326.58 1257.24 323.15V316.76C1257.24 314.83 1257.9 312.92 1259.23 311.51C1260.92 309.72 1261.95 307.32 1261.95 304.66V304.67Z" fill="#FF5F2F"/>
<path d="M1252.08 307.5C1253.82 307.5 1255.23 306.09 1255.23 304.35C1255.23 302.61 1253.82 301.2 1252.08 301.2C1250.34 301.2 1248.93 302.61 1248.93 304.35C1248.93 306.09 1250.34 307.5 1252.08 307.5Z" fill="#F5B900"/>
<path d="M1252.08 305.33C1252.62 305.33 1253.06 304.891 1253.06 304.35C1253.06 303.809 1252.62 303.37 1252.08 303.37C1251.54 303.37 1251.1 303.809 1251.1 304.35C1251.1 304.891 1251.54 305.33 1252.08 305.33Z" fill="#1E1E1D"/>
<path d="M1206.89 306.51C1206.89 306.51 1217.85 330.2 1240.7 323.51L1206.89 306.51Z" fill="#1E1E1D"/>
<path d="M676 350.69C680.208 350.69 683.62 350.157 683.62 349.5C683.62 348.843 680.208 348.31 676 348.31C671.791 348.31 668.38 348.843 668.38 349.5C668.38 350.157 671.791 350.69 676 350.69Z" fill="#F5B900"/>
<path d="M676.85 348.36C676.85 342.46 671.74 337.75 665.7 338.42C661.11 338.93 657.39 342.66 656.89 347.25C656.45 351.29 658.42 354.89 661.54 356.84V358.22L618.52 339.88V357.58C618.52 366.12 625.45 373.05 633.99 373.05H665.93C669.36 373.05 672.14 370.27 672.14 366.84V360.45C672.14 358.52 672.8 356.61 674.13 355.2C675.82 353.41 676.85 351.01 676.85 348.35V348.36Z" fill="#307BF2"/>
<path d="M666.98 351.19C668.72 351.19 670.13 349.78 670.13 348.04C670.13 346.3 668.72 344.89 666.98 344.89C665.24 344.89 663.83 346.3 663.83 348.04C663.83 349.78 665.24 351.19 666.98 351.19Z" fill="#F5B900"/>
<path d="M666.98 349.02C667.521 349.02 667.96 348.581 667.96 348.04C667.96 347.499 667.521 347.06 666.98 347.06C666.439 347.06 666 347.499 666 348.04C666 348.581 666.439 349.02 666.98 349.02Z" fill="#1E1E1D"/>
<path d="M621.79 350.2C621.79 350.2 632.75 373.89 655.6 367.2L621.79 350.2Z" fill="#362C62"/>
<path d="M741.09 292.12C745.298 292.12 748.71 291.587 748.71 290.93C748.71 290.273 745.298 289.74 741.09 289.74C736.881 289.74 733.47 290.273 733.47 290.93C733.47 291.587 736.881 292.12 741.09 292.12Z" fill="#F5B900"/>
<path d="M741.94 289.79C741.94 283.89 736.83 279.18 730.79 279.85C726.2 280.36 722.48 284.09 721.98 288.68C721.54 292.72 723.51 296.32 726.63 298.27V299.65L683.61 281.31V299.01C683.61 307.55 690.54 314.48 699.08 314.48H731.02C734.45 314.48 737.23 311.7 737.23 308.27V301.88C737.23 299.95 737.89 298.04 739.22 296.63C740.91 294.84 741.94 292.44 741.94 289.78V289.79Z" fill="#FCD632"/>
<path d="M732.08 292.62C733.82 292.62 735.23 291.21 735.23 289.47C735.23 287.73 733.82 286.32 732.08 286.32C730.34 286.32 728.93 287.73 728.93 289.47C728.93 291.21 730.34 292.62 732.08 292.62Z" fill="#F5B900"/>
<path d="M732.08 290.45C732.621 290.45 733.06 290.011 733.06 289.47C733.06 288.929 732.621 288.49 732.08 288.49C731.539 288.49 731.1 288.929 731.1 289.47C731.1 290.011 731.539 290.45 732.08 290.45Z" fill="#1E1E1D"/>
<path d="M686.89 291.63C686.89 291.63 697.85 315.32 720.7 308.63L686.89 291.63Z" fill="#1E1E1D"/>
<path d="M482.84 327.82C487.048 327.82 490.46 327.287 490.46 326.63C490.46 325.973 487.048 325.44 482.84 325.44C478.632 325.44 475.22 325.973 475.22 326.63C475.22 327.287 478.632 327.82 482.84 327.82Z" fill="#F5B900"/>
<path d="M483.69 325.49C483.69 319.59 478.58 314.88 472.54 315.55C467.95 316.06 464.23 319.79 463.73 324.38C463.29 328.42 465.26 332.02 468.38 333.97V335.35L425.36 317.01V334.71C425.36 343.25 432.29 350.18 440.83 350.18H472.77C476.2 350.18 478.98 347.4 478.98 343.97V337.58C478.98 335.65 479.64 333.74 480.97 332.33C482.66 330.54 483.69 328.14 483.69 325.48V325.49Z" fill="#763B00"/>
<path d="M473.83 328.32C475.57 328.32 476.98 326.91 476.98 325.17C476.98 323.43 475.57 322.02 473.83 322.02C472.09 322.02 470.68 323.43 470.68 325.17C470.68 326.91 472.09 328.32 473.83 328.32Z" fill="#F5B900"/>
<path d="M473.83 326.15C474.371 326.15 474.81 325.711 474.81 325.17C474.81 324.629 474.371 324.19 473.83 324.19C473.289 324.19 472.85 324.629 472.85 325.17C472.85 325.711 473.289 326.15 473.83 326.15Z" fill="#1E1E1D"/>
<path d="M428.64 327.34C428.64 327.34 439.6 351.03 462.45 344.34L428.64 327.34Z" fill="#1E1E1D"/>
<path fill-rule="evenodd" clip-rule="evenodd" d="M1341.16 374.77H605.31V372.77H1341.16V374.77Z" fill="#362C62"/>
<path d="M961.04 214.55L957.33 218C956.98 218.33 957.21 218.92 957.69 218.92H961.04V214.56V214.55Z" fill="#FF7C54"/>
<path d="M962.61 216.2C962.936 216.2 963.2 215.936 963.2 215.61C963.2 215.284 962.936 215.02 962.61 215.02C962.284 215.02 962.02 215.284 962.02 215.61C962.02 215.936 962.284 216.2 962.61 216.2Z" fill="#1F1E2C"/>
<path d="M962.91 219.67C962.91 219.67 961.01 222.48 958.3 220.51C958.3 220.51 959.87 218.46 962.91 219.67Z" fill="#FF7C54"/>
<path d="M962.91 219.67L958.3 220.51C958.3 220.51 959.87 218.46 962.91 219.67Z" fill="#FF6338"/>
<path d="M932.74 329.36L1018.84 316.83H928.4L932.74 329.36Z" fill="#362C62"/>
<path fill-rule="evenodd" clip-rule="evenodd" d="M1252.08 360.7H846.89V358.7H1252.08V360.7Z" fill="#A2CAA2"/>
</g>
</g>
<defs>
<clipPath id="clip0_1528_86758">
<rect width="1335" height="464" fill="white"/>
</clipPath>
</defs>
</svg>
