<svg width="1335" height="464" viewBox="0 0 1335 464" fill="none" xmlns="http://www.w3.org/2000/svg">
<g clip-path="url(#clip0_1528_83332)">
<mask id="mask0_1528_83332" style="mask-type:luminance" maskUnits="userSpaceOnUse" x="0" y="0" width="1335" height="465">
<path d="M1335 0H0V464.594H1335V0Z" fill="white"/>
</mask>
<g mask="url(#mask0_1528_83332)">
<path d="M1335 0H0V464.594H1335V0Z" fill="#FCECCA"/>
<path d="M1406.24 -53.0515C1412.41 -37.8325 1389.8 -16.1231 1390.91 -0.582275C1392.06 15.5247 1417.35 33.8444 1413.53 49.188C1409.68 64.685 1378.68 69.0473 1370.25 82.608C1361.9 96.0344 1371.71 125.804 1359.35 136.197C1347.43 146.226 1319.9 131.586 1304.68 137.759C1289.46 143.931 1279.9 173.613 1264.36 174.723C1248.25 175.874 1234.56 147.68 1219.21 143.863C1203.72 140.008 1178.44 158.467 1164.88 150.033C1151.45 141.683 1156.84 110.923 1146.44 98.5647C1136.42 86.6405 1105.07 86.8156 1098.9 71.5965C1092.72 56.3774 1115.34 34.6681 1114.23 19.1273C1113.08 3.02032 1087.79 -15.2994 1091.6 -30.643C1095.46 -46.14 1126.45 -50.5023 1134.89 -64.063C1143.24 -77.4894 1133.42 -107.259 1145.78 -117.652C1157.71 -127.681 1185.24 -113.041 1200.46 -119.214C1215.68 -125.386 1225.24 -155.068 1240.78 -156.178C1256.88 -157.329 1270.58 -129.135 1285.92 -125.318C1301.42 -121.463 1326.7 -139.922 1340.26 -131.488C1353.68 -123.138 1348.3 -92.3782 1358.69 -80.0197C1368.72 -68.0955 1400.07 -68.2706 1406.24 -53.0515Z" fill="#FDE1B0"/>
<path d="M727.945 -36.5892C701.082 -36.5892 674.952 -22.6468 660.556 2.28907L614.126 82.7071C592.662 119.885 605.4 167.424 642.578 188.889C654.82 195.957 668.182 199.315 681.37 199.315C708.233 199.315 734.363 185.373 748.759 160.437L795.189 80.0193C816.653 42.8414 803.915 -4.69763 766.737 -26.1622C754.495 -33.2302 741.133 -36.5892 727.945 -36.5892Z" fill="#FDE7C0"/>
<path d="M1309.99 304.94C1283.13 304.94 1257 318.882 1242.6 343.818L1196.17 424.236C1174.71 461.414 1187.44 508.953 1224.62 530.418C1236.86 537.486 1250.23 540.845 1263.41 540.845C1290.28 540.845 1316.41 526.902 1330.8 501.966L1377.23 421.548C1398.7 384.371 1385.96 336.832 1348.78 315.367C1336.54 308.299 1323.18 304.94 1309.99 304.94Z" fill="#FDE7C0"/>
<path d="M972.982 464.352C990.608 525.257 776.339 596.926 599.374 624.428C422.41 651.93 249.378 561.239 212.897 421.863C176.416 282.488 305.586 210.82 501.405 261.788C697.225 312.756 955.356 403.447 972.982 464.352Z" fill="#FDE1B0"/>
<path d="M1109.14 325.022L698.007 227.845C689.508 225.836 680.989 231.098 678.98 239.598L645.111 382.89C643.102 391.39 648.364 399.909 656.864 401.918L1068 499.094C1076.5 501.103 1085.02 495.841 1087.03 487.342L1120.9 344.05C1122.91 335.55 1117.64 327.031 1109.14 325.022Z" fill="#B5BB61"/>
<path d="M1079.7 415.036L1065.78 473.946L1060.27 497.266L664.6 403.746L682.63 327.426L684.03 321.516L1079.7 415.036Z" fill="#FDF6E9"/>
<path d="M1079.7 415.036L1065.78 473.946L682.63 327.426L684.03 321.516L1079.7 415.036Z" fill="#FCECCA"/>
<path d="M671.449 317.514L670.989 319.46L1092.29 419.038L1092.75 417.092L671.449 317.514Z" fill="#717820"/>
<path d="M698.277 324.882L678.39 409.032L680.337 409.492L700.224 325.342L698.277 324.882Z" fill="#717820"/>
<path d="M717.5 329.426L697.613 413.576L699.559 414.036L719.446 329.886L717.5 329.426Z" fill="#717820"/>
<path d="M736.723 333.969L716.836 418.119L718.782 418.579L738.669 334.429L736.723 333.969Z" fill="#717820"/>
<path d="M755.946 338.513L736.059 422.663L738.005 423.123L757.892 338.973L755.946 338.513Z" fill="#717820"/>
<path d="M775.168 343.056L755.281 427.206L757.228 427.666L777.115 343.516L775.168 343.056Z" fill="#717820"/>
<path d="M794.391 347.6L774.504 431.75L776.45 432.21L796.337 348.06L794.391 347.6Z" fill="#717820"/>
<path d="M813.614 352.143L793.727 436.293L795.673 436.753L815.56 352.603L813.614 352.143Z" fill="#717820"/>
<path d="M832.836 356.687L812.949 440.837L814.896 441.297L834.783 357.146L832.836 356.687Z" fill="#717820"/>
<path d="M852.059 361.23L832.172 445.38L834.118 445.84L854.005 361.69L852.059 361.23Z" fill="#717820"/>
<path d="M871.282 365.774L851.395 449.924L853.341 450.384L873.228 366.234L871.282 365.774Z" fill="#717820"/>
<path d="M890.505 370.317L870.618 454.467L872.564 454.927L892.451 370.777L890.505 370.317Z" fill="#717820"/>
<path d="M909.728 374.86L889.841 459.011L891.787 459.471L911.674 375.32L909.728 374.86Z" fill="#717820"/>
<path d="M928.95 379.404L909.063 463.554L911.01 464.014L930.897 379.864L928.95 379.404Z" fill="#717820"/>
<path d="M948.173 383.948L928.286 468.098L930.232 468.558L950.119 384.408L948.173 383.948Z" fill="#717820"/>
<path d="M967.396 388.491L947.509 472.641L949.455 473.101L969.342 388.951L967.396 388.491Z" fill="#717820"/>
<path d="M986.618 393.035L966.731 477.185L968.678 477.645L988.564 393.495L986.618 393.035Z" fill="#717820"/>
<path d="M1005.84 397.578L985.954 481.728L987.9 482.188L1007.79 398.038L1005.84 397.578Z" fill="#717820"/>
<path d="M1025.06 402.122L1005.18 486.272L1007.12 486.732L1027.01 402.582L1025.06 402.122Z" fill="#717820"/>
<path d="M1044.29 406.665L1024.4 490.815L1026.35 491.275L1046.23 407.125L1044.29 406.665Z" fill="#717820"/>
<path d="M1063.51 411.209L1043.62 495.359L1045.57 495.819L1065.46 411.669L1063.51 411.209Z" fill="#717820"/>
<path d="M894.002 364.219L778.443 336.906L783.203 316.768L689.37 294.59L700.519 247.422L909.91 296.914L894.002 364.219ZM780.849 335.419L892.516 361.813L907.504 298.401L702.005 249.828L691.777 293.104L785.609 315.282L780.849 335.419Z" fill="#717820"/>
<path d="M704.488 326.35L694.015 323.875L682.657 371.931L693.13 374.407L704.488 326.35Z" fill="#382C65"/>
<path d="M723.711 330.894L713.238 328.418L701.879 376.475L712.352 378.95L723.711 330.894Z" fill="#382C65"/>
<path d="M762.157 339.981L751.683 337.505L740.325 385.562L750.798 388.037L762.157 339.981Z" fill="#382C65"/>
<path d="M781.379 344.524L770.906 342.049L759.547 390.105L770.02 392.581L781.379 344.524Z" fill="#382C65"/>
<path d="M800.602 349.067L790.129 346.592L778.77 394.649L789.243 397.124L800.602 349.067Z" fill="#382C65"/>
<path d="M839.047 358.155L828.574 355.679L817.216 403.736L827.689 406.211L839.047 358.155Z" fill="#382C65"/>
<path d="M858.27 362.698L847.797 360.222L836.438 408.279L846.912 410.755L858.27 362.698Z" fill="#382C65"/>
<path d="M896.716 371.785L886.243 369.309L874.884 417.366L885.357 419.842L896.716 371.785Z" fill="#382C65"/>
<path d="M915.938 376.328L905.465 373.853L894.106 421.91L904.58 424.385L915.938 376.328Z" fill="#382C65"/>
<path d="M935.161 380.872L924.688 378.396L913.329 426.453L923.802 428.929L935.161 380.872Z" fill="#382C65"/>
<path d="M973.607 389.959L963.133 387.484L951.775 435.54L962.248 438.016L973.607 389.959Z" fill="#382C65"/>
<path d="M992.829 394.502L982.356 392.027L970.997 440.084L981.471 442.559L992.829 394.502Z" fill="#382C65"/>
<path d="M1031.27 403.589L1020.8 401.114L1009.44 449.171L1019.92 451.646L1031.27 403.589Z" fill="#382C65"/>
<path d="M1050.5 408.133L1040.02 405.657L1028.67 453.714L1039.14 456.19L1050.5 408.133Z" fill="#382C65"/>
<path d="M1069.72 412.676L1059.25 410.201L1047.89 458.258L1058.36 460.733L1069.72 412.676Z" fill="#382C65"/>
<path d="M1065.18 402.573C1086.82 402.573 1104.36 385.033 1104.36 363.397C1104.36 341.761 1086.82 324.222 1065.18 324.222C1043.55 324.222 1026.01 341.761 1026.01 363.397C1026.01 385.033 1043.55 402.573 1065.18 402.573Z" fill="#FDE1B0"/>
<path d="M1018.13 380.003L1017.67 381.949L1099.37 401.26L1099.83 399.314L1018.13 380.003Z" fill="#717820"/>
<path d="M1021.34 366.386L1020.88 368.332L1102.59 387.643L1103.05 385.697L1021.34 366.386Z" fill="#717820"/>
<path d="M1024.56 352.769L1024.1 354.715L1105.8 374.026L1106.26 372.08L1024.56 352.769Z" fill="#717820"/>
<path d="M1027.78 339.152L1027.32 341.098L1109.02 360.409L1109.48 358.463L1027.78 339.152Z" fill="#717820"/>
<path d="M1031 325.535L1030.54 327.482L1112.24 346.793L1112.7 344.846L1031 325.535Z" fill="#717820"/>
<path d="M1101.1 328.753L1081.79 410.455L1083.74 410.915L1103.04 329.213L1101.1 328.753Z" fill="#717820"/>
<path d="M1087.48 325.535L1068.17 407.237L1070.12 407.697L1089.43 325.995L1087.48 325.535Z" fill="#717820"/>
<path d="M1073.86 322.316L1054.56 404.018L1056.5 404.478L1075.81 322.776L1073.86 322.316Z" fill="#717820"/>
<path d="M1060.25 319.098L1040.94 400.8L1042.89 401.26L1062.19 319.558L1060.25 319.098Z" fill="#717820"/>
<path d="M1046.63 315.879L1027.32 397.581L1029.27 398.041L1048.58 316.339L1046.63 315.879Z" fill="#717820"/>
<path d="M766.673 271.071L718.84 259.765C711.922 258.13 704.988 262.413 703.353 269.331L703.353 269.331C701.718 276.249 706 283.183 712.919 284.818L760.752 296.124C767.67 297.759 774.604 293.477 776.239 286.558L776.239 286.558C777.874 279.64 773.592 272.706 766.673 271.071Z" fill="#433899"/>
<path d="M802.281 279.487L802.281 279.487C797.448 278.345 792.605 281.336 791.463 286.168L789.677 293.723C788.535 298.555 791.527 303.398 796.359 304.54L796.359 304.54C801.191 305.682 806.034 302.691 807.177 297.859L808.962 290.304C810.104 285.472 807.113 280.629 802.281 279.487Z" fill="#717820"/>
<path d="M830.253 286.099L830.253 286.099C825.421 284.957 820.577 287.948 819.435 292.78L817.65 300.335C816.508 305.167 819.499 310.01 824.331 311.152L824.331 311.152C829.163 312.294 834.007 309.303 835.149 304.471L836.934 296.916C838.077 292.084 835.085 287.241 830.253 286.099Z" fill="#FDCB5C"/>
<path d="M858.225 292.71L858.225 292.71C853.393 291.568 848.55 294.559 847.408 299.392L845.622 306.946C844.48 311.778 847.471 316.621 852.303 317.764L852.304 317.764C857.136 318.906 861.979 315.914 863.121 311.082L864.907 303.528C866.049 298.695 863.057 293.852 858.225 292.71Z" fill="#717820"/>
<path d="M886.198 299.321L886.198 299.321C881.365 298.179 876.522 301.171 875.38 306.003L873.595 313.557C872.452 318.389 875.444 323.233 880.276 324.375L880.276 324.375C885.108 325.517 889.952 322.525 891.094 317.693L892.879 310.139C894.021 305.307 891.03 300.464 886.198 299.321Z" fill="#382C65"/>
<path d="M701.731 316.941C706.049 316.941 709.549 313.44 709.549 309.122C709.549 304.804 706.049 301.304 701.731 301.304C697.412 301.304 693.912 304.804 693.912 309.122C693.912 313.44 697.412 316.941 701.731 316.941Z" fill="#FDF6E9"/>
<path d="M723.326 322.045C727.644 322.045 731.144 318.545 731.144 314.227C731.144 309.908 727.644 306.408 723.326 306.408C719.007 306.408 715.507 309.908 715.507 314.227C715.507 318.545 719.007 322.045 723.326 322.045Z" fill="#FCECCA"/>
<path d="M744.921 327.15C749.239 327.15 752.74 323.649 752.74 319.331C752.74 315.013 749.239 311.512 744.921 311.512C740.603 311.512 737.102 315.013 737.102 319.331C737.102 323.649 740.603 327.15 744.921 327.15Z" fill="#FD7BAC"/>
<path d="M766.516 332.254C770.834 332.254 774.335 328.753 774.335 324.435C774.335 320.117 770.834 316.616 766.516 316.616C762.198 316.616 758.697 320.117 758.697 324.435C758.697 328.753 762.198 332.254 766.516 332.254Z" fill="#FDE1B0"/>
<path d="M980.362 314.594L922.694 300.963L920.03 312.234L977.698 325.864L980.362 314.594Z" fill="#717820"/>
<path d="M975.257 336.192L917.589 322.561L914.925 333.832L972.593 347.463L975.257 336.192Z" fill="#717820"/>
<path d="M970.152 357.79L912.484 344.16L909.82 355.43L967.488 369.061L970.152 357.79Z" fill="#717820"/>
<path d="M696.233 163.573C697.233 161.549 698.579 159.714 700.21 158.153L712.889 146.018L712.382 135.347L701.931 137.562L693.406 152.903C692.31 154.876 690.876 156.643 689.172 158.124L682.744 163.706C680.765 165.425 679.155 167.528 678.011 169.887L674.707 176.702C673.745 178.687 674.306 181.075 676.053 182.423C677.799 183.771 680.252 183.709 681.928 182.275L687.683 177.351C689.675 175.647 691.301 173.556 692.462 171.205L696.233 163.573Z" fill="#FDF6E9"/>
<path d="M742.34 132.986C738.23 138.306 732.18 141.256 725.96 141.616C721.24 141.876 716.73 143.426 712.91 146.026C710.96 144.856 709.04 143.546 707.17 142.096C705.31 140.656 703.56 139.136 701.93 137.566C703.49 133.236 703.87 128.526 702.91 123.946C701.62 117.766 702.95 111.076 707.13 105.696C714.6 96.116 728.51 94.296 738.18 101.646C739.43 102.596 740.56 103.656 741.54 104.806C748.35 112.656 748.92 124.446 742.34 132.986Z" fill="#FDABCB"/>
<path d="M683.764 100.574C682.767 98.5479 682.132 96.3634 681.886 94.1188L679.979 76.6722L671.206 70.5774L666.599 80.2161L673.579 96.3192C674.477 98.391 675.006 100.604 675.142 102.857L675.657 111.355C675.816 113.972 676.503 116.529 677.678 118.873L681.073 125.644C682.062 127.616 684.298 128.624 686.431 128.059C688.563 127.494 690.007 125.511 689.89 123.308L689.488 115.745C689.349 113.127 688.681 110.564 687.523 108.212L683.764 100.574Z" fill="#FDF6E9"/>
<path d="M684.44 63.626C681.78 67.526 680.27 72.046 680 76.666C677.88 77.496 675.67 78.216 673.39 78.816C671.11 79.426 668.84 79.886 666.6 80.216C664.12 76.346 660.61 73.186 656.39 71.146C653.11 69.566 650.24 67.206 648.06 64.216C646.45 62.016 645.22 59.486 644.49 56.686C641.43 44.936 648.46 32.786 660.18 29.596C672.12 26.346 684.41 33.436 687.57 45.376C689.29 51.876 687.95 58.466 684.44 63.626Z" fill="#F46441"/>
<path d="M1350.83 227.971L1372.2 311.961C1378.07 334.989 1338.03 365.049 1282.78 379.112C1227.52 393.175 1177.97 385.919 1172.11 362.891L1150.73 278.901L1350.83 227.971Z" fill="#FDCB5C"/>
<path d="M1361.03 268.068L1372.2 311.961C1378.07 334.989 1338.03 365.049 1282.78 379.112C1227.52 393.175 1177.97 385.919 1172.11 362.891L1162.2 323.937L1243.35 357.329C1254.75 362.012 1267.36 362.906 1279.3 359.867C1283.56 358.781 1287.67 357.222 1291.55 355.209C1295.43 353.197 1299.08 350.74 1302.42 347.875C1319.3 333.359 1350.69 302.744 1361.03 268.068Z" fill="#FDBF32"/>
<path d="M1369.62 301.792L1372.2 311.962C1378.07 334.989 1338.03 365.049 1282.78 379.112L1278.9 363.88C1306.67 356.81 1331.52 345.738 1348.88 332.711C1363.69 321.582 1371.3 310.057 1369.22 301.892L1369.62 301.792Z" fill="#FCA620"/>
<path d="M1278.9 363.88L1282.78 379.112C1227.52 393.175 1177.97 385.919 1172.11 362.891L1169.52 352.721L1169.93 352.619C1172.01 360.784 1184.19 367.271 1202.53 369.96C1223.99 373.109 1251.12 370.95 1278.9 363.88Z" fill="#FCA620"/>
<path d="M1261.39 295.12C1316.65 281.057 1356.69 250.992 1350.83 227.968C1344.97 204.945 1295.42 197.681 1240.17 211.745C1184.92 225.808 1144.88 255.873 1150.74 278.897C1156.6 301.92 1206.14 309.184 1261.39 295.12Z" fill="#FDF6E9"/>
<path d="M1255.1 270.415C1277.61 264.686 1293.93 252.438 1291.54 243.059C1289.15 233.679 1268.97 230.72 1246.46 236.449C1223.95 242.179 1207.64 254.427 1210.03 263.806C1212.41 273.185 1232.6 276.144 1255.1 270.415Z" fill="#FCECCA"/>
<path d="M1349.86 228.214C1347.13 217.496 1334.35 209.939 1313.87 206.938C1293.1 203.891 1267.02 205.942 1240.42 212.713L1239.92 210.774C1266.77 203.942 1293.14 201.876 1314.17 204.959C1335.49 208.085 1348.85 216.169 1351.79 227.721L1349.86 228.214Z" fill="#FDE1B0"/>
<path d="M1149.77 279.143C1146.83 267.591 1154.7 254.102 1171.94 241.16C1188.93 228.4 1213.08 217.608 1239.92 210.775L1240.42 212.713C1213.82 219.483 1189.93 230.154 1173.14 242.76C1156.59 255.185 1148.98 267.931 1151.71 278.65L1149.77 279.143Z" fill="#FDE1B0"/>
<path d="M1207.83 303.3C1200.62 303.3 1193.77 302.839 1187.4 301.905C1166.07 298.779 1152.71 290.695 1149.77 279.143L1151.71 278.65C1154.44 289.368 1167.21 296.925 1187.69 299.926C1208.46 302.971 1234.55 300.921 1261.15 294.151L1261.64 296.089C1242.92 300.853 1224.44 303.3 1207.83 303.3Z" fill="#FCA620"/>
<path d="M1261.64 296.089L1261.15 294.151C1287.74 287.381 1311.64 276.71 1328.43 264.104C1344.97 251.679 1352.58 238.933 1349.86 228.214L1351.79 227.721C1354.73 239.273 1346.86 252.762 1329.63 265.703C1312.63 278.464 1288.49 289.256 1261.64 296.089Z" fill="#FCA620"/>
<path d="M1162.04 287.637L1160.1 288.13L1183.93 381.753L1185.87 381.259L1162.04 287.637Z" fill="#717820"/>
<path d="M1194.04 296.636L1192.1 297.13L1215.93 390.753L1217.87 390.259L1194.04 296.636Z" fill="#717820"/>
<path d="M1228.03 295.075L1226.09 295.569L1249.92 389.191L1251.86 388.698L1228.03 295.075Z" fill="#717820"/>
<path d="M1323.21 263.758L1321.27 264.251L1345.1 357.874L1347.04 357.38L1323.21 263.758Z" fill="#717820"/>
<path d="M1292.62 278.636L1290.68 279.129L1314.51 372.752L1316.45 372.258L1292.62 278.636Z" fill="#717820"/>
<path d="M1260.32 286.856L1258.38 287.35L1282.21 380.972L1284.15 380.479L1260.32 286.856Z" fill="#717820"/>
<path d="M1161.31 291.42C1162.74 291.42 1163.91 290.257 1163.91 288.823C1163.91 287.388 1162.74 286.225 1161.31 286.225C1159.87 286.225 1158.71 287.388 1158.71 288.823C1158.71 290.257 1159.87 291.42 1161.31 291.42Z" fill="#FCA620"/>
<path d="M1193.07 299.481C1194.51 299.481 1195.67 298.318 1195.67 296.883C1195.67 295.449 1194.51 294.286 1193.07 294.286C1191.64 294.286 1190.48 295.449 1190.48 296.883C1190.48 298.318 1191.64 299.481 1193.07 299.481Z" fill="#FCA620"/>
<path d="M1227.06 297.921C1228.49 297.921 1229.66 296.758 1229.66 295.323C1229.66 293.888 1228.49 292.725 1227.06 292.725C1225.62 292.725 1224.46 293.888 1224.46 295.323C1224.46 296.758 1225.62 297.921 1227.06 297.921Z" fill="#FCA620"/>
<path d="M1260 292.218C1261.43 292.218 1262.59 291.055 1262.59 289.62C1262.59 288.186 1261.43 287.022 1260 287.022C1258.56 287.022 1257.4 288.186 1257.4 289.62C1257.4 291.055 1258.56 292.218 1260 292.218Z" fill="#FCA620"/>
<path d="M1291.65 281.481C1293.08 281.481 1294.24 280.318 1294.24 278.883C1294.24 277.449 1293.08 276.286 1291.65 276.286C1290.21 276.286 1289.05 277.449 1289.05 278.883C1289.05 280.318 1290.21 281.481 1291.65 281.481Z" fill="#FCA620"/>
<path d="M1322.24 266.603C1323.68 266.603 1324.84 265.44 1324.84 264.005C1324.84 262.571 1323.68 261.408 1322.24 261.408C1320.81 261.408 1319.65 262.571 1319.65 264.005C1319.65 265.44 1320.81 266.603 1322.24 266.603Z" fill="#FCA620"/>
<path d="M1184.83 383.827C1186.26 383.827 1187.43 382.664 1187.43 381.229C1187.43 379.794 1186.26 378.631 1184.83 378.631C1183.39 378.631 1182.23 379.794 1182.23 381.229C1182.23 382.664 1183.39 383.827 1184.83 383.827Z" fill="#FCA620"/>
<path d="M1216.59 391.887C1218.03 391.887 1219.19 390.724 1219.19 389.289C1219.19 387.855 1218.03 386.692 1216.59 386.692C1215.16 386.692 1214 387.855 1214 389.289C1214 390.724 1215.16 391.887 1216.59 391.887Z" fill="#FCA620"/>
<path d="M1250.58 390.327C1252.01 390.327 1253.18 389.164 1253.18 387.729C1253.18 386.295 1252.01 385.132 1250.58 385.132C1249.15 385.132 1247.98 386.295 1247.98 387.729C1247.98 389.164 1249.15 390.327 1250.58 390.327Z" fill="#FCA620"/>
<path d="M1283.52 384.624C1284.95 384.624 1286.11 383.461 1286.11 382.026C1286.11 380.592 1284.95 379.429 1283.52 379.429C1282.08 379.429 1280.92 380.592 1280.92 382.026C1280.92 383.461 1282.08 384.624 1283.52 384.624Z" fill="#FCA620"/>
<path d="M1315.17 373.887C1316.6 373.887 1317.77 372.724 1317.77 371.29C1317.77 369.855 1316.6 368.692 1315.17 368.692C1313.73 368.692 1312.57 369.855 1312.57 371.29C1312.57 372.724 1313.73 373.887 1315.17 373.887Z" fill="#FCA620"/>
<path d="M1212.79 238.81L1325.19 131.083C1328.65 127.91 1333.52 132.874 1330.16 136.27C1330.17 136.267 1216.93 243.154 1216.93 243.158C1214.06 245.763 1209.98 241.656 1212.79 238.81Z" fill="#433899"/>
<path d="M1245.12 233.766L1384.06 163.519C1388.31 161.51 1391.5 167.632 1387.3 169.931C1387.31 169.93 1247.81 239.128 1247.81 239.131C1244.3 240.786 1241.6 235.667 1245.12 233.766Z" fill="#433899"/>
<path d="M610.325 311.747C616.556 333.513 612.853 357.537 599.03 376.779C590.166 392.749 575.576 403.644 559.209 408.329C542.842 413.014 524.698 411.49 508.729 402.629C477.281 389.694 458.314 357.376 462.356 323.612L477.072 200.686C477.909 193.69 478.286 186.661 478.203 179.645C478.04 165.264 475.954 150.94 471.978 137.053L435.159 8.43536L452.86 3.36816L489.679 131.986C493.654 145.873 499.463 159.132 506.935 171.42C510.577 177.417 514.616 183.182 519.029 188.675L596.564 285.193C603.019 293.232 607.614 302.276 610.325 311.747Z" fill="#EB5E3A"/>
<path d="M439.77 31.6826L489.189 8.63346C491.695 7.46456 494.675 8.54866 495.843 11.055C497.012 13.5613 495.928 16.5407 493.422 17.7097C492.629 18.094 442.04 35.1568 441.287 35.461C438.869 36.2341 437.475 32.8137 439.77 31.6826Z" fill="#382C65"/>
<path d="M457.977 15.9037L404.766 27.8265C402.067 28.4312 399.389 26.7337 398.785 24.0351C398.18 21.3365 399.878 18.6587 402.576 18.054C403.433 17.8486 456.504 12.0237 457.304 11.8878C459.832 11.6508 460.46 15.2907 457.977 15.9037Z" fill="#382C65"/>
<path d="M469.699 36.2739L419.772 58.2023C417.24 59.3144 414.286 58.1633 413.174 55.6313C412.062 53.0993 413.213 50.1451 415.745 49.033C416.546 48.6667 467.508 32.7494 468.267 32.4623C470.702 31.7439 472.018 35.1947 469.699 36.2739Z" fill="#382C65"/>
<path d="M441.273 55.5109L489.164 29.4339C495.06 26.4494 499.676 34.8779 493.953 38.2294C493.185 38.6622 443.755 58.8372 443.022 59.1877C440.657 60.1096 439.053 56.7826 441.273 55.5109Z" fill="#382C65"/>
<path d="M529.937 236.775L493.27 247.271L494.921 253.04L531.588 242.543L529.937 236.775Z" fill="#942D1C"/>
<path d="M538.493 266.334L501.209 274.37L502.052 278.28L539.336 270.244L538.493 266.334Z" fill="#942D1C"/>
<path d="M536.04 258.07L499.337 268.442L500.425 272.292L537.128 261.92L536.04 258.07Z" fill="#942D1C"/>
<path d="M548.88 302.925L512.178 313.297L513.266 317.146L549.968 306.774L548.88 302.925Z" fill="#942D1C"/>
<path d="M541.732 278.309L505.499 290.22L506.748 294.019L542.981 282.109L541.732 278.309Z" fill="#942D1C"/>
<path d="M545.554 291.662L509.321 303.572L510.57 307.371L546.803 295.461L545.554 291.662Z" fill="#942D1C"/>
<path d="M512.518 201.917L489.775 209.963L491.109 213.733L513.852 205.687L512.518 201.917Z" fill="#942D1C"/>
<path d="M508.51 188.783L486.496 199.011L488.181 202.639L510.195 192.411L508.51 188.783Z" fill="#942D1C"/>
<path d="M507.035 181.785L483.391 186.647L484.197 190.565L507.84 185.703L507.035 181.785Z" fill="#942D1C"/>
<path d="M506.935 171.42L478.203 179.645C478.04 165.264 475.953 150.94 471.978 137.053L435.159 8.43536L452.86 3.36816L489.679 131.986C493.654 145.873 499.463 159.132 506.935 171.42Z" fill="#FDCB5C"/>
<path d="M442.685 8.41282L441.715 8.65662L531.339 365.179L532.309 364.935L442.685 8.41282Z" fill="#382C65"/>
<path d="M450.297 23.7426L449.331 24.0029L540.583 362.542L541.549 362.281L450.297 23.7426Z" fill="#382C65"/>
<path d="M454.706 32.9367L453.747 33.2188L549.829 359.907L550.788 359.625L454.706 32.9367Z" fill="#382C65"/>
<path d="M452.805 14.6361L451.851 14.9349L559.075 357.269L560.029 356.97L452.805 14.6361Z" fill="#382C65"/>
<path d="M451.336 0.599346C449.874 1.01795 448.349 0.171846 447.93 -1.29035L445.615 -9.38055C445.196 -10.8429 443.671 -11.6889 442.209 -11.2703L437.67 -9.97085C436.208 -9.55225 435.362 -8.02755 435.78 -6.56525L438.096 1.52495C438.515 2.98725 437.669 4.51195 436.206 4.93055C434.744 5.34915 433.898 6.87385 434.317 8.33615L448.718 58.6422C449.136 60.1045 450.661 60.9505 452.123 60.5319L454.96 59.7198L440.451 9.03555L449.907 6.32855L464.416 57.0128L467.253 56.2007C468.715 55.7821 469.561 54.2573 469.143 52.7951L454.742 2.48905C454.323 1.02675 452.798 0.180746 451.336 0.599346Z" fill="#AA3E28"/>
<path d="M564.608 357.766L563.104 352.512C562.639 350.888 560.946 349.949 559.323 350.414L528.469 359.246C526.846 359.711 525.907 361.403 526.371 363.027L527.875 368.281C528.34 369.904 527.401 371.597 525.778 372.062C524.154 372.526 523.215 374.219 523.68 375.843L524.1 377.31C524.564 378.934 526.257 379.873 527.881 379.408L570.492 367.21C572.115 366.745 573.054 365.053 572.589 363.429L572.169 361.962C571.705 360.338 570.012 359.399 568.388 359.864C566.765 360.328 565.072 359.389 564.608 357.766Z" fill="#AA3E28"/>
<path d="M531.824 367.561C533.206 367.561 534.327 366.44 534.327 365.057C534.327 363.675 533.206 362.554 531.824 362.554C530.441 362.554 529.32 363.675 529.32 365.057C529.32 366.44 530.441 367.561 531.824 367.561Z" fill="#382C65"/>
<path d="M541.066 364.915C542.449 364.915 543.57 363.794 543.57 362.412C543.57 361.029 542.449 359.908 541.066 359.908C539.684 359.908 538.563 361.029 538.563 362.412C538.563 363.794 539.684 364.915 541.066 364.915Z" fill="#382C65"/>
<path d="M550.309 362.269C551.692 362.269 552.812 361.148 552.812 359.766C552.812 358.383 551.692 357.262 550.309 357.262C548.926 357.262 547.806 358.383 547.806 359.766C547.806 361.148 548.926 362.269 550.309 362.269Z" fill="#382C65"/>
<path d="M559.552 359.623C560.934 359.623 562.055 358.502 562.055 357.12C562.055 355.737 560.934 354.616 559.552 354.616C558.169 354.616 557.048 355.737 557.048 357.12C557.048 358.502 558.169 359.623 559.552 359.623Z" fill="#382C65"/>
<path d="M561.157 360.891L525.503 371.103L526.054 373.026L561.708 362.814L561.157 360.891Z" fill="#942D1C"/>
<path d="M1032.27 197.657C1035.32 197.237 1038.23 195.986 1040.64 193.996C1042.76 192.254 1042.41 188.953 1040.05 187.558C1040.04 187.55 1040.02 187.541 1040.01 187.533C1026.7 179.632 1022.32 162.444 1030.22 149.141C1035.99 139.432 1046.7 134.476 1057.24 135.579C1059.04 135.767 1060.73 134.679 1061.33 132.973C1061.76 131.761 1062.45 130.652 1063.41 129.742L1064 129.191C1071.85 121.712 1077.99 111.871 1080.97 100.615C1089.72 67.5356 1069.41 33.61 1035.79 25.91C1003.77 18.5737 971.808 38.5513 963.408 70.3061C963.212 71.0426 962.92 71.7301 962.542 72.3663C962.261 72.8389 961.934 73.2807 961.568 73.6879C960.358 75.0301 960.13 77.0007 961.158 78.4864C967.202 87.2184 967.992 99.0238 962.214 108.752C954.314 122.054 937.126 126.434 923.823 118.534C923.808 118.525 923.793 118.516 923.778 118.507C921.426 117.104 918.358 118.373 917.842 121.063C917.253 124.125 917.544 127.267 918.623 130.134C919.034 131.246 918.753 132.494 917.89 133.309L917.871 133.327C909.102 141.67 902.263 152.647 898.944 165.197C898.647 166.312 898.383 167.431 898.148 168.553C892.049 197.379 905.383 226.222 929.78 240.711C935.059 243.846 940.847 246.306 947.074 247.955C954.321 249.874 961.601 250.536 968.697 250.082C996.969 248.282 1022.19 228.719 1029.83 199.816C1029.9 199.552 1030 199.301 1030.14 199.069C1030.59 198.314 1031.37 197.782 1032.27 197.657Z" fill="#EB5E3A"/>
<path d="M976.268 192.478L968.849 189.43C964.292 187.557 960.033 185.028 956.209 181.923L949.982 176.867C948.545 175.7 946.452 177.039 946.909 178.832L949.309 188.249C950.602 193.327 949.826 198.711 947.15 203.217L933.791 225.712L941.127 230.069L954.486 207.573C957.162 203.068 961.518 199.809 966.596 198.516L976.013 196.116C977.806 195.659 977.98 193.181 976.268 192.478Z" fill="#AA3E28"/>
<path d="M968.792 251.579L968.601 248.585C997.064 246.773 1021.09 227.02 1028.38 199.433L1031.28 200.199C1023.66 229.037 998.545 249.685 968.792 251.579Z" fill="#AA3E28"/>
<path d="M900.395 165.58L897.494 164.814C900.769 152.429 907.457 141.165 916.837 132.24L918.906 134.414C909.928 142.955 903.527 153.733 900.395 165.58Z" fill="#AA3E28"/>
<path d="M918.92 134.399L916.86 132.219C917.281 131.821 917.421 131.207 917.216 130.655L920.03 129.614C920.652 131.296 920.217 133.175 918.92 134.399Z" fill="#AA3E28"/>
<path d="M938.077 123.473C932.929 123.473 927.855 122.091 923.312 119.393L924.334 117.674C930.538 121.358 937.805 122.405 944.798 120.625C951.79 118.843 957.67 114.445 961.355 108.24L963.075 109.262C959.117 115.926 952.802 120.649 945.292 122.563C942.902 123.172 940.481 123.473 938.077 123.473Z" fill="#942D1C"/>
<path d="M963.075 109.262L961.355 108.24C966.736 99.1799 966.336 87.7238 960.336 79.0549L961.981 77.9172C968.424 87.2273 968.853 99.531 963.075 109.262Z" fill="#942D1C"/>
<path d="M1031.08 149.652L1029.36 148.631C1035.13 138.923 1046.12 133.41 1057.35 134.585L1057.14 136.574C1046.68 135.483 1036.45 140.613 1031.08 149.652Z" fill="#942D1C"/>
<path d="M1039.5 188.392C1032.83 184.435 1028.11 178.12 1026.2 170.61C1024.28 163.1 1025.41 155.294 1029.36 148.631L1031.08 149.652C1027.4 155.856 1026.35 163.124 1028.13 170.116C1029.92 177.108 1034.31 182.988 1040.52 186.673L1039.5 188.392Z" fill="#942D1C"/>
<path d="M1035.79 25.91C1003.77 18.5737 971.808 38.5513 963.408 70.3061Z" fill="#AA3E28"/>
<path d="M1080.97 100.615C1089.72 67.5356 1069.41 33.61 1035.79 25.91Z" fill="#AA3E28"/>
<path d="M1064.69 129.915L1063.31 128.467C1071.4 120.761 1077.17 111.041 1080 100.359L1081.93 100.871C1079.01 111.911 1073.05 121.954 1064.69 129.915Z" fill="#942D1C"/>
<path d="M977.644 69.8371L975.71 69.3254C979.079 56.5896 987.103 45.7692 998.305 38.8586C1009.56 31.9128 1022.79 29.6975 1035.56 32.6252L1035.11 34.5744C1022.86 31.7668 1010.16 33.8923 999.355 40.5607C988.592 47.2013 980.881 57.5983 977.644 69.8371Z" fill="#942D1C"/>
<path d="M1072.92 94.4015L1070.99 93.8898C1074.36 81.1476 1072.46 67.9162 1065.64 56.633C1058.83 45.3561 1047.99 37.5226 1035.11 34.5744L1035.56 32.6252C1048.97 35.695 1060.26 43.8537 1067.35 55.5988C1074.45 67.3498 1076.43 81.1305 1072.92 94.4015Z" fill="#942D1C"/>
<path d="M1058.89 118.03L1057.51 116.581C1064.05 110.36 1068.71 102.513 1070.99 93.89L1072.92 94.4017C1070.54 103.383 1065.69 111.553 1058.89 118.03Z" fill="#942D1C"/>
<path d="M969.185 254.705C967.652 257.288 965.214 259.002 962.52 259.694C959.823 260.376 956.862 260.037 954.28 258.503L927.065 242.341C900.077 226.313 885.326 194.407 892.073 162.52C908.561 163.204 938.002 170.047 938.917 210.049C939.116 218.856 943.761 226.956 951.33 231.451L965.387 239.799C969.908 242.484 971.776 247.926 970.114 252.707C969.878 253.39 969.568 254.061 969.185 254.705Z" fill="#382C65"/>
<path d="M983.219 108.454L1104.11 -75.2451L1123.88 -63.5009L1020.43 130.554L983.219 108.454Z" fill="#382C65"/>
<path d="M984.936 175.291L960.925 161.032C959.97 160.465 959.802 159.151 960.582 158.361L963.595 155.311C964.147 154.752 965.009 154.641 965.684 155.042L987.918 168.246C988.593 168.647 988.908 169.457 988.682 170.209L987.445 174.314C987.125 175.378 985.891 175.858 984.936 175.291Z" fill="#382C65"/>
<path d="M957.147 190.476L956.248 190.039L969.031 163.793C969.588 162.584 970.228 161.385 970.929 160.238L1111.08 -69.0232L1111.93 -68.5017L971.782 160.759C971.101 161.873 970.48 163.038 969.934 164.221L957.147 190.476Z" fill="#FDF6E9"/>
<path d="M961.311 193.045L960.496 192.465L977.425 168.682C978.209 167.628 978.934 166.525 979.587 165.394L1113.83 -67.3762L1114.69 -66.8762L980.453 165.894C979.781 167.058 979.034 168.194 978.233 169.27L961.311 193.045Z" fill="#FDF6E9"/>
<path d="M953.093 188.028L952.165 187.655L961.526 164.363C963.296 160.52 965.326 156.78 967.569 153.224L1108.63 -70.4851L1109.48 -69.9519L968.415 153.757C966.195 157.277 964.186 160.978 962.444 164.759L953.093 188.028Z" fill="#FDF6E9"/>
<path d="M965.864 195.79L965.092 195.154L981.065 175.788C983.534 172.471 985.823 168.936 987.852 165.301L1116.78 -65.614L1117.65 -65.1267L988.725 165.788C986.675 169.461 984.362 173.033 981.851 176.405L965.864 195.79Z" fill="#FDF6E9"/>
<path d="M952.632 189.665C953.638 189.665 954.454 188.849 954.454 187.843C954.454 186.837 953.638 186.021 952.632 186.021C951.626 186.021 950.81 186.837 950.81 187.843C950.81 188.849 951.626 189.665 952.632 189.665Z" fill="#382C65"/>
<path d="M956.734 192.101C957.74 192.101 958.556 191.285 958.556 190.279C958.556 189.273 957.74 188.457 956.734 188.457C955.727 188.457 954.911 189.273 954.911 190.279C954.911 191.285 955.727 192.101 956.734 192.101Z" fill="#382C65"/>
<path d="M960.937 194.597C961.943 194.597 962.759 193.781 962.759 192.775C962.759 191.769 961.943 190.953 960.937 190.953C959.93 190.953 959.114 191.769 959.114 192.775C959.114 193.781 959.93 194.597 960.937 194.597Z" fill="#382C65"/>
<path d="M965.262 197.166C966.268 197.166 967.084 196.35 967.084 195.344C967.084 194.337 966.268 193.522 965.262 193.522C964.256 193.522 963.44 194.337 963.44 195.344C963.44 196.35 964.256 197.166 965.262 197.166Z" fill="#382C65"/>
<path d="M1009.98 193.33L1003.54 194.97C1002.86 195.145 1002.41 194.768 1002.25 194.599C1002.09 194.429 1001.73 193.961 1001.94 193.288L1008.25 172.447C1009.12 169.569 1011.43 167.357 1014.34 166.615L1014.5 166.576L1013.88 164.145L1010.5 165.006L1016.29 145.876C1016.85 144.025 1016.23 142.048 1014.67 140.845C1013.36 139.835 1011.58 139.667 1010.03 140.263L1004.07 142.564L1005.87 147.245L1011.27 145.164L1006.22 161.817C1005.35 164.695 1003.04 166.907 1000.13 167.649L1000.75 170.08L1003.97 169.258L997.203 191.605C996.499 193.931 997.039 196.517 998.775 198.219C999.149 198.587 999.559 198.901 999.995 199.16C1001.42 200.003 1003.11 200.257 1004.78 199.832L1011.22 198.191L1009.98 193.33Z" fill="#942D1C"/>
<path d="M933.858 148.121L935.499 154.559C935.671 155.242 936.218 155.458 936.445 155.519C936.671 155.58 937.252 155.669 937.746 155.167L953.025 139.652C955.135 137.51 955.971 134.42 955.228 131.507L955.19 131.354L957.62 130.735L958.481 134.113L972.506 119.872C973.863 118.494 975.897 118.095 977.701 118.89C979.215 119.558 980.214 121.041 980.43 122.682L981.264 129.022L976.29 129.676L975.536 123.945L963.327 136.342C961.217 138.484 960.382 141.573 961.124 144.487L958.694 145.106L957.872 141.881L941.488 158.516C939.782 160.249 937.253 161.011 934.928 160.302C934.426 160.149 933.954 159.94 933.518 159.681C932.098 158.837 931.063 157.467 930.637 155.798L928.997 149.36L933.858 148.121Z" fill="#942D1C"/>
<path d="M1171.53 18.391L836.657 141.4L837.346 143.277L1172.22 20.268L1171.53 18.391Z" fill="#FCA620"/>
<path d="M1175.21 19.7529L1172.27 13.7144C1171.67 12.4835 1172.1 11.0027 1173.26 10.2742C1173.27 10.267 1173.29 10.2598 1173.3 10.2525C1174.65 9.40104 1175.25 7.66764 1174.56 6.22884C1173.74 4.53534 1171.66 3.97434 1170.12 4.95034C1111.46 42.0302 797.792 135.969 794.63 136.914C792.995 137.402 792.065 139.124 792.554 140.759C792.785 141.533 793.292 142.149 793.936 142.531C794.653 142.957 795.539 143.093 796.4 142.835C796.572 142.784 800.454 141.623 807.298 139.551L808.45 144.071C809.909 149.797 815.734 153.256 821.46 151.797L850.83 144.314C848.437 134.921 853.814 125.299 863.069 122.419C891.454 113.585 926.281 102.576 962.217 90.8067C1050.18 61.999 1112.42 39.3684 1148.04 23.2505C1149.36 22.6531 1150.91 23.2154 1151.54 24.5185L1154.19 29.9736L1175.21 19.7529Z" fill="#942D1C"/>
<path d="M742.34 132.986C738.23 138.306 732.18 141.256 725.96 141.616C721.24 141.876 716.73 143.426 712.91 146.026C710.96 144.856 709.04 143.546 707.17 142.096C705.31 140.656 703.56 139.136 701.93 137.566L705.45 136.916C722.66 133.736 736.47 121.236 741.54 104.806C748.35 112.656 748.92 124.446 742.34 132.986Z" fill="#FD7BAC"/>
<path d="M680 76.6661C677.88 77.4961 675.67 78.2161 673.39 78.8161C671.11 79.4261 668.84 79.8861 666.6 80.2161C664.12 76.3461 660.61 73.1861 656.39 71.1461C653.11 69.5661 650.24 67.2061 648.06 64.2161L680 76.6661Z" fill="#942D1C"/>
</g>
</g>
<defs>
<clipPath id="clip0_1528_83332">
<rect width="1335" height="464" fill="white"/>
</clipPath>
</defs>
</svg>
