<svg width="1335" height="464" viewBox="0 0 1335 464" fill="none" xmlns="http://www.w3.org/2000/svg">
<g clip-path="url(#clip0_1528_83613)">
<mask id="mask0_1528_83613" style="mask-type:luminance" maskUnits="userSpaceOnUse" x="0" y="0" width="1335" height="465">
<path d="M1335 0H0V464.071H1335V0Z" fill="white"/>
</mask>
<g mask="url(#mask0_1528_83613)">
<path d="M1335 0H0V464.071H1335V0Z" fill="#FCECCA"/>
<path d="M324.567 117.446L280.833 152.311C250.514 176.481 245.53 220.653 269.7 250.971L269.7 250.971C293.87 281.29 338.042 286.274 368.361 262.104L412.094 227.24C442.413 203.069 447.397 158.898 423.227 128.579C399.057 98.2606 354.885 93.2763 324.567 117.446Z" fill="#FDE0A7"/>
<path d="M1381.75 254.393L1104.91 153.361L1210.15 -90.5692L1426.51 -31.1344L1381.75 254.393Z" fill="#FDF6E9"/>
<path d="M381.337 593.666L378.716 332.068L614.288 343.231L632.559 541.576L381.337 593.666Z" fill="#FDF6E9"/>
<path d="M647.588 327.596L656.142 328.766C693.174 333.83 719.127 368.007 714.062 405.039L712.892 413.593C706.445 460.728 662.944 493.762 615.809 487.315C574.056 481.605 544.794 443.07 550.505 401.318C556.952 354.183 600.453 321.149 647.588 327.596Z" fill="#B5BB61"/>
<path d="M615.674 488.306C573.413 482.526 543.735 443.442 549.515 401.182L551.496 401.453C545.866 442.621 574.777 480.694 615.945 486.324L615.674 488.306Z" fill="#7D7901"/>
<path d="M579.528 371.38L594.793 366.43C611.958 360.864 630.414 370.282 635.98 387.447L640.93 402.712L625.665 407.662C608.499 413.228 590.044 403.811 584.478 386.645L579.528 371.38Z" fill="#719B5A"/>
<mask id="mask1_1528_83613" style="mask-type:luminance" maskUnits="userSpaceOnUse" x="619" y="395" width="25" height="25">
<path d="M643.493 409.534C643.522 409.529 643.55 409.525 643.579 409.52C644.026 409.45 644.109 408.843 643.698 408.656C643.671 408.644 643.644 408.631 643.618 408.619C640.53 407.206 639.513 403.333 641.509 400.586C641.526 400.562 641.543 400.539 641.56 400.515C641.826 400.149 641.456 399.661 641.032 399.82C641.005 399.83 640.978 399.84 640.95 399.85C637.768 401.035 634.31 399.015 633.778 395.661C633.773 395.633 633.769 395.604 633.764 395.575C633.694 395.128 633.087 395.045 632.9 395.457C632.888 395.483 632.875 395.51 632.863 395.536C631.45 398.624 627.577 399.641 624.83 397.646C624.806 397.629 624.783 397.611 624.759 397.594C624.394 397.328 623.905 397.698 624.064 398.122C624.074 398.149 624.084 398.177 624.094 398.204C625.279 401.387 623.259 404.844 619.906 405.376C619.877 405.381 619.848 405.385 619.819 405.39C619.372 405.46 619.289 406.067 619.701 406.255C619.727 406.267 619.754 406.279 619.78 406.291C622.868 407.704 623.885 411.577 621.89 414.324C621.873 414.348 621.855 414.372 621.838 414.395C621.572 414.761 621.942 415.249 622.366 415.09C622.393 415.08 622.421 415.07 622.448 415.06C625.631 413.875 629.088 415.895 629.62 419.249C629.625 419.278 629.629 419.306 629.634 419.335C629.704 419.782 630.311 419.865 630.499 419.454C630.511 419.427 630.523 419.4 630.535 419.374C631.948 416.286 635.821 415.269 638.568 417.265C638.592 417.282 638.616 417.299 638.639 417.316C639.005 417.582 639.493 417.212 639.334 416.788C639.324 416.761 639.314 416.734 639.304 416.706C638.12 413.524 640.139 410.066 643.493 409.534Z" fill="white"/>
</mask>
<g mask="url(#mask1_1528_83613)">
<path d="M643.493 409.534C643.522 409.529 643.55 409.525 643.579 409.52C644.026 409.45 644.109 408.843 643.698 408.656C643.671 408.644 643.644 408.631 643.618 408.619C640.53 407.206 639.513 403.333 641.509 400.586C641.526 400.562 641.543 400.539 641.56 400.515C641.826 400.149 641.456 399.661 641.032 399.82C641.005 399.83 640.978 399.84 640.95 399.85C637.768 401.035 634.31 399.015 633.778 395.661C633.773 395.633 633.769 395.604 633.764 395.575C633.694 395.128 633.087 395.045 632.9 395.457C632.888 395.483 632.875 395.51 632.863 395.536C631.45 398.624 627.577 399.641 624.83 397.646C624.806 397.629 624.783 397.611 624.759 397.594C624.394 397.328 623.905 397.698 624.064 398.122C624.074 398.149 624.084 398.177 624.094 398.204C625.279 401.387 623.259 404.844 619.906 405.376C619.877 405.381 619.848 405.385 619.819 405.39C619.372 405.46 619.289 406.067 619.701 406.255C619.727 406.267 619.754 406.279 619.78 406.291C622.868 407.704 623.885 411.577 621.89 414.324C621.873 414.348 621.855 414.372 621.838 414.395C621.572 414.761 621.942 415.249 622.366 415.09C622.393 415.08 622.421 415.07 622.448 415.06C625.631 413.875 629.088 415.895 629.62 419.249C629.625 419.278 629.629 419.306 629.634 419.335C629.704 419.782 630.311 419.865 630.499 419.454C630.511 419.427 630.523 419.4 630.535 419.374C631.948 416.286 635.821 415.269 638.568 417.265C638.592 417.282 638.616 417.299 638.639 417.316C639.005 417.582 639.493 417.212 639.334 416.788C639.324 416.761 639.314 416.734 639.304 416.706C638.12 413.524 640.139 410.066 643.493 409.534Z" fill="#7D7901"/>
<path d="M579.528 371.38L594.793 366.43C611.958 360.864 630.414 370.282 635.98 387.447L640.93 402.712L625.665 407.662C608.499 413.228 590.044 403.811 584.478 386.645L579.528 371.38Z" fill="#382C65"/>
</g>
<path d="M631.094 406.659L654.755 388.04L656.592 390.459L632.304 408.251L631.094 406.659Z" fill="#6D3C1D"/>
<path d="M617.956 359.326L628.12 360.716C639.549 362.279 647.559 372.827 645.996 384.256L644.605 394.42L634.442 393.03C623.013 391.466 615.003 380.918 616.566 369.489L617.956 359.326Z" fill="#717820"/>
<path d="M622.683 364.723L621.887 365.328L646.166 397.3L646.962 396.695L622.683 364.723Z" fill="#6D3C1D"/>
<mask id="mask2_1528_83613" style="mask-type:luminance" maskUnits="userSpaceOnUse" x="471" y="37" width="109" height="109">
<path d="M525.395 145.147C555.169 145.147 579.306 121.01 579.306 91.2363C579.306 61.4624 555.169 37.3259 525.395 37.3259C495.621 37.3259 471.485 61.4624 471.485 91.2363C471.485 121.01 495.621 145.147 525.395 145.147Z" fill="white"/>
</mask>
<g mask="url(#mask2_1528_83613)">
<path d="M525.395 145.147C555.169 145.147 579.306 121.01 579.306 91.2363C579.306 61.4624 555.169 37.3259 525.395 37.3259C495.621 37.3259 471.485 61.4624 471.485 91.2363C471.485 121.01 495.621 145.147 525.395 145.147Z" fill="#FD5817"/>
<path d="M552.928 26.4982L524.487 93.3298L526.238 91.8985C530.762 88.201 537.302 88.3398 541.665 92.2258L542.577 93.0373C545.617 95.7454 549.832 96.7087 553.747 95.5901C560.378 93.6956 567.1 98.291 567.741 105.157L570.016 129.532L593 82.9699L567.441 30.4639L552.928 26.4982Z" fill="#E34612"/>
</g>
<path d="M538.19 37.2927L550.533 32.4448L555.381 44.7876C560.441 57.6707 554.09 72.2385 541.207 77.2987L528.864 82.1466L524.016 69.8039C518.956 56.9207 525.307 42.3529 538.19 37.2927Z" fill="#B5BB61"/>
<path d="M534.076 88.9908C530.064 92.4357 528.708 94.7377 527.641 99.9169C524.196 95.905 521.894 94.5492 516.715 93.482C520.727 90.0371 522.082 87.7351 523.15 82.5559C526.595 86.5678 528.897 87.9236 534.076 88.9908Z" fill="#382C65"/>
<path d="M545.876 41.362L524.931 91.0403L525.853 91.429L546.797 41.7507L545.876 41.362Z" fill="#423772"/>
<mask id="mask3_1528_83613" style="mask-type:luminance" maskUnits="userSpaceOnUse" x="362" y="77" width="108" height="109">
<path d="M415.923 185.597C445.697 185.597 469.834 161.46 469.834 131.686C469.834 101.913 445.697 77.776 415.923 77.776C386.15 77.776 362.013 101.913 362.013 131.686C362.013 161.46 386.15 185.597 415.923 185.597Z" fill="white"/>
</mask>
<g mask="url(#mask3_1528_83613)">
<path d="M415.924 185.597C445.697 185.597 469.834 161.46 469.834 131.686C469.834 101.913 445.697 77.776 415.924 77.776C386.15 77.776 362.013 101.913 362.013 131.686C362.013 161.46 386.15 185.597 415.924 185.597Z" fill="#FD5817"/>
<path d="M358.048 167.242L392.828 146.98C394.652 145.917 396.616 145.114 398.663 144.594C405.472 142.864 411.096 138.078 413.893 131.633L413.9 131.617L344.576 128.601L358.048 167.242Z" fill="#E34612"/>
</g>
<path d="M360.964 138.974L352.033 129.172L361.835 120.241C372.065 110.918 387.94 111.655 397.263 121.886L406.195 131.688L396.393 140.619C386.162 149.942 370.287 149.205 360.964 138.974Z" fill="#719B5A"/>
<path d="M410.729 124.378C415.379 126.897 418.013 127.343 423.232 126.492C420.713 131.142 420.267 133.776 421.118 138.995C416.468 136.476 413.834 136.03 408.615 136.881C411.134 132.231 411.58 129.597 410.729 124.378Z" fill="#382C65"/>
<path d="M362.059 129.348L362.025 130.347L415.906 132.186L415.941 131.187L362.059 129.348Z" fill="#423772"/>
<path d="M491.544 173.241C499.719 173.241 506.346 166.614 506.346 158.439C506.346 150.264 499.719 143.636 491.544 143.636C483.369 143.636 476.741 150.264 476.741 158.439C476.741 166.614 483.369 173.241 491.544 173.241Z" fill="#433899"/>
<path d="M493.927 157.822C492.826 158.768 492.454 159.4 492.16 160.822C491.215 159.721 490.582 159.349 489.16 159.055C490.262 158.11 490.634 157.477 490.927 156.055C491.873 157.157 492.505 157.529 493.927 157.822Z" fill="#382C65"/>
<path d="M500.619 204.577C508.794 204.577 515.422 197.95 515.422 189.775C515.422 181.6 508.794 174.972 500.619 174.972C492.444 174.972 485.817 181.6 485.817 189.775C485.817 197.95 492.444 204.577 500.619 204.577Z" fill="#433899"/>
<path d="M503.003 189.158C501.901 190.104 501.529 190.736 501.236 192.158C500.29 191.057 499.658 190.684 498.236 190.391C499.337 189.445 499.709 188.813 500.003 187.391C500.948 188.493 501.581 188.865 503.003 189.158Z" fill="#382C65"/>
<path d="M468.222 197.415C476.397 197.415 483.025 190.787 483.025 182.612C483.025 174.437 476.397 167.81 468.222 167.81C460.047 167.81 453.42 174.437 453.42 182.612C453.42 190.787 460.047 197.415 468.222 197.415Z" fill="#8C86C1"/>
<path d="M470.606 181.996C469.504 182.942 469.132 183.574 468.839 184.996C467.893 183.894 467.261 183.522 465.839 183.229C466.94 182.283 467.312 181.651 467.606 180.229C468.551 181.33 469.184 181.703 470.606 181.996Z" fill="#433899"/>
<path d="M526.711 181.266C534.886 181.266 541.514 174.638 541.514 166.463C541.514 158.288 534.886 151.661 526.711 151.661C518.536 151.661 511.909 158.288 511.909 166.463C511.909 174.638 518.536 181.266 526.711 181.266Z" fill="#6860AD"/>
<path d="M529.095 165.847C527.993 166.793 527.621 167.425 527.328 168.847C526.382 167.745 525.75 167.373 524.328 167.08C525.429 166.134 525.801 165.502 526.095 164.08C527.04 165.181 527.673 165.554 529.095 165.847Z" fill="#433899"/>
<path d="M451.255 82.1896C459.431 82.1896 466.058 75.5623 466.058 67.3871C466.058 59.2119 459.431 52.5846 451.255 52.5846C443.08 52.5846 436.453 59.2119 436.453 67.3871C436.453 75.5623 443.08 82.1896 451.255 82.1896Z" fill="#6860AD"/>
<path d="M453.639 66.7706C452.537 67.7165 452.165 68.3486 451.872 69.7706C450.926 68.669 450.294 68.2968 448.872 68.0037C449.974 67.0578 450.346 66.4257 450.639 65.0037C451.585 66.1053 452.217 66.4775 453.639 66.7706Z" fill="#433899"/>
<path d="M1389.59 427.878C1389.47 427.842 1389.35 427.804 1389.22 427.764L1390.7 428.227C1393.91 417.959 1382.58 406.212 1381.67 396.126C1380.72 385.67 1389.62 372.076 1384.82 362.921C1380.02 353.766 1363.78 353.337 1355.73 346.606C1347.96 340.113 1344.75 324.111 1334.48 320.902C1304.26 311.458 1300.48 323.542 1270.26 314.099C1240.04 304.655 1243.82 292.571 1213.6 283.128C1183.38 273.686 1179.6 285.769 1149.39 276.327C1119.17 266.885 1122.94 254.801 1092.72 245.358C1082.46 242.15 1070.71 253.48 1060.62 254.393C1050.17 255.338 1036.57 246.445 1027.42 251.241C1018.26 256.036 1017.83 272.276 1011.1 280.332C1004.61 288.105 988.609 291.311 985.4 301.579" fill="#B5BB61"/>
<path d="M985.4 301.579C982.191 311.847 993.522 323.594 994.434 333.68C995.38 344.136 986.487 357.73 991.282 366.885C996.078 376.04 1012.32 376.469 1020.37 383.2C1028.15 389.692 1031.35 405.695 1041.62 408.904C1071.84 418.347 1075.62 406.264 1105.84 415.707C1136.06 425.151 1132.28 437.234 1162.51 446.678C1192.72 456.12 1196.5 444.036 1226.72 453.478C1256.93 462.921 1253.16 475.005 1283.38 484.447C1293.64 487.656 1305.39 476.325 1315.48 475.413C1325.93 474.467 1339.53 483.361 1348.68 478.565C1357.84 473.769 1358.27 457.53 1365 449.473C1371.49 441.701 1387.49 438.495 1390.7 428.227" fill="#7D7901"/>
<path d="M1090.23 347.705C1103.53 351.862 1113.34 358.358 1110.3 368.098C1108.73 373.121 1104.05 378.02 1098.06 381.022C1096.88 381.615 1096.39 383.044 1097.01 384.215L1111.92 412.681C1112.52 413.83 1113.94 414.273 1115.09 413.671L1238.98 348.77C1240.13 348.168 1240.57 346.749 1239.97 345.601L1175.07 221.705C1174.47 220.556 1173.05 220.113 1171.9 220.714L1166.84 223.366C1165.5 224.065 1165.17 225.827 1166.15 226.971C1167.89 229.002 1169.31 230.897 1170.25 232.453C1175.56 241.169 1164.13 235.997 1155.42 241.305C1149.13 245.133 1141.47 244.749 1135.69 240.972C1135 240.52 1134.11 240.51 1133.38 240.893L1048.01 285.615C1046.86 286.217 1046.41 287.636 1047.02 288.785L1076.45 344.976C1076.87 345.778 1077.71 346.284 1078.62 346.231C1082.31 346.014 1086.26 346.465 1090.23 347.705ZM1107.04 309.32C1106.34 311.585 1102.97 312.549 1099.53 311.473C1096.09 310.397 1093.87 307.689 1094.58 305.425C1095.29 303.16 1098.65 302.196 1102.09 303.272C1105.53 304.348 1107.75 307.055 1107.04 309.32ZM1215.72 319.333C1213.51 326.399 1208.49 331.117 1204.5 329.872C1200.52 328.626 1199.07 321.889 1201.28 314.823C1203.49 307.757 1210.42 306.674 1214.4 307.919C1218.39 309.165 1217.92 312.268 1215.72 319.333ZM1166.27 245.604C1170.57 245.807 1173.82 250.724 1173.54 256.586C1173.26 262.448 1169.56 267.035 1165.27 266.831C1160.98 266.628 1157.72 261.711 1158 255.849C1158.28 249.988 1161.98 245.401 1166.27 245.604ZM1123.5 289.195C1118.19 280.479 1116.23 260.089 1124.95 254.782C1134.02 249.258 1145.96 252.475 1150.95 262.046C1155.47 270.698 1152.13 281.444 1143.82 286.559C1135.27 291.817 1128.74 297.794 1123.5 289.195ZM1059.2 297.842C1056.73 292.3 1060.87 285.073 1068.44 281.701C1076 278.329 1084.14 280.089 1086.61 285.631C1089.08 291.173 1083.48 294.546 1075.91 297.917C1068.34 301.29 1061.67 303.385 1059.2 297.842ZM1166.73 360.019C1172.04 368.736 1169.28 380.104 1160.56 385.411C1151.85 390.719 1134.51 386.089 1129.2 377.373C1123.89 368.657 1126.65 357.289 1135.37 351.981C1144.09 346.674 1161.43 351.303 1166.73 360.019Z" fill="#FDBF32"/>
<path d="M1224.55 464.623C1238.41 463.187 1249.99 465.28 1251.04 475.431C1251.58 480.664 1249.22 487.015 1244.9 492.139C1244.05 493.15 1244.17 494.654 1245.2 495.488L1270.14 515.748C1271.15 516.565 1272.62 516.412 1273.44 515.406L1361.62 406.84C1362.44 405.833 1362.29 404.355 1361.28 403.537L1252.71 315.356C1251.71 314.539 1250.23 314.692 1249.41 315.699L1245.81 320.134C1244.86 321.304 1245.24 323.056 1246.6 323.72C1249 324.898 1251.05 326.078 1252.54 327.133C1260.85 333.044 1248.31 332.807 1242.4 341.126C1238.14 347.127 1230.95 349.8 1224.15 348.612C1223.34 348.47 1222.52 348.812 1221.99 349.453L1161.23 424.264C1160.41 425.271 1160.57 426.75 1161.57 427.567L1210.81 467.56C1211.51 468.131 1212.49 468.263 1213.3 467.857C1216.6 466.2 1220.41 465.052 1224.55 464.623ZM1224.83 422.719C1225.08 425.078 1222.37 427.293 1218.78 427.665C1215.19 428.036 1212.09 426.424 1211.84 424.064C1211.6 421.704 1214.31 419.49 1217.89 419.118C1221.48 418.747 1224.59 420.358 1224.83 422.719ZM1328.62 388.988C1329.38 396.351 1326.63 402.669 1322.48 403.099C1318.33 403.53 1314.34 397.909 1313.58 390.546C1312.82 383.183 1318.75 379.452 1322.9 379.022C1327.06 378.591 1327.86 381.625 1328.62 388.988ZM1254.07 340.787C1258.1 339.278 1263.03 342.51 1265.09 348.005C1267.15 353.499 1265.56 359.177 1261.53 360.685C1257.51 362.194 1252.58 358.962 1250.52 353.468C1248.46 347.973 1250.05 342.296 1254.07 340.787ZM1232 397.729C1223.68 391.819 1213.82 373.863 1219.73 365.544C1225.88 356.887 1238.13 355.124 1246.5 361.943C1254.06 368.107 1255.24 379.299 1249.62 387.281C1243.85 395.488 1240.21 403.561 1232 397.729ZM1176.34 431.075C1171.89 426.958 1172.83 418.686 1178.45 412.598C1184.07 406.51 1192.24 404.912 1196.7 409.028C1201.16 413.144 1197.35 418.454 1191.73 424.542C1186.1 430.63 1180.8 435.191 1176.34 431.075ZM1299.7 445.714C1308.01 451.625 1309.97 463.16 1304.06 471.479C1298.15 479.798 1280.39 482.396 1272.07 476.485C1263.75 470.574 1261.79 459.039 1267.71 450.72C1273.62 442.401 1291.38 439.804 1299.7 445.714Z" fill="#FCA620"/>
<path d="M1088.11 423.873C1100.43 417.361 1111.95 414.977 1116.72 423.999C1119.18 428.651 1119.35 435.426 1117.26 441.791C1116.85 443.048 1117.53 444.399 1118.79 444.788L1149.5 454.261C1150.73 454.643 1152.05 453.948 1152.43 452.709L1193.66 319.058C1194.04 317.819 1193.35 316.505 1192.11 316.123L1058.46 274.894C1057.22 274.512 1055.9 275.207 1055.52 276.446L1053.84 281.906C1053.39 283.346 1054.4 284.827 1055.91 284.937C1058.57 285.134 1060.92 285.461 1062.69 285.885C1072.62 288.259 1060.89 292.725 1058.52 302.65C1056.81 309.81 1051.14 314.975 1044.39 316.413C1043.58 316.585 1042.95 317.211 1042.7 318L1014.29 410.097C1013.91 411.336 1014.61 412.65 1015.84 413.032L1076.46 431.731C1077.33 431.998 1078.28 431.755 1078.88 431.076C1081.32 428.306 1084.43 425.816 1088.11 423.873ZM1072.71 384.898C1073.82 386.996 1072.13 390.063 1068.94 391.748C1065.76 393.433 1062.27 393.098 1061.16 391.001C1060.05 388.903 1061.74 385.836 1064.93 384.151C1068.12 382.466 1071.6 382.801 1072.71 384.898ZM1156.38 314.83C1159.84 321.375 1159.65 328.262 1155.96 330.213C1152.26 332.164 1146.47 328.441 1143.01 321.896C1139.55 315.351 1143.66 309.673 1147.35 307.722C1151.04 305.771 1152.92 308.285 1156.38 314.83ZM1069.22 297.975C1072.39 295.072 1078.17 296.227 1082.13 300.554C1086.1 304.881 1086.74 310.741 1083.58 313.644C1080.41 316.547 1074.63 315.392 1070.66 311.065C1066.7 306.738 1066.05 300.877 1069.22 297.975ZM1070.02 359.041C1060.1 356.667 1044.24 343.695 1046.62 333.77C1049.09 323.442 1059.78 317.233 1070.1 320.43C1079.42 323.32 1084.69 333.262 1082.46 342.765C1080.18 352.534 1079.81 361.384 1070.02 359.041ZM1030.86 410.767C1025.18 408.614 1022.97 400.588 1025.91 392.841C1028.85 385.093 1035.83 380.557 1041.5 382.71C1047.18 384.862 1045.62 391.212 1042.68 398.96C1039.74 406.708 1036.53 412.919 1030.86 410.767ZM1150.74 378.256C1160.67 380.63 1166.79 390.6 1164.42 400.525C1162.04 410.45 1146.54 419.495 1136.61 417.121C1126.69 414.747 1120.57 404.777 1122.94 394.852C1125.32 384.927 1140.82 375.882 1150.74 378.256Z" fill="#FCA620"/>
<path d="M1370.35 421.869L1370.35 421.869C1382.47 383.087 1360.86 341.824 1322.08 329.706L1097.91 259.659C1059.13 247.54 1017.87 269.155 1005.75 307.937C993.628 346.719 1015.24 387.981 1054.02 400.1L1278.19 470.147C1316.97 482.265 1358.24 460.65 1370.35 421.869Z" fill="#CC774F"/>
<path d="M1300.22 474.532C1292.75 474.532 1285.23 473.395 1277.89 471.101L1053.73 401.054L1054.32 399.145L1278.49 469.192C1296.99 474.973 1316.64 473.204 1333.81 464.21C1350.98 455.215 1363.62 440.073 1369.4 421.571L1371.31 422.167C1365.37 441.178 1352.38 456.739 1334.74 465.981C1323.9 471.656 1312.11 474.532 1300.22 474.532Z" fill="#AD5E3E"/>
<path d="M1006.7 308.235L1004.79 307.639C1017.06 268.393 1058.96 246.443 1098.21 258.705L1097.61 260.614C1079.11 254.832 1059.46 256.602 1042.29 265.596C1025.12 274.591 1012.48 289.733 1006.7 308.235Z" fill="#AD5E3E"/>
<path d="M1090.28 282.533C1101.91 319.649 1110.71 357.639 1116.61 396.084C1116.91 398.282 1115.37 400.309 1113.18 400.612C1111.22 400.881 1109.41 399.698 1108.81 397.891C1099.9 370.097 1093.22 341.689 1087.45 313.103C1085.56 303.57 1083.82 294.003 1082.49 284.34C1081.92 279.527 1088.67 277.943 1090.28 282.533Z" fill="#AD5E3E"/>
<path d="M1259.21 335.319C1270.84 372.435 1279.63 410.425 1285.53 448.87C1285.84 451.067 1284.3 453.095 1282.1 453.398C1280.15 453.667 1278.33 452.484 1277.74 450.677C1268.83 422.882 1262.15 394.475 1256.37 365.889C1254.49 356.356 1252.74 346.789 1251.41 337.126C1250.85 332.312 1257.6 330.73 1259.21 335.319Z" fill="#AD5E3E"/>
<path d="M1146.59 300.128C1152.43 318.698 1157.17 337.541 1161.66 356.462C1166.07 375.406 1170.16 394.4 1172.92 413.679C1173.22 415.876 1171.69 417.906 1169.49 418.213C1167.54 418.487 1165.71 417.301 1165.12 415.486C1162.09 406.219 1159.45 396.858 1156.98 387.459C1152.06 368.66 1147.75 349.713 1143.93 330.66C1142.02 321.129 1140.23 311.574 1138.8 301.935C1138.17 297.083 1145.01 295.474 1146.59 300.128Z" fill="#AD5E3E"/>
<path d="M1202.9 317.724C1213.03 355.252 1221.94 393.093 1229.22 431.275C1229.63 433.449 1228.19 435.539 1226.02 435.944C1223.97 436.326 1221.99 435.052 1221.43 433.081C1211.17 395.59 1202.52 357.689 1195.11 319.531C1194.29 314.538 1201.4 312.844 1202.9 317.724Z" fill="#AD5E3E"/>
<path d="M700.343 156.709L689.018 196.385C665.951 277.181 581.823 324.018 500.994 301.084L429.533 280.801L429.467 280.784L429.45 280.78L419.948 283.182L414.333 261L427.652 257.633L520.852 234.064C555.732 225.239 587.853 207.823 614.294 183.427L687.684 115.682L692.16 66.7583L693.23 54.9599L707.777 51.2749L704.63 68.9838L701.394 87.2368C707.175 110.079 706.807 134.057 700.343 156.709Z" fill="#FDCB5C"/>
<path d="M524.305 247.718L523.814 245.779C558.416 237.027 590.579 219.599 616.824 195.38L618.181 196.85C591.69 221.295 559.229 238.885 524.305 247.718Z" fill="#CC774F"/>
<path d="M695.89 106.575L639.105 159.167L640.465 160.634L697.25 108.043L695.89 106.575Z" fill="#CC774F"/>
<path d="M692.157 66.7612L693.232 54.9563L707.779 51.277L704.634 68.9843L692.157 66.7612Z" fill="#382C65"/>
<path d="M700.343 156.709L689.018 196.385C665.951 277.181 581.823 324.018 500.994 301.084L429.466 280.784L429.45 280.78L429.444 280.77C429.444 280.77 653.746 340.612 701.394 87.2367C707.175 110.078 706.807 134.057 700.343 156.709Z" fill="#FCA620"/>
<path d="M695.664 118.91L692.771 118.116C695.492 108.2 697.897 97.7178 699.92 86.9595L702.868 87.5142C700.83 98.3521 698.406 108.915 695.664 118.91Z" fill="#AD5E3E"/>
<path d="M585.805 266.135L584.461 263.453C631.303 239.983 665.426 198.529 685.882 140.241L688.713 141.234C667.99 200.282 633.367 242.305 585.805 266.135Z" fill="#AD5E3E"/>
<path d="M485.671 288.412C452.752 288.412 429.356 282.299 429.057 282.219L429.83 279.321C430.21 279.422 468.316 289.365 515.652 283.639L516.012 286.618C505.332 287.909 495.107 288.412 485.671 288.412Z" fill="#AD5E3E"/>
<path d="M438.278 267.744C435.525 269.846 430.334 274.577 429.533 280.801L429.467 280.784L429.45 280.78L419.948 283.182L414.333 260.999L427.652 257.633L428.799 262.476C429.373 264.898 431.538 266.596 434.019 266.576L437.862 266.555C438.499 266.552 438.788 267.356 438.278 267.744Z" fill="#382C65"/>
<path d="M856.366 261.459L882.958 358.999L825.441 374.68L798.849 277.14C797.834 273.416 800.029 269.575 803.753 268.56L847.786 256.555C851.51 255.54 855.351 257.735 856.366 261.459Z" fill="#AD5E3E"/>
<path d="M870.509 313.336L882.958 358.999L825.441 374.68L804.73 298.71L822.12 300.549C828.006 301.17 833.424 304.025 837.275 308.514L844.182 316.572C847.979 320.993 854.331 322.149 859.432 319.374L870.509 313.336Z" fill="#6F3826"/>
<path d="M885.183 364.27L902.254 404.725L838.38 422.139L825.441 374.68L798.018 350.757L812.169 325.998L858.82 342.915L871.233 315.991L880.251 324.018L882.517 353.295C882.809 357.073 883.71 360.779 885.183 364.27Z" fill="#FDABCB"/>
<path d="M838.383 422.134L839.88 432.898L906.838 414.643L902.254 404.721L838.383 422.134Z" fill="#FD7BAC"/>
<path d="M798.018 350.757L820.718 362.611L858.82 342.915L798.018 350.757Z" fill="#FD7BAC"/>
<path d="M842.766 385.158L825.193 375.114C824.974 374.988 824.882 374.718 824.981 374.485C825.079 374.252 825.336 374.129 825.58 374.199L859.11 383.865L858.833 384.826L829.311 376.315L843.262 384.289L842.766 385.158Z" fill="#FD7BAC"/>
<path d="M870.787 315.788L855.714 348.92L856.624 349.334L871.697 316.202L870.787 315.788Z" fill="#FD7BAC"/>
<path d="M798.26 381.515L791.145 379.999C790.343 379.829 789.554 380.34 789.383 381.143L787.867 388.257C787.696 389.06 788.208 389.849 789.01 390.019L796.125 391.535C796.927 391.706 797.716 391.194 797.887 390.392L799.403 383.277C799.574 382.475 799.062 381.686 798.26 381.515Z" fill="#AD5E3E"/>
<path d="M804.544 369.523L801.178 370.915C800.713 371.108 800.491 371.642 800.684 372.108L802.076 375.474C802.269 375.939 802.803 376.161 803.268 375.968L806.634 374.576C807.1 374.383 807.322 373.849 807.129 373.384L805.737 370.018C805.544 369.552 805.01 369.33 804.544 369.523Z" fill="#AD5E3E"/>
<path d="M796.005 314.801L785.303 309.489C784.309 308.996 783.103 309.402 782.61 310.395L777.299 321.098C776.806 322.092 777.211 323.297 778.205 323.791L788.908 329.102C789.902 329.595 791.107 329.189 791.6 328.196L796.912 317.493C797.405 316.499 796.999 315.294 796.005 314.801Z" fill="#AD5E3E"/>
<path d="M906.018 221.866C985.657 221.866 1050.22 157.306 1050.22 77.6667C1050.22 -1.97229 985.657 -66.5325 906.018 -66.5325C826.379 -66.5325 761.819 -1.97229 761.819 77.6667C761.819 157.306 826.379 221.866 906.018 221.866Z" fill="#FDE0A7"/>
<path d="M886.356 205.884C964.314 205.884 1027.51 142.686 1027.51 64.7282C1027.51 -13.23 964.314 -76.4276 886.356 -76.4276C808.398 -76.4276 745.2 -13.23 745.2 64.7282C745.2 142.686 808.398 205.884 886.356 205.884Z" fill="#FDF6E9"/>
<path d="M915.071 203.953L914.666 201.994C951.332 194.432 982.858 173.045 1003.44 141.771C1024.02 110.498 1031.18 73.0824 1023.62 36.4174L1025.58 36.0131C1041.41 112.783 991.84 188.12 915.071 203.953Z" fill="#FCA620"/>
<mask id="mask4_1528_83613" style="mask-type:luminance" maskUnits="userSpaceOnUse" x="762" y="-60" width="249" height="249">
<path d="M886.356 188.659C954.801 188.659 1010.29 133.173 1010.29 64.7282C1010.29 -3.71677 954.801 -59.2024 886.356 -59.2024C817.911 -59.2024 762.425 -3.71677 762.425 64.7282C762.425 133.173 817.911 188.659 886.356 188.659Z" fill="white"/>
</mask>
<g mask="url(#mask4_1528_83613)">
<path d="M886.356 188.659C954.801 188.659 1010.29 133.173 1010.29 64.7282C1010.29 -3.71677 954.801 -59.2024 886.356 -59.2024C817.911 -59.2024 762.425 -3.71677 762.425 64.7282C762.425 133.173 817.911 188.659 886.356 188.659Z" fill="#FDCB5C"/>
<path d="M970.81 6.43005C971.17 12.0202 966.503 17.5139 966.084 22.9417C965.654 28.5049 969.401 34.6541 968.204 39.9865C966.987 45.4115 960.958 49.367 959.003 54.4895C957.027 59.6689 958.879 66.6311 956.207 71.4352C953.518 76.2684 946.62 78.3647 943.286 82.7507C939.945 87.1451 939.77 94.3511 935.841 98.2286C931.92 102.099 924.714 102.18 920.266 105.468C915.845 108.735 913.655 115.605 908.773 118.231C903.944 120.828 897.012 118.874 891.788 120.779C886.654 122.65 882.611 128.62 877.149 129.761C871.821 130.874 865.725 127.043 860.135 127.403C854.545 127.764 848.992 132.347 843.564 131.928C838.001 131.498 833.224 126.097 827.892 124.901C822.467 123.683 815.843 126.511 810.721 124.556C805.541 122.58 802.487 116.048 797.683 113.376C792.849 110.687 785.693 111.532 781.307 108.198C776.912 104.857 775.812 97.7333 771.935 93.8046C768.065 89.8834 760.955 88.6907 757.667 84.2431C754.399 79.8223 755.342 72.6799 752.716 67.7974C750.119 62.9686 743.633 59.8205 741.728 54.597C739.857 49.4629 742.782 42.8835 741.641 37.422C740.528 32.0931 735.193 27.2444 734.833 21.6542C734.472 16.064 739.139 10.5703 739.559 5.14255C739.989 -0.420652 736.242 -6.56985 737.438 -11.9023C738.656 -17.3273 744.684 -21.2828 746.639 -26.4053C748.616 -31.5847 746.763 -38.5468 749.436 -43.3509C752.125 -48.1841 759.023 -50.2805 762.357 -54.6665C765.697 -59.0609 765.873 -66.2669 769.802 -70.1444C773.723 -74.0145 780.929 -74.0958 785.376 -77.3834C789.797 -80.6512 791.987 -87.5208 796.87 -90.1465C801.698 -92.7434 808.631 -90.7901 813.854 -92.6944C818.988 -94.5661 823.031 -100.535 828.493 -101.676C833.822 -102.79 839.917 -98.9583 845.508 -99.3189C851.098 -99.6796 856.65 -104.263 862.078 -103.843C867.641 -103.413 872.418 -98.0131 877.75 -96.8165C883.175 -95.5991 889.799 -98.427 894.922 -96.4721C900.101 -94.4954 903.156 -87.9642 907.96 -85.2915C912.793 -82.6026 919.95 -83.4477 924.336 -80.1134C928.73 -76.7728 929.83 -69.649 933.708 -65.7203C937.578 -61.7991 944.688 -60.6065 947.975 -56.1589C951.243 -51.7381 950.3 -44.5957 952.926 -39.7132C955.523 -34.8844 962.01 -31.7363 963.914 -26.5128C965.786 -21.3787 962.86 -14.7992 964.001 -9.33765C965.115 -4.00875 970.449 0.839846 970.81 6.43005Z" fill="#FCA620"/>
<path d="M863.161 193.975C862.796 188.312 859.338 185.784 855.334 182.855C851.306 179.91 846.74 176.57 846.284 169.508C845.828 162.446 849.928 158.548 853.544 155.108C857.139 151.69 860.243 148.738 859.877 143.076C859.512 137.414 856.055 134.886 852.051 131.958C848.022 129.013 843.456 125.675 843.001 118.613C842.545 111.552 846.644 107.654 850.261 104.216C853.855 100.798 856.959 97.8466 856.594 92.1859C856.229 86.5248 852.771 83.9964 848.767 81.0687C844.739 78.1234 840.173 74.785 839.718 67.7235C839.262 60.662 843.361 56.7645 846.978 53.326C850.572 49.9085 853.676 46.9569 853.311 41.2962C852.946 35.636 849.488 33.1082 845.485 30.181C841.456 27.2362 836.89 23.8983 836.434 16.8377C835.979 9.7767 840.078 5.8797 843.695 2.4417C847.289 -0.9753 850.393 -3.9265 850.028 -9.5861C849.663 -15.2457 846.205 -17.7731 842.202 -20.6994C838.174 -23.6442 833.608 -26.9816 833.152 -34.0412C832.697 -41.1022 836.796 -44.9992 840.413 -48.4377C844.007 -51.8552 847.111 -54.8064 846.746 -60.467L849.74 -60.6604C850.195 -53.5994 846.096 -49.7019 842.479 -46.2634C838.885 -42.8459 835.781 -39.8947 836.146 -34.2346C836.511 -28.5754 839.969 -26.0481 843.972 -23.1218C848.001 -20.177 852.567 -16.8396 853.022 -9.7795C853.477 -2.719 849.378 1.1775 845.762 4.616C842.167 8.033 839.063 10.9842 839.429 16.6443C839.794 22.3044 843.251 24.8323 847.255 27.7595C851.284 30.7043 855.849 34.0422 856.305 41.1028C856.761 48.1643 852.661 52.0618 849.045 55.5003C845.451 58.9178 842.347 61.8694 842.712 67.5301C843.077 73.1912 846.535 75.7196 850.538 78.6473C854.567 81.5926 859.133 84.931 859.588 91.9925C860.044 99.054 855.945 102.951 852.328 106.39C848.734 109.807 845.63 112.759 845.995 118.42C846.36 124.081 849.818 126.609 853.821 129.537C857.85 132.482 862.416 135.821 862.871 142.883C863.327 149.945 859.228 153.843 855.611 157.283C852.017 160.701 848.913 163.653 849.278 169.315C849.643 174.977 853.101 177.506 857.105 180.434C861.134 183.38 865.699 186.719 866.155 193.781L863.161 193.975Z" fill="#AD5E3E"/>
<path d="M848.972 194.89C848.607 189.228 845.149 186.699 841.145 183.771C837.117 180.825 832.551 177.486 832.095 170.424C831.64 163.361 835.739 159.463 839.355 156.024C842.949 152.606 846.054 149.654 845.688 143.992C845.323 138.33 841.865 135.802 837.861 132.874C833.833 129.929 829.268 126.59 828.812 119.529C828.356 112.467 832.455 108.57 836.072 105.131C839.666 101.714 842.77 98.7621 842.405 93.1009C842.04 87.4397 838.582 84.9119 834.579 81.9842C830.55 79.0389 825.984 75.7005 825.528 68.639C825.073 61.5775 829.172 57.68 832.789 54.2415C836.383 50.824 839.487 47.8724 839.122 42.2117C838.757 36.5515 835.299 34.0237 831.295 31.0965C827.267 28.1517 822.701 24.8138 822.246 17.7532C821.79 10.6926 825.889 6.79573 829.506 3.35723C833.1 -0.0597727 836.204 -3.01097 835.839 -8.67057C835.474 -14.3303 832.017 -16.8576 828.013 -19.7844C823.984 -22.7287 819.419 -26.0666 818.963 -33.1262C818.507 -40.1872 822.606 -44.0842 826.223 -47.5227C829.817 -50.9402 832.921 -53.8914 832.556 -59.5515L835.55 -59.7449C836.006 -52.6839 831.907 -48.7869 828.29 -45.3484C824.696 -41.9314 821.592 -38.9797 821.957 -33.3196C822.322 -27.6604 825.78 -25.1326 829.783 -22.2063C833.811 -19.2615 838.377 -15.9241 838.833 -8.86398C839.289 -1.80348 835.189 2.09302 831.573 5.53152C827.978 8.94852 824.875 11.8997 825.24 17.5598C825.605 23.2199 829.063 25.7478 833.066 28.6745C837.094 31.6198 841.66 34.9577 842.116 42.0183C842.571 49.0798 838.472 52.9773 834.855 56.4158C831.261 59.8333 828.157 62.7849 828.522 68.4456C828.888 74.1067 832.345 76.6351 836.349 79.5628C840.377 82.5081 844.943 85.8465 845.399 92.9075C845.855 99.969 841.755 103.867 838.139 107.305C834.544 110.723 831.44 113.674 831.806 119.335C832.171 124.997 835.628 127.525 839.632 130.453C843.661 133.398 848.227 136.737 848.682 143.798C849.138 150.861 845.039 154.759 841.422 158.198C837.828 161.616 834.724 164.568 835.089 170.23C835.454 175.893 838.912 178.421 842.916 181.349C846.944 184.295 851.51 187.635 851.966 194.697L848.972 194.89Z" fill="#AD5E3E"/>
<path d="M834.783 195.806C834.417 190.143 830.96 187.615 826.956 184.686C822.928 181.741 818.362 178.402 817.906 171.339C817.451 164.277 821.55 160.379 825.166 156.94C828.76 153.521 831.865 150.569 831.499 144.907C831.134 139.246 827.676 136.717 823.672 133.789C819.644 130.844 815.078 127.506 814.622 120.444C814.167 113.383 818.266 109.485 821.883 106.046C825.477 102.629 828.581 99.6773 828.216 94.0166C827.851 88.3555 824.393 85.8271 820.389 82.8999C816.361 79.9541 811.795 76.6157 811.339 69.5547C810.884 62.4932 814.983 58.5957 818.6 55.1572C822.194 51.7397 825.298 48.7881 824.933 43.1274C824.567 37.4667 821.11 34.9389 817.106 32.0117C813.078 29.0669 808.512 25.729 808.057 18.6684C807.601 11.6078 811.7 7.71088 815.317 4.27288C818.911 0.855877 822.015 -2.09532 821.65 -7.75492C821.285 -13.4145 817.827 -15.9419 813.824 -18.8682C809.795 -21.813 805.229 -25.1509 804.774 -32.2105C804.318 -39.2715 808.417 -43.1685 812.034 -46.607C815.628 -50.0245 818.732 -52.9757 818.367 -58.6358L821.361 -58.8292C821.817 -51.7682 817.718 -47.8712 814.101 -44.4327C810.507 -41.0157 807.403 -38.064 807.768 -32.4039C808.133 -26.7442 811.591 -24.2169 815.594 -21.2906C819.622 -18.3458 824.188 -15.0079 824.644 -7.94832C825.1 -0.887822 821 3.00917 817.384 6.44717C813.789 9.86417 810.685 12.8154 811.051 18.475C811.415 24.1352 814.873 26.663 818.877 29.5902C822.905 32.535 827.471 35.8734 827.927 42.934C828.382 49.9955 824.283 53.893 820.666 57.3315C817.072 60.749 813.968 63.7006 814.333 69.3613C814.699 75.0224 818.156 77.5508 822.16 80.478C826.188 83.4238 830.754 86.7622 831.21 93.8232C831.665 100.885 827.566 104.782 823.95 108.221C820.355 111.638 817.251 114.59 817.617 120.251C817.982 125.912 821.439 128.44 825.443 131.368C829.472 134.313 834.037 137.652 834.493 144.714C834.949 151.776 830.85 155.674 827.233 159.114C823.639 162.532 820.535 165.484 820.9 171.146C821.265 176.808 824.723 179.337 828.727 182.265C832.755 185.211 837.321 188.55 837.777 195.612L834.783 195.806Z" fill="#AD5E3E"/>
<path d="M820.594 196.721C820.229 191.059 816.771 188.53 812.767 185.602C808.739 182.656 804.173 179.317 803.717 172.254C803.262 165.192 807.36 161.294 810.977 157.854C814.571 154.436 817.675 151.484 817.31 145.822C816.945 140.161 813.487 137.633 809.483 134.705C805.455 131.76 800.889 128.421 800.434 121.359C799.978 114.298 804.077 110.4 807.694 106.962C811.288 103.544 814.392 100.593 814.027 94.932C813.662 89.2709 810.204 86.7425 806.2 83.8148C802.172 80.8695 797.606 77.5311 797.15 70.4701C796.695 63.4086 800.794 59.5116 804.41 56.0726C808.005 52.6551 811.109 49.7035 810.744 44.0423C810.379 38.3821 806.921 35.8543 802.917 32.9271C798.889 29.9823 794.323 26.6444 793.867 19.5838C793.412 12.5233 797.511 8.62628 801.128 5.18828C804.722 1.77128 807.826 -1.17992 807.461 -6.83952C807.096 -12.4987 803.638 -15.0265 799.635 -17.9528C795.606 -20.8976 791.04 -24.235 790.585 -31.2951C790.129 -38.3561 794.228 -42.2531 797.845 -45.6916C801.439 -49.1091 804.543 -52.0603 804.178 -57.7204L807.172 -57.9138C807.628 -50.8528 803.529 -46.9558 799.912 -43.5173C796.318 -40.1003 793.214 -37.1486 793.579 -31.4885C793.944 -25.8288 797.401 -23.3015 801.405 -20.3747C805.433 -17.4304 809.999 -14.0925 810.455 -7.03292C810.911 0.0275793 806.811 3.92458 803.195 7.36258C799.6 10.7796 796.496 13.7308 796.861 19.3904C797.226 25.0506 800.684 27.5784 804.688 30.5056C808.716 33.4504 813.282 36.7883 813.738 43.8489C814.193 50.9104 810.094 54.8079 806.477 58.2468C802.883 61.6643 799.779 64.6159 800.144 70.2766C800.51 75.9377 803.967 78.4656 807.971 81.3933C811.999 84.3386 816.565 87.677 817.021 94.7385C817.476 101.8 813.377 105.697 809.761 109.136C806.166 112.553 803.062 115.505 803.428 121.166C803.793 126.827 807.25 129.356 811.254 132.283C815.283 135.229 819.848 138.567 820.304 145.629C820.76 152.691 816.66 156.589 813.044 160.028C809.45 163.447 806.346 166.399 806.711 172.061C807.076 177.723 810.534 180.252 814.538 183.18C818.566 186.126 823.132 189.466 823.588 196.528L820.594 196.721Z" fill="#AD5E3E"/>
<path d="M806.405 197.636C806.04 191.974 802.582 189.445 798.578 186.517C794.55 183.571 789.984 180.232 789.528 173.17C789.072 166.107 793.171 162.209 796.788 158.77C800.382 155.352 803.486 152.4 803.121 146.738C802.756 141.077 799.298 138.548 795.295 135.621C791.266 132.675 786.7 129.336 786.244 122.275C785.789 115.213 789.888 111.316 793.505 107.877C797.099 104.46 800.203 101.508 799.838 95.8475C799.473 90.1864 796.015 87.658 792.011 84.7303C787.983 81.785 783.417 78.4466 782.961 71.3851C782.506 64.3236 786.605 60.4261 790.222 56.9876C793.816 53.5701 796.92 50.6185 796.555 44.9578C796.189 39.2976 792.732 36.7698 788.728 33.8426C784.7 30.8978 780.134 27.5599 779.678 20.4993C779.222 13.4387 783.322 9.54181 786.938 6.10381C790.533 2.68681 793.637 -0.264392 793.272 -5.92449C792.907 -11.5837 789.449 -14.111 785.446 -17.0373C781.417 -19.9821 776.852 -23.3195 776.396 -30.3796C775.94 -37.4406 780.04 -41.3376 783.656 -44.7761C787.25 -48.1936 790.354 -51.1448 789.989 -56.8049L792.983 -56.9983C793.439 -49.9373 789.34 -46.0403 785.723 -42.6018C782.129 -39.1848 779.025 -36.2331 779.39 -30.573C779.755 -24.9133 783.212 -22.386 787.216 -19.4592C791.245 -16.5149 795.81 -13.1775 796.266 -6.11789C796.721 0.942607 792.622 4.83961 789.005 8.27811C785.411 11.6951 782.307 14.6463 782.672 20.3059C783.037 25.9661 786.495 28.4939 790.499 31.4211C794.527 34.3659 799.093 37.7038 799.549 44.7644C800.004 51.8259 795.905 55.7234 792.288 59.1619C788.694 62.5794 785.59 65.531 785.955 71.1917C786.321 76.8528 789.778 79.3812 793.782 82.3089C797.811 85.2542 802.376 88.5926 802.832 95.6541C803.288 102.716 799.188 106.613 795.572 110.052C791.978 113.469 788.873 116.421 789.239 122.081C789.604 127.743 793.062 130.271 797.065 133.199C801.094 136.144 805.66 139.483 806.115 146.544C806.571 153.607 802.472 157.505 798.855 160.944C795.261 164.362 792.157 167.314 792.522 172.976C792.887 178.639 796.345 181.167 800.349 184.096C804.377 187.041 808.943 190.38 809.399 197.443L806.405 197.636Z" fill="#AD5E3E"/>
<path d="M792.216 198.552C791.851 192.89 788.393 190.361 784.389 187.433C780.36 184.487 775.795 181.148 775.339 174.085C774.883 167.023 778.982 163.125 782.599 159.686C786.193 156.267 789.297 153.315 788.932 147.653C788.566 141.992 785.109 139.463 781.105 136.536C777.077 133.59 772.511 130.252 772.055 123.19C771.6 116.129 775.699 112.232 779.315 108.793C782.91 105.375 786.014 102.424 785.648 96.7625C785.283 91.1013 781.826 88.5735 777.822 85.6458C773.794 82.7005 769.228 79.3621 768.772 72.3006C768.316 65.2391 772.416 61.3416 776.032 57.9031C779.627 54.4856 782.73 51.5341 782.365 45.8734C782.001 40.2132 778.543 37.6853 774.539 34.7581C770.511 31.8133 765.945 28.4754 765.489 21.4148C765.034 14.3542 769.133 10.4573 772.75 7.01884C776.344 3.60184 779.448 0.650647 779.083 -5.00895C778.718 -10.6687 775.26 -13.196 771.256 -16.1228C767.228 -19.0671 762.662 -22.4045 762.207 -29.4641C761.751 -36.5251 765.85 -40.4221 769.467 -43.8606C773.061 -47.2781 776.165 -50.2293 775.8 -55.8899L778.794 -56.0833C779.25 -49.0223 775.15 -45.1248 771.534 -41.6863C767.94 -38.2688 764.836 -35.3176 765.201 -29.6575C765.566 -23.9983 769.024 -21.471 773.027 -18.5447C777.055 -15.5999 781.621 -12.2625 782.077 -5.20235C782.532 1.85815 778.433 5.75465 774.816 9.19315C771.222 12.6101 768.118 15.5614 768.483 21.2215C768.849 26.8816 772.306 29.4095 776.31 32.3362C780.338 35.2815 784.904 38.6193 785.359 45.6799C785.815 52.7414 781.716 56.6389 778.099 60.0774C774.505 63.4949 771.401 66.4465 771.766 72.1072C772.131 77.7683 775.589 80.2968 779.593 83.2245C783.621 86.1698 788.187 89.5082 788.643 96.5692C789.098 103.631 784.999 107.528 781.382 110.967C777.788 114.385 774.684 117.336 775.049 122.997C775.415 128.658 778.872 131.186 782.876 134.114C786.904 137.059 791.47 140.398 791.926 147.46C792.381 154.522 788.283 158.42 784.666 161.86C781.072 165.278 777.968 168.23 778.333 173.892C778.698 179.554 782.156 182.083 786.16 185.011C790.188 187.957 794.754 191.296 795.21 198.358L792.216 198.552Z" fill="#AD5E3E"/>
<path d="M778.026 199.467C777.661 193.805 774.204 191.276 770.2 188.348C766.171 185.402 761.605 182.063 761.15 175.001C760.694 167.938 764.793 164.04 768.41 160.601C772.004 157.183 775.108 154.231 774.743 148.569C774.377 142.907 770.92 140.379 766.916 137.451C762.888 134.506 758.322 131.167 757.866 124.106C757.411 117.044 761.51 113.147 765.126 109.708C768.721 106.291 771.825 103.339 771.459 97.6781C771.094 92.0169 767.637 89.4891 763.633 86.5614C759.604 83.6161 755.039 80.2777 754.583 73.2162C754.127 66.1547 758.226 62.2572 761.843 58.8187C765.437 55.4012 768.541 52.4496 768.176 46.7889C767.811 41.1287 764.353 38.6009 760.35 35.6742C756.322 32.7289 751.756 29.391 751.3 22.3304C750.845 15.2698 754.944 11.3729 758.561 7.93438C762.155 4.51738 765.259 1.56618 764.893 -4.09342C764.528 -9.75302 761.071 -12.2804 757.067 -15.2067C753.039 -18.1515 748.473 -21.4894 748.018 -28.549C747.562 -35.61 751.661 -39.507 755.278 -42.9455C758.872 -46.363 761.976 -49.3142 761.611 -54.9743L764.605 -55.1677C765.061 -48.1067 760.961 -44.2097 757.345 -40.7712C753.75 -37.3542 750.646 -34.4025 751.012 -28.7424C751.377 -23.0827 754.834 -20.5554 758.838 -17.6291C762.866 -14.6843 767.432 -11.3464 767.888 -4.28682C768.343 2.77368 764.244 6.67017 760.627 10.1087C757.033 13.5257 753.929 16.4769 754.294 22.137C754.659 27.7972 758.117 30.325 762.121 33.2522C766.149 36.197 770.715 39.5349 771.17 46.5955C771.626 53.657 767.527 57.5545 763.91 60.993C760.316 64.4105 757.212 67.3621 757.577 73.0228C757.942 78.6839 761.4 81.2123 765.404 84.14C769.432 87.0853 773.998 90.4237 774.454 97.4847C774.909 104.546 770.81 108.444 767.193 111.882C763.599 115.3 760.495 118.251 760.86 123.912C761.225 129.574 764.683 132.102 768.686 135.03C772.715 137.975 777.281 141.314 777.737 148.375C778.192 155.438 774.093 159.336 770.477 162.775C766.883 166.193 763.779 169.145 764.144 174.807C764.509 180.47 767.967 182.998 771.971 185.927C775.999 188.872 780.565 192.211 781.02 199.274L778.026 199.467Z" fill="#AD5E3E"/>
<path d="M864.003 51.3543L863.81 48.3602C869.472 47.995 872 44.5374 874.929 40.5335C877.874 36.5052 881.213 31.9393 888.276 31.4837C895.346 31.0311 899.236 35.1273 902.675 38.7435C906.094 42.3377 909.038 45.4466 914.708 45.0765C920.37 44.7113 922.898 41.2537 925.826 37.2498C928.771 33.2215 932.109 28.6556 939.171 28.2C946.227 27.742 950.13 31.8431 953.569 35.4603C956.986 39.0541 959.926 42.1644 965.599 41.7933C971.26 41.4281 973.788 37.9705 976.715 33.9671C979.661 29.9383 982.999 25.3724 990.06 24.9168C997.118 24.4603 1001.02 28.5599 1004.46 32.1771C1007.88 35.7709 1010.82 38.8817 1016.49 38.5101C1022.15 38.1449 1024.68 34.6873 1027.6 30.6839C1030.55 26.6556 1033.89 22.0897 1040.95 21.6341C1048.01 21.1854 1051.9 25.2777 1055.34 28.8944C1058.76 32.4886 1061.7 35.6034 1067.37 35.2274C1073.03 34.8627 1075.56 31.4051 1078.48 27.4012C1081.43 23.3729 1084.77 18.807 1091.83 18.3514C1098.88 17.8963 1102.78 21.9945 1106.22 25.6117C1109.64 29.2055 1112.59 32.3163 1118.25 31.9447L1118.44 34.9388C1111.39 35.3929 1107.49 31.2957 1104.05 27.6785C1100.63 24.0843 1097.69 20.972 1092.02 21.3455C1086.36 21.7107 1083.83 25.1683 1080.91 29.1717C1077.96 33.2 1074.62 37.7659 1067.56 38.2215C1060.51 38.6785 1056.61 34.5779 1053.17 30.9612C1049.75 27.367 1046.8 24.2547 1041.14 24.6282C1035.48 24.9934 1032.95 28.451 1030.02 32.4544C1027.08 36.4827 1023.74 41.0486 1016.68 41.5042C1009.63 41.9583 1005.72 37.8606 1002.28 34.2439C998.866 30.6497 995.921 27.5364 990.254 27.9109C984.593 28.2761 982.064 31.7337 979.137 35.7376C976.191 39.7659 972.853 44.3318 965.792 44.7874C958.736 45.2464 954.833 41.1438 951.394 37.5271C947.977 33.9329 945.024 30.8264 939.364 31.1941C933.703 31.5593 931.175 35.0169 928.247 39.0203C925.302 43.0491 921.963 47.615 914.901 48.0706C907.836 48.5267 903.94 44.4266 900.501 40.8108C897.083 37.2166 894.13 34.1087 888.469 34.4778C882.807 34.843 880.278 38.3006 877.35 42.3045C874.404 46.3328 871.065 50.8987 864.003 51.3543Z" fill="#AD5E3E"/>
<path d="M863.087 37.1653L862.894 34.1712C868.556 33.806 871.085 30.3484 874.013 26.3445C876.959 22.3162 880.298 17.7503 887.36 17.2947C894.425 16.8411 898.321 20.9378 901.76 24.5545C905.178 28.1487 908.13 31.2552 913.793 30.8875C919.454 30.5223 921.982 27.0647 924.91 23.0608C927.855 19.0325 931.194 14.4666 938.256 14.011C945.307 13.5535 949.214 17.6541 952.653 21.2713C956.071 24.8655 959.022 27.9788 964.683 27.6043C970.344 27.2391 972.873 23.7815 975.8 19.7776C978.746 15.7493 982.084 11.1834 989.145 10.7278C996.198 10.2722 1000.1 14.3709 1003.54 17.9881C1006.96 21.5819 1009.91 24.6922 1015.57 24.3211C1021.23 23.9559 1023.76 20.4983 1026.69 16.4949C1029.63 12.4666 1032.97 7.90072 1040.03 7.44512C1047.09 6.99002 1050.99 11.0887 1054.43 14.7054C1057.84 18.2996 1060.79 21.4129 1066.45 21.0384C1072.11 20.6732 1074.64 17.2156 1077.57 13.2122C1080.51 9.18392 1083.85 4.61802 1090.91 4.16242C1097.96 3.70932 1101.87 7.80602 1105.31 11.4227C1108.72 15.0165 1111.67 18.1244 1117.34 17.7557L1117.53 20.7498C1110.47 21.2059 1106.57 17.1067 1103.13 13.4895C1099.72 9.89572 1096.77 6.78932 1091.1 7.15652C1085.44 7.52172 1082.92 10.9793 1079.99 14.9827C1077.05 19.011 1073.71 23.5769 1066.65 24.0325C1059.59 24.4949 1055.69 20.3889 1052.25 16.7722C1048.84 13.1784 1045.89 10.0696 1040.22 10.4392C1034.56 10.8039 1032.04 14.2615 1029.11 18.2654C1026.16 22.2937 1022.83 26.8596 1015.77 27.3152C1008.71 27.7703 1004.81 23.6712 1001.37 20.0549C997.951 16.4607 995.005 13.343 989.338 13.7219C983.677 14.0871 981.149 17.5447 978.222 21.5481C975.276 25.5769 971.938 30.1428 964.877 30.5984C957.816 31.0515 953.918 26.9548 950.479 23.3381C947.062 19.7439 944.111 16.634 938.449 17.0051C932.788 17.3703 930.259 20.8279 927.332 24.8318C924.386 28.8601 921.048 33.426 913.986 33.8816C906.925 34.3377 903.026 30.238 899.586 26.6218C896.168 23.0276 893.218 19.9197 887.554 20.2888C881.892 20.654 879.363 24.1116 876.435 28.1155C873.489 32.1438 870.15 36.7097 863.087 37.1653Z" fill="#AD5E3E"/>
<path d="M862.172 22.9764L861.978 19.9823C867.641 19.6171 870.17 16.1595 873.098 12.1556C876.044 8.12731 879.383 3.56141 886.445 3.10531C893.503 2.64681 897.406 6.7484 900.845 10.3651C904.264 13.9598 907.217 17.0741 912.877 16.6986C918.538 16.3334 921.067 12.8758 923.995 8.87241C926.94 4.84361 930.279 0.277705 937.34 -0.177895C944.396 -0.634395 948.299 3.46521 951.738 7.08241C955.155 10.6762 958.094 13.7875 963.768 13.4154C969.429 13.0502 971.957 9.59261 974.885 5.58871C977.83 1.56041 981.168 -3.00549 988.229 -3.46109C995.288 -3.91569 999.188 0.182005 1002.63 3.7992C1006.04 7.393 1008.99 10.5048 1014.66 10.1322C1020.32 9.76701 1022.85 6.3094 1025.77 2.3055C1028.72 -1.7228 1032.06 -6.28869 1039.12 -6.74429C1046.18 -7.20329 1050.07 -3.10069 1053.51 0.516006C1056.93 4.11071 1059.88 7.2245 1065.54 6.8495C1071.2 6.4843 1073.73 3.0267 1076.65 -0.976695C1079.6 -5.00499 1082.93 -9.57089 1089.99 -10.0265C1097.05 -10.4782 1100.95 -6.38289 1104.39 -2.76619C1107.81 0.828005 1110.75 3.9418 1116.42 3.5668L1116.61 6.56091C1109.56 7.01891 1105.66 2.9178 1102.22 -0.699395C1098.8 -4.2932 1095.85 -7.40249 1090.19 -7.03239C1084.53 -6.66769 1082 -3.21009 1079.07 0.793805C1076.13 4.8221 1072.79 9.38801 1065.73 9.84361C1058.66 10.3031 1054.77 6.2 1051.34 2.5829C1047.92 -1.0109 1044.96 -4.12119 1039.31 -3.75009C1033.65 -3.38489 1031.12 0.0727053 1028.19 4.07611C1025.25 8.10491 1021.91 12.6708 1014.85 13.1264C1007.79 13.5815 1003.89 9.48331 1000.45 5.86661C997.035 2.27191 994.082 -0.837495 988.423 -0.466895C982.762 -0.101695 980.234 3.3559 977.306 7.3593C974.361 11.3881 971.022 15.954 963.961 16.4096C956.905 16.8637 953.002 12.766 949.563 9.14931C946.146 5.55511 943.203 2.44231 937.534 2.81631C931.872 3.18151 929.344 6.63911 926.416 10.643C923.471 14.6713 920.132 19.2372 913.071 19.6928C906.003 20.1464 902.11 16.0492 898.671 12.433C895.253 8.8383 892.301 5.7269 886.639 6.0995C880.976 6.4647 878.448 9.92271 875.519 13.9266C872.573 17.9549 869.234 22.5208 862.172 22.9764Z" fill="#AD5E3E"/>
<path d="M861.257 8.78744L861.063 5.79334C866.726 5.42814 869.254 1.97014 872.182 -2.03336C875.128 -6.06166 878.467 -10.6276 885.53 -11.0837C892.583 -11.5432 896.49 -7.44056 899.93 -3.82336C903.348 -0.228662 906.302 2.88314 911.962 2.50964C917.623 2.14444 920.151 -1.31316 923.079 -5.31706C926.024 -9.34536 929.363 -13.9113 936.425 -14.3669C943.476 -14.8225 947.383 -10.7233 950.822 -7.10706C954.24 -3.51286 957.193 -0.404961 962.852 -0.774061C968.513 -1.13926 971.042 -4.59686 973.969 -8.60026C976.915 -12.6286 980.253 -17.1945 987.314 -17.6501C994.368 -18.1042 998.273 -14.0065 1001.71 -10.3903C1005.13 -6.79606 1008.08 -3.68226 1013.74 -4.05726C1019.4 -4.42196 1021.93 -7.87956 1024.86 -11.8835C1027.8 -15.9118 1031.14 -20.4777 1038.2 -20.9333C1045.26 -21.382 1049.16 -17.2897 1052.6 -13.673C1056.01 -10.0788 1058.96 -6.96686 1064.62 -7.33996C1070.28 -7.70466 1072.81 -11.1623 1075.74 -15.1662C1078.68 -19.1945 1082.02 -23.7604 1089.08 -24.216C1096.14 -24.6755 1100.04 -20.5724 1103.48 -16.9557C1106.89 -13.361 1109.84 -10.2496 1115.5 -10.6222L1115.7 -7.62806C1108.64 -7.16806 1104.74 -11.2717 1101.3 -14.8884C1097.88 -18.4826 1094.93 -21.594 1089.27 -21.2219C1083.61 -20.8567 1081.09 -17.3991 1078.16 -13.3957C1075.21 -9.36736 1071.88 -4.80146 1064.82 -4.34586C1057.76 -3.88686 1053.86 -7.98896 1050.42 -11.6062C1047 -15.2004 1044.06 -18.3118 1038.39 -17.9392C1032.73 -17.574 1030.21 -14.1164 1027.28 -10.113C1024.33 -6.08466 1021 -1.51876 1013.94 -1.06316C1006.88 -0.615362 1002.98 -4.70676 999.538 -8.32296C996.12 -11.9172 993.164 -15.0266 987.508 -14.656C981.847 -14.2908 979.318 -10.8332 976.391 -6.82976C973.445 -2.80146 970.107 1.76444 963.045 2.22004C955.985 2.67564 952.087 -1.42306 948.648 -5.03976C945.23 -8.63396 942.273 -11.7405 936.618 -11.3728C930.957 -11.0076 928.428 -7.54996 925.5 -3.54606C922.555 0.482237 919.216 5.04774 912.155 5.50374C905.095 5.95734 901.195 1.86014 897.755 -1.75656C894.337 -5.35076 891.386 -8.45526 885.723 -8.08956C880.061 -7.72436 877.532 -4.26636 874.604 -0.262861C871.658 3.76544 868.319 8.33134 861.257 8.78744Z" fill="#AD5E3E"/>
</g>
<path d="M876.265 112.301C875.254 131.196 860.126 145.748 842.477 144.804C824.827 143.859 811.339 127.776 812.351 108.881C813.362 89.9857 829.03 65.3291 846.679 66.2737C864.329 67.2183 877.276 93.4062 876.265 112.301Z" fill="#FDF6E9"/>
<path d="M843.954 135.15C853.869 135.15 861.907 127.112 861.907 117.197C861.907 107.282 853.869 99.2445 843.954 99.2445C834.039 99.2445 826.001 107.282 826.001 117.197C826.001 127.112 834.039 135.15 843.954 135.15Z" fill="#FDBF32"/>
<path d="M833.838 58.6306C821.305 72.3312 800.77 73.9473 787.973 62.2402C775.175 50.5331 774.961 29.9361 787.495 16.2355C800.028 2.53489 827.265 -6.40811 840.063 5.29899C852.86 17.0061 846.371 44.9299 833.838 58.6306Z" fill="#FDF6E9"/>
<path d="M806.284 59.8405C816.014 59.8405 823.902 51.9529 823.902 42.2231C823.902 32.4933 816.014 24.6057 806.284 24.6057C796.555 24.6057 788.667 32.4933 788.667 42.2231C788.667 51.9529 796.555 59.8405 806.284 59.8405Z" fill="#FDBF32"/>
<path d="M968.285 117.77C954.742 140.024 925.518 167.483 914.255 160.629C902.993 153.775 913.956 115.202 927.5 92.948C941.043 70.694 961.153 58.2101 972.415 65.0644C983.678 71.9187 981.829 95.5157 968.285 117.77Z" fill="#717820"/>
<path d="M965.078 89.6766C955.429 117.842 927.029 154.803 909.654 148.851C892.279 142.899 892.509 96.2871 902.157 68.1216C911.806 39.9562 933.713 21.9488 951.088 27.901C968.463 33.8532 974.726 61.5112 965.078 89.6766Z" fill="#719B5A"/>
<path d="M928.587 82.6828C927.063 108.689 914.132 146.648 900.97 145.876C887.808 145.105 879.4 105.896 880.924 79.8891C882.448 53.8824 894.354 33.4253 907.516 34.1967C920.677 34.9682 930.112 56.6761 928.587 82.6828Z" fill="#7D7901"/>
<path d="M953.334 88.379C941.168 111.415 919.45 143.654 914.927 141.264C910.403 138.875 924.785 102.762 936.952 79.7265C949.118 56.6907 962.648 39.9534 967.172 42.3427C971.696 44.732 965.501 65.3432 953.334 88.379Z" fill="#719B5A"/>
<path d="M933.591 143.733C946.121 132.89 957.746 114.724 963.021 99.3254L958.432 97.7534C954.176 110.177 945.65 124.228 936.18 134.424C933.466 137.346 930.791 139.83 928.2 141.862C926.96 142.834 925.175 141.786 925.44 140.232L925.541 139.642C925.597 139.316 925.743 139.02 925.967 138.777C928.477 136.059 931.132 132.655 933.927 128.563C941.653 117.256 949.2 102.208 953.625 89.2929L949.036 87.7209C944.743 100.252 937.419 114.854 929.922 125.826C929.007 127.166 928.122 128.403 927.265 129.551C927.99 125.304 929.432 121.219 931.51 117.445C931.793 116.931 932.08 116.403 932.372 115.86C938.677 104.145 945.326 88.891 949.725 76.0511L945.136 74.4791C942.154 83.186 938.18 92.8881 933.95 101.89C933.464 102.925 931.899 102.429 932.091 101.302C932.115 101.122 932.139 100.943 932.162 100.764C932.318 99.1602 932.607 97.5783 933.197 96.0788C937.736 84.5493 942.833 70.7201 946.808 59.1169L942.219 57.5449C937.96 69.9764 932.872 83.6733 928.464 94.8349C928.339 94.7839 928.213 94.7348 928.086 94.6923C928.031 94.6744 927.973 94.6612 927.917 94.6449C931.279 83.1256 935.658 69.1868 939.916 56.7562L935.328 55.1842C931.361 66.7628 926.918 80.7769 923.437 92.6516C923.009 94.1107 922.425 95.5298 921.54 96.766C921.334 97.0528 921.145 97.3689 920.975 97.7164C920.484 98.7202 918.959 98.1907 919.202 97.1002C921.388 87.3211 924.22 77.1244 927.228 68.3443L922.639 66.7723C918.241 79.6122 914.14 95.7394 911.937 108.86C911.689 110.339 911.471 111.735 911.281 113.053C910.683 117.214 909.464 121.262 907.618 125.039L907.56 125.157C907.545 123.074 907.606 120.772 907.76 118.234C908.567 104.97 911.735 88.9445 916.028 76.413L911.439 74.841C907.014 87.7564 903.75 104.271 902.919 117.94C902.548 124.048 902.649 129.199 903.217 133.384C903.262 133.72 903.21 134.056 903.061 134.36C902.373 135.766 900.322 135.594 899.874 134.095C898.77 130.403 897.978 126.075 897.546 121.189C896.317 107.328 898.198 90.9999 902.454 78.5768L897.865 77.0048C892.317 93.2018 890.439 116.126 894.43 132.615C896.495 141.146 895.346 150.14 891.491 158.026L890.379 160.3C889.045 163.029 888.382 166.069 888.673 169.092C889.292 175.507 893.587 180.724 899.397 182.714C904.678 184.524 910.556 183.467 914.927 179.763C917.861 177.278 919.714 173.748 920.361 169.958L921.007 166.177C922.495 157.47 926.911 149.514 933.591 143.733Z" fill="#FDF6E9"/>
<path d="M869.166 166.32L858.734 174.636L862.397 179.231L872.829 170.915L869.166 166.32Z" fill="#7D7901"/>
<path d="M843.143 153.263L846.021 166.29L851.759 165.022L848.881 151.995L843.143 153.263Z" fill="#7D7901"/>
<path d="M885.367 150.221L888.245 163.248L893.982 161.98L891.105 148.953L885.367 150.221Z" fill="#7D7901"/>
<path d="M843.02 161.342L839.907 158.495L838.653 159.866L841.766 162.713L843.02 161.342Z" fill="#F46441"/>
<path d="M873.479 187.114L876.591 184.266L875.337 182.895L872.225 185.743L873.479 187.114Z" fill="#F46441"/>
<path d="M862.723 154.484L863.873 158.543L865.661 158.036L864.51 153.977L862.723 154.484Z" fill="#F46441"/>
<path d="M869.773 148.344L865.06 160.825L874.569 164.415L879.282 151.934L869.773 148.344Z" fill="#B5BB61"/>
<path d="M924.38 165.716L958.42 143.51C959.403 161.547 940.492 173.883 924.38 165.716Z" fill="#6F3826"/>
<path d="M919.867 233.107L1125.76 -62.6062L1133.95 -56.8379L924.772 236.563L919.867 233.107Z" fill="#F46441"/>
<path d="M930.688 234.134L1150.28 -51.5564L1158.19 -45.4089L935.425 237.816L930.688 234.134Z" fill="#F46441"/>
</g>
</g>
<defs>
<clipPath id="clip0_1528_83613">
<rect width="1335" height="464" fill="white"/>
</clipPath>
</defs>
</svg>
