<svg width="1335" height="464" viewBox="0 0 1335 464" fill="none" xmlns="http://www.w3.org/2000/svg">
<g clip-path="url(#clip0_1528_88120)">
<rect width="1335" height="464" fill="#FEC7C6"/>
<mask id="mask0_1528_88120" style="mask-type:luminance" maskUnits="userSpaceOnUse" x="-1" y="0" width="1337" height="464">
<path d="M1335.18 0H-0.179688V464H1335.18V0Z" fill="white"/>
</mask>
<g mask="url(#mask0_1528_88120)">
<path d="M1334.82 0H-0.179688V464H1334.82V0Z" fill="#FEC7C6"/>
<path d="M766.25 138.951C767.687 137.513 767.845 135.342 766.603 134.1C765.361 132.858 763.19 133.016 761.753 134.453C760.315 135.89 760.157 138.062 761.399 139.304C762.641 140.546 764.813 140.388 766.25 138.951Z" fill="#3F1B1B"/>
<path d="M721.023 139.304C722.265 138.062 722.107 135.89 720.67 134.453C719.233 133.016 717.061 132.858 715.819 134.1C714.577 135.342 714.735 137.513 716.172 138.95C717.61 140.388 719.781 140.546 721.023 139.304Z" fill="#9E3C36"/>
<path d="M524.34 276.02L569.79 343.53V378.27H578.63L585.02 370.83C588.81 366.41 591.19 360.96 591.85 355.18C591.98 354.08 592.04 352.96 592.04 351.84C592.04 348.68 591.53 345.51 590.51 342.5L563.59 262.96L600.7 257.33L629.87 252.9L621.61 304.84H621.6L620.27 313.24L617.21 326.56C611.29 352.31 623.34 378.83 646.63 391.3L671.27 404.5L688.08 413.5L626.77 487.11H648.73L744.54 436.03C767.14 423.98 767.22 391.62 744.69 379.46L785.08 401.26L797.34 407.88L815.01 417.12L948.78 487.11H967.25L815.82 362.08L815.02 336.38L729.02 326.79C719.9 325.77 713.02 318.07 713.02 308.9C713.02 307.51 713.18 306.14 713.49 304.82C714.05 302.38 715.12 300.09 716.6 298.12C718.86 295.09 722.09 292.76 725.92 291.63L753.25 283.58C774.43 277.34 794.44 267.72 812.52 255.14C812.53 255.13 812.54 255.13 812.54 255.12C812.55 255.12 812.56 255.11 812.58 255.1C815.84 252.83 819.05 250.46 822.18 247.99L846.24 263.05L987.54 351.47L1015.47 348.53L963.63 293.59C953.76 283.12 940.59 276.36 926.34 274.41L890.81 242.69C890.34 242.27 889.87 241.84 889.38 241.44C840.22 198.17 776.96 174.26 711.42 174.26C692.47 174.26 673.63 176.26 655.19 180.2C636.75 184.13 618.74 190 601.44 197.75L582.12 206.39L538.73 225.8C519.39 234.45 512.52 258.45 524.35 276.01L524.34 276.02Z" fill="#9E3C36"/>
<path d="M1067.18 301.57C1077.24 287.81 1073.74 268.29 1059.16 258.96C1046.26 250.71 1028.84 253.83 1019.57 266.01C1011.75 276.27 1011.66 289.91 1018.21 300.1C1020.15 303.12 1020.04 307.02 1017.92 309.92L1009.55 321.37L1017.82 327.42L1026.19 315.97C1028.3 313.08 1031.97 311.77 1035.43 312.71C1046.96 315.83 1059.72 311.79 1067.19 301.57H1067.18Z" fill="#151732"/>
<path d="M1014.51 291.75L1044.54 313.71C1053.22 313.31 1061.66 309.13 1067.19 301.57C1076.88 288.32 1073.99 269.73 1060.74 260.04C1047.49 250.35 1028.9 253.24 1019.21 266.49C1013.68 274.05 1012.25 283.36 1014.51 291.75Z" fill="#EC5E3A"/>
<path d="M619.061 382.4L664.321 411.84L671.281 404.49L686.131 388.81C701.291 372.81 725.301 368.97 744.701 379.44L785.091 401.24L797.351 407.86L815.021 417.1V336.37L729.021 326.78C719.901 325.76 713.021 318.06 713.021 308.89C713.021 307.5 713.181 306.13 713.491 304.81H621.601L607.401 326.28C595.041 344.97 600.271 370.15 619.051 382.37L619.061 382.4Z" fill="#82882E"/>
<path d="M600.7 257.33L629.87 252.9L621.6 304.84H713.49C714.05 302.4 715.12 300.11 716.6 298.14C718.86 295.11 722.09 292.78 725.92 291.65L753.25 283.6C774.43 277.36 794.44 267.74 812.52 255.16C812.53 255.15 812.54 255.15 812.54 255.14C812.56 255.12 812.57 255.11 812.57 255.11H812.58L837.25 267.57L846.24 263.07L889.38 241.46C840.22 198.19 776.96 174.28 711.42 174.28C692.47 174.28 673.63 176.28 655.19 180.22C636.75 184.15 618.74 190.02 601.44 197.77L582.12 206.41L600.7 257.34V257.33Z" fill="#FDF9F0"/>
<path d="M1321.73 335.03H680.03V357.65H1321.73V335.03Z" fill="#646A1A"/>
<path d="M1313 305.25H688.74V335.03H1313V305.25Z" fill="#FAEECE"/>
<path d="M1248.41 275.76L1212.1 293.46L1196.25 268.73C1191.87 261.89 1184.3 257.76 1176.18 257.76H1160.32C1153.02 257.76 1147.72 250.82 1149.63 243.78L1152.29 233.98L1153.3 230.27L1154.12 227.24L1146.92 225.28C1145.74 224.96 1145.44 223.43 1146.41 222.68L1151.36 218.87C1153.58 217.15 1155.42 214.98 1156.75 212.5L1160.12 206.24C1166.32 194.68 1178.68 187.78 1191.78 188.58C1209.86 189.68 1223.37 204.73 1223.37 222.08C1223.37 224.31 1223.14 226.57 1222.68 228.85L1220.95 237.35L1248.41 275.76Z" fill="#FF9976"/>
<path d="M923.35 343.72C923.35 326.68 909 312.98 891.72 314.06C876.44 315.02 864.22 327.81 863.92 343.12C863.67 356.02 871.64 367.09 882.95 371.44C886.3 372.73 888.51 375.95 888.51 379.53V393.71H898.76V379.53C898.76 375.95 900.95 372.73 904.29 371.45C915.44 367.17 923.35 356.37 923.35 343.71V343.72Z" fill="#151732"/>
<path d="M875.03 366.89H912.23C919 361.44 923.34 353.09 923.34 343.72C923.34 327.31 910.04 314 893.63 314C877.22 314 863.91 327.3 863.91 343.72C863.91 353.09 868.25 361.44 875.02 366.89H875.03Z" fill="#EC5E3A"/>
<path d="M1377.86 336.76L1375.66 329.65C1361.28 283.25 1314.13 255.26 1266.51 264.85L1172.76 283.73C1141.63 290 1115.71 311.47 1103.74 340.89L1085.44 385.88L1077.17 406.2L937.24 391.64C923.57 390.22 910.41 385.65 898.81 378.29V381.15C898.81 383.75 896.32 385.63 893.82 384.92L886.28 382.77L885.29 390.2C884.96 392.69 886.29 395.11 888.57 396.15L912.6 407.18L1023.18 457.73C1032.21 461.86 1042.03 464 1051.96 464H1143.51L1143.46 463.94L1190.44 393.05L1204.55 464H1417.31L1377.86 336.76Z" fill="#FF9976"/>
<path d="M1143.51 464H1143.38L1143.46 463.94L1143.51 464Z" fill="#2B130B"/>
<path d="M1334.44 393.05L1313.01 463.74H1345.59L1334.44 393.05Z" fill="#2B130B"/>
<path d="M1334.44 393.05L1377.86 336.76L1375.66 329.65C1361.28 283.25 1314.13 255.26 1266.51 264.85L1259.22 266.32C1254.64 267.24 1250.64 262.93 1252.05 258.48C1252.06 258.44 1252.08 258.39 1252.09 258.35C1256.88 243.73 1188.83 273.47 1188.83 273.47L1197.67 278.71L1172.75 283.73C1141.62 290 1115.7 311.47 1103.73 340.89L1085.43 385.88L1164.95 442.34L1190.43 393.05L1204.54 464H1345.58L1345.54 463.74L1334.43 393.05H1334.44Z" fill="#F2BF43"/>
<path fill-rule="evenodd" clip-rule="evenodd" d="M1102.81 340.513C1114.91 310.783 1141.1 289.086 1172.56 282.75L1172.96 284.71C1142.16 290.914 1116.51 312.157 1104.67 341.267L1102.81 340.513Z" fill="#E79011"/>
<path d="M1220.95 237.35L1202.27 256.03L1189.68 246.91C1184.72 243.32 1182.37 237.11 1183.71 231.14L1185.79 221.84C1186.24 219.81 1185.14 217.76 1183.2 217.02C1181.3 216.3 1179.16 217.05 1178.12 218.79L1174.83 224.33L1169.12 222.11L1173.88 212.27C1171.21 208.35 1172.06 203.03 1175.83 200.14L1178.65 197.98H1178.61C1173.12 199.45 1167.37 196.78 1164.96 191.63L1172.32 188.18C1181.07 184.08 1191.07 183.49 1200.24 186.55C1207.57 187.8 1214.13 191.85 1218.53 197.84L1220.96 201.15C1224.84 204.69 1226.58 210.02 1225.53 215.17L1223.41 225.59L1224.38 226.95C1227.04 230.68 1225.31 235.91 1220.96 237.33L1220.95 237.35Z" fill="#B6B6B6"/>
<path d="M693.91 178.45L707.86 159.24L766.99 168.84L751.56 178.45H693.91Z" fill="#FDF9F0"/>
<path d="M764.52 135.22C764.52 135.67 764.51 136.13 764.47 136.57C763.82 147.7 755.12 156.67 744.1 157.74L747.01 173.05C747.64 176.39 746.45 179.82 743.88 182.04L726.61 196.99L712.6 181.55C709.82 178.48 709.34 173.97 711.4 170.38L723.82 148.82C721.25 145.4 719.62 141.23 719.33 136.7C719.32 136.63 719.32 136.56 719.32 136.48C719.26 135.61 719.27 134.71 719.32 133.81C720 122.53 729.18 113.34 740.46 112.65C753.6 111.83 764.52 122.25 764.52 135.22Z" fill="#9E3C36"/>
<path d="M924.44 184.64C930.167 184.64 934.81 179.997 934.81 174.27C934.81 168.543 930.167 163.9 924.44 163.9C918.713 163.9 914.07 168.543 914.07 174.27C914.07 179.997 918.713 184.64 924.44 184.64Z" fill="#FDF9F0"/>
<path d="M228.9 420.77C234.627 420.77 239.27 416.127 239.27 410.4C239.27 404.673 234.627 400.03 228.9 400.03C223.173 400.03 218.53 404.673 218.53 410.4C218.53 416.127 223.173 420.77 228.9 420.77Z" fill="#EC5E3A"/>
<path d="M113.841 70.38C119.568 70.38 124.211 65.7372 124.211 60.01C124.211 54.2828 119.568 49.64 113.841 49.64C108.114 49.64 103.471 54.2828 103.471 60.01C103.471 65.7372 108.114 70.38 113.841 70.38Z" fill="#EC5E3A"/>
<path d="M459.31 287.26C465.038 287.26 469.68 282.617 469.68 276.89C469.68 271.163 465.038 266.52 459.31 266.52C453.583 266.52 448.94 271.163 448.94 276.89C448.94 282.617 453.583 287.26 459.31 287.26Z" fill="#EC5E3A"/>
<path d="M764.52 135.22C764.52 135.67 764.51 136.13 764.47 136.57L759.09 122.13L751.16 125.08C747.03 126.61 742.54 126.85 738.28 125.74L726.58 122.71L721.42 136.7H719.32V133.81C720 122.53 729.18 113.34 740.46 112.65C753.6 111.83 764.52 122.25 764.52 135.22Z" fill="#161616"/>
<path fill-rule="evenodd" clip-rule="evenodd" d="M750.382 141.936L742.072 144.586L741.769 143.634L750.079 140.984L750.382 141.936Z" fill="#161616"/>
<path d="M734.631 137.11C735.553 137.11 736.301 136.362 736.301 135.44C736.301 134.518 735.553 133.77 734.631 133.77C733.709 133.77 732.961 134.518 732.961 135.44C732.961 136.362 733.709 137.11 734.631 137.11Z" fill="#161616"/>
<path fill-rule="evenodd" clip-rule="evenodd" d="M739.173 137.599L730.023 137.099L730.078 136.101L739.228 136.601L739.173 137.599Z" fill="#9E3C36"/>
<path d="M731.161 133.77L734.851 132.17L737.331 132.75C737.521 131.86 737.021 130.96 736.151 130.69C734.961 130.32 733.161 130.58 731.161 133.77Z" fill="#161616"/>
<path d="M752.851 136.06C753.773 136.06 754.521 135.312 754.521 134.39C754.521 133.468 753.773 132.72 752.851 132.72C751.928 132.72 751.181 133.468 751.181 134.39C751.181 135.312 751.928 136.06 752.851 136.06Z" fill="#161616"/>
<path fill-rule="evenodd" clip-rule="evenodd" d="M748.647 136.601L757.427 133.981L757.713 134.939L748.933 137.559L748.647 136.601Z" fill="#9E3C36"/>
<path d="M755.84 131.96L751.88 131.27L749.6 132.41C749.2 131.59 749.49 130.6 750.27 130.13C751.34 129.5 753.16 129.33 755.84 131.96Z" fill="#161616"/>
<path d="M742.05 136.43L744.73 139.89L747.03 137.18C747.46 136.68 747.47 135.95 747.06 135.43C746.6 134.85 745.78 134.73 745.18 135.16L744.3 135.78L742.91 135.28C742.21 135.03 741.61 135.85 742.06 136.44L742.05 136.43Z" fill="#3F1B1B"/>
<path fill-rule="evenodd" clip-rule="evenodd" d="M1169.73 215.101C1169.89 215.631 1169.58 216.186 1169.05 216.34L1165.05 217.503L1168.56 218.552C1169.09 218.71 1169.39 219.267 1169.23 219.796C1169.07 220.325 1168.51 220.626 1167.98 220.468L1161.22 218.448C1160.8 218.321 1160.51 217.93 1160.51 217.486C1160.51 217.043 1160.81 216.654 1161.23 216.53L1168.49 214.42C1169.02 214.266 1169.58 214.571 1169.73 215.101Z" fill="#FF9570"/>
<path d="M1158.54 231.16C1158.73 232.16 1156.86 233.34 1154.37 233.81C1153.64 233.95 1152.93 234 1152.29 233.98L1152.83 232L1153.3 230.27C1153.43 230.24 1153.57 230.21 1153.7 230.19C1156.19 229.73 1158.36 230.16 1158.54 231.16Z" fill="#E5502E"/>
<path d="M1158.54 231.16L1152.83 232L1153.3 230.27C1153.43 230.24 1153.57 230.21 1153.7 230.19C1156.19 229.73 1158.36 230.16 1158.54 231.16Z" fill="#FF724C"/>
<path d="M1160.95 219.63C1162.15 219.63 1163.13 218.654 1163.13 217.45C1163.13 216.246 1162.15 215.27 1160.95 215.27C1159.75 215.27 1158.77 216.246 1158.77 217.45C1158.77 218.654 1159.75 219.63 1160.95 219.63Z" fill="#3F1B1B"/>
<path d="M1168.75 211.5C1168.4 211.39 1168.04 211.5 1167.79 211.72C1167.71 211.39 1167.47 211.1 1167.12 210.99C1166.77 210.88 1166.42 210.99 1166.16 211.2C1166.12 210.63 1165.74 210.11 1165.16 209.93C1164.78 209.81 1164.39 209.86 1164.07 210.03C1163.92 209.28 1163.39 208.63 1162.61 208.39C1161.48 208.04 1160.27 208.67 1159.92 209.8C1159.57 210.93 1160.2 212.14 1161.33 212.49C1162.11 212.73 1162.91 212.5 1163.46 211.98C1163.63 212.3 1163.93 212.57 1164.3 212.68C1164.88 212.86 1165.49 212.65 1165.85 212.21C1165.94 212.54 1166.17 212.82 1166.51 212.93C1166.85 213.04 1167.22 212.93 1167.47 212.71C1167.55 213.04 1167.79 213.33 1168.14 213.44C1168.68 213.61 1169.25 213.31 1169.42 212.77C1169.59 212.23 1169.29 211.66 1168.75 211.49V211.5Z" fill="#606060"/>
<path fill-rule="evenodd" clip-rule="evenodd" d="M1211.61 198.984C1211.61 198.984 1211.61 198.984 1212.06 198.09C1212.51 197.196 1212.51 197.196 1212.51 197.196L1212.51 197.196L1212.51 197.198L1212.52 197.2L1212.53 197.209C1212.55 197.216 1212.56 197.225 1212.59 197.236C1212.63 197.259 1212.69 197.292 1212.76 197.334C1212.91 197.418 1213.11 197.541 1213.34 197.704C1213.82 198.029 1214.44 198.518 1215.06 199.18C1216.12 200.329 1217.17 202.033 1217.27 204.29H1225.82V206.29H1216.24C1215.96 206.29 1215.69 206.171 1215.5 205.963C1215.31 205.755 1215.22 205.476 1215.24 205.196C1215.44 203.124 1214.56 201.592 1213.59 200.54C1213.1 200.012 1212.6 199.616 1212.21 199.353C1212.02 199.222 1211.86 199.126 1211.76 199.065C1211.7 199.034 1211.66 199.012 1211.64 198.998L1211.61 198.985L1211.61 198.983C1211.61 198.983 1211.61 198.983 1211.61 198.983L1211.61 198.984L1211.61 198.984Z" fill="#606060"/>
<path fill-rule="evenodd" clip-rule="evenodd" d="M1171.49 188.767C1171.49 188.766 1171.49 188.766 1172.31 188.2C1173.14 187.634 1173.13 187.634 1173.13 187.634L1173.13 187.633L1173.14 187.636L1173.15 187.652C1173.16 187.668 1173.18 187.693 1173.2 187.727C1173.25 187.796 1173.33 187.9 1173.44 188.036C1173.65 188.308 1173.97 188.707 1174.41 189.198C1175.3 190.181 1176.64 191.533 1178.48 192.983C1182.15 195.882 1187.77 199.174 1195.58 200.709L1195.2 202.671C1187.03 201.066 1181.11 197.613 1177.24 194.552C1175.3 193.022 1173.87 191.59 1172.93 190.534C1172.45 190.006 1172.1 189.572 1171.86 189.266C1171.74 189.112 1171.65 188.991 1171.59 188.907C1171.56 188.864 1171.53 188.831 1171.51 188.807L1171.5 188.779L1171.49 188.771L1171.49 188.768L1171.49 188.767ZM1173.13 187.633C1173.13 187.633 1173.13 187.633 1173.13 187.633L1173.13 187.633Z" fill="#606060"/>
<path fill-rule="evenodd" clip-rule="evenodd" d="M1182.49 192.527C1182.49 192.526 1182.49 192.526 1183.31 191.96C1184.14 191.394 1184.13 191.394 1184.13 191.394L1184.13 191.393L1184.14 191.396L1184.15 191.412C1184.16 191.428 1184.18 191.453 1184.2 191.487C1184.25 191.556 1184.33 191.66 1184.44 191.796C1184.65 192.068 1184.97 192.467 1185.41 192.958C1186.3 193.941 1187.64 195.293 1189.48 196.743C1193.15 199.642 1198.77 202.934 1206.58 204.469L1206.2 206.431C1198.03 204.826 1192.11 201.373 1188.24 198.312C1186.3 196.782 1184.87 195.35 1183.93 194.294C1183.45 193.766 1183.1 193.332 1182.86 193.026C1182.74 192.872 1182.65 192.751 1182.59 192.667C1182.56 192.624 1182.53 192.591 1182.51 192.567L1182.5 192.539L1182.49 192.531L1182.49 192.528L1182.49 192.527ZM1184.13 191.393C1184.13 191.393 1184.13 191.393 1184.13 191.393L1184.13 191.393Z" fill="#606060"/>
<path d="M835.531 357.66H815.021V463.95H835.531V357.66Z" fill="#151732"/>
<path fill-rule="evenodd" clip-rule="evenodd" d="M157.88 61.01H141.23V59.01H157.88C260.593 59.01 343.85 142.278 343.85 244.98H341.85C341.85 143.382 259.488 61.01 157.88 61.01Z" fill="#F0809C"/>
<path fill-rule="evenodd" clip-rule="evenodd" d="M321.941 432.364C321.941 432.365 321.941 432.365 320.941 432.35L321.941 432.365C321.934 432.811 321.632 433.199 321.201 433.315C320.77 433.432 320.314 433.248 320.084 432.866C279.388 365.272 215.961 341.257 162.615 334.146C135.941 330.591 111.809 331.267 94.3439 332.833C85.6129 333.616 78.5518 334.621 73.6771 335.429C71.2399 335.833 69.3494 336.188 68.0704 336.442C67.4309 336.568 66.9443 336.67 66.6186 336.739C66.4558 336.774 66.3332 336.801 66.2518 336.819L66.1608 336.839L66.1337 336.845C66.1327 336.845 66.1325 336.845 65.9107 335.87C65.6889 334.895 65.69 334.895 65.6917 334.894L65.6984 334.893L65.7238 334.887L65.8213 334.865C65.9071 334.846 66.0342 334.819 66.2016 334.783C66.5364 334.712 67.0324 334.608 67.6816 334.48C68.9799 334.222 70.8909 333.864 73.3499 333.456C78.2678 332.64 85.3787 331.629 94.1653 330.841C111.736 329.265 136.022 328.584 162.879 332.164C215.846 339.224 278.897 362.875 320.063 429.001C320.109 428.053 320.172 426.915 320.258 425.605C320.538 421.336 321.062 415.241 322.035 407.929C323.981 393.31 327.728 373.801 334.939 354.279C349.352 315.256 377.734 275.9 433.441 275.9V277.9C378.977 277.9 351.11 316.269 336.815 354.971C329.672 374.311 325.951 393.665 324.017 408.193C323.051 415.454 322.531 421.504 322.254 425.736C322.115 427.852 322.037 429.513 321.993 430.643C321.971 431.208 321.958 431.64 321.95 431.93C321.947 432.076 321.944 432.185 321.943 432.258L321.941 432.339L321.941 432.359L321.941 432.364Z" fill="#F0809C"/>
<path fill-rule="evenodd" clip-rule="evenodd" d="M229.9 156.27V384.13H227.9V156.27H229.9Z" fill="#F0809C"/>
<path d="M1190.44 393.05L1244.61 464H1204.55L1190.44 393.05Z" fill="#E79011"/>
<path fill-rule="evenodd" clip-rule="evenodd" d="M776.936 235.203L776 234.85C776.936 235.203 776.935 235.203 776.935 235.204L776.934 235.207L776.931 235.214L776.921 235.241C776.912 235.264 776.899 235.297 776.882 235.339C776.848 235.425 776.799 235.548 776.732 235.708C776.598 236.027 776.397 236.491 776.124 237.079C775.577 238.253 774.739 239.923 773.571 241.923C771.235 245.922 767.571 251.249 762.25 256.577C751.593 267.247 734.312 277.89 707.86 277.89V275.89C733.707 275.89 750.497 265.513 760.835 255.163C766.011 249.981 769.576 244.798 771.844 240.914C772.849 239.193 773.599 237.729 774.121 236.635L650.466 283.725L649.754 281.855L777.718 233.126L776.936 235.203Z" fill="#B6B6B6"/>
<path fill-rule="evenodd" clip-rule="evenodd" d="M542.979 265.533L583.839 258.873L584.161 260.847L543.301 267.507L542.979 265.533Z" fill="#3F1B1B"/>
<path fill-rule="evenodd" clip-rule="evenodd" d="M1240.08 270.327L1191.12 281.057L1190.7 279.103L1239.66 268.373L1240.08 270.327Z" fill="#E79011"/>
</g>
</g>
<defs>
<clipPath id="clip0_1528_88120">
<rect width="1335" height="464" fill="white"/>
</clipPath>
</defs>
</svg>
