<svg width="1335" height="464" viewBox="0 0 1335 464" fill="none" xmlns="http://www.w3.org/2000/svg">
<g clip-path="url(#clip0_1528_78617)">
<rect width="1335" height="464" fill="#D6E8D6"/>
<path d="M1335 0H0V463.59H1335V0Z" fill="#D6E8D6"/>
<path d="M817.731 118.723H1028.59L972.935 464.59H762.072L817.731 118.723Z" fill="#362C62"/>
<path d="M817.731 118.723H1028.59L1052.78 464.59H841.912L817.731 118.723Z" fill="#FEF8EC"/>
<path d="M988.067 171.745C996.212 171.745 1002.81 165.142 1002.81 156.997C1002.81 148.852 996.212 142.249 988.067 142.249C979.921 142.249 973.318 148.852 973.318 156.997C973.318 165.142 979.921 171.745 988.067 171.745Z" fill="#362C62"/>
<path fill-rule="evenodd" clip-rule="evenodd" d="M943.94 118.723C943.94 94.3564 963.699 74.5979 988.066 74.5979C1012.43 74.5979 1032.19 94.3564 1032.19 118.723C1032.19 143.09 1012.43 162.849 988.066 162.849V156.044C1008.67 156.044 1025.39 139.332 1025.39 118.723C1025.39 98.1142 1008.67 81.4021 988.066 81.4021C967.457 81.4021 950.745 98.1142 950.745 118.723H943.94Z" fill="#6AB9F9"/>
<path d="M923.162 171.745C931.307 171.745 937.91 165.142 937.91 156.997C937.91 148.852 931.307 142.249 923.162 142.249C915.017 142.249 908.414 148.852 908.414 156.997C908.414 165.142 915.017 171.745 923.162 171.745Z" fill="#362C62"/>
<path fill-rule="evenodd" clip-rule="evenodd" d="M879.037 118.723C879.037 94.3564 898.796 74.5979 923.162 74.5979C947.529 74.5979 967.288 94.3564 967.288 118.723C967.288 143.09 947.529 162.849 923.162 162.849V156.044C943.771 156.044 960.484 139.332 960.484 118.723C960.484 98.1142 943.771 81.4021 923.162 81.4021C902.553 81.4021 885.841 98.1142 885.841 118.723H879.037Z" fill="#6AB9F9"/>
<path d="M858.25 171.745C866.395 171.745 872.998 165.142 872.998 156.997C872.998 148.852 866.395 142.249 858.25 142.249C850.105 142.249 843.502 148.852 843.502 156.997C843.502 165.142 850.105 171.745 858.25 171.745Z" fill="#362C62"/>
<path fill-rule="evenodd" clip-rule="evenodd" d="M814.125 118.723C814.125 94.3564 833.883 74.5979 858.25 74.5979C882.617 74.5979 902.376 94.3564 902.376 118.723C902.376 143.09 882.617 162.849 858.25 162.849V156.044C878.859 156.044 895.571 139.332 895.571 118.723C895.571 98.1142 878.859 81.4021 858.25 81.4021C837.641 81.4021 820.929 98.1142 820.929 118.723H814.125Z" fill="#6AB9F9"/>
<path fill-rule="evenodd" clip-rule="evenodd" d="M943.94 118.723C943.94 94.3564 963.699 74.5979 988.066 74.5979V81.4021C967.457 81.4021 950.745 98.1142 950.745 118.723H943.94Z" fill="#7CAA74"/>
<path fill-rule="evenodd" clip-rule="evenodd" d="M988.065 74.5979C1012.43 74.5979 1032.19 94.3564 1032.19 118.723H1025.39C1025.39 98.1142 1008.67 81.4021 988.065 81.4021V74.5979Z" fill="#7CAA74"/>
<path fill-rule="evenodd" clip-rule="evenodd" d="M879.037 118.723C879.037 94.3564 898.796 74.5979 923.162 74.5979V81.4021C902.553 81.4021 885.841 98.1142 885.841 118.723H879.037Z" fill="#7CAA74"/>
<path fill-rule="evenodd" clip-rule="evenodd" d="M923.162 74.5979C947.529 74.5979 967.287 94.3564 967.287 118.723H960.483C960.483 98.1142 943.771 81.4021 923.162 81.4021V74.5979Z" fill="#7CAA74"/>
<path fill-rule="evenodd" clip-rule="evenodd" d="M814.125 118.723C814.125 94.3564 833.883 74.5979 858.25 74.5979V81.4021C837.641 81.4021 820.929 98.1142 820.929 118.723H814.125Z" fill="#7CAA74"/>
<path fill-rule="evenodd" clip-rule="evenodd" d="M858.258 74.5979C882.625 74.5979 902.383 94.3564 902.383 118.723H895.579C895.579 98.1142 878.867 81.4021 858.258 81.4021V74.5979Z" fill="#7CAA74"/>
<path fill-rule="evenodd" clip-rule="evenodd" d="M1031.89 119.574H814.159V117.873H1031.89V119.574Z" fill="#362C62"/>
<path d="M980.411 233.153H1000.41C1001.74 233.153 1002.81 232.075 1002.81 230.746V210.75C1002.81 209.421 1001.74 208.343 1000.41 208.343H980.411C979.081 208.343 978.004 209.421 978.004 210.75V230.746C978.004 232.075 979.081 233.153 980.411 233.153Z" fill="#D6E8D6"/>
<path fill-rule="evenodd" clip-rule="evenodd" d="M843.502 217.35H958.161V224.155H843.502V217.35Z" fill="#D5E3D2"/>
<path d="M998.34 281.004H1018.34C1019.67 281.004 1020.74 279.926 1020.74 278.597V258.601C1020.74 257.272 1019.67 256.194 1018.34 256.194H998.34C997.011 256.194 995.933 257.272 995.933 258.601V278.597C995.933 279.926 997.011 281.004 998.34 281.004Z" fill="#D6E8D6"/>
<path fill-rule="evenodd" clip-rule="evenodd" d="M861.422 265.201H976.081V272.005H861.422V265.201Z" fill="#D5E3D2"/>
<path d="M1004.6 328.854H1024.6C1025.93 328.854 1027 327.777 1027 326.447V306.451C1027 305.122 1025.93 304.044 1024.6 304.044H1004.6C1003.27 304.044 1002.19 305.122 1002.19 306.451V326.447C1002.19 327.777 1003.27 328.854 1004.6 328.854Z" fill="#D6E8D6"/>
<path fill-rule="evenodd" clip-rule="evenodd" d="M867.69 313.052H982.341V319.856H867.69V313.052Z" fill="#D5E3D2"/>
<path d="M1003.47 376.714H1023.47C1024.79 376.714 1025.87 375.636 1025.87 374.307V354.311C1025.87 352.981 1024.79 351.904 1023.47 351.904H1003.47C1002.14 351.904 1001.06 352.981 1001.06 354.311V374.307C1001.06 375.636 1002.14 376.714 1003.47 376.714Z" fill="#7CAA74"/>
<path fill-rule="evenodd" clip-rule="evenodd" d="M866.551 360.902H981.202V367.706H866.551V360.902Z" fill="#7CAA74"/>
<path d="M995.168 424.564H1015.16C1016.49 424.564 1017.57 423.487 1017.57 422.157V402.161C1017.57 400.832 1016.49 399.755 1015.16 399.755H995.168C993.839 399.755 992.761 400.832 992.761 402.161V422.157C992.761 423.487 993.839 424.564 995.168 424.564Z" fill="#D6E8D6"/>
<path fill-rule="evenodd" clip-rule="evenodd" d="M858.25 408.753H972.91V415.557H858.25V408.753Z" fill="#D5E3D2"/>
<path d="M1061.69 411.211L1045.44 426.643L1034.9 436.642L1033.33 422.195L1030.92 399.922L1046.19 405.866L1061.69 411.211Z" fill="#362C62"/>
<path d="M1146.27 195.7L1105.78 180.844L1030.12 387.061L1070.6 401.916L1146.27 195.7Z" fill="#B1D9EB"/>
<path d="M1066.78 400.517L1033.94 388.468L1029.03 401.853L1061.87 413.901L1066.78 400.517Z" fill="#45A8F8"/>
<path d="M1045.44 426.643L1034.9 436.642L1033.33 422.195L1045.44 426.643Z" fill="#45A8F8"/>
<path d="M1081.43 247.229L1099.8 322.379L1121.88 262.07L1081.43 247.229Z" fill="#6AB9F9"/>
<path d="M1145.75 134.537C1131.21 129.201 1115.11 136.667 1109.77 151.195L1075.89 243.538C1075.59 244.343 1076.01 245.248 1076.82 245.544L1120.45 261.552C1121.26 261.848 1121.68 262.744 1121.38 263.558L1107.89 300.328C1107.6 301.133 1108.01 302.038 1108.82 302.334L1114.88 304.562C1115.69 304.858 1116.59 304.447 1116.89 303.633L1159.83 186.583C1160.13 185.777 1159.72 184.873 1158.9 184.577C1158.1 184.281 1157.68 183.385 1157.97 182.571L1162.4 170.509C1167.73 155.972 1160.27 139.873 1145.74 134.537H1145.75Z" fill="#45A8F8"/>
<path d="M678.41 370.52L679.08 444.56L672.1 442.12C670.27 441.48 668.36 441.26 666.47 441.46C664.59 441.65 662.75 442.26 661.1 443.27C657.79 445.28 653.75 445.71 650.1 444.42L634.54 438.98L648.59 359.86L676.31 369.57C677.04 369.83 677.75 370.14 678.4 370.52H678.41Z" fill="#45A8F8"/>
<path d="M784.409 419.748L770.792 458.647C769.561 462.157 765.724 464.003 762.223 462.782L715.389 446.377L709.073 444.169C707.418 443.59 705.689 443.391 703.979 443.572C702.278 443.744 700.613 444.296 699.12 445.21C696.125 447.029 692.47 447.418 689.167 446.25L675.088 441.328L653.771 433.863L656.603 425.783L674.663 374.19L677.495 366.128L687.801 369.729L712.883 378.515C713.543 378.751 714.186 379.031 714.774 379.375C715.679 379.882 716.484 380.488 717.217 381.203C718.447 382.406 719.407 383.881 720.013 385.546C721.216 388.839 723.831 391.418 727.134 392.567L780.283 411.189C783.785 412.41 785.631 416.246 784.4 419.757L784.409 419.748Z" fill="#6AB9F9"/>
<path d="M600.314 415.134L603.137 407.062L621.206 355.469L624.029 347.398L588.641 335.002C585.33 333.844 581.674 334.224 578.679 336.043C575.684 337.862 572.029 338.251 568.717 337.083L515.568 318.471C512.066 317.241 508.23 319.086 507.008 322.588L493.381 361.496C492.151 364.997 493.997 368.834 497.498 370.055L550.648 388.667C553.959 389.826 556.574 392.404 557.778 395.698C558.981 398.991 561.605 401.57 564.908 402.728L600.296 415.124L600.314 415.134Z" fill="#6AB9F9"/>
<path d="M638.905 463.56C679.187 463.56 711.843 430.905 711.843 390.622C711.843 350.34 679.187 317.684 638.905 317.684C598.622 317.684 565.967 350.34 565.967 390.622C565.967 430.905 598.622 463.56 638.905 463.56Z" fill="#362C62"/>
<path d="M604.648 419.721C610.045 419.721 614.42 415.346 614.42 409.949C614.42 404.552 610.045 400.177 604.648 400.177C599.251 400.177 594.876 404.552 594.876 409.949C594.876 415.346 599.251 419.721 604.648 419.721Z" fill="#FEF8EC"/>
<path d="M629.142 428.29C634.539 428.29 638.914 423.915 638.914 418.518C638.914 413.121 634.539 408.746 629.142 408.746C623.745 408.746 619.37 413.121 619.37 418.518C619.37 423.915 623.745 428.29 629.142 428.29Z" fill="#FEF8EC"/>
<path d="M653.626 436.868C659.023 436.868 663.398 432.493 663.398 427.096C663.398 421.699 659.023 417.324 653.626 417.324C648.229 417.324 643.854 421.699 643.854 427.096C643.854 432.493 648.229 436.868 653.626 436.868Z" fill="#FEF8EC"/>
<path fill-rule="evenodd" clip-rule="evenodd" d="M628.724 345.399L611.976 393.265L609.337 392.341L626.085 344.476L628.724 345.399Z" fill="#45A8F8"/>
<path fill-rule="evenodd" clip-rule="evenodd" d="M653.218 353.968L636.46 401.842L633.821 400.919L650.579 353.044L653.218 353.968Z" fill="#45A8F8"/>
<path fill-rule="evenodd" clip-rule="evenodd" d="M677.702 362.546L660.945 410.411L658.306 409.487L675.063 361.622L677.702 362.546Z" fill="#45A8F8"/>
<path fill-rule="evenodd" clip-rule="evenodd" d="M813.341 456.408L813.342 456.407L813.342 456.406L813.346 456.402L813.37 456.371C813.393 456.343 813.429 456.298 813.478 456.236C813.577 456.114 813.73 455.928 813.934 455.685C814.343 455.198 814.959 454.484 815.773 453.595C817.403 451.816 819.82 449.34 822.946 446.585C829.209 441.066 838.255 434.482 849.453 430.105C860.627 425.736 873.931 423.568 888.805 426.831C903.686 430.096 920.343 438.841 938.143 456.638L940.256 458.751L941.962 456.298L941.962 456.298L941.963 456.297L941.965 456.293L941.983 456.269C941.999 456.246 942.024 456.21 942.06 456.161C942.13 456.062 942.238 455.913 942.382 455.718C942.67 455.326 943.103 454.75 943.672 454.027C944.81 452.579 946.488 450.547 948.629 448.23C952.923 443.584 959.021 437.859 966.312 433.4C973.606 428.94 981.953 425.832 990.807 426.183C999.598 426.531 1009.2 430.3 1019.07 440.168C1020.05 441.144 1021.63 441.144 1022.61 440.168C1023.58 439.191 1023.58 437.609 1022.61 436.632C1011.99 426.01 1001.23 421.592 991.006 421.187C980.844 420.784 971.519 424.355 963.703 429.135C955.884 433.916 949.434 439.992 944.957 444.837C942.712 447.266 940.948 449.402 939.742 450.936C939.702 450.986 939.664 451.035 939.626 451.084C922.043 434.085 905.274 425.325 889.877 421.948C873.876 418.437 859.561 420.785 847.632 425.448C835.728 430.102 826.188 437.064 819.64 442.834C816.361 445.724 813.817 448.328 812.086 450.218C811.22 451.163 810.557 451.931 810.106 452.468C809.88 452.736 809.708 452.947 809.589 453.094C809.53 453.167 809.485 453.224 809.453 453.264L809.415 453.312L809.404 453.326L809.4 453.331C809.399 453.332 809.398 453.334 811.3 454.816L809.398 453.334C808.55 454.423 808.745 455.994 809.834 456.842C810.923 457.69 812.493 457.496 813.341 456.408Z" fill="#5E9653"/>
<path d="M1317.16 294.69H1094.91C1091.04 294.69 1087.91 297.824 1087.91 301.69V376.81C1087.91 380.676 1091.04 383.81 1094.91 383.81H1317.16C1321.03 383.81 1324.16 380.676 1324.16 376.81V301.69C1324.16 297.824 1321.03 294.69 1317.16 294.69Z" fill="#ABCAA6"/>
<path d="M1306.86 284.4H1084.61C1080.74 284.4 1077.61 287.534 1077.61 291.4V366.52C1077.61 370.386 1080.74 373.52 1084.61 373.52H1306.86C1310.73 373.52 1313.86 370.386 1313.86 366.52V291.4C1313.86 287.534 1310.73 284.4 1306.86 284.4Z" fill="#FEF8EC"/>
<path fill-rule="evenodd" clip-rule="evenodd" d="M1084.61 285.4C1081.3 285.4 1078.61 288.086 1078.61 291.4V366.52C1078.61 369.834 1081.3 372.52 1084.61 372.52H1306.86C1310.17 372.52 1312.86 369.834 1312.86 366.52V291.4C1312.86 288.086 1310.17 285.4 1306.86 285.4H1084.61ZM1076.61 291.4C1076.61 286.982 1080.19 283.4 1084.61 283.4H1306.86C1311.28 283.4 1314.86 286.982 1314.86 291.4V366.52C1314.86 370.938 1311.28 374.52 1306.86 374.52H1084.61C1080.19 374.52 1076.61 370.938 1076.61 366.52V291.4Z" fill="#5E9653"/>
<path d="M1135.35 307.27H1091.98V350.64H1135.35V307.27Z" fill="#D6E8D6"/>
<path d="M1135.35 307.27H1091.98V318.11H1135.35V307.27Z" fill="#362C62"/>
<path d="M1101.9 301.85H1096.99V312.69H1101.9V301.85Z" fill="#362C62"/>
<path d="M1130.34 301.85H1125.43V312.69H1130.34V301.85Z" fill="#362C62"/>
<path d="M1127.6 323.52H1099.74V329.09H1127.6V323.52Z" fill="#362C62"/>
<path d="M1123.5 331.83H1099.74V337.4H1123.5V331.83Z" fill="#362C62"/>
<path d="M1113.67 340.15H1099.74V345.72H1113.67V340.15Z" fill="#362C62"/>
<path d="M1297.14 315.39H1258.27V331.63H1297.14V315.39Z" fill="#ABCAA6"/>
<path d="M1297.14 334.81H1258.27V350.64H1297.14V334.81Z" fill="#D6E8D6"/>
<path fill-rule="evenodd" clip-rule="evenodd" d="M1188.81 318.235L1196.63 323.866L1204.45 318.235L1212.26 323.865L1220.08 318.236L1227.9 323.865L1235.71 318.235L1244.7 324.707C1245.6 325.352 1245.8 326.602 1245.15 327.499C1244.51 328.395 1243.26 328.598 1242.36 327.953L1235.71 323.165L1227.9 328.795L1220.08 323.164L1212.26 328.795L1204.45 323.165L1196.63 328.794L1188.81 323.165L1181 328.795L1173.18 323.164L1165.36 328.794L1157.53 323.164L1150.88 327.953C1149.98 328.598 1148.73 328.395 1148.09 327.499C1147.44 326.602 1147.65 325.352 1148.54 324.707L1157.53 318.236L1165.36 323.866L1173.18 318.236L1181 323.865L1188.81 318.235Z" fill="#5E9653"/>
<path d="M745.96 228.09H679.63C677.421 228.09 675.63 229.881 675.63 232.09V298.42C675.63 300.629 677.421 302.42 679.63 302.42H745.96C748.169 302.42 749.96 300.629 749.96 298.42V232.09C749.96 229.881 748.169 228.09 745.96 228.09Z" fill="#ABCAA6"/>
<path d="M733.33 215.46H667C664.791 215.46 663 217.251 663 219.46V285.79C663 287.999 664.791 289.79 667 289.79H733.33C735.539 289.79 737.33 287.999 737.33 285.79V219.46C737.33 217.251 735.539 215.46 733.33 215.46Z" fill="#FEF8EC"/>
<path fill-rule="evenodd" clip-rule="evenodd" d="M667 216.46C665.343 216.46 664 217.803 664 219.46V285.79C664 287.447 665.343 288.79 667 288.79H733.33C734.987 288.79 736.33 287.447 736.33 285.79V219.46C736.33 217.803 734.987 216.46 733.33 216.46H667ZM662 219.46C662 216.699 664.239 214.46 667 214.46H733.33C736.091 214.46 738.33 216.699 738.33 219.46V285.79C738.33 288.551 736.091 290.79 733.33 290.79H667C664.239 290.79 662 288.551 662 285.79V219.46Z" fill="#5E9653"/>
<path d="M715.77 254.69L716.83 250.07C718.44 243.05 714.43 235.77 707.49 233.84C700.08 231.77 692.54 236.32 690.84 243.73L689.7 248.71C688.99 251.8 685.92 253.72 682.83 253.02L680.25 264.3L717.5 272.83L720.08 261.55C716.99 260.84 715.07 257.77 715.77 254.68V254.69Z" fill="#112A64"/>
<path d="M691.75 275.29C694.274 275.29 696.32 273.244 696.32 270.72C696.32 268.196 694.274 266.15 691.75 266.15C689.226 266.15 687.18 268.196 687.18 270.72C687.18 273.244 689.226 275.29 691.75 275.29Z" fill="#112A64"/>
<path d="M707.699 230.007L707.689 230.005C706.834 229.809 705.981 230.344 705.785 231.2L704.211 238.072C704.015 238.928 704.55 239.781 705.406 239.977L705.415 239.979C706.271 240.175 707.124 239.64 707.32 238.784L708.894 231.912C709.09 231.056 708.555 230.203 707.699 230.007Z" fill="#112A64"/>
</g>
<defs>
<clipPath id="clip0_1528_78617">
<rect width="1335" height="464" fill="white"/>
</clipPath>
</defs>
</svg>
