<svg width="1335" height="464" viewBox="0 0 1335 464" fill="none" xmlns="http://www.w3.org/2000/svg">
<g clip-path="url(#clip0_1528_83796)">
<mask id="mask0_1528_83796" style="mask-type:luminance" maskUnits="userSpaceOnUse" x="0" y="0" width="1335" height="464">
<path d="M1335 464H0V0H1335" fill="white"/>
</mask>
<g mask="url(#mask0_1528_83796)">
<path d="M1335.3 464H-0.299805V0H1335.3" fill="#F9D3DD"/>
<path d="M1106.42 -81.3709L1063.12 -124.674L474.991 463.455L518.294 506.758L1106.42 -81.3709Z" fill="#FFF9E3"/>
<path d="M1192.91 -81.3633L1149.61 -124.667L561.478 463.462L604.782 506.766L1192.91 -81.3633Z" fill="#F9D3DD"/>
<path d="M1278.52 -80.2488L1235.22 -123.552L647.089 464.577L690.392 507.88L1278.52 -80.2488Z" fill="#A3E2E8"/>
<path d="M1365.59 -80.251L1322.29 -123.554L734.157 464.575L777.46 507.878L1365.59 -80.251Z" fill="#97523C"/>
<path d="M1452.36 -80.2454L1409.06 -123.549L820.933 464.58L864.236 507.884L1452.36 -80.2454Z" fill="#2A2A2A"/>
<path d="M1537.28 -80.2478L1493.98 -123.551L905.85 464.578L949.153 507.881L1537.28 -80.2478Z" fill="#F3714D"/>
<path d="M1622.25 -80.2449L1578.95 -123.548L990.823 464.581L1034.13 507.884L1622.25 -80.2449Z" fill="#F5886B"/>
<path d="M1708.91 -80.2471L1665.61 -123.55L1077.48 464.579L1120.78 507.882L1708.91 -80.2471Z" fill="#F8DE9F"/>
<path d="M1795.94 -80.2446L1752.63 -123.548L1164.5 464.581L1207.81 507.884L1795.94 -80.2446Z" fill="#ABDBAB"/>
<path d="M1881.43 -79.6968L1838.13 -123L1250 465.129L1293.3 508.432L1881.43 -79.6968Z" fill="#9AC1F1"/>
<path d="M157.464 -81.3596L114.161 -124.663L-473.968 463.466L-430.665 506.769L157.464 -81.3596Z" fill="#FFF9E3"/>
<path d="M243.961 -81.3621L200.658 -124.665L-387.471 463.464L-344.168 506.767L243.961 -81.3621Z" fill="#F9D3DD"/>
<path d="M329.565 -80.2446L286.262 -123.548L-301.867 464.581L-258.564 507.884L329.565 -80.2446Z" fill="#A3E2E8"/>
<path d="M416.64 -80.2397L373.337 -123.543L-214.792 464.586L-171.489 507.889L416.64 -80.2397Z" fill="#97523C"/>
<path d="M503.416 -80.2441L460.112 -123.547L-128.017 464.582L-84.7135 507.885L503.416 -80.2441Z" fill="#2A2A2A"/>
<path d="M588.326 -80.2537L545.023 -123.557L-43.106 464.572L0.197194 507.875L588.326 -80.2537Z" fill="#F3714D"/>
<path d="M673.289 -80.251L629.985 -123.554L41.8564 464.575L85.1596 507.878L673.289 -80.251Z" fill="#F5886B"/>
<path d="M759.964 -80.2459L716.661 -123.549L128.532 464.58L171.835 507.883L759.964 -80.2459Z" fill="#F8DE9F"/>
<path d="M846.969 -80.2505L803.666 -123.554L215.537 464.575L258.84 507.878L846.969 -80.2505Z" fill="#ABDBAB"/>
<path d="M934.224 -80.2456L890.921 -123.549L302.792 464.58L346.095 507.883L934.224 -80.2456Z" fill="#9AC1F1"/>
<path d="M1019.04 -80.2388L975.738 -123.542L387.609 464.587L430.912 507.89L1019.04 -80.2388Z" fill="#AFA9DE"/>
<path d="M400.16 164.67C400.16 164.67 486.93 146.14 527.03 151.29L402.84 222.73L400.16 164.67Z" fill="#3C3E42"/>
<path d="M395.52 244.85C395.52 244.85 396.12 90.8099 408.51 211.09L395.52 244.85Z" fill="#212326"/>
<path d="M591.24 308.41L563.14 358.39L569.28 465.26H456.35L475.83 364.44L429.36 352.72C376.51 332.55 386.77 291.03 386.77 291.03L370 291.34L389.1 260.33C390.07 258.76 390.88 257.1 391.54 255.37L407.68 212.76C408.99 210.15 410.29 207.54 411.82 205.08C434.08 167.16 478.38 147.27 522.06 156.41C572.35 166.93 604.51 211.07 604.51 257.98C604.51 274.87 600.29 292.22 591.23 308.42L591.24 308.41Z" fill="#FFE4CC"/>
<path d="M426.42 446.01C425.47 436.21 430.42 426.78 439.02 421.99L534.17 369.01L563.28 468.38H451.06C438.31 468.38 427.64 458.7 426.42 446.01Z" fill="#F8DE9F"/>
<path d="M422.74 262.98C422.74 266.22 419.19 267.6 414.81 267.6C410.43 267.6 406.88 266.23 406.88 262.98C406.88 259.73 410.43 257.1 414.81 257.1C419.19 257.1 422.74 259.73 422.74 262.98Z" fill="#1A263A"/>
<path d="M402.38 244.24C402.38 244.24 420.79 235.54 434.77 253.62C434.77 253.62 417.04 246.8 402.38 250.38V244.24Z" fill="#777777"/>
<path fill-rule="evenodd" clip-rule="evenodd" d="M424.287 260.533C419.054 255.299 410.556 255.299 405.323 260.533L404.177 259.387C410.044 253.521 419.566 253.521 425.433 259.387L424.287 260.533Z" fill="#FFBDA9"/>
<path fill-rule="evenodd" clip-rule="evenodd" d="M424.86 268.41H406.88V266.79H424.86V268.41Z" fill="#FFBDA9"/>
<path d="M388.22 278.72L380.84 329.05C379.04 341.32 386.2 353.13 397.9 357.23L472.2 383.23L480.98 369.44L388.22 278.72Z" fill="#FFE4CC"/>
<path fill-rule="evenodd" clip-rule="evenodd" d="M381.27 271.485L382.65 272.334L371.476 290.493L386.755 290.21L386.785 291.83L368.544 292.167L381.27 271.485Z" fill="#FFAD94"/>
<path fill-rule="evenodd" clip-rule="evenodd" d="M388.582 291.96C387.201 292.004 384.708 292.062 380.515 292.14L380.485 290.52C383.288 290.468 385.327 290.425 386.78 290.389C386.78 290.21 386.78 290.21 386.78 290.21L387.2 290.21C387.455 290.211 387.801 290.212 388.163 290.215C388.869 290.219 389.691 290.229 389.989 290.251C390.024 290.253 390.084 290.258 390.144 290.269C390.144 290.269 390.144 290.269 390.144 290.269C390.155 290.271 390.266 290.288 390.383 290.348C390.421 290.367 390.491 290.405 390.564 290.472C390.635 290.536 390.758 290.671 390.809 290.887C390.933 291.415 390.53 291.707 390.477 291.743C390.378 291.811 390.287 291.84 390.262 291.848C390.224 291.861 390.191 291.868 390.172 291.872C390.134 291.88 390.099 291.885 390.076 291.888C390.028 291.894 389.973 291.899 389.917 291.903C389.693 291.92 389.268 291.938 388.582 291.96Z" fill="#FFAD94"/>
<path fill-rule="evenodd" clip-rule="evenodd" d="M471.933 383.984L397.633 357.984L398.168 356.455L472.468 382.455L471.933 383.984Z" fill="#FFAD94"/>
<path fill-rule="evenodd" clip-rule="evenodd" d="M397.642 357.984C385.577 353.756 378.192 341.577 380.049 328.922L381.652 329.157C379.908 341.043 386.843 352.484 398.178 356.456L397.642 357.984Z" fill="#FFAD94"/>
<path d="M408.51 211.09H450.08L459.87 287.12H482.47V180.91H429.74L408.51 211.09Z" fill="#6B6B6B"/>
<path d="M408.51 211.09L412.77 206.46C420.78 197.75 434.89 198.84 441.34 208.76C444.29 213.3 446.84 228.29 448.12 246.76C450.92 286.99 492.62 312.46 529.73 296.66L592.82 269.8L560.17 154.28C560.17 154.28 450.19 111.25 408.51 211.09Z" fill="#212326"/>
<path fill-rule="evenodd" clip-rule="evenodd" d="M411.775 301.551L393.685 305.581L393.155 303.199L411.245 299.169L411.775 301.551Z" fill="#FFA788"/>
<path d="M510.39 183.81C510.39 183.81 577.25 322.66 488.53 465.33H598.33V177.13L510.38 183.8L510.39 183.81Z" fill="#F0809C"/>
<mask id="mask1_1528_83796" style="mask-type:luminance" maskUnits="userSpaceOnUse" x="466" y="154" width="242" height="312">
<path d="M694.19 308.53L666.17 358.51L672.31 465.38H559.38L571.66 407.57L573.35 399.51C575.19 390.83 570.28 382.16 561.83 379.24L526.59 366.96C505.79 359.74 491.81 340.09 491.81 318.06V293.14C491.81 285.87 485.92 279.98 478.65 279.98H472.9C466.86 279.98 464.09 272.46 468.69 268.54L484.29 255.26C490.89 249.73 496.19 242.82 499.95 234.99L510.62 212.88C531.35 170.04 578.48 146.78 625.09 156.53C675.3 167.05 707.46 211.19 707.46 258.02C707.46 274.99 703.31 292.34 694.18 308.53H694.19Z" fill="white"/>
</mask>
<g mask="url(#mask1_1528_83796)">
<path d="M694.19 308.53L666.17 358.51L672.31 465.38H559.38L571.66 407.57L573.35 399.51C575.19 390.83 570.28 382.16 561.83 379.24L526.59 366.96C505.79 359.74 491.81 340.09 491.81 318.06V293.14C491.81 285.87 485.92 279.98 478.65 279.98H472.9C466.86 279.98 464.09 272.46 468.69 268.54L484.29 255.26C490.89 249.73 496.19 242.82 499.95 234.99L510.62 212.88C531.35 170.04 578.48 146.78 625.09 156.53C675.3 167.05 707.46 211.19 707.46 258.02C707.46 274.99 703.31 292.34 694.18 308.53H694.19Z" fill="#FFC8B3"/>
<path d="M513.47 299.08C513.47 299.08 506.79 312.34 487.33 312.34L488.8 305.46L489.78 300.99C489.78 300.99 498.04 295.19 513.46 299.08H513.47Z" fill="#FFAD94"/>
<path d="M513.47 299.08C513.47 299.08 506.79 312.34 487.33 312.34L488.8 305.46L513.46 299.08H513.47Z" fill="#FF8C71"/>
</g>
<path d="M507.541 255.44C507.541 247.41 514.051 240.9 522.081 240.9C530.111 240.9 536.62 247.41 536.62 255.44" fill="#948DD4"/>
<path fill-rule="evenodd" clip-rule="evenodd" d="M532.074 246.645C527.219 241.121 518.81 240.581 513.286 245.436C512.78 245.881 512.009 245.831 511.564 245.325C511.119 244.819 511.169 244.048 511.675 243.603C518.211 237.859 528.162 238.498 533.907 245.034C534.351 245.54 534.302 246.311 533.796 246.756C533.29 247.201 532.519 247.151 532.074 246.645Z" fill="#1A263A"/>
<path d="M522.07 260.03C524.605 260.03 526.66 257.975 526.66 255.44C526.66 252.905 524.605 250.85 522.07 250.85C519.535 250.85 517.48 252.905 517.48 255.44C517.48 257.975 519.535 260.03 522.07 260.03Z" fill="#1A263A"/>
<path d="M491.82 312.97V347.11C491.82 353.87 496.27 359.82 502.75 361.74L561.84 379.24V312.97H491.82Z" fill="#FFC8B3"/>
<path fill-rule="evenodd" clip-rule="evenodd" d="M561.611 380.016L502.521 362.516L502.981 360.963L562.071 378.463L561.611 380.016Z" fill="#FFAD94"/>
<path fill-rule="evenodd" clip-rule="evenodd" d="M502.52 362.516C495.697 360.495 491.01 354.229 491.01 347.11H492.63C492.63 353.511 496.844 359.145 502.98 360.963L502.52 362.516Z" fill="#FFAD94"/>
<path d="M535.75 274.85L531.88 274.62L530.46 278.22L529.49 274.47L525.62 274.24L528.89 272.16L527.91 268.41L530.91 270.87L534.17 268.78L532.76 272.39L535.75 274.85Z" fill="#948DD4"/>
<path d="M542.311 256.32L544.661 254.81L543.961 252.11L546.121 253.88L548.471 252.38L547.451 254.98L549.611 256.75L546.821 256.59L545.801 259.19L545.101 256.48L542.311 256.32Z" fill="#6257BF"/>
<path d="M532.38 260.8C533.27 260.8 533.991 260.079 533.991 259.19C533.991 258.301 533.27 257.58 532.38 257.58C531.491 257.58 530.771 258.301 530.771 259.19C530.771 260.079 531.491 260.8 532.38 260.8Z" fill="white"/>
<path d="M541.9 269.99C542.552 269.99 543.08 269.462 543.08 268.81C543.08 268.158 542.552 267.63 541.9 267.63C541.249 267.63 540.72 268.158 540.72 268.81C540.72 269.462 541.249 269.99 541.9 269.99Z" fill="#F0809C"/>
<path d="M510.39 183.81C510.39 183.81 510.5 184.71 510.78 186.31C517.9 226.48 553.33 255.45 594.13 255.45H691.19L683.04 164.2C683.04 164.2 593.1 100.92 510.39 183.82V183.81Z" fill="#F0809C"/>
<path fill-rule="evenodd" clip-rule="evenodd" d="M598.36 252.03C557.178 252.03 521.403 222.788 514.213 182.221L515.808 181.938C522.858 221.712 557.943 250.41 598.36 250.41V252.03Z" fill="#FF5E3E"/>
<path fill-rule="evenodd" clip-rule="evenodd" d="M605.22 245.17C564.038 245.17 528.263 215.928 521.073 175.361L522.668 175.078C529.718 214.851 564.803 243.55 605.22 243.55V245.17Z" fill="#FF5E3E"/>
<path fill-rule="evenodd" clip-rule="evenodd" d="M612.47 237.92C571.288 237.92 535.513 208.678 528.323 168.111L529.918 167.828C536.968 207.601 572.053 236.3 612.47 236.3V237.92Z" fill="#FF5E3E"/>
<path fill-rule="evenodd" clip-rule="evenodd" d="M553.159 282.323L520.59 306.233L519.631 304.927L552.201 281.017L553.159 282.323Z" fill="#FFAD94"/>
<path d="M633.03 197.29L631.4 198.52C624.53 203.68 626.05 214.38 634.08 217.43C636.68 218.42 637.74 221.53 636.27 223.9L631.65 231.36C628.84 235.9 630.86 241.87 635.85 243.77L642.16 246.17L634.11 256.45C626.35 266.35 625.98 280.17 633.21 290.47C634.86 292.82 634.98 295.91 633.52 298.38L622.74 316.61C619.72 321.71 622.03 328.31 627.57 330.42C630.2 331.42 630.96 334.78 629.01 336.81L608.73 358.02C601.27 365.82 603.54 378.63 613.22 383.39C616.6 385.06 617.23 389.61 614.43 392.13C607.79 398.09 608.79 408.77 616.42 413.39L619.94 415.53C623.7 417.81 624.09 423.11 620.71 425.91L620.62 425.98C615.68 430.08 612.98 436.27 613.33 442.68C613.76 450.7 618.88 457.71 626.39 460.56C661.75 474 700.95 453.81 710.55 417.23L754.15 251.1L750.28 214.81C749.15 204.18 740.52 195.9 729.84 195.22L726.09 194.98L715.33 184.54C709.51 178.9 700.89 177.27 693.41 180.41L684.74 184.05L677.87 176.33C673.1 170.97 664.7 171.04 660.02 176.48L653.84 183.67L646.3 179.92C637.8 175.69 628.45 183.88 631.51 192.87L633.02 197.29H633.03Z" fill="#08233A"/>
<path d="M639.67 465.24L653.63 399.41C655.47 390.72 650.56 382.01 642.17 379.09L606.9 366.82C586.09 359.58 572.13 339.96 572.13 317.92V279.83L554.91 279.85L590.97 212.75C611.65 169.92 658.84 146.69 705.39 156.42C773.84 170.73 808.71 247.37 774.53 308.37L746.49 358.42L752.63 465.24H639.67Z" fill="#914D44"/>
<path d="M606.09 184.15L604.86 186.1C599.67 194.32 605.58 205.03 615.29 205.03C618.44 205.03 620.81 207.9 620.21 210.99L618.32 220.74C617.17 226.67 621.71 232.17 627.75 232.17H635.39L631 246.28C626.77 259.87 631.94 274.63 643.72 282.62C646.41 284.44 647.78 287.67 647.23 290.86L643.15 314.47C642.01 321.08 647.1 327.13 653.81 327.13C656.99 327.13 659.14 330.37 657.9 333.31L644.98 363.9C640.23 375.15 647.77 387.78 659.93 388.93C664.18 389.33 666.67 393.9 664.72 397.69C660.1 406.66 665.45 417.55 675.37 419.38L679.95 420.22C684.84 421.12 687.38 426.57 684.94 430.89L684.88 431C681.31 437.32 680.94 444.96 683.88 451.6C687.56 459.9 695.79 465.26 704.87 465.26H784.98L755.79 192.39L737.11 155.56C731.64 144.77 719.19 139.49 707.62 143.05L703.56 144.3L687.98 137.59C679.56 133.96 669.78 135.71 663.14 142.03L655.43 149.36L645.06 143.96C637.86 140.21 629.01 143.66 626.25 151.3L622.61 161.38L613.14 160.45C602.45 159.4 595.85 171.82 602.7 180.09L606.07 184.16L606.09 184.15Z" fill="#1A263A"/>
<path d="M589.36 201.23L588.3 202.9C583.85 209.95 588.91 219.13 597.25 219.13C599.95 219.13 601.98 221.59 601.47 224.24L599.85 232.6C598.87 237.68 602.76 242.41 607.94 242.41H614.49L610.73 254.51C607.11 266.17 611.54 278.82 621.64 285.67C623.94 287.23 625.12 290 624.65 292.74L621.15 312.99C620.17 318.66 624.54 323.85 630.29 323.85C633.02 323.85 634.86 326.63 633.8 329.15L622.72 355.38C618.64 365.03 625.11 375.86 635.54 376.84C639.18 377.18 641.32 381.1 639.65 384.35C635.69 392.04 640.27 401.38 648.78 402.95L652.71 403.67C656.9 404.44 659.08 409.11 656.99 412.82L656.94 412.91C653.88 418.33 653.56 424.88 656.08 430.57C659.24 437.69 666.29 442.28 674.08 442.28H742.78L717.75 208.26L701.73 176.68C697.03 167.43 686.36 162.9 676.44 165.96L672.96 167.03L659.6 161.27C652.38 158.16 643.99 159.66 638.29 165.08L631.68 171.37L622.79 166.74C616.62 163.52 609.02 166.49 606.66 173.03L603.53 181.68L595.4 180.88C586.23 179.98 580.57 190.63 586.45 197.72L589.34 201.21L589.36 201.23Z" fill="#08233A"/>
<path fill-rule="evenodd" clip-rule="evenodd" d="M607.166 366.055L628.626 373.525L628.094 375.055L606.634 367.585L607.166 366.055Z" fill="#491710"/>
<path d="M862.94 308.41L834.92 358.39L841.06 465.26H728.05L742.02 399.39C743.86 390.71 738.95 382.04 730.58 379.12L695.26 366.84C674.46 359.62 660.48 339.97 660.48 317.94V279.86L637.91 267.88C634.53 266.11 634.53 261.2 637.99 259.44L662.94 246.7L679.37 212.77C681.06 209.32 682.9 206.01 684.98 202.79C707.63 166.4 751 147.44 793.76 156.42C809.65 159.72 823.7 166.4 835.45 175.38C861.17 195.03 876.22 225.89 876.22 257.99C876.22 274.88 872 292.23 862.94 308.43V308.41Z" fill="#FFDAC7"/>
<path d="M713.53 465.25L704.95 442.64C700.58 431.12 706.98 418.31 718.82 414.89C731.94 411.09 745.16 420.58 745.76 434.23L746.47 450.37L751.21 424.52C752.99 414.81 760.83 407.36 770.61 406.06C782.89 404.43 794.22 412.93 796.1 425.18L799.47 447.17L806.77 417.49C808.6 410.05 814.61 404.36 822.14 402.94C832.74 400.95 842.95 407.92 844.95 418.51L853.8 465.24H713.52L713.53 465.25Z" fill="#75C476"/>
<path d="M660.53 293.55L684.87 286.69C684.87 286.69 665.35 280.79 660.53 285.6V293.55Z" fill="#FF5E3E"/>
<path d="M835.45 175.36L794.84 349.71L740.69 308C728.09 298.29 727.22 279.1 739.55 269.05C779.54 236.45 765.92 192.18 729.13 192.18C692.34 192.18 731.03 200.53 743.66 203.06C744.89 203.31 745.09 205.02 743.98 205.6C715.02 220.77 696.15 213.05 684.98 202.77C707.63 166.38 751 147.42 793.76 156.4C809.65 159.7 823.7 166.38 835.45 175.36Z" fill="#F5CF72"/>
<mask id="mask2_1528_83796" style="mask-type:luminance" maskUnits="userSpaceOnUse" x="722" y="154" width="241" height="312">
<path d="M962.12 257.89C962.12 211.06 929.95 166.92 879.75 156.4C833.15 146.65 786.01 169.91 765.28 212.75L754.61 234.86C750.85 242.69 745.55 249.6 738.95 255.13L724.98 267.03C719.84 271.41 722.91 279.85 729.66 279.85H746.47V297.28L745.76 362.42L816.48 379.12C824.92 382.04 829.84 390.71 828 399.39L826.31 407.45L814.03 465.26H926.96L920.82 358.39L948.84 308.41C957.98 292.21 962.12 274.86 962.12 257.9V257.89Z" fill="white"/>
</mask>
<g mask="url(#mask2_1528_83796)">
<path d="M962.12 257.89C962.12 211.06 929.95 166.92 879.75 156.4C833.15 146.65 786.01 169.91 765.28 212.75L754.61 234.86C750.85 242.69 745.55 249.6 738.95 255.13L724.98 267.03C719.84 271.41 722.91 279.85 729.66 279.85H746.47V297.28L745.76 362.42L816.48 379.12C824.92 382.04 829.84 390.71 828 399.39L826.31 407.45L814.03 465.26H926.96L920.82 358.39L948.84 308.41C957.98 292.21 962.12 274.86 962.12 257.9V257.89Z" fill="#FFA476"/>
<path d="M784.99 297.29L800.81 313.99L840.68 274.12L816.49 379.11L697.87 357.8L746.47 297.28L784.99 297.29Z" fill="#DBBDAF"/>
</g>
<path d="M919.36 407.44V465.25H814.03L826.32 407.44H919.36Z" fill="#F25F02"/>
<path d="M748.55 169.71C752.92 183.86 765.5 193.89 780.26 194.99L850.83 200.27L836.23 206.82C826.34 211.26 822.77 223.5 828.74 232.56L845.15 257.43L935.33 183.85L917.54 165.23C902.75 149.75 881.45 142.26 860.23 145.07L811.34 151.55L790.08 138.02C776.78 129.56 759.11 133.82 751.14 147.42C747.19 154.16 746.25 162.24 748.56 169.7L748.55 169.71Z" fill="#FFF9E3"/>
<path fill-rule="evenodd" clip-rule="evenodd" d="M880.375 155.011C931.424 164.601 963.74 210.348 963.74 257.7C963.74 274.859 959.551 292.416 950.304 308.806L950.303 308.809M922.459 358.476L950.303 308.809L922.459 358.476ZM922.459 358.476L928.652 466.28H814.43V463.84H926.068L919.982 357.904L948.176 307.613L948.178 307.61C957.21 291.601 961.3 274.459 961.3 257.7C961.3 211.391 929.696 166.759 879.925 157.409L880.375 155.011" fill="#AD9C95"/>
<path fill-rule="evenodd" clip-rule="evenodd" d="M746.06 331.261L747.68 331.298L746.995 361.592L817.076 378.141L816.704 379.718L745.346 362.867L746.06 331.261Z" fill="#AD9C95"/>
<path fill-rule="evenodd" clip-rule="evenodd" d="M753.881 234.508L764.551 212.398L766.01 213.102L755.34 235.21C755.34 235.211 755.34 235.21 755.34 235.21C751.533 243.139 746.163 250.142 739.473 255.748C739.472 255.749 739.471 255.75 739.47 255.751L725.505 267.646C725.505 267.646 725.506 267.646 725.505 267.646C720.931 271.544 723.674 279.04 729.66 279.04V280.66C722.147 280.66 718.749 271.275 724.455 266.413L738.425 254.513L738.43 254.509C744.938 249.056 750.168 242.239 753.88 234.509L753.881 234.508Z" fill="#F7956B"/>
<path d="M746.47 312.45L773.8 297.28H746.47V312.45Z" fill="#FF7555"/>
<path d="M746.48 279.83L784.99 297.29H744.58L746.48 279.83Z" fill="#592E26"/>
<path d="M897.02 465.24L910.98 399.41C912.82 390.72 907.91 382.01 899.52 379.09L864.25 366.82C843.44 359.58 829.48 339.96 829.48 317.92V279.83L806.86 267.87C803.46 266.07 803.5 261.2 806.92 259.45L813.09 256.3C825.32 250.06 835.17 239.99 841.14 227.62L848.32 212.75C869 169.92 916.19 146.69 962.74 156.42C1031.19 170.73 1066.06 247.37 1031.88 308.37L1003.84 358.42L1009.98 465.24H897.02Z" fill="#FFD092"/>
<path fill-rule="evenodd" clip-rule="evenodd" d="M830.3 317.92C830.3 339.615 844.042 358.928 864.526 366.055L863.994 367.585C842.859 360.232 828.68 340.305 828.68 317.92H830.3Z" fill="#FF5E3E"/>
<path d="M1026.87 465.24H864.5L881.3 455.44L891.26 449.51L924.44 430.08L942.23 419.62L960.92 408.67L981.83 396.4L998.55 386.6L1004.72 403.65L1026.87 465.24Z" fill="#FFF9E3"/>
<path d="M926.42 438.64C926.42 449.34 917.77 457.91 907.15 457.91C900.56 457.91 894.72 454.62 891.26 449.51L924.44 430.08C925.68 432.63 926.42 435.51 926.42 438.64Z" fill="#F5B0C1"/>
<path d="M973.68 461.12C973.68 462.6 973.43 464 972.94 465.24H947.5C947.01 464 946.76 462.61 946.76 461.12C946.76 453.71 952.77 447.62 960.18 447.62C967.59 447.62 973.68 453.71 973.68 461.12Z" fill="#F5B0C1"/>
<path d="M967.09 419.37C967.09 426.29 961.57 431.8 954.66 431.8C947.75 431.8 942.39 426.45 942.23 419.61L960.92 408.66C964.63 410.72 967.1 414.75 967.1 419.36L967.09 419.37Z" fill="#F5B0C1"/>
<path d="M894.64 465.24H864.5L881.3 455.44C886.98 456.76 891.76 460.38 894.64 465.24Z" fill="#F5B0C1"/>
<path d="M1004.72 403.65C1002.25 405.96 998.96 407.36 995.42 407.36C988.67 407.36 983.15 402.67 981.83 396.41L998.55 386.61L1004.73 403.65H1004.72Z" fill="#F5B0C1"/>
<path d="M864.48 250.39H859.14C856.25 250.39 854.8 246.89 856.84 244.85C861.06 240.63 867.89 240.63 872.11 244.85C874.16 246.9 872.71 250.39 869.81 250.39H864.47H864.48Z" fill="#1A263A"/>
<path d="M848.5 285.61L848.42 285.69C848.19 286.46 843.81 299.82 829.46 299.82V285.62L835.53 288.61L848.5 285.62V285.61Z" fill="#FF7555"/>
<path d="M848.5 285.61L848.42 285.69C847.42 286.53 839.28 293.37 829.46 293.37V285.62L835.53 288.61L848.5 285.62V285.61Z" fill="#FF5E3E"/>
<path fill-rule="evenodd" clip-rule="evenodd" d="M868.27 250.795H859.14V249.985H868.27C872.743 249.985 877.134 251.184 880.986 253.461L887.116 257.081L886.704 257.779L880.574 254.159L880.574 254.159C876.847 251.955 872.598 250.795 868.27 250.795Z" fill="#FF5E3E"/>
<path fill-rule="evenodd" clip-rule="evenodd" d="M880.55 250.795H868.27V249.985H880.55V250.795Z" fill="#FF5E3E"/>
<path fill-rule="evenodd" clip-rule="evenodd" d="M850.432 299.884L844.752 269.244L845.548 269.096L851.228 299.736L850.432 299.884Z" fill="#FF5E3E"/>
<path d="M895.03 225.89L874.57 214.41C853.14 202.39 845.84 175.05 858.44 153.94C870.7 133.41 897.19 126.55 917.87 138.56L939.36 151.04L939.71 150.59C955.43 130.21 984.27 125.54 1005.62 139.92C1028.08 155.06 1033.91 185.59 1018.62 207.94L990.96 248.35L1017.38 330.05C1028.45 364.27 1002.94 399.33 966.98 399.33H894.57L947.79 261.64H930.5C917.28 261.64 905.44 253.45 900.78 241.08L895.06 225.89H895.03Z" fill="#757575"/>
<path d="M971.01 412.2L1063.88 407.44V469.88H983.29L971.01 412.2Z" fill="#F2BF43"/>
<path d="M1120.27 308.41L1092.25 358.39L1098.39 465.26H985.38L999.35 399.39C999.58 398.16 999.73 397.01 999.73 395.78C999.73 388.41 995.12 381.65 987.91 379.12L952.67 366.84C931.79 359.62 917.89 339.97 917.89 317.94V279.86L907.76 274.49C899.09 269.96 899.24 257.45 907.91 252.99L920.35 246.69L936.7 212.76C941.84 202.17 948.6 192.72 956.51 184.74C980.69 160.4 1016.08 149.04 1051.17 156.41C1068.75 160.1 1084.1 167.85 1096.62 178.44C1119.96 198.09 1133.55 227.5 1133.55 257.97C1133.55 274.86 1129.33 292.21 1120.27 308.41Z" fill="#CE5B52"/>
<path d="M1109.29 198.93L1049.64 370.67L1033.6 390.78L999.74 395.77L980.44 398.61C953.55 402.57 926.9 390.07 912.75 366.87C901.81 348.93 899.81 326.94 907.35 307.32L917.9 279.85L988.53 292.52L1030.83 266.96L997.85 215.21C993.84 208.92 996.4 200.54 1003.23 197.55L1013.83 192.92C1018.62 190.83 1017.06 183.68 1011.84 183.77L956.52 184.73C980.7 160.39 1016.09 149.03 1051.18 156.4C1068.76 160.09 1084.11 167.84 1096.63 178.43L1109.3 198.93H1109.29Z" fill="#1A263A"/>
<path d="M948.41 248.36C950.835 248.36 952.8 245.647 952.8 242.3C952.8 238.953 950.835 236.24 948.41 236.24C945.986 236.24 944.02 238.953 944.02 242.3C944.02 245.647 945.986 248.36 948.41 248.36Z" fill="#1A263A"/>
<path d="M936.63 223.88L960.2 227.57V236.09L935.33 232.25L936.63 223.88Z" fill="#1A263A"/>
<path d="M963.73 228.11V236.63L962.66 236.47L961.51 227.72L963.73 228.11Z" fill="#1A263A"/>
<path d="M970.26 229.1L968.96 237.47L966.11 237.01L965.04 228.26L970.26 229.1Z" fill="#1A263A"/>
<path d="M995.39 469.88L1001.11 412.2L1013.38 469.88H995.39Z" fill="#121831"/>
<path d="M1001.11 412.2L1093.97 407.44V469.88H1013.38L1001.11 412.2Z" fill="#F2BF43"/>
<path d="M1206.25 308.41L1178.15 358.39L1184.29 465.26H1071.36L1085.33 399.39C1087.17 390.71 1082.26 382.04 1073.89 379.12L1038.57 366.84C1017.77 359.62 1003.79 339.97 1003.79 317.94V279.86L981.22 267.88C977.77 266.11 977.84 261.2 981.22 259.44L1006.25 246.7L1022.68 212.77C1023.99 210.16 1025.29 207.55 1026.82 205.09C1049.08 167.17 1093.38 147.28 1137.06 156.42C1187.35 166.94 1219.51 211.08 1219.51 257.99C1219.51 274.88 1215.29 292.23 1206.23 308.43L1206.25 308.41Z" fill="#FFB39F"/>
<path d="M1219.53 257.97C1219.53 274.86 1215.31 292.21 1206.25 308.41L1178.15 358.39C1140.3 358.39 1110.9 325.53 1115.04 287.91L1116.73 272.33C1117.57 264.81 1111.74 258.2 1104.14 258.2C1097.84 258.2 1092.47 262.88 1091.63 269.18L1089.63 283.38H1084.56L1070.89 230.64C1066.97 215.75 1072.81 200.01 1085.4 191.18L1093.15 185.73L1026.82 205.08C1049.08 167.16 1093.38 147.27 1137.06 156.41C1187.35 166.93 1219.51 211.07 1219.51 257.98L1219.53 257.97Z" fill="#FFCFC5"/>
<path fill-rule="evenodd" clip-rule="evenodd" d="M1104.15 257.39C1112.24 257.39 1118.44 264.425 1117.55 272.42L1115.94 272.24C1116.72 265.194 1111.26 259.01 1104.15 259.01V257.39Z" fill="#FF927D"/>
<path fill-rule="evenodd" clip-rule="evenodd" d="M1117.55 272.417L1115.86 287.997L1114.25 287.822L1115.94 272.242L1117.55 272.417Z" fill="#FF927D"/>
<path fill-rule="evenodd" clip-rule="evenodd" d="M1162.95 126.84C1179.34 126.439 1195.06 135.319 1202.91 150.537C1202.91 150.538 1202.91 150.539 1202.91 150.541L1206.18 156.882C1227.16 158.656 1243.92 175.768 1244.86 197.199C1244.86 197.201 1244.86 197.203 1244.86 197.205C1244.86 197.206 1244.86 197.208 1244.86 197.21L1245.71 216.541L1253.78 238.048C1260.33 255.531 1257.45 275.168 1246.12 290.03L1235.43 304.049L1231.05 327.143C1227.71 344.778 1210.7 356.364 1193.07 353.021C1175.43 349.678 1163.85 332.672 1167.19 315.037L1172.16 288.81C1172.16 288.802 1172.16 288.794 1172.17 288.786C1173.66 280.884 1176.97 273.534 1181.74 267.26L1190.84 255.325L1183.04 234.551C1181.84 231.349 1181.15 227.978 1181 224.561L1180.86 221.273C1170.88 219.583 1162.13 213.3 1157.4 204.122L1153.33 196.22L1152.24 196.562C1138.97 200.737 1124.96 195.962 1116.84 185.531C1111.14 187.095 1105.03 187.101 1099.19 185.407C1095.51 188.917 1091 191.571 1085.97 193.058L1056.52 201.758C1039.3 206.843 1021.23 197.011 1016.14 179.797C1011.06 162.584 1020.89 144.507 1038.1 139.421L1051.22 135.546C1060.31 118.092 1080.84 109.307 1099.92 115.16C1119.42 96.6788 1151.47 102.749 1162.95 126.84Z" fill="#61B1E6"/>
<path d="M1026.84 244.77L1029.78 246.23C1035.65 249.14 1042.51 249.31 1048.51 246.69C1042.85 252.35 1035.18 255.52 1027.19 255.52H1026.84V244.77Z" fill="#7C73C9"/>
<path d="M1046.36 242.35C1046.36 242.35 1032.02 233.49 1015.21 238.58C1015.29 238.45 1015.37 238.31 1015.46 238.18C1021.97 227.83 1037.37 228.38 1043.99 238.66L1046.36 242.34V242.35Z" fill="#61B1E6"/>
<path d="M1102.65 303.92C1106.31 303.92 1109.28 300.951 1109.28 297.29C1109.28 293.628 1106.31 290.66 1102.65 290.66C1098.99 290.66 1096.02 293.628 1096.02 297.29C1096.02 300.951 1098.99 303.92 1102.65 303.92Z" fill="#1A263A"/>
<path d="M1003.81 289.08L1022.96 286.69L1003.81 294.5V289.08Z" fill="#7C73C9"/>
<path d="M1022.96 286.69C1022.96 286.69 1013.74 302.64 1003.81 302.64V294.5L1022.96 286.69Z" fill="#121831"/>
<path d="M1026.84 256.23C1029.41 256.23 1031.5 253.651 1031.5 250.47C1031.5 247.289 1029.41 244.71 1026.84 244.71C1024.27 244.71 1022.18 247.289 1022.18 250.47C1022.18 253.651 1024.27 256.23 1026.84 256.23Z" fill="#1A263A"/>
<path fill-rule="evenodd" clip-rule="evenodd" d="M1015.64 238.666C1015.64 238.666 1015.64 238.666 1015.34 238.39C1015.04 238.114 1015.04 238.114 1015.04 238.114L1015.04 238.113L1015.05 238.11L1015.06 238.1L1015.09 238.064C1015.12 238.033 1015.17 237.988 1015.22 237.93C1015.34 237.815 1015.51 237.651 1015.73 237.45C1016.17 237.048 1016.82 236.498 1017.65 235.902C1019.31 234.71 1021.7 233.324 1024.62 232.564C1027.54 231.804 1030.99 231.673 1034.75 232.992C1038.51 234.31 1042.55 237.065 1046.67 242.031L1046.05 242.549C1042 237.67 1038.07 235.015 1034.48 233.756C1030.89 232.498 1027.61 232.622 1024.82 233.348C1022.03 234.075 1019.73 235.406 1018.12 236.559C1017.32 237.135 1016.7 237.665 1016.27 238.05C1016.06 238.242 1015.9 238.398 1015.79 238.504C1015.74 238.558 1015.7 238.599 1015.67 238.626L1015.64 238.657L1015.64 238.664L1015.64 238.665L1015.64 238.666Z" fill="#1A263A"/>
<path d="M1055.82 469.88L1072.9 420.91L1189.63 374.22L1193.62 465.25L1055.82 469.88Z" fill="#1A263A"/>
<path d="M773.8 297.28L765.59 299.81L746.47 305.72V297.28H773.8Z" fill="#1A263A"/>
<path d="M773.8 297.28L773.52 297.36C768.23 298.99 762.84 300.27 757.39 301.19L746.47 303.03V297.28H773.8Z" fill="#FFF3EB"/>
<path d="M769.92 252.14C773.289 252.14 776.02 249.409 776.02 246.04C776.02 242.671 773.289 239.94 769.92 239.94C766.551 239.94 763.82 242.671 763.82 246.04C763.82 249.409 766.551 252.14 769.92 252.14Z" fill="#1A263A"/>
<path d="M762.86 232.67C762.86 232.67 778.42 236.67 787.82 241.69C787.82 241.69 776.95 227 762.86 227V232.68V232.67Z" fill="#592E26"/>
<path d="M719.1 252.42C713.33 242.48 702.56 235.11 690.89 235.13C687.1 235.11 683.33 235.7 679.69 236.78L678.73 233.14C690.9 230.11 704.03 233.14 712.78 242.31C715.61 245.2 718.02 248.43 719.82 252.06L719.09 252.42H719.1Z" fill="#1A263A"/>
<path d="M674.11 277.19C675.055 277.19 675.82 276.424 675.82 275.48C675.82 274.535 675.055 273.77 674.11 273.77C673.166 273.77 672.4 274.535 672.4 275.48C672.4 276.424 673.166 277.19 674.11 277.19Z" fill="#1A263A"/>
<path d="M700.91 251.61C700.91 254.64 698.45 255.32 695.43 255.32C692.41 255.32 689.95 254.64 689.95 251.61C689.95 248.58 692.41 246.13 695.43 246.13C698.45 246.13 700.91 248.59 700.91 251.61Z" fill="#1A263A"/>
<path d="M684.86 286.69C684.86 286.69 674.99 308.73 660.52 308.73V293.55L684.86 286.69Z" fill="#EB3F24"/>
<path fill-rule="evenodd" clip-rule="evenodd" d="M652.751 271.494C650.885 270.531 648.613 271.252 647.654 273.109C646.693 274.971 647.419 277.246 649.27 278.206C651.133 279.167 653.407 278.44 654.367 276.588L656.533 277.711C654.953 280.759 651.208 281.952 648.151 280.374L648.149 280.373C645.101 278.793 643.908 275.048 645.486 271.99C647.067 268.928 650.815 267.749 653.87 269.326L652.751 271.494Z" fill="#B5B5B5"/>
<path d="M599.5 261.9C603.14 261.9 606.09 258.949 606.09 255.31C606.09 251.67 603.14 248.72 599.5 248.72C595.861 248.72 592.91 251.67 592.91 255.31C592.91 258.949 595.861 261.9 599.5 261.9Z" fill="#1A263A"/>
<path d="M572.13 291L570.19 299.01L596.69 293.55L572.13 291Z" fill="#592E26"/>
<path d="M570.19 299.01L572.13 306.67L596.69 293.55L570.19 299.01Z" fill="#491710"/>
<path fill-rule="evenodd" clip-rule="evenodd" d="M580.543 213.729C582.769 213.46 584.792 215.046 585.061 217.272L592.041 274.992C592.31 277.219 590.724 279.241 588.498 279.511C586.271 279.78 584.249 278.193 583.979 275.967L576.999 218.247C576.73 216.021 578.317 213.998 580.543 213.729Z" fill="#75C476"/>
<path fill-rule="evenodd" clip-rule="evenodd" d="M648.15 244.94H584.07V240.88H648.15V244.94Z" fill="#75C476"/>
<path d="M912.67 293.49L939.7 291.2C939.7 291.2 934.86 310.15 908.76 303.66L912.66 293.49H912.67Z" fill="#CE5B52"/>
<path d="M939.7 291.2L915.4 286.37L912.67 293.49L939.7 291.2Z" fill="#7F332F"/>
<path d="M939.68 291.17C939.68 291.17 926.18 301.3 910.86 298.09L911.19 297.27L912.67 293.48L939.68 291.17Z" fill="#1A263A"/>
<path d="M939.68 291.17L911.19 297.26L912.67 293.48L939.68 291.17Z" fill="white"/>
</g>
</g>
<defs>
<clipPath id="clip0_1528_83796">
<rect width="1335" height="464" fill="white"/>
</clipPath>
</defs>
</svg>
