<svg width="1335" height="464" viewBox="0 0 1335 464" fill="none" xmlns="http://www.w3.org/2000/svg">
<g clip-path="url(#clip0_1528_78385)">
<rect width="1335" height="464" fill="#D2E5D2"/>
<mask id="mask0_1528_78385" style="mask-type:luminance" maskUnits="userSpaceOnUse" x="0" y="0" width="1335" height="464">
<path d="M1335 0H0V464H1335V0Z" fill="white"/>
</mask>
<g mask="url(#mask0_1528_78385)">
<path d="M1334 -0.799988H-1V464.9H1334V-0.799988Z" fill="#D2E5D2"/>
<path d="M89.5 363.6L95.9 340C96.6 337.3 99.1 335.4 101.9 335.4H120.8C126.3 335.4 130.7 331 130.7 325.5V120.3C130.7 114.8 126.3 110.4 120.8 110.4H53.4C47.9 110.4 43.5 114.8 43.5 120.3V325.4C43.5 330.9 47.9 335.3 53.4 335.3H72C74.9 335.3 77.4 337.3 78 340.1L83.4 363.4C84.2 366.6 88.6 366.7 89.5 363.6Z" fill="#6EAD6E"/>
<path d="M588.8 75.7L612.4 82.1C615.1 82.8 617 85.3 617 88.1V107C617 112.5 621.4 116.9 626.9 116.9H832C837.5 116.9 841.9 112.5 841.9 107V39.6C841.9 34.1 837.5 29.7 832 29.7H626.9C621.4 29.7 617 34.1 617 39.6V58.2C617 61.1 615 63.6 612.2 64.2L588.9 69.6C585.8 70.4 585.7 74.8 588.8 75.7Z" fill="#B1D9EB"/>
<path d="M20.7004 467.3L44.3004 473.7C47.0004 474.4 48.9004 476.9 48.9004 479.7V498.6C48.9004 504.1 53.3004 508.5 58.8004 508.5H264C269.5 508.5 273.9 504.1 273.9 498.6V431.3C273.9 425.8 269.5 421.4 264 421.4H58.8004C53.3004 421.4 48.9004 425.8 48.9004 431.3V449.9C48.9004 452.8 46.9004 455.3 44.1004 455.9L20.8004 461.3C17.7004 462 17.6004 466.4 20.7004 467.3Z" fill="#B1D9EB"/>
<path d="M621 160.6H505C488.1 160.6 474.4 174.3 474.4 191.2C474.4 208.1 488.1 221.8 505 221.8H549C551 221.8 552.9 222.8 554 224.4L560.5 233.5C561.7 235.2 564.3 235.2 565.5 233.5L572 224.4C573.2 222.8 575 221.8 577 221.8H621C637.9 221.8 651.6 208.1 651.6 191.2C651.6 174.3 638 160.6 621 160.6Z" fill="#6EAD6E"/>
<path d="M1081.4 420H980.2C965.5 420 953.5 431.9 953.5 446.7C953.5 461.4 965.4 473.4 980.2 473.4H1018.5C1020.2 473.4 1021.9 474.2 1022.9 475.7L1028.6 483.6C1029.7 485.1 1031.9 485.1 1033 483.6L1038.7 475.7C1039.7 474.3 1041.3 473.4 1043.1 473.4H1081.4C1096.1 473.4 1108.1 461.5 1108.1 446.7C1108.1 432 1096.1 420 1081.4 420Z" fill="#6EAD6E"/>
<path d="M319.7 390.5C285.3 338.5 299.3 268.6 350.9 233.8C401.8 199.5 471.6 212.2 507 262.4C540 309.3 532.5 372 492.7 409.9C490.3 412.1 489.2 415.4 489.7 418.6L493.2 441.5C493.6 444.3 490.6 446.3 488.2 444.8L468.5 432.6C465.7 430.9 462.3 430.7 459.3 432C409.8 453.5 350.5 437.1 319.7 390.5Z" fill="#B1D9EB"/>
<path fill-rule="evenodd" clip-rule="evenodd" d="M506.2 263.1C471.1 213.3 402 200.7 351.5 234.7L350.4 233C401.8 198.4 472.2 211.2 507.9 261.9L506.2 263.1Z" fill="#1E52A5"/>
<path d="M318.9 391.1C302.1 365.7 296.2 335.4 302.1 305.6C308 275.8 325.2 250.1 350.4 233.1L351.5 234.8C326.8 251.5 309.9 276.8 304.1 306C298.3 335.3 304.1 365.1 320.6 390L318.9 391.1Z" fill="#1E52A5"/>
<path d="M1375.3 504.1C1407.4 455.6 1394.3 390.3 1346.2 357.8C1298.6 325.7 1233.5 337.7 1200.4 384.6C1169.6 428.4 1176.6 486.9 1213.8 522.3C1216 524.4 1217.1 527.4 1216.6 530.4L1213.3 551.7C1212.9 554.3 1215.7 556.2 1218 554.8L1236.4 543.5C1239 541.9 1242.2 541.7 1245 542.9C1291.2 563 1346.5 547.6 1375.3 504.1Z" fill="#EDF5ED"/>
<path d="M857.7 367.3C899.6 304 882.5 218.8 819.7 176.4C757.6 134.6 672.6 150.1 629.5 211.3C589.3 268.4 598.4 344.8 647 391C649.9 393.8 651.3 397.7 650.7 401.6L646.5 429.4C646 432.8 649.7 435.3 652.6 433.4L676.6 418.6C680 416.5 684.2 416.2 687.8 417.8C748.1 444.1 820.2 424 857.7 367.3Z" fill="#EDF5ED"/>
<path d="M224.2 20H377.5C407.1 20 431.1 44 431.1 73.6V202.5C431.1 232.1 407.1 256.1 377.5 256.1H263.3C260.7 256.1 258.2 257.1 256.3 259L231.1 284.2C229 286.3 225.4 284.8 225.4 281.9V256.2H224.2C194.6 256.2 170.6 232.2 170.6 202.6V73.6C170.6 44 194.6 20 224.2 20Z" fill="#EDF5ED"/>
<path d="M1311.5 -38.3H1132.1C1097.5 -38.3 1069.4 -10.2 1069.4 24.4V175.2C1069.4 209.8 1097.5 237.9 1132.1 237.9H1265.8C1268.9 237.9 1271.8 239.1 1274 241.3L1303.5 270.8C1305.9 273.2 1310.1 271.5 1310.1 268.1V238H1311.5C1346.1 238 1374.2 209.9 1374.2 175.3V24.4C1374.2 -10.2 1346.1 -38.3 1311.5 -38.3Z" fill="#B1D9EB"/>
<path d="M1070.4 24.4H1068.4V175.2H1070.4V24.4Z" fill="#1E52A5"/>
<path d="M1274.65 240.544L1273.24 241.958L1289.5 258.226L1290.91 256.812L1274.65 240.544Z" fill="#1E52A5"/>
<path d="M1273.3 242C1271.3 240 1268.6 238.9 1265.8 238.9V236.9C1269.2 236.9 1272.3 238.2 1274.7 240.6L1273.3 242Z" fill="#1E52A5"/>
<path d="M1265.8 236.9H1132.1V238.9H1265.8V236.9Z" fill="#1E52A5"/>
<path d="M959.8 381.5L714.3 355.6V94.8H857.8C914.2 94.8 959.9 140.5 959.9 196.8V381.5H959.8Z" fill="#285036"/>
<path d="M959.8 381.5L1205.3 355.6V94.8H1061.8C1005.4 94.8 959.8 140.5 959.8 196.8V381.5Z" fill="#285036"/>
<path d="M714.2 94.8V355.7L959.7 381.6L1205.2 355.7V94.8L959.7 124.7L714.2 94.8Z" fill="#4A994A"/>
<path d="M959.8 364.8L723.4 339.9V88.7H861.6C915.9 88.7 959.9 132.7 959.9 187V364.8H959.8Z" fill="white"/>
<path d="M959.8 364.8L1196.2 339.9V88.7H1058C1003.7 88.7 959.7 132.7 959.7 187V364.8H959.8Z" fill="white"/>
<path fill-rule="evenodd" clip-rule="evenodd" d="M961.3 173.5V355.6H958.3V173.5H961.3Z" fill="#1E52A5"/>
<path d="M959.8 364.8C959.8 364.8 867.3 318.3 723.4 318.3V339.9L959.8 364.8Z" fill="#D8ECF5"/>
<path fill-rule="evenodd" clip-rule="evenodd" d="M960.2 363.9C960.2 363.9 960.2 363.9 959.8 364.8C959.3 365.7 959.3 365.7 959.3 365.7C959.3 365.7 959.2 365.6 959.1 365.6C958.9 365.5 958.7 365.4 958.3 365.2C957.6 364.9 956.5 364.4 955.1 363.7C952.3 362.4 948.1 360.6 942.7 358.4C931.8 354 915.8 348.2 895.3 342.4C854.3 330.8 795.2 319.2 723.4 319.2V317.2C795.5 317.2 854.7 328.9 895.9 340.5C916.5 346.3 932.6 352.2 943.5 356.5C949 358.7 953.2 360.5 956 361.8C957.4 362.4 958.5 362.9 959.2 363.3C959.6 363.5 959.8 363.6 960 363.7C960 363.8 960.1 363.8 960.2 363.9Z" fill="#1E52A5"/>
<path fill-rule="evenodd" clip-rule="evenodd" d="M960.2 363.8C960.2 363.8 960.2 363.8 959.8 364.7C959.4 365.6 959.4 365.6 959.4 365.6C959.4 365.6 959.3 365.6 959.2 365.5C959 365.4 958.8 365.3 958.4 365.2C957.7 364.9 956.6 364.5 955.2 364C952.4 363 948.2 361.5 942.8 359.7C931.9 356.1 915.9 351.4 895.3 346.6C854.2 337.1 795.2 327.5 723.3 327.5V325.5C795.4 325.5 854.6 335.1 895.7 344.6C916.3 349.4 932.4 354.2 943.3 357.8C948.8 359.6 953 361.1 955.8 362.1C957.2 362.6 958.3 363 959 363.3C959.4 363.4 959.6 363.5 959.8 363.6C960 363.8 960 363.8 960.2 363.8Z" fill="#1E52A5"/>
<path fill-rule="evenodd" clip-rule="evenodd" d="M960.1 363.8C960.1 363.8 960.1 363.8 959.8 364.8C959.5 365.8 959.5 365.8 959.5 365.8C959.5 365.8 959.4 365.8 959.3 365.7C959.1 365.6 958.9 365.6 958.5 365.5C957.8 365.3 956.7 365 955.3 364.5C952.5 363.7 948.3 362.5 942.9 361.1C932 358.3 916 354.5 895.4 350.8C854.3 343.3 795.3 335.7 723.4 335.7V333.7C795.4 333.7 854.6 341.2 895.8 348.8C916.4 352.6 932.5 356.3 943.4 359.2C948.9 360.6 953.1 361.8 955.9 362.6C957.3 363 958.4 363.3 959.1 363.6C959.5 363.7 959.7 363.8 959.9 363.9C959.9 363.7 960 363.8 960.1 363.8Z" fill="#1E52A5"/>
<path fill-rule="evenodd" clip-rule="evenodd" d="M959.9 363.8C959.9 363.8 959.9 363.8 959.8 364.8C959.7 365.8 959.7 365.8 959.7 365.8L943 364C932.1 362.8 916 361.2 895.4 359C854.3 354.7 795.2 348.4 723.3 340.9L723.5 338.9C795.4 346.5 854.5 352.7 895.6 357C916.2 359.2 932.2 360.9 943.2 362L959.9 363.8Z" fill="#1E52A5"/>
<path d="M959.8 364.8C959.8 364.8 1052.3 318.3 1196.2 318.3V339.9L959.8 364.8Z" fill="#D8ECF5"/>
<path fill-rule="evenodd" clip-rule="evenodd" d="M960.2 365.6C960.2 365.6 960.2 365.6 959.8 364.7C959.4 363.8 959.4 363.8 959.4 363.8H959.5C959.5 363.8 959.6 363.7 959.7 363.7C959.9 363.6 960.2 363.5 960.5 363.3C961.2 363 962.3 362.5 963.7 361.8C966.5 360.5 970.7 358.7 976.2 356.5C987.1 352.1 1003.2 346.3 1023.8 340.5C1065 328.8 1124.2 317.2 1196.3 317.2V319.2C1124.4 319.2 1065.4 330.8 1024.4 342.4C1003.9 348.2 987.9 354 977 358.4C971.6 360.6 967.4 362.4 964.6 363.7C963.2 364.3 962.1 364.8 961.4 365.2C961 365.4 960.8 365.5 960.6 365.6C960.4 365.6 960.3 365.6 960.2 365.6Z" fill="#1E52A5"/>
<path fill-rule="evenodd" clip-rule="evenodd" d="M960.2 365.7C960.2 365.7 960.2 365.7 959.8 364.8C959.4 363.9 959.4 363.9 959.4 363.9H959.5C959.5 363.9 959.6 363.9 959.7 363.8C959.9 363.7 960.2 363.6 960.5 363.5C961.2 363.2 962.3 362.8 963.7 362.3C966.5 361.2 970.7 359.8 976.2 358C987.1 354.4 1003.2 349.6 1023.8 344.8C1065 335.2 1124.2 325.7 1196.2 325.7V327.7C1124.3 327.7 1065.3 337.2 1024.2 346.8C1003.7 351.6 987.6 356.3 976.8 359.9C971.4 361.7 967.2 363.2 964.4 364.2C963 364.7 961.9 365.1 961.2 365.4C960.8 365.5 960.6 365.6 960.4 365.7C960.3 365.6 960.3 365.6 960.2 365.7Z" fill="#1E52A5"/>
<path fill-rule="evenodd" clip-rule="evenodd" d="M960.1 365.7C960.1 365.7 960.1 365.7 959.8 364.7C959.5 363.7 959.5 363.7 959.5 363.7H959.6C959.6 363.7 959.7 363.7 959.8 363.6C960 363.5 960.3 363.5 960.6 363.3C961.3 363.1 962.4 362.8 963.8 362.3C966.6 361.5 970.8 360.3 976.3 358.9C987.2 356.1 1003.3 352.3 1023.9 348.5C1065.1 341 1124.2 333.4 1196.3 333.4V335.4C1124.4 335.4 1065.3 342.9 1024.3 350.5C1003.8 354.3 987.7 358 976.8 360.8C971.4 362.2 967.2 363.4 964.4 364.2C963 364.6 961.9 364.9 961.2 365.2C960.8 365.3 960.6 365.4 960.4 365.4C960.3 365.6 960.2 365.7 960.1 365.7Z" fill="#1E52A5"/>
<path fill-rule="evenodd" clip-rule="evenodd" d="M959.9 365.7C959.9 365.7 959.9 365.7 959.8 364.7C959.7 363.7 959.7 363.7 959.7 363.7L976.4 361.9C987.3 360.7 1003.4 359.1 1024 356.9C1065.1 352.6 1124.2 346.3 1196.1 338.8L1196.3 340.8C1124.4 348.4 1065.3 354.6 1024.2 358.9C1003.6 361.1 987.6 362.8 976.6 363.9L959.9 365.7Z" fill="#1E52A5"/>
<path d="M926 312.3C924.6 311 923.6 309.5 922.8 308.1C922.1 306.9 921.4 305.8 920.6 305.1C919.8 304.4 918.5 304 917.1 303.6C915.6 303.1 913.8 302.5 912.3 301.5C910.7 300.4 909.6 298.9 908.6 297.7C907.7 296.6 906.9 295.6 906.1 295C905.2 294.5 903.9 294.2 902.5 293.9C900.9 293.6 899.1 293.2 897.5 292.3C895.8 291.4 894.6 290.1 893.4 288.9C892.4 287.9 891.5 287 890.6 286.5C889.7 286.1 888.3 285.9 886.9 285.8C885.3 285.7 883.5 285.5 881.7 284.8C879.9 284.1 878.5 282.9 877.2 281.9C876.1 281 875.1 280.2 874.1 279.8C873.1 279.5 871.8 279.5 870.4 279.5C868.8 279.5 866.9 279.5 865.1 279C863.3 278.5 861.7 277.4 860.3 276.5C859.1 275.7 858 275 857.1 274.8C856.1 274.6 854.8 274.7 853.4 274.8C851.8 275 849.9 275.2 848.1 274.8C846.2 274.4 844.6 273.5 843.2 272.7C842 272 840.8 271.4 839.8 271.2C838.8 271 837.5 271.3 836.1 271.6C834.5 271.9 832.7 272.3 830.8 272C828.9 271.8 827.2 271 825.6 270.3C824.3 269.7 823.1 269.2 822.2 269.1C821.1 269 819.8 269.4 818.5 269.7C816.9 270.1 815.2 270.6 813.3 270.5C811.3 270.4 809.5 269.8 808 269.2C806.7 268.7 805.5 268.3 804.5 268.3C803.4 268.3 802.1 268.7 800.8 269.2C799.3 269.7 797.5 270.3 795.7 270.4C793.7 270.5 791.8 269.9 790.2 269.5C788.9 269.1 787.7 268.8 786.8 268.9C785.7 269 784.4 269.5 783.1 270.1C781.6 270.8 780 271.5 778.2 271.6C776.1 271.8 774.2 271.4 772.5 271.1C771.2 270.8 770 270.6 769.2 270.7C767.8 270.9 766.5 271.6 765.1 272.3C763.7 273 762.3 273.8 760.7 274C757.4 274.6 755.7 274.2 754.2 273.8C753.4 273.6 753.1 273.5 751.7 273.8L750.2 268C752.9 267.3 754.3 267.6 755.8 268C756.7 268.2 757.4 268.5 759.6 268.1C760.3 268 761.2 267.5 762.2 267C763.8 266.2 765.8 265.1 768.2 264.8C770 264.6 771.8 264.9 773.5 265.3C774.9 265.6 776.2 265.9 777.4 265.7C778.3 265.6 779.4 265.1 780.5 264.6C782.2 263.9 784.1 263.1 786.2 262.9C788.2 262.8 790 263.3 791.7 263.8C793 264.2 794.3 264.5 795.4 264.5C796.3 264.5 797.5 264.1 798.7 263.6C800.4 263 802.3 262.3 804.4 262.3C806.4 262.3 808.3 263 809.9 263.5C811.2 264 812.4 264.4 813.4 264.4C814.3 264.4 815.5 264.1 816.8 263.8C818.5 263.3 820.5 262.8 822.6 263C824.6 263.2 826.4 264 828 264.7C829.2 265.2 830.4 265.8 831.4 265.9C832.4 266 833.6 265.8 834.9 265.5C836.6 265.2 838.6 264.8 840.7 265.1C842.8 265.4 844.5 266.4 846.1 267.2C847.3 267.8 848.4 268.4 849.3 268.6C850.2 268.8 851.5 268.7 852.8 268.5C854.6 268.3 856.6 268.1 858.6 268.6C860.6 269.1 862.3 270.2 863.7 271.2C864.8 271.9 865.9 272.7 866.8 272.9C867.7 273.2 869 273.2 870.3 273.1C872.1 273.1 874.1 273.1 876.1 273.8C878 274.5 879.6 275.8 881 276.9C882 277.7 883 278.5 883.9 278.9C884.8 279.3 886 279.4 887.3 279.5C889.1 279.7 891.1 279.8 893 280.7C894.9 281.6 896.3 283 897.6 284.3C898.5 285.2 899.4 286.1 900.3 286.6C901.2 287.1 902.4 287.3 903.7 287.6C905.5 288 907.4 288.4 909.2 289.5C911 290.6 912.2 292.2 913.3 293.6C914.1 294.7 914.9 295.6 915.7 296.2C916.5 296.8 917.7 297.1 918.9 297.5C920.6 298.1 922.6 298.7 924.2 300C925.9 301.3 926.9 303 927.8 304.6C928.5 305.7 929.1 306.8 929.9 307.5L926 312.3ZM995.2 310.9L991.2 306.4C992.8 305 994.7 304.2 996.3 303.6C997.5 303.1 998.7 302.7 999.4 302C1000.2 301.4 1000.9 300.3 1001.7 299.2C1002.7 297.7 1003.9 296.1 1005.6 294.9C1007.3 293.7 1009.3 293.2 1011 292.7C1012.3 292.4 1013.5 292 1014.3 291.5C1015.2 291 1016 290 1016.9 289C1018.1 287.7 1019.4 286.2 1021.2 285.2C1023.1 284.2 1025.1 283.9 1026.8 283.6C1028.1 283.4 1029.3 283.2 1030.2 282.8C1031.1 282.4 1032 281.5 1033 280.6C1034.3 279.4 1035.8 278 1037.7 277.3C1039.6 276.5 1041.7 276.4 1043.4 276.4C1044.7 276.3 1046 276.3 1046.9 276C1047.8 275.7 1048.9 274.9 1049.9 274.1C1051.3 273 1052.9 271.9 1054.9 271.3C1056.9 270.7 1058.9 270.8 1060.7 270.9C1062 271 1063.3 271.1 1064.2 270.8C1065.2 270.6 1066.3 269.9 1067.4 269.2C1068.9 268.3 1070.6 267.3 1072.6 266.9C1074.6 266.5 1076.6 266.8 1078.4 267C1079.7 267.2 1080.9 267.4 1081.9 267.2C1082.9 267 1084.1 266.5 1085.3 265.9C1086.9 265.1 1088.6 264.3 1090.7 264C1092.8 263.8 1094.7 264.2 1096.5 264.6C1097.8 264.9 1099 265.2 1099.9 265.1C1100.9 265 1102.1 264.5 1103.4 264C1105 263.4 1106.8 262.6 1108.9 262.5C1111 262.4 1112.9 263 1114.6 263.6C1115.9 264 1117 264.4 1118 264.4C1119 264.4 1120.3 264 1121.6 263.6C1123.2 263.1 1125.1 262.5 1127.1 262.5C1129.2 262.6 1131.1 263.3 1132.8 264C1134 264.5 1135.1 264.9 1136 265C1137.1 265.1 1138.4 264.8 1139.8 264.4C1141.5 264 1143.3 263.5 1145.2 263.7C1147.4 263.9 1149.3 264.8 1151 265.6C1152.1 266.1 1153.2 266.6 1154 266.7C1155.3 266.9 1156.7 266.6 1158.2 266.4C1159.8 266.1 1161.6 265.8 1163.3 266.1C1166.8 266.7 1168.2 267.7 1169.6 268.8C1170.2 269.3 1170.6 269.6 1171.9 269.9L1170.4 275.7C1167.8 275 1166.6 274.1 1165.8 273.4C1165.1 272.8 1164.6 272.4 1162.3 272C1161.6 271.9 1160.5 272.1 1159.3 272.3C1157.5 272.6 1155.5 272.9 1153.3 272.6C1151.6 272.4 1150 271.6 1148.6 270.9C1147.3 270.3 1146 269.7 1144.8 269.5C1143.9 269.4 1142.7 269.7 1141.4 270C1139.7 270.4 1137.8 270.9 1135.8 270.7C1134 270.6 1132.3 269.9 1130.8 269.3C1129.5 268.8 1128.2 268.3 1127.1 268.2C1126.2 268.2 1124.9 268.6 1123.6 269C1122 269.5 1120.2 270.1 1118.2 270.1C1116.3 270.1 1114.6 269.6 1113 269.1C1111.6 268.7 1110.3 268.3 1109.3 268.3C1108.3 268.3 1107.1 268.8 1105.9 269.3C1104.3 269.9 1102.6 270.6 1100.6 270.8C1098.7 270.9 1096.9 270.5 1095.3 270.2C1093.9 269.9 1092.6 269.6 1091.6 269.7C1090.6 269.8 1089.4 270.4 1088.2 271C1086.7 271.7 1085 272.6 1083.1 272.9C1081.2 273.2 1079.4 272.9 1077.8 272.7C1076.4 272.5 1075.1 272.3 1074.1 272.5C1073.1 272.7 1072 273.4 1070.8 274.1C1069.4 275 1067.8 275.9 1065.9 276.4C1064.1 276.9 1062.2 276.7 1060.6 276.6C1059.2 276.5 1057.8 276.4 1056.9 276.7C1055.9 277 1054.9 277.8 1053.7 278.6C1052.4 279.6 1050.9 280.7 1049.1 281.3C1047.3 281.9 1045.5 282 1043.8 282.1C1042.4 282.2 1041.1 282.2 1040.1 282.6C1039.2 283 1038.2 283.9 1037.1 284.8C1035.9 285.9 1034.5 287.1 1032.8 288C1031.1 288.8 1029.3 289.1 1027.7 289.3C1026.3 289.5 1025 289.7 1024.1 290.2C1023.2 290.7 1022.3 291.7 1021.4 292.7C1020.3 293.9 1019.1 295.3 1017.5 296.3C1015.9 297.3 1014.1 297.8 1012.6 298.2C1011.2 298.6 1010 298.9 1009.1 299.5C1008.3 300.1 1007.5 301.2 1006.7 302.3C1005.8 303.6 1004.7 305.2 1003.2 306.3C1001.7 307.5 1000 308.1 998.5 308.7C997.2 309.7 995.9 310.2 995.2 310.9ZM926 267.2C924.6 265.9 923.6 264.4 922.8 263C922.1 261.8 921.4 260.7 920.6 260C919.8 259.3 918.5 258.9 917.1 258.5C915.6 258 913.8 257.4 912.3 256.4C910.7 255.3 909.6 253.8 908.6 252.6C907.7 251.5 906.9 250.5 906.1 249.9C905.2 249.4 903.9 249.1 902.5 248.8C900.9 248.5 899.1 248.1 897.5 247.2C895.8 246.3 894.5 245 893.4 243.8C892.4 242.8 891.5 241.9 890.6 241.4C889.7 241 888.3 240.8 886.9 240.7C885.3 240.6 883.5 240.4 881.7 239.7C879.9 239 878.5 237.8 877.2 236.8C876.1 235.9 875.1 235.1 874.1 234.7C873.1 234.4 871.8 234.4 870.4 234.4C868.8 234.4 866.9 234.4 865.1 233.9C863.3 233.4 861.7 232.3 860.3 231.4C859.1 230.6 858 229.9 857.1 229.7C856.1 229.5 854.8 229.6 853.4 229.7C851.8 229.9 849.9 230.1 848.1 229.7C846.2 229.3 844.6 228.4 843.2 227.6C842 226.9 840.8 226.3 839.8 226.1C838.8 225.9 837.5 226.2 836.1 226.5C834.5 226.8 832.7 227.2 830.8 226.9C828.9 226.7 827.2 225.9 825.6 225.2C824.3 224.6 823.1 224.1 822.2 224C821.1 223.9 819.8 224.3 818.5 224.6C816.9 225 815.1 225.5 813.3 225.4C811.3 225.3 809.5 224.7 808 224.1C806.7 223.6 805.5 223.2 804.5 223.2C803.4 223.2 802.1 223.6 800.8 224.1C799.3 224.6 797.5 225.2 795.7 225.3C793.7 225.4 791.8 224.8 790.2 224.4C788.9 224 787.7 223.7 786.8 223.8C785.7 223.9 784.4 224.4 783.1 225C781.6 225.7 780 226.4 778.2 226.5C776.1 226.7 774.2 226.3 772.5 226C771.2 225.7 770 225.5 769.2 225.6C767.8 225.8 766.5 226.5 765.1 227.2C763.7 227.9 762.3 228.7 760.7 228.9C757.4 229.5 755.7 229.1 754.2 228.7C753.4 228.5 753.1 228.4 751.7 228.7L750.2 222.9C752.9 222.2 754.3 222.5 755.8 222.9C756.7 223.1 757.4 223.4 759.6 223C760.3 222.9 761.2 222.4 762.2 221.9C763.8 221.1 765.8 220 768.2 219.7C770 219.4 771.8 219.8 773.5 220.2C774.9 220.5 776.2 220.8 777.4 220.6C778.3 220.5 779.4 220 780.5 219.5C782.2 218.8 784.1 218 786.2 217.8C788.2 217.7 790 218.2 791.7 218.7C793 219.1 794.3 219.4 795.4 219.4C796.3 219.4 797.5 219 798.7 218.5C800.4 217.9 802.3 217.2 804.4 217.2C806.4 217.2 808.2 217.9 809.9 218.4C811.2 218.9 812.4 219.3 813.4 219.3C814.4 219.3 815.5 219 816.8 218.7C818.5 218.2 820.5 217.7 822.6 217.9C824.6 218.1 826.4 218.9 828 219.6C829.2 220.1 830.4 220.7 831.4 220.8C832.4 220.9 833.6 220.7 834.9 220.4C836.6 220.1 838.6 219.7 840.7 220C842.8 220.3 844.5 221.3 846.1 222.1C847.3 222.7 848.4 223.3 849.3 223.5C850.2 223.7 851.5 223.6 852.8 223.4C854.6 223.2 856.6 223 858.6 223.5C860.6 224 862.3 225.1 863.7 226.1C864.8 226.8 865.9 227.5 866.8 227.8C867.8 228.1 869 228.1 870.3 228.1C872.1 228.1 874.1 228.1 876.1 228.8C878 229.5 879.6 230.8 881 231.9C882 232.7 883 233.5 883.9 233.9C884.8 234.3 886 234.4 887.3 234.5C889.1 234.7 891.1 234.8 893 235.7C894.9 236.6 896.3 238 897.5 239.3C898.4 240.3 899.3 241.1 900.2 241.6C901.1 242.1 902.3 242.3 903.6 242.6C905.4 243 907.3 243.4 909.1 244.5C910.9 245.6 912.1 247.2 913.2 248.6C914 249.7 914.8 250.6 915.6 251.2C916.4 251.8 917.6 252.1 918.8 252.5C920.5 253.1 922.5 253.7 924.1 255C925.8 256.3 926.8 258 927.7 259.6C928.4 260.7 929 261.8 929.8 262.5L926 267.2ZM995.2 265.8L991.2 261.3C992.8 259.9 994.7 259.1 996.3 258.5C997.5 258 998.7 257.6 999.4 256.9C1000.2 256.3 1000.9 255.2 1001.7 254.1C1002.7 252.6 1003.9 251 1005.6 249.8C1007.3 248.6 1009.3 248.1 1011 247.6C1012.3 247.3 1013.5 246.9 1014.3 246.4C1015.1 245.9 1016 244.9 1016.8 243.9C1018 242.6 1019.3 241 1021.1 240C1022.9 239 1024.9 238.7 1026.7 238.4C1028 238.2 1029.2 238 1030.1 237.6C1031 237.2 1031.9 236.3 1032.9 235.4C1034.2 234.2 1035.7 232.8 1037.6 232.1C1039.5 231.3 1041.6 231.2 1043.4 231.1C1044.7 231 1046 231 1046.9 230.7C1047.8 230.4 1048.9 229.6 1049.9 228.8C1051.3 227.7 1052.9 226.6 1054.9 226C1056.9 225.4 1058.9 225.5 1060.7 225.6C1062 225.7 1063.3 225.7 1064.2 225.5C1065.2 225.3 1066.3 224.6 1067.4 223.9C1068.9 223 1070.6 222 1072.6 221.6C1074.6 221.2 1076.6 221.5 1078.4 221.8C1079.7 222 1080.9 222.2 1081.9 222C1082.9 221.8 1084.1 221.3 1085.3 220.7C1086.9 219.9 1088.6 219.1 1090.7 218.8C1092.8 218.6 1094.7 219 1096.5 219.4C1097.8 219.7 1099 220 1099.9 219.9C1100.9 219.8 1102.1 219.3 1103.4 218.8C1105 218.2 1106.8 217.4 1108.9 217.3C1111 217.2 1112.9 217.8 1114.6 218.4C1115.8 218.8 1117 219.2 1118 219.2C1119 219.2 1120.3 218.8 1121.6 218.4C1123.2 217.9 1125.1 217.3 1127.1 217.3C1129.2 217.4 1131.1 218.1 1132.8 218.8C1134 219.3 1135.1 219.7 1136 219.8C1137.1 219.9 1138.4 219.6 1139.8 219.2C1141.5 218.8 1143.3 218.3 1145.2 218.5C1147.4 218.7 1149.3 219.6 1151 220.4C1152.1 220.9 1153.2 221.4 1154 221.5C1155.3 221.7 1156.7 221.4 1158.2 221.2C1159.8 220.9 1161.6 220.6 1163.3 220.9C1166.8 221.5 1168.2 222.5 1169.6 223.6C1170.2 224.1 1170.6 224.4 1171.9 224.7L1170.4 230.5C1167.8 229.8 1166.6 228.9 1165.8 228.2C1165.1 227.6 1164.6 227.2 1162.3 226.8C1161.6 226.7 1160.5 226.9 1159.3 227.1C1157.5 227.4 1155.5 227.7 1153.3 227.4C1151.6 227.2 1150 226.4 1148.6 225.7C1147.3 225.1 1146 224.5 1144.8 224.3C1143.9 224.2 1142.7 224.5 1141.4 224.8C1139.7 225.2 1137.8 225.7 1135.8 225.5C1134 225.4 1132.3 224.7 1130.8 224.1C1129.5 223.6 1128.2 223.1 1127.1 223C1126.1 223 1124.9 223.4 1123.6 223.8C1122 224.3 1120.2 224.9 1118.2 224.9C1116.3 224.9 1114.6 224.4 1113 223.9C1111.6 223.5 1110.3 223.1 1109.3 223.1C1108.3 223.1 1107.1 223.6 1105.9 224.1C1104.3 224.7 1102.6 225.4 1100.6 225.6C1098.7 225.7 1096.9 225.3 1095.3 225C1093.9 224.7 1092.6 224.4 1091.6 224.5C1090.6 224.6 1089.4 225.2 1088.2 225.8C1086.7 226.5 1085 227.4 1083.1 227.7C1081.2 228 1079.4 227.7 1077.8 227.5C1076.4 227.3 1075.1 227.1 1074.1 227.3C1073.1 227.5 1072 228.2 1070.8 228.9C1069.4 229.8 1067.8 230.7 1065.9 231.2C1064.1 231.6 1062.2 231.5 1060.6 231.4C1059.2 231.3 1057.8 231.2 1056.9 231.5C1055.9 231.8 1054.9 232.6 1053.7 233.4C1052.4 234.4 1050.9 235.5 1049.1 236.1C1047.3 236.7 1045.5 236.8 1043.9 236.9C1042.5 237 1041.1 237 1040.2 237.4C1039.3 237.8 1038.3 238.7 1037.2 239.6C1036 240.7 1034.6 241.9 1032.9 242.8C1031.2 243.6 1029.4 243.9 1027.8 244.1C1026.4 244.3 1025.1 244.5 1024.2 245C1023.3 245.5 1022.4 246.5 1021.5 247.6C1020.4 248.8 1019.2 250.2 1017.6 251.2C1016 252.2 1014.3 252.6 1012.7 253.1C1011.3 253.5 1010 253.8 1009.2 254.4C1008.4 255 1007.6 256.1 1006.8 257.2C1005.9 258.5 1004.8 260.1 1003.3 261.2C1001.8 262.4 1000.1 263 998.6 263.6C997.2 264.6 995.9 265.1 995.2 265.8ZM926 222.1C924.6 220.8 923.6 219.3 922.8 217.9C922.1 216.7 921.4 215.6 920.6 214.9C919.8 214.2 918.5 213.8 917.1 213.4C915.6 212.9 913.8 212.3 912.3 211.3C910.7 210.2 909.6 208.7 908.6 207.5C907.7 206.4 906.9 205.4 906.1 204.8C905.2 204.3 903.9 204 902.5 203.7C900.9 203.4 899.1 203 897.5 202.1C895.8 201.2 894.5 199.9 893.4 198.7C892.4 197.7 891.5 196.8 890.6 196.3C889.7 195.9 888.3 195.7 886.9 195.6C885.3 195.5 883.5 195.3 881.7 194.6C880 193.9 878.5 192.7 877.3 191.7C876.2 190.8 875.2 190 874.2 189.6C873.2 189.3 871.9 189.3 870.5 189.3C868.9 189.3 867 189.3 865.2 188.8C863.4 188.3 861.8 187.2 860.4 186.3C859.2 185.5 858.1 184.8 857.2 184.6C856.2 184.4 854.9 184.5 853.5 184.6C851.9 184.8 850 185 848.2 184.6C846.3 184.2 844.7 183.3 843.3 182.5C842.1 181.8 840.9 181.2 839.9 181C838.9 180.8 837.6 181.1 836.2 181.4C834.6 181.7 832.8 182.1 830.9 181.8C829 181.6 827.3 180.8 825.7 180.1C824.4 179.5 823.2 179 822.3 178.9C821.2 178.8 819.9 179.2 818.6 179.5C817 179.9 815.2 180.4 813.4 180.3C811.4 180.2 809.6 179.6 808.1 179C806.8 178.5 805.6 178.1 804.6 178.1C803.5 178.1 802.2 178.5 800.9 179C799.4 179.5 797.6 180.1 795.8 180.2C793.8 180.3 791.9 179.7 790.3 179.3C789 178.9 787.8 178.6 786.9 178.7C785.8 178.8 784.5 179.3 783.2 179.9C781.7 180.6 780.1 181.3 778.3 181.4C776.2 181.6 774.3 181.2 772.6 180.9C771.3 180.6 770.1 180.4 769.3 180.5C767.9 180.7 766.6 181.4 765.2 182.1C763.8 182.8 762.4 183.6 760.8 183.8C757.5 184.4 755.8 184 754.3 183.6C753.5 183.4 753.2 183.3 751.8 183.6L750.3 177.8C753 177.1 754.4 177.4 755.9 177.8C756.8 178 757.5 178.3 759.7 177.9C760.4 177.8 761.3 177.3 762.3 176.8C763.9 176 765.9 174.9 768.3 174.6C770.1 174.3 771.9 174.7 773.6 175.1C775 175.4 776.3 175.7 777.5 175.5C778.4 175.4 779.5 174.9 780.6 174.4C782.3 173.7 784.2 172.9 786.3 172.7C788.3 172.6 790.1 173.1 791.8 173.6C793.1 174 794.4 174.3 795.5 174.3C796.4 174.3 797.6 173.9 798.8 173.4C800.5 172.8 802.4 172.1 804.5 172.1C806.5 172.1 808.3 172.8 810 173.3C811.3 173.8 812.5 174.2 813.5 174.2C814.4 174.2 815.6 173.9 816.9 173.6C818.6 173.1 820.6 172.6 822.7 172.8C824.7 173 826.5 173.8 828.1 174.5C829.3 175 830.5 175.6 831.5 175.7C832.5 175.8 833.7 175.6 835 175.3C836.7 175 838.7 174.6 840.8 174.9C842.9 175.2 844.6 176.2 846.2 177C847.4 177.6 848.5 178.2 849.4 178.4C850.3 178.6 851.6 178.5 852.9 178.3C854.7 178.1 856.7 177.9 858.7 178.4C860.7 178.9 862.4 180 863.8 181C864.9 181.7 866 182.4 866.9 182.7C867.9 183 869.1 183 870.4 183C872.2 183 874.2 183 876.2 183.7C878.2 184.4 879.7 185.7 881.1 186.8C882.1 187.6 883.1 188.4 884 188.8C884.9 189.2 886.1 189.3 887.4 189.4C889.2 189.6 891.2 189.8 893.1 190.7C895 191.6 896.4 193 897.6 194.3C898.5 195.3 899.4 196.1 900.3 196.6C901.2 197.1 902.4 197.3 903.7 197.6C905.5 198 907.4 198.4 909.2 199.5C911 200.6 912.2 202.2 913.3 203.6C914.1 204.7 914.9 205.6 915.7 206.2C916.5 206.8 917.7 207.1 918.9 207.5C920.6 208.1 922.6 208.7 924.2 210C925.9 211.3 926.9 213 927.8 214.6C928.5 215.7 929.1 216.8 929.9 217.5L926 222.1ZM995.2 220.6L991.2 216.1C992.8 214.7 994.7 213.9 996.3 213.3C997.5 212.8 998.7 212.4 999.4 211.7C1000.2 211.1 1000.9 210 1001.7 208.9C1002.7 207.4 1003.9 205.8 1005.6 204.6C1007.3 203.4 1009.3 202.9 1011 202.4C1012.3 202.1 1013.5 201.7 1014.3 201.2C1015.1 200.7 1016 199.7 1016.8 198.7C1018 197.4 1019.3 195.8 1021.1 194.8C1023 193.8 1025 193.5 1026.7 193.2C1028 193 1029.2 192.8 1030.1 192.4C1031 192 1031.9 191.1 1032.9 190.2C1034.2 189 1035.7 187.6 1037.6 186.9C1039.5 186.1 1041.6 186 1043.4 185.9C1044.7 185.8 1045.9 185.8 1046.9 185.5C1047.8 185.2 1048.9 184.4 1049.9 183.6C1051.3 182.5 1052.9 181.4 1054.9 180.8C1056.9 180.2 1058.9 180.3 1060.7 180.4C1062 180.5 1063.3 180.5 1064.2 180.3C1065.2 180.1 1066.3 179.4 1067.4 178.7C1068.9 177.8 1070.6 176.8 1072.6 176.4C1074.6 176 1076.6 176.3 1078.4 176.6C1079.7 176.8 1080.9 177 1081.9 176.8C1082.9 176.6 1084.1 176.1 1085.3 175.5C1086.9 174.7 1088.6 173.9 1090.7 173.6C1092.8 173.4 1094.7 173.8 1096.5 174.2C1097.8 174.5 1099 174.8 1099.9 174.7C1100.9 174.6 1102.1 174.1 1103.4 173.6C1105 173 1106.8 172.2 1108.9 172.1C1111 172 1112.9 172.6 1114.6 173.2C1115.8 173.6 1117 174 1118 174C1119 174 1120.3 173.6 1121.6 173.2C1123.2 172.7 1125.1 172.1 1127.1 172.1C1129.2 172.2 1131.1 172.9 1132.8 173.6C1134 174.1 1135.1 174.5 1136 174.6C1137.1 174.7 1138.4 174.4 1139.8 174C1141.5 173.6 1143.3 173.1 1145.2 173.3C1147.4 173.5 1149.3 174.4 1151 175.2C1152.1 175.7 1153.2 176.2 1154 176.3C1155.3 176.5 1156.7 176.2 1158.2 176C1159.8 175.7 1161.6 175.4 1163.3 175.7C1166.8 176.3 1168.2 177.3 1169.6 178.4C1170.2 178.9 1170.6 179.2 1171.9 179.5L1170.4 185.3C1167.8 184.6 1166.6 183.7 1165.8 183C1165.1 182.4 1164.6 182 1162.3 181.6C1161.6 181.5 1160.5 181.7 1159.3 181.9C1157.5 182.2 1155.5 182.5 1153.3 182.2C1151.6 182 1150 181.2 1148.6 180.5C1147.3 179.9 1146 179.3 1144.8 179.1C1143.9 179 1142.7 179.3 1141.4 179.6C1139.7 180 1137.8 180.5 1135.8 180.3C1134 180.2 1132.3 179.5 1130.8 178.9C1129.5 178.4 1128.2 177.9 1127.1 177.8C1126.1 177.8 1124.9 178.2 1123.6 178.6C1122 179.1 1120.2 179.7 1118.2 179.7C1116.3 179.7 1114.6 179.2 1113 178.7C1111.6 178.3 1110.3 177.9 1109.3 177.9C1108.3 177.9 1107.1 178.4 1105.9 178.9C1104.3 179.5 1102.6 180.2 1100.6 180.4C1098.7 180.5 1096.9 180.1 1095.3 179.8C1093.9 179.5 1092.6 179.2 1091.6 179.3C1090.6 179.4 1089.4 180 1088.2 180.6C1086.7 181.3 1085 182.2 1083.1 182.5C1081.2 182.8 1079.4 182.5 1077.8 182.3C1076.4 182.1 1075.1 181.9 1074.1 182.1C1073.1 182.3 1072 183 1070.8 183.7C1069.4 184.6 1067.8 185.5 1065.9 186C1064.1 186.5 1062.2 186.3 1060.6 186.2C1059.2 186.1 1057.8 186 1056.9 186.3C1055.9 186.6 1054.9 187.4 1053.7 188.2C1052.4 189.2 1050.9 190.3 1049.1 190.9C1047.3 191.5 1045.5 191.6 1043.9 191.7C1042.5 191.8 1041.1 191.8 1040.2 192.2C1039.3 192.6 1038.3 193.5 1037.2 194.4C1036 195.5 1034.6 196.7 1032.9 197.6C1031.2 198.4 1029.4 198.7 1027.8 198.9C1026.4 199.1 1025.1 199.3 1024.2 199.8C1023.3 200.3 1022.4 201.3 1021.5 202.4C1020.4 203.6 1019.2 205 1017.6 206C1016 207 1014.3 207.4 1012.7 207.9C1011.3 208.3 1010 208.6 1009.2 209.2C1008.4 209.8 1007.6 210.9 1006.8 212C1005.9 213.3 1004.8 214.9 1003.3 216C1001.8 217.2 1000.1 217.9 998.6 218.4C997.2 219.4 995.9 219.9 995.2 220.6ZM926 177C924.6 175.7 923.6 174.2 922.8 172.8C922.1 171.6 921.4 170.5 920.6 169.8C919.8 169.1 918.5 168.7 917.1 168.3C915.6 167.8 913.8 167.2 912.3 166.2C910.7 165.1 909.6 163.6 908.6 162.4C907.7 161.3 906.9 160.3 906.1 159.7C905.2 159.2 903.9 158.9 902.5 158.6C900.9 158.3 899.1 157.9 897.5 157C895.8 156.1 894.5 154.8 893.4 153.6C892.4 152.6 891.5 151.7 890.6 151.2C889.7 150.8 888.3 150.6 886.9 150.5C885.3 150.4 883.5 150.2 881.7 149.5C879.9 148.8 878.5 147.6 877.2 146.6C876.1 145.7 875.1 144.9 874.1 144.5C873.1 144.2 871.8 144.2 870.4 144.2C868.8 144.2 866.9 144.2 865.1 143.7C863.3 143.2 861.7 142.1 860.3 141.2C859.1 140.4 858 139.7 857.1 139.5C856.1 139.3 854.8 139.4 853.4 139.5C851.8 139.7 849.9 139.9 848.1 139.5C846.2 139.1 844.6 138.2 843.2 137.4C842 136.7 840.8 136.1 839.8 135.9C838.8 135.7 837.5 136 836.1 136.3C834.5 136.6 832.7 137 830.8 136.7C828.9 136.5 827.2 135.7 825.6 135C824.3 134.4 823.1 133.9 822.2 133.8C821.1 133.7 819.8 134.1 818.5 134.4C816.9 134.8 815.1 135.3 813.3 135.2C811.3 135.1 809.5 134.5 808 133.9C806.7 133.4 805.5 133 804.5 133C803.4 133 802.1 133.4 800.8 133.9C799.3 134.4 797.5 135 795.7 135.1C793.7 135.2 791.8 134.6 790.2 134.2C788.9 133.8 787.7 133.5 786.8 133.6C785.7 133.7 784.4 134.2 783.1 134.8C781.6 135.5 780 136.2 778.2 136.3C776.1 136.5 774.2 136.1 772.5 135.8C771.2 135.5 770 135.3 769.2 135.4C767.8 135.6 766.5 136.3 765.1 137C763.7 137.7 762.3 138.5 760.7 138.7C757.4 139.3 755.7 138.9 754.2 138.5C753.4 138.3 753.1 138.2 751.7 138.5L750.2 132.7C752.9 132 754.3 132.3 755.8 132.8C756.7 133 757.4 133.3 759.6 132.9C760.3 132.8 761.2 132.3 762.2 131.8C763.8 131 765.8 129.9 768.2 129.6C770 129.3 771.8 129.7 773.5 130.1C774.9 130.4 776.2 130.7 777.4 130.5C778.3 130.4 779.4 129.9 780.5 129.4C782.2 128.7 784.1 127.9 786.2 127.7C788.2 127.6 790 128.1 791.7 128.6C793 129 794.3 129.3 795.4 129.3C796.3 129.3 797.5 128.9 798.7 128.4C800.4 127.8 802.3 127.1 804.4 127.1C806.4 127.1 808.2 127.8 809.9 128.3C811.2 128.8 812.4 129.2 813.4 129.2C814.3 129.2 815.5 128.9 816.8 128.6C818.5 128.1 820.5 127.6 822.6 127.8C824.6 128 826.4 128.8 828 129.5C829.2 130 830.4 130.6 831.4 130.7C832.4 130.8 833.6 130.6 834.9 130.3C836.6 130 838.6 129.6 840.7 129.9C842.8 130.2 844.5 131.2 846.1 132C847.3 132.6 848.4 133.2 849.3 133.4C850.2 133.6 851.5 133.5 852.8 133.3C854.6 133.1 856.6 132.9 858.6 133.4C860.6 133.9 862.3 135 863.7 136C864.8 136.7 865.9 137.4 866.8 137.7C867.7 138 869 138 870.3 137.9C872.1 137.9 874.1 137.9 876.1 138.6C878 139.3 879.6 140.6 881 141.7C882 142.5 883 143.3 883.9 143.7C884.8 144.1 886 144.2 887.3 144.3C889.1 144.5 891.1 144.7 893 145.6C894.9 146.5 896.3 147.9 897.5 149.2C898.4 150.2 899.3 151 900.2 151.5C901.1 152 902.3 152.2 903.6 152.5C905.4 152.9 907.3 153.3 909.1 154.4C910.9 155.5 912.1 157.1 913.2 158.5C914 159.6 914.8 160.5 915.6 161.1C916.4 161.7 917.6 162 918.8 162.4C920.5 163 922.5 163.6 924.1 164.9C925.8 166.2 926.8 167.9 927.7 169.5C928.4 170.6 929 171.7 929.8 172.4L926 177ZM995.2 175.5L991.2 171C992.8 169.6 994.7 168.8 996.3 168.2C997.5 167.7 998.7 167.3 999.4 166.6C1000.2 166 1000.9 164.9 1001.7 163.8C1002.7 162.3 1003.9 160.7 1005.6 159.5C1007.3 158.3 1009.3 157.8 1011 157.3C1012.3 157 1013.5 156.6 1014.3 156.1C1015.1 155.6 1016 154.6 1016.8 153.6C1018 152.3 1019.3 150.7 1021.1 149.7C1022.9 148.7 1025 148.4 1026.7 148.1C1028 147.9 1029.2 147.7 1030.1 147.3C1031 146.9 1031.9 146 1032.9 145.1C1034.2 143.9 1035.7 142.5 1037.6 141.8C1039.5 141 1041.6 140.9 1043.4 140.8C1044.7 140.7 1046 140.7 1046.9 140.4C1047.8 140.1 1048.9 139.3 1049.9 138.5C1051.3 137.4 1052.9 136.3 1054.9 135.7C1056.9 135.1 1058.9 135.2 1060.7 135.3C1062 135.4 1063.3 135.4 1064.2 135.2C1065.2 135 1066.3 134.3 1067.4 133.6C1068.9 132.7 1070.6 131.7 1072.6 131.3C1074.6 130.9 1076.6 131.2 1078.4 131.5C1079.7 131.7 1080.9 131.9 1081.9 131.7C1082.9 131.5 1084.1 131 1085.3 130.4C1086.9 129.6 1088.6 128.8 1090.7 128.5C1092.8 128.3 1094.7 128.7 1096.4 129.1C1097.7 129.4 1098.9 129.7 1099.9 129.6C1100.9 129.5 1102.1 129 1103.4 128.5C1105 127.9 1106.8 127.1 1108.9 127C1111 126.9 1112.9 127.5 1114.6 128.1C1115.8 128.5 1117 128.9 1118 128.9C1119 128.9 1120.3 128.5 1121.6 128.1C1123.2 127.6 1125.1 127 1127.1 127C1129.2 127.1 1131.1 127.8 1132.8 128.5C1134 129 1135.1 129.4 1136 129.5C1137.1 129.6 1138.4 129.3 1139.8 128.9C1141.5 128.5 1143.3 128 1145.2 128.2C1147.4 128.4 1149.3 129.3 1151 130.1C1152.1 130.6 1153.2 131.1 1154 131.2C1155.3 131.4 1156.7 131.1 1158.2 130.9C1159.8 130.6 1161.6 130.3 1163.3 130.6C1166.8 131.2 1168.2 132.2 1169.6 133.3C1170.2 133.8 1170.6 134.1 1171.9 134.4L1170.4 140.2C1167.8 139.5 1166.6 138.6 1165.8 137.9C1165.1 137.3 1164.6 136.9 1162.3 136.5C1161.6 136.4 1160.5 136.6 1159.3 136.8C1157.5 137.1 1155.5 137.4 1153.3 137.1C1151.6 136.9 1150 136.1 1148.6 135.4C1147.3 134.8 1146 134.2 1144.8 134C1143.9 133.9 1142.7 134.2 1141.4 134.5C1139.7 134.9 1137.8 135.4 1135.8 135.2C1134 135.1 1132.3 134.4 1130.8 133.8C1129.5 133.3 1128.2 132.8 1127.1 132.7C1126.1 132.7 1124.9 133.1 1123.6 133.5C1122 134 1120.2 134.6 1118.2 134.6C1116.3 134.6 1114.6 134.1 1113 133.6C1111.6 133.2 1110.3 132.8 1109.3 132.8C1108.3 132.8 1107.1 133.3 1105.9 133.8C1104.3 134.4 1102.6 135.1 1100.6 135.3C1098.7 135.4 1096.9 135 1095.3 134.6C1094 134.3 1092.7 134 1091.7 134.1C1090.7 134.2 1089.5 134.8 1088.3 135.4C1086.8 136.1 1085.1 137 1083.2 137.3C1081.3 137.6 1079.5 137.3 1077.9 137.1C1076.5 136.9 1075.2 136.7 1074.2 136.9C1073.2 137.1 1072.1 137.8 1070.9 138.5C1069.5 139.4 1067.9 140.3 1066 140.8C1064.2 141.2 1062.3 141.1 1060.7 141C1059.3 140.9 1057.9 140.8 1057 141.1C1056 141.4 1055 142.2 1053.8 143C1052.5 144 1051 145.1 1049.2 145.7C1047.4 146.3 1045.6 146.4 1044 146.5C1042.6 146.6 1041.2 146.6 1040.3 147C1039.4 147.4 1038.4 148.3 1037.3 149.2C1036.1 150.3 1034.7 151.5 1033 152.4C1031.3 153.2 1029.5 153.5 1027.9 153.7C1026.5 153.9 1025.2 154.1 1024.3 154.6C1023.4 155.1 1022.5 156.1 1021.6 157.2C1020.5 158.4 1019.3 159.8 1017.7 160.8C1016.1 161.8 1014.4 162.2 1012.8 162.7C1011.4 163.1 1010.1 163.4 1009.3 164C1008.5 164.6 1007.7 165.7 1006.9 166.8C1006 168.1 1004.9 169.7 1003.4 170.8C1001.9 172 1000.2 172.7 998.7 173.2C997.2 174.3 995.9 174.8 995.2 175.5Z" fill="#45A8F8"/>
</g>
</g>
<defs>
<clipPath id="clip0_1528_78385">
<rect width="1335" height="464" fill="white"/>
</clipPath>
</defs>
</svg>
