<svg width="1335" height="464" viewBox="0 0 1335 464" fill="none" xmlns="http://www.w3.org/2000/svg">
<g clip-path="url(#clip0_1528_78280)">
<rect width="1335" height="464" fill="#FBEFD0"/>
<mask id="mask0_1528_78280" style="mask-type:luminance" maskUnits="userSpaceOnUse" x="0" y="-1" width="1336" height="465">
<path d="M1335.1 -0.399902H0.0996094V463.8H1335.1V-0.399902Z" fill="white"/>
</mask>
<g mask="url(#mask0_1528_78280)">
<path d="M1335 -0.399902H0V463.8H1335V-0.399902Z" fill="#FBEFD0"/>
<path d="M718.199 43.7002H1256.7C1267.7 43.7002 1276.7 52.7002 1276.7 63.7002V326.8C1276.7 337.8 1267.7 346.8 1256.7 346.8H718.199C707.199 346.8 698.199 337.8 698.199 326.8V63.7002C698.199 52.7002 707.199 43.7002 718.199 43.7002Z" fill="#C6C097"/>
<path d="M1291.4 267.7V351.5C1291.4 354.8 1288.7 357.5 1285.4 357.5H979.3C976 357.5 973.3 354.8 973.3 351.5V267.7C973.3 264.4 976 261.7 979.3 261.7H1285.5C1288.8 261.7 1291.4 264.4 1291.4 267.7Z" fill="#F26533"/>
<path d="M1291.4 276.7V316.8L973.3 322V276.7H1291.4Z" fill="#FF5729"/>
<path d="M1287.1 251.7V236.1H977.599V251.7H967.399V283H1297.3V251.7H1287.1Z" fill="#F26533"/>
<path d="M1120.8 283H1143.9V309.4C1143.9 311.1 1142.6 312.4 1140.9 312.4H1123.8C1122.1 312.4 1120.8 311.1 1120.8 309.4V283Z" fill="#313030"/>
<path fill-rule="evenodd" clip-rule="evenodd" d="M964.399 228.4C964.399 225.643 966.643 223.4 969.399 223.4H1061.5V229.4H970.399V241.4H977.599V247.4H969.399C966.643 247.4 964.399 245.157 964.399 242.4V228.4Z" fill="#FEF8EC"/>
<path fill-rule="evenodd" clip-rule="evenodd" d="M1294.3 229.4H1203.2V223.4H1295.3C1298.06 223.4 1300.3 225.643 1300.3 228.4V242.4C1300.3 245.157 1298.06 247.4 1295.3 247.4H1287.1V241.4H1294.3V229.4Z" fill="#FEF8EC"/>
<path d="M1055.5 216.7H1209.3C1211 216.7 1212.3 218 1212.3 219.7V233.1C1212.3 234.8 1211 236.1 1209.3 236.1H1055.5C1053.8 236.1 1052.5 234.8 1052.5 233.1V219.7C1052.5 218.1 1053.8 216.7 1055.5 216.7Z" fill="#CBCBCB"/>
<path fill-rule="evenodd" clip-rule="evenodd" d="M1132.4 264.7C1130.86 264.7 1129.7 265.857 1129.7 267.4V298.6C1129.7 300.109 1130.92 301.3 1132.4 301.3C1133.91 301.3 1135.1 300.078 1135.1 298.6V267.4C1135.1 265.891 1133.88 264.7 1132.4 264.7ZM1123.7 267.4C1123.7 262.543 1127.54 258.7 1132.4 258.7C1137.12 258.7 1141.1 262.509 1141.1 267.4V298.6C1141.1 303.323 1137.29 307.3 1132.4 307.3C1127.68 307.3 1123.7 303.491 1123.7 298.6V267.4Z" fill="#EEB236"/>
<path d="M1096.6 337.5H1033.9C1032.5 337.5 1031.3 336.3 1031.3 334.9C1031.3 333.4 1030.1 332.3 1028.7 332.3H999.899V349.2H1028.7C1030.1 349.2 1031.3 348 1031.3 346.6C1031.3 345.1 1032.5 344 1033.9 344H1096.6V337.5Z" fill="#CBCBCB"/>
<path d="M1099.4 352.5L1087.5 357.4V323.9L1099.4 328.8V352.5Z" fill="#8E822F"/>
<path d="M1102.4 323.8H1195.6C1197.3 323.8 1198.6 325.1 1198.6 326.8V354.4C1198.6 356.1 1197.3 357.4 1195.6 357.4H1102.4C1100.7 357.4 1099.4 356.1 1099.4 354.4V326.8C1099.4 325.2 1100.7 323.8 1102.4 323.8Z" fill="#C6C097"/>
<path fill-rule="evenodd" clip-rule="evenodd" d="M1097.9 328.8C1097.9 327.972 1098.57 327.3 1099.4 327.3H1198.6C1199.43 327.3 1200.1 327.972 1200.1 328.8C1200.1 329.629 1199.43 330.3 1198.6 330.3H1099.4C1098.57 330.3 1097.9 329.629 1097.9 328.8Z" fill="#8E822F"/>
<path fill-rule="evenodd" clip-rule="evenodd" d="M1097.9 340.7C1097.9 339.872 1098.57 339.2 1099.4 339.2H1198.6C1199.43 339.2 1200.1 339.872 1200.1 340.7C1200.1 341.529 1199.43 342.2 1198.6 342.2H1099.4C1098.57 342.2 1097.9 341.529 1097.9 340.7Z" fill="#8E822F"/>
<path fill-rule="evenodd" clip-rule="evenodd" d="M1097.9 352.5C1097.9 351.672 1098.57 351 1099.4 351H1198.6C1199.43 351 1200.1 351.672 1200.1 352.5C1200.1 353.329 1199.43 354 1198.6 354H1099.4C1098.57 354 1097.9 353.329 1097.9 352.5Z" fill="#8E822F"/>
<path d="M854.5 151.3H738.3V248.5H854.5V151.3Z" fill="#8E822F"/>
<path d="M796.4 215.2C810.096 215.2 821.2 204.097 821.2 190.4C821.2 176.703 810.096 165.6 796.4 165.6C782.703 165.6 771.6 176.703 771.6 190.4C771.6 204.097 782.703 215.2 796.4 215.2Z" fill="#663E23"/>
<path d="M826.599 226H796.399V236.7H826.599V226Z" fill="#663E23"/>
<path d="M826.6 236.7C829.527 236.7 831.9 234.327 831.9 231.4C831.9 228.473 829.527 226.1 826.6 226.1C823.673 226.1 821.3 228.473 821.3 231.4C821.3 234.327 823.673 236.7 826.6 236.7Z" fill="#9B9835"/>
<mask id="mask1_1528_78280" style="mask-type:luminance" maskUnits="userSpaceOnUse" x="713" y="96" width="166" height="56">
<path d="M796.399 151.3H715.899C713.899 151.3 713.099 148.7 714.799 147.6L795.299 96.6001C795.999 96.2001 796.799 96.2001 797.399 96.6001L877.899 147.6C879.599 148.7 878.799 151.3 876.799 151.3H796.399Z" fill="white"/>
</mask>
<g mask="url(#mask1_1528_78280)">
<path d="M796.399 151.3H715.899C713.899 151.3 713.099 148.7 714.799 147.6L795.299 96.6001C795.999 96.2001 796.799 96.2001 797.399 96.6001L877.899 147.6C879.599 148.7 878.799 151.3 876.799 151.3H796.399Z" fill="#9B9835"/>
<path d="M839.5 65.4001H753.3V113.2H839.5V65.4001Z" fill="#8E822F"/>
</g>
<path d="M878.9 248.5H713.8V262.2H878.9V248.5Z" fill="#99643D"/>
<path d="M809.5 262.2H783.2V306.3H809.5V262.2Z" fill="#663E23"/>
<path d="M859.2 284.8V309.6C859.2 310.1 858.7 310.6 858.2 310.6H845C837.5 310.6 831.4 316.7 831.4 324.2V337.4H759.4V324.2C759.4 316.7 753.3 310.6 745.8 310.6H732.6C732.1 310.6 731.6 310.1 731.6 309.6V284.8C731.6 284.3 732.1 283.8 732.6 283.8H858.1C858.8 283.8 859.2 284.3 859.2 284.8Z" fill="#989797"/>
<path d="M1306.9 356.4H668.1V397.8H1306.9V356.4Z" fill="#663E23"/>
<path d="M779.499 397.8H728.599L713.899 463.7H764.799L779.499 397.8Z" fill="#663E23"/>
<path d="M759.399 397.8H810.299L824.899 463.7H773.999L759.399 397.8Z" fill="#8E822F"/>
<path d="M1215.7 397.8H1164.8L1150.1 463.7H1201L1215.7 397.8Z" fill="#663E23"/>
<path d="M1195.6 397.8H1246.5L1261.2 463.7H1210.3L1195.6 397.8Z" fill="#8E822F"/>
<path d="M933.699 296.4H924.599V283.9H902.199V296.4H892.999C889.599 296.4 886.899 299.2 886.899 302.5V350.2C886.899 353.6 889.699 356.3 892.999 356.3H933.699C937.099 356.3 939.799 353.5 939.799 350.2V302.5C939.799 299.2 937.099 296.4 933.699 296.4Z" fill="#8E822F"/>
<path d="M919.999 279.4H906.899V283.9H919.999V279.4Z" fill="#F3C73A"/>
<path d="M921.899 279.4H904.799C903.499 279.4 902.599 278.2 902.799 277L910.199 236.4C910.399 235.4 911.199 234.7 912.199 234.7H914.399C915.399 234.7 916.199 235.4 916.399 236.4L923.799 277C924.099 278.3 923.099 279.4 921.899 279.4Z" fill="#F7D857"/>
<path d="M895.199 302V338.3H896.699C901.799 338.3 906.599 339.9 910.999 342.5C911.699 342.9 912.599 343.2 913.499 343.2C914.399 343.2 915.199 343 915.999 342.5C920.399 339.9 925.199 338.3 930.299 338.3H931.599V302H895.199Z" fill="#F3C73A"/>
<path d="M912.7 309L906.4 319.9C903.4 325.2 907.2 331.8 913.3 331.8C919.4 331.8 923.2 325.2 920.2 319.9L913.9 309C913.7 308.5 913 308.5 912.7 309Z" fill="#FEF8EC"/>
<path d="M757.5 319.3H833.4C840.8 319.3 846.8 325.3 846.8 332.7V421.5C846.8 428.9 840.8 434.9 833.4 434.9H757.5C750.1 434.9 744.1 428.9 744.1 421.5V332.7C744.2 325.3 750.1 319.3 757.5 319.3Z" fill="#CBCBCB"/>
<path d="M795.5 415C816.431 415 833.4 398.032 833.4 377.1C833.4 356.169 816.431 339.2 795.5 339.2C774.568 339.2 757.6 356.169 757.6 377.1C757.6 398.032 774.568 415 795.5 415Z" fill="#989797"/>
<path d="M795.5 397.8C806.932 397.8 816.2 388.532 816.2 377.1C816.2 365.668 806.932 356.4 795.5 356.4C784.068 356.4 774.8 365.668 774.8 377.1C774.8 388.532 784.068 397.8 795.5 397.8Z" fill="#5A5959"/>
<path fill-rule="evenodd" clip-rule="evenodd" d="M845.36 363.258L677.66 431.458L673.14 420.342L840.84 352.142L845.36 363.258Z" fill="#5A5959"/>
<path d="M844.8 370.8C852.753 370.8 859.2 364.353 859.2 356.4C859.2 348.447 852.753 342 844.8 342C836.847 342 830.4 348.447 830.4 356.4C830.4 364.353 836.847 370.8 844.8 370.8Z" fill="#5A5959"/>
<path d="M673.9 440.9C681.853 440.9 688.3 434.453 688.3 426.5C688.3 418.547 681.853 412.1 673.9 412.1C665.947 412.1 659.5 418.547 659.5 426.5C659.5 434.453 665.947 440.9 673.9 440.9Z" fill="#5A5959"/>
<path d="M795.5 387.1C801.023 387.1 805.5 382.623 805.5 377.1C805.5 371.577 801.023 367.1 795.5 367.1C789.977 367.1 785.5 371.577 785.5 377.1C785.5 382.623 789.977 387.1 795.5 387.1Z" fill="#FEF8EC"/>
<path d="M360.5 188H624.8C625.9 188 626.8 188.9 626.8 190V461.7C626.8 462.8 625.9 463.7 624.8 463.7H360.5C359.4 463.7 358.5 462.8 358.5 461.7V190C358.5 188.9 359.4 188 360.5 188Z" fill="#F7D857"/>
<path d="M476.6 268.1L476 276.7H437.1L437.7 267.7C437.7 267.1 437.6 266.5 437.2 266L411.1 236.1L399.9 223.3C399.5 222.8 398.9 222.6 398.3 222.5L386.5 221.7C385.9 221.7 385.3 221.4 384.9 220.9L375.6 210.2C375.2 209.7 375 209.1 375.1 208.5L376.1 194.4C376.1 193.8 376.4 193.2 376.9 192.8L387.6 183.5C388.1 183.1 388.7 182.9 389.3 182.9L403.4 183.8C404 183.9 404.6 184.1 405 184.6L414.3 195.3C414.7 195.8 414.9 196.4 414.9 197L414 209C414 209.6 414.1 210.2 414.5 210.7L436.8 236.3L451.8 253.5C452.2 254 452.8 254.2 453.4 254.3L465.1 255.1C465.7 255.1 466.3 255.4 466.7 255.9L476 266.6C476.4 266.9 476.6 267.5 476.6 268.1Z" fill="#5A5959"/>
<path d="M391.8 197.2L389.7 199.1C389.1 199.6 388.7 200.4 388.7 201.2L388.5 204C388.5 204.8 388.7 205.6 389.2 206.2L391.1 208.3C391.6 208.9 392.4 209.3 393.2 209.3L396 209.5C396.8 209.6 397.6 209.3 398.2 208.8L400.3 206.9C400.9 206.4 401.3 205.6 401.3 204.8L401.5 202C401.5 201.2 401.3 200.4 400.8 199.8L398.9 197.7C398.4 197.1 397.6 196.7 396.8 196.7L394 196.5C393.2 196.4 392.4 196.7 391.8 197.2Z" fill="#F26533"/>
<path d="M469.6 272.2L469.3 276.8H450C450 276.7 450 276.6 450 276.4L450.4 270.9C450.5 270.1 450.8 269.4 451.4 268.9L455.6 265.3C456.2 264.8 457 264.5 457.8 264.6L463.3 265C464.1 265 464.8 265.4 465.4 266L469 270.2C469.4 270.6 469.6 271.4 469.6 272.2Z" fill="#BAC6B2"/>
<path d="M617.1 242.4H368.3V276.8H617.1V242.4Z" fill="#CBCBCB"/>
<path d="M617.1 242.4H368.3V259.6H617.1V242.4Z" fill="#989797"/>
<path d="M617.1 282.2H368.3V316.6H617.1V282.2Z" fill="#CBCBCB"/>
<path d="M617.1 282.2H368.3V299.4H617.1V282.2Z" fill="#989797"/>
<path d="M617.1 322H368.3V356.4H617.1V322Z" fill="#CBCBCB"/>
<path d="M617.1 322H368.3V339.2H617.1V322Z" fill="#989797"/>
<path d="M617.1 361.9H368.3V454.9H617.1V361.9Z" fill="#CBCBCB"/>
<path d="M617.1 361.9H368.3V379.1H617.1V361.9Z" fill="#989797"/>
<path d="M617.1 197.6H570.5V208.5H617.1V197.6Z" fill="#3A1F08"/>
<path fill-rule="evenodd" clip-rule="evenodd" d="M527.9 261.5H459.5V257.5H527.9V261.5Z" fill="#5A5959"/>
<path fill-rule="evenodd" clip-rule="evenodd" d="M527.9 301.4H459.5V297.4H527.9V301.4Z" fill="#5A5959"/>
<path fill-rule="evenodd" clip-rule="evenodd" d="M527.9 341.2H459.5V337.2H527.9V341.2Z" fill="#5A5959"/>
<path fill-rule="evenodd" clip-rule="evenodd" d="M527.9 381.1H459.5V377.1H527.9V381.1Z" fill="#5A5959"/>
<path fill-rule="evenodd" clip-rule="evenodd" d="M795.5 308.6H858.2V312.6H795.5V308.6Z" fill="#5A5959"/>
<path fill-rule="evenodd" clip-rule="evenodd" d="M1096.6 284H967.399V282H1096.6V284Z" fill="#313030"/>
<path fill-rule="evenodd" clip-rule="evenodd" d="M560.091 392.757L394.891 443.157L394.308 441.244L559.508 390.844L560.091 392.757Z" fill="#FEF8EC"/>
<path fill-rule="evenodd" clip-rule="evenodd" d="M591.091 401.657L425.891 452.057L425.308 450.144L590.508 399.744L591.091 401.657Z" fill="#FEF8EC"/>
<path fill-rule="evenodd" clip-rule="evenodd" d="M603.699 189H481.699V187H603.699V189Z" fill="#313030"/>
<path fill-rule="evenodd" clip-rule="evenodd" d="M1062.86 130.045C1062.86 130.045 1062.86 130.045 1062.86 130.045L1046.16 171.7H1231.9V106.2H1098.1C1082.62 106.2 1068.65 115.605 1062.86 130.045ZM1059.14 128.555C1065.55 112.596 1080.98 102.2 1098.1 102.2H1233.9C1235 102.2 1235.9 103.096 1235.9 104.2V173.7C1235.9 174.805 1235 175.7 1233.9 175.7H1043.2C1042.54 175.7 1041.91 175.371 1041.54 174.821C1041.17 174.271 1041.1 173.572 1041.34 172.956L1059.14 128.555Z" fill="#989797"/>
<path fill-rule="evenodd" clip-rule="evenodd" d="M1065.58 169.297C1066.12 169.167 1066.69 169.168 1067.23 169.3L1074.6 171.099L1082.08 169.297C1082.62 169.167 1083.19 169.168 1083.73 169.3L1091.1 171.099L1098.58 169.297C1099.12 169.168 1099.68 169.168 1100.22 169.297L1107.69 171.099L1115.07 169.3C1115.61 169.168 1116.18 169.167 1116.72 169.297L1124.19 171.099L1131.57 169.3C1132.11 169.168 1132.68 169.167 1133.22 169.297L1140.69 171.099L1148.07 169.3C1148.61 169.168 1149.18 169.167 1149.72 169.297L1157.2 171.1L1164.68 169.297C1165.22 169.167 1165.79 169.168 1166.33 169.3L1173.7 171.099L1181.18 169.297C1181.72 169.167 1182.29 169.168 1182.83 169.3L1190.2 171.099L1197.68 169.297C1198.22 169.168 1198.78 169.168 1199.32 169.297L1206.79 171.099L1214.17 169.3C1214.71 169.168 1215.28 169.167 1215.82 169.297L1224.12 171.297L1222.48 178.103L1215 176.301L1207.63 178.1C1207.09 178.233 1206.52 178.233 1205.98 178.103L1198.5 176.3L1191.02 178.103C1190.48 178.233 1189.91 178.233 1189.37 178.1L1181.99 176.301L1174.52 178.103C1173.98 178.233 1173.41 178.233 1172.87 178.1L1165.49 176.301L1158.02 178.103C1157.48 178.233 1156.92 178.233 1156.38 178.103L1148.9 176.301L1141.53 178.1C1140.99 178.233 1140.42 178.233 1139.88 178.103L1132.4 176.301L1125.03 178.1C1124.49 178.233 1123.92 178.233 1123.38 178.103L1115.9 176.301L1108.53 178.1C1107.99 178.233 1107.42 178.233 1106.88 178.103L1099.4 176.3L1091.92 178.103C1091.38 178.233 1090.81 178.233 1090.27 178.1L1082.89 176.301L1075.42 178.103C1074.88 178.233 1074.31 178.233 1073.77 178.1L1066.39 176.301L1058.92 178.103C1058.38 178.233 1057.82 178.233 1057.28 178.103L1048.98 176.103L1050.62 169.297L1058.1 171.1L1065.58 169.297Z" fill="#FEF8EC"/>
<path d="M1233.9 109.7C1239.8 109.7 1244.6 114.5 1244.6 120.4V157.7C1244.6 163.6 1239.8 168.4 1233.9 168.4C1228 168.4 1223.2 163.6 1223.2 157.7V120.4C1223.3 114.5 1228 109.7 1233.9 109.7Z" fill="#8E822F"/>
<path d="M946.3 56.5001H965.6C966.7 56.5001 967.6 57.4001 967.6 58.5001V100.5C967.6 101.6 966.7 102.5 965.6 102.5H946.3C945.2 102.5 944.3 101.6 944.3 100.5V58.5001C944.3 57.3001 945.2 56.5001 946.3 56.5001Z" fill="#CBCBCB"/>
<path d="M977.8 67.3001H967.6V91.5001H977.8V67.3001Z" fill="#989797"/>
<path d="M977.899 56.5001H987.899C1000.6 56.5001 1010.9 66.8001 1010.9 79.5001H977.899V56.5001Z" fill="#5A5959"/>
<path d="M977.899 68.6002H987.899C1000.6 68.6002 1010.9 78.9002 1010.9 91.6002H977.899V68.6002Z" fill="#CBCBCB"/>
<path d="M989.6 216.7H978.2C974 216.7 970.5 213.3 970.5 209.1V91.6001H985.1L986.5 104.8L997.2 208.3C997.7 212.8 994.2 216.7 989.6 216.7Z" fill="#99643D"/>
<path d="M986.5 104.8L970.6 113.4V91.6001H985.2L986.5 104.8Z" fill="#663E23"/>
</g>
<path d="M738.3 248.5H854.5" stroke="#663E23" stroke-width="2" stroke-miterlimit="10"/>
</g>
<defs>
<clipPath id="clip0_1528_78280">
<rect width="1335" height="464" fill="white"/>
</clipPath>
</defs>
</svg>
