<svg width="1335" height="464" viewBox="0 0 1335 464" fill="none" xmlns="http://www.w3.org/2000/svg">
<g clip-path="url(#clip0_1528_81074)">
<mask id="mask0_1528_81074" style="mask-type:luminance" maskUnits="userSpaceOnUse" x="0" y="0" width="1335" height="465">
<path d="M1335 0H0V464.071H1335V0Z" fill="white"/>
</mask>
<g mask="url(#mask0_1528_81074)">
<path d="M1335 0H0V464.071H1335V0Z" fill="#FCECCA"/>
<path d="M252.524 291.306L258.176 280.18C263.267 270.157 274.99 265.449 285.599 269.168L351.885 292.403C356.908 294.163 360.27 298.904 360.27 304.226C360.27 310.838 355.131 316.312 348.532 316.73L282.007 320.94C272.764 321.525 264.112 316.371 260.226 307.965L252.524 291.306Z" fill="#FDF6E9"/>
<path d="M0 243.268C0 243.268 127.136 225.625 278.775 294.803C430.413 363.981 525.188 256.238 754.641 302.128L370.556 382.936L0 325.074V243.268Z" fill="#FFDD8D"/>
<path d="M739.886 291.356L728.76 285.704C718.737 280.613 714.029 268.89 717.748 258.28L740.983 191.994C742.743 186.972 747.484 183.61 752.806 183.61C759.418 183.61 764.892 188.748 765.31 195.347L769.52 261.873C770.105 271.116 764.951 279.768 756.545 283.654L739.886 291.356Z" fill="#FFDD8D"/>
<path d="M732.765 305.682L741.927 235.22L745.916 235.508L744.88 306.555L732.765 305.682Z" fill="#FDCB5C"/>
<path d="M672.608 291.356L661.482 285.704C651.458 280.613 646.751 268.89 650.47 258.28L673.704 191.994C675.465 186.972 680.206 183.61 685.528 183.61C692.14 183.61 697.614 188.748 698.031 195.347L702.242 261.873C702.827 271.116 697.673 279.768 689.267 283.654L672.608 291.356Z" fill="#FFDD8D"/>
<path d="M665.487 305.682L674.648 235.22L678.638 235.508L677.602 306.555L665.487 305.682Z" fill="#FDCB5C"/>
<path d="M605.33 291.356L594.203 285.704C584.18 280.613 579.473 268.89 583.191 258.28L606.426 191.994C608.186 186.972 612.928 183.61 618.249 183.61C624.862 183.61 630.335 188.748 630.753 195.347L634.963 261.873C635.548 271.116 630.394 279.768 621.988 283.654L605.33 291.356Z" fill="#FFDD8D"/>
<path d="M598.208 305.682L607.37 235.22L611.36 235.508L610.323 306.555L598.208 305.682Z" fill="#FDCB5C"/>
<path d="M1162.74 -60.6514L758.085 344.009L800.512 386.434L1205.16 -18.2257L1162.74 -60.6514Z" fill="#FDF6E9"/>
<path d="M1306.72 -61.9002L902.061 342.755L958.629 399.323L1363.28 -5.33188L1306.72 -61.9002Z" fill="#FDF6E9"/>
<mask id="mask1_1528_81074" style="mask-type:luminance" maskUnits="userSpaceOnUse" x="1221" y="181" width="120" height="120">
<path d="M1340.53 237.19C1339.68 223.6 1334.27 211.25 1325.81 201.65C1314.88 189.22 1298.86 181.38 1281.01 181.38C1279.72 181.38 1278.44 181.42 1277.17 181.51C1263.58 182.36 1251.23 187.77 1241.62 196.23C1229.19 207.16 1221.35 223.18 1221.35 241.03C1221.35 242.32 1221.39 243.59 1221.48 244.86C1222.33 258.45 1227.74 270.8 1236.2 280.41C1247.13 292.84 1263.15 300.68 1281 300.68C1282.29 300.68 1283.56 300.64 1284.83 300.56C1298.42 299.7 1310.77 294.29 1320.38 285.82C1332.81 274.9 1340.65 258.88 1340.65 241.02C1340.65 239.73 1340.61 238.45 1340.52 237.18L1340.53 237.19ZM1286.55 260.86C1284.78 261.36 1282.93 261.62 1281 261.62C1273.3 261.62 1266.58 257.39 1263.05 251.13C1262.24 249.71 1261.6 248.18 1261.16 246.57C1260.66 244.81 1260.4 242.95 1260.4 241.02C1260.4 233.32 1264.63 226.6 1270.89 223.08C1272.31 222.27 1273.84 221.63 1275.45 221.19C1277.22 220.69 1279.08 220.43 1281 220.43C1288.7 220.43 1295.41 224.66 1298.95 230.92C1299.75 232.34 1300.4 233.87 1300.84 235.48C1301.34 237.24 1301.6 239.1 1301.6 241.03C1301.6 248.73 1297.37 255.45 1291.11 258.98C1289.69 259.78 1288.16 260.43 1286.55 260.87V260.86ZM1291.11 258.97C1289.69 259.77 1288.16 260.42 1286.55 260.86ZM1291.11 258.97L1301.6 241.02L1281.01 261.61L1286.56 260.85" fill="white"/>
</mask>
<g mask="url(#mask1_1528_81074)">
<path d="M1340.53 237.19C1339.68 223.6 1334.27 211.25 1325.81 201.65C1314.88 189.22 1298.86 181.38 1281.01 181.38C1279.72 181.38 1278.44 181.42 1277.17 181.51C1263.58 182.36 1251.23 187.77 1241.62 196.23C1229.19 207.16 1221.35 223.18 1221.35 241.03C1221.35 242.32 1221.39 243.59 1221.48 244.86C1222.33 258.45 1227.74 270.8 1236.2 280.41C1247.13 292.84 1263.15 300.68 1281 300.68C1282.29 300.68 1283.56 300.64 1284.83 300.56C1298.42 299.7 1310.77 294.29 1320.38 285.82C1332.81 274.9 1340.65 258.88 1340.65 241.02C1340.65 239.73 1340.61 238.45 1340.52 237.18L1340.53 237.19ZM1286.55 260.86C1284.78 261.36 1282.93 261.62 1281 261.62C1273.3 261.62 1266.58 257.39 1263.05 251.13C1262.24 249.71 1261.6 248.18 1261.16 246.57C1260.66 244.81 1260.4 242.95 1260.4 241.02C1260.4 233.32 1264.63 226.6 1270.89 223.08C1272.31 222.27 1273.84 221.63 1275.45 221.19C1277.22 220.69 1279.08 220.43 1281 220.43C1288.7 220.43 1295.41 224.66 1298.95 230.92C1299.75 232.34 1300.4 233.87 1300.84 235.48C1301.34 237.24 1301.6 239.1 1301.6 241.03C1301.6 248.73 1297.37 255.45 1291.11 258.98C1289.69 259.78 1288.16 260.43 1286.55 260.87V260.86ZM1291.11 258.97C1289.69 259.77 1288.16 260.42 1286.55 260.86Z" fill="#FFDD8D"/>
<path d="M1263.06 251.13L1236.2 280.4C1227.74 270.79 1222.33 258.44 1221.48 244.85L1261.17 246.57C1261.61 248.18 1262.25 249.71 1263.06 251.13Z" fill="#FDCB5C"/>
<path d="M1291.11 258.97L1320.38 285.82C1310.77 294.28 1298.42 299.69 1284.83 300.56L1286.55 260.86" fill="#FDCB5C"/>
<path d="M1340.53 237.19L1300.84 235.48C1300.4 233.87 1299.76 232.34 1298.95 230.92L1325.81 201.65C1334.27 211.25 1339.68 223.6 1340.53 237.19Z" fill="#FDCB5C"/>
<path d="M1277.17 181.501L1275.45 221.191C1273.84 221.641 1272.32 222.271 1270.89 223.081L1241.61 196.211C1251.22 187.751 1263.57 182.341 1277.16 181.491L1277.17 181.501Z" fill="#FDCB5C"/>
</g>
<path d="M393.983 -60.6499L205.035 128.303L247.461 170.729L436.41 -18.2242L393.983 -60.6499Z" fill="#FDF6E9"/>
<path d="M134.472 0H132.472V306.118H134.472V0Z" fill="#FFC3C5"/>
<path d="M1342.24 82.6484H-3.24023V84.6484H1342.24V82.6484Z" fill="#FFC3C5"/>
<path d="M566.093 0H564.093V306.118H566.093V0Z" fill="#FFC3C5"/>
<path d="M997.713 0H995.713V306.118H997.713V0Z" fill="#FFC3C5"/>
<mask id="mask2_1528_81074" style="mask-type:luminance" maskUnits="userSpaceOnUse" x="1" y="306" width="1340" height="57">
<path d="M1340.97 306.118H1.40332V362.373H1340.97V306.118Z" fill="white"/>
</mask>
<g mask="url(#mask2_1528_81074)">
<path d="M1340.97 306.118H1.40332V362.373H1340.97V306.118Z" fill="#D0EAF3"/>
</g>
<path d="M1406.54 506.572C1374.6 510.348 1374.14 502.586 1341.98 502.586C1309.82 502.586 1309.82 506.586 1277.66 506.586C1245.5 506.586 1245.5 502.586 1213.34 502.586C1181.18 502.586 1181.18 506.586 1149.02 506.586C1116.86 506.586 1116.86 502.586 1084.7 502.586C1052.54 502.586 1052.54 506.586 1020.38 506.586C988.218 506.586 988.218 502.586 956.056 502.586C923.896 502.586 923.896 506.586 891.735 506.586C859.575 506.586 859.575 502.586 827.416 502.586C795.257 502.586 795.257 506.586 763.099 506.586C730.939 506.586 730.939 502.586 698.78 502.586C666.62 502.586 666.62 506.586 634.461 506.586C602.299 506.586 602.299 502.586 570.138 502.586C537.976 502.586 537.976 506.586 505.814 506.586C473.653 506.586 473.653 502.586 441.492 502.586C409.329 502.586 409.329 506.586 377.167 506.586C345.005 506.586 345.005 502.586 312.843 502.586C280.681 502.586 280.682 506.586 248.522 506.586C216.359 506.586 216.359 502.586 184.197 502.586C152.034 502.586 152.034 506.586 119.871 506.586C87.7059 506.586 87.7059 502.586 55.5412 502.586C23.3765 502.586 22.9205 510.342 -9.02249 506.572C-12.792 506.127 -6.78809 500.79 -6.78809 496.995C-6.78809 493.197 -10.7881 493.197 -10.7881 489.4C-10.7881 485.602 -6.78809 485.603 -6.78809 481.807C-6.78809 478.01 -10.7881 478.01 -10.7881 474.212C-10.7881 470.415 -6.78809 470.415 -6.78809 466.618C-6.78809 462.82 -10.7881 462.82 -10.7881 459.022C-10.7881 455.224 -6.78809 455.225 -6.78809 451.428C-6.78809 447.631 -10.7881 447.63 -10.7881 443.832C-10.7881 440.034 -6.78809 440.033 -6.78809 436.234C-6.78809 432.436 -10.7881 432.436 -10.7881 428.638C-10.7881 424.84 -6.78809 424.84 -6.78809 421.041C-6.78809 417.243 -10.7881 417.243 -10.7881 413.444C-10.7881 409.645 -6.78809 409.645 -6.78809 405.845C-6.78809 402.049 -10.7881 402.049 -10.7881 398.252C-10.7881 394.455 -6.78809 394.453 -6.78809 390.655C-6.78809 386.857 -10.7881 386.857 -10.7881 383.058C-10.7881 379.26 -6.78809 379.26 -6.78809 375.461C-6.78809 371.663 -10.7881 371.662 -10.7881 367.862C-10.7881 364.063 -6.78809 364.062 -6.78809 360.261C-6.78809 356.46 -10.7881 356.461 -10.7881 352.662C-10.7881 348.86 -6.78809 348.86 -6.78809 345.058C-6.78809 341.255 -12.7988 335.913 -9.02289 335.467C22.9154 331.691 23.3726 339.453 55.5333 339.453C87.694 339.453 87.6931 335.453 119.853 335.453C152.013 335.453 152.013 339.453 184.173 339.453C216.333 339.453 216.334 335.453 248.494 335.453C280.655 335.453 280.655 339.453 312.815 339.453C344.975 339.453 344.975 335.453 377.136 335.453C409.296 335.453 409.297 339.453 441.458 339.453C473.62 339.453 473.619 335.453 505.78 335.453C537.94 335.453 537.939 339.453 570.099 339.453C602.259 339.453 602.258 335.453 634.416 335.453C666.575 335.453 666.575 339.453 698.734 339.453C730.894 339.453 730.894 335.453 763.054 335.453C795.214 335.453 795.216 339.453 827.377 339.453C859.538 339.453 859.539 335.453 891.701 335.453C923.863 335.453 923.862 339.453 956.023 339.453C988.184 339.453 988.185 335.453 1020.35 335.453C1052.51 335.453 1052.51 339.453 1084.67 339.453C1116.83 339.453 1116.83 335.453 1148.99 335.453C1181.15 335.453 1181.16 339.453 1213.32 339.453C1245.48 339.453 1245.48 335.453 1277.64 335.453C1309.81 335.453 1309.81 339.453 1341.97 339.453C1374.14 339.453 1374.59 331.698 1406.54 335.467C1410.31 335.912 1404.3 341.249 1404.3 345.045C1404.3 348.84 1408.3 348.842 1408.3 352.64C1408.3 356.436 1404.3 356.436 1404.3 360.233C1404.3 364.03 1408.3 364.03 1408.3 367.827C1408.3 371.624 1404.3 371.624 1404.3 375.421C1404.3 379.219 1408.3 379.219 1408.3 383.017C1408.3 386.815 1404.3 386.814 1404.3 390.611C1404.3 394.409 1408.3 394.409 1408.3 398.207C1408.3 402.006 1404.3 402.006 1404.3 405.805C1404.3 409.603 1408.3 409.603 1408.3 413.401C1408.3 417.2 1404.3 417.2 1404.3 420.998C1404.3 424.796 1408.3 424.797 1408.3 428.595C1408.3 432.395 1404.3 432.394 1404.3 436.194C1404.3 439.99 1408.3 439.99 1408.3 443.787C1408.3 447.586 1404.3 447.586 1404.3 451.384C1404.3 455.182 1408.3 455.182 1408.3 458.981C1408.3 462.779 1404.3 462.779 1404.3 466.578C1404.3 470.377 1408.3 470.377 1408.3 474.177C1408.3 477.976 1404.3 477.977 1404.3 481.778C1404.3 485.578 1408.3 485.578 1408.3 489.377C1408.3 493.179 1403.47 493.75 1404.36 497.447C1405.6 502.643 1410.31 506.126 1406.54 506.572Z" fill="#62AFE4"/>
<path d="M698.734 340.454V338.454C714.752 338.454 722.895 337.441 730.77 336.462C738.706 335.475 746.912 334.454 763.054 334.454V336.454C747.036 336.454 738.893 337.467 731.018 338.446C723.082 339.434 714.876 340.454 698.734 340.454Z" fill="#1E7ACE"/>
<path d="M253.265 449.645H-36.1191V304.453H253.265V449.645ZM-35.1191 448.645H252.265V305.453H-35.1191V448.645Z" fill="#3A9CDE"/>
<path d="M252.765 400.581H-35.6191V401.581H252.765V400.581Z" fill="#3A9CDE"/>
<path d="M252.765 352.517H-35.6191V353.517H252.765V352.517Z" fill="#3A9CDE"/>
<path d="M252.765 448.645H-35.6191V449.645H252.765V448.645Z" fill="#3A9CDE"/>
<path d="M252.765 400.581H-35.6191V401.581H252.765V400.581Z" fill="#3A9CDE"/>
<path d="M252.765 352.517H-35.6191V353.517H252.765V352.517Z" fill="#3A9CDE"/>
<path d="M205.201 304.953H204.201V478.681H205.201V304.953Z" fill="#3A9CDE"/>
<path d="M157.137 304.953H156.137V478.681H157.137V304.953Z" fill="#3A9CDE"/>
<path d="M109.073 304.953H108.073V478.681H109.073V304.953Z" fill="#3A9CDE"/>
<path d="M61.0088 304.953H60.0088V478.681H61.0088V304.953Z" fill="#3A9CDE"/>
<path d="M12.9448 304.953H11.9448V478.681H12.9448V304.953Z" fill="#3A9CDE"/>
<path d="M541.649 478.681H540.649V305.453H253.265V478.681H252.265V304.453H541.649V478.681Z" fill="#3A9CDE"/>
<path d="M541.149 400.581H252.765V401.581H541.149V400.581Z" fill="#3A9CDE"/>
<path d="M541.149 352.517H252.765V353.517H541.149V352.517Z" fill="#3A9CDE"/>
<path d="M541.149 448.645H252.765V449.645H541.149V448.645Z" fill="#3A9CDE"/>
<path d="M541.149 400.581H252.765V401.581H541.149V400.581Z" fill="#3A9CDE"/>
<path d="M541.149 352.517H252.765V353.517H541.149V352.517Z" fill="#3A9CDE"/>
<path d="M493.585 304.953H492.585V478.681H493.585V304.953Z" fill="#3A9CDE"/>
<path d="M445.521 304.953H444.521V478.681H445.521V304.953Z" fill="#3A9CDE"/>
<path d="M397.458 304.953H396.458V478.681H397.458V304.953Z" fill="#3A9CDE"/>
<path d="M349.394 304.953H348.394V478.681H349.394V304.953Z" fill="#3A9CDE"/>
<path d="M301.329 304.953H300.329V478.681H301.329V304.953Z" fill="#3A9CDE"/>
<path d="M830.034 449.645H540.649V304.453H830.034V449.645ZM541.649 448.645H829.034V305.453H541.649V448.645Z" fill="#3A9CDE"/>
<path d="M829.534 400.581H541.149V401.581H829.534V400.581Z" fill="#3A9CDE"/>
<path d="M829.534 352.517H541.149V353.517H829.534V352.517Z" fill="#3A9CDE"/>
<path d="M829.534 448.645H541.149V449.645H829.534V448.645Z" fill="#3A9CDE"/>
<path d="M829.534 400.581H541.149V401.581H829.534V400.581Z" fill="#3A9CDE"/>
<path d="M829.534 352.517H541.149V353.517H829.534V352.517Z" fill="#3A9CDE"/>
<path d="M781.97 304.953H780.97V478.681H781.97V304.953Z" fill="#3A9CDE"/>
<path d="M733.906 304.953H732.906V478.681H733.906V304.953Z" fill="#3A9CDE"/>
<path d="M685.842 304.953H684.842V478.681H685.842V304.953Z" fill="#3A9CDE"/>
<path d="M637.778 304.953H636.778V478.681H637.778V304.953Z" fill="#3A9CDE"/>
<path d="M589.714 304.953H588.714V478.681H589.714V304.953Z" fill="#3A9CDE"/>
<path d="M1118.42 449.645H829.534V448.645H1117.42V304.953H1118.42V449.645Z" fill="#3A9CDE"/>
<path d="M830.034 316.096H829.034V508.586H830.034V316.096Z" fill="#3A9CDE"/>
<path d="M1117.92 400.581H829.534V401.581H1117.92V400.581Z" fill="#3A9CDE"/>
<path d="M1117.92 352.517H829.534V353.517H1117.92V352.517Z" fill="#3A9CDE"/>
<path d="M1117.92 448.645H829.534V449.645H1117.92V448.645Z" fill="#3A9CDE"/>
<path d="M1117.92 400.581H829.534V401.581H1117.92V400.581Z" fill="#3A9CDE"/>
<path d="M1117.92 352.517H829.534V353.517H1117.92V352.517Z" fill="#3A9CDE"/>
<path d="M1070.35 304.953H1069.35V478.681H1070.35V304.953Z" fill="#3A9CDE"/>
<path d="M1022.29 304.953H1021.29V478.681H1022.29V304.953Z" fill="#3A9CDE"/>
<path d="M974.226 304.953H973.226V478.681H974.226V304.953Z" fill="#3A9CDE"/>
<path d="M926.162 304.953H925.162V478.681H926.162V304.953Z" fill="#3A9CDE"/>
<path d="M878.098 304.953H877.098V478.681H878.098V304.953Z" fill="#3A9CDE"/>
<path d="M1118.42 477.72H1117.42V304.453H1406.8V449.645H1118.42V477.72ZM1118.42 448.645H1405.8V305.453H1118.42V448.645Z" fill="#3A9CDE"/>
<path d="M1406.3 400.581H1117.92V401.581H1406.3V400.581Z" fill="#3A9CDE"/>
<path d="M1406.3 352.517H1117.92V353.517H1406.3V352.517Z" fill="#3A9CDE"/>
<path d="M1406.3 448.645H1117.92V449.645H1406.3V448.645Z" fill="#3A9CDE"/>
<path d="M1406.3 400.581H1117.92V401.581H1406.3V400.581Z" fill="#3A9CDE"/>
<path d="M1406.3 352.517H1117.92V353.517H1406.3V352.517Z" fill="#3A9CDE"/>
<path d="M1310.67 304.953H1309.67V478.681H1310.67V304.953Z" fill="#3A9CDE"/>
<path d="M1262.61 304.953H1261.61V478.681H1262.61V304.953Z" fill="#3A9CDE"/>
<path d="M1214.55 304.953H1213.55V478.681H1214.55V304.953Z" fill="#3A9CDE"/>
<path d="M1166.48 304.953H1165.48V478.681H1166.48V304.953Z" fill="#3A9CDE"/>
<path d="M441.458 340.454C425.315 340.454 417.109 339.434 409.173 338.446C401.298 337.467 393.154 336.454 377.135 336.454V334.454C393.278 334.454 401.484 335.475 409.42 336.462C417.296 337.441 425.439 338.454 441.458 338.454V340.454Z" fill="#1E7ACE"/>
<path d="M312.815 340.454V338.454C328.833 338.454 336.977 337.441 344.852 336.462C352.788 335.475 360.993 334.454 377.135 334.454V336.454C361.117 336.454 352.974 337.467 345.099 338.446C337.163 339.434 328.957 340.454 312.815 340.454Z" fill="#1E7ACE"/>
<path d="M1084.67 340.454V338.454C1100.69 338.454 1108.83 337.441 1116.71 336.462C1124.64 335.475 1132.85 334.454 1148.99 334.454V336.454C1132.97 336.454 1124.83 337.467 1116.96 338.446C1109.02 339.434 1100.81 340.454 1084.67 340.454Z" fill="#1E7ACE"/>
<path d="M1341.97 340.454C1325.83 340.454 1317.62 339.434 1309.69 338.446C1301.81 337.467 1293.66 336.454 1277.64 336.454V334.454C1293.79 334.454 1302 335.475 1309.93 336.462C1317.81 337.441 1325.95 338.454 1341.97 338.454V340.454Z" fill="#1E7ACE"/>
<path d="M1213.32 340.454V338.454C1229.34 338.454 1237.48 337.441 1245.36 336.462C1253.29 335.475 1261.5 334.454 1277.64 334.454V336.454C1261.62 336.454 1253.48 337.467 1245.6 338.446C1237.67 339.434 1229.46 340.454 1213.32 340.454Z" fill="#1E7ACE"/>
<path d="M1084.67 340.454C1068.53 340.454 1060.32 339.434 1052.39 338.446C1044.51 337.467 1036.37 336.454 1020.35 336.454V334.454C1036.49 334.454 1044.7 335.475 1052.63 336.462C1060.51 337.441 1068.65 338.454 1084.67 338.454L1084.67 340.454Z" fill="#1E7ACE"/>
<path d="M827.377 340.454C811.234 340.454 803.028 339.434 795.092 338.446C787.216 337.467 779.073 336.454 763.054 336.454V334.454C779.196 334.454 787.403 335.475 795.339 336.462C803.214 337.441 811.358 338.454 827.377 338.454V340.454Z" fill="#1E7ACE"/>
<path d="M1340.97 300.953H1.40332V310.109H1340.97V300.953Z" fill="#FDF6E9"/>
<path d="M1087.52 380.036H1083.52V273.242C1083.52 256.411 1090.08 240.587 1101.98 228.686L1128.07 202.599C1130.11 200.558 1133.03 199.977 1135.7 201.081C1138.36 202.186 1140.02 204.663 1140.02 207.548V300.798H1136.02V207.548C1136.02 206.293 1135.33 205.257 1134.17 204.777C1133 204.295 1131.78 204.54 1130.9 205.427L1104.81 231.514C1093.66 242.66 1087.52 257.479 1087.52 273.242V380.036Z" fill="#382C65"/>
<path d="M1151.41 380.036H1147.41V273.242C1147.41 256.411 1153.97 240.587 1165.87 228.686L1191.95 202.599C1193.99 200.558 1196.92 199.977 1199.58 201.081C1202.25 202.186 1203.9 204.663 1203.9 207.548V300.798H1199.9V207.548C1199.9 206.293 1199.21 205.257 1198.05 204.777C1196.89 204.295 1195.67 204.54 1194.78 205.427L1168.7 231.514C1157.55 242.66 1151.41 257.479 1151.41 273.242V380.036Z" fill="#382C65"/>
<path d="M1149.41 332.246H1085.52V336.246H1149.41V332.246Z" fill="#382C65"/>
<path d="M1149.41 360.983H1085.52V364.983H1149.41V360.983Z" fill="#382C65"/>
<path d="M1149.41 304.118H1085.52V308.118H1149.41V304.118Z" fill="#382C65"/>
<path d="M589.214 299.952H77.2549V301.952H589.214V299.952Z" fill="#FFC3C5"/>
<path d="M1335 299.952H1214.05V301.952H1335V299.952Z" fill="#FFC3C5"/>
<path d="M1074.81 299.952H1.40332V301.952H1074.81V299.952Z" fill="#FFC3C5"/>
<path d="M922.874 393.036C930.703 394.28 942.865 399.286 931.124 405.728C924.611 409.082 915.061 410.432 906.761 410.835C894.433 411.4 881.851 410.448 869.631 409.005C848.976 406.571 835.371 403.17 857.315 396.721C876.946 391.596 902.285 389.71 922.745 393.012L922.874 393.036Z" fill="#1E7ACE"/>
<path d="M935.419 389.164C935.564 399.195 929.77 404.064 913.875 404.294L885.318 404.707C878.053 404.812 871.521 401.102 867.82 395.392C865.966 392.534 864.823 389.173 864.65 385.539C864.538 383.122 864.845 380.623 865.774 378.136C868.751 370.182 880.559 371.54 881.517 379.978C881.53 380.1 881.543 380.223 881.552 380.348C881.579 380.688 881.964 380.871 882.252 380.685C883.892 379.619 888.516 377.033 895.25 376.652C895.663 376.628 895.83 376.107 895.506 375.846C891.64 372.722 878.453 360.531 892.554 349.499C905.325 339.509 929.781 353.452 920.569 368.42C919.401 370.315 920.091 372.81 922.04 373.891C926.063 376.118 931.891 380.002 934.308 384.85C934.988 386.217 935.398 387.66 935.419 389.164Z" fill="#FDABCB"/>
<path d="M867.456 387.619C866.666 387.619 866.009 386.999 865.971 386.202C865.839 383.405 866.248 380.716 867.187 378.206C867.475 377.436 868.332 377.045 869.101 377.334C869.871 377.622 870.262 378.479 869.974 379.249C869.177 381.378 868.83 383.67 868.943 386.061C868.982 386.882 868.348 387.578 867.528 387.618C867.504 387.618 867.48 387.619 867.456 387.619Z" fill="white"/>
<path d="M919.951 354.244C919.951 354.244 924.451 353.891 927.149 352.23C927.652 351.92 928.3 352.304 928.274 352.895C928.209 354.377 927.786 356.679 926.002 358.515L929.08 360.341C929.545 360.617 929.527 361.298 929.047 361.548L922.056 365.2L919.642 360.634C919.047 359.51 918.899 358.203 919.225 356.975L919.951 354.244Z" fill="#FDCB5C"/>
<path d="M910.583 357.738C910.602 359.009 909.569 358.88 908.298 358.898C907.027 358.917 905.998 359.075 905.98 357.804C905.961 356.533 906.977 355.487 908.248 355.469C909.519 355.451 910.565 356.466 910.583 357.738Z" fill="#382C65"/>
<path d="M896.796 401.139C892.137 401.139 887.743 399.357 884.394 396.103L875.346 387.312L876.383 386.246L885.431 395.036C888.5 398.017 892.528 399.651 896.797 399.651C896.878 399.651 896.958 399.65 897.039 399.649C904.741 399.537 911.215 394.192 912.782 386.65L913.411 383.624L914.868 383.926L914.239 386.953C912.529 395.182 905.465 401.015 897.061 401.137C896.973 401.138 896.884 401.139 896.796 401.139Z" fill="#FD7BAC"/>
<path d="M892.247 357.958C892.052 357.958 891.855 357.92 891.665 357.839C890.912 357.517 890.559 356.65 890.877 355.896C890.915 355.805 891.836 353.657 894.046 351.645C896.083 349.79 899.649 347.673 905.09 348.132C905.909 348.201 906.517 348.92 906.448 349.74C906.379 350.559 905.655 351.163 904.841 351.098C896.598 350.406 893.734 356.786 893.617 357.058C893.374 357.62 892.824 357.958 892.247 357.958Z" fill="white"/>
<path d="M867.82 395.393C873.452 398.598 886.458 404.69 903.549 404.443L885.318 404.707C878.053 404.812 871.521 401.102 867.82 395.393Z" fill="#FD7BAC"/>
<path d="M935.42 389.164C935.565 399.195 929.77 404.065 913.875 404.294L903.549 404.444C918.797 404.223 929.072 392.692 934.308 384.851C934.989 386.217 935.398 387.661 935.42 389.164Z" fill="#FD7BAC"/>
<path d="M922.741 359.487C922.151 359.487 921.514 359.441 920.846 359.323L920.975 358.591C923.845 359.095 926.173 358.164 926.196 358.154L926.479 358.842C926.399 358.875 924.882 359.487 922.741 359.487Z" fill="#FDBF32"/>
<path d="M300.824 367.317C453.695 364.81 606.665 362.905 759.519 367.336C770.441 367.773 781.362 368.264 792.288 369.177C796.401 369.545 800.524 369.93 804.608 370.667C806.07 370.969 807.436 371.193 808.88 371.859C809.395 372.133 810.03 372.508 810.273 373.129C811.435 376.3 805.056 377.039 803.116 377.601C789.643 380.214 775.96 381.367 762.356 382.744C697.11 388.75 631.603 391.628 566.46 398.709C561.045 399.328 555.629 399.98 550.267 400.829C547.336 401.365 544.297 401.703 541.66 402.807C541.577 402.849 541.47 402.936 541.536 402.876C541.551 402.845 541.644 402.763 541.674 402.509C541.693 402.279 541.581 402.055 541.531 402.009C541.44 401.902 541.483 401.976 541.587 402.011C543.216 402.623 544.996 402.74 546.761 402.969C552.135 403.523 557.593 403.749 563.035 403.959C644.898 405.798 726.812 403.734 808.672 402.313C808.672 402.312 808.694 403.205 808.694 403.205C726.808 405.007 644.873 407.73 562.963 405.995C557.494 405.793 552.033 405.58 546.54 405.024C544.605 404.773 542.554 404.652 540.685 403.883C540.479 403.779 540.225 403.669 539.908 403.307C538.934 401.823 540.496 400.899 541.757 400.515C549.813 398.28 558.006 397.675 566.219 396.595C620.516 390.638 675.072 387.435 729.502 383.117C751.22 381.294 773.031 379.588 794.592 376.5C799.032 375.69 803.849 375.314 807.921 373.438C807.943 373.417 807.974 373.396 807.995 373.383C807.975 373.39 807.984 373.388 807.962 373.425C807.893 373.512 807.901 373.545 807.85 373.731C807.855 373.957 807.863 374.198 808.021 374.331C806.916 373.716 805.437 373.474 804.135 373.212C789.362 370.954 774.352 370.703 759.418 370.006C607.193 364.961 451.396 370.072 300.824 367.317Z" fill="#FDF6E9"/>
<path d="M1326.03 447.06C1214.48 450.977 1102.59 447.891 991.266 457.13C982.23 458.205 972.771 458.732 964.163 461.707C963.539 461.97 962.957 462.262 962.605 462.677C962.588 462.732 962.625 462.588 962.603 462.557C962.554 462.53 962.871 462.916 963.266 463.147C965.624 464.53 968.377 465.176 971.093 465.906C993.723 471.002 1016.96 473.025 1040.01 475.677C1058.45 477.491 1077.04 479.557 1095.56 479.433C1098.48 479.256 1101.74 479.42 1104.34 478.217C1104.35 478.187 1104.4 478.16 1104.39 478.172C1104.35 478.206 1104.37 478.258 1104.34 478.326C1104.38 478.472 1104.35 478.367 1104.25 478.245C1102 476.299 1098.97 475.444 1096.16 474.347C1093.99 473.579 1091.78 472.877 1089.57 472.207C1062.79 464.458 1035.31 459.268 1007.92 454.147C916.336 437.794 823.785 426.486 730.879 421.311C730.879 421.311 730.91 420.707 730.91 420.707C842.415 426.701 953.844 439.687 1063.06 463.254C1072.14 465.34 1081.21 467.54 1090.17 470.203C1095.25 471.863 1100.52 473.146 1105.07 476.135C1105.73 476.654 1106.5 477.376 1106.47 478.352C1106.32 481.732 1098.04 481.356 1095.61 481.58C1076.89 481.74 1058.36 479.711 1039.77 477.921C1021.25 475.947 1002.73 473.98 984.295 470.967C979.47 469.963 961.735 467.689 960.291 463.243C959.742 461.301 961.779 460.065 963.209 459.486C972.185 456.315 981.672 455.809 991.021 454.669C1065.27 448.316 1139.86 447.776 1214.32 446.276C1251.55 445.825 1288.79 444.912 1326.03 446.454L1326.03 447.06Z" fill="#FDF6E9"/>
<path d="M1529.09 427.222C1450.97 411.055 1370.9 405.65 1291.26 403.905C1267.94 403.681 1244.14 403.342 1220.86 404.241C1211.5 404.62 1202.11 405.075 1192.9 406.302C1189.64 406.875 1185.76 407.145 1183.1 408.862C1183.15 408.832 1183.15 408.479 1183.11 408.471C1183.97 409.29 1185.58 409.831 1186.89 410.259C1190.19 411.283 1193.6 411.946 1197.02 412.553C1243.3 419.281 1290.77 419.009 1337.17 413.467C1346.6 412.067 1383.88 406.96 1388.02 400.158C1387.46 395.688 1366.5 392.71 1362.05 391.947C1352.79 390.546 1343.46 389.531 1334.12 388.65C1240.5 380.863 1146.4 380.819 1052.51 380.357C1052.51 380.357 1052.51 378.406 1052.51 378.406C1146.48 378.745 1240.62 378.666 1334.34 386.339C1348.4 387.709 1362.52 389.111 1376.35 392.202C1380.68 393.3 1394.83 396.336 1389.09 402.778C1386.23 405.336 1382.59 406.393 1379.13 407.591C1374.59 409.027 1369.98 410.119 1365.37 411.114C1356.13 413.058 1346.85 414.653 1337.5 415.913C1290.78 421.55 1243.18 421.883 1196.56 415.166C1191.51 414.104 1186.13 413.602 1181.65 410.764C1181.35 410.505 1181.01 410.219 1180.72 409.66C1180.4 409.111 1180.4 408.123 1180.75 407.584C1181.82 405.887 1183.92 405.498 1185.44 404.995C1187.81 404.361 1190.17 403.978 1192.52 403.641C1225.25 399.903 1258.43 401.004 1291.31 401.096C1352.4 402.286 1413.61 405.853 1474.12 414.595C1492.74 417.371 1511.3 420.522 1529.61 425.178L1529.09 427.222Z" fill="#FDF6E9"/>
</g>
</g>
<defs>
<clipPath id="clip0_1528_81074">
<rect width="1335" height="464" fill="white"/>
</clipPath>
</defs>
</svg>
