<svg width="1335" height="464" viewBox="0 0 1335 464" fill="none" xmlns="http://www.w3.org/2000/svg">
<g clip-path="url(#clip0_2302_148)">
<rect width="1335" height="464" fill="#58AF67"/>
<path fill-rule="evenodd" clip-rule="evenodd" d="M903 547V167L1670 167V209L945 209V547H903Z" fill="#FFF8E9"/>
<path fill-rule="evenodd" clip-rule="evenodd" d="M841.554 231.968L840.517 232.721L824.7 244.24L814.298 230.228L828.751 219.708L836.797 230.593L839.564 228.555L831.53 217.685L833.238 216.442L831.21 213.664L829.486 214.92L819.112 200.885L820.818 199.643L818.79 196.865L817.068 198.119L796.18 169.866L793.414 171.906L801.876 183.351L787.347 193.927L776.946 179.917L787.777 172.034L785.749 169.257L774.896 177.155L764.492 163.142L766.404 161.746L764.373 158.971L762.442 160.38L755.166 150.58L752.404 152.625L759.662 162.401L759.261 162.692L745.533 172.686L735.166 158.661L748.182 149.063L746.065 146.331L733.112 155.883L726.52 146.967L726.509 146.944L722.15 141.05L719.384 143.09L723.537 148.705L723.547 148.727L730.345 157.923L729.513 158.536L715.993 168.369L698.399 144.568L695.633 146.608L713.213 170.391L698.849 180.838L681.336 157.147L678.57 159.187L696.069 182.86L681.704 193.308L664.272 169.727L661.506 171.767L678.924 195.329L664.559 205.777L647.211 182.308L644.444 184.347L661.779 207.799L648.998 217.095L648.988 217.102L647.424 218.255L641.477 210.212L641.461 210.192L636.837 203.93L634.069 205.968L638.743 212.297L638.76 212.318L644.658 220.295L635.071 227.364L637.188 230.097L646.712 223.074L657.069 237.083L642.707 247.536L633.804 235.491L631.037 237.53L639.928 249.558L636.98 251.704L639.007 254.482L641.972 252.324L652.343 266.355L640.496 274.98L642.524 277.758L654.388 269.12L664.761 283.155L650.401 293.608L642.582 283.031L639.817 285.072L660.034 312.419L658.492 313.542L660.52 316.32L662.078 315.185L672.454 329.219L670.917 330.338L672.945 333.116L674.499 331.985L684.109 344.986L686.876 342.947L677.276 329.962L691.635 319.511L702.009 333.545L684.571 346.238L686.599 349.015L704.053 336.311L714.428 350.347L708.711 354.505L705.241 357.033L707.27 359.81L710.739 357.282L716.473 353.112L726.019 366.022L728.785 363.982L719.252 351.09L733.61 340.631L743.959 354.631L727.895 366.316L729.993 369.062L746.012 357.409L750.515 363.501L750.532 363.522L756.598 371.726L759.365 369.686L753.249 361.416L753.233 361.396L748.792 355.387L763.154 344.941L781.036 369.132L783.803 367.093L765.934 342.92L780.303 332.469L798.104 356.549L800.87 354.509L783.083 330.448L797.444 320.003L815.162 343.971L817.928 341.932L800.224 317.981L814.588 307.534L832.225 331.393L834.991 329.353L817.368 305.512L831.728 295.068L835.308 299.909L835.319 299.932L841.716 308.577L844.482 306.536L838.292 298.17L838.281 298.148L834.508 293.047L850.396 281.491L848.297 278.745L832.453 290.269L822.078 276.236L836.424 265.796L843.128 274.828L845.891 272.782L839.203 263.774L849.865 256.016L847.839 253.237L837.154 261.014L826.75 247.001L842.54 235.502L843.577 234.749L841.554 231.968ZM649.478 221.034L659.847 235.061L674.206 224.61L663.831 210.574L651.12 219.824L651.105 219.835L651.095 219.842L649.478 221.034ZM666.61 208.552L676.985 222.587L691.346 212.133L680.978 198.107L666.61 208.552ZM683.758 196.086L694.125 210.11L708.485 199.656L698.123 185.639L683.758 196.086ZM700.903 183.617L711.263 197.633L725.623 187.18L715.267 173.17L700.903 183.617ZM718.047 171.148L728.402 185.157L742.754 174.708L732.4 160.701L731.616 161.279L718.047 171.148ZM761.712 165.163L772.117 179.178L757.952 189.487L747.577 175.451L761.286 165.472L761.712 165.163ZM730.446 187.922L744.799 177.474L755.173 191.509L740.819 201.955L730.446 187.922ZM713.308 200.399L727.667 189.945L738.04 203.978L723.68 214.431L713.308 200.399ZM696.169 212.875L710.529 202.422L720.901 216.454L706.541 226.905L696.169 212.875ZM679.03 225.353L693.39 214.898L703.762 228.928L689.401 239.383L679.03 225.353ZM661.892 237.826L676.251 227.376L686.622 241.406L672.262 251.857L661.892 237.826ZM644.751 250.301L659.113 239.849L669.484 253.879L655.122 264.332L644.751 250.301ZM657.166 267.098L667.54 281.132L681.902 270.679L671.528 256.645L657.166 267.098ZM674.307 254.622L684.681 268.657L699.04 258.206L688.666 244.171L674.307 254.622ZM691.445 242.149L701.819 256.183L716.181 245.728L705.806 231.694L691.445 242.149ZM708.585 229.671L718.959 243.705L733.32 233.254L722.945 219.219L708.585 229.671ZM725.724 217.196L736.099 231.231L750.459 220.778L740.085 206.744L725.724 217.196ZM742.864 204.721L753.238 218.755L767.59 208.308L757.217 194.275L742.864 204.721ZM759.996 192.252L770.369 206.285L784.568 195.949L774.167 181.939L759.996 192.252ZM789.398 196.689L803.921 186.117L814.289 200.142L799.794 210.692L789.398 196.689ZM772.414 209.051L786.619 198.711L797.015 212.714L782.78 223.075L772.414 209.051ZM755.282 221.521L769.635 211.074L780.001 225.098L765.649 235.545L755.282 221.521ZM738.143 233.996L752.503 223.543L762.87 237.568L748.509 248.02L738.143 233.996ZM721.004 246.471L735.364 236.019L745.73 250.043L731.371 260.495L721.004 246.471ZM703.863 258.949L718.225 248.493L728.592 262.518L714.23 272.973L703.863 258.949ZM686.725 271.422L701.084 260.971L711.451 274.996L697.092 285.447L686.725 271.422ZM669.584 283.898L683.946 273.445L694.313 287.47L679.951 297.923L669.584 283.898ZM666.806 285.92L677.173 299.946L663.423 309.96L662.815 310.4L652.446 296.374L666.806 285.92ZM664.859 313.166L675.232 327.196L689.591 316.746L679.217 302.711L665.447 312.74L664.859 313.166ZM681.996 300.688L692.37 314.723L706.731 304.27L696.357 290.236L681.996 300.688ZM699.136 288.213L709.51 302.248L723.87 291.796L713.496 277.762L699.136 288.213ZM716.275 275.739L726.649 289.774L741.011 279.318L730.637 265.284L716.275 275.739ZM733.416 263.261L743.79 277.295L758.15 266.844L747.775 252.809L733.416 263.261ZM750.554 250.786L760.929 264.821L775.289 254.369L764.914 240.333L750.554 250.786ZM767.693 238.31L778.068 252.346L792.423 241.897L782.045 227.863L767.693 238.31ZM784.824 225.84L795.202 239.874L809.469 229.489L799.065 215.476L784.824 225.84ZM801.844 213.453L812.248 227.467L826.707 216.942L816.333 202.907L801.844 213.453ZM797.246 242.638L811.518 232.25L821.921 246.263L807.621 256.672L797.246 242.638ZM780.112 255.111L794.467 244.661L804.842 258.694L790.485 269.144L780.112 255.111ZM762.973 267.587L777.333 257.134L787.706 271.167L773.346 281.62L762.973 267.587ZM745.835 280.06L760.194 269.61L770.567 283.643L756.209 294.094L745.835 280.06ZM728.693 292.539L743.056 282.083L753.43 296.117L739.067 306.573L728.693 292.539ZM711.554 305.013L725.914 294.562L736.288 308.596L721.928 319.047L711.554 305.013ZM694.414 317.488L708.775 307.036L719.149 321.07L704.788 331.522L694.414 317.488ZM823.971 249.024L809.664 259.435L820.036 273.472L834.375 263.037L823.971 249.024ZM806.885 261.457L792.526 271.906L802.902 285.943L817.257 275.495L806.885 261.457ZM789.747 273.928L775.388 284.383L785.762 298.417L800.123 287.965L789.747 273.928ZM772.61 286.406L758.253 296.859L768.625 310.89L782.983 300.44L772.61 286.406ZM755.474 298.882L741.111 309.338L751.483 323.369L765.846 312.913L755.474 298.882ZM738.332 311.361L723.973 321.812L734.345 335.843L748.704 325.392L738.332 311.361ZM721.193 323.835L706.832 334.288L717.208 348.324L731.566 337.866L721.193 323.835ZM804.946 288.707L819.299 278.259L829.673 292.29L815.314 302.734L804.946 288.707ZM787.806 301.182L802.167 290.729L812.535 304.755L798.17 315.203L787.806 301.182ZM770.669 313.655L785.027 303.205L795.39 317.224L781.029 327.669L770.669 313.655ZM753.527 326.135L767.891 315.678L778.249 329.691L763.88 340.141L753.527 326.135ZM736.389 338.608L750.748 328.158L761.101 342.163L746.738 352.608L736.389 338.608Z" fill="#4A974A"/>
<path fill-rule="evenodd" clip-rule="evenodd" d="M841.552 231.993L840.514 232.746L824.698 244.264L814.295 230.252L828.749 219.732L836.794 230.618L839.561 228.579L831.528 217.71L833.235 216.466L831.208 213.689L829.483 214.944L819.109 200.909L820.816 199.667L818.788 196.89L817.065 198.144L796.178 169.891L793.412 171.931L801.874 183.376L787.345 193.951L776.944 179.941L787.775 172.059L785.747 169.281L774.894 177.18L764.49 163.166L766.402 161.77L764.371 158.995L762.44 160.405L755.164 150.605L752.402 152.65L759.659 162.426L759.258 162.717L745.531 172.71L735.163 158.686L748.179 149.088L746.062 146.355L733.109 155.907L726.518 146.991L726.507 146.968L722.148 141.074L719.382 143.115L723.534 148.729L723.545 148.752L730.343 157.947L729.511 158.561L715.991 168.394L698.397 144.593L695.63 146.632L713.211 170.416L698.846 180.863L681.334 157.172L678.567 159.211L696.067 182.885L681.702 193.332L664.27 169.752L661.503 171.791L678.922 195.354L664.557 205.801L647.208 182.332L644.442 184.372L661.777 207.823L648.995 217.119L648.985 217.126L647.422 218.28L641.475 210.236L641.459 210.216L636.834 203.954L634.067 205.993L638.741 212.322L638.758 212.342L644.655 220.32L635.069 227.389L637.186 230.121L646.71 223.098L657.066 237.108L642.704 247.56L633.801 235.515L631.035 237.554L639.925 249.583L636.977 251.728L639.004 254.506L641.969 252.348L652.341 266.379L640.494 275.004L642.521 277.782L654.385 269.145L664.759 283.179L650.399 293.633L642.579 283.055L639.814 285.097L660.031 312.444L658.489 313.566L660.517 316.344L662.076 315.209L672.452 329.244L670.915 330.363L672.943 333.14L674.496 332.009L684.107 345.011L686.874 342.972L677.274 329.986L691.632 319.536L702.006 333.57L684.569 346.262L686.596 349.04L704.05 336.335L714.426 350.371L708.708 354.529L705.239 357.058L707.268 359.834L710.736 357.307L716.47 353.137L726.017 366.047L728.782 364.006L719.25 351.114L733.608 340.656L743.956 354.655L727.892 366.34L729.99 369.086L746.01 357.434L750.513 363.526L750.529 363.546L756.596 371.751L759.362 369.711L753.247 361.44L753.231 361.42L748.789 355.411L763.152 344.966L781.034 369.157L783.8 367.117L765.932 342.944L780.301 332.494L798.101 356.573L800.868 354.534L783.08 330.472L797.442 320.027L815.159 343.996L817.926 341.956L800.221 318.006L814.586 307.558L832.222 331.417L834.989 329.378L817.366 305.537L831.726 295.093L835.306 299.933L835.317 299.956L841.714 308.601L844.479 306.561L838.289 298.195L838.279 298.172L834.505 293.071L850.394 281.515L848.295 278.77L832.451 290.293L822.076 276.261L836.421 265.821L843.126 274.852L845.888 272.807L839.2 263.798L849.863 256.04L847.836 253.262L837.151 261.039L826.748 247.025L842.537 235.526L843.575 234.774L841.552 231.993ZM649.476 221.058L659.845 235.085L674.204 224.635L663.828 210.599L651.118 219.848L651.102 219.859L651.093 219.866L649.476 221.058ZM666.608 208.576L676.983 222.612L691.343 212.157L680.975 198.132L666.608 208.576ZM683.755 196.111L694.122 210.134L708.482 199.681L698.12 185.663L683.755 196.111ZM700.9 183.641L711.261 197.658L725.621 187.204L715.265 173.194L700.9 183.641ZM718.044 171.172L728.4 185.181L742.752 174.733L732.397 160.726L731.614 161.304L718.044 171.172ZM761.71 165.187L772.114 179.202L757.95 189.511L747.575 175.476L761.283 165.496L761.71 165.187ZM730.444 187.947L744.796 177.498L755.17 191.534L740.817 201.98L730.444 187.947ZM713.305 200.423L727.665 189.97L738.038 204.002L723.678 214.455L713.305 200.423ZM696.167 212.9L710.526 202.446L720.899 216.478L706.538 226.93L696.167 212.9ZM679.027 225.377L693.388 214.923L703.759 228.953L689.398 239.407L679.027 225.377ZM661.889 237.851L676.248 227.4L686.619 241.43L672.26 251.881L661.889 237.851ZM644.749 250.326L659.11 239.873L669.481 253.903L655.119 264.356L644.749 250.326ZM657.164 267.122L667.537 281.156L681.899 270.704L671.526 256.669L657.164 267.122ZM674.304 254.647L684.678 268.681L699.038 258.23L688.663 244.196L674.304 254.647ZM691.442 242.173L701.817 256.207L716.178 245.752L705.804 231.718L691.442 242.173ZM708.583 229.695L718.957 243.729L733.317 233.278L722.943 219.244L708.583 229.695ZM725.722 217.221L736.096 231.255L750.456 220.802L740.082 206.768L725.722 217.221ZM742.861 204.745L753.235 218.78L767.588 208.332L757.215 194.299L742.861 204.745ZM759.994 192.277L770.367 206.309L784.566 195.974L774.165 181.964L759.994 192.277ZM789.395 196.713L803.919 186.142L814.286 200.166L799.791 210.716L789.395 196.713ZM772.411 209.075L786.616 198.736L797.012 212.739L782.778 223.1L772.411 209.075ZM755.28 221.545L769.632 211.098L779.999 225.122L765.646 235.569L755.28 221.545ZM738.14 234.021L752.501 223.568L762.867 237.592L748.507 248.045L738.14 234.021ZM721.001 246.495L735.361 236.044L745.728 250.068L731.369 260.52L721.001 246.495ZM703.861 258.973L718.222 248.518L728.59 262.542L714.228 272.998L703.861 258.973ZM686.722 271.447L701.082 260.996L711.449 275.021L697.089 285.472L686.722 271.447ZM669.582 283.922L683.944 273.469L694.311 287.494L679.949 297.947L669.582 283.922ZM666.803 285.945L677.17 299.97L663.42 309.984L662.812 310.424L652.443 296.398L666.803 285.945ZM664.857 313.19L675.23 327.221L689.588 316.77L679.214 302.736L665.445 312.764L664.857 313.19ZM681.993 300.713L692.367 314.747L706.729 304.295L696.355 290.26L681.993 300.713ZM699.134 288.237L709.508 302.272L723.868 291.821L713.493 277.786L699.134 288.237ZM716.272 275.763L726.647 289.798L741.009 279.342L730.634 265.308L716.272 275.763ZM733.413 263.285L743.788 277.319L758.147 266.869L747.772 252.833L733.413 263.285ZM750.551 250.81L760.926 264.846L775.286 254.393L764.911 240.357L750.551 250.81ZM767.69 238.335L778.065 252.37L792.42 241.921L782.043 227.887L767.69 238.335ZM784.822 225.865L795.199 239.899L809.466 229.514L799.062 215.5L784.822 225.865ZM801.842 213.477L812.245 227.491L826.705 216.967L816.33 202.932L801.842 213.477ZM797.243 242.663L811.516 232.275L821.919 246.287L807.619 256.696L797.243 242.663ZM780.11 255.136L794.464 244.685L804.84 258.719L790.483 269.169L780.11 255.136ZM762.97 267.611L777.331 257.158L787.704 271.192L773.343 281.644L762.97 267.611ZM745.832 280.085L760.191 269.634L770.564 283.667L756.206 294.118L745.832 280.085ZM728.691 292.564L743.053 282.108L753.427 296.141L739.064 306.597L728.691 292.564ZM711.552 305.038L725.912 294.586L736.285 308.62L721.926 319.071L711.552 305.038ZM694.412 317.513L708.773 307.06L719.147 321.094L704.785 331.546L694.412 317.513ZM823.969 249.048L809.662 259.459L820.034 273.497L834.372 263.061L823.969 249.048ZM806.882 261.482L792.524 271.93L802.9 285.967L817.255 275.519L806.882 261.482ZM789.745 273.953L775.386 284.407L785.76 298.442L800.121 287.99L789.745 273.953ZM772.607 286.431L758.251 296.884L768.623 310.914L782.981 300.464L772.607 286.431ZM755.472 298.907L741.109 309.363L751.48 323.394L765.844 312.937L755.472 298.907ZM738.33 311.386L723.97 321.837L734.342 335.867L748.701 325.417L738.33 311.386ZM721.191 323.86L706.83 334.312L717.205 348.348L731.564 337.89L721.191 323.86ZM804.943 288.731L819.297 278.283L829.671 292.315L815.312 302.758L804.943 288.731ZM787.804 301.206L802.164 290.754L812.532 304.78L798.168 315.227L787.804 301.206ZM770.667 313.68L785.025 303.229L795.388 317.249L781.027 327.694L770.667 313.68ZM753.525 326.159L767.888 315.703L778.247 329.715L763.878 340.166L753.525 326.159ZM736.387 338.633L750.746 328.182L761.098 342.187L746.735 352.633L736.387 338.633Z" fill="#4A974A"/>
<path fill-rule="evenodd" clip-rule="evenodd" d="M851.953 313.912C852.511 329.586 854.73 345.134 858.807 360.268L858.808 360.27L869.243 398.932L869.546 399.957L869.562 400.018C871.566 407.827 868.59 415.948 862.051 420.764C855.449 425.626 846.678 426.032 839.729 421.75L839.727 421.748L804.501 400.071C791.193 391.882 776.989 385.32 762.176 380.254C755.386 377.935 748.493 375.932 741.475 374.241L741.462 374.238L741.45 374.235C739.415 373.729 737.355 373.256 735.281 372.804C733.246 372.361 732.098 372.069 730.053 371.502C725.526 370.28 720.124 368.574 715.681 366.804C708.361 363.9 701.182 360.283 694.265 355.967C691.722 354.398 689.21 352.736 686.746 350.967C676.944 344.71 665.457 332.632 660.939 327.375C658.612 324.697 656.384 321.917 654.23 319.043C652.069 316.16 650.038 313.23 648.132 310.255C644.155 304.094 640.708 297.765 637.79 291.324C635.916 287.217 634.27 283.085 632.836 278.909C631.849 276.063 630.961 273.196 630.183 270.33C628.022 262.5 626.609 254.633 625.926 246.838C625.506 242.102 625.355 237.378 625.483 232.724C625.595 228.314 625.959 223.957 626.566 219.663C627.375 213.856 628.63 208.175 630.335 202.686C636.186 183.803 647.291 167.17 663.543 155.204C670.653 149.276 691.687 137.419 718.937 137.419C719.659 137.412 720.615 137.417 721.731 137.441C722.091 137.449 722.45 137.459 722.81 137.47C726.715 137.591 732.059 137.938 736.391 138.753C740.708 139.414 745.018 140.333 749.297 141.501C753.812 142.728 758.325 144.234 762.772 146.006C770.09 148.904 777.27 152.527 784.197 156.841C786.737 158.406 789.246 160.081 791.7 161.842C795.312 164.406 798.829 167.17 802.243 170.137C807.606 174.766 812.721 179.873 817.509 185.43C819.837 188.107 822.064 190.886 824.218 193.76C826.378 196.643 828.409 199.573 830.316 202.548C834.295 208.715 837.743 215.046 840.662 221.488C840.964 222.15 844.013 229.773 845.499 233.502C845.899 234.302 847.666 240.168 848.499 243.002C848.569 243.348 848.719 243.98 848.923 244.838C849.897 248.927 852.09 258.142 852.522 265.967C852.681 270.47 852.999 279.578 852.999 279.988C852.999 280.502 852.7 285.377 852.637 286.29C852.424 289.361 851.999 295.602 851.999 296.002C851.802 301.608 851.499 310.502 851.953 313.912ZM796.358 349.629C790.062 353.053 783.363 355.511 776.393 357.046C768.566 358.783 760.429 359.342 752.171 358.807C752.171 358.82 752.16 358.812 752.141 358.801C743.321 358.234 734.368 356.399 725.574 353.353C724.173 352.882 722.777 352.361 721.404 351.817C715.728 349.617 710.145 346.903 704.715 343.715C698.721 340.205 692.917 336.11 687.393 331.465C682.28 327.165 677.409 322.395 672.856 317.166C670.659 314.663 668.548 312.051 666.512 309.337C664.476 306.623 662.568 303.862 660.781 301.051C657.043 295.217 653.852 289.22 651.184 283.125C648.292 276.544 646.024 269.85 644.357 263.15C642.853 257.073 641.858 250.985 641.375 244.965C641.241 243.495 641.146 242.02 641.093 240.559C640.706 231.327 641.521 222.316 643.523 213.79C643.518 213.766 643.518 213.752 643.535 213.758C645.397 205.761 648.298 198.211 652.242 191.287C655.743 185.121 660.055 179.469 665.185 174.489C667.597 172.117 670.2 169.905 672.984 167.856C675.768 165.808 678.661 163.976 681.65 162.376C687.946 158.951 694.656 156.489 701.627 154.953C709.442 153.221 717.583 152.655 725.839 153.204C725.84 153.192 725.851 153.194 725.867 153.197C725.871 153.198 725.874 153.198 725.878 153.199C734.687 153.77 743.627 155.605 752.432 158.646C753.832 159.117 755.229 159.638 756.607 160.193C762.282 162.393 767.871 165.104 773.307 168.29C779.292 171.81 785.1 175.898 790.62 180.551C795.731 184.845 800.599 189.609 805.155 194.844C807.352 197.348 809.463 199.959 811.499 202.673C813.535 205.387 815.443 208.148 817.233 210.951C820.959 216.79 824.161 222.796 826.83 228.89C829.722 235.472 831.989 242.165 833.646 248.87C835.157 254.951 836.152 261.039 836.641 267.056C836.761 268.526 836.851 269.99 836.91 271.448C837.285 280.672 836.479 289.685 834.491 298.225C834.485 298.228 834.482 298.233 834.48 298.24C834.479 298.245 834.479 298.251 834.479 298.258C833.421 302.756 832.038 307.131 830.327 311.318L830.159 311.76C828.881 314.849 827.426 317.84 825.783 320.724C822.282 326.889 817.964 332.543 812.84 337.535C810.414 339.906 807.819 342.108 805.035 344.157C802.251 346.205 799.358 348.037 796.369 349.637L796.358 349.629ZM792.438 374.541L843.117 406.006L843.11 406.003C845.44 407.441 848.14 407.321 850.354 405.677C852.053 404.414 853.571 401.987 852.787 398.921L852.77 398.834L837.36 341.258C836.681 338.735 833.327 338.175 831.84 340.362C827.318 347.038 821.712 352.982 815.04 357.939C808.314 362.934 800.948 366.602 793.183 368.995C790.649 369.777 790.215 373.166 792.438 374.541Z" fill="#4A974A"/>
<path d="M850.16 431.136C848.798 429.292 839.889 422.128 836.05 419.501L845.004 415.732L861.599 403.477L868.414 396.308C869.331 399.257 871.306 404.774 872.929 408.688C873.27 408.976 873.586 409.309 873.868 409.685L957.714 521.675C959.48 524.034 959.213 527.197 957.118 528.739L939.07 542.031C936.975 543.574 933.845 542.912 932.08 540.553L850.16 431.136Z" fill="#4A974A"/>
<path d="M960.217 521.229L887.176 423.68C885.638 421.625 882.545 421.318 880.269 422.994L859.737 438.115C857.461 439.791 856.863 442.815 858.401 444.87L931.442 542.419C932.98 544.474 936.072 544.781 938.348 543.105L958.881 527.984C961.157 526.308 961.755 523.284 960.217 521.229Z" fill="#4A974A"/>
<mask id="mask0_2302_148" style="mask-type:alpha" maskUnits="userSpaceOnUse" x="857" y="421" width="105" height="124">
<path d="M960.217 521.219L887.189 423.681C885.651 421.626 882.558 421.32 880.281 422.998L859.738 438.126C857.461 439.803 856.862 442.828 858.4 444.883L931.427 542.421C932.965 544.476 936.058 544.781 938.336 543.104L958.878 527.976C961.156 526.298 961.755 523.274 960.217 521.219Z" fill="#041F49"/>
</mask>
<g mask="url(#mask0_2302_148)">
<path fill-rule="evenodd" clip-rule="evenodd" d="M906.942 439.586L878.435 482.008L871.776 477.534L900.284 435.112L906.942 439.586Z" fill="#4A974A"/>
<path fill-rule="evenodd" clip-rule="evenodd" d="M923.962 462.633L895.455 505.055L888.796 500.581L917.304 458.159L923.962 462.633Z" fill="#4A974A"/>
</g>
<path fill-rule="evenodd" clip-rule="evenodd" d="M849.552 217.991L848.515 218.744L832.698 230.262L822.296 216.25L836.749 205.73L844.795 216.616L847.562 214.577L839.528 203.708L841.236 202.464L839.208 199.687L837.484 200.942L827.11 186.907L828.816 185.665L826.788 182.888L825.066 184.142L804.179 155.889L801.412 157.929L809.874 169.374L795.345 179.949L784.944 165.939L795.775 158.057L793.747 155.279L782.894 163.178L772.49 149.164L774.403 147.768L772.371 144.993L770.44 146.403L763.164 136.603L760.402 138.648L767.66 148.424L767.259 148.715L753.531 158.708L743.164 144.684L756.18 135.086L754.063 132.353L741.11 141.905L734.518 132.989L734.507 132.966L730.148 127.073L727.382 129.113L731.535 134.727L731.545 134.75L738.343 143.945L737.511 144.559L723.991 154.392L706.397 130.591L703.631 132.63L721.211 156.414L706.847 166.861L689.334 143.17L686.568 145.209L704.067 168.883L689.702 179.33L672.271 155.75L669.504 157.789L686.922 181.352L672.557 191.8L655.209 168.33L652.442 170.37L669.777 193.821L656.996 203.117L656.986 203.125L655.422 204.278L649.476 196.234L649.459 196.214L644.835 189.952L642.067 191.991L646.741 198.32L646.758 198.34L652.656 206.318L643.069 213.387L645.186 216.119L654.71 209.096L665.067 223.106L650.705 233.558L641.802 221.513L639.035 223.553L647.926 235.581L644.978 237.726L647.005 240.504L649.97 238.346L660.341 252.377L648.494 261.002L650.522 263.78L662.386 255.143L672.759 269.177L658.399 279.631L650.58 269.053L647.815 271.095L668.032 298.442L666.49 299.564L668.518 302.342L670.076 301.207L680.452 315.242L678.915 316.361L680.943 319.138L682.497 318.007L692.107 331.009L694.874 328.97L685.274 315.984L699.633 305.534L710.007 319.568L692.569 332.26L694.597 335.038L712.051 322.333L722.426 336.369L716.709 340.527L713.239 343.056L715.268 345.832L718.737 343.305L724.471 339.135L734.017 352.045L736.783 350.004L727.25 337.112L741.608 326.654L751.957 340.653L735.893 352.338L737.991 355.084L754.01 343.432L758.513 349.524L758.53 349.544L764.596 357.749L767.363 355.709L761.247 347.439L761.231 347.418L756.79 341.409L771.152 330.964L789.034 355.155L791.801 353.115L773.932 328.942L788.301 318.492L806.102 342.571L808.868 340.532L791.081 316.47L805.442 306.025L823.16 329.994L825.926 327.955L808.222 304.004L822.586 293.556L840.223 317.415L842.989 315.376L825.366 291.535L839.726 281.091L843.306 285.931L843.317 285.954L849.714 294.599L852.48 292.559L846.29 284.193L846.279 284.17L842.506 279.069L858.394 267.514L856.295 264.768L840.451 276.291L830.076 262.259L844.422 251.819L851.126 260.85L853.889 258.805L847.201 249.796L857.863 242.038L855.837 239.26L845.152 247.037L834.748 233.023L850.538 221.524L851.575 220.772L849.552 217.991ZM657.476 207.056L667.845 221.083L682.204 210.633L671.829 196.597L659.118 205.846L659.103 205.857L659.093 205.864L657.476 207.056ZM674.608 194.574L684.983 208.61L699.344 198.155L688.976 184.13L674.608 194.574ZM691.756 182.109L702.123 196.132L716.483 185.679L706.121 171.661L691.756 182.109ZM708.901 169.639L719.261 183.656L733.621 173.202L723.265 159.192L708.901 169.639ZM726.045 157.17L736.4 171.179L750.752 160.731L740.398 146.724L739.614 147.302L726.045 157.17ZM769.71 151.185L780.115 165.2L765.95 175.509L755.575 161.474L769.284 151.494L769.71 151.185ZM738.444 173.945L752.797 163.496L763.171 177.532L748.817 187.978L738.444 173.945ZM721.306 186.421L735.666 175.968L746.038 190L731.678 200.453L721.306 186.421ZM704.167 198.898L718.527 188.444L728.899 202.476L714.539 212.928L704.167 198.898ZM687.028 211.375L701.388 200.921L711.76 214.951L697.399 225.406L687.028 211.375ZM669.89 223.849L684.249 213.398L694.62 227.428L680.26 237.879L669.89 223.849ZM652.749 236.324L667.111 225.871L677.482 239.901L663.12 250.354L652.749 236.324ZM665.164 253.12L675.538 267.155L689.9 256.702L679.526 242.667L665.164 253.12ZM682.305 240.645L692.679 254.679L707.038 244.228L696.664 230.194L682.305 240.645ZM699.443 228.171L709.817 242.205L724.179 231.75L713.804 217.716L699.443 228.171ZM716.583 215.693L726.958 229.728L741.318 219.276L730.943 205.242L716.583 215.693ZM733.722 203.219L744.097 217.253L758.457 206.8L748.083 192.766L733.722 203.219ZM750.862 190.743L761.236 204.778L775.588 194.331L765.215 180.297L750.862 190.743ZM767.994 178.275L778.367 192.307L792.566 181.972L782.165 167.962L767.994 178.275ZM797.396 182.711L811.919 172.14L822.287 186.164L807.792 196.714L797.396 182.711ZM780.412 195.073L794.617 184.734L805.013 198.737L790.779 209.098L780.412 195.073ZM763.28 207.543L777.633 197.096L787.999 211.121L773.647 221.567L763.28 207.543ZM746.141 220.019L760.501 209.566L770.868 223.59L756.507 234.043L746.141 220.019ZM729.002 232.493L743.362 222.042L753.728 236.066L739.369 246.518L729.002 232.493ZM711.861 244.971L726.223 234.516L736.591 248.54L722.228 258.996L711.861 244.971ZM694.723 257.445L709.082 246.994L719.45 261.019L705.09 271.47L694.723 257.445ZM677.582 269.92L691.944 259.467L702.311 273.492L687.949 283.945L677.582 269.92ZM674.804 271.943L685.171 285.968L671.421 295.982L670.813 296.423L660.444 282.396L674.804 271.943ZM672.857 299.188L683.23 313.219L697.589 302.768L687.215 288.734L673.445 298.762L672.857 299.188ZM689.994 286.711L700.368 300.745L714.729 290.293L704.355 276.258L689.994 286.711ZM707.134 274.236L717.508 288.27L731.868 277.819L721.494 263.784L707.134 274.236ZM724.273 261.762L734.647 275.796L749.009 265.34L738.635 251.306L724.273 261.762ZM741.414 249.283L751.788 263.317L766.148 252.867L755.773 238.831L741.414 249.283ZM758.552 236.808L768.927 250.844L783.287 240.391L772.912 226.355L758.552 236.808ZM775.691 224.333L786.066 238.368L800.421 227.919L790.043 213.885L775.691 224.333ZM792.822 211.863L803.2 225.897L817.467 215.512L807.063 201.498L792.822 211.863ZM809.842 199.475L820.246 213.489L834.705 202.965L824.331 188.93L809.842 199.475ZM805.244 228.661L819.517 218.273L829.92 232.285L815.619 242.694L805.244 228.661ZM788.11 241.134L802.465 230.683L812.84 244.717L798.483 255.167L788.11 241.134ZM770.971 253.609L785.331 243.157L795.704 257.19L781.344 267.642L770.971 253.609ZM753.833 266.083L768.192 255.632L778.565 269.665L764.207 280.116L753.833 266.083ZM736.691 278.562L751.054 268.106L761.428 282.139L747.065 292.595L736.691 278.562ZM719.553 291.036L733.912 280.584L744.286 294.618L729.926 305.069L719.553 291.036ZM702.412 303.511L716.774 293.058L727.147 307.092L712.786 317.544L702.412 303.511ZM831.969 235.046L817.662 245.457L828.035 259.495L842.373 249.059L831.969 235.046ZM814.883 247.48L800.524 257.928L810.9 271.965L825.255 261.517L814.883 247.48ZM797.745 259.951L783.386 270.406L793.76 284.44L808.121 273.988L797.745 259.951ZM780.608 272.429L766.251 282.882L776.623 296.912L790.981 286.462L780.608 272.429ZM763.472 284.905L749.109 295.361L759.481 309.392L773.844 298.935L763.472 284.905ZM746.33 297.384L731.971 307.835L742.343 321.865L756.702 311.415L746.33 297.384ZM729.191 309.858L714.83 320.31L725.206 334.346L739.564 323.889L729.191 309.858ZM812.944 274.729L827.297 264.281L837.671 278.313L823.312 288.756L812.944 274.729ZM795.804 287.205L810.165 276.752L820.533 290.778L806.168 301.225L795.804 287.205ZM778.667 299.678L793.025 289.227L803.388 303.247L789.027 313.692L778.667 299.678ZM761.525 312.157L775.889 301.701L786.247 315.713L771.878 326.164L761.525 312.157ZM744.387 324.631L758.746 314.18L769.099 328.185L754.736 338.631L744.387 324.631Z" fill="#ECECEC"/>
<path fill-rule="evenodd" clip-rule="evenodd" d="M859.953 299.91C860.511 315.584 862.73 331.132 866.808 346.266L866.808 346.268L877.244 384.93L877.547 385.955L877.562 386.016C879.566 393.825 876.59 401.947 870.051 406.762C863.45 411.624 854.678 412.03 847.73 407.748L847.727 407.746L812.501 386.069C799.193 377.88 784.99 371.318 770.176 366.252C763.386 363.933 756.494 361.93 749.475 360.239L749.463 360.236L749.45 360.233C747.415 359.727 745.355 359.255 743.281 358.802C741.246 358.359 740.099 358.067 738.053 357.5C733.527 356.278 728.124 354.572 723.681 352.802C716.361 349.898 709.183 346.281 702.266 341.965C699.722 340.396 697.21 338.734 694.747 336.965C684.944 330.708 673.458 318.63 668.94 313.373C666.612 310.695 664.384 307.915 662.23 305.041C660.07 302.158 658.039 299.228 656.132 296.253C652.156 290.093 648.709 283.763 645.79 277.322C643.916 273.215 642.27 269.083 640.837 264.907C639.849 262.061 638.961 259.194 638.184 256.328C636.023 248.498 634.61 240.631 633.926 232.836C633.506 228.1 633.356 223.376 633.483 218.722C633.595 214.312 633.959 209.955 634.566 205.661C635.375 199.854 636.63 194.173 638.335 188.684C644.187 169.801 655.292 153.168 671.543 141.202C678.654 135.274 699.687 123.417 726.937 123.417C727.66 123.41 728.616 123.415 729.732 123.439C730.091 123.447 730.451 123.457 730.81 123.468C734.715 123.589 740.06 123.936 744.392 124.751C748.708 125.412 753.019 126.331 757.297 127.499C761.812 128.726 766.325 130.232 770.772 132.004C778.091 134.902 785.271 138.526 792.198 142.839C794.737 144.404 797.247 146.079 799.701 147.84C803.313 150.404 806.829 153.168 810.244 156.135C815.607 160.764 820.721 165.871 825.51 171.428C827.837 174.105 830.065 176.884 832.218 179.758C834.379 182.641 836.41 185.571 838.316 188.546C842.296 194.713 845.744 201.044 848.662 207.486C848.965 208.148 852.013 215.771 853.5 219.5C853.9 220.3 855.667 226.166 856.5 229C856.569 229.346 856.72 229.978 856.924 230.836C857.897 234.925 860.09 244.14 860.523 251.965C860.682 256.468 861 265.576 861 265.986C861 266.5 860.701 271.375 860.637 272.288C860.425 275.359 860 281.6 860 282C859.802 287.606 859.5 296.5 859.953 299.91ZM804.359 335.627C798.062 339.051 791.363 341.509 784.393 343.044C776.567 344.781 768.429 345.34 760.172 344.805C760.171 344.818 760.161 344.81 760.142 344.799C751.322 344.232 742.368 342.397 733.574 339.351C732.174 338.88 730.778 338.36 729.404 337.815C723.729 335.615 718.146 332.902 712.715 329.713C706.722 326.203 700.917 322.108 695.394 317.463C690.28 313.163 685.41 308.393 680.856 303.164C678.659 300.661 676.548 298.049 674.512 295.335C672.476 292.621 670.568 289.86 668.781 287.049C665.044 281.215 661.853 275.218 659.184 269.123C656.292 262.542 654.025 255.848 652.357 249.148C650.854 243.071 649.858 236.983 649.375 230.963C649.242 229.493 649.147 228.018 649.093 226.557C648.707 217.325 649.521 208.315 651.523 199.788C651.518 199.764 651.519 199.75 651.535 199.756C653.397 191.759 656.298 184.209 660.242 177.285C663.743 171.12 668.056 165.468 673.185 160.487C675.597 158.116 678.201 155.903 680.984 153.854C683.768 151.806 686.662 149.974 689.651 148.374C695.947 144.949 702.657 142.487 709.627 140.951C717.443 139.219 725.583 138.653 733.84 139.202C733.84 139.19 733.851 139.192 733.868 139.195C733.871 139.196 733.875 139.196 733.879 139.197C742.687 139.769 751.627 141.603 760.432 144.644C761.833 145.115 763.229 145.636 764.608 146.191C770.283 148.391 775.871 151.102 781.308 154.288C787.292 157.808 793.1 161.896 798.621 166.549C803.732 170.843 808.6 175.607 813.155 180.842C815.352 183.346 817.463 185.957 819.499 188.671C821.536 191.385 823.443 194.146 825.234 196.949C828.96 202.788 832.161 208.794 834.83 214.888C837.722 221.47 839.99 228.163 841.646 234.868C843.158 240.949 844.153 247.037 844.642 253.054C844.762 254.524 844.851 255.988 844.91 257.446C845.286 266.67 844.48 275.683 842.491 284.223C842.485 284.226 842.482 284.231 842.481 284.238C842.479 284.243 842.479 284.25 842.479 284.256C841.422 288.754 840.039 293.129 838.328 297.316L838.16 297.758C836.881 300.847 835.426 303.838 833.784 306.722C830.282 312.887 825.964 318.542 820.84 323.533C818.414 325.904 815.819 328.106 813.036 330.155C810.252 332.203 807.358 334.035 804.369 335.635L804.359 335.627ZM800.438 360.54L851.118 392.004L851.111 392.002C853.44 393.439 856.141 393.319 858.355 391.675C860.054 390.412 861.572 387.985 860.788 384.919L860.771 384.832L845.36 327.256C844.681 324.733 841.327 324.173 839.84 326.36C835.318 333.036 829.713 338.98 823.041 343.937C816.314 348.932 808.949 352.6 801.184 354.993C798.65 355.775 798.216 359.164 800.438 360.54Z" fill="#CDF5CD"/>
<path d="M858.16 417.134C856.798 415.29 847.889 408.126 844.05 405.5L853.004 401.73L869.6 389.475L876.414 382.306C877.331 385.255 879.307 390.772 880.929 394.686C881.271 394.974 881.587 395.307 881.868 395.683L965.714 507.673C967.48 510.032 967.214 513.195 965.119 514.737L947.071 528.029C944.976 529.572 941.846 528.91 940.08 526.551L858.16 417.134Z" fill="#CDF5CD"/>
<path d="M968.217 507.227L895.177 409.678C893.638 407.623 890.546 407.316 888.27 408.992L867.737 424.113C865.461 425.789 864.863 428.813 866.401 430.868L939.442 528.417C940.98 530.472 944.073 530.779 946.349 529.103L966.881 513.982C969.157 512.306 969.756 509.282 968.217 507.227Z" fill="#362C62"/>
<mask id="mask1_2302_148" style="mask-type:alpha" maskUnits="userSpaceOnUse" x="865" y="407" width="105" height="124">
<path d="M968.217 507.217L895.19 409.679C893.652 407.624 890.559 407.319 888.281 408.996L867.739 424.124C865.462 425.802 864.862 428.826 866.4 430.881L939.428 528.419C940.966 530.474 944.059 530.78 946.336 529.102L966.879 513.974C969.156 512.297 969.755 509.272 968.217 507.217Z" fill="#041F49"/>
</mask>
<g mask="url(#mask1_2302_148)">
<path fill-rule="evenodd" clip-rule="evenodd" d="M914.943 425.584L886.435 468.006L879.777 463.532L908.284 421.11L914.943 425.584Z" fill="#625597"/>
<path fill-rule="evenodd" clip-rule="evenodd" d="M931.963 448.631L903.455 491.053L896.797 486.579L925.304 444.157L931.963 448.631Z" fill="#625597"/>
</g>
<path d="M1104.35 257.028C1106.16 272.127 1099.41 287.632 1085.7 296.349C1067.22 308.103 1042.87 303.186 1030.35 285.516C1029.96 284.973 1029.58 284.415 1029.22 283.842C1017.09 264.817 1022.7 239.576 1041.75 227.46C1060.81 215.338 1086.1 220.942 1098.23 239.961C1101.64 245.3 1103.64 251.131 1104.35 257.028Z" fill="#4A974A"/>
<path d="M1115.62 236.705C1117.43 251.804 1110.68 267.309 1096.98 276.026C1078.49 287.78 1054.14 282.863 1041.63 265.193C1041.24 264.65 1040.86 264.092 1040.5 263.519C1028.36 244.494 1033.97 219.253 1053.03 207.137C1072.08 195.015 1097.37 200.619 1109.51 219.638C1112.91 224.977 1114.92 230.808 1115.62 236.705Z" fill="#E6DC4E"/>
<mask id="mask2_2302_148" style="mask-type:alpha" maskUnits="userSpaceOnUse" x="1034" y="200" width="82" height="83">
<path d="M1115.62 236.705C1117.43 251.804 1110.68 267.309 1096.98 276.026C1078.49 287.78 1054.14 282.863 1041.63 265.193C1041.24 264.65 1040.86 264.092 1040.5 263.519C1028.36 244.494 1033.97 219.253 1053.03 207.137C1072.08 195.015 1097.37 200.619 1109.51 219.638C1112.91 224.977 1114.92 230.808 1115.62 236.705Z" fill="#E6DC4E"/>
</mask>
<g mask="url(#mask2_2302_148)">
<path d="M1112.04 277.283L1033.56 218.085C1011.28 242.926 1030.68 273.408 1042.97 284.819C1061.36 310.383 1098.14 288.932 1112.04 277.283Z" fill="#D6CC40"/>
<path fill-rule="evenodd" clip-rule="evenodd" d="M1082.08 244.402C1095.04 224.363 1121.82 218.606 1141.88 231.537L1141.9 231.549L1141.9 231.549C1152.03 238.078 1159.18 248.31 1161.81 260.048C1164.07 270.133 1169.94 278.951 1178.52 284.477L1194.28 294.632L1190.17 301.003L1174.41 290.848C1164.05 284.169 1157.08 273.594 1154.42 261.706C1152.22 251.913 1146.26 243.373 1137.8 237.921L1137.8 237.92L1137.78 237.908C1121.22 227.239 1099.13 231.993 1088.45 248.517L1087.06 250.662C1076.5 266.995 1081.03 288.73 1097.13 299.528L1097.7 299.892C1106.15 305.345 1116.41 307.259 1126.26 305.224C1138.21 302.753 1150.72 304.741 1161.09 311.416L1161.09 311.417L1176.85 321.572L1172.74 327.943L1156.98 317.789C1148.4 312.263 1137.94 310.549 1127.8 312.646C1116.52 314.976 1104.8 312.985 1094.94 307.102L1094.9 307.112L1093.58 306.264C1073.51 293.33 1067.74 266.589 1080.7 246.546L1082.08 244.402Z" fill="#FFF8E9"/>
<path fill-rule="evenodd" clip-rule="evenodd" d="M977.41 154.875L993.167 165.029C1001.75 170.555 1012.22 172.269 1022.36 170.172L1022.36 170.172C1033.63 167.842 1045.35 169.833 1055.21 175.715L1055.25 175.705L1056.57 176.554C1076.64 189.488 1082.41 216.229 1069.45 236.271L1068.07 238.416C1055.11 258.455 1028.34 264.212 1008.27 251.281L1008.25 251.269L1008.25 251.268C998.118 244.74 990.973 234.508 988.34 222.77L988.34 222.77C986.08 212.684 980.206 203.867 971.632 198.341L955.873 188.186L959.978 181.815L975.738 191.97L973.685 195.156L975.738 191.97C986.101 198.649 993.071 209.223 995.736 221.112C997.932 230.905 1003.89 239.446 1012.35 244.898L1012.37 244.909L1012.37 244.91C1028.93 255.579 1051.02 250.825 1061.7 234.301L1063.09 232.156C1073.65 215.823 1069.12 194.089 1053.02 183.291L1052.45 182.926C1044 177.473 1033.74 175.558 1023.89 177.594M977.41 154.875L973.305 161.246ZM973.305 161.246L989.064 171.401ZM1023.89 177.594C1011.95 180.065 999.434 178.077 989.065 171.402L989.064 171.401" fill="#FFF8E9"/>
</g>
<path d="M1233.29 368.375C1235.1 383.474 1228.35 398.979 1214.64 407.696C1196.16 419.45 1171.81 414.533 1159.29 396.863C1158.9 396.32 1158.52 395.761 1158.16 395.189C1146.03 376.164 1151.63 350.923 1170.69 338.807C1189.75 326.685 1215.04 332.289 1227.17 351.308C1230.57 356.647 1232.58 362.478 1233.29 368.375Z" fill="#4A974A"/>
<path d="M1213.1 313.119C1227.94 316.532 1240.27 328.124 1243.85 343.947C1248.67 365.289 1235.78 386.498 1214.89 392.274C1214.25 392.457 1213.59 392.622 1212.93 392.768C1190.89 397.726 1169 383.909 1164.04 361.906C1159.06 339.902 1172.91 318.043 1194.94 313.085C1201.13 311.695 1207.3 311.782 1213.1 313.119Z" fill="#E6DC4E"/>
<mask id="mask3_2302_148" style="mask-type:alpha" maskUnits="userSpaceOnUse" x="1163" y="312" width="82" height="82">
<path d="M1244.56 348.051C1246.37 363.151 1239.62 378.656 1225.92 387.372C1207.43 399.127 1183.08 394.21 1170.57 376.54C1170.17 375.996 1169.8 375.438 1169.44 374.865C1157.3 355.841 1162.91 330.6 1181.96 318.484C1201.02 306.362 1226.31 311.966 1238.44 330.985C1241.85 336.324 1243.86 342.155 1244.56 348.051Z" fill="#E6DC4E"/>
</mask>
<g mask="url(#mask3_2302_148)">
<path d="M1231.98 388.451L1153.5 329.254C1131.22 354.094 1150.61 384.576 1162.91 395.987C1181.3 421.552 1218.08 400.1 1231.98 388.451Z" fill="#D6CC40"/>
<path fill-rule="evenodd" clip-rule="evenodd" d="M1279.64 270.162L1294.55 258.798L1299.15 264.825L1284.24 276.19C1274.44 283.663 1262.11 286.628 1250.01 285.106M1279.64 270.162C1271.53 276.346 1261.23 278.879 1250.95 277.586ZM1250.95 277.586C1239.01 276.085 1226.95 279.33 1217.36 286.636ZM1221.96 292.663C1221.96 292.663 1221.96 292.663 1221.96 292.663L1221.94 292.677C1206.28 304.613 1203.28 326.964 1215.24 342.592L1216.79 344.62C1228.61 360.076 1250.64 363.182 1266.27 351.711L1266.8 351.303C1274.81 345.21 1280.08 336.22 1281.5 326.286C1283.21 314.223 1289.33 303.142 1299.13 295.661L1314.04 284.295L1318.63 290.322L1303.73 301.686C1303.73 301.686 1303.73 301.687 1303.73 301.687C1295.61 307.879 1290.46 317.124 1289 327.354C1287.38 338.736 1281.53 349.078 1272.65 356.342L1272.64 356.388L1271.4 357.34C1252.41 371.812 1225.27 368.18 1210.77 349.225L1209.22 347.196C1194.71 328.238 1198.36 301.126 1217.34 286.651C1217.34 286.65 1217.34 286.65 1217.34 286.65L1217.36 286.636M1221.96 292.663C1229.96 286.562 1240.03 283.852 1250.01 285.106Z" fill="#FFF8E9"/>
<path fill-rule="evenodd" clip-rule="evenodd" d="M1136.63 348.171C1155.62 333.699 1182.76 337.33 1197.26 356.286L1198.81 358.314C1213.31 377.274 1209.67 404.386 1190.69 418.861L1190.67 418.874L1190.67 418.875C1181.08 426.181 1169.02 429.426 1157.07 427.925C1146.8 426.632 1136.5 429.165 1128.38 435.348L1113.48 446.713L1108.88 440.686L1123.79 429.321C1133.59 421.847 1145.92 418.883 1158.02 420.405M1141.76 353.8C1157.39 342.329 1179.42 345.435 1191.24 360.89L1192.79 362.919C1204.75 378.547 1201.75 400.897 1186.09 412.834L1186.09 412.834L1186.07 412.847C1178.07 418.948 1168 421.658 1158.02 420.405M1141.76 353.8L1141.22 354.208C1133.22 360.3 1127.95 369.29 1126.53 379.225M1136.63 348.171L1135.38 349.123ZM1135.38 349.123L1135.38 349.169ZM1135.38 349.169C1126.5 356.433 1120.65 366.775 1119.03 378.156C1117.57 388.386 1112.42 397.632 1104.3 403.824C1104.3 403.824 1104.3 403.825 1104.3 403.825L1089.39 415.188L1093.99 421.216L1108.9 409.85C1118.7 402.369 1124.81 391.287 1126.53 379.225" fill="#FFF8E9"/>
</g>
</g>
<defs>
<clipPath id="clip0_2302_148">
<rect width="1335" height="464" fill="white"/>
</clipPath>
</defs>
</svg>
