<svg width="1335" height="464" viewBox="0 0 1335 464" fill="none" xmlns="http://www.w3.org/2000/svg">
<g clip-path="url(#clip0_1528_88211)">
<rect width="1335" height="464" fill="#C6E6C7"/>
<mask id="mask0_1528_88211" style="mask-type:luminance" maskUnits="userSpaceOnUse" x="0" y="0" width="1335" height="464">
<path d="M1334.85 0.130005H0.160156V463.87H1334.85V0.130005Z" fill="white"/>
</mask>
<g mask="url(#mask0_1528_88211)">
<path d="M1335.16 0.130005H0.160156V463.87H1335.16V0.130005Z" fill="#C6E6C7"/>
<path d="M1030.43 463.29C1135.17 463.29 1220.08 378.381 1220.08 273.64C1220.08 168.899 1135.17 83.99 1030.43 83.99C925.689 83.99 840.78 168.899 840.78 273.64C840.78 378.381 925.689 463.29 1030.43 463.29Z" fill="#ABDBAB"/>
<path d="M260.66 446.3C294.228 446.3 321.44 419.088 321.44 385.52C321.44 351.952 294.228 324.74 260.66 324.74C227.092 324.74 199.88 351.952 199.88 385.52C199.88 419.088 227.092 446.3 260.66 446.3Z" fill="#ABDBAB"/>
<path d="M647.18 315.91C615.26 306.68 605.43 266.27 629.54 243.41L652.21 221.91C662.24 212.4 676.79 209.38 689.78 214.11L699.02 217.48L706.58 217C715.25 216.45 723.64 220.2 729.02 227.02L731.78 230.52C761.36 268.04 737.15 323.38 689.52 327.12L647.16 315.9L647.18 315.91Z" fill="#1B090A"/>
<path d="M675.1 359.4C675.1 359.4 673.8 419.6 589.9 417.3C582.7 417.2 574.9 416.5 566.4 415.3L521 370L424.9 274.2C401.1 250.4 409.9 209.9 441.5 198.1L552.2 156.9C562.8 153 571 144.6 574.8 134L587.3 98.7L596.2 99.9L602.6 92.5L616.6 94.5L609.6 144.7L620 135.2C623 132.5 627.8 132.9 630.2 136.2C631.2 137.4 631.6 138.9 631.6 140.4C631.6 142 631.1 143.6 629.9 144.9L616 160.8C611.4 166 605.7 170.2 599.3 173.1L592.4 176.2C587 178.6 581.8 181.3 576.7 184.2L471.7 244.2L579.4 316.4L675.1 359.4Z" fill="#EBAB6C"/>
<path d="M612.6 358.5L589.9 417.3C582.7 417.2 574.9 416.5 566.4 415.3L521 370L579.4 316.4L612.6 358.5Z" fill="#DD914B"/>
<path d="M999.56 717.38L928.36 707.39L739.59 484.48C739.59 484.48 713.08 448.07 743.15 390.2C762.13 399.83 778.59 413.84 791.14 431.1L999.56 717.37V717.38Z" fill="#EBAB6C"/>
<path d="M634.19 341.03L638.47 436.71L681.84 420.42L687.53 365.02L689.74 323.13C689.96 318.97 692.96 315.48 697.04 314.64C707.26 312.54 715.27 304.61 717.48 294.41L726.75 251.55C729.49 238.88 720.62 226.63 707.73 225.28L681.63 222.54C666.57 220.96 653.35 232.51 652.89 247.64L651.57 291.01C651.48 293.82 650.93 296.6 649.94 299.23L634.18 341.02L634.19 341.03Z" fill="#EBAB6C"/>
<path d="M688.18 284.85C688.18 284.85 694.88 305.52 707.74 287.59L688.18 284.85Z" fill="#C4772B"/>
<path d="M707.73 287.6C696.63 286.02 688.17 284.86 688.17 284.86L693.22 282.74C696.63 281.3 700.57 281.85 703.45 284.18L707.72 287.61L707.73 287.6Z" fill="#C4772B"/>
<path fill-rule="evenodd" clip-rule="evenodd" d="M700.54 268.381C700.804 261.709 694.244 256.546 687.722 258.816L688.379 260.704C693.775 258.826 699.269 263.403 698.47 269.101C698.433 269.364 698.502 269.631 698.662 269.842C698.822 270.054 699.06 270.194 699.323 270.23L703.203 270.77L703.203 270.771C704.167 270.904 704.556 272.104 703.836 272.781C703.836 272.781 703.836 272.781 703.836 272.781L699.726 276.641L701.095 278.099L705.205 274.239L705.205 274.239C707.145 272.416 706.114 269.156 703.478 268.79C703.478 268.79 703.478 268.79 703.478 268.79L700.54 268.381Z" fill="#D38337"/>
<path d="M691.355 267.698C691.637 265.691 689.649 263.753 686.914 263.369C684.179 262.985 681.734 264.301 681.453 266.308C681.171 268.316 683.159 270.254 685.894 270.638C688.628 271.022 691.074 269.706 691.355 267.698Z" fill="#1B090A"/>
<path d="M718.839 271.542C719.121 269.535 717.132 267.596 714.398 267.212C711.663 266.829 709.218 268.145 708.936 270.152C708.654 272.159 710.643 274.097 713.377 274.481C716.112 274.865 718.557 273.549 718.839 271.542Z" fill="#1B090A"/>
<path d="M652.27 304.97L671.58 260.81L684.96 256.73C693.23 254.21 698.24 245.84 696.56 237.36L698.32 241.5C701.38 248.71 707.29 254.34 714.64 257.05L716.77 257.84C720.4 259.18 722.32 263.15 721.12 266.83C720.39 269.06 720.79 271.5 722.19 273.37L724.95 277.07C726.2 278.74 726.66 280.87 726.21 282.9L724.37 291.39C724.07 292.77 724.18 294.21 724.69 295.52L727.25 302.1L733.63 258.77C736.41 239.92 723.3 222.41 704.43 219.77L671.08 215.09L632.5 248.65" fill="#1B090A"/>
<path d="M655.067 232.645C669.989 218.315 672.237 196.442 660.087 183.79C647.938 171.139 625.992 172.499 611.07 186.829C596.148 201.159 593.9 223.032 606.049 235.684C618.199 248.335 640.145 246.975 655.067 232.645Z" fill="#1B090A"/>
<path d="M734.24 626.4L482.12 581.89L517.22 511.57L534.18 477.54L546.71 452.44L553.44 439.75C573.52 401.89 582.54 359.13 579.41 316.39L634.21 341.04L628.6 380.99C627.64 387.82 629.32 394.46 632.96 399.8C636.54 405.16 642.07 409.23 648.78 410.88C663.39 414.53 678.15 405.48 681.57 390.82L687.53 365L743.17 390.21L742.67 403.04L741.87 424.36L734.24 626.4Z" fill="#EC5E3A"/>
<path d="M741.87 424.36L517.21 511.57L534.17 477.55L742.67 403.04L741.87 424.36Z" fill="#FFF9E3"/>
<path d="M1182.97 148.94C1182.97 148.94 1171.29 170.73 1184.88 190.8C1198.47 210.87 1194.35 223.45 1194.35 223.45L1215.75 191.9L1182.97 148.93V148.94Z" fill="#72312A"/>
<path d="M1252.92 325.4L1222.02 380.7V396.9L1221.82 452.5L1193.12 458.4L1186.32 399.6L1183.92 378.7C1182.62 367.2 1184.82 355.5 1190.22 345.2L1199.72 327.4L1148.82 363.5L1133.22 401.7L1105.92 468.1L1083.02 472.7L1097.22 396L1100.92 376C1102.42 367.6 1105.32 359.6 1109.42 352.3C1116.22 339.8 1126.52 329.3 1139.12 322L1152.12 314.6L1171.82 303.2L1191.22 283.4L1196.42 200.1L1193.42 194.2C1192.22 191.8 1190.12 190.1 1187.62 189.3L1181.72 187.3C1176.02 185.5 1173.02 179.1 1175.22 173.5L1175.42 173.1L1176.02 171.4L1176.42 170.3L1178.12 165.8L1179.02 163.5L1180.72 159.1C1184.02 150.8 1192.72 145.2 1201.52 147.2C1208.62 148.8 1213.62 154.4 1215.02 160.9C1215.62 164 1215.42 167.4 1214.22 170.6L1210.42 180.8L1243.62 258L1251.12 266.5L1255.12 275.2C1262.42 291.3 1261.62 309.9 1252.92 325.4Z" fill="#FF8F7D"/>
<path d="M1097.2 396.04L1133.18 401.7L1105.93 468.06L1083.06 472.69L1097.2 396.04Z" fill="#FFF9E3"/>
<path d="M1221.98 396.88L1221.8 452.54L1193.07 458.35L1186.31 399.59L1221.98 396.88Z" fill="#FFF9E3"/>
<path d="M37.1201 148.86C95.1321 148.86 142.16 101.832 142.16 43.82C142.16 -14.192 95.1321 -61.22 37.1201 -61.22C-20.8919 -61.22 -67.9199 -14.192 -67.9199 43.82C-67.9199 101.832 -20.8919 148.86 37.1201 148.86Z" fill="#FFF9E3"/>
<path d="M948.73 464.13L1335.16 386.56V464.13H948.73Z" fill="#75C476"/>
<path d="M1260.62 316.8L1254.22 342.4H1186.82L1199.72 327.4L1184.12 338.5L1145.92 313.6L1152.32 309.2L1207.02 272L1249.32 262.9C1254.52 269.6 1258.22 277.2 1260.32 285.1C1263.12 295.3 1263.22 306.2 1260.62 316.8Z" fill="#FFF9E3"/>
<path d="M1260.32 285.1L1226.72 290.2C1220.52 291.1 1214.82 294.2 1210.62 298.8C1205.72 304.3 1198.82 307.5 1191.52 307.8L1152.32 309.2L1207.02 272L1249.32 262.9C1254.52 269.6 1258.22 277.2 1260.32 285.1Z" fill="#B6B6B6"/>
<path d="M1189.53 212.56L1172.99 256.53L1116.38 287.09L1102.49 302.64L1116.38 307.33L1125.17 297.52L1180.75 281.49C1191.94 278.26 1200.99 269.99 1205.21 259.13L1220.18 220.58L1189.52 212.53L1189.53 212.56Z" fill="#FF7A6C"/>
<path d="M1186.81 291.63L1256.7 270.07L1215.75 191.91L1189.54 212.56L1183.21 232.84C1180.7 240.86 1184.07 249.56 1191.32 253.8L1193.69 255.19L1186.82 291.63H1186.81Z" fill="#F45747"/>
<path d="M1215.75 191.91L1225.32 194.28C1240.03 197.92 1248.8 213.03 1244.64 227.6L1232.88 268.88C1229.9 279.35 1221.4 287.34 1210.76 289.66L1125.97 308.2L1121.02 317.03C1118.57 321.41 1112.76 322.51 1108.87 319.33C1105.67 316.71 1104.97 312.09 1107.25 308.64L1113.32 299.46C1114.78 297.25 1116.86 295.53 1119.3 294.52L1192.71 263.9L1215.73 191.91H1215.75Z" fill="#FF8F7D"/>
<path d="M1096.74 314.18C1110.13 314.18 1120.98 303.327 1120.98 289.94C1120.98 276.553 1110.13 265.7 1096.74 265.7C1083.35 265.7 1072.5 276.553 1072.5 289.94C1072.5 303.327 1083.35 314.18 1096.74 314.18Z" fill="#FFF9E3"/>
<path d="M1184.11 165.38C1184.91 165.38 1185.55 164.69 1185.55 163.84C1185.55 162.989 1184.91 162.3 1184.11 162.3C1183.31 162.3 1182.67 162.989 1182.67 163.84C1182.67 164.69 1183.31 165.38 1184.11 165.38Z" fill="#282F36"/>
<path d="M1180.27 160.33L1174.85 168.47L1178.65 168.88L1180.27 160.33Z" fill="#FF8F7D"/>
<path d="M1179.92 171.4H1176.02L1176.42 170.3L1179.92 171.4Z" fill="#FF6757"/>
<path d="M1179.92 171.4C1179.92 171.4 1177.82 172.9 1175.42 173.1L1176.02 171.4H1179.92Z" fill="#ED4A3E"/>
<path d="M1215.75 191.91L1197.84 206.02L1196.15 198.72C1193.42 186.97 1198.19 174.75 1208.14 167.94C1208.14 167.94 1206.94 159.22 1202.55 163.12C1201.19 164.33 1197.34 168.23 1197.34 168.23L1191.63 157.34C1191.63 157.34 1184.76 155.43 1182.98 148.94C1182.98 148.94 1203.09 136.6 1214.29 154.03C1225.49 171.46 1215.76 191.91 1215.76 191.91H1215.75Z" fill="#72312A"/>
<path d="M1181.83 160.33C1181.83 160.33 1185.4 159.1 1187.56 162.78L1181.83 160.33Z" fill="#72312A"/>
<path fill-rule="evenodd" clip-rule="evenodd" d="M588.436 160.329C588.436 160.329 588.436 160.328 587.44 160.42C586.444 160.512 586.444 160.511 586.444 160.511L586.444 160.509L586.443 160.505L586.442 160.492L586.439 160.445C586.435 160.406 586.431 160.349 586.427 160.276C586.417 160.131 586.406 159.92 586.397 159.654C586.38 159.122 586.373 158.363 586.415 157.445C586.497 155.613 586.771 153.125 587.547 150.524C589.101 145.307 592.717 139.538 600.86 137.88L601.259 139.84C594.082 141.302 590.889 146.313 589.463 151.096C588.748 153.495 588.49 155.812 588.413 157.535C588.374 158.395 588.38 159.101 588.396 159.589C588.404 159.833 588.414 160.022 588.422 160.148C588.427 160.211 588.43 160.258 588.432 160.289L588.435 160.321L588.436 160.328L588.436 160.329Z" fill="#D38337"/>
<path d="M707.7 287.6C707.7 287.6 706.9 288.2 705.6 288.9C702.5 290.5 696.2 292.4 690 286.8C689.4 286.2 688.8 285.6 688.2 284.9L707.7 287.6Z" fill="#1B090A"/>
<path d="M707.7 287.6C707.7 287.6 706.9 288.2 705.6 288.9C700.5 289 693.9 287.7 690 286.8C689.4 286.2 688.8 285.6 688.2 284.9L707.7 287.6Z" fill="#FFF9E3"/>
<mask id="mask1_1528_88211" style="mask-type:luminance" maskUnits="userSpaceOnUse" x="723" y="26" width="326" height="326">
<path d="M886.05 351.41C975.752 351.41 1048.47 278.692 1048.47 188.99C1048.47 99.2879 975.752 26.57 886.05 26.57C796.348 26.57 723.63 99.2879 723.63 188.99C723.63 278.692 796.348 351.41 886.05 351.41Z" fill="white"/>
</mask>
<g mask="url(#mask1_1528_88211)">
<path d="M886.05 351.41C975.752 351.41 1048.47 278.692 1048.47 188.99C1048.47 99.2879 975.752 26.57 886.05 26.57C796.348 26.57 723.63 99.2879 723.63 188.99C723.63 278.692 796.348 351.41 886.05 351.41Z" fill="#FFF9E3"/>
<path fill-rule="evenodd" clip-rule="evenodd" d="M960.357 54.9053L960.771 55.27C1019.01 106.626 1042.44 186.945 1020.94 261.567L1020.79 262.095L1017.53 263.05L1017.53 263.05L814.991 322.13L814.99 322.13L811.732 323.085L811.318 322.72C753.078 271.364 729.652 191.045 751.149 116.423L751.301 115.895L754.558 114.94L754.56 114.94L960.357 54.9053ZM959.861 57.135L755.121 116.86L755.12 116.86L752.919 117.505C731.948 191.058 755.007 270.117 812.228 320.855L814.428 320.21L814.429 320.21L1016.97 261.13L1016.97 261.13L1019.17 260.485C1040.14 186.932 1017.08 107.873 959.861 57.135Z" fill="#ABDBAB"/>
<path fill-rule="evenodd" clip-rule="evenodd" d="M793.142 24.5117L830.398 94.8966L751.72 117.84L729.88 42.9701L793.142 24.5117ZM732.36 44.3299L753.08 115.36L827.482 93.6635L792.137 26.8883L732.36 44.3299Z" fill="#ABDBAB"/>
<path fill-rule="evenodd" clip-rule="evenodd" d="M889.708 298.246L896.133 377.622L832.87 396.07L811.03 321.2L889.708 298.246ZM813.51 322.56L834.23 393.59L894.008 376.158L887.913 300.854L813.51 322.56Z" fill="#ABDBAB"/>
<path fill-rule="evenodd" clip-rule="evenodd" d="M939.23 -18.0899L961.07 56.7799L882.392 79.7336L875.968 0.358196L939.23 -18.0899ZM878.093 1.82182L884.188 77.1264L958.59 55.4201L937.87 -15.6101L878.093 1.82182Z" fill="#ABDBAB"/>
<path fill-rule="evenodd" clip-rule="evenodd" d="M1020.38 260.13L1042.22 335.01L978.958 353.458L941.702 283.084L1020.38 260.13ZM944.618 284.316L979.962 351.082L1039.74 333.65L1019.02 262.61L944.618 284.316Z" fill="#ABDBAB"/>
<path fill-rule="evenodd" clip-rule="evenodd" d="M1008.14 121.199C916.268 126.14 826.788 152.247 746.662 197.471L745.679 195.729C826.073 150.353 915.853 124.16 1008.04 119.201L1008.14 121.199Z" fill="#ABDBAB"/>
<path fill-rule="evenodd" clip-rule="evenodd" d="M763.957 256.781C855.833 251.84 945.313 225.733 1025.44 180.509L1026.42 182.251C946.028 227.627 856.248 253.82 764.064 258.779L763.957 256.781Z" fill="#ABDBAB"/>
</g>
<path d="M1096.74 314.46C1110.28 314.46 1121.26 303.482 1121.26 289.94C1121.26 276.398 1110.28 265.42 1096.74 265.42C1083.2 265.42 1072.22 276.398 1072.22 289.94C1072.22 303.482 1083.2 314.46 1096.74 314.46Z" fill="#FFF9E3"/>
<mask id="mask2_1528_88211" style="mask-type:luminance" maskUnits="userSpaceOnUse" x="1072" y="265" width="50" height="50">
<path d="M1096.74 314.46C1110.28 314.46 1121.26 303.482 1121.26 289.94C1121.26 276.398 1110.28 265.42 1096.74 265.42C1083.2 265.42 1072.22 276.398 1072.22 289.94C1072.22 303.482 1083.2 314.46 1096.74 314.46Z" fill="white"/>
</mask>
<g mask="url(#mask2_1528_88211)">
<path d="M1096.74 314.46C1110.28 314.46 1121.26 303.482 1121.26 289.94C1121.26 276.398 1110.28 265.42 1096.74 265.42C1083.2 265.42 1072.22 276.398 1072.22 289.94C1072.22 303.482 1083.2 314.46 1096.74 314.46Z" fill="#FFF9E3"/>
<path fill-rule="evenodd" clip-rule="evenodd" d="M1101.11 266.831L1101.5 267.407L1119.46 293.707L1119.86 294.285L1119.75 294.538C1115.05 305.425 1104.51 312.633 1092.66 313.05L1092.38 313.059L1091.99 312.483L1074.03 286.183L1073.63 285.605L1073.74 285.352C1078.44 274.465 1088.98 267.257 1100.83 266.84L1101.11 266.831ZM1074.77 285.496L1074.85 285.617L1092.81 311.917L1092.9 312.039C1104.16 311.54 1114.16 304.702 1118.72 294.394L1118.64 294.273L1100.68 267.973L1100.59 267.851C1089.33 268.35 1079.33 275.188 1074.77 285.496Z" fill="#75C476"/>
<path fill-rule="evenodd" clip-rule="evenodd" d="M1110.47 260.205L1116.43 268.945L1107.58 278.099L1100.17 267.239L1110.47 260.205ZM1101.56 267.501L1107.72 276.521L1115.15 268.835L1110.21 261.595L1101.56 267.501Z" fill="#75C476"/>
<path fill-rule="evenodd" clip-rule="evenodd" d="M1074.34 284.875L1081.76 295.734L1070.02 300.648L1064.04 291.92L1074.34 284.875ZM1065.43 292.18L1070.38 299.411L1080.24 295.286L1074.08 286.265L1065.43 292.18Z" fill="#75C476"/>
<path fill-rule="evenodd" clip-rule="evenodd" d="M1123.46 279.221L1129.42 287.961L1119.13 294.995L1111.71 284.135L1123.46 279.221ZM1113.23 284.585L1119.39 293.605L1128.04 287.699L1123.1 280.459L1113.23 284.585Z" fill="#75C476"/>
<path fill-rule="evenodd" clip-rule="evenodd" d="M1085.89 301.781L1093.3 312.641L1083.01 319.675L1077.04 310.936L1085.89 301.781ZM1078.32 311.044L1083.27 318.285L1091.91 312.379L1085.75 303.359L1078.32 311.044Z" fill="#75C476"/>
<path fill-rule="evenodd" clip-rule="evenodd" d="M1111.85 304.41C1106.86 291.502 1098.96 279.927 1088.75 270.589L1089.43 269.851C1099.74 279.293 1107.74 290.998 1112.79 304.05L1111.85 304.41Z" fill="#75C476"/>
<path fill-rule="evenodd" clip-rule="evenodd" d="M1081.62 275.46C1086.61 288.368 1094.51 299.943 1104.72 309.281L1104.04 310.019C1093.73 300.577 1085.73 288.872 1080.68 275.82L1081.62 275.46Z" fill="#75C476"/>
</g>
<mask id="mask3_1528_88211" style="mask-type:luminance" maskUnits="userSpaceOnUse" x="177" y="294" width="122" height="123">
<path d="M238.05 416.49C271.623 416.49 298.84 389.273 298.84 355.7C298.84 322.127 271.623 294.91 238.05 294.91C204.476 294.91 177.26 322.127 177.26 355.7C177.26 389.273 204.476 416.49 238.05 416.49Z" fill="white"/>
</mask>
<g mask="url(#mask3_1528_88211)">
<path d="M238.05 416.49C271.623 416.49 298.84 389.273 298.84 355.7C298.84 322.127 271.623 294.91 238.05 294.91C204.476 294.91 177.26 322.127 177.26 355.7C177.26 389.273 204.476 416.49 238.05 416.49Z" fill="#FFF9E3"/>
<path fill-rule="evenodd" clip-rule="evenodd" d="M263.973 303.756L264.401 304.104C287.13 322.598 297.173 352.533 290.181 380.989L290.049 381.522L288.518 382.038L288.517 382.038L213.658 407.148L213.657 407.148L212.126 407.664L211.698 407.316C188.969 388.822 178.926 358.887 185.918 330.431L186.049 329.898L187.58 329.382L263.973 303.756ZM263.564 306.004L263.077 306.168L188.217 331.278L187.732 331.442C181.221 358.808 190.846 387.5 212.535 405.416L213.02 405.252L213.021 405.252L287.88 380.142L287.881 380.142L288.367 379.978C294.878 352.612 285.253 323.92 263.564 306.004Z" fill="#ABDBAB"/>
<path fill-rule="evenodd" clip-rule="evenodd" d="M201.145 294.823L216.761 321.698L186.359 331.886L176.684 303.03L201.145 294.823ZM179.216 304.29L187.62 329.354L213.799 320.582L200.235 297.237L179.216 304.29Z" fill="#ABDBAB"/>
<path fill-rule="evenodd" clip-rule="evenodd" d="M241.575 395.672L245.311 426.529L220.85 434.726L211.174 405.87L241.575 395.672ZM213.706 407.13L222.11 432.194L243.129 425.151L239.885 398.348L213.706 407.13Z" fill="#ABDBAB"/>
<path fill-rule="evenodd" clip-rule="evenodd" d="M255.25 276.684L264.926 305.54L234.524 315.738L230.789 284.881L255.25 276.684ZM232.971 286.259L236.215 313.062L262.394 304.28L253.99 279.216L232.971 286.259Z" fill="#ABDBAB"/>
<path fill-rule="evenodd" clip-rule="evenodd" d="M289.74 379.514L299.416 408.38L274.955 416.587L259.339 389.712L289.74 379.514ZM262.3 390.828L275.865 414.173L296.884 407.12L288.479 382.046L262.3 390.828Z" fill="#ABDBAB"/>
<path fill-rule="evenodd" clip-rule="evenodd" d="M282.753 329.156C248.567 332.361 215.585 343.432 186.376 361.481L185.324 359.779C214.795 341.569 248.073 330.399 282.567 327.164L282.753 329.156Z" fill="#ABDBAB"/>
<path fill-rule="evenodd" clip-rule="evenodd" d="M193.347 382.254C227.533 379.049 260.515 367.979 289.724 349.929L290.776 351.631C261.305 369.842 228.027 381.011 193.533 384.246L193.347 382.254Z" fill="#ABDBAB"/>
</g>
<path d="M66.5003 198.3C135.221 198.3 190.93 142.591 190.93 73.87C190.93 5.14922 135.221 -50.56 66.5003 -50.56C-2.22048 -50.56 -57.9297 5.14922 -57.9297 73.87C-57.9297 142.591 -2.22048 198.3 66.5003 198.3Z" fill="#FFF9E3"/>
<mask id="mask4_1528_88211" style="mask-type:luminance" maskUnits="userSpaceOnUse" x="-58" y="-51" width="249" height="250">
<path d="M66.5003 198.3C135.221 198.3 190.93 142.591 190.93 73.87C190.93 5.14922 135.221 -50.56 66.5003 -50.56C-2.22048 -50.56 -57.9297 5.14922 -57.9297 73.87C-57.9297 142.591 -2.22048 198.3 66.5003 198.3Z" fill="white"/>
</mask>
<g mask="url(#mask4_1528_88211)">
<path d="M66.5003 198.3C135.221 198.3 190.93 142.591 190.93 73.87C190.93 5.14922 135.221 -50.56 66.5003 -50.56C-2.22048 -50.56 -57.9297 5.14922 -57.9297 73.87C-57.9297 142.591 -2.22048 198.3 66.5003 198.3Z" fill="#FFF9E3"/>
<path fill-rule="evenodd" clip-rule="evenodd" d="M32.6443 -38.8518L177.097 39.5812L177.098 39.5817L182.458 42.5H179.586C183.136 101.553 152.554 157.469 100.838 186.333L100.356 186.602L-44.087 108.169L-46.4808 106.865L-46.5176 106.317C-50.5034 46.8712 -19.8647 -9.5549 32.163 -38.5833L32.6443 -38.8518ZM177.558 42.1092L176.143 41.3388L176.142 41.3382L32.6571 -36.5676C-18.244 -7.92706 -48.2561 47.3454 -44.5578 105.635L-43.1316 106.412L100.343 184.318C151.246 155.666 181.258 100.401 177.558 42.1092Z" fill="#ABDBAB"/>
<path fill-rule="evenodd" clip-rule="evenodd" d="M-45.7212 105.004L9.91582 135.217L-29.7206 182.218L-74.4556 157.922L-45.7212 105.004ZM-44.918 107.716L-71.7437 157.118L-30.1986 179.682L6.80494 135.803L-44.918 107.716Z" fill="#ABDBAB"/>
<path fill-rule="evenodd" clip-rule="evenodd" d="M162.721 -34.4778L207.466 -10.1817L178.732 42.746L123.095 12.5334L162.721 -34.4778ZM163.199 -31.9422L126.205 11.9466L177.928 40.0339L204.754 -9.37835L163.199 -31.9422Z" fill="#ABDBAB"/>
<path fill-rule="evenodd" clip-rule="evenodd" d="M45.8797 154.736L101.517 184.948L72.7721 237.866L28.0371 213.58L45.8797 154.736ZM47.0816 157.664L30.4241 212.6L71.9691 235.154L98.8045 185.752L47.0816 157.664Z" fill="#ABDBAB"/>
<path fill-rule="evenodd" clip-rule="evenodd" d="M169.335 103.037C116.72 56.1893 53.9873 22.1238 -13.9541 3.51446L-13.4258 1.58551C54.8129 20.2762 117.82 54.4907 170.665 101.543L169.335 103.037Z" fill="#ABDBAB"/>
<path fill-rule="evenodd" clip-rule="evenodd" d="M-36.3248 44.7131C16.2901 91.5607 79.013 125.616 146.964 144.236L146.436 146.164C78.1874 127.464 15.1903 93.2593 -37.6548 46.2068L-36.3248 44.7131Z" fill="#ABDBAB"/>
</g>
</g>
</g>
<defs>
<clipPath id="clip0_1528_88211">
<rect width="1335" height="464" fill="white"/>
</clipPath>
</defs>
</svg>
