<svg width="1335" height="464" viewBox="0 0 1335 464" fill="none" xmlns="http://www.w3.org/2000/svg">
<g clip-path="url(#clip0_1528_86154)">
<rect width="1335" height="464" fill="#D9EFF2"/>
<mask id="mask0_1528_86154" style="mask-type:luminance" maskUnits="userSpaceOnUse" x="0" y="0" width="1335" height="464">
<path d="M1335 0H0V464H1335V0Z" fill="white"/>
</mask>
<g mask="url(#mask0_1528_86154)">
<path d="M1335 0H0.000488281V464H1335V0Z" fill="#D9EFF2"/>
<path d="M711.01 285.61L795.89 246.85C816.42 237.47 831.5 219.18 836.78 197.23C848.83 147.14 893.64 111.84 945.16 111.84H975.63C997.2 111.84 1018.31 105.58 1036.4 93.82L1088.61 59.87C1105.33 48.99 1124.86 43.21 1144.81 43.21C1236.65 43.21 1282.64 154.25 1217.7 219.18L1217.48 219.4C1199.99 236.89 1210 266.85 1234.49 270.32L1312.08 281.29C1318.07 282.14 1317.45 290.98 1311.4 290.98H712.17C709.15 290.98 708.26 286.87 711 285.62L711.01 285.61Z" fill="#FFF8EB"/>
<path d="M1371.96 290.98H-59.41V431.51H1371.96V290.98Z" fill="#2EA1B2"/>
<path d="M1371.96 386.29H-59.41V493.22H1371.96V386.29Z" fill="#115EC1"/>
<path d="M-80.48 373.75L259.49 317.42L302.44 326.77C311.09 328.65 320.03 328.89 328.77 327.46L542.78 292.44C548.74 291.46 554.77 290.97 560.81 290.97H876V366.94L-68.93 410.31L-80.47 373.74L-80.48 373.75Z" fill="#FFCD5C"/>
<path d="M1371.96 341.5V386.29H-59.41L604.88 301.42C860.91 268.71 1120.74 282.29 1371.96 341.51V341.5Z" fill="#F6DC9D"/>
<path d="M1371.96 386.29H-59.41V411.43H1371.96V386.29Z" fill="#6BB7F6"/>
<path d="M-59.41 290.98H516.01C522.5 290.98 523.42 281.61 517.05 280.35L369 251.04C346.74 246.63 331.57 225.91 334.11 203.36L338.47 164.57C340.22 149 328.59 135.13 312.95 134.14L247.81 130.03C223.06 128.47 200.99 113.93 189.79 91.81L180.27 73.01C168.36 49.48 144.22 34.65 117.85 34.65H-61.74L-59.41 290.98Z" fill="#FFF8EB"/>
<path fill-rule="evenodd" clip-rule="evenodd" d="M1371.96 247.03H-98.73V244.03H1371.96V247.03Z" fill="#1F7AD0"/>
<path fill-rule="evenodd" clip-rule="evenodd" d="M112.49 232V386.29H106.49V232H112.49Z" fill="#0D386C"/>
<path fill-rule="evenodd" clip-rule="evenodd" d="M381.22 232V386.29H375.22V232H381.22Z" fill="#0D386C"/>
<path fill-rule="evenodd" clip-rule="evenodd" d="M649.96 232V386.29H643.96V232H649.96Z" fill="#0D386C"/>
<path fill-rule="evenodd" clip-rule="evenodd" d="M918.69 232V386.29H912.69V232H918.69Z" fill="#0D386C"/>
<path fill-rule="evenodd" clip-rule="evenodd" d="M1187.43 232V386.29H1181.43V232H1187.43Z" fill="#0D386C"/>
<path d="M628.33 382.08L643.63 378.47C653.28 376.19 661.02 368.99 663.99 359.52L669.18 342.97H688.65L676.3 386.28H628.82C626.29 386.28 625.87 382.66 628.33 382.08Z" fill="#FFF8EB"/>
<path d="M688.65 342.97L743.83 206.55L702.36 187.65L669.18 342.97H688.65Z" fill="#041F49"/>
<path d="M828.83 353.61L804.58 330.19L766.84 293.76L749.07 236.51L751.85 227.24C753.81 220.7 753.58 213.7 751.18 207.3L743.83 187.65V173.47H702.36V195.05C702.36 202.67 703.63 210.23 706.12 217.43L733.37 296.14C736.12 304.08 741.35 310.91 748.29 315.64L790.42 344.35L807.63 356.07L808.51 373.44L792.92 381.4C790.5 382.63 791.38 386.29 794.1 386.29H818.18L829.94 359.2C830.77 357.29 830.33 355.06 828.83 353.61Z" fill="#403A76"/>
<path fill-rule="evenodd" clip-rule="evenodd" d="M741.33 271.79L715.29 182.64L717.21 182.08L743.25 271.23C747.244 284.898 755.232 297.048 766.188 306.14C766.188 306.14 766.189 306.14 766.189 306.141L800.248 334.4L798.971 335.94L764.911 307.68L764.911 307.68C753.648 298.332 745.436 285.842 741.33 271.791L741.33 271.79Z" fill="#ECB036"/>
<path d="M829.94 359.2L818.18 386.29H794.1C791.38 386.29 790.5 382.63 792.92 381.4L808.51 373.44L807.63 356.07L790.42 344.35L804.58 330.19L828.83 353.61C830.33 355.06 830.77 357.29 829.94 359.2Z" fill="#FFF8EB"/>
<path fill-rule="evenodd" clip-rule="evenodd" d="M709.603 128.236C709.76 121.335 715.482 115.867 722.384 116.023L761.594 116.913C774.694 117.211 781.194 133.015 771.985 142.422C771.981 142.426 771.977 142.429 771.974 142.433L742.482 172.625C737.658 177.563 729.744 177.656 724.805 172.832C719.867 168.008 719.774 160.094 724.598 155.155L738.049 141.385L721.816 141.017C714.914 140.86 709.446 135.138 709.603 128.236Z" fill="white"/>
<path d="M715.08 107.17L714.6 99.46C714.55 98.69 714.06 98.01 713.33 97.74L709.25 96.2C707.54 95.56 706.41 93.92 706.41 92.1V87.77L703.35 87.12L705.86 85.54C706.34 85.24 706.75 84.83 707.06 84.34L710.8 78.42C711.37 77.52 712.27 76.86 713.3 76.59L718.84 75.14C723.2 74 727.82 75.54 730.61 79.07C733.82 83.12 733.87 88.83 730.75 92.95L728.36 96.1L729.56 107.17H715.07H715.08Z" fill="#FFA37B"/>
<path d="M730.7 109.6H713.5C712.9 109.6 712.42 109.12 712.42 108.52V106.33C712.42 105.79 712.81 105.34 713.34 105.26L730.54 102.78C731.19 102.69 731.77 103.19 731.77 103.85V108.53C731.77 109.13 731.29 109.61 730.69 109.61L730.7 109.6Z" fill="#2A3B83"/>
<path d="M748.33 147.25C751.26 145.08 753.16 141.62 753.16 137.7C753.16 131.13 747.84 125.81 741.27 125.81H740.76C742.3 123.81 743.22 121.31 743.22 118.59C743.22 112.02 737.9 106.7 731.33 106.7H712.85C706.28 106.7 700.96 112.02 700.96 118.59C700.96 121.31 701.88 123.81 703.42 125.81H702.91C696.34 125.81 691.02 131.13 691.02 137.7C691.02 141.62 692.93 145.09 695.85 147.25C692.92 149.42 691.02 152.88 691.02 156.8C691.02 160.72 692.93 164.19 695.85 166.35C692.92 168.52 691.02 171.98 691.02 175.9C691.02 182.47 696.34 187.79 702.91 187.79H741.27C747.84 187.79 753.16 182.47 753.16 175.9C753.16 171.98 751.25 168.51 748.33 166.35C751.26 164.18 753.16 160.72 753.16 156.8C753.16 152.88 751.25 149.41 748.33 147.25Z" fill="#FF5F2F"/>
<path d="M685.26 130.75L681.6 120.2C681.23 119.13 680.47 118.23 679.47 117.69L676.66 116.17C675.77 115.69 675.22 114.76 675.22 113.75V108.1C675.22 107.04 676.08 106.19 677.13 106.19H682.62C683.68 106.19 684.53 107.05 684.53 108.1V112.21L685.67 107.07C685.78 106.55 686.24 106.19 686.77 106.19C687.39 106.19 687.89 106.69 687.89 107.31V113.89C687.89 114.24 687.79 114.58 687.59 114.87L687.3 115.3C686.99 115.76 686.92 116.33 687.09 116.85L691.82 130.76H685.27L685.26 130.75Z" fill="#FFA37B"/>
<path d="M697.47 118.08L703.2 136.45L711.23 122.34C714.64 116.34 722.27 114.24 728.28 117.66C734.28 121.07 736.38 128.7 732.96 134.71L713.57 168.8C710.88 173.53 705.88 176.39 700.53 176.39C699.99 176.39 699.46 176.36 698.91 176.3C692.96 175.66 687.97 171.56 686.19 165.85L673.61 125.54L697.48 118.09L697.47 118.08Z" fill="white"/>
<path d="M710.62 76.56C710.62 76.56 709.79 90.19 718.2 95L717.19 86.12C717.08 85.14 717.67 84.22 718.61 83.93L718.7 83.9C719.7 83.58 720.78 84.07 721.21 85.03C721.69 86.12 721.15 87.38 720.03 87.79L718.2 88.46C718.2 88.46 721.37 102.11 728.36 102.11C735.35 102.11 738.47 85.82 729.21 76.56C719.95 67.3 710.62 76.56 710.62 76.56Z" fill="#2A3B83"/>
<path d="M751.85 64.75C756.87 69.01 756.87 76.4 751.85 81.27C746.83 86.14 738.8 87.02 733.92 83.24C729.04 79.46 729.04 72.06 733.92 66.72C738.8 61.38 746.83 60.49 751.85 64.75Z" fill="#2A3B83"/>
<path d="M1022.66 382.8L1036.57 379.59C1040.72 378.63 1043.83 375.19 1044.37 370.96L1046.37 355.17H1057.25L1052.95 386.28H1023.06C1020.96 386.28 1020.62 383.27 1022.66 382.79V382.8Z" fill="#041F49"/>
<path d="M1094.88 359.17L1098.84 386.28H1073.19C1071.09 386.28 1070.76 383.26 1072.81 382.81L1083.59 380.4C1085.32 380.01 1086.46 378.35 1086.2 376.6L1083.9 361.24L1094.89 359.17H1094.88Z" fill="#041F49"/>
<path d="M1069.68 372.53L1105.67 366.62L1086.58 238.09L1046.37 244.7L1069.68 372.53Z" fill="#041F49"/>
<path d="M1044.39 232.61L1046.37 244.69L1026.7 373.52L1062.12 373.75L1086.68 255.36C1088.71 245.57 1087.99 235.41 1084.6 226.01L1044.39 232.61Z" fill="#77A2B8"/>
<path d="M1033.4 329.63L1039.59 218.18L1010.4 329.63H1033.4Z" fill="#FFA81E"/>
<path d="M1039.59 218.17L1046.37 96.02H1033.4L1034.16 111.08C1023.85 135.86 1022.57 163.48 1030.54 189.11L1039.58 218.17H1039.59Z" fill="#FFA81E"/>
<path d="M1051.64 112.28L1049.99 99.4H1046.78C1044.24 99.4 1042.25 97.22 1042.48 94.69L1043.02 88.74H1040.01C1039.71 88.74 1039.51 88.44 1039.62 88.16L1045.08 74.73C1046.47 71.31 1049.79 69.08 1053.48 69.08H1055.06C1064.31 69.08 1070.73 78.28 1067.54 86.96L1066.17 90.68L1068.59 112.28H1051.64Z" fill="#FFA785"/>
<path d="M1041.37 186.12L1037.71 127.38C1037.36 121.75 1039.6 116.28 1043.8 112.51L1042.05 100.96H1066.02V206.63L1041.36 186.11L1041.37 186.12Z" fill="#403A76"/>
<path d="M1101.19 196.58L1097.13 200.68L1097.68 210.86L1104.09 329.63H1033.4L1046.37 96.03H1082.17L1078.73 109.61H1084.93C1090.62 109.61 1095.81 112.91 1098.22 118.07L1119.19 163.01C1122.12 169.3 1120.83 176.74 1115.95 181.67L1101.19 196.58Z" fill="#FFD985"/>
<path fill-rule="evenodd" clip-rule="evenodd" d="M1042.23 86.4307L1041.49 77.2907L1043.49 77.1293L1044.23 86.2693L1042.23 86.4307Z" fill="#141522"/>
<path fill-rule="evenodd" clip-rule="evenodd" d="M1053.11 82.28H1042.86V81.28H1053.11V82.28Z" fill="#141522"/>
<path d="M1094.48 112.66V103.83L1091.45 103.26C1090.7 103.12 1090.5 102.14 1091.13 101.71L1095.87 98.55L1096.61 96.87C1099.1 91.22 1105.46 88.36 1111.34 90.23C1117.28 92.12 1120.81 98.21 1119.5 104.3L1117.78 112.27L1094.47 112.64L1094.48 112.66Z" fill="#D17636"/>
<path d="M1098.67 134.06L1095.01 127.4C1093.5 124.65 1092.71 121.57 1092.71 118.43V109.44H1119.76V134.05H1098.67V134.06Z" fill="#FF5F2F"/>
<path d="M1104.04 347.61L1101.5 368.51C1100.97 372.86 1097.97 376.5 1093.81 377.86L1078.71 382.78C1076.77 383.41 1077.23 386.27 1079.27 386.27H1113.05L1119.86 347.6H1104.04V347.61Z" fill="#041F49"/>
<path d="M1089.3 311.06H1061.53L1098.67 180.01L1134.42 311.06H1089.3Z" fill="#403A76"/>
<path d="M1158.85 349.27L1165 365.84C1166.18 369.01 1166.09 372.51 1164.75 375.61C1163.01 379.65 1159.35 382.55 1155.02 383.33L1154.72 383.38C1152.97 383.7 1153.2 386.27 1154.98 386.27H1170.83L1179.06 373.57C1180.03 372.07 1180.27 370.22 1179.73 368.53L1171.5 342.96L1158.86 349.26L1158.85 349.27Z" fill="#041F49"/>
<path d="M1078.94 364.05L1128.38 369.48L1142.35 260.6C1143.75 249.66 1143.16 238.56 1140.59 227.83L1138.28 218.18H1089.29V249.56L1078.93 364.06L1078.94 364.05Z" fill="#D2ECF5"/>
<path d="M1089.3 218.17L1131.44 364.63L1179.54 350.62L1138.29 218.17H1089.3Z" fill="white"/>
<path d="M1095.87 138.17L1061.53 232H1089.3L1095.87 138.17Z" fill="#403A76"/>
<path d="M1172.93 311.06H1098.67L1081.05 228.13C1079.65 221.56 1079.56 214.78 1080.77 208.17L1093.63 138.18V130.76L1119.86 118.47L1156.99 159.99C1163.92 167.73 1164.11 179.38 1157.45 187.36L1149.45 196.94L1149.38 197.02L1143.09 204.55L1172.93 311.06Z" fill="#1F7AD0"/>
<path d="M1098.67 195.24L1129.13 164.78L1121.08 156.72L1098.67 195.24Z" fill="#403A76"/>
<path d="M1102.88 210.34L1109.13 216.59L1104.63 221.09L1102.88 226.01L1095.87 217.14L1102.88 210.34Z" fill="#D17636"/>
<path d="M1172.93 311.06L1132.25 216.7L1149.38 197.02L1143.09 204.55L1172.93 311.06Z" fill="#403A76"/>
<path d="M1093.63 130.76L1101.66 122.09C1106.31 117.07 1113.65 115.61 1119.86 118.47L1157.47 145.38L1142.79 160.06L1116.43 121.76L1093.63 130.76Z" fill="#FF5F2F"/>
<path d="M1097.67 93.91L1103.4 103.05C1105.9 107.03 1110.26 109.45 1114.96 109.45H1119.76V118.47L1127.45 110.78C1129.91 108.32 1128.17 104.11 1124.69 104.11C1124.69 104.11 1114.44 78.23 1097.67 93.92V93.91Z" fill="#141522"/>
<path d="M1094.48 105.1L1097.48 104.7L1094.48 104.29V105.1Z" fill="#E74800"/>
<path d="M1097.48 104.7C1097.48 104.7 1095.77 106.24 1094.47 106.24V105.11L1097.48 104.71V104.7Z" fill="#AA310B"/>
<path d="M1044.05 70.4L1045.15 72.89C1046.5 75.95 1049.68 77.78 1053 77.43L1055.1 77.21L1053.49 77.83C1052.74 78.12 1052.24 78.84 1052.24 79.65V83.96H1054.39V81.74C1054.39 80.94 1055.04 80.29 1055.84 80.29C1056.8 80.29 1057.5 81.21 1057.24 82.14L1055.56 88.03L1066.15 90.67L1068.27 87.51C1070.99 83.46 1070.44 78.05 1066.97 74.63L1066.39 74.06L1065.85 72.88C1063.79 68.4 1058.76 66.11 1054.03 67.49L1044.04 70.39L1044.05 70.4Z" fill="#141522"/>
<path d="M1298.98 279.93H1220.77L1222.83 288.67C1223.15 290.02 1224.36 290.98 1225.75 290.98H1288.31C1289.2 290.98 1290.04 290.59 1290.61 289.91L1298.98 279.93Z" fill="#141522"/>
<path d="M1276.91 271.87H1237.94V279.93H1276.91V271.87Z" fill="#77A2B8"/>
<path d="M1262.59 275.9H1223.62V279.93H1262.59V275.9Z" fill="#77A2B8"/>
<path d="M1247.66 265.61H1240.94L1242.18 271.87H1248.89L1247.66 265.61Z" fill="#141522"/>
<path d="M1257.23 265.61H1250.51L1251.75 271.87H1258.46L1257.23 265.61Z" fill="#141522"/>
<path d="M360.83 218.18H643.44C647.55 218.18 648.32 212.33 644.34 211.27L571.26 191.82C561.11 189.12 552.86 181.75 549.04 171.97L546.03 164.27C535.83 138.17 510.68 121 482.66 121H479.62C451.17 121 426.14 139.78 418.18 167.09C414.5 179.72 403.61 188.92 390.55 190.44L384.95 191.09C371.2 192.69 360.84 204.34 360.84 218.18H360.83Z" fill="#A5D9EC"/>
</g>
</g>
<defs>
<clipPath id="clip0_1528_86154">
<rect width="1335" height="464" fill="white"/>
</clipPath>
</defs>
</svg>
