<svg width="1335" height="464" viewBox="0 0 1335 464" fill="none" xmlns="http://www.w3.org/2000/svg">
<g clip-path="url(#clip0_1528_82891)">
<rect width="1335" height="464" fill="#FFECC1"/>
<mask id="mask0_1528_82891" style="mask-type:luminance" maskUnits="userSpaceOnUse" x="0" y="0" width="1336" height="464">
<path d="M1335 0H0V464H1335V0Z" fill="white"/>
</mask>
<g mask="url(#mask0_1528_82891)">
<path d="M1335.29 0.809998H0.290527V463.19H1335.29V0.809998Z" fill="#FFECC1"/>
<path d="M214.64 509.15L244.71 245.13H443.5" stroke="#FBBA06" stroke-width="2" stroke-miterlimit="10"/>
<path d="M539.7 509.15L569.77 245.13H768.56" stroke="#FBBA06" stroke-width="2" stroke-miterlimit="10"/>
<path d="M-10.27 343.95H142.58C142.58 343.95 131.72 462.38 252.83 504.97" stroke="#FBBA06" stroke-width="2" stroke-miterlimit="10"/>
<path d="M685.87 121.64H426.57L371.31 470.55H630.61L685.87 121.64Z" fill="#FDD0C6"/>
<path d="M482.38 478.27L554.4 59.56" stroke="#864831" stroke-width="18" stroke-miterlimit="10"/>
<path d="M706.7 470.55L833.69 46.68" stroke="#3D1902" stroke-width="8" stroke-miterlimit="10"/>
<path d="M831.84 29.37L878.4 464.81" stroke="#502400" stroke-width="30" stroke-miterlimit="10" stroke-linecap="round"/>
<path d="M948.48 55.37H698.76L732.23 465.47H981.95L948.48 55.37Z" fill="#FDD0C6"/>
<mask id="mask1_1528_82891" style="mask-type:luminance" maskUnits="userSpaceOnUse" x="710" y="55" width="284" height="411">
<path d="M959.98 55.37H710.26L743.74 465.47H993.45L959.98 55.37Z" fill="white"/>
</mask>
<g mask="url(#mask1_1528_82891)">
<path d="M959.98 55.37H710.26L743.74 465.47H993.45L959.98 55.37Z" fill="#FFF8EB"/>
</g>
<path d="M1220.72 367.018L1230.41 376.712L1193.24 413.878L1156.08 376.712L1165.77 367.018C1180.93 351.857 1205.55 351.858 1220.72 367.018Z" fill="#362C62"/>
<path d="M1357.38 367.011L1367.07 376.706L1329.91 413.871L1292.74 376.706L1302.44 367.011C1317.6 351.851 1342.22 351.851 1357.38 367.011Z" fill="#6AC294"/>
<path d="M1047.34 368.722L1055.33 376.712L1018.16 413.878L980.998 376.712L988.988 368.722C1005.09 352.621 1031.24 352.621 1047.34 368.722Z" fill="#FF5817"/>
<path d="M829.45 376.71V412.05H872.51L886.66 426.2C905.19 444.73 935.24 444.73 953.77 426.2L967.92 412.05H1009.78L1023.93 426.2C1042.46 444.73 1072.51 444.73 1091.04 426.2L1105.19 412.05H1147.05L1161.2 426.2C1179.73 444.73 1209.78 444.73 1228.31 426.2L1242.46 412.05H1284.32L1298.47 426.2C1317 444.73 1347.05 444.73 1365.58 426.2L1379.73 412.05H1422.79V376.71H829.44H829.45Z" fill="#FDB0CE"/>
<path d="M1400.21 440.1H695.72V486.29H1400.21V440.1Z" fill="#FFCD5C"/>
<path d="M1070.33 175.37H1065.35C1061.84 175.37 1058.52 176.99 1056.35 179.76L1032.54 210.21C1023.82 221.36 1028 237.75 1040.99 243.36C1049.12 246.87 1058.58 245.07 1064.84 238.8L1073.72 229.92L1070.33 175.37Z" fill="#58AF67"/>
<path d="M1096.71 157.09L1092.75 161.17L1092.89 173.93H1080.32V163.76L1075.78 163.36C1073.97 163.18 1072.45 161.9 1072 160.14L1070.8 155.48L1067.24 155.04L1069.79 152.28C1070.12 151.91 1070.39 151.49 1070.58 151.03L1071.92 147.76C1072.17 147.14 1072.47 146.56 1072.78 146C1074.8 142.37 1078.11 139.59 1082.11 138.29L1084.24 137.59C1087.07 136.66 1090.21 137.75 1091.84 140.25L1097.49 148.89C1099.18 151.48 1098.85 154.89 1096.7 157.11L1096.71 157.09Z" fill="#AA5B26"/>
<path d="M1096.8 169.527L1076.63 170.341L1076.96 178.464L1097.12 177.651L1096.8 169.527Z" fill="#58AF67"/>
<path d="M1083.85 339.57L1081.91 360.95C1081.63 364.08 1079.34 366.66 1076.27 367.32L1062.33 370.32C1058.55 371.13 1059.14 376.7 1063.01 376.7H1101.71L1104.13 339.56H1083.85V339.57Z" fill="#362C62"/>
<path d="M1184.82 304.21L1206.29 304.13C1209.43 304.12 1212.22 306.15 1213.16 309.15L1217.46 322.74C1218.63 326.43 1224.12 325.32 1223.75 321.46L1220.11 282.93L1182.91 284.01L1184.82 304.2V304.21Z" fill="#362C62"/>
<path d="M1203.34 279.32V323.32H1142.68C1123.49 323.32 1106.5 311.8 1099.4 293.97L1069.32 218.44L1110.2 202.16L1114.88 213.92L1133.27 260.08L1140.28 277.69C1140.68 278.68 1141.62 279.32 1142.68 279.32H1203.34Z" fill="#3D76BC"/>
<path d="M1133.27 260.08C1114.51 266.83 1102.21 283.99 1102.21 283.99L1105.28 213.92H1114.88L1133.27 260.08Z" fill="#423772"/>
<path d="M1114.34 175.98L1113.59 230.07L1113.28 252.49L1111.77 361.18L1067.77 360.57L1068.95 275.62V275.61L1069.42 241.76L1069.58 230.07L1070.34 175.37L1113.38 175.97L1114.34 175.98Z" fill="#46A6F6"/>
<path d="M1113.58 230.07L1113.27 252.49L1068.94 275.62V275.61L1069.57 230.07H1113.58Z" fill="#3D76BC"/>
<path d="M1113.38 175.97L1113.28 191.62L1069.42 241.76L1069.58 230.07L1070.34 175.37L1113.38 175.97Z" fill="#3D76BC"/>
<path d="M1076.84 175.37V206.03L1097.18 206.79L1097.06 175.74L1076.84 175.37Z" fill="#58AF67"/>
<path d="M1114.25 175.98L1121.89 185.59C1135.76 203.04 1133.46 228.68 1116.13 242.69C1103.95 252.54 1084.6 260.41 1053.88 260.41V228.26L1092.96 216.31L1114.26 175.97L1114.25 175.98Z" fill="#58AF67"/>
<path d="M955.57 322.81H959.38V326.62C959.38 351.11 939.5 370.99 915.01 370.99H911.2V367.18C911.2 342.69 931.08 322.81 955.57 322.81Z" fill="#A16135"/>
<path d="M915.12 361.18C915.12 326.73 955.46 326.73 955.46 326.73V332.62C955.46 351.65 940.04 367.07 921.01 367.07" stroke="#161616" stroke-miterlimit="10"/>
<path d="M920.66 361.18C920.66 342.15 946.74 346.4 955.11 326.73H955.47V327.09C944.47 369.49 923.49 343.72 923.49 343.72" stroke="#161616" stroke-miterlimit="10"/>
<path d="M953.73 317.16L1116.46 160.41C1119.98 157.16 1125.12 162.04 1121.79 165.74L965.04 328.47C957.27 335.91 946.24 325.04 953.73 317.16Z" fill="#FF5817"/>
<path d="M1053.88 236.07L1046.3 243.82H1035.72C1033.29 243.82 1031.32 245.79 1031.32 248.22C1031.32 250.23 1032.68 251.98 1034.62 252.48L1039.85 253.83C1045.27 255.23 1050.91 252.56 1053.27 247.48L1053.89 246.15V236.06L1053.88 236.07Z" fill="#AA5B26"/>
<path d="M1055.32 219.52L1060.57 214.53L1065.72 217.47C1067.83 218.68 1070.5 218.27 1072.16 216.5C1074.81 213.67 1073.6 209.05 1069.9 207.89L1062.84 205.67C1059.72 204.69 1056.5 206.84 1056.2 210.09L1055.32 219.53V219.52Z" fill="#AA5B26"/>
<path d="M1094.57 127.81L1094.56 127.816C1090.27 130.759 1089.17 136.629 1092.11 140.925L1096.55 147.392C1099.49 151.688 1105.36 152.785 1109.65 149.841L1109.66 149.835C1113.96 146.891 1115.06 141.022 1112.11 136.726L1107.68 130.258C1104.74 125.962 1098.87 124.866 1094.57 127.81Z" fill="#3D1902"/>
<path d="M1096.71 157.09L1092.75 161.17L1087.93 158.57C1085.68 157.36 1084.55 154.72 1085.24 152.25L1085.63 150.84C1085.82 150.1 1085.52 149.31 1084.89 148.9C1084.59 148.71 1084.26 148.6 1083.92 148.6C1083.18 148.6 1082.48 149.08 1082.23 149.85L1081.58 152.01L1080.08 149.83C1079.5 148.99 1078.57 148.47 1077.55 148.44L1076.88 148.42C1075.81 148.38 1075.07 147.31 1075.42 146.27L1076.23 143.95L1073.87 145.75C1073.55 146 1073.17 146.07 1072.8 145.98C1074.82 142.35 1078.13 139.57 1082.13 138.27L1084.26 137.57C1087.09 136.64 1090.23 137.73 1091.86 140.23L1097.51 148.87C1099.2 151.46 1098.87 154.87 1096.72 157.09H1096.71Z" fill="#3D1902"/>
<path d="M865.85 367.5C867.05 365.87 869.02 364.98 871.04 365.17L905.15 368.32C913.31 369.07 921.48 367.14 928.44 362.8L968.99 337.53C979.62 330.9 993.65 334.9 999.2 346.14C1006.15 360.22 995.9 376.7 980.2 376.7H870.52C865.78 376.7 863.05 371.31 865.86 367.49L865.85 367.5Z" fill="#FFCD5C"/>
<path d="M1113.57 341.69H1066.52V361.9H1113.57V341.69Z" fill="#423772"/>
<path d="M1203.35 323.91V276.86H1183.14V323.91H1203.35Z" fill="#423772"/>
<path d="M1126.13 289.43L1140.96 278.66V298.25" stroke="#423772" stroke-width="2" stroke-linejoin="round"/>
<path d="M1066.52 351.8H1113.57" stroke="#3D76BC" stroke-width="2" stroke-linejoin="round"/>
<path d="M1081.17 341.69V276.86" stroke="#3D76BC" stroke-width="2" stroke-linejoin="round"/>
<path d="M1193.24 276.86V323.91" stroke="#3D76BC" stroke-width="2" stroke-linejoin="round"/>
<path d="M1055.32 219.52L1056.9 192.89" stroke="#423772" stroke-miterlimit="10"/>
<path d="M1089.5 217.37C1091.62 216.72 1093.93 217.3 1095.5 218.86L1102.75 226.11" stroke="#423772" stroke-miterlimit="10"/>
<path d="M1122.75 440.1H1227.87C1241.73 440.1 1248.67 423.34 1238.87 413.54C1232.79 407.46 1222.95 407.46 1216.87 413.54L1199.86 430.55C1196.96 433.45 1192.27 433.45 1189.37 430.55L1187.76 428.94C1181.58 422.76 1172.08 421.62 1164.46 425.89C1153.09 432.27 1139.08 435.14 1122.61 438.76C1121.82 438.93 1121.94 440.1 1122.75 440.1Z" fill="#3A9EE0"/>
<path d="M789.56 46.68H771.35V55.38H776.98C783.93 55.38 789.56 61.01 789.56 67.96H891.14V46.68H789.56Z" fill="#675F8C"/>
<path d="M751.56 258.03C797.58 246.45 850 252.36 888.34 281.72C894.37 286.4 888.21 295.52 881.61 291.64C854.58 273.63 820.93 267.97 788.99 271.85C779.12 273.03 769.32 274.96 759.87 277.97C753.77 280.78 746.91 278.83 744.29 272.41C741.91 266.47 745.37 259.65 751.56 258.03Z" fill="#B7BD61"/>
<path d="M765.76 374.54C782.43 334.73 815.59 302.18 855.65 285.97C883.07 274.78 913.45 271.39 942.79 273.39C948.65 273.79 953.08 278.87 952.68 284.74C952.28 290.77 946.86 295.28 940.86 294.59C924.43 292.73 907.87 292.75 891.64 295.05C882.54 296.31 873.52 298.49 864.79 301.33C834.44 311.26 807.83 331.61 789.38 357.72C784.62 364.45 780.22 371.62 776.84 379.11C773.52 386.06 763.21 381.89 765.76 374.53V374.54Z" fill="#4C8431"/>
<path d="M944.98 192.62C945.82 198.46 925.98 203.94 925.12 209.27C924.2 215 941.03 226.71 938.42 231.54C935.71 236.54 916.82 228.65 912.58 232.33C908.39 235.97 913.55 255.8 908.15 257.8C903.08 259.68 893.84 241.38 887.94 241.51C881.53 241.65 872.12 260.02 866 257.92C860.04 255.87 863.42 235.28 858.13 231.45C853.01 227.75 834.71 237.75 830.58 232.72C826.55 227.81 839.87 211.77 837.13 205.9C834.44 200.15 813.54 200.02 812.39 193.63C811.3 187.57 830.87 181.05 831.44 175.62C832.08 169.57 814.78 158.5 817.23 153.53C819.85 148.23 838.84 155.71 843.23 152.01C847.56 148.36 843.39 128.35 849.14 126.65C854.38 125.1 862.39 144 868.56 144.37C874.94 144.74 885.23 126.73 891.24 128.92C897.21 131.1 893.77 151.7 899.02 155.35C904.26 159 922.33 148.55 926.49 153.35C930.7 158.2 917.7 174.45 920.45 180.16C923.23 185.94 944.08 186.32 944.98 192.63V192.62Z" fill="#FFD985"/>
<path d="M676.52 121.64H417.21L361.95 470.55H621.26L676.52 121.64Z" fill="#FFF8EB"/>
<path d="M650.23 444.05H337.12V470.54H650.23V444.05Z" fill="#FFCD5C"/>
<path d="M548.4 94.45L542.13 130.92" stroke="#864831" stroke-width="18" stroke-miterlimit="10" stroke-linecap="round"/>
<path d="M561.44 399.04H600.26V435.91C600.26 440.41 596.61 444.06 592.11 444.06H569.58C565.08 444.06 561.43 440.41 561.43 435.91V399.04H561.44Z" fill="#E2E2E2"/>
<path d="M518.39 368.73H557.21V435.91C557.21 440.41 553.56 444.06 549.06 444.06H526.53C522.03 444.06 518.38 440.41 518.38 435.91V368.73H518.39Z" fill="#E2E2E2"/>
<path d="M544.65 442.32L504.04 324.43C503.3 322.28 504.44 319.94 506.59 319.2C508.74 318.46 511.08 319.6 511.82 321.75C511.85 321.84 549.35 440.65 549.39 440.75C550.3 443.82 545.8 445.41 544.64 442.32H544.65Z" fill="#A16135"/>
<path d="M531.43 441.39L537.57 316.86C537.68 314.59 539.61 312.84 541.89 312.95C544.16 313.06 545.91 314.99 545.8 317.27C545.8 317.37 536.43 441.6 536.43 441.71C536.13 444.9 531.36 444.7 531.44 441.4L531.43 441.39Z" fill="#A16135"/>
<path d="M508.1 323.55L506.59 322.83C498.75 319.07 494.04 310.86 494.74 302.19L495.72 290.1L504.3 298.49C510.74 304.78 512.45 314.48 508.55 322.6L508.09 323.55H508.1Z" fill="#FCD632"/>
<path d="M538.742 288.454L548.503 289.06L547.144 310.968C546.977 313.663 544.656 315.713 541.961 315.546C539.266 315.379 537.216 313.057 537.383 310.362L538.742 288.454Z" fill="#FCD632"/>
</g>
</g>
<defs>
<clipPath id="clip0_1528_82891">
<rect width="1335" height="464" fill="white"/>
</clipPath>
</defs>
</svg>
