<svg width="1335" height="464" viewBox="0 0 1335 464" fill="none" xmlns="http://www.w3.org/2000/svg">
<g clip-path="url(#clip0_1528_86543)">
<rect width="1335" height="464" fill="#CDE6D0"/>
<mask id="mask0_1528_86543" style="mask-type:luminance" maskUnits="userSpaceOnUse" x="0" y="0" width="1335" height="464">
<path d="M1335 0H0V464H1335V0Z" fill="white"/>
</mask>
<g mask="url(#mask0_1528_86543)">
<path d="M1335 0H0V464H1335V0Z" fill="#CDE6D0"/>
<path d="M0 349.62L1335 271.21V403.37H0V349.62Z" fill="#4C8431"/>
<path d="M1335 389.02H0V464H1335V389.02Z" fill="#58AF67"/>
<path d="M940.51 48.37L1018.47 105.06L1004.31 124.52L914.33 86.75" fill="#6AC294"/>
<path d="M940.51 48.37L1018.47 105.06L1032.62 85.59L968.95 11.63" fill="#6AC294"/>
<path fill-rule="evenodd" clip-rule="evenodd" d="M954.141 58.2819L979.171 23.8619L980.789 25.0381L955.759 59.4581L954.141 58.2819Z" fill="white"/>
<path fill-rule="evenodd" clip-rule="evenodd" d="M969.708 10.9776L1033.38 84.9376C1033.68 85.2891 1033.7 85.8027 1033.43 86.1779L1019.28 105.648C1019.12 105.862 1018.89 106.006 1018.63 106.048C1018.36 106.089 1018.1 106.025 1017.88 105.869L939.922 49.1788L941.098 47.5612L1018.25 103.663L1031.35 85.6425L968.192 12.2824L969.708 10.9776Z" fill="white"/>
<path fill-rule="evenodd" clip-rule="evenodd" d="M993.949 40.3281L971.639 71.0081L970.021 69.8319L992.331 39.1519L993.949 40.3281Z" fill="white"/>
<path fill-rule="evenodd" clip-rule="evenodd" d="M1007.11 55.608L987.519 82.558L985.901 81.382L1005.49 54.432L1007.11 55.608Z" fill="white"/>
<path fill-rule="evenodd" clip-rule="evenodd" d="M1020.38 70.7481L1003.4 94.0981L1001.78 92.9219L1018.76 69.5719L1020.38 70.7481Z" fill="white"/>
<path fill-rule="evenodd" clip-rule="evenodd" d="M967.553 21.7008L1029.4 90.3808L1027.92 91.7192L966.067 23.0392L967.553 21.7008Z" fill="white"/>
<path fill-rule="evenodd" clip-rule="evenodd" d="M958.852 30.1775L1025.42 95.7375L1024.02 97.1625L957.448 31.6025L958.852 30.1775Z" fill="white"/>
<path fill-rule="evenodd" clip-rule="evenodd" d="M951.954 41.165L1022.08 100.205L1020.8 101.735L950.666 42.695L951.954 41.165Z" fill="white"/>
<path fill-rule="evenodd" clip-rule="evenodd" d="M955.759 59.458L930.729 93.888L929.111 92.712L954.141 58.282L955.759 59.458Z" fill="white"/>
<path fill-rule="evenodd" clip-rule="evenodd" d="M1017.07 105.28L939.922 49.1788L941.098 47.5612L1019.06 104.251C1019.27 104.407 1019.42 104.642 1019.46 104.904C1019.5 105.166 1019.43 105.434 1019.28 105.648L1005.12 125.108C1004.85 125.483 1004.35 125.622 1003.92 125.442L913.943 87.6721L914.717 85.8279L1003.97 123.292L1017.07 105.28Z" fill="white"/>
<path fill-rule="evenodd" clip-rule="evenodd" d="M947.711 100.512L970.021 69.8319L971.639 71.0081L949.329 101.688L947.711 100.512Z" fill="white"/>
<path fill-rule="evenodd" clip-rule="evenodd" d="M966.311 108.322L985.901 81.3819L987.519 82.5581L967.929 109.498L966.311 108.322Z" fill="white"/>
<path fill-rule="evenodd" clip-rule="evenodd" d="M984.801 116.272L1001.78 92.9219L1003.4 94.0981L986.419 117.448L984.801 116.272Z" fill="white"/>
<path fill-rule="evenodd" clip-rule="evenodd" d="M924.288 80.4868L1008.69 118.157L1007.87 119.983L923.472 82.3132L924.288 80.4868Z" fill="white"/>
<path fill-rule="evenodd" clip-rule="evenodd" d="M929.771 69.6528L1012.67 112.773L1011.75 114.547L928.848 71.4272L929.771 69.6528Z" fill="white"/>
<path fill-rule="evenodd" clip-rule="evenodd" d="M938.239 59.7815L1016.03 108.291L1014.97 109.989L937.181 61.4785L938.239 59.7815Z" fill="white"/>
<path d="M1041.22 115.17C1040.48 116.73 1039.58 118.24 1038.52 119.69C1029.02 132.75 1010.73 135.64 997.67 126.14L1032.07 78.84C1043.68 87.29 1047.25 102.68 1041.22 115.17Z" fill="#F76341"/>
<path d="M771.66 325.23L764.8 327.56L752.26 305.04L732.74 285.57C730.26 283.1 728.08 280.35 726.24 277.4C724.4 274.44 722.9 271.28 721.78 267.96L703.56 243.39L692.33 228.24L717.05 221.03L725.34 233.3L742.21 258.27C745.73 263.49 748.87 268.95 751.6 274.63L751.94 275.34C753.4 278.39 754.75 281.49 755.97 284.65L771.66 325.23Z" fill="#FF8B69"/>
<path d="M681.41 250.44L677.41 268.04C677.53 269.37 677.58 270.7 677.58 272.02C677.58 277.67 676.54 283.29 674.47 288.58L664.45 314.26L662.05 339.92L654.82 340.55L652.84 297.09C652.69 293.71 652.67 290.33 652.78 286.95L652.81 286.16C653.01 279.87 653.68 273.6 654.81 267.41L659.52 241.47L662.84 223.19L688.36 219.83L681.41 250.44Z" fill="#FF8B69"/>
<path d="M662.84 223.19L688.36 219.83L681.41 250.44L659.52 241.47L662.84 223.19Z" fill="#FF7756"/>
<path d="M725.34 233.3L703.56 243.39L692.33 228.24L717.05 221.03L725.34 233.3Z" fill="#FF7756"/>
<mask id="mask1_1528_86543" style="mask-type:luminance" maskUnits="userSpaceOnUse" x="799" y="63" width="38" height="47">
<path d="M833.656 93.8112C839.217 81.9072 836.663 68.958 827.951 64.8884C819.239 60.8187 807.669 67.1696 802.108 79.0736C796.547 90.9775 799.101 103.927 807.813 107.996C816.524 112.066 828.095 105.715 833.656 93.8112Z" fill="white"/>
</mask>
<g mask="url(#mask1_1528_86543)">
<path fill-rule="evenodd" clip-rule="evenodd" d="M800.944 78.537L810.934 57.137L812.746 57.983L802.756 79.383L800.944 78.537Z" fill="#362C62"/>
<path fill-rule="evenodd" clip-rule="evenodd" d="M833.034 93.5268L843.024 72.1368L844.836 72.9832L834.846 94.3732L833.034 93.5268Z" fill="#362C62"/>
<path fill-rule="evenodd" clip-rule="evenodd" d="M790.954 99.9268L800.944 78.5368L802.756 79.3832L792.766 100.773L790.954 99.9268Z" fill="#362C62"/>
<path fill-rule="evenodd" clip-rule="evenodd" d="M823.044 114.917L833.034 93.5268L834.846 94.3732L824.856 115.763L823.044 114.917Z" fill="#362C62"/>
</g>
<path fill-rule="evenodd" clip-rule="evenodd" d="M801.08 96.1826C802.045 101.074 804.63 104.854 808.448 106.637C812.265 108.421 816.824 107.978 821.194 105.579C825.563 103.181 829.637 98.8703 832.297 93.1763C834.957 87.4823 835.648 81.592 834.684 76.7022C833.719 71.8111 831.134 68.0308 827.316 66.2474C823.499 64.464 818.94 64.9069 814.57 67.3058C810.201 69.704 806.127 74.0144 803.467 79.7085C800.807 85.4025 800.115 91.2927 801.08 96.1826ZM798.137 96.7631C797.036 91.185 797.848 84.6486 800.749 78.4387C803.65 72.2288 808.142 67.4117 813.126 64.6759C818.109 61.9407 823.692 61.2431 828.586 63.5293C833.48 65.8156 836.527 70.5447 837.627 76.1216C838.727 81.6998 837.916 88.2361 835.015 94.446C832.114 100.656 827.622 105.473 822.637 108.209C817.654 110.944 812.072 111.642 807.178 109.355C802.284 107.069 799.237 102.34 798.137 96.7631Z" fill="#362C62"/>
<path fill-rule="evenodd" clip-rule="evenodd" d="M809.106 107.643L794.896 138.053L793.084 137.207L807.294 106.797L809.106 107.643Z" fill="#362C62"/>
<path d="M797.376 135.102C797.843 134.101 797.411 132.911 796.41 132.444C795.41 131.976 794.219 132.408 793.752 133.409L785.291 151.52C784.824 152.521 785.256 153.711 786.257 154.179C787.257 154.646 788.448 154.214 788.915 153.213L797.376 135.102Z" fill="#FF5F2F"/>
<path d="M795.84 145.62C796.38 144.86 796.06 143.8 795.19 143.46L788.29 140.75C787.22 140.33 786.03 140.43 785.05 141.02L783.63 141.88C781.15 143.38 778.31 144.2 775.41 144.24C767.36 144.36 759.34 144.84 751.32 145.4C695.03 149.92 639.21 159.66 584.73 174.51C575.62 177.1 566.56 179.78 557.63 183.03L553.17 184.28L549.28 183.65C548.42 183.51 547.56 183.45 546.69 183.47L539.74 183.64C539.37 183.63 539.07 183.92 539.06 184.28C539.06 184.62 539.3 184.91 539.64 184.95L545.93 185.75L533.88 186.36C533.44 186.38 533.12 186.78 533.19 187.21C533.25 187.56 533.54 187.81 533.89 187.83L543.95 188.23L533.08 188.53C532.67 188.54 532.33 188.86 532.29 189.27C532.25 189.73 532.59 190.13 533.05 190.16L544 190.79L534.08 191.58C533.59 191.62 533.22 192.05 533.26 192.55C533.3 193.02 533.69 193.37 534.15 193.38L549.03 193.42C549.41 193.42 549.55 193.92 549.23 194.12L545.03 196.72C544.54 197.02 544.35 197.63 544.56 198.16C544.8 198.75 545.47 199.04 546.07 198.8L553.36 195.94C556.9 194.55 560.56 193.52 564.3 192.88C575.39 190.99 600.38 185.46 604.31 185.22C655.98 181.73 679.56 177.62 729.79 165.21C748.09 160.51 758.82 156.73 781.07 151.44L785.71 149.77L790.13 152.22C791.07 152.74 792.26 152.42 792.8 151.49L794.4 148.74C794.87 147.94 794.72 146.92 794.04 146.29L793.73 146L794.3 146.15C794.88 146.3 795.48 146.08 795.83 145.59L795.84 145.62Z" fill="#FF8B69"/>
<path d="M725.27 222.97L697.08 239.41L690.55 229.72L687.25 240.27L655.45 238.09L657.88 224.67L661.42 205.17L661.54 204.51L668.42 203.34L701.66 197.72L708.49 205.02L725.27 222.97Z" fill="#362C62"/>
<path d="M708.49 205.02L657.88 224.67L661.42 205.17L668.42 203.34L701.66 197.72L708.49 205.02Z" fill="#041F49"/>
<mask id="mask2_1528_86543" style="mask-type:luminance" maskUnits="userSpaceOnUse" x="625" y="148" width="90" height="41">
<path d="M712.89 176.36L644.72 188.09L625.21 161.61L714.37 148.35L712.89 176.36Z" fill="white"/>
</mask>
<g mask="url(#mask2_1528_86543)">
<path d="M712.89 176.36L644.72 188.09L625.21 161.61L714.37 148.35L712.89 176.36Z" fill="#FDBD00"/>
<path fill-rule="evenodd" clip-rule="evenodd" d="M627.045 157.956L649.145 188.436L648.335 189.023L626.235 158.543L627.045 157.956Z" fill="white"/>
<path fill-rule="evenodd" clip-rule="evenodd" d="M633.122 154.087L651.282 188.497L650.398 188.963L632.238 154.553L633.122 154.087Z" fill="white"/>
<path fill-rule="evenodd" clip-rule="evenodd" d="M707.659 144.715L705.849 180.595L704.851 180.545L706.661 144.665L707.659 144.715Z" fill="white"/>
<path fill-rule="evenodd" clip-rule="evenodd" d="M711.609 144.715L709.799 180.595L708.801 180.545L710.611 144.665L711.609 144.715Z" fill="white"/>
</g>
<path d="M651.42 181.75L652.9 214.53L708.85 203.21L697.42 171.08L651.42 181.75Z" fill="#FDBD00"/>
<path d="M661.5 346.07L643.96 349.59C643.73 349.64 643.5 349.62 643.3 349.55C643.01 349.46 642.76 349.28 642.59 349.02C642.14 348.36 642.36 347.48 643.05 347.09L654.84 340.54L654.17 325.77L663.47 324.94L662.07 339.9L662.78 344.23C662.91 345.07 662.36 345.87 661.52 346.05L661.5 346.07Z" fill="white"/>
<path d="M661.5 346.07L643.96 349.59C643.73 349.64 643.5 349.62 643.3 349.55C643.01 349.46 642.76 349.28 642.59 349.02C642.14 348.36 642.36 347.48 643.05 347.09L654.84 340.54L657.87 343.02L662.06 339.91L662.77 344.24C662.9 345.08 662.35 345.88 661.51 346.06L661.5 346.07Z" fill="#262823"/>
<path d="M779.46 338.27L766.69 332.05L763.34 325.57L758.82 316.84L767.63 314.82L771.66 325.23L781.5 335.46C782.86 336.88 781.23 339.13 779.46 338.26V338.27Z" fill="white"/>
<path d="M779.46 338.27L766.69 332.05L763.34 325.57L766.9 328.74L771.66 325.24L781.5 335.47C782.86 336.89 781.23 339.14 779.46 338.27Z" fill="#262823"/>
<path d="M663.12 132.04C663.8 131.71 664.64 131.87 665.35 131.73C666.08 131.59 666.8 131.13 667.53 131.18C668.26 131.23 668.92 131.77 669.64 131.99C670.36 132.21 671.19 132.12 671.84 132.49C672.47 132.85 672.84 133.62 673.4 134.12C673.94 134.6 674.75 134.87 675.21 135.47C675.67 136.07 675.68 136.9 676.01 137.58C676.34 138.26 676.99 138.81 677.17 139.52C677.35 140.23 677.07 141.05 677.12 141.78C677.17 142.53 677.55 143.29 677.44 144.01C677.33 144.75 676.74 145.37 676.48 146.05C676.21 146.75 676.23 147.6 675.81 148.2C675.39 148.8 674.59 149.09 674.02 149.57C673.45 150.05 673.08 150.8 672.4 151.13C671.72 151.46 670.88 151.3 670.17 151.44C669.44 151.58 668.72 152.04 667.99 151.99C667.26 151.94 666.6 151.4 665.88 151.18C665.18 150.96 664.33 151.05 663.68 150.68C663.05 150.32 662.68 149.55 662.12 149.05C661.56 148.55 660.77 148.3 660.31 147.7C659.87 147.12 659.84 146.27 659.51 145.59C659.18 144.91 658.53 144.36 658.35 143.65C658.17 142.94 658.45 142.12 658.4 141.39C658.35 140.64 657.97 139.88 658.08 139.16C658.19 138.42 658.78 137.8 659.04 137.12C659.3 136.44 659.29 135.57 659.71 134.97C660.13 134.36 660.93 134.08 661.5 133.6C662.07 133.12 662.44 132.37 663.12 132.04Z" fill="#301812"/>
<path d="M674.22 143.36L677.08 163.47L665.45 155.62V148.12C665.45 146.97 665.23 145.83 664.81 144.75L661.86 137.2C660.53 133.79 662.01 129.93 665.27 128.27C666.3 127.75 667.4 127.5 668.47 127.5C670.62 127.5 672.69 128.48 674.04 130.18C674.61 130.89 675.05 131.72 675.32 132.66L677.38 139.89C677.66 140.87 677.19 141.91 676.28 142.35L674.23 143.35L674.22 143.36Z" fill="#FF8B69"/>
<path d="M656.98 119.71C657.72 119.87 658.28 120.51 658.93 120.85C659.58 121.19 660.44 121.27 660.99 121.77C661.54 122.26 661.72 123.09 662.14 123.71C662.56 124.31 663.27 124.77 663.56 125.47C663.83 126.15 663.64 126.98 663.78 127.72C663.91 128.44 664.38 129.15 664.36 129.9C664.34 130.65 663.85 131.31 663.68 132.05C663.51 132.79 663.68 133.62 663.4 134.29C663.12 134.96 662.38 135.43 661.96 136.03C661.54 136.63 661.36 137.48 660.83 137.98C660.28 138.49 659.44 138.61 658.81 138.99C658.18 139.37 657.66 140.05 656.95 140.27C656.24 140.49 655.44 140.21 654.7 140.25C653.97 140.28 653.2 140.63 652.46 140.47C651.72 140.31 651.16 139.67 650.51 139.33C649.85 138.99 649 138.91 648.45 138.41C647.9 137.92 647.72 137.09 647.3 136.47C646.88 135.85 646.17 135.41 645.88 134.71C645.61 134.03 645.8 133.2 645.66 132.46C645.52 131.72 645.06 131.03 645.08 130.28C645.1 129.55 645.59 128.87 645.76 128.13C645.93 127.39 645.76 126.56 646.04 125.89C646.34 125.2 647.06 124.75 647.48 124.15C647.91 123.53 648.08 122.7 648.61 122.2C649.16 121.69 650 121.57 650.63 121.19C651.26 120.81 651.78 120.13 652.49 119.91C653.2 119.69 654 119.97 654.74 119.93C655.47 119.9 656.24 119.55 656.98 119.71Z" fill="#301812"/>
<path d="M662.62 139.14L664.69 136.4C665.78 134.95 665.3 132.86 663.69 132.04C665.73 132.65 667.88 132.83 670 132.57L675.07 131.95C675.07 131.95 673.6 126.94 666.86 126.94C660.12 126.94 659.26 135.75 662.63 139.14H662.62Z" fill="#301812"/>
<path d="M662.62 140.17C663.581 140.17 664.36 139.709 664.36 139.14C664.36 138.571 663.581 138.11 662.62 138.11C661.659 138.11 660.88 138.571 660.88 139.14C660.88 139.709 661.659 140.17 662.62 140.17Z" fill="#FF8B69"/>
<path fill-rule="evenodd" clip-rule="evenodd" d="M1030.85 361.432C1029.72 376.532 1034.23 389.9 1044.19 398.397C1054.15 406.894 1068.06 409.243 1082.79 405.755C1097.53 402.266 1112.85 392.967 1125.14 378.563C1137.43 364.159 1144.2 347.561 1145.33 332.463C1146.45 317.363 1141.94 303.996 1131.98 295.499C1122.02 287.001 1108.11 284.652 1093.38 288.141C1078.64 291.629 1063.32 300.928 1051.03 315.333C1038.74 329.737 1031.97 346.335 1030.85 361.432ZM1024.86 360.987C1026.09 344.49 1033.44 326.709 1046.46 311.438C1059.49 296.167 1075.9 286.114 1091.99 282.302C1108.09 278.491 1124.11 280.895 1135.87 290.934C1147.64 300.973 1152.54 316.415 1151.31 332.909C1150.08 349.406 1142.73 367.186 1129.71 382.457C1116.68 397.728 1100.27 407.782 1084.18 411.593C1068.08 415.404 1052.06 413 1040.3 402.962C1028.53 392.923 1023.63 377.481 1024.86 360.987Z" fill="#121831"/>
<path fill-rule="evenodd" clip-rule="evenodd" d="M1044.1 401.588L980.741 475.848L977.698 473.252L1041.06 398.992L1044.1 401.588Z" fill="#121831"/>
<path d="M947.89 504.224L953.884 509.338C954.725 510.055 955.987 509.955 956.704 509.115L1000.34 457.97C1001.06 457.13 1000.96 455.867 1000.12 455.15L994.121 450.036C993.281 449.319 992.019 449.419 991.302 450.259L947.666 501.404C946.949 502.245 947.049 503.507 947.89 504.224Z" fill="#FF5F2F"/>
<path d="M1335 248.89V464H1192.42L1172.87 440.87C1159.72 448.31 1145.91 455.97 1131.19 464H1032.57C1065.27 439.53 1098.53 415.82 1132.3 392.86L1128.62 388.5L1221.06 325.97L1223.37 296.71L1216.93 294.61C1214.06 293.69 1212.26 290.84 1212.68 287.83L1215.75 265.72C1215.85 264.96 1216 264.22 1216.18 263.49C1216.18 263.49 1215.74 243.75 1238.26 245.37C1256.59 246.69 1263.15 264.71 1257.55 276.47C1259.34 276.71 1260.68 277.57 1260.85 278.78C1261.08 280.45 1258.98 282.12 1256.16 282.52C1255.76 282.58 1255.38 282.6 1255 282.6L1251.61 296.92C1251.61 296.92 1251.6 296.98 1251.59 297.01C1250.78 300.51 1254.76 303.17 1257.74 301.15L1335 248.89Z" fill="#121831"/>
<path fill-rule="evenodd" clip-rule="evenodd" d="M756.9 158.59H870.07V271.76H756.9V158.59ZM758.9 160.59V269.76H868.07V160.59H758.9Z" fill="#121831"/>
<path fill-rule="evenodd" clip-rule="evenodd" d="M869.07 243.97H757.9V241.97H869.07V243.97Z" fill="#121831"/>
<path fill-rule="evenodd" clip-rule="evenodd" d="M869.07 216.18H757.9V214.18H869.07V216.18Z" fill="#121831"/>
<path fill-rule="evenodd" clip-rule="evenodd" d="M869.07 188.39H757.9V186.39H869.07V188.39Z" fill="#121831"/>
<path fill-rule="evenodd" clip-rule="evenodd" d="M840.28 270.76V159.59H842.28V270.76H840.28Z" fill="#121831"/>
<path fill-rule="evenodd" clip-rule="evenodd" d="M812.49 270.76V159.59H814.49V270.76H812.49Z" fill="#121831"/>
<path fill-rule="evenodd" clip-rule="evenodd" d="M784.7 270.76V159.59H786.7V270.76H784.7Z" fill="#121831"/>
<path fill-rule="evenodd" clip-rule="evenodd" d="M784.7 158.59H897.87V271.76H784.7V158.59ZM786.7 160.59V269.76H895.87V160.59H786.7Z" fill="#121831"/>
<path fill-rule="evenodd" clip-rule="evenodd" d="M896.86 243.97H785.7V241.97H896.86V243.97Z" fill="#121831"/>
<path fill-rule="evenodd" clip-rule="evenodd" d="M896.86 216.18H785.7V214.18H896.86V216.18Z" fill="#121831"/>
<path fill-rule="evenodd" clip-rule="evenodd" d="M896.86 188.39H785.7V186.39H896.86V188.39Z" fill="#121831"/>
<path fill-rule="evenodd" clip-rule="evenodd" d="M868.07 270.76V159.59H870.07V270.76H868.07Z" fill="#121831"/>
<path fill-rule="evenodd" clip-rule="evenodd" d="M840.28 270.76V159.59H842.28V270.76H840.28Z" fill="#121831"/>
<path fill-rule="evenodd" clip-rule="evenodd" d="M812.49 270.76V159.59H814.49V270.76H812.49Z" fill="#121831"/>
<path fill-rule="evenodd" clip-rule="evenodd" d="M895.86 158.59H1009.03V271.76H895.86V158.59ZM897.86 160.59V269.76H1007.03V160.59H897.86Z" fill="#121831"/>
<path fill-rule="evenodd" clip-rule="evenodd" d="M1008.03 243.97H896.86V241.97H1008.03V243.97Z" fill="#121831"/>
<path fill-rule="evenodd" clip-rule="evenodd" d="M1008.03 216.18H896.86V214.18H1008.03V216.18Z" fill="#121831"/>
<path fill-rule="evenodd" clip-rule="evenodd" d="M1008.03 188.39H896.86V186.39H1008.03V188.39Z" fill="#121831"/>
<path fill-rule="evenodd" clip-rule="evenodd" d="M979.24 270.76V159.59H981.24V270.76H979.24Z" fill="#121831"/>
<path fill-rule="evenodd" clip-rule="evenodd" d="M951.44 270.76V159.59H953.44V270.76H951.44Z" fill="#121831"/>
<path fill-rule="evenodd" clip-rule="evenodd" d="M923.65 270.76V159.59H925.65V270.76H923.65Z" fill="#121831"/>
<path fill-rule="evenodd" clip-rule="evenodd" d="M1007.03 158.59H1120.2V271.76H1007.03V158.59ZM1009.03 160.59V269.76H1118.2V160.59H1009.03Z" fill="#121831"/>
<path fill-rule="evenodd" clip-rule="evenodd" d="M1119.19 243.97H1008.03V241.97H1119.19V243.97Z" fill="#121831"/>
<path fill-rule="evenodd" clip-rule="evenodd" d="M1119.19 216.18H1008.03V214.18H1119.19V216.18Z" fill="#121831"/>
<path fill-rule="evenodd" clip-rule="evenodd" d="M1119.19 188.39H1008.03V186.39H1119.19V188.39Z" fill="#121831"/>
<path fill-rule="evenodd" clip-rule="evenodd" d="M1090.4 270.76V159.59H1092.4V270.76H1090.4Z" fill="#121831"/>
<path fill-rule="evenodd" clip-rule="evenodd" d="M1062.61 270.76V159.59H1064.61V270.76H1062.61Z" fill="#121831"/>
<path fill-rule="evenodd" clip-rule="evenodd" d="M1034.82 270.76V159.59H1036.82V270.76H1034.82Z" fill="#121831"/>
<path fill-rule="evenodd" clip-rule="evenodd" d="M1118.19 158.59H1231.36V271.76H1118.19V158.59ZM1120.19 160.59V269.76H1229.36V160.59H1120.19Z" fill="#121831"/>
<path fill-rule="evenodd" clip-rule="evenodd" d="M1230.36 243.97H1119.19V241.97H1230.36V243.97Z" fill="#121831"/>
<path fill-rule="evenodd" clip-rule="evenodd" d="M1230.36 216.18H1119.19V214.18H1230.36V216.18Z" fill="#121831"/>
<path fill-rule="evenodd" clip-rule="evenodd" d="M1230.36 188.39H1119.19V186.39H1230.36V188.39Z" fill="#121831"/>
<path fill-rule="evenodd" clip-rule="evenodd" d="M1201.57 270.76V159.59H1203.57V270.76H1201.57Z" fill="#121831"/>
<path fill-rule="evenodd" clip-rule="evenodd" d="M1173.78 270.76V159.59H1175.78V270.76H1173.78Z" fill="#121831"/>
<path fill-rule="evenodd" clip-rule="evenodd" d="M1145.98 270.76V159.59H1147.98V270.76H1145.98Z" fill="#121831"/>
<path fill-rule="evenodd" clip-rule="evenodd" d="M1229.36 158.59H1342.53V271.76H1229.36V158.59ZM1231.36 160.59V269.76H1340.53V160.59H1231.36Z" fill="#121831"/>
<path fill-rule="evenodd" clip-rule="evenodd" d="M1341.53 243.97H1230.36V241.97H1341.53V243.97Z" fill="#121831"/>
<path fill-rule="evenodd" clip-rule="evenodd" d="M1341.53 216.18H1230.36V214.18H1341.53V216.18Z" fill="#121831"/>
<path fill-rule="evenodd" clip-rule="evenodd" d="M1341.53 188.39H1230.36V186.39H1341.53V188.39Z" fill="#121831"/>
<path fill-rule="evenodd" clip-rule="evenodd" d="M1312.73 270.76V159.59H1314.73V270.76H1312.73Z" fill="#121831"/>
<path fill-rule="evenodd" clip-rule="evenodd" d="M1284.94 270.76V159.59H1286.94V270.76H1284.94Z" fill="#121831"/>
<path fill-rule="evenodd" clip-rule="evenodd" d="M1257.15 270.76V159.59H1259.15V270.76H1257.15Z" fill="#121831"/>
<path fill-rule="evenodd" clip-rule="evenodd" d="M756.9 426.51V231.4H758.9V426.51H756.9Z" fill="#362C62"/>
<path fill-rule="evenodd" clip-rule="evenodd" d="M690.703 178.393L661.723 205.773L661.037 205.047L690.017 177.667L690.703 178.393Z" fill="#FF5F2F"/>
<path fill-rule="evenodd" clip-rule="evenodd" d="M680.93 187.56L674.41 205.58L673.47 205.24L679.99 187.22L680.93 187.56Z" fill="#FF5F2F"/>
<path d="M715.76 224.06C717.152 224.06 718.28 222.932 718.28 221.54C718.28 220.148 717.152 219.02 715.76 219.02C714.368 219.02 713.24 220.148 713.24 221.54C713.24 222.932 714.368 224.06 715.76 224.06Z" fill="#FF5F2F"/>
<path fill-rule="evenodd" clip-rule="evenodd" d="M697.47 228.618L686.09 231.178L685.87 230.202L697.25 227.642L697.47 228.618Z" fill="#041F49"/>
<path d="M1041.22 115.17C1040.48 116.73 1039.58 118.24 1038.52 119.69C1029.02 132.75 1010.73 135.64 997.67 126.14L1041.22 115.17Z" fill="#041F49"/>
<path d="M670.32 136.65C670.657 136.65 670.93 136.377 670.93 136.04C670.93 135.703 670.657 135.43 670.32 135.43C669.983 135.43 669.71 135.703 669.71 136.04C669.71 136.377 669.983 136.65 670.32 136.65Z" fill="#041F49"/>
<path d="M674.85 135.25C675.187 135.25 675.46 134.977 675.46 134.64C675.46 134.303 675.187 134.03 674.85 134.03C674.513 134.03 674.24 134.303 674.24 134.64C674.24 134.977 674.513 135.25 674.85 135.25Z" fill="#041F49"/>
<path d="M672.78 135.88L673.66 135.86C673.85 135.86 674.02 135.91 674.15 136.01C674.61 136.35 674.43 137.09 673.89 137.27L673.16 137.51L672.78 135.88Z" fill="#FF7756"/>
<path d="M672.37 139.33L675.25 137.8C675.25 137.8 674.98 139.93 672.37 139.33Z" fill="#041F49"/>
<path d="M672.37 139.33C672.37 139.33 673.4 137.69 675.25 137.8L672.37 139.33Z" fill="#FF7756"/>
</g>
</g>
<defs>
<clipPath id="clip0_1528_86543">
<rect width="1335" height="464" fill="white"/>
</clipPath>
</defs>
</svg>
