<svg width="1335" height="464" viewBox="0 0 1335 464" fill="none" xmlns="http://www.w3.org/2000/svg">
<g clip-path="url(#clip0_1528_81304)">
<mask id="mask0_1528_81304" style="mask-type:luminance" maskUnits="userSpaceOnUse" x="0" y="-5" width="1335" height="470">
<path d="M1334.71 -4.75903H0.299805V464.759H1334.71V-4.75903Z" fill="white"/>
</mask>
<g mask="url(#mask0_1528_81304)">
<path d="M1335.3 -4.75903H0.298828V464.759H1335.3V-4.75903Z" fill="#FEE599"/>
<path fill-rule="evenodd" clip-rule="evenodd" d="M279.36 224.96H467.77V244.543H279.36V224.96ZM281.12 226.741V242.762H466.01V226.741H281.12Z" fill="#FBC400"/>
<path fill-rule="evenodd" clip-rule="evenodd" d="M252.72 198H441.13V217.582H252.72V198ZM254.48 199.781V215.801H439.37V199.781H254.48Z" fill="#FBC400"/>
<path fill-rule="evenodd" clip-rule="evenodd" d="M226.08 171.039H414.49V190.622H226.08V171.039ZM227.84 172.821V188.841H412.73V172.821H227.84Z" fill="#FBC400"/>
<path fill-rule="evenodd" clip-rule="evenodd" d="M199.44 144.079H387.85V163.662H199.44V144.079ZM201.2 145.86V161.881H386.09V145.86H201.2Z" fill="#FBC400"/>
<path fill-rule="evenodd" clip-rule="evenodd" d="M172.81 117.119H361.22V136.702H172.81V117.119ZM174.57 118.9V134.92H359.46V118.9H174.57Z" fill="#FBC400"/>
<path fill-rule="evenodd" clip-rule="evenodd" d="M146.17 90.1586H334.58V109.741H146.17V90.1586ZM147.93 91.9398V107.96H332.82V91.9398H147.93Z" fill="#FBC400"/>
<path fill-rule="evenodd" clip-rule="evenodd" d="M119.53 63.2084H307.94V82.7911H119.53V63.2084ZM121.29 64.9896V81.0099H306.18V64.9896H121.29Z" fill="#FBC400"/>
<path fill-rule="evenodd" clip-rule="evenodd" d="M92.8896 36.2482H281.3V55.8308H92.8896V36.2482ZM94.6496 38.0293V54.0497H279.54V38.0293H94.6496Z" fill="#FBC400"/>
<path fill-rule="evenodd" clip-rule="evenodd" d="M66.25 9.28784H254.66V28.8705H66.25V9.28784ZM68.01 11.069V27.0893H252.9V11.069H68.01Z" fill="#FBC400"/>
<path d="M280.42 225.851H-177.57V243.652H280.42V225.851Z" fill="#FCD632"/>
<path fill-rule="evenodd" clip-rule="evenodd" d="M-178.45 224.96H281.3V244.543H-178.45V224.96ZM-176.69 226.741V242.762H279.54V226.741H-176.69Z" fill="#FBC400"/>
<path d="M253.78 198.89H-177.57V216.692H253.78V198.89Z" fill="#FCD632"/>
<path fill-rule="evenodd" clip-rule="evenodd" d="M-178.45 198H254.66V217.582H-178.45V198ZM-176.69 199.781V215.801H252.9V199.781H-176.69Z" fill="#FBC400"/>
<path d="M227.14 171.93H-177.57V189.732H227.14V171.93Z" fill="#FCD632"/>
<path fill-rule="evenodd" clip-rule="evenodd" d="M-178.45 171.039H228.02V190.622H-178.45V171.039ZM-176.69 172.821V188.841H226.26V172.821H-176.69Z" fill="#FBC400"/>
<path d="M200.51 144.97H-177.57V162.771H200.51V144.97Z" fill="#FCD632"/>
<path fill-rule="evenodd" clip-rule="evenodd" d="M-178.45 144.079H201.39V163.662H-178.45V144.079ZM-176.69 145.86V161.881H199.63V145.86H-176.69Z" fill="#FBC400"/>
<path d="M173.87 118.01H-177.57V135.811H173.87V118.01Z" fill="#FCD632"/>
<path fill-rule="evenodd" clip-rule="evenodd" d="M-178.45 117.119H174.75V136.702H-178.45V117.119ZM-176.69 118.9V134.92H172.99V118.9H-176.69Z" fill="#FBC400"/>
<path d="M147.23 91.0492H-177.57V108.851H147.23V91.0492Z" fill="#FCD632"/>
<path fill-rule="evenodd" clip-rule="evenodd" d="M-178.45 90.1586H148.11V109.741H-178.45V90.1586ZM-176.69 91.9398V107.96H146.35V91.9398H-176.69Z" fill="#FBC400"/>
<path d="M120.59 64.099H-177.57V81.9005H120.59V64.099Z" fill="#FCD632"/>
<path fill-rule="evenodd" clip-rule="evenodd" d="M-178.45 63.2084H121.47V82.7911H-178.45V63.2084ZM-176.69 64.9896V81.0099H119.71V64.9896H-176.69Z" fill="#FBC400"/>
<path d="M93.9497 37.1387H-177.57V54.9402H93.9497V37.1387Z" fill="#FCD632"/>
<path fill-rule="evenodd" clip-rule="evenodd" d="M-178.45 36.2482H94.8298V55.8308H-178.45V36.2482ZM-176.69 38.0293V54.0497H93.0698V38.0293H-176.69Z" fill="#FBC400"/>
<path d="M67.3097 10.1784H-177.57V27.9799H67.3097V10.1784Z" fill="#FCD632"/>
<path fill-rule="evenodd" clip-rule="evenodd" d="M-178.45 9.28784H68.1898V28.8705H-178.45V9.28784ZM-176.69 11.069V27.0893H66.4298V11.069H-176.69Z" fill="#FBC400"/>
<path fill-rule="evenodd" clip-rule="evenodd" d="M252.9 10.1784H254.66V27.0792H281.3V54.0395H307.94V80.9998H334.58V107.96H361.21V134.92H387.85V161.881H414.49V188.841H441.13V215.791H467.77V243.642H466.01V217.572H439.37V190.622H412.73V163.662H386.09V136.702H359.45V109.741H332.82V82.7809H306.18V55.8206H279.54V28.8604H252.9V10.1784Z" fill="#FBC400"/>
<path d="M1372.86 243.642H-16.8003V402.631H1372.86V243.642Z" fill="#B4AFD7"/>
<path fill-rule="evenodd" clip-rule="evenodd" d="M-17.8003 242.63H1373.86V403.643H-17.8003V242.63ZM-15.8003 244.654V401.619H1371.86V244.654H-15.8003Z" fill="#FFF8EB"/>
<path d="M-26.2402 251.718L1335.2 252.922L1334.7 464.789L-14.0402 464.921L-26.2402 251.718Z" fill="#B4AFD7"/>
<path d="M1334.97 483.704H-68.5303L746.97 252.963H1334.97V483.704Z" fill="#8E88C3"/>
<path fill-rule="evenodd" clip-rule="evenodd" d="M746.833 251.951H1335.97V484.716H-75.8208L746.833 251.951ZM747.107 253.975L-61.2394 482.692H1333.97V253.975H747.107Z" fill="#4842B2"/>
<path fill-rule="evenodd" clip-rule="evenodd" d="M1400.47 329.097H472.58V327.073H1400.47V329.097Z" fill="#4842B2"/>
<path fill-rule="evenodd" clip-rule="evenodd" d="M965.108 251.951H1116.47V253.975H965.853C937.189 279.396 954.91 327.346 993.16 327.346H1074.08V329.371H993.16C952.932 329.371 934.365 278.777 964.827 252.196L965.108 251.951Z" fill="#4842B2"/>
<path d="M509.79 198.89L514.04 194.255C514.41 193.851 514.28 193.203 513.79 192.97L508.3 190.43L509.79 198.89Z" fill="#905B27"/>
<path d="M778.69 65.7587L777.1 60.4153C775.58 55.3147 778.38 49.9206 783.4 48.2912C787.97 46.8035 792.88 48.9592 795.03 53.3007C799.14 61.6094 807.52 74.6949 822.17 82.6798C822.17 82.6798 811.87 96.2206 798.01 92.9923L778.68 65.7587H778.69Z" fill="#5D1000"/>
<mask id="mask1_1528_81304" style="mask-type:luminance" maskUnits="userSpaceOnUse" x="684" y="262" width="237" height="209">
<path d="M684.51 470.001L722.88 362.423L732.18 262.759H840.04L890.32 346.848C894.29 353.487 897.15 360.753 898.77 368.344L920.54 469.991H893.97L871.62 404.25C869.86 399.089 869.08 393.634 869.32 388.179L869.75 378.241L793.15 304.677L766.58 366.37L717.34 469.991H684.51V470.001Z" fill="white"/>
</mask>
<g mask="url(#mask1_1528_81304)">
<path d="M684.51 470.001L722.88 362.423L744.75 262.759H840.04L890.32 346.848C894.29 353.487 897.15 360.753 898.77 368.344L920.54 469.991H893.97L871.62 404.25C869.86 399.089 869.08 393.634 869.32 388.179L869.75 378.241L793.15 304.677L766.58 366.37L717.34 469.991H684.51V470.001Z" fill="#FFB794"/>
<path d="M837.53 362.423L873.88 309.434L849.26 276.209L716.39 316.943L729.97 339.693L778.52 366.38L837.53 362.423Z" fill="#FF925A"/>
</g>
<path d="M740.09 252.396L719.81 343.043L779.94 348.093L793.54 309.039L829.9 346.403L881.22 310.557L835.97 246.891L740.09 252.396Z" fill="#FEE599"/>
<path d="M748.6 120.388C748.6 120.388 761.86 145.638 784.86 152.722C784.86 152.722 805.97 133.554 822.07 120.388H748.6Z" fill="#FFB066"/>
<path d="M797.63 122.27L769.31 121.177L771.53 103.679L772.64 94.9758H790.9L791.24 96.3319L797.16 120.378H797.18L797.63 122.27Z" fill="#FFB066"/>
<path d="M797.16 120.378L785.32 110.682C781.27 107.373 776.57 104.985 771.53 103.679L772.64 94.9758L791.24 96.3319L797.16 120.378Z" fill="#FF925A"/>
<path d="M741.97 120.388V204.274L740.09 252.396L842.08 251.688L822.07 120.388H804.36L785.33 146.215L761.23 120.388H741.97Z" fill="#FCD632"/>
<mask id="mask2_1528_81304" style="mask-type:luminance" maskUnits="userSpaceOnUse" x="799" y="214" width="77" height="78">
<path d="M837.5 291.683C858.63 291.683 875.76 274.347 875.76 252.963C875.76 231.578 858.63 214.243 837.5 214.243C816.369 214.243 799.24 231.578 799.24 252.963C799.24 274.347 816.369 291.683 837.5 291.683Z" fill="white"/>
</mask>
<g mask="url(#mask2_1528_81304)">
<path d="M837.5 291.683C858.63 291.683 875.76 274.347 875.76 252.963C875.76 231.578 858.63 214.243 837.5 214.243C816.369 214.243 799.24 231.578 799.24 252.963C799.24 274.347 816.369 291.683 837.5 291.683Z" fill="#86491C"/>
<path d="M868.84 284.153C907.826 284.153 939.43 252.169 939.43 212.715C939.43 173.26 907.826 141.276 868.84 141.276C829.854 141.276 798.25 173.26 798.25 212.715C798.25 252.169 829.854 284.153 868.84 284.153Z" fill="#FF5817"/>
<path fill-rule="evenodd" clip-rule="evenodd" d="M801.353 255.635C805.054 264.26 812.314 272.646 822.283 278.7C832.251 284.755 842.979 287.294 852.241 286.542C861.505 285.791 869.228 281.763 873.379 274.763C877.531 267.762 877.41 258.971 873.707 250.344C870.006 241.718 862.746 233.332 852.777 227.278C842.809 221.223 832.081 218.684 822.819 219.436C813.555 220.187 805.832 224.215 801.681 231.215C797.529 238.216 797.65 247.007 801.353 255.635ZM799.738 256.344C795.875 247.343 795.652 237.92 800.172 230.299C804.691 222.678 813.012 218.444 822.678 217.66C832.347 216.876 843.436 219.527 853.683 225.75C863.93 231.974 871.458 240.631 875.322 249.634C879.185 258.635 879.408 268.058 874.889 275.679C870.369 283.301 862.048 287.534 852.382 288.318C842.714 289.102 831.624 286.451 821.377 280.228C811.13 274.004 803.602 265.347 799.738 256.344Z" fill="#362C62"/>
<path fill-rule="evenodd" clip-rule="evenodd" d="M863.354 211.088L816.404 290.269L814.895 289.352L861.845 210.172L863.354 211.088Z" fill="#362C62"/>
<path fill-rule="evenodd" clip-rule="evenodd" d="M875.497 278.602L797.257 231.087L798.162 229.56L876.402 277.075L875.497 278.602Z" fill="#362C62"/>
</g>
<path d="M684.51 470.001L701.64 421.981H740.09L717.34 470.001H684.51Z" fill="#FFF8EB"/>
<path d="M875.76 416.415L907.67 409.877L920.55 470.001H893.97L875.76 416.415Z" fill="#FFF8EB"/>
<path d="M771.799 78.4192C772.529 78.4192 773.12 77.8211 773.12 77.0833C773.12 76.3455 772.529 75.7474 771.799 75.7474C771.07 75.7474 770.479 76.3455 770.479 77.0833C770.479 77.8211 771.07 78.4192 771.799 78.4192Z" fill="#212121"/>
<path d="M782.77 67.5905C786.017 67.5905 788.65 65.7555 788.65 63.4918C788.65 61.2282 786.017 59.3931 782.77 59.3931C779.522 59.3931 776.89 61.2282 776.89 63.4918C776.89 65.7555 779.522 67.5905 782.77 67.5905Z" fill="#FBC400"/>
<path d="M800.58 78.9454V83.8841C800.58 90.9986 796.63 97.7488 790.02 100.815C787.87 101.827 785.44 102.495 782.79 102.495C780.14 102.495 777.73 101.827 775.56 100.815C768.97 97.7488 765 90.9986 765 83.8841V79.5526C765 70.3331 772.16 62.2976 781.61 61.6904C791.96 61.0427 800.58 69.0276 800.58 78.9454Z" fill="#FFB066"/>
<path d="M766.16 81.5261L764.21 80.6557C763.03 80.1295 761.65 80.7873 761.31 82.0523C761.06 82.9732 761.44 83.9549 762.25 84.4508L766.16 86.8695V81.5261Z" fill="#FFB066"/>
<path d="M799.43 81.5261L801.38 80.6557C802.56 80.1295 803.94 80.7873 804.28 82.0523C804.53 82.9732 804.15 83.9549 803.34 84.4508L799.43 86.8695V81.5261Z" fill="#FFB066"/>
<path fill-rule="evenodd" clip-rule="evenodd" d="M773.538 73.6232L776.468 75.2728L776.468 75.2728C780.917 77.7777 783.67 82.5182 783.67 87.6589H781.91C781.91 83.1652 779.503 79.0202 775.612 76.8293C775.612 76.8293 775.612 76.8293 775.612 76.8293L772.682 75.1797L773.538 73.6232Z" fill="#FF925A"/>
<path d="M790.37 81.0302C790.37 81.9916 789.6 81.7588 788.65 81.7588C787.7 81.7588 786.93 81.9916 786.93 81.0302C786.93 80.0687 787.7 79.2895 788.65 79.2895C789.6 79.2895 790.37 80.0687 790.37 81.0302Z" fill="#5D1000"/>
<path d="M777.37 81.0302C777.37 81.9916 776.6 81.7588 775.65 81.7588C774.7 81.7588 773.93 81.9916 773.93 81.0302C773.93 80.0687 774.7 79.2895 775.65 79.2895C776.6 79.2895 777.37 80.0687 777.37 81.0302Z" fill="#5D1000"/>
<path d="M777.96 90.5229L782.8 89.3389L787.59 90.5229C787.59 90.5229 785.34 92.9923 782.8 92.9923C780.26 92.9923 777.96 90.5229 777.96 90.5229Z" fill="#FF7951"/>
<path d="M777.96 90.523C777.96 90.523 782.89 91.2111 787.58 90.523C787.58 90.523 783.18 86.9606 777.96 90.523Z" fill="#FF925A"/>
<path fill-rule="evenodd" clip-rule="evenodd" d="M791.837 79.3019C790.081 77.5244 787.238 77.5244 785.482 79.3019L784.237 78.0424C786.681 75.5694 790.638 75.5694 793.082 78.0424L791.837 79.3019Z" fill="#FF925A"/>
<path d="M800.58 79.6538V81.0504L799.43 81.5362C799.43 81.5362 797.16 74.4216 797.44 77.0934C797.48 77.4273 797.49 77.7512 797.46 78.075C797.3 80.2711 795.89 81.9309 795.89 81.9309C795.89 75.879 792.1 73.8448 788.61 73.2578C785.21 72.7012 782.78 69.655 782.78 66.1736V63.5019C782.78 68.6733 780.05 73.44 775.62 76.0206L766.15 81.5362C765.73 81.354 765.34 81.1415 765 80.8784V80.2914C765 70.6974 772.16 62.328 781.61 61.7005C791.96 61.0225 800.58 65.9712 800.58 79.6639V79.6538Z" fill="#FF5F2F"/>
<path d="M764.24 86.8695C764.803 86.8695 765.26 86.4074 765.26 85.8373C765.26 85.2671 764.803 84.805 764.24 84.805C763.676 84.805 763.22 85.2671 763.22 85.8373C763.22 86.4074 763.676 86.8695 764.24 86.8695Z" fill="#FBC400"/>
<path d="M801.35 86.8695C801.913 86.8695 802.37 86.4074 802.37 85.8373C802.37 85.2671 801.913 84.805 801.35 84.805C800.786 84.805 800.33 85.2671 800.33 85.8373C800.33 86.4074 800.786 86.8695 801.35 86.8695Z" fill="#FBC400"/>
<path fill-rule="evenodd" clip-rule="evenodd" d="M735.53 433.619H698.21V429.571H735.53V433.619Z" fill="#382C65"/>
<path d="M1111.72 336.566L1128.56 262.759H1160.89L1181.53 336.566H1111.72Z" fill="#DF7C33"/>
<path d="M1376.91 421.242V499.886H1347.97L1301.41 442.191L1298.74 438.882L1309.51 499.886H1080.65L1060.3 416.05L1006.02 477.612C997.65 487.104 986.24 493.298 973.79 495.11L878.59 508.944H826.21L935.69 441.584L997.53 351.342C1011.13 331.486 1032.83 318.876 1056.63 316.973L1104.17 313.198L1114.04 298.079H1192.23L1200.79 312.642L1265.51 318.987C1291.93 321.568 1315.96 335.554 1331.47 357.353L1376.91 421.242Z" fill="#265D91"/>
<path d="M1316.66 499.886H1080.65L1060.3 416.05C1062.63 400.647 1063.8 385.082 1063.8 369.518C1063.8 362.373 1063.55 355.228 1063.06 348.093L1060.67 313.421L1096.4 311.276L1114.55 348.923C1123.48 367.443 1142.99 378.231 1163.21 375.843C1165.38 375.59 1167.49 375.195 1169.54 374.669C1191.2 369.133 1205.66 349.237 1205.66 327.63C1205.66 324.402 1205.34 321.133 1204.67 317.874C1204.03 314.777 1203.08 311.691 1201.8 308.634L1200.49 305.527L1225.26 312.682L1260.19 322.772L1270.64 325.788L1271.7 329.786L1300.45 438.568L1316.66 499.886Z" fill="#FF5817"/>
<path fill-rule="evenodd" clip-rule="evenodd" d="M1065.8 369.518C1065.8 385.185 1064.62 400.852 1062.28 416.357L1058.32 415.744C1060.64 400.442 1061.8 384.98 1061.8 369.518H1065.8Z" fill="#382C65"/>
<path d="M1300.45 438.568C1289.56 437.627 1277.82 433.083 1270.4 427.587C1225 393.988 1169.33 409.563 1169.33 379.486C1169.33 377.897 1169.4 376.288 1169.54 374.669C1191.2 369.133 1205.66 349.237 1205.66 327.63C1205.66 324.402 1205.34 321.133 1204.67 317.874C1210.7 314.565 1217.22 312.662 1223.99 312.662C1224.41 312.662 1224.83 312.662 1225.26 312.682C1236.81 312.935 1248.85 316.741 1260.19 322.772C1264.13 324.857 1267.98 327.215 1271.7 329.785L1300.45 438.568Z" fill="#86491C"/>
<path d="M1136 277.838L1103.73 271.958C1092.1 269.843 1083.7 259.511 1083.89 247.559L1084.07 236.072L1072.17 230.354C1070.54 229.565 1070.3 227.308 1071.74 226.205L1079.21 220.436C1082.7 217.734 1085.59 214.324 1087.68 210.407L1111.1 166.546L1189.49 185.815C1213.35 201.218 1191 262.567 1191 262.567L1136.01 277.859L1136 277.838Z" fill="#DF7C33"/>
<path d="M1111.09 166.536L1105.16 220.021L1119.29 212.411C1126.83 208.353 1135.8 214.455 1134.93 223.058C1134.43 227.986 1130.68 231.943 1125.83 232.652L1110.42 234.898L1111.5 237.519C1121.58 261.939 1139.73 282.048 1162.83 294.425C1162.83 294.425 1240.6 268.649 1222.16 216.591C1203.72 164.532 1144.59 144.079 1111.08 166.546L1111.09 166.536Z" fill="#313030"/>
<path d="M1162.84 294.425C1151.75 344.045 1189.35 391.873 1239.6 390.598C1249.37 390.345 1259.36 388.706 1269.25 385.113C1328.04 363.79 1271.2 266.736 1162.83 294.425H1162.84Z" fill="#313030"/>
<path d="M1168.56 285.989L1159.72 290.311C1157.23 291.531 1156.18 294.568 1157.38 297.095C1158.59 299.622 1161.59 300.68 1164.09 299.46L1172.93 295.138C1175.43 293.918 1176.47 290.88 1175.27 288.354C1174.06 285.827 1171.06 284.768 1168.56 285.989Z" fill="white"/>
<path d="M1084 240.555L1093.4 238.511C1093.4 238.511 1089.04 245.494 1083.92 245.939L1084 240.555Z" fill="#7C490E"/>
<path d="M1093.39 238.511L1084.03 238.309L1083.97 242.397L1093.39 238.511Z" fill="#4E2700"/>
<path d="M1092.69 211.174L1092.68 211.178C1091.78 211.504 1091.31 212.506 1091.64 213.416L1092.15 214.874C1092.47 215.784 1093.46 216.258 1094.36 215.931L1094.37 215.928C1095.27 215.602 1095.74 214.599 1095.42 213.689L1094.9 212.232C1094.58 211.321 1093.59 210.848 1092.69 211.174Z" fill="#342D2A"/>
<path d="M729.97 485.728H671.97L568 401.943L523.72 366.259L520.92 377.857L497.7 473.867L497.35 475.314H306.83L307.03 473.867L329.83 382.927L360.34 337.629L319.71 295.002L303.49 274.144L294.74 262.901C279.99 243.946 276.58 218.058 286.84 196.279C287.15 195.622 287.48 194.954 287.81 194.306L342.78 87.3047C347.59 77.9131 349.1 67.1654 347.06 56.7922L343.45 38.5151C343.13 36.9262 344.04 35.3576 345.56 34.8718C345.88 34.7605 346.2 34.7301 346.49 34.7301C347.8 34.7301 349 35.5498 349.46 36.8553L353.74 49.3741L348.01 22.2923C347.61 20.329 348.75 18.3859 350.66 17.8293C351.01 17.7281 351.36 17.6775 351.71 17.6775C353.37 17.6775 354.89 18.7806 355.34 20.4707L362.52 46.7023L356.98 12.749C356.63 10.6844 357.99 8.70086 360.02 8.28593C360.26 8.23533 360.51 8.21509 360.77 8.21509C362.54 8.21509 364.12 9.44976 364.53 11.2512L370.12 36.4809C370.4 37.7257 372.2 37.5132 372.2 36.2481V18.5276C372.2 16.119 374.21 14.2265 376.59 14.4087C378.61 14.5504 380.22 16.1898 380.36 18.2442L382.4 48.8377C382.56 51.388 385.2 52.9566 387.48 51.8738L394.42 48.5746C396.03 47.8054 397.93 48.1799 399.15 49.4854C399.91 50.2849 400.28 51.3172 400.28 52.3494C400.28 53.6246 399.69 54.8997 398.58 55.7296L388.11 63.3602C380.29 69.0883 374.72 77.397 372.35 86.8594L342.3 207.472L371.26 238.734H371.28L391.59 260.664L407.4 263.66L408.39 263.842C417.38 265.542 426.18 261.555 431.05 254.278C432.42 252.234 433.48 249.937 434.14 247.427L439.99 225.365L505.74 164.957L513.36 211.986C514.63 219.829 510.43 227.551 503.2 230.678L498.74 232.591C495.24 234.099 492.52 237.013 491.23 240.636L483.92 261.221C483.34 262.87 483.66 264.561 484.56 265.846C485.45 267.121 486.91 267.981 488.63 267.981H527.83L535.73 267.931C563.01 267.708 588.66 281.087 604.32 303.716L616.7 321.659L729.97 485.728Z" fill="#BF803D"/>
<path d="M439.99 225.365H465.92C478 225.365 488.25 216.368 489.95 204.254L492.85 183.548L500.28 196.209L505.75 164.967C505.75 164.967 469.41 134.384 433.06 159.563C396.72 184.742 439.99 225.375 439.99 225.375V225.365Z" fill="#332112"/>
<path d="M436.1 163.986C417.51 174.308 391.44 162.407 381.24 143.593C371.04 124.78 377.84 101.159 396.43 90.8366C415.02 80.514 438.36 87.3958 448.56 106.209C458.76 125.023 454.69 153.673 436.1 163.996V163.986Z" fill="#332112"/>
<path d="M616.7 321.659L568 401.943L560.2 414.805L523.72 366.259L346.93 353.366L307.06 308.806L319.71 295.002L371.26 238.734H371.28L391.59 260.664L407.4 263.66L408.39 263.842C417.38 265.542 422.19 263.812 427.06 256.535L485.94 262.951C486.83 264.227 486.91 267.981 488.63 267.981H527.83L535.73 267.931C563.01 267.708 588.66 281.087 604.32 303.716L616.7 321.659Z" fill="white"/>
<path d="M253.78 490.049C253.78 490.049 335.06 398.542 391.58 260.664L409.65 263.508C409.65 263.508 393.65 315.01 439.96 315.233C466.88 315.364 489.06 292.422 492.29 267.506H521.96C521.96 267.506 505.66 322.469 523.71 366.249L505.74 490.039H253.77L253.78 490.049Z" fill="#FCD632"/>
<path fill-rule="evenodd" clip-rule="evenodd" d="M510.25 268.201C510.25 268.2 510.25 268.2 512.18 268.73C514.11 269.261 514.11 269.26 514.11 269.26L514.109 269.267L514.102 269.293L514.072 269.404C514.046 269.505 514.007 269.657 513.957 269.86C513.855 270.264 513.708 270.868 513.527 271.654C513.164 273.228 512.664 275.531 512.123 278.434C511.041 284.242 509.795 292.437 509.143 301.969C507.835 321.078 508.929 345.359 518.325 366.564L514.675 368.22C504.891 346.141 503.825 321.091 505.152 301.69C505.818 291.967 507.088 283.612 508.192 277.684C508.745 274.719 509.257 272.358 509.631 270.734C509.819 269.922 509.972 269.293 510.079 268.866C510.133 268.652 510.175 268.488 510.204 268.376C510.218 268.32 510.229 268.278 510.237 268.248L510.246 268.214L510.25 268.201Z" fill="#EFA400"/>
<path d="M1115.97 23.9116H966.18V126.713H1115.97V23.9116Z" fill="#FCD632"/>
<path fill-rule="evenodd" clip-rule="evenodd" d="M1113.97 126.713V23.9116H1117.97V126.713H1113.97Z" fill="#FBC400"/>
<path fill-rule="evenodd" clip-rule="evenodd" d="M968.18 23.9116V126.713H964.18V23.9116H968.18Z" fill="#FBC400"/>
<path d="M1073.76 23.8002H1008.38V126.47H1073.76V23.8002Z" fill="#FCD632"/>
<path d="M1073.76 23.8002H1008.38V48.8984H1073.76V23.8002Z" fill="#FCD632"/>
<path fill-rule="evenodd" clip-rule="evenodd" d="M1071.76 126.48V23.8002H1075.76V126.48H1071.76Z" fill="#FBC400"/>
<path fill-rule="evenodd" clip-rule="evenodd" d="M1010.38 23.8002V126.48H1006.38V23.8002H1010.38Z" fill="#FBC400"/>
<path fill-rule="evenodd" clip-rule="evenodd" d="M1010.38 46.8744V23.8002H1006.38V48.8984C1006.38 50.0163 1007.28 50.9225 1008.38 50.9225H1073.76C1074.86 50.9225 1075.76 50.0163 1075.76 48.8984V23.8002H1071.76V46.8744H1010.38Z" fill="#FBC400"/>
<path d="M1070.22 110.156H1011.97C1010.57 110.156 1009.44 111.3 1009.44 112.717V166.445C1009.44 167.012 1009.89 167.467 1010.45 167.467C1011.01 167.467 1011.46 167.012 1011.46 166.445C1011.46 165.028 1012.59 163.884 1013.99 163.884H1017.14C1018.54 163.884 1019.67 165.028 1019.67 166.445V169.896C1019.67 170.463 1020.12 170.918 1020.68 170.918C1021.24 170.918 1021.69 170.463 1021.69 169.896V166.445C1021.69 165.028 1022.82 163.884 1024.22 163.884H1027.37C1028.77 163.884 1029.9 165.028 1029.9 166.445V174.49C1029.9 175.057 1030.35 175.513 1030.91 175.513C1031.47 175.513 1031.92 175.057 1031.92 174.49V166.445C1031.92 165.028 1033.05 163.884 1034.45 163.884H1037.6C1039 163.884 1040.13 165.028 1040.13 166.445V178.508C1040.13 179.075 1040.58 179.53 1041.14 179.53C1041.7 179.53 1042.15 179.075 1042.15 178.508V166.445C1042.15 165.028 1043.28 163.884 1044.68 163.884H1047.83C1049.23 163.884 1050.36 165.028 1050.36 166.445V174.49C1050.36 175.057 1050.81 175.513 1051.37 175.513C1051.93 175.513 1052.38 175.057 1052.38 174.49V166.445C1052.38 165.028 1053.51 163.884 1054.91 163.884H1058.06C1059.46 163.884 1060.59 165.028 1060.59 166.445V169.896C1060.59 170.463 1061.04 170.918 1061.6 170.918C1062.16 170.918 1062.61 170.463 1062.61 169.896V166.445C1062.61 165.028 1063.74 163.884 1065.14 163.884H1068.29C1069.69 163.884 1070.82 165.028 1070.82 166.445C1070.82 167.012 1071.27 167.467 1071.83 167.467C1072.39 167.467 1072.84 167.012 1072.84 166.445V112.717C1072.84 111.3 1071.71 110.156 1070.31 110.156H1070.22ZM1068.21 130.832H1065.06C1063.66 130.832 1062.53 129.688 1062.53 128.271V125.084C1062.53 123.667 1063.66 122.523 1065.06 122.523H1068.21C1069.61 122.523 1070.74 123.667 1070.74 125.084V128.271C1070.74 129.688 1069.61 130.832 1068.21 130.832ZM1068.21 141.175H1065.06C1063.66 141.175 1062.53 140.031 1062.53 138.614V135.426C1062.53 134.01 1063.66 132.866 1065.06 132.866H1068.21C1069.61 132.866 1070.74 134.01 1070.74 135.426V138.614C1070.74 140.031 1069.61 141.175 1068.21 141.175ZM1013.98 132.876H1017.13C1018.53 132.876 1019.66 134.02 1019.66 135.437V138.624C1019.66 140.041 1018.53 141.185 1017.13 141.185H1013.98C1012.58 141.185 1011.45 140.041 1011.45 138.624V135.437C1011.45 134.02 1012.58 132.876 1013.98 132.876ZM1024.2 132.876H1027.35C1028.75 132.876 1029.88 134.02 1029.88 135.437V138.624C1029.88 140.041 1028.75 141.185 1027.35 141.185H1024.2C1022.8 141.185 1021.67 140.041 1021.67 138.624V135.437C1021.67 134.02 1022.8 132.876 1024.2 132.876ZM1034.41 132.876H1037.56C1038.96 132.876 1040.09 134.02 1040.09 135.437V138.624C1040.09 140.041 1038.96 141.185 1037.56 141.185H1034.41C1033.01 141.185 1031.88 140.041 1031.88 138.624V135.437C1031.88 134.02 1033.01 132.876 1034.41 132.876ZM1044.63 132.876H1047.78C1049.18 132.876 1050.31 134.02 1050.31 135.437V138.624C1050.31 140.041 1049.18 141.185 1047.78 141.185H1044.63C1043.23 141.185 1042.1 140.041 1042.1 138.624V135.437C1042.1 134.02 1043.23 132.876 1044.63 132.876ZM1054.85 132.876H1058C1059.4 132.876 1060.53 134.02 1060.53 135.437V138.624C1060.53 140.041 1059.4 141.185 1058 141.185H1054.85C1053.45 141.185 1052.32 140.041 1052.32 138.624V135.437C1052.32 134.02 1053.45 132.876 1054.85 132.876ZM1058 130.842H1054.85C1053.45 130.842 1052.32 129.698 1052.32 128.282V125.094C1052.32 123.677 1053.45 122.533 1054.85 122.533H1058C1059.4 122.533 1060.53 123.677 1060.53 125.094V128.282C1060.53 129.698 1059.4 130.842 1058 130.842ZM1047.78 130.842H1044.63C1043.23 130.842 1042.1 129.698 1042.1 128.282V125.094C1042.1 123.677 1043.23 122.533 1044.63 122.533H1047.78C1049.18 122.533 1050.31 123.677 1050.31 125.094V128.282C1050.31 129.698 1049.18 130.842 1047.78 130.842ZM1037.56 130.842H1034.41C1033.01 130.842 1031.88 129.698 1031.88 128.282V125.094C1031.88 123.677 1033.01 122.533 1034.41 122.533H1037.56C1038.96 122.533 1040.09 123.677 1040.09 125.094V128.282C1040.09 129.698 1038.96 130.842 1037.56 130.842ZM1027.34 130.842H1024.19C1022.79 130.842 1021.66 129.698 1021.66 128.282V125.094C1021.66 123.677 1022.79 122.533 1024.19 122.533H1027.34C1028.74 122.533 1029.87 123.677 1029.87 125.094V128.282C1029.87 129.698 1028.74 130.842 1027.34 130.842ZM1017.13 130.842H1013.98C1012.58 130.842 1011.45 129.698 1011.45 128.282V125.094C1011.45 123.677 1012.58 122.533 1013.98 122.533H1017.13C1018.53 122.533 1019.66 123.677 1019.66 125.094V128.282C1019.66 129.698 1018.53 130.842 1017.13 130.842ZM1013.98 143.219H1017.13C1018.53 143.219 1019.66 144.363 1019.66 145.779V148.967C1019.66 150.384 1018.53 151.528 1017.13 151.528H1013.98C1012.58 151.528 1011.45 150.384 1011.45 148.967V145.779C1011.45 144.363 1012.58 143.219 1013.98 143.219ZM1024.2 143.219H1027.35C1028.75 143.219 1029.88 144.363 1029.88 145.779V148.967C1029.88 150.384 1028.75 151.528 1027.35 151.528H1024.2C1022.8 151.528 1021.67 150.384 1021.67 148.967V145.779C1021.67 144.363 1022.8 143.219 1024.2 143.219ZM1034.41 143.219H1037.56C1038.96 143.219 1040.09 144.363 1040.09 145.779V148.967C1040.09 150.384 1038.96 151.528 1037.56 151.528H1034.41C1033.01 151.528 1031.88 150.384 1031.88 148.967V145.779C1031.88 144.363 1033.01 143.219 1034.41 143.219ZM1044.63 143.219H1047.78C1049.18 143.219 1050.31 144.363 1050.31 145.779V148.967C1050.31 150.384 1049.18 151.528 1047.78 151.528H1044.63C1043.23 151.528 1042.1 150.384 1042.1 148.967V145.779C1042.1 144.363 1043.23 143.219 1044.63 143.219ZM1054.85 143.219H1058C1059.4 143.219 1060.53 144.363 1060.53 145.779V148.967C1060.53 150.384 1059.4 151.528 1058 151.528H1054.85C1053.45 151.528 1052.32 150.384 1052.32 148.967V145.779C1052.32 144.363 1053.45 143.219 1054.85 143.219ZM1065.07 143.219H1068.22C1069.62 143.219 1070.75 144.363 1070.75 145.779V148.967C1070.75 150.384 1069.62 151.528 1068.22 151.528H1065.07C1063.67 151.528 1062.54 150.384 1062.54 148.967V145.779C1062.54 144.363 1063.67 143.219 1065.07 143.219ZM1068.22 112.2C1069.62 112.2 1070.75 113.344 1070.75 114.761V117.949C1070.75 119.366 1069.62 120.509 1068.22 120.509H1065.07C1063.67 120.509 1062.54 119.366 1062.54 117.949V114.761C1062.54 113.344 1063.67 112.2 1065.07 112.2H1068.22ZM1060.53 114.761V117.949C1060.53 119.366 1059.4 120.509 1058 120.509H1054.85C1053.45 120.509 1052.32 119.366 1052.32 117.949V114.761C1052.32 113.344 1053.45 112.2 1054.85 112.2H1058C1059.4 112.2 1060.53 113.344 1060.53 114.761ZM1050.31 114.761V117.949C1050.31 119.366 1049.18 120.509 1047.78 120.509H1044.63C1043.23 120.509 1042.1 119.366 1042.1 117.949V114.761C1042.1 113.344 1043.23 112.2 1044.63 112.2H1047.78C1049.18 112.2 1050.31 113.344 1050.31 114.761ZM1040.09 114.761V117.949C1040.09 119.366 1038.96 120.509 1037.56 120.509H1034.41C1033.01 120.509 1031.88 119.366 1031.88 117.949V114.761C1031.88 113.344 1033.01 112.2 1034.41 112.2H1037.56C1038.96 112.2 1040.09 113.344 1040.09 114.761ZM1029.87 114.761V117.949C1029.87 119.366 1028.74 120.509 1027.34 120.509H1024.19C1022.79 120.509 1021.66 119.366 1021.66 117.949V114.761C1021.66 113.344 1022.79 112.2 1024.19 112.2H1027.34C1028.74 112.2 1029.87 113.344 1029.87 114.761ZM1011.45 114.761C1011.45 113.344 1012.58 112.2 1013.98 112.2H1017.13C1018.53 112.2 1019.66 113.344 1019.66 114.761V117.949C1019.66 119.366 1018.53 120.509 1017.13 120.509H1013.98C1012.58 120.509 1011.45 119.366 1011.45 117.949V114.761ZM1011.45 159.3V156.112C1011.45 154.695 1012.58 153.552 1013.98 153.552H1017.13C1018.53 153.552 1019.66 154.695 1019.66 156.112V159.3C1019.66 160.717 1018.53 161.86 1017.13 161.86H1013.98C1012.58 161.86 1011.45 160.717 1011.45 159.3ZM1021.67 159.3V156.112C1021.67 154.695 1022.8 153.552 1024.2 153.552H1027.35C1028.75 153.552 1029.88 154.695 1029.88 156.112V159.3C1029.88 160.717 1028.75 161.86 1027.35 161.86H1024.2C1022.8 161.86 1021.67 160.717 1021.67 159.3ZM1031.88 159.3V156.112C1031.88 154.695 1033.01 153.552 1034.41 153.552H1037.56C1038.96 153.552 1040.09 154.695 1040.09 156.112V159.3C1040.09 160.717 1038.96 161.86 1037.56 161.86H1034.41C1033.01 161.86 1031.88 160.717 1031.88 159.3ZM1042.1 159.3V156.112C1042.1 154.695 1043.23 153.552 1044.63 153.552H1047.78C1049.18 153.552 1050.31 154.695 1050.31 156.112V159.3C1050.31 160.717 1049.18 161.86 1047.78 161.86H1044.63C1043.23 161.86 1042.1 160.717 1042.1 159.3ZM1052.32 159.3V156.112C1052.32 154.695 1053.45 153.552 1054.85 153.552H1058C1059.4 153.552 1060.53 154.695 1060.53 156.112V159.3C1060.53 160.717 1059.4 161.86 1058 161.86H1054.85C1053.45 161.86 1052.32 160.717 1052.32 159.3ZM1062.54 159.3V156.112C1062.54 154.695 1063.67 153.552 1065.07 153.552H1068.22C1069.62 153.552 1070.75 154.695 1070.75 156.112V159.3C1070.75 160.717 1069.62 161.86 1068.22 161.86H1065.07C1063.67 161.86 1062.54 160.717 1062.54 159.3Z" fill="#FBC400"/>
<path fill-rule="evenodd" clip-rule="evenodd" d="M1002.8 112.221C1002.8 110.544 1004.14 109.185 1005.8 109.185H1075.69C1077.35 109.185 1078.69 110.544 1078.69 112.221C1078.69 113.897 1077.35 115.257 1075.69 115.257H1005.8C1004.14 115.257 1002.8 113.897 1002.8 112.221Z" fill="#FEE599"/>
<path d="M741.969 120.388H739.619C729.34 120.388 719.939 126.268 715.349 135.588L685.08 214.971L658.81 279.326C657.63 282.21 655.8 284.781 653.46 286.815L651.59 288.444C649.83 289.972 648.42 291.865 647.45 294L638.94 312.591C637.75 315.182 639.62 318.147 642.45 318.147C643.57 318.147 644.639 317.651 645.369 316.801L658.75 301.165L659.84 308.503C659.99 309.515 660.829 310.284 661.849 310.324C662.939 310.365 663.88 309.575 664.03 308.482L664.84 302.623C665.51 297.775 667.16 293.13 669.7 288.97L741.979 170.25V120.388H741.969Z" fill="#FFB066"/>
<path d="M918.55 187.556L918.38 189.914C917.6 200.277 909.13 208.333 898.86 208.474L848.99 209.203C843.8 209.274 826.96 222.764 822.79 226.164C822.24 226.62 821.45 226.62 820.89 226.185C820.33 225.749 820.16 225.021 820.39 224.403L818.45 226.326C817.67 227.095 816.49 227.288 815.51 226.812L811.97 225.092C810.52 224.383 810.05 222.541 810.97 221.205L817.01 212.522C817.52 211.784 816.79 210.822 815.96 211.136L810.59 213.15C809.49 213.555 808.26 212.947 807.92 211.773C807.63 210.761 808.22 209.699 809.17 209.274L833.13 198.647C834.59 198 836.08 197.423 837.59 196.917L869.03 186.392L869.33 186.291L878.39 183.255L878.24 183.214L855.2 177.415L829.79 171.019L822.07 120.388H822.52C829.78 120.388 836.9 122.483 843.03 126.419L909.4 169.066C915.59 173.053 919.11 180.158 918.55 187.556Z" fill="#FFB066"/>
<path d="M787.58 202.534C797.129 202.534 804.87 194.7 804.87 185.036C804.87 175.372 797.129 167.538 787.58 167.538C778.031 167.538 770.29 175.372 770.29 185.036C770.29 194.7 778.031 202.534 787.58 202.534Z" fill="#FFF8EB"/>
<path fill-rule="evenodd" clip-rule="evenodd" d="M806.22 175.046C805.004 174.68 803.275 174.525 801.089 174.668L800.831 170.629C803.275 170.468 805.525 170.613 807.362 171.167C809.184 171.716 810.894 172.77 811.68 174.638C812.465 176.504 812.036 178.481 811.167 180.193C810.292 181.92 808.837 183.664 807.029 185.339C803.399 188.704 798.001 192.105 791.704 194.822C785.408 197.539 779.244 199.128 774.331 199.453C771.885 199.614 769.634 199.47 767.796 198.916C765.974 198.365 764.266 197.31 763.48 195.443C762.695 193.58 763.12 191.606 763.986 189.896C764.858 188.173 766.308 186.435 768.11 184.767L770.81 187.754C769.202 189.243 768.121 190.606 767.546 191.742C766.964 192.892 767.024 193.534 767.16 193.857C767.294 194.176 767.71 194.665 768.94 195.036C770.154 195.403 771.884 195.558 774.071 195.413C778.425 195.126 784.142 193.684 790.135 191.098C796.129 188.512 801.111 185.335 804.328 182.354C805.944 180.857 807.03 179.486 807.609 178.345C808.195 177.189 808.134 176.545 808 176.225C807.866 175.907 807.451 175.418 806.22 175.046Z" fill="#382C65"/>
<path fill-rule="evenodd" clip-rule="evenodd" d="M742.99 173.731V122.27H746.99V173.731H742.99Z" fill="#FFBD00"/>
<path fill-rule="evenodd" clip-rule="evenodd" d="M825.461 174.028L817.941 122.566L821.898 121.974L829.418 173.435L825.461 174.028Z" fill="#FFBD00"/>
<path fill-rule="evenodd" clip-rule="evenodd" d="M726.773 337.733L742.036 272.516L738.143 271.583L722.343 339.095C722.209 339.67 722.329 340.275 722.672 340.752C723.016 341.23 723.548 341.532 724.13 341.579L778.059 345.961L778.38 341.926L726.773 337.733Z" fill="#EFA400"/>
<path fill-rule="evenodd" clip-rule="evenodd" d="M861.38 289.193L875.48 308.219C875.806 308.66 875.941 309.216 875.854 309.76C875.766 310.304 875.463 310.788 875.015 311.1L831.115 341.724L828.845 338.391L871.031 308.963L858.18 291.622L861.38 289.193Z" fill="#EFA400"/>
<path d="M895.07 177.415L878.24 183.214L855.2 177.415H895.07Z" fill="#FF925A"/>
<path fill-rule="evenodd" clip-rule="evenodd" d="M799.515 298.168L790.535 323.813L786.765 322.46L795.745 296.816L799.515 298.168Z" fill="#5D1000"/>
<path fill-rule="evenodd" clip-rule="evenodd" d="M910.615 423.973L879.905 429.579L879.195 425.595L909.905 419.989L910.615 423.973Z" fill="#382C65"/>
<path d="M447.047 435.591C441.533 434.86 436.794 433.182 432.831 430.558C428.878 427.857 425.921 424.588 423.958 420.751C422.082 416.848 421.43 412.68 422.004 408.246C422.4 405.188 423.322 402.512 424.772 400.216C426.231 397.843 427.948 395.855 429.923 394.25C431.973 392.656 434.087 391.459 436.265 390.659L436.384 389.741C434.184 387.739 432.318 385.237 430.786 382.235C429.339 379.166 428.848 375.836 429.313 372.243C429.857 368.038 431.437 364.438 434.053 361.441C436.678 358.368 440.041 356.131 444.141 354.73C448.25 353.253 452.76 352.84 457.669 353.491C462.579 354.141 466.794 355.711 470.313 358.199C473.919 360.62 476.599 363.658 478.354 367.312C480.195 370.899 480.843 374.795 480.299 378.999C479.993 381.369 479.252 383.526 478.079 385.47C476.981 387.424 475.611 389.108 473.968 390.523C472.4 391.948 470.712 393.124 468.902 394.05L468.783 394.968C471.662 397.06 474.098 399.91 476.09 403.517C478.091 407.048 478.796 411.107 478.202 415.693C477.628 420.127 475.901 423.98 473.019 427.253C470.222 430.459 466.57 432.852 462.063 434.432C457.642 435.945 452.636 436.332 447.047 435.591ZM448.842 421.716C451.41 422.057 453.735 421.898 455.818 421.241C457.901 420.584 459.617 419.49 460.968 417.958C462.328 416.35 463.152 414.438 463.439 412.221C463.716 410.08 463.354 408.127 462.353 406.362C461.438 404.53 460.057 403.025 458.212 401.848C456.377 400.594 454.213 399.802 451.72 399.471C449.227 399.141 446.897 399.338 444.729 400.061C442.646 400.718 440.892 401.807 439.466 403.329C438.125 404.784 437.316 406.582 437.039 408.722C436.753 410.939 437.062 413.002 437.967 414.91C438.883 416.742 440.263 418.247 442.108 419.424C444.029 420.612 446.274 421.376 448.842 421.716ZM453.426 386.285C455.541 386.565 457.479 386.433 459.24 385.889C461.01 385.268 462.481 384.297 463.65 382.974C464.83 381.576 465.544 379.921 465.791 378.01C466.177 375.028 465.383 372.552 463.41 370.58C461.523 368.541 459.031 367.317 455.934 366.906C452.761 366.486 449.966 367.01 447.548 368.478C445.215 369.879 443.856 372.071 443.47 375.052C443.223 376.963 443.492 378.748 444.276 380.407C445.07 381.99 446.243 383.311 447.796 384.372C449.435 385.367 451.311 386.005 453.426 386.285Z" fill="#FFF8EB"/>
<path d="M380.548 426.779C375.034 426.048 370.295 424.37 366.332 421.746C362.379 419.045 359.422 415.776 357.459 411.939C355.583 408.036 354.931 403.868 355.505 399.434C355.9 396.376 356.823 393.699 358.273 391.403C359.732 389.031 361.449 387.042 363.424 385.438C365.474 383.844 367.588 382.646 369.766 381.846L369.885 380.929C367.685 378.927 365.819 376.425 364.287 373.423C362.84 370.354 362.349 367.023 362.814 363.43C363.358 359.226 364.938 355.626 367.554 352.629C370.179 349.556 373.542 347.319 377.642 345.918C381.751 344.441 386.261 344.028 391.17 344.678C396.08 345.329 400.295 346.898 403.814 349.386C407.419 351.808 410.1 354.846 411.855 358.499C413.696 362.087 414.344 365.983 413.8 370.187C413.494 372.557 412.753 374.714 411.58 376.657C410.482 378.611 409.112 380.296 407.469 381.711C405.901 383.136 404.213 384.312 402.403 385.238L402.284 386.156C405.163 388.248 407.599 391.097 409.591 394.705C411.592 398.236 412.296 402.295 411.703 406.881C411.129 411.315 409.402 415.168 406.52 418.441C403.723 421.647 400.071 424.04 395.564 425.619C391.143 427.133 386.137 427.519 380.548 426.779ZM382.343 412.904C384.911 413.244 387.236 413.086 389.319 412.429C391.402 411.772 393.118 410.678 394.469 409.146C395.829 407.538 396.653 405.625 396.94 403.409C397.217 401.268 396.855 399.315 395.854 397.55C394.939 395.718 393.558 394.213 391.713 393.036C389.878 391.782 387.714 390.989 385.221 390.659C382.728 390.329 380.398 390.525 378.23 391.249C376.147 391.906 374.393 392.995 372.967 394.517C371.626 395.972 370.817 397.77 370.54 399.91C370.254 402.127 370.563 404.19 371.468 406.098C372.384 407.93 373.764 409.435 375.609 410.612C377.53 411.8 379.775 412.564 382.343 412.904ZM386.927 377.473C389.042 377.753 390.98 377.621 392.741 377.077C394.511 376.456 395.982 375.485 397.151 374.162C398.331 372.763 399.045 371.109 399.292 369.198C399.678 366.216 398.884 363.74 396.911 361.768C395.024 359.729 392.531 358.505 389.435 358.094C386.262 357.674 383.467 358.198 381.049 359.665C378.716 361.067 377.357 363.258 376.971 366.24C376.724 368.151 376.993 369.936 377.777 371.595C378.571 373.177 379.744 374.499 381.297 375.56C382.936 376.555 384.812 377.192 386.927 377.473Z" fill="#FFF8EB"/>
<path fill-rule="evenodd" clip-rule="evenodd" d="M412.66 448.01H354.61V443.962H412.66V448.01Z" fill="#EFA400"/>
<path d="M604.79 431.595L616.7 321.659L568 401.943L604.79 431.595Z" fill="#955D27"/>
<path d="M371.28 238.744L319.71 295.002L303.49 274.144L371.28 238.744Z" fill="#955D27"/>
<path d="M1203.18 464.323L1193.7 459.681C1194.5 458.106 1195.27 456.564 1196.02 455.055C1196.82 453.48 1197.59 451.91 1198.33 450.344C1199.12 448.769 1199.9 447.227 1200.65 445.718C1201.44 444.143 1202.24 442.568 1203.04 440.993L1202.45 440.56C1201.93 440.873 1201.28 441.176 1200.52 441.467C1199.82 441.749 1199.05 441.955 1198.21 442.085C1196.02 442.421 1193.82 442.295 1191.61 441.705C1189.39 441.116 1187.35 440.123 1185.48 438.727C1183.59 437.274 1181.97 435.461 1180.61 433.289C1179.31 431.107 1178.45 428.626 1178.03 425.844C1177.44 421.926 1177.88 418.344 1179.35 415.099C1180.8 411.796 1182.94 409.056 1185.77 406.878C1188.6 404.7 1191.79 403.34 1195.32 402.796C1198.63 402.287 1201.7 402.454 1204.52 403.298C1207.39 404.076 1209.88 405.349 1211.98 407.117C1213.88 408.684 1215.43 410.566 1216.62 412.765C1217.87 414.955 1218.69 417.355 1219.08 419.967C1219.67 423.885 1219.42 427.583 1218.33 431.06C1217.31 434.53 1215.87 438.177 1214.04 442.003C1212.24 445.707 1210.42 449.443 1208.57 453.212C1206.78 456.915 1204.98 460.619 1203.18 464.323ZM1200.01 432.31C1201.69 432.051 1203.21 431.412 1204.54 430.393C1205.88 429.317 1206.88 428 1207.57 426.443C1208.3 424.82 1208.52 423.043 1208.23 421.113C1207.94 419.182 1207.21 417.581 1206.05 416.308C1204.93 415.026 1203.59 414.101 1202.01 413.53C1200.43 412.903 1198.79 412.718 1197.11 412.977C1195.43 413.236 1193.89 413.908 1192.5 414.992C1191.16 416.011 1190.12 417.304 1189.38 418.87C1188.7 420.428 1188.5 422.172 1188.79 424.102C1189.08 426.032 1189.79 427.667 1190.9 429.005C1192.07 430.278 1193.45 431.228 1195.03 431.855C1196.67 432.417 1198.33 432.569 1200.01 432.31Z" fill="white"/>
<path d="M1161.72 468.955L1155.16 425.265L1147.46 432.985L1140.61 425.238L1155.67 410.287L1164 409.006L1172.75 467.26L1161.72 468.955Z" fill="white"/>
<path d="M751.26 247.437C761.73 241.294 800.12 217.39 811.99 190.602C812.27 189.974 813.19 190.248 813.07 190.926C810.91 203.87 800.52 240.545 751.65 248.51C751.02 248.611 750.71 247.761 751.26 247.437Z" fill="#FBC400"/>
<path fill-rule="evenodd" clip-rule="evenodd" d="M934.65 439.854C934.964 439.662 935.323 439.56 935.69 439.56H964.88V443.608H936.25L919.649 453.828L917.57 450.369L934.65 439.854Z" fill="#382C65"/>
<path fill-rule="evenodd" clip-rule="evenodd" d="M1146.63 315.212H1104.17V311.164H1146.63V315.212Z" fill="#382C65"/>
<path fill-rule="evenodd" clip-rule="evenodd" d="M1131.82 222.187C1131.82 217.72 1128.24 214.091 1123.82 214.091V213.079C1128.8 213.079 1132.82 217.162 1132.82 222.187C1132.82 227.213 1128.79 231.295 1123.82 231.295V230.283C1128.23 230.283 1131.82 226.654 1131.82 222.187Z" fill="#7C490E"/>
<path d="M1347.97 486.69V499.886L1301.41 442.191L1283.81 375.61L1318.83 438.487C1320.31 441.138 1322.05 443.628 1324.03 445.895C1326.01 448.162 1328.23 450.206 1330.66 452.018C1341.55 460.134 1347.97 472.997 1347.97 486.69Z" fill="#382C65"/>
</g>
</g>
<defs>
<clipPath id="clip0_1528_81304">
<rect width="1335" height="464" fill="white"/>
</clipPath>
</defs>
</svg>
