<svg width="1335" height="464" viewBox="0 0 1335 464" fill="none" xmlns="http://www.w3.org/2000/svg">
<g clip-path="url(#clip0_1528_82792)">
<rect width="1335" height="464" fill="#D2ECF5"/>
<mask id="mask0_1528_82792" style="mask-type:luminance" maskUnits="userSpaceOnUse" x="0" y="0" width="1335" height="464">
<path d="M0 464L1335 464V3.05176e-05L0 3.05176e-05V464Z" fill="white"/>
</mask>
<g mask="url(#mask0_1528_82792)">
<path d="M0.469727 463.68L1335.47 463.68V0.310181L0.469727 0.310181V463.68Z" fill="#D2ECF5"/>
<path d="M303.001 464L1335 464V354L303.001 354V464Z" fill="#A5D9EC"/>
<path d="M985.41 208.19H908.06V323.37H985.41V208.19Z" fill="#FBC400"/>
<path d="M1295.59 235.36C1294.56 237.42 1292.94 238.98 1291.03 239.94C1290.49 240.21 1290.05 240.63 1289.78 241.17L1286.56 247.6L1276 268.709C1275.33 270.049 1273.7 270.59 1272.36 269.92L1242.27 254.88L1238.93 253.21C1237.59 252.54 1237.05 250.91 1237.72 249.57L1251.49 222.03C1251.76 221.49 1251.83 220.88 1251.72 220.29C1251.47 218.89 1251.51 217.43 1251.87 216.01C1252.05 215.29 1252.31 214.59 1252.65 213.9C1255.2 208.8 1261.4 206.74 1266.49 209.29L1290.96 221.52C1296.06 224.07 1298.12 230.27 1295.57 235.36H1295.59Z" fill="#FEE599"/>
<path d="M1290.98 221.52C1296.08 224.07 1298.14 230.27 1295.59 235.36" stroke="#ECA700" stroke-width="2" stroke-miterlimit="10"/>
<path d="M1252.67 213.9C1255.22 208.8 1261.42 206.74 1266.51 209.29" stroke="#ECA700" stroke-width="2" stroke-miterlimit="10"/>
<path d="M1251.89 216.01C1252.07 215.29 1252.33 214.59 1252.67 213.9" stroke="#ECA700" stroke-width="2" stroke-miterlimit="10"/>
<path d="M1295.59 235.359C1294.56 237.419 1292.94 238.979 1291.03 239.939" stroke="#ECA700" stroke-width="2" stroke-miterlimit="10"/>
<path d="M1286.57 247.609L1276.01 268.719C1275.34 270.059 1273.71 270.599 1272.37 269.929L1242.28 254.889L1286.56 247.599L1286.57 247.609Z" fill="#ECA700"/>
<path d="M1305.38 271.269V309.759C1305.38 312.189 1303.41 314.169 1300.97 314.169H1221.72C1220.45 314.169 1219.3 313.629 1218.5 312.759C1217.76 311.979 1217.32 310.919 1217.32 309.759V271.269C1217.32 261.579 1225.18 253.719 1234.87 253.719H1287.84C1297.53 253.719 1305.39 261.579 1305.39 271.269H1305.38Z" fill="#00ABFF"/>
<path d="M1300.79 314.16H1221.92C1219.38 314.16 1217.32 316.219 1217.32 318.76C1217.32 321.3 1219.38 323.36 1221.92 323.36H1300.79C1303.33 323.36 1305.39 321.3 1305.39 318.76C1305.39 316.219 1303.33 314.16 1300.79 314.16Z" fill="#0053AB"/>
<path d="M1278.13 308.789C1281.32 308.789 1283.91 306.202 1283.91 303.009C1283.91 299.817 1281.32 297.229 1278.13 297.229C1274.94 297.229 1272.35 299.817 1272.35 303.009C1272.35 306.202 1274.94 308.789 1278.13 308.789Z" fill="#D2ECF5"/>
<path d="M1281.95 298.082L1278.32 301.73L1279.51 302.923L1283.15 299.276L1281.95 298.082Z" fill="#0053AB"/>
<path d="M1292.96 308.789C1296.15 308.789 1298.74 306.202 1298.74 303.009C1298.74 299.817 1296.15 297.229 1292.96 297.229C1289.77 297.229 1287.18 299.817 1287.18 303.009C1287.18 306.202 1289.77 308.789 1292.96 308.789Z" fill="#D2ECF5"/>
<path d="M1287.58 306.14L1292.31 304.115L1291.65 302.561L1286.91 304.586L1287.58 306.14Z" fill="#0053AB"/>
<path d="M1305.38 286.979H1309.76C1311.76 286.979 1313.37 288.599 1313.37 290.589C1313.37 292.589 1311.75 294.199 1309.76 294.199H1305.38V286.969V286.979Z" fill="#00ABFF"/>
<path d="M285.72 359.01H30.1104V371.26H285.72V359.01Z" fill="#82C2D9"/>
<path d="M1353.71 323.37H294.45V355.23H1353.71V323.37Z" fill="#75B0D7"/>
<path d="M777.519 97.3501H323.709V278.13H777.519V97.3501Z" fill="#9CCEEF"/>
<path d="M474.299 120.45L470.569 137.43C469.489 142.36 463.779 144.67 459.569 141.88L445.079 132.27C439.109 128.31 431.649 134.57 434.519 141.14L441.479 157.07C443.499 161.7 440.249 166.92 435.199 167.13L417.829 167.87C410.669 168.17 408.319 177.63 414.499 181.25L429.499 190.05C433.859 192.61 434.289 198.74 430.329 201.88L416.709 212.69C411.089 217.15 414.749 226.18 421.879 225.48L439.179 223.78C444.209 223.29 448.159 228 446.809 232.86L442.149 249.61C440.229 256.52 448.489 261.67 453.849 256.91L466.849 245.36C470.629 242.01 476.599 243.49 478.359 248.22L484.429 264.51C486.929 271.23 496.649 270.54 498.189 263.54L501.919 246.56C502.999 241.63 508.709 239.32 512.919 242.11L527.409 251.72C533.379 255.68 540.839 249.42 537.969 242.85L531.009 226.92C528.989 222.29 532.239 217.07 537.289 216.86L554.659 216.12C561.819 215.82 564.169 206.36 557.989 202.74L542.989 193.94C538.629 191.38 538.199 185.25 542.159 182.11L555.779 171.3C561.399 166.84 557.739 157.81 550.609 158.51L533.309 160.21C528.279 160.7 524.329 155.99 525.679 151.13L530.339 134.38C532.259 127.47 523.999 122.32 518.639 127.08L505.639 138.63C501.859 141.98 495.889 140.5 494.129 135.77L488.059 119.48C485.559 112.76 475.839 113.45 474.299 120.45Z" fill="#FCD632"/>
<path d="M777.519 112.6V278.13H515.359C521.619 266.06 528.649 254.47 536.399 243.41C555.899 215.55 579.929 191.08 607.409 171.07C655.439 136.07 714.019 114.69 777.509 112.6H777.519Z" fill="#58AF67"/>
<path d="M664.259 275.08C664.259 275.08 530.959 145.69 323.709 178.35V275.1H664.259V275.08Z" fill="#4A974A"/>
<path d="M784.339 259.83H310.829V280.05H784.339V259.83Z" fill="#3A9EE0"/>
<path d="M285.72 371.26H30.1104V503.5H285.72V371.26Z" fill="#A5D9EC"/>
<path d="M285.72 -21.2603H30.1104V359H285.72V-21.2603Z" fill="#A5D9EC"/>
<path d="M532.001 371H319.001V473H532.001V371Z" fill="#D2ECF5"/>
<path d="M438.44 385.93H409.38C405.492 385.93 402.34 389.081 402.34 392.97V392.98C402.34 396.868 405.492 400.02 409.38 400.02H438.44C442.328 400.02 445.48 396.868 445.48 392.98V392.97C445.48 389.081 442.328 385.93 438.44 385.93Z" fill="#75B0D7"/>
<path d="M1041 371H828.001V473H1041V371Z" fill="#D2ECF5"/>
<path d="M947.169 385.93H918.109C914.221 385.93 911.069 389.081 911.069 392.97V392.98C911.069 396.868 914.221 400.02 918.109 400.02H947.169C951.057 400.02 954.209 396.868 954.209 392.98V392.97C954.209 389.081 951.057 385.93 947.169 385.93Z" fill="#75B0D7"/>
<path d="M787.001 371H574.001V473H787.001V371Z" fill="#D2ECF5"/>
<path d="M693.169 385.93H664.109C660.221 385.93 657.069 389.081 657.069 392.97V392.98C657.069 396.868 660.221 400.02 664.109 400.02H693.169C697.057 400.02 700.209 396.868 700.209 392.98V392.97C700.209 389.081 697.057 385.93 693.169 385.93Z" fill="#75B0D7"/>
<path d="M1307 371H1094V473H1307V371Z" fill="#D2ECF5"/>
<path d="M1213.61 385.93H1184.55C1180.66 385.93 1177.51 389.081 1177.51 392.97V392.98C1177.51 396.868 1180.66 400.02 1184.55 400.02H1213.61C1217.5 400.02 1220.65 396.868 1220.65 392.98V392.97C1220.65 389.081 1217.5 385.93 1213.61 385.93Z" fill="#75B0D7"/>
<path d="M251.789 319.459H157.909V333.459H251.789V319.459Z" fill="#82C2D9"/>
<path d="M251.789 394.24H157.909V408.24H251.789V394.24Z" fill="#82C2D9"/>
<path d="M909.99 250.479V244.809C909.99 243.579 909 242.589 907.77 242.589H900.72C899.49 242.589 898.5 243.579 898.5 244.809V250.479C898.5 251.389 897.95 252.229 897.09 252.539C888.95 255.469 883.13 263.239 883.13 272.389V323.369H925.35V272.389C925.35 263.239 919.53 255.469 911.39 252.539C910.53 252.229 909.98 251.389 909.98 250.479H909.99Z" fill="white"/>
<path d="M910.001 239H899.001C897.344 239 896.001 240.344 896.001 242C896.001 243.657 897.344 245 899.001 245H910.001C911.658 245 913.001 243.657 913.001 242C913.001 240.344 911.658 239 910.001 239Z" fill="#FEEECC"/>
<path d="M997.271 227L929.001 232.88C930.051 245.08 937.391 255.2 947.531 260.41L948.051 266.49L984.241 263.38L983.721 257.3C992.821 250.44 998.321 239.21 997.271 227.01V227Z" fill="#FFF8EB"/>
<path d="M969.36 271.731L966.33 258.621C965.62 255.551 963.17 253.201 960.08 252.601L946.55 250.011C945.21 249.751 943.96 250.781 943.96 252.151C943.96 253.021 944.48 253.801 945.27 254.151L953.56 257.741L947.53 260.411L936.97 252.031V252.521C936.97 255.621 938.1 258.621 940.14 260.961L945.85 267.471C947.44 269.291 949.75 270.311 952.17 270.261L956.1 270.191C957.91 270.161 959.53 271.331 960.06 273.061L963.2 283.291L969.36 271.731Z" fill="#C15A42"/>
<path d="M1202.18 597.699H1154.42L1112.57 468.699L1092.05 405.459C1091.67 404.319 1089.97 404.629 1090.04 405.839L1091.92 445.149L1099.22 597.709L1046.15 601.299L1032.2 424.929L1025.26 337.279L1022.05 296.629H1107.72C1115.81 309.669 1122.96 323.259 1129.09 337.279C1135.74 352.429 1141.22 368.069 1145.48 384.109L1167.94 468.699L1202.19 597.699H1202.18Z" fill="#A26135"/>
<path d="M1167.93 468.689H1112.57L1092.05 405.449C1091.67 404.309 1089.97 404.619 1090.04 405.829L1091.92 445.139C1082.04 432.699 1066.81 424.919 1050.02 424.919H1032.19L1025.25 337.269H1129.08C1135.73 352.419 1141.21 368.059 1145.47 384.099L1167.93 468.689Z" fill="#6D3C1D"/>
<path d="M1019.63 278.37L1023.81 340.61C1023.81 340.61 1102.09 361.43 1130.78 333.2L1106.25 287.32L1019.63 278.37Z" fill="#FFF8EB"/>
<path d="M1045.4 172.609V158.419L1032.75 156.139C1029.51 155.559 1027.05 152.899 1026.71 149.619L1025.65 139.299L1020.26 137.419C1019.23 137.059 1019.07 135.669 1019.99 135.089L1025.65 131.499L1029.62 124.619C1034.01 117.009 1042.45 112.679 1051.19 113.529C1065.96 114.969 1075.26 130.119 1069.87 143.949L1066.78 151.879L1070.81 172.609H1045.4Z" fill="#C15A42"/>
<path d="M1130.78 256.349L1171.74 391.659H1095.84L1082.8 363.789L1085.28 391.659H1024.6L1018.18 306.279L1018.01 303.929L1016.98 290.269L999.169 304.329C997.139 305.919 994.899 307.159 992.489 308.009C992.459 308.029 992.429 308.029 992.399 308.039C990.039 308.889 987.539 309.329 984.989 309.369C970.029 309.609 958.649 295.979 961.559 281.299L974.539 215.869C979.269 192.009 999.639 174.459 1023.92 173.279L1122.03 168.489C1130.94 168.069 1139.51 171.959 1145.04 178.969L1167.58 207.509C1183.2 227.289 1169.09 256.359 1143.91 256.359H1130.79L1130.78 256.349Z" fill="#58AF67"/>
<path d="M1138.5 334L1127.18 335.702L1117.5 244.5L1110.5 188.5H1104.5L1102.43 168.479L1122.36 167.969L1138.5 334Z" fill="#002E73"/>
<path d="M1045.2 344.78H1035L1048.67 205.001L1058.84 205L1045.2 344.78Z" fill="#002E73"/>
<path d="M1130.99 312.23L1074.07 321.65C1066.71 322.87 1059.49 318.87 1056.61 311.98L1016.86 216.73C1012.41 206.07 1019.07 194.04 1030.47 192.15L1107.14 179.46C1116.9 177.84 1126.13 184.45 1127.74 194.21L1144.22 293.74C1145.67 302.5 1139.75 310.77 1130.99 312.22V312.23Z" fill="#00ABFF"/>
<path fill-rule="evenodd" clip-rule="evenodd" d="M1144.39 297.567L1112 241L1098 224.5L1119.53 181.924C1123.75 184.555 1126.87 188.919 1127.74 194.21L1144.22 293.74C1144.43 295.033 1144.49 296.315 1144.39 297.567Z" fill="#3A9EE0"/>
<path d="M1029.15 260.739L1115.35 246.469L1124.31 180.239C1124.57 178.309 1123.03 176.609 1121.09 176.679L1038.39 179.589C1018.66 180.289 1005.53 200.259 1012.71 218.649L1029.15 260.729V260.739Z" fill="#0053AB"/>
<path d="M1068.19 259.959C1071.14 259.959 1073.53 257.568 1073.53 254.619C1073.53 251.67 1071.14 249.279 1068.19 249.279C1065.24 249.279 1062.85 251.67 1062.85 254.619C1062.85 257.568 1065.24 259.959 1068.19 259.959Z" fill="#002E73"/>
<path d="M1031.36 118.259C1031.36 118.259 1028.91 136.489 1040.9 141.749C1052.89 147.009 1066.78 151.869 1066.78 151.869L1075.97 136.549C1078.56 132.229 1076.29 126.639 1071.42 125.349C1071.42 119.189 1067.33 113.789 1061.41 112.079C1053.1 109.679 1041.12 108.769 1031.35 118.249L1031.36 118.259Z" fill="#041F49"/>
<path d="M1039.51 143.609L1035.88 142.319L1037.91 136.599C1038.51 134.919 1040.35 134.039 1042.03 134.639C1044.28 135.439 1044.91 138.319 1043.21 139.989L1039.51 143.619V143.609Z" fill="#C15A42"/>
<path d="M1017.01 303.93L1015.98 290.27L998.169 304.33C996.119 305.94 993.839 307.19 991.399 308.04L1008.35 247.52C1009.06 244.98 1012.77 245.35 1012.96 247.98L1017.01 303.93Z" fill="#1D9B3E"/>
<path d="M1028.43 173L1061.15 171.41" stroke="#1D9B3E" stroke-width="2" stroke-miterlimit="10"/>
<path d="M896 308.84C895.55 304.5 892.06 300.97 887.72 300.45C885.93 300.23 884.23 300.53 882.73 301.2C882.7 301.2 882.68 301.22 882.65 301.23C882.18 301.44 881.65 301.08 881.65 300.57V299.1H848.06V319.23C848.06 320.01 848.69 320.64 849.47 320.64H880.24C881.02 320.64 881.65 320.01 881.65 319.23V319.16C881.65 318.65 882.17 318.3 882.64 318.51C883.71 319 884.89 319.3 886.13 319.35C886.27 319.35 886.41 319.35 886.55 319.35C892.13 319.35 896.59 314.53 895.99 308.83L896 308.84ZM891.25 310.67C890.93 312.64 889.34 314.23 887.37 314.56C886.61 314.68 885.89 314.63 885.22 314.43C883.01 313.78 881.46 311.56 881.87 309.06C882.07 307.87 882.72 306.82 883.65 306.11C884.26 305.64 884.97 305.31 885.75 305.18C889.01 304.65 891.78 307.42 891.24 310.67H891.25Z" fill="#0053AB"/>
<path d="M851.42 320.63H878.3V322.51C878.3 322.98 877.92 323.37 877.44 323.37H852.28C851.81 323.37 851.42 322.99 851.42 322.51V320.63Z" fill="#002E73"/>
<path d="M886.14 319.34C884.89 319.29 883.72 318.98 882.65 318.5C882.18 318.29 881.66 318.63 881.66 319.15V300.56C881.66 301.07 882.19 301.43 882.66 301.22C882.68 301.22 882.71 301.2 882.74 301.19L883.66 306.1C882.74 306.82 882.08 307.87 881.88 309.05C881.47 311.55 883.01 313.77 885.23 314.42L886.15 319.34H886.14Z" fill="#002E73"/>
<path d="M854.2 323.36H827.07C826.56 323.36 826.14 322.95 826.14 322.43V320.4H855.12V322.43C855.12 322.94 854.71 323.36 854.19 323.36H854.2Z" fill="#1671F2"/>
<path d="M807.06 308.19C807.55 303.51 811.31 299.7 815.98 299.14C817.91 298.91 819.75 299.23 821.36 299.94C821.39 299.95 821.42 299.97 821.45 299.98C821.96 300.21 822.53 299.82 822.53 299.27V297.69H858.75V319.4C858.75 320.24 858.07 320.92 857.23 320.92H824.05C823.21 320.92 822.53 320.24 822.53 319.4V319.32C822.53 318.77 821.97 318.39 821.46 318.62C820.3 319.15 819.04 319.47 817.69 319.53C817.54 319.53 817.39 319.54 817.24 319.54C811.22 319.54 806.42 314.35 807.06 308.2V308.19ZM812.18 310.16C812.53 312.29 814.24 314 816.37 314.35C817.19 314.48 817.97 314.42 818.69 314.21C821.08 313.51 822.74 311.11 822.3 308.42C822.09 307.14 821.38 306.01 820.38 305.23C819.72 304.72 818.95 304.37 818.11 304.23C814.6 303.65 811.61 306.65 812.19 310.15L812.18 310.16Z" fill="#3A9EE0"/>
<path d="M817.69 319.52C819.03 319.46 820.3 319.14 821.46 318.61C821.97 318.38 822.53 318.75 822.53 319.31V299.27C822.53 299.82 821.96 300.21 821.45 299.98C821.42 299.97 821.4 299.95 821.36 299.94L820.37 305.24C821.37 306.01 822.08 307.15 822.29 308.43C822.73 311.13 821.07 313.52 818.68 314.22L817.68 319.53L817.69 319.52Z" fill="#1671F2"/>
<path d="M690.02 323.37H770.59V319.74H690.02V323.37Z" fill="#FFF8EB"/>
<path d="M698.9 263.8C702.61 263.91 706.11 264.94 709.18 266.66L706.8 274.41C704.81 272.97 702.45 272.02 699.9 271.74C691.05 270.76 683.56 277.67 683.56 286.32C683.56 290.79 685.56 294.79 688.7 297.48C689.55 298.21 690.02 299.29 690.02 300.41C690.02 303.73 686.11 305.6 683.59 303.44C678.76 299.31 675.7 293.17 675.7 286.32C675.7 273.65 686.15 263.43 698.9 263.8Z" fill="#002E73"/>
<path d="M704.3 319.74H756.24C761.91 319.74 765.96 314.25 764.3 308.84L761.46 299.6L750.79 264.81C750.18 262.83 748.89 261.2 747.22 260.15L730.27 277.09L713.33 260.15C711.66 261.2 710.36 262.83 709.76 264.81L709.19 266.66L706.81 274.41L699.08 299.59L696.24 308.83C694.58 314.25 698.63 319.73 704.3 319.73V319.74Z" fill="#FFF8EB"/>
<path d="M730.27 258.85H717.81C716.18 258.85 714.63 259.32 713.32 260.15L706.34 253.17C705.13 251.96 705.99 249.9 707.69 249.9H752.83C754.54 249.9 755.39 251.96 754.18 253.17L747.2 260.15C745.89 259.32 744.34 258.85 742.71 258.85H730.25H730.27Z" fill="#FFF8EB"/>
<path d="M713.32 260.14C714.63 259.31 716.18 258.84 717.81 258.84H742.72C744.35 258.84 745.9 259.31 747.21 260.14L730.26 277.09L713.31 260.14H713.32Z" fill="#FD6632"/>
<path d="M705.75 249.9H745.69C746.535 249.9 747.22 249.215 747.22 248.37V246.57C747.22 245.725 746.535 245.04 745.69 245.04H705.75C704.905 245.04 704.22 245.725 704.22 246.57V248.37C704.22 249.215 704.905 249.9 705.75 249.9Z" fill="#4A974A"/>
<path d="M723.09 245.04H737.45C738.654 245.04 739.63 244.064 739.63 242.86V241.78C739.63 240.576 738.654 239.6 737.45 239.6H723.09C721.886 239.6 720.91 240.576 720.91 241.78V242.86C720.91 244.064 721.886 245.04 723.09 245.04Z" fill="#002E73"/>
<path d="M702.56 274.694L706.499 275.868L709.927 264.368L705.989 263.194L702.56 274.694Z" fill="#002E73"/>
<path d="M704.3 319.74H756.24C761.91 319.74 765.96 314.25 764.3 308.84L761.46 299.6H699.08L696.24 308.84C694.58 314.26 698.63 319.74 704.3 319.74Z" fill="#844311"/>
<path d="M705.24 319.74H755.29C754.97 319.23 754.46 318.83 753.8 318.67L743.82 316.14C734.93 313.89 725.61 313.89 716.72 316.14L706.74 318.67C706.08 318.84 705.57 319.24 705.25 319.74H705.24Z" fill="#61391F"/>
<path d="M1207.14 283.44H1181.5C1179.3 283.44 1177.51 285.226 1177.51 287.43V319.46C1177.51 321.663 1179.3 323.45 1181.5 323.45H1207.14C1209.34 323.45 1211.13 321.663 1211.13 319.46V287.43C1211.13 285.226 1209.34 283.44 1207.14 283.44Z" fill="#FF5817"/>
<path d="M1211.13 278.37H1177.51V283.44H1211.13V278.37Z" fill="#382C65"/>
<path d="M1202.15 291.17H1186.48C1184.65 291.17 1183.17 292.65 1183.17 294.48V310.15C1183.17 311.98 1184.65 313.46 1186.48 313.46C1188.7 313.46 1190.74 314.85 1191.39 316.98C1191.99 318.93 1193.08 320.24 1194.32 320.24C1195.56 320.24 1196.65 318.93 1197.25 316.98C1197.9 314.86 1199.94 313.46 1202.16 313.46C1203.99 313.46 1205.47 311.98 1205.47 310.15V294.48C1205.47 292.65 1203.99 291.17 1202.16 291.17H1202.15Z" fill="#382C65"/>
<path d="M134.17 173.07C150.899 173.07 164.46 159.508 164.46 142.78C164.46 126.051 150.899 112.49 134.17 112.49C117.441 112.49 103.88 126.051 103.88 142.78C103.88 159.508 117.441 173.07 134.17 173.07Z" fill="#D2ECF5"/>
<path d="M134.17 160.4C143.901 160.4 151.79 152.511 151.79 142.78C151.79 133.048 143.901 125.16 134.17 125.16C124.439 125.16 116.55 133.048 116.55 142.78C116.55 152.511 124.439 160.4 134.17 160.4Z" stroke="#A0D1F9" stroke-width="2" stroke-miterlimit="10"/>
<path d="M92.6592 196.6C98.7192 213.87 83.7692 221.96 72.6292 207.43C55.3592 213.49 47.2692 198.54 61.7992 187.4C55.7392 170.13 70.6892 162.04 81.8292 176.57C99.0992 170.51 107.189 185.46 92.6592 196.6Z" fill="#D2ECF5"/>
</g>
</g>
<defs>
<clipPath id="clip0_1528_82792">
<rect width="1335" height="464" fill="white"/>
</clipPath>
</defs>
</svg>
