<svg width="1335" height="464" viewBox="0 0 1335 464" fill="none" xmlns="http://www.w3.org/2000/svg">
<g clip-path="url(#clip0_1528_80842)">
<rect width="1335" height="464" fill="#A0D1F9"/>
<mask id="mask0_1528_80842" style="mask-type:luminance" maskUnits="userSpaceOnUse" x="0" y="0" width="1335" height="464">
<path d="M1335 0H0V464H1335V0Z" fill="white"/>
</mask>
<g mask="url(#mask0_1528_80842)">
<path d="M1335.64 -0.780029H0.640137V463.22H1335.64V-0.780029Z" fill="#A0D1F9"/>
<path d="M691.3 -18.8101L484.4 -11.6701L851.31 506.3H871.8L691.3 -18.8101Z" fill="#F6DC9D"/>
<path d="M977.29 -6.86011L1209.95 -1.39011L930.82 516.58H882.75L977.29 -6.86011Z" fill="#F6DC9D"/>
<path d="M409.946 -225.302L-233.18 373.375L-98.4276 518.133L544.699 -80.5441L409.946 -225.302Z" fill="#362C62"/>
<path d="M-75.8396 267.123L-176.753 361.062C-184.66 368.422 -185.103 380.799 -177.743 388.706L-109.75 461.747C-102.389 469.654 -90.0127 470.097 -82.1057 462.737L18.8081 368.798C26.7151 361.437 27.1581 349.061 19.7976 341.154L-48.1953 268.112C-55.5559 260.205 -67.9326 259.762 -75.8396 267.123Z" fill="#6BB7F6"/>
<path d="M80.8493 121.251L-20.0644 215.19C-27.9714 222.551 -28.4145 234.928 -21.0539 242.835L46.939 315.876C54.2995 323.783 66.6763 324.226 74.5833 316.865L175.497 222.926C183.404 215.566 183.847 203.189 176.487 195.282L108.494 122.241C101.133 114.334 88.7563 113.891 80.8493 121.251Z" fill="#F8D98A"/>
<path d="M237.548 -24.6063L136.634 69.3328C128.727 76.6933 128.284 89.0701 135.645 96.9771L203.638 170.018C210.998 177.925 223.375 178.368 231.282 171.008L332.196 77.0686C340.103 69.7081 340.546 57.3314 333.185 49.4243L265.192 -23.6168C257.832 -31.5238 245.455 -31.9668 237.548 -24.6063Z" fill="#ABD5F2"/>
<path d="M394.237 -170.478L293.323 -76.5388C285.416 -69.1783 284.973 -56.8015 292.334 -48.8945L360.327 24.1466C367.687 32.0537 380.064 32.4967 387.971 25.1362L488.885 -68.8029C496.792 -76.1635 497.235 -88.5402 489.874 -96.4472L421.881 -169.488C414.521 -177.395 402.144 -177.838 394.237 -170.478Z" fill="#6BB7F6"/>
<path d="M0.864353 394.814L-8.80469 403.815L0.196071 413.484L9.86511 404.483L0.864353 394.814Z" fill="#675F8C"/>
<path d="M24.378 372.919L14.709 381.919L23.7097 391.588L33.3788 382.588L24.378 372.919Z" fill="#675F8C"/>
<path d="M47.9015 351.023L38.2324 360.024L47.2332 369.693L56.9022 360.692L47.9015 351.023Z" fill="#675F8C"/>
<path d="M71.4151 329.128L61.7461 338.129L70.7469 347.798L80.4159 338.797L71.4151 329.128Z" fill="#675F8C"/>
<path d="M94.9459 307.23L85.2769 316.231L94.2776 325.9L103.947 316.899L94.9459 307.23Z" fill="#675F8C"/>
<path d="M118.477 285.328L108.808 294.329L117.808 303.998L127.477 294.997L118.477 285.328Z" fill="#675F8C"/>
<path d="M141.99 263.433L132.321 272.434L141.322 282.103L150.991 273.102L141.99 263.433Z" fill="#675F8C"/>
<path d="M165.514 241.528L155.845 250.528L164.846 260.197L174.515 251.197L165.514 241.528Z" fill="#675F8C"/>
<path d="M189.038 219.632L179.369 228.633L188.369 238.302L198.038 229.301L189.038 219.632Z" fill="#675F8C"/>
<path d="M212.558 197.744L202.889 206.745L211.89 216.414L221.559 207.413L212.558 197.744Z" fill="#675F8C"/>
<path d="M236.089 175.842L226.42 184.843L235.421 194.512L245.09 185.511L236.089 175.842Z" fill="#675F8C"/>
<path d="M259.613 153.937L249.944 162.938L258.945 172.607L268.614 163.606L259.613 153.937Z" fill="#675F8C"/>
<path d="M283.127 132.042L273.458 141.043L282.458 150.712L292.127 141.711L283.127 132.042Z" fill="#675F8C"/>
<path d="M306.657 110.154L296.988 119.155L305.989 128.824L315.658 119.823L306.657 110.154Z" fill="#675F8C"/>
<path d="M330.181 88.2486L320.512 97.2494L329.512 106.918L339.182 97.9177L330.181 88.2486Z" fill="#675F8C"/>
<path d="M353.694 66.3534L344.025 75.3541L353.026 85.0232L362.695 76.0224L353.694 66.3534Z" fill="#675F8C"/>
<path d="M377.225 44.4513L367.556 53.452L376.557 63.1211L386.226 54.1203L377.225 44.4513Z" fill="#675F8C"/>
<path d="M400.755 22.5633L391.086 31.5641L400.087 41.2331L409.756 32.2323L400.755 22.5633Z" fill="#675F8C"/>
<path d="M424.269 0.658055L414.6 9.65881L423.601 19.3279L433.27 10.3271L424.269 0.658055Z" fill="#675F8C"/>
<path d="M5.52793 164.001L-4.14111 173.002L4.85966 182.671L14.5287 173.67L5.52793 164.001Z" fill="#675F8C"/>
<path d="M29.0582 142.113L19.3892 151.114L28.3899 160.783L38.059 151.782L29.0582 142.113Z" fill="#675F8C"/>
<path d="M52.5821 120.218L42.9131 129.219L51.9138 138.888L61.5829 129.887L52.5821 120.218Z" fill="#675F8C"/>
<path d="M76.0958 98.3225L66.4268 107.323L75.4275 116.992L85.0966 107.992L76.0958 98.3225Z" fill="#675F8C"/>
<path d="M99.6192 76.4172L89.9502 85.418L98.951 95.087L108.62 86.0862L99.6192 76.4172Z" fill="#675F8C"/>
<path d="M123.15 54.5151L113.481 63.5159L122.482 73.1849L132.151 64.1841L123.15 54.5151Z" fill="#675F8C"/>
<path d="M146.671 32.6272L137.002 41.6279L146.003 51.297L155.672 42.2962L146.671 32.6272Z" fill="#675F8C"/>
<path d="M170.194 10.7219L160.525 19.7227L169.526 29.3917L179.195 20.3909L170.194 10.7219Z" fill="#675F8C"/>
<path d="M193.718 -11.1734L184.049 -2.17261L193.05 7.49643L202.719 -1.50433L193.718 -11.1734Z" fill="#675F8C"/>
<path d="M1057.7 249.485L762.582 173.712C760.303 173.127 757.981 174.5 757.396 176.779L710.7 358.649C710.115 360.928 711.488 363.25 713.766 363.835L1008.88 439.608C1011.16 440.193 1013.48 438.82 1014.07 436.542L1060.77 254.671C1061.35 252.392 1059.98 250.07 1057.7 249.485Z" fill="#362C62"/>
<path d="M750.999 184.527L740.742 181.893C738.463 181.308 736.141 182.681 735.556 184.96L695.502 340.96C694.917 343.239 696.29 345.561 698.569 346.146L708.826 348.779C711.105 349.364 713.427 347.991 714.012 345.713L754.066 189.713C754.651 187.434 753.278 185.112 750.999 184.527Z" fill="#E8E8E8"/>
<path d="M730.558 195.877L712.93 191.351C711.791 191.059 710.63 191.745 710.337 192.884L677.58 320.466C677.287 321.606 677.974 322.767 679.113 323.059L696.742 327.585C697.881 327.878 699.042 327.191 699.334 326.052L732.092 198.47C732.384 197.331 731.698 196.17 730.558 195.877Z" fill="#362C62"/>
<path d="M633.86 311.5C632.23 312.47 630.24 310.97 630.71 309.14L647.08 245.36L663.45 181.58C663.92 179.74 666.38 179.39 667.35 181.03L714.76 261.19C715.36 262.2 715.02 263.51 714.01 264.11L633.85 311.52L633.86 311.5Z" fill="#E8E8E8"/>
<path d="M664.036 162.193L618.716 150.557C616.437 149.972 614.116 151.345 613.53 153.624L573.476 309.624C572.891 311.903 574.264 314.224 576.543 314.809L621.863 326.445C624.142 327.031 626.464 325.658 627.049 323.379L667.103 167.379C667.688 165.1 666.315 162.778 664.036 162.193Z" fill="#362C62"/>
<path d="M1020.4 134.941L850.453 91.3061C848.174 90.721 845.852 92.094 845.267 94.3729L821.98 185.071C821.395 187.35 822.768 189.671 825.047 190.257L994.994 233.892C997.273 234.477 999.595 233.104 1000.18 230.825L1023.47 140.127C1024.05 137.848 1022.68 135.526 1020.4 134.941Z" fill="#675F8C"/>
<path d="M846.34 177.51C894.549 177.51 933.63 138.429 933.63 90.2199C933.63 42.011 894.549 2.92993 846.34 2.92993C798.131 2.92993 759.05 42.011 759.05 90.2199C759.05 138.429 798.131 177.51 846.34 177.51Z" fill="#E8E8E8"/>
<path fill-rule="evenodd" clip-rule="evenodd" d="M846.34 31.8699C814.114 31.8699 787.99 57.9941 787.99 90.2199C787.99 122.446 814.114 148.57 846.34 148.57C878.566 148.57 904.69 122.446 904.69 90.2199C904.69 57.9941 878.566 31.8699 846.34 31.8699ZM786.99 90.2199C786.99 57.4418 813.562 30.8699 846.34 30.8699C879.118 30.8699 905.69 57.4418 905.69 90.2199C905.69 122.998 879.118 149.57 846.34 149.57C813.562 149.57 786.99 122.998 786.99 90.2199Z" fill="#969595"/>
<path d="M846.34 104.66C854.315 104.66 860.78 98.1949 860.78 90.2199C860.78 82.2449 854.315 75.7799 846.34 75.7799C838.365 75.7799 831.9 82.2449 831.9 90.2199C831.9 98.1949 838.365 104.66 846.34 104.66Z" fill="#362C62"/>
<path d="M1020.12 221.52C1068.33 221.52 1107.41 182.439 1107.41 134.23C1107.41 86.021 1068.33 46.9399 1020.12 46.9399C971.911 46.9399 932.83 86.021 932.83 134.23C932.83 182.439 971.911 221.52 1020.12 221.52Z" fill="#E8E8E8"/>
<path fill-rule="evenodd" clip-rule="evenodd" d="M1020.12 75.8799C987.894 75.8799 961.77 102.004 961.77 134.23C961.77 166.456 987.894 192.58 1020.12 192.58C1052.35 192.58 1078.47 166.456 1078.47 134.23C1078.47 102.004 1052.35 75.8799 1020.12 75.8799ZM960.77 134.23C960.77 101.452 987.342 74.8799 1020.12 74.8799C1052.9 74.8799 1079.47 101.452 1079.47 134.23C1079.47 167.008 1052.9 193.58 1020.12 193.58C987.342 193.58 960.77 167.008 960.77 134.23Z" fill="#969595"/>
<path d="M1020.12 148.67C1028.1 148.67 1034.56 142.205 1034.56 134.23C1034.56 126.255 1028.1 119.79 1020.12 119.79C1012.15 119.79 1005.68 126.255 1005.68 134.23C1005.68 142.205 1012.15 148.67 1020.12 148.67Z" fill="#362C62"/>
<path d="M890.56 179.43C898.535 179.43 905 172.965 905 164.99C905 157.015 898.535 150.55 890.56 150.55C882.585 150.55 876.12 157.015 876.12 164.99C876.12 172.965 882.585 179.43 890.56 179.43Z" fill="#362C62"/>
<path fill-rule="evenodd" clip-rule="evenodd" d="M879.08 171.78C882.841 178.139 891.043 180.245 897.401 176.484L897.41 176.479C903.768 172.719 905.874 164.517 902.114 158.158L857.995 83.5579C854.235 77.1997 846.032 75.0937 839.674 78.8539L839.666 78.859C833.308 82.6192 831.202 90.8217 834.962 97.1798L879.08 171.78ZM898.485 178.318C891.115 182.677 881.606 180.235 877.247 172.865L833.128 98.2641C828.769 90.8934 831.211 81.3846 838.581 77.0256L838.59 77.0205C845.961 72.6615 855.47 75.1029 859.829 82.4736L903.947 157.074C908.306 164.445 905.865 173.954 898.494 178.313L898.485 178.318Z" fill="#FFF8EB"/>
<path d="M1061.19 319.03L906.64 279.36C898.19 277.19 889.58 282.28 887.41 290.73C885.24 299.18 876.63 304.27 868.18 302.1L827.27 291.6C810.37 287.26 793.15 297.45 788.81 314.35C784.47 331.25 794.66 348.47 811.56 352.81L939.3 385.6C947.75 387.77 956.36 382.68 958.53 374.23L966.39 343.63C968.56 335.18 977.17 330.09 985.62 332.26L1053.35 349.65L1066.97 372.68L1075.6 339.05L1084.23 305.42L1061.2 319.04L1061.19 319.03Z" fill="#675F8C"/>
<path d="M899.43 263.43L904.54 269.6C905.3 270.08 906 270.53 906.76 271.01L914.52 273C915.7 274.42 916.54 275.44 917.71 276.86L918.21 284.86C918.54 285.7 918.85 286.47 919.18 287.31L924.29 293.48C924.41 295.32 924.49 296.64 924.6 298.48L920.31 305.25C920.09 306.12 919.88 306.93 919.66 307.8L920.16 315.8C919.17 317.36 918.46 318.47 917.48 320.03L910.03 322.98C909.34 323.55 908.69 324.09 908 324.66L903.71 331.43C901.99 332.11 900.77 332.59 899.05 333.27L891.29 331.28C890.39 331.34 889.56 331.39 888.66 331.45L881.21 334.4C879.42 333.94 878.15 333.61 876.36 333.15L871.25 326.98L869.03 325.57L861.27 323.58C860.09 322.16 859.25 321.14 858.08 319.72L857.58 311.72L856.61 309.27L851.5 303.1L851.19 298.1L855.48 291.33L856.13 288.78L855.63 280.78C856.62 279.22 857.33 278.11 858.31 276.55L865.76 273.6C866.45 273.03 867.1 272.49 867.79 271.92L872.08 265.15C873.8 264.47 875.02 263.99 876.74 263.31L884.5 265.3C885.4 265.24 886.23 265.19 887.13 265.13L894.58 262.18C896.37 262.64 897.64 262.97 899.43 263.43Z" fill="#E8E8E8"/>
<path d="M887.89 306.89C892.64 306.89 896.49 303.04 896.49 298.29C896.49 293.54 892.64 289.69 887.89 289.69C883.14 289.69 879.29 293.54 879.29 298.29C879.29 303.04 883.14 306.89 887.89 306.89Z" fill="#969595"/>
<path fill-rule="evenodd" clip-rule="evenodd" d="M710.913 349.277L753.073 185.027L757.228 186.093L715.068 350.343L710.913 349.277Z" fill="#675F8C"/>
<path fill-rule="evenodd" clip-rule="evenodd" d="M684.573 284.667L699.233 227.567L703.388 228.633L688.728 285.733L684.573 284.667Z" fill="#362C62"/>
<path fill-rule="evenodd" clip-rule="evenodd" d="M668.058 172.303L630.278 319.463L626.123 318.397L663.903 171.237L668.058 172.303Z" fill="#020202"/>
<path d="M913.096 415.008L809.545 388.42C808.406 388.128 807.245 388.814 806.952 389.954L801.924 409.539C801.631 410.678 802.318 411.839 803.457 412.131L907.008 438.719C908.148 439.011 909.309 438.325 909.601 437.185L914.63 417.601C914.922 416.461 914.236 415.3 913.096 415.008Z" fill="#675F8C"/>
<path d="M827.607 418.326L884.782 433.006L877.441 461.599C873.39 477.377 857.285 486.901 841.507 482.85C825.729 478.799 816.205 462.694 820.256 446.916L827.597 418.323L827.607 418.326Z" fill="#362C62"/>
<path d="M848.38 472.56C857.321 472.56 864.57 465.311 864.57 456.37C864.57 447.428 857.321 440.18 848.38 440.18C839.438 440.18 832.19 447.428 832.19 456.37C832.19 465.311 839.438 472.56 848.38 472.56Z" fill="#675F8C"/>
<path d="M454.21 139.95C457.99 150.94 461.1 163.32 461.8 175.29C462.46 185.68 462.15 196.94 464.47 206.21C467.1 217.52 471.94 230.93 477.76 240.77C483.09 249.59 491.59 258.6 497.31 268.55C503.79 279.29 508.86 291.83 512.64 303.13C516.78 315.57 520.19 330.97 520.67 344.94C520.9 348.73 520.94 354.33 521.06 358.15C521.29 365.41 522.13 369.03 523.36 373.3C524.59 377.48 526.36 382.27 528.4 387.42C531.36 394.35 533.69 398.82 537.78 403.6C541.45 407.7 546.39 414.15 549.71 419.3C559 433.33 566.28 451.25 571.06 466.34L451.73 490.11C451.73 485.04 451.67 480.55 451.5 477.03C451.28 473.4 451.19 470.72 448.64 463.95C445 454.72 441.13 445.12 438.76 435.49C436.07 425.03 434.8 415.34 433.99 406.23C433.01 393.71 432.77 378.82 434.66 365.49C435.43 359.82 436.84 353.3 438.03 348.74C439.89 341.76 441.21 338.14 442.08 333.32C442.95 328.62 443.22 323.02 443.16 316.99C442.65 304.05 442.23 296.21 437.38 283.47C434.46 275.99 430.98 266.81 429.13 258.6C427.03 249.76 426.04 241.28 425.42 233.11C424.24 217 425.26 199.12 429.79 183.45C433.81 169.71 435.27 158.07 434.59 143.87L454.2 139.96L454.21 139.95Z" fill="#F1CA68"/>
<path d="M1185.76 291.77L1179.65 299.54L1170.78 301.35L1162.78 302.57L1156.25 297.78L1148.1 292.3L1146.45 281.93L1154.88 275.58L1161.62 269.29L1171.64 267.19L1177.22 276.1L1181.4 282.79L1185.76 291.77Z" fill="#FFF8EB"/>
<path d="M1280.55 266.63L1284.6 275.65L1282.09 284.35L1279.46 292L1272.18 295.57L1263.55 300.24L1253.6 296.89L1251.88 286.48L1249.44 277.59L1252.23 267.74L1262.7 266.93L1270.57 266.33L1280.55 266.63Z" fill="#FFF8EB"/>
<path d="M1154.48 204.88L1158.52 213.91L1156.01 222.6L1153.38 230.25L1146.11 233.82L1137.48 238.5L1127.52 235.14L1125.81 224.73L1123.36 215.84L1126.15 206L1136.63 205.18L1144.5 204.58L1154.48 204.88Z" fill="#FFF8EB"/>
<path d="M1260.48 277.53L1264.53 286.56L1262.02 295.25L1259.39 302.9L1252.12 306.47L1243.48 311.15L1233.53 307.79L1231.81 297.38L1229.37 288.49L1232.16 278.65L1242.63 277.83L1250.51 277.23L1260.48 277.53Z" fill="#F6DC9D"/>
<path d="M1189.06 297.77L1180.28 293.22L1176.84 284.84L1174.15 277.21L1177.63 269.9L1181.49 260.87L1191.37 257.31L1199.19 264.4L1206.63 269.85L1210.56 279.3L1202.86 286.45L1197.06 291.81L1189.06 297.77Z" fill="#F6DC9D"/>
<path d="M1204.78 333.78L1196 329.23L1192.57 320.85L1189.88 313.22L1193.36 305.91L1197.22 296.88L1207.1 293.33L1214.91 300.42L1222.35 305.86L1226.29 315.31L1218.58 322.46L1212.79 327.82L1204.78 333.78Z" fill="#F6DC9D"/>
<path d="M1245.49 282.33L1241.72 291.47L1233.68 295.62L1226.31 298.97L1218.72 296.14L1209.39 293.08L1204.99 283.55L1211.37 275.14L1216.15 267.26L1225.22 262.52L1233.01 269.57L1238.86 274.87L1245.49 282.33Z" fill="#FFF8EB"/>
<path d="M1252.71 70.8599L1248.94 79.9999L1240.9 84.1499L1233.53 87.4999L1225.94 84.6699L1216.61 81.6099L1212.21 72.0699L1218.59 63.6699L1223.37 55.7899L1232.43 51.0499L1240.23 58.0899L1246.07 63.3999L1252.71 70.8599Z" fill="#FFF8EB"/>
<path d="M1260.12 318.59L1256.35 327.73L1248.31 331.88L1240.94 335.23L1233.35 332.4L1224.02 329.34L1219.62 319.81L1226 311.4L1230.78 303.52L1239.85 298.78L1247.64 305.83L1253.49 311.13L1260.12 318.59Z" fill="#FFF8EB"/>
<path d="M1104.47 410.16L1100.7 419.3L1092.66 423.45L1085.29 426.8L1077.7 423.97L1068.37 420.91L1063.97 411.38L1070.35 402.97L1075.13 395.09L1084.19 390.35L1091.99 397.4L1097.83 402.7L1104.47 410.16Z" fill="#F6DC9D"/>
<path d="M1317.98 277.02L1314.21 286.16L1306.16 290.31L1298.79 293.65L1291.2 290.82L1281.88 287.77L1277.47 278.23L1283.86 269.83L1288.63 261.94L1297.7 257.2L1305.49 264.25L1311.34 269.56L1317.98 277.02Z" fill="#F6DC9D"/>
<path d="M1282.36 341.8L1271.44 340.41L1264.64 332.98L1258.91 326.05L1259.74 317.07L1260.3 306.17L1269.26 298.66L1280.14 303.07L1289.99 305.9L1297.72 314.26L1292.43 324.68L1288.43 332.5L1282.36 341.8Z" fill="#F6DC9D"/>
<path d="M1300.93 325.77L1222.57 502.9L1125.8 478.67L1140.13 285.52L1300.93 325.77Z" fill="#FD6632"/>
<path d="M1209.7 302.907L1163.36 488.048L1184.87 493.43L1231.2 308.29L1209.7 302.907Z" fill="#FFF8EB"/>
<path d="M1158.59 486.88L1136.81 481.43L1153.4 288.84L1175.17 294.29L1158.59 486.88Z" fill="#FFF8EB"/>
<path d="M1287.67 322.45L1211.56 500.14L1189.77 494.69L1265.89 317L1287.67 322.45Z" fill="#FFF8EB"/>
<path d="M1240.12 169.09L1249.11 164.99L1257.82 167.45L1265.49 170.03L1269.1 177.29L1273.83 185.89L1270.53 195.86L1260.13 197.64L1251.26 200.14L1241.4 197.41L1240.52 186.94L1239.87 179.07L1240.12 169.09Z" fill="#F6DC9D"/>
<path d="M434.378 89.6362C443.195 87.8808 451.79 93.6129 453.547 102.44L455.353 111.512L423.381 117.877L421.574 108.805C419.819 99.9883 425.551 91.3936 434.378 89.6362Z" fill="#362C62"/>
<path d="M410.26 137.51L372.89 134.47L437.99 107.79L508.34 107.49L474.99 124.61C455.03 134.86 432.61 139.32 410.25 137.5L410.26 137.51Z" fill="#E8E8E8"/>
<path d="M442.29 129.33C437.52 130.28 433.71 133.86 432.47 138.56L430.88 144.6L442.7 142.25L446.86 141.42L458.68 139.07L454.89 134.1C451.94 130.23 447.05 128.38 442.29 129.33Z" fill="#969595"/>
<path d="M400.85 132.86C402.629 132.86 404.07 131.418 404.07 129.64C404.07 127.862 402.629 126.42 400.85 126.42C399.072 126.42 397.63 127.862 397.63 129.64C397.63 131.418 399.072 132.86 400.85 132.86Z" fill="#FD6632"/>
<path d="M416.81 129.68C418.589 129.68 420.03 128.238 420.03 126.46C420.03 124.682 418.589 123.24 416.81 123.24C415.032 123.24 413.59 124.682 413.59 126.46C413.59 128.238 415.032 129.68 416.81 129.68Z" fill="#FD6632"/>
<path d="M432.781 126.5C434.559 126.5 436.001 125.058 436.001 123.28C436.001 121.502 434.559 120.06 432.781 120.06C431.002 120.06 429.561 121.502 429.561 123.28C429.561 125.058 431.002 126.5 432.781 126.5Z" fill="#FD6632"/>
<path d="M448.75 123.32C450.529 123.32 451.97 121.878 451.97 120.1C451.97 118.322 450.529 116.88 448.75 116.88C446.972 116.88 445.53 118.322 445.53 120.1C445.53 121.878 446.972 123.32 448.75 123.32Z" fill="#FD6632"/>
<path d="M464.72 120.14C466.499 120.14 467.94 118.698 467.94 116.92C467.94 115.142 466.499 113.7 464.72 113.7C462.942 113.7 461.5 115.142 461.5 116.92C461.5 118.698 462.942 120.14 464.72 120.14Z" fill="#FD6632"/>
<path d="M480.68 116.96C482.459 116.96 483.9 115.518 483.9 113.74C483.9 111.962 482.459 110.52 480.68 110.52C478.902 110.52 477.46 111.962 477.46 113.74C477.46 115.518 478.902 116.96 480.68 116.96Z" fill="#FD6632"/>
</g>
</g>
<defs>
<clipPath id="clip0_1528_80842">
<rect width="1335" height="464" fill="white"/>
</clipPath>
</defs>
</svg>
