<svg width="1335" height="464" viewBox="0 0 1335 464" fill="none" xmlns="http://www.w3.org/2000/svg">
<g clip-path="url(#clip0_1528_78738)">
<mask id="mask0_1528_78738" style="mask-type:luminance" maskUnits="userSpaceOnUse" x="0" y="0" width="1336" height="464">
<path d="M1335.5 0H0.5V464H1335.5V0Z" fill="white"/>
</mask>
<g mask="url(#mask0_1528_78738)">
<path d="M1335.5 -0.199951H0.5V464.1H1335.5V-0.199951Z" fill="#C4E2F6"/>
<path d="M177.3 123.6C237.5 123.6 286.4 172.5 286.4 232.7V465H68.2002V232.7C68.2002 172.5 117.1 123.6 177.3 123.6Z" fill="#9CCEEF"/>
<path d="M564.6 123.6C624.8 123.6 673.7 172.5 673.7 232.7V465H455.5V232.7C455.5 172.5 504.4 123.6 564.6 123.6Z" fill="#9CCEEF"/>
<path d="M951.8 123.6C1012 123.6 1060.9 172.5 1060.9 232.7V465H842.8V232.7C842.8 172.5 891.6 123.6 951.8 123.6Z" fill="#9CCEEF"/>
<path d="M940.4 232.8C933.2 230 925.3 228.5 917.1 228.5C881.2 228.5 852.1 257.6 852.1 293.5C852.1 329.4 881.2 358.5 917.1 358.5C925.3 358.5 933.2 357 940.4 354.2C964.8 344.8 982.1 321.2 982.1 293.5C982.1 265.8 964.8 242.2 940.4 232.8ZM940.4 331.8C933.6 335.9 925.6 338.3 917.1 338.3C892.3 338.3 872.3 318.2 872.3 293.5C872.3 268.7 892.4 248.7 917.1 248.7C925.6 248.7 933.6 251.1 940.4 255.2C953.3 263.1 961.9 277.3 961.9 293.5C961.9 309.8 953.3 324 940.4 331.8Z" fill="#989797"/>
<path d="M1243.2 228.5C1241.9 228.5 1240.6 228.5 1239.3 228.6C1205.2 230.6 1178.2 258.9 1178.2 293.5C1178.2 328.1 1205.2 356.4 1239.3 358.4C1240.6 358.5 1241.9 358.5 1243.2 358.5C1279.1 358.5 1308.2 329.4 1308.2 293.5C1308.2 257.6 1279.1 228.5 1243.2 228.5ZM1243.2 338.4C1241.9 338.4 1240.6 338.3 1239.3 338.2C1216.4 336.2 1198.4 317 1198.4 293.5C1198.4 270.1 1216.4 250.8 1239.3 248.8C1240.6 248.7 1241.9 248.6 1243.2 248.6C1268 248.6 1288 268.7 1288 293.4C1288.1 318.3 1268 338.4 1243.2 338.4Z" fill="#989797"/>
<path d="M982.1 293.5C982.1 321.2 964.8 344.8 940.4 354.2V331.8C953.3 323.9 961.9 309.7 961.9 293.5C961.9 277.3 953.3 263.1 940.4 255.2V232.8C964.8 242.2 982.1 265.8 982.1 293.5Z" fill="#76704C"/>
<path d="M1198.4 293.5C1198.4 316.9 1216.4 336.2 1239.3 338.2V358.4C1205.2 356.4 1178.2 328.1 1178.2 293.5C1178.2 258.9 1205.2 230.6 1239.3 228.6V248.8C1216.3 250.8 1198.4 270.1 1198.4 293.5Z" fill="#76704C"/>
<path d="M1171 115.6L1152.1 165.8L1146.9 179.7L1104 293.9H1057.3L1014.4 179.7L1009.2 165.8L990.3 115.6H1171Z" fill="#989797"/>
<path d="M1149.2 464H1011.9L1019.8 423.3L1025.4 394.6L1027.7 382.6H1133.5L1141.4 423.3L1149.2 464Z" fill="#989797"/>
<path d="M1141.4 423.3L1024.5 399.1L1027.7 382.6H1133.5L1141.4 423.3Z" fill="#3D3D3D"/>
<path d="M1190.9 293.9C1190.9 300.6 1190.3 307.1 1189.2 313.5C1180 365.1 1134.9 404.2 1080.6 404.2C1026.3 404.2 981.2 365.1 972 313.5C970.9 307.1 970.3 300.6 970.3 293.9C970.3 287.2 970.9 280.7 972 274.3C981.2 222.7 1026.3 183.6 1080.6 183.6C1134.9 183.6 1179.9 222.7 1189.2 274.3C1190.3 280.7 1190.9 287.3 1190.9 293.9Z" fill="#989797"/>
<path d="M1010 293.9C1010 304.7 1001.2 313.5 990.4 313.5H972C970.9 307.2 970.3 300.6 970.3 293.9C970.3 287.2 970.9 280.7 972 274.3H990.4C1001.2 274.4 1010 283.1 1010 293.9Z" fill="#CBCBCB"/>
<path d="M1036.9 312.4C1044.7 312.4 1051 303.9 1051 293.4C1051 282.9 1044.7 274.4 1036.9 274.4C1029.1 274.4 1022.8 282.9 1022.8 293.4C1022.8 303.9 1029.2 312.4 1036.9 312.4Z" fill="#CBCBCB"/>
<path d="M1190.9 293.9C1190.9 300.6 1190.3 307.1 1189.2 313.5H1170.8C1160 313.5 1151.2 304.7 1151.2 293.9C1151.2 283.1 1160 274.3 1170.8 274.3H1189.2C1190.3 280.7 1190.9 287.2 1190.9 293.9Z" fill="#CBCBCB"/>
<path d="M1152.1 165.9L1146.9 179.8H1014.3L1009.1 165.9H1152.1Z" fill="#CBCBCB"/>
<path d="M1149.2 464H1011.9L1019.8 423.3H1141.4L1149.2 464Z" fill="#CBCBCB"/>
<path d="M1124.2 313.5C1132 313.5 1138.3 305 1138.3 294.5C1138.3 284 1132 275.5 1124.2 275.5C1116.4 275.5 1110.1 284 1110.1 294.5C1110.1 305 1116.4 313.5 1124.2 313.5Z" fill="#CBCBCB"/>
<path d="M1080.6 261.2L1086.9 278.4L1103.5 270.7L1095.8 287.3L1113 293.6L1095.8 299.9L1103.5 316.5L1086.9 308.8L1080.6 326L1074.3 308.8L1057.7 316.5L1065.4 299.9L1048.2 293.6L1065.4 287.3L1057.7 270.7L1074.3 278.4L1080.6 261.2Z" fill="#CBCBCB"/>
<path d="M1080.6 280.9L1083 287.6L1089.4 284.6L1086.4 291.1L1093.1 293.5L1086.4 296L1089.4 302.5L1083 299.5L1080.6 306.2L1078.1 299.5L1071.6 302.5L1074.6 296L1067.9 293.5L1074.6 291.1L1071.6 284.6L1078.1 287.6L1080.6 280.9Z" fill="#76704C"/>
<path d="M940.4 232.8C933.2 230 925.3 228.5 917.1 228.5C881.2 228.5 852.1 257.6 852.1 293.5C852.1 329.4 881.2 358.5 917.1 358.5C925.3 358.5 933.2 357 940.4 354.2C964.8 344.8 982.1 321.2 982.1 293.5C982.1 265.8 964.8 242.2 940.4 232.8ZM940.4 331.8C933.6 335.9 925.6 338.3 917.1 338.3C892.3 338.3 872.3 318.2 872.3 293.5C872.3 268.7 892.4 248.7 917.1 248.7C925.6 248.7 933.6 251.1 940.4 255.2C953.3 263.1 961.9 277.3 961.9 293.5C961.9 309.8 953.3 324 940.4 331.8Z" fill="#CBCBCB"/>
<path d="M1243.2 228.5C1241.9 228.5 1240.6 228.5 1239.3 228.6C1205.2 230.6 1178.2 258.9 1178.2 293.5C1178.2 328.1 1205.2 356.4 1239.3 358.4C1240.6 358.5 1241.9 358.5 1243.2 358.5C1279.1 358.5 1308.2 329.4 1308.2 293.5C1308.2 257.6 1279.1 228.5 1243.2 228.5ZM1243.2 338.4C1241.9 338.4 1240.6 338.3 1239.3 338.2C1216.4 336.2 1198.4 317 1198.4 293.5C1198.4 270.1 1216.4 250.8 1239.3 248.8C1240.6 248.7 1241.9 248.6 1243.2 248.6C1268 248.6 1288 268.7 1288 293.4C1288.1 318.3 1268 338.4 1243.2 338.4Z" fill="#CBCBCB"/>
<path d="M982.1 293.5C982.1 321.2 964.8 344.8 940.4 354.2V331.8C953.3 323.9 961.9 309.7 961.9 293.5C961.9 277.3 953.3 263.1 940.4 255.2V232.8C964.8 242.2 982.1 265.8 982.1 293.5Z" fill="#5A5959"/>
<path d="M940.9 332.7L939.9 331C953.1 323 960.9 308.9 960.9 293.5H962.9C962.9 309.6 954.7 324.3 940.9 332.7Z" fill="#313030"/>
<path d="M1198.4 293.5C1198.4 316.9 1216.4 336.2 1239.3 338.2V358.4C1205.2 356.4 1178.2 328.1 1178.2 293.5C1178.2 258.9 1205.2 230.6 1239.3 228.6V248.8C1216.3 250.8 1198.4 270.1 1198.4 293.5Z" fill="#5A5959"/>
<path d="M1199.4 293.5H1197.4C1197.4 269.9 1215.8 249.9 1239.2 247.8L1239.4 249.8C1216.9 251.8 1199.4 271 1199.4 293.5Z" fill="#3D3D3D"/>
<path d="M1239.2 339.2C1215.8 337.2 1197.4 317.1 1197.4 293.5H1199.4C1199.4 316 1217 335.2 1239.4 337.2L1239.2 339.2Z" fill="#313030"/>
<path d="M1171 115.6L1152.1 165.8L1146.9 179.7L1104 293.9H1057.3L1014.4 179.7L1009.2 165.8L990.3 115.6H1171Z" fill="#CBCBCB"/>
<path d="M1149.2 464H1011.9L1019.8 423.3L1025.4 394.6L1027.7 382.6H1133.5L1141.4 423.3L1149.2 464Z" fill="#989797"/>
<path d="M1141.4 423.3L1024.5 399.1L1027.7 382.6H1133.5L1141.4 423.3Z" fill="#5A5959"/>
<path d="M1190.9 293.9C1190.9 300.6 1190.3 307.1 1189.2 313.5C1180 365.1 1134.9 404.2 1080.6 404.2C1026.3 404.2 981.2 365.1 972 313.5C970.9 307.1 970.3 300.6 970.3 293.9C970.3 287.2 970.9 280.7 972 274.3C981.2 222.7 1026.3 183.6 1080.6 183.6C1134.9 183.6 1179.9 222.7 1189.2 274.3C1190.3 280.7 1190.9 287.3 1190.9 293.9Z" fill="#CBCBCB"/>
<path d="M1010 293.9C1010 304.7 1001.2 313.5 990.4 313.5H972C970.9 307.2 970.3 300.6 970.3 293.9C970.3 287.2 970.9 280.7 972 274.3H990.4C1001.2 274.4 1010 283.1 1010 293.9Z" fill="#989797"/>
<path d="M1036.9 312.4C1044.7 312.4 1051 303.9 1051 293.4C1051 282.9 1044.7 274.4 1036.9 274.4C1029.1 274.4 1022.8 282.9 1022.8 293.4C1022.8 303.9 1029.2 312.4 1036.9 312.4Z" fill="#989797"/>
<path d="M1036.9 309.6C1030.1 309.6 1024.6 302.3 1024.6 293.4C1024.6 284.5 1030.1 277.2 1036.9 277.2C1043.7 277.2 1049.2 284.5 1049.2 293.4C1049.2 302.3 1043.7 309.6 1036.9 309.6ZM1036.9 279.1C1031.2 279.1 1026.6 285.5 1026.6 293.3C1026.6 301.1 1031.2 307.5 1036.9 307.5C1042.6 307.5 1047.2 301.1 1047.2 293.3C1047.2 285.5 1042.6 279.1 1036.9 279.1Z" fill="#5A5959"/>
<path d="M1190.9 293.9C1190.9 300.6 1190.3 307.1 1189.2 313.5H1170.8C1160 313.5 1151.2 304.7 1151.2 293.9C1151.2 283.1 1160 274.3 1170.8 274.3H1189.2C1190.3 280.7 1190.9 287.2 1190.9 293.9Z" fill="#CBCBCB"/>
<path d="M1152.1 165.9L1146.9 179.8H1014.3L1009.1 165.9H1152.1Z" fill="#989797"/>
<path d="M1149.2 464H1011.9L1019.8 423.3H1141.4L1149.2 464Z" fill="#CBCBCB"/>
<path d="M1124.2 313.5C1132 313.5 1138.3 305 1138.3 294.5C1138.3 284 1132 275.5 1124.2 275.5C1116.4 275.5 1110.1 284 1110.1 294.5C1110.1 305 1116.4 313.5 1124.2 313.5Z" fill="#989797"/>
<path d="M1081.3 263.3L1086.5 277.4C1086.7 277.9 1087.2 278.1 1087.7 277.9L1101.3 271.6C1102 271.3 1102.8 272 1102.4 272.7L1096.1 286.4C1095.9 286.8 1096.1 287.4 1096.6 287.5L1110.7 292.7C1111.4 293 1111.4 294 1110.7 294.3L1096.6 299.5C1096.1 299.7 1095.9 300.2 1096.1 300.7L1102.4 314.3C1102.7 315 1102 315.8 1101.3 315.4L1087.7 309.1C1087.2 308.9 1086.7 309.1 1086.5 309.6L1081.3 323.7C1081 324.4 1080 324.4 1079.7 323.7L1074.5 309.6C1074.3 309.1 1073.8 308.9 1073.4 309.1L1059.7 315.4C1059 315.7 1058.2 315 1058.6 314.3L1064.9 300.7C1065.1 300.2 1064.9 299.7 1064.4 299.5L1050.3 294.3C1049.6 294 1049.6 293 1050.3 292.7L1064.4 287.5C1064.9 287.3 1065.1 286.8 1064.9 286.4L1058.6 272.7C1058.3 272 1059 271.2 1059.7 271.6L1073.4 277.9C1073.8 278.1 1074.4 277.9 1074.5 277.4L1079.7 263.3C1080 262.6 1081.1 262.6 1081.3 263.3Z" fill="#989797"/>
<path d="M1080.9 281.8L1082.9 287.2C1083 287.4 1083.2 287.5 1083.4 287.4L1088.6 285C1088.9 284.9 1089.2 285.2 1089.1 285.5L1086.7 290.7C1086.6 290.9 1086.7 291.1 1086.9 291.2L1092.3 293.2C1092.6 293.3 1092.6 293.8 1092.3 293.9L1086.9 295.9C1086.7 296 1086.6 296.2 1086.7 296.4L1089.1 301.6C1089.2 301.9 1088.9 302.2 1088.6 302.1L1083.4 299.7C1083.2 299.6 1083 299.7 1082.9 299.9L1080.9 305.3C1080.8 305.6 1080.3 305.6 1080.2 305.3L1078.2 299.9C1078.1 299.7 1077.9 299.6 1077.7 299.7L1072.5 302.1C1072.2 302.2 1071.9 301.9 1072 301.6L1074.4 296.4C1074.5 296.2 1074.4 296 1074.2 295.9L1068.8 293.9C1068.5 293.8 1068.5 293.3 1068.8 293.2L1074.2 291.2C1074.4 291.1 1074.5 290.9 1074.4 290.7L1072 285.5C1071.9 285.2 1072.2 284.9 1072.5 285L1077.7 287.4C1077.9 287.5 1078.1 287.4 1078.2 287.2L1080.2 281.8C1080.3 281.5 1080.8 281.5 1080.9 281.8Z" fill="#5A5959"/>
<path d="M1124.2 310.7C1117.4 310.7 1111.9 303.4 1111.9 294.5C1111.9 285.6 1117.4 278.3 1124.2 278.3C1131 278.3 1136.5 285.6 1136.5 294.5C1136.5 303.4 1130.9 310.7 1124.2 310.7ZM1124.2 280.3C1118.5 280.3 1113.9 286.7 1113.9 294.5C1113.9 302.3 1118.5 308.7 1124.2 308.7C1129.9 308.7 1134.5 302.3 1134.5 294.5C1134.5 286.7 1129.8 280.3 1124.2 280.3Z" fill="#5A5959"/>
<path d="M451.2 375.5C454.8 294.4 395.4 241.6 459.9 177.2C461.7 175.4 463.3 173.5 464.5 171.5C466.8 167.6 467.3 163.6 464 159.8C459.8 155 456.5 149.5 454.2 143.5C451.9 137.5 450.6 130.9 450.6 124.1C450.6 115.9 447.3 108.3 441.8 102.8C438.7 99.7 434.9 97.2 430.6 95.7L396.7 83.7V29.8C422.9 39.1 450.2 45 477.8 47.5C481.7 47.9 485.2 45 485.7 41.1L487.7 24.4H514.1L518.7 34.5C522.9 43.5 531.5 49.6 541.4 50.8C564.3 53.3 586.8 58.5 608.6 66.2L613.6 68V121.9L559.7 102.8V124.1C559.7 137.8 554.7 150.3 546.4 159.9C541.4 165.6 543.4 174.5 550.4 177.3C588.5 192.5 615 249.5 615 463.9H422C442.3 430.6 450 401.6 451.2 375.5Z" fill="#FFF8EB"/>
<path d="M613.6 68C613.6 68 583.4 91.7 613.6 121.9V68Z" fill="#CBCBCB"/>
<path d="M396.6 83.7C396.6 83.7 445.7 67.1 396.6 29.8V83.7Z" fill="#989797"/>
<path d="M487.6 24.5C487.6 24.5 498 40.4 514 24.5H487.6Z" fill="#CBCBCB"/>
<path d="M637.3 375.5H402.4V464.8H637.3V375.5Z" fill="#CBCBCB"/>
<path d="M588.3 401.1H451.3V439.1H588.3V401.1Z" fill="#989797"/>
<path d="M466.8 375.5L449.5 282.1C449.2 280.3 451.7 279.6 452.4 281.2L493.3 375.5L485.1 318.7C484.8 316.5 487.8 315.6 488.7 317.7L514.3 375.6H466.8V375.5Z" fill="#CBCBCB"/>
<path d="M533.191 55.5208L455.348 109.984L457.068 112.442L534.911 57.979L533.191 55.5208Z" fill="#CBCBCB"/>
<path d="M482 173.5H479V150.5C479 114.8 496.5 81.2001 525.8 60.7001L527.5 63.2001C499 83.1001 482 115.8 482 150.5V173.5Z" fill="#CBCBCB"/>
<path d="M578.1 361.5L533 201.6C528.6 185.9 514.1 175 497.9 175V172C515.5 172 531.1 183.8 535.9 200.8L581 360.7L578.1 361.5Z" fill="#CBCBCB"/>
<path d="M595.1 328.7L576.2 301C559 275.7 546.1 248 537.8 218.6L540.7 217.8C548.9 246.9 561.7 274.4 578.7 299.4L597.5 327.1L595.1 328.7Z" fill="#CBCBCB"/>
<path d="M793.5 330.4H674.7V464.8H793.5V330.4Z" fill="#FFF8EB"/>
<path d="M788.8 277.9L764.6 302.1C758.7 308 751.5 311.8 744 313.6C740.8 314.4 737.5 314.7 734.2 314.7C730.9 314.7 727.6 314.3 724.4 313.6C716.9 311.8 709.7 308 703.8 302.1L679.5 277.9L723.9 265L734.1 262L743.7 264.8L760.4 269.7L788.8 277.9Z" fill="#5A5959"/>
<path d="M747.2 240.3H754.6L752.4 234.3C750.9 230.3 747.2 227.6 742.9 227.6H743C745.9 227.6 748.3 225.2 748.3 222.3V220.5C748.3 218.6 746.7 217 744.8 217C742.9 217 741.3 218.6 741.3 220.5V217.9C741.3 216.1 739.8 214.6 738 214.6C736.2 214.6 734.7 216.1 734.7 217.9V216.5C734.7 213.8 732.5 211.6 729.8 211.6C727.1 211.6 724.9 213.8 724.9 216.5V217.6C724.9 220.4 722.7 222.6 719.9 222.6H718.4C715.9 222.6 713.9 224.6 713.9 227.1C713.9 229.6 715.9 231.6 718.4 231.6H720.7C718.4 231.6 716.5 233.5 716.5 235.8C716.5 238.1 718.4 240 720.7 240H724.2C721.5 240 719.2 242.2 719.2 245C719.2 247.8 721.4 250 724.2 250H724.9L723.6 268.8H743.7V255.7H746.8C749.8 255.7 751.9 252.7 750.9 249.8L747.2 240.3Z" fill="#CBCBCB"/>
<path d="M788.8 277.9L744 313.6C740.8 314.4 737.5 314.7 734.2 314.7C730.9 314.7 727.6 314.3 724.4 313.6L679.5 277.9L692.8 268.7C694.2 267.7 696.1 267.8 697.4 268.9C697.6 267.2 698.4 265.7 699.6 264.6C700.8 263.5 702.3 262.8 704 262.7L710 262.3C712.4 262.1 714.8 263.2 716.3 265.2L719.8 262.7C721.6 261.5 724 262.8 723.9 265L734.1 278.8L743.7 264.8C743.7 262.5 745.5 260.8 747.7 260.8C748 260.8 748.4 260.8 748.7 260.9L756.9 263.1C759.7 263.9 761.3 266.9 760.4 269.6C761.9 268.8 763.6 268.5 765.2 268.5C766.7 268.5 768.2 268.8 769.6 269.4L788.8 277.9Z" fill="#CBCBCB"/>
<path d="M727.1 300.9C726.8 300.9 726.6 300.8 726.4 300.6L696.8 269.6L698.2 268.2L724.9 296.1L715.4 265.4L717.3 264.8L728.1 299.6C728.2 300 728.1 300.5 727.7 300.8C727.4 300.8 727.2 300.9 727.1 300.9Z" fill="#989797"/>
<path d="M742.91 264.149L728.782 284.042L730.413 285.2L744.54 265.307L742.91 264.149Z" fill="#989797"/>
<path d="M759.631 269.031L732.075 306.487L733.686 307.672L761.242 270.216L759.631 269.031Z" fill="#989797"/>
<path d="M763.1 312.1H705.5C705.5 316.7 701.8 320.5 697.2 320.5H689.1V330.5H779.5V320.5H771.4C766.8 320.4 763 316.7 763.1 312.1Z" fill="#989797"/>
<path d="M896 240.2L892.7 247.8L895.5 264H883.1L882.1 252L878.3 251.5C874.4 251 871.8 247.3 872.7 243.5L874 237.7L872 236L873.7 235.4C874.2 235.2 874.6 234.8 874.7 234.2L874.9 233.2C875.4 231 876.5 229.1 878.1 227.7C880.1 225.8 882.8 224.6 885.7 224.6C893.8 224.7 899.2 232.9 896 240.2Z" fill="#A16135"/>
<path d="M778.4 441.5H782C798.3 441.5 811.5 428.1 811.1 411.7L810 360.6H794L778.4 441.5Z" fill="#A5D9EC"/>
<path d="M772.7 451.2H760.2V447.2H772.7C774.2 447.2 775.6 446.1 775.8 444.6L792.1 358.7C794.4 346.6 803.1 337 814.9 333.4L826.3 330L827.4 333.8L816 337.2C805.7 340.3 798 348.8 796 359.4L779.7 445.3C779.1 448.7 776.1 451.2 772.7 451.2Z" fill="#041E49"/>
<path d="M905.9 427.5L910.2 449.3C910.9 452.7 908.6 456 905.2 456.6L892.8 458.9C891.7 459.1 890.9 460.1 890.9 461.2C890.9 462.5 892 463.6 893.3 463.6H922.9L916.4 427.5H905.9Z" fill="#FFECE1"/>
<path d="M957 436.5L968.9 463.6H993.5C995.3 463.6 996.8 462.1 996.8 460.3C996.8 458.6 995.5 457.2 993.8 457L981.4 455.7C978.1 455.3 975.2 453.2 974 450.1L968.7 436.6L957 436.5Z" fill="#FFECE1"/>
<path d="M893.7 446.7L869.9 332.6H922.5L982 446.7H947.8L911.7 373.5H911.6L928.3 446.7H893.7Z" fill="#6D3C1D"/>
<path d="M929 338.7H867.5L867.2 332.8L866.7 322.7L854.9 328.5L838 336.7L830 319.7L865.7 298.6V287.6C865.7 282.5 867.7 277.6 871.2 273.9L874.7 270.2L874.2 260.3L910.1 249.8L929 338.7Z" fill="#FFCD5C"/>
<path d="M846.4 333.3L845.7 331.9L893.5 308.7C899.4 305.8 903.2 299.7 903.2 293.1V281H904.8V293.1C904.8 300.3 900.6 306.9 894.2 310.1L846.4 333.3Z" fill="#F9AF00"/>
<path d="M912.7 262.3L943.8 319.9L927.6 332.6L912.7 262.3Z" fill="#FBC400"/>
<path d="M925.76 361.719L897.775 367.614L898.188 369.571L926.173 363.676L925.76 361.719Z" fill="#191716"/>
<path d="M935.6 326.4C938.5 330.5 942.1 334 946.3 336.8L950.1 339.3L948.4 344.7L937.8 339.4V343C937.8 343.9 937.1 344.6 936.2 344.6C935.3 344.6 934.6 343.9 934.6 343V339.6C934.6 336.6 933.6 333.7 931.6 331.4L930.7 330.3L935.6 326.4Z" fill="#A16135"/>
<path d="M832.5 323.2L824 328.1C823.1 328.6 822.1 328.9 821 328.9H817.6C816.6 328.9 815.8 329.7 815.8 330.7C815.8 331.7 816.6 332.5 817.6 332.5H818.5C820.3 332.5 821.7 333.9 821.7 335.7C821.7 338.5 824 340.8 826.8 340.8C829.6 340.8 831.9 338.5 831.9 335.7V333.2L837.8 330.1L832.5 323.2Z" fill="#A16135"/>
<path d="M767.8 443.4H733.3C725.7 443.4 719 448.3 716.7 455.6L714.2 463.6H767.8V443.4Z" fill="#FBC400"/>
<path d="M1167.8 464.6H972.8C965.3 464.6 958.1 462.5 951.8 458.5C944.2 453.7 935.2 451.8 926.3 453.1L852.8 464.2C850.9 464.5 849.1 464.6 847.2 464.6C829.8 464.6 814.8 452.8 810.8 435.9L792.9 361L794.8 360.5L812.7 435.4C816.5 451.4 830.7 462.6 847.2 462.6C848.9 462.6 850.7 462.5 852.5 462.2L926 451.1C935.3 449.7 944.9 451.7 952.8 456.8C958.8 460.6 965.6 462.6 972.7 462.6H1167.7V464.6H1167.8Z" fill="#041E49"/>
<path d="M896 240.2L892.7 247.8H889.8C887 247.8 884.9 245.3 885.3 242.6L885.7 239.7C885.9 238.4 884.9 237.3 883.6 237.3C882.6 237.3 881.7 238 881.5 239L881.1 240.8H879.5V233C879.5 230.8 881.3 229 883.5 229H884.5L878.2 227.9C880.2 226 882.9 224.8 885.8 224.8C893.8 224.7 899.2 232.9 896 240.2Z" fill="#FFECE1"/>
<path d="M1160.9 427.6L1162 453.2C1162 454.2 1161.6 455.2 1160.7 455.8L1157.8 457.8C1157 458.4 1156.5 459.3 1156.5 460.3V464H1171.8V427.7L1160.9 427.6Z" fill="#313030"/>
<path d="M1200.3 430.5L1203 464H1227C1228.4 464 1229.6 462.8 1229.6 461.4C1229.6 460.1 1228.7 459 1227.4 458.8L1217.5 457C1214.6 456.5 1212.5 454 1212.6 451.1L1212.7 430.5H1200.3Z" fill="#313030"/>
<path d="M1164.5 321.6L1160.3 335.9C1156.5 348.9 1154.5 362.5 1154.5 376.3V449.4H1177.9L1183.3 366.8H1188.5L1197.4 449.4H1224.6L1211.9 321.6H1164.5Z" fill="#6D3C1D"/>
<path d="M1135 326.3L1131.8 341.2C1131.5 342.7 1130.8 344.1 1129.8 345.3L1128 347.3C1126.5 349 1125.6 351.1 1125.3 353.3L1124.1 363.5H1135L1138 348.5V356.1H1141L1142 350.8C1142.2 349.9 1142.1 349 1141.9 348.1L1141.2 345.9C1140.7 344.4 1140.8 342.7 1141.2 341.2L1145.1 328L1135 326.3Z" fill="#FFAC7D"/>
<path d="M1221.3 226.3C1221.3 226.3 1230.8 252.2 1265.7 234.9L1259.9 211.1L1244.7 224.7L1227.3 210L1221.3 226.3Z" fill="#FFF8EB"/>
<path d="M1248 261.3L1249.1 246.1C1249.2 244.6 1249.7 243.1 1250.5 241.8L1252 239.5C1253.2 237.6 1253.8 235.4 1253.8 233.2L1253.6 222.9L1242.8 224.4L1241.9 239.7L1240.8 232.1L1237.8 232.5L1237.5 237.9C1237.5 238.8 1237.6 239.7 1238 240.6L1239 242.7C1239.7 244.2 1239.9 245.8 1239.6 247.4L1237.5 261L1248 261.3Z" fill="#FFAC7D"/>
<path d="M1188.3 253.8L1187.6 245.6L1190 244.5C1193.4 242.9 1194.7 238.7 1192.8 235.4L1187.5 226.3C1184.4 221 1177.5 219.2 1172.2 222.4C1166.2 226 1165 234.2 1169.7 239.4L1176.2 246.5L1176.6 253.9H1188.3V253.8Z" fill="#FFAC7D"/>
<path d="M1172.3 255.9L1171.3 249.8L1193.8 253.9L1172.3 255.9Z" fill="#FBC400"/>
<path d="M1191.2 232.7C1192 232.7 1192.6 232.1 1192.6 231.3C1192.6 230.5 1192 229.9 1191.2 229.9C1190.4 229.9 1189.8 230.5 1189.8 231.3C1189.7 232.1 1190.4 232.7 1191.2 232.7Z" fill="#FFAC7D"/>
<path d="M1235.6 257L1236.9 248.7H1250.1V257H1235.6Z" fill="#FBF9EA"/>
<path d="M1128.8 341.4L1131.3 333.4L1144.4 335.4L1143.2 343.6L1128.8 341.4Z" fill="#FBF9EA"/>
<path d="M1176.2 246.4C1181.4 246.4 1185.3 241.5 1184.2 236.4L1183.3 232.4C1183.2 232.1 1183.3 231.8 1183.5 231.6C1184.1 231 1185 231.4 1185 232.2V234.2C1185 234.2 1191.6 225.4 1182.5 220.7C1173.4 216 1164.8 224.6 1166.7 231.9C1166.8 232 1162.2 236.9 1176.2 246.4Z" fill="#313030"/>
<path d="M1161.8 246.4C1167.1 246.4 1171.5 242.1 1171.5 236.7C1171.5 231.3 1167.2 227 1161.8 227C1156.4 227 1152.1 231.3 1152.1 236.7C1152.1 242.1 1156.4 246.4 1161.8 246.4Z" fill="#313030"/>
<path d="M1232.8 252.9L1229.5 271.9L1209.1 257C1205.5 254.4 1201 253.1 1196.6 253.6L1179.8 255.3L1160.9 256.6C1153.9 257.1 1147.9 262 1146.1 268.8L1128.2 336.8L1145.1 339.7L1160.2 292.5V325.9H1216.1L1209.5 287.8C1211.1 297.1 1219.1 304 1228.6 304.1C1238.6 304.3 1247.5 295.8 1248.5 285.9L1251.8 252.8L1232.8 252.9Z" fill="#FFCD5C"/>
<path d="M1213.2 308.6H1200.3V312.8H1214L1213.2 308.6Z" fill="#FBC400"/>
<path d="M902.2 300.9C901.1 306.1 898.1 310.7 893.7 313.8L867.2 332.8L866.7 322.7L854.9 328.5L854.7 328.4L883.2 314.6C891.8 311.5 896.6 308.1 899.2 305.4C901.5 303 902.1 301.3 902.2 300.9Z" fill="#FBC400"/>
<path d="M741.8 237.7C742.6 237.7 743.3 237 743.3 236.2C743.3 235.4 742.6 234.7 741.8 234.7C741 234.7 740.3 235.4 740.3 236.2C740.3 237 741 237.7 741.8 237.7Z" fill="#313030"/>
<path d="M740.46 220.066L724.114 249.651L725.865 250.618L742.211 221.033L740.46 220.066Z" fill="#5A5959"/>
<path d="M723.9 241L725.3 241.8C726.9 242.7 727.5 244.8 726.5 246.5L725.7 247.9L724.3 247.1C722.7 246.2 722.1 244.1 723.1 242.4L723.9 241Z" fill="#5A5959"/>
<path d="M728.3 232.3L729.7 233.1C731.3 234 731.9 236.1 730.9 237.8L730.1 239.2L728.7 238.4C727.1 237.5 726.5 235.4 727.5 233.7L728.3 232.3Z" fill="#5A5959"/>
<path d="M733.8 222.8L735.2 223.6C736.8 224.5 737.4 226.6 736.4 228.3L735.6 229.7L734.2 228.9C732.6 228 732 225.9 733 224.2L733.8 222.8Z" fill="#5A5959"/>
<path d="M729.4 243.8L730.2 242.4C731.1 240.8 733.2 240.2 734.9 241.2L736.3 242L735.5 243.4C734.6 245 732.5 245.6 730.8 244.6L729.4 243.8Z" fill="#5A5959"/>
<path d="M734.5 234L735.3 232.6C736.2 231 738.3 230.4 740 231.4L741.4 232.2L740.6 233.6C739.7 235.2 737.6 235.8 735.9 234.8L734.5 234Z" fill="#5A5959"/>
<path d="M739.8 224.8L740.6 223.4C741.5 221.8 743.6 221.2 745.3 222.2L746.7 223L745.9 224.4C745 226 742.9 226.6 741.2 225.6L739.8 224.8Z" fill="#5A5959"/>
<path d="M748.2 242.9H744.7C744.7 242.9 746.7 244.5 748.8 244.5L748.2 242.9Z" fill="#313030"/>
<path d="M757.3 311.1H711V313.1H757.3V311.1Z" fill="#313030"/>
<path d="M503.1 54.9001C492.8 54.9001 485.2 52.3001 484.6 52.1001L485.6 49.3001C485.9 49.4001 512 58.3001 533.2 42.2001L535 44.6001C524.2 52.7001 512.5 54.9001 503.1 54.9001Z" fill="#989797"/>
<path d="M461.836 252.946L459.092 254.16L509.965 369.216L512.709 368.003L461.836 252.946Z" fill="#989797"/>
<path d="M484.736 304.95L481.767 305.375L488.842 354.771L491.812 354.346L484.736 304.95Z" fill="#989797"/>
</g>
</g>
<defs>
<clipPath id="clip0_1528_78738">
<rect width="1335" height="464" fill="white"/>
</clipPath>
</defs>
</svg>
