<svg width="1335" height="464" viewBox="0 0 1335 464" fill="none" xmlns="http://www.w3.org/2000/svg">
<g clip-path="url(#clip0_1528_82419)">
<rect width="1335" height="464" fill="#FFDD9F"/>
<mask id="mask0_1528_82419" style="mask-type:luminance" maskUnits="userSpaceOnUse" x="0" y="0" width="1335" height="464">
<path d="M1335 0H0V464H1335V0Z" fill="white"/>
</mask>
<g mask="url(#mask0_1528_82419)">
<path d="M1335.5 0.100037H0.5V464H1335.5V0.100037Z" fill="#FFDD9F"/>
<path d="M554.9 496.7H552.9V300.8H-5.40002V298.8H554.9V496.7Z" fill="#FFC033"/>
<path d="M1434.4 -47.5V426.6H1374.2L1297.4 214.5C1296.1 210.8 1290.5 212.4 1291.3 216.2L1335.6 426.5H897.7L811.7 252.7L773.5 175.5L758.6 145.4C751.8 111 720.8 86.9 685.8 88.8L517.4 98.2C516.2 98.3 515.1 98.3 513.9 98.3C487.4 98.3 463.7 81.4 455.3 56C442 16 471.7 -25.3 513.9 -25.3H519.5H1237.6V-47.5H1434.4Z" fill="#FFCD5C"/>
<path d="M923.9 240.2C929.7 252.8 919.4 266.9 905.6 265.1L811.7 252.8L773.5 175.5L787.4 160.5C899.1 195.3 941.2 139 943.2 136.3L922.3 168.3C910.8 186 909.2 208.3 918 227.4L923.9 240.2Z" fill="#FFA81E"/>
<path d="M769.4 -40L937.4 11.9L1064.7 226.2L1012.2 17.2L1079.4 -47.5L769.4 -40Z" fill="#FFF8EB"/>
<path d="M1012.2 17.1L1047.8 92.2L1149.2 -35.4L1079.3 -47.6L1012.2 17.1Z" fill="#FBC400"/>
<path d="M937.4 11.8V98.3L769.4 -40L937.4 11.8Z" fill="#FBC400"/>
<path d="M1115.9 426.6H1018C987.5 426.6 966.2 401 967.2 374C967.5 365.2 970.2 356.2 975.6 347.9L1022 277.5L986.7 186.9H1147.2L1111.9 277.5L1158.3 347.9C1163.8 356.2 1166.4 365.1 1166.7 374C1167.7 401 1146.4 426.6 1115.9 426.6Z" fill="#D9EFF2"/>
<path d="M1059.8 182.1H1045.8C1045.8 162 1033.1 143.9 1014.1 137.1L991.3 128.9L996 115.7L1018.8 123.9C1043.3 132.7 1059.8 156 1059.8 182.1Z" fill="#A0D1F9"/>
<path d="M1062.2 186.8H1123.8C1124.1 186.8 1124.4 186.8 1124.6 186.9L1134.6 176.1C1137.2 173.3 1135.2 168.9 1131.4 168.9H1002.5C998.7 168.9 996.8 173.4 999.3 176.1L1009.3 186.9C1009.6 186.8 1009.8 186.8 1010.1 186.8H1062.2Z" fill="#9285DC"/>
<path d="M1070.2 245.7L1124.7 186.9C1124.4 186.8 1124.2 186.8 1123.9 186.8H1010.3C1010 186.8 1009.7 186.8 1009.5 186.9L1064 245.7C1065.6 247.6 1068.5 247.6 1070.2 245.7Z" fill="#663E23"/>
<path d="M826.1 100.3L811.4 13.9C811.1 12.2 812.7 10.8 814.4 11.3L890.4 35.1C892.1 35.6 892.6 37.7 891.4 39L830.1 101.5C828.7 102.9 826.4 102.2 826.1 100.3Z" fill="#0D386C"/>
<path d="M890.3 75.3L889.6 163.3L889.2 215.7C889.1 222.8 882.2 227.8 875.4 225.7L862.4 221.6L829.2 211.2L764.3 190.9L718.1 176.4C711.3 174.3 708.5 166.2 712.5 160.3L791.6 44.3C794.2 40.4 799.1 38.8 803.5 40.2L810.7 42.5L875.6 62.8L882.8 65.1C887.3 66.5 890.3 70.6 890.3 75.3Z" fill="#E8E8E8"/>
<path d="M889.5 163.3L889.1 215.7C889 222.8 882.1 227.8 875.3 225.7L862.3 221.6L876.2 173.7L880.3 159.4L889.5 163.3Z" fill="#969595"/>
<path d="M902.4 179.5C899.6 179.5 896.7 179.1 893.9 178.2L876.2 172.7L882.2 153.6L899.8 159.1C903.3 160.2 907.1 159 909.3 156.1L940.6 115.3C947.9 105.8 960.5 101.8 972 105.4L1005.1 115.8L999.1 134.9L965.9 124.5C962.4 123.4 958.6 124.6 956.4 127.5L925.1 168.3C919.7 175.5 911.2 179.5 902.4 179.5Z" fill="#C9C9C9"/>
<path d="M1335.5 426.6H421.5V465.4H1335.5V426.6Z" fill="#A3995A"/>
<path d="M902.3 335.4H775.1C773.5 335.4 772.3 336.7 772.3 338.2V416.3C772.3 417.9 773.6 419.1 775.1 419.1H902.3C903.9 419.1 905.1 417.8 905.1 416.3V338.2C905.1 336.6 903.8 335.4 902.3 335.4Z" fill="#A5AD3A"/>
<path d="M779.7 419.2H897.7V423.8C897.7 425.4 896.4 426.6 894.9 426.6H782.5C780.9 426.6 779.7 425.3 779.7 423.8V419.2Z" fill="#717820"/>
<path d="M903.7 357.5V397C903.7 401.2 907.1 404.6 911.3 404.6H929.8C934 404.6 937.4 401.2 937.4 397V357.5C937.4 353.3 934 349.9 929.8 349.9H911.3C907.1 349.9 903.7 353.3 903.7 357.5ZM920.5 393C916.6 393 913.4 389.8 913.4 385.9V368.7C913.4 364.8 916.6 361.6 920.5 361.6C924.4 361.6 927.6 364.8 927.6 368.7V385.9C927.7 389.8 924.5 393 920.5 393Z" fill="#717820"/>
<path d="M718.6 335.4H591.4C589.8 335.4 588.6 336.7 588.6 338.2V416.3C588.6 417.9 589.9 419.1 591.4 419.1H718.6C720.2 419.1 721.4 417.8 721.4 416.3V338.2C721.4 336.6 720.2 335.4 718.6 335.4Z" fill="#A5AD3A"/>
<path d="M596 419.2H714V423.8C714 425.4 712.7 426.6 711.2 426.6H598.8C597.2 426.6 596 425.3 596 423.8V419.2Z" fill="#717820"/>
<path d="M720 357.5V397C720 401.2 723.4 404.6 727.6 404.6H746.1C750.3 404.6 753.7 401.2 753.7 397V357.5C753.7 353.3 750.3 349.9 746.1 349.9H727.6C723.4 349.9 720 353.3 720 357.5ZM736.9 393C733 393 729.8 389.8 729.8 385.9V368.7C729.8 364.8 733 361.6 736.9 361.6C740.8 361.6 744 364.8 744 368.7V385.9C744 389.8 740.8 393 736.9 393Z" fill="#717820"/>
<path d="M1136.8 185.8H997.3V187.8H1136.8V185.8Z" fill="#FD6632"/>
<path d="M1009.3 168.9L1004 160.5L1055.9 163.3L1057.3 168.9H1009.3Z" fill="#FEEECC"/>
<path d="M1088.2 168.9L1092 164.7L1130.3 160.5L1127.7 168.9H1088.2Z" fill="#FEEECC"/>
<path d="M1049.5 168.9V160.5H1102.3L1100.6 168.9H1049.5Z" fill="white"/>
<path d="M1135.4 300.6L1115 279.7C1113.7 278.4 1113.6 276.4 1114.7 275L1126.7 259.6C1128.6 257.2 1126.9 253.8 1123.9 253.8H1009.9C1006.9 253.8 1005.2 257.2 1007.1 259.6L1019.2 275C1020.3 276.4 1020.2 278.4 1018.9 279.7L998.5 300.6C996.3 302.9 997.9 306.7 1001.1 306.7H1047.5C1048.7 306.7 1049.7 306.1 1050.4 305.2L1064 286.1C1065.4 284.1 1068.4 284.1 1069.8 286.1L1083.4 305.2C1084.1 306.1 1085.2 306.7 1086.3 306.7H1132.7C1136 306.7 1137.6 302.9 1135.4 300.6Z" fill="#0D386C"/>
<path d="M1115.9 426.6H1018C987.5 426.6 966.2 401 967.2 374H1166.8C1167.7 401 1146.4 426.6 1115.9 426.6Z" fill="#663E23"/>
<path d="M787.4 50.4L758.5 40.2C743.1 34.8 726.2 36.4 712 44.5L637.7 89.8L639.6 91.7C647.6 99.7 660.1 101.2 669.8 95.2L730.9 57.1L761.7 87.9L787.4 50.4Z" fill="#0D386C"/>
<path d="M570.6 55.1H574.7C603.3 55.1 630.6 67 650.1 87.9L668.8 108C674.6 114.2 684.1 115.3 691.2 110.6L748.7 74.9L736.8 60.7C728.4 50.7 737.5 35.7 750.2 38.6C755.8 39.9 762.1 41.5 769 43.7C785.9 49.1 803.9 39.9 809.6 23.1L720.1 -9.90001C702.3 -16.4 682.6 -15.3 665.7 -6.70001C649 1.79999 634.7 -20 611.5 0.299991L575.5 -2.80001L570.6 55.1Z" fill="#EA855E"/>
<path d="M1162.1 414.9L1228.6 372C1249 358.8 1275.6 360.4 1294.3 375.9L1302.8 383C1319 396.5 1340.8 401.2 1361.1 395.7L1429.1 377.3L1445.7 426.7H1165.5C1159.2 426.6 1156.8 418.3 1162.1 414.9Z" fill="#EA855E"/>
<path d="M1234.3 108.9L1087 119L1088.7 144L1236 133.9L1234.3 108.9Z" fill="#D5931A"/>
<path d="M1162.4 152C1169.7 152 1175.6 146.1 1175.6 138.8C1175.6 131.5 1169.7 125.6 1162.4 125.6C1155.1 125.6 1149.2 131.5 1149.2 138.8C1149.2 146.1 1155.1 152 1162.4 152Z" fill="#121831"/>
<path d="M937.4 82.3L954 39.7001L937.4 11.8V82.3Z" fill="#FD6632"/>
<path d="M575.515 -14.2042L566.191 89.1805L568.183 89.3602L577.507 -14.0246L575.515 -14.2042Z" fill="#070707"/>
<path d="M1167 259.3L1166.3 257.4L1205.9 243.2C1222.3 237.3 1232.8 221.7 1232.1 204.4L1229.8 148L1231.8 147.9L1234.1 204.3C1234.8 222.5 1223.8 238.9 1206.6 245.1L1167 259.3Z" fill="#D5931A"/>
<path d="M798.5 31.1C798 31.1 787.7 30.5 781.5 23.6C778.2 19.9 776.7 15.2 777 9.5L779 9.6C778.7 14.7 780 19 783 22.2C787.8 27.6 795.7 28.7 797.9 28.9L802.5 20.3L804.3 21.2L799.4 30.4C799.2 30.9 798.9 31.1 798.5 31.1Z" fill="#C36240"/>
<path d="M716.348 35.1202L714.822 36.4126L739.313 65.3379L740.839 64.0455L716.348 35.1202Z" fill="#C36240"/>
<path d="M882.175 149.147L874.371 176.453L876.294 177.003L884.098 149.696L882.175 149.147Z" fill="white"/>
<path d="M787.064 46.0599L786.466 47.9688L891.546 80.8556L892.143 78.9468L787.064 46.0599Z" fill="#969595"/>
<path d="M731.781 171.533L731.179 173.441L854.874 212.454L855.476 210.547L731.781 171.533Z" fill="#C9C9C9"/>
<path d="M361.7 300.8H36.1V279.3H361.7V300.8ZM38.1 298.8H359.7V281.3H38.1V298.8Z" fill="#FFC033"/>
<path d="M375.9 281.3H22V210.6H375.8V281.3H375.9ZM24 279.3H373.8V212.6H24V279.3Z" fill="#FFC033"/>
<path d="M46.1 107.6H44.1V211.6H46.1V107.6Z" fill="#FFC033"/>
<path d="M348.7 107.6H346.7V136H348.7V107.6Z" fill="#ECB036"/>
<path d="M348.7 146.3H346.7V211.6H348.7V146.3Z" fill="#FFC033"/>
<path d="M326.6 126.9H230.8V106.6H326.6V126.9ZM232.9 124.9H324.7V108.6H232.9V124.9Z" fill="#FFC033"/>
<path d="M311.5 157.3H246C244.3 157.3 243 156 243 154.3V127.9C243 126.2 244.3 124.9 246 124.9H311.5C313.2 124.9 314.5 126.2 314.5 127.9V154.3C314.5 155.9 313.1 157.3 311.5 157.3ZM246 126.9C245.4 126.9 245 127.3 245 127.9V154.3C245 154.9 245.4 155.3 246 155.3H311.5C312.1 155.3 312.5 154.9 312.5 154.3V127.9C312.5 127.3 312.1 126.9 311.5 126.9H246Z" fill="#FFC033"/>
<path d="M326.6 149.5H312.5V132.7H326.6V149.5ZM314.5 147.5H324.6V134.7H314.5V147.5Z" fill="#FFC033"/>
<path d="M380.8 153.1C379.6 153.1 378.5 152.9 377.4 152.6C363.9 148.6 348.9 146.6 331.4 146.6H324.6V135.6H336C348.3 135.6 361.6 133.7 377.8 129.5C379.3 129.1 380.9 129 382.5 129.2L384.4 129.5L384.3 129.6C388.8 131 392.2 135 392.7 139.7C393.1 143.1 392 146.5 389.7 149.1C387.5 151.7 384.2 153.1 380.8 153.1ZM326.6 144.6H331.4C349 144.6 364.3 146.6 377.9 150.7C378.8 151 379.8 151.1 380.8 151.1C383.6 151.1 386.4 149.9 388.3 147.8C390.2 145.7 391.1 142.9 390.8 140C390.3 135.5 386.7 131.9 382.3 131.2L381.8 131.1C380.6 131 379.4 131.1 378.3 131.4C361.9 135.6 348.5 137.6 336 137.6H326.6V144.6Z" fill="#FFC033"/>
<path d="M159.4 126.9H63.6V106.6H159.4V126.9ZM65.6 124.9H157.4V108.6H65.6V124.9Z" fill="#FFC033"/>
<path d="M144.2 157.3H78.7C77 157.3 75.7 156 75.7 154.3V127.9C75.7 126.2 77 124.9 78.7 124.9H144.2C145.9 124.9 147.2 126.2 147.2 127.9V154.3C147.2 155.9 145.9 157.3 144.2 157.3ZM78.7 126.9C78.1 126.9 77.7 127.3 77.7 127.9V154.3C77.7 154.9 78.1 155.3 78.7 155.3H144.2C144.8 155.3 145.2 154.9 145.2 154.3V127.9C145.2 127.3 144.8 126.9 144.2 126.9H78.7Z" fill="#FFC033"/>
<path d="M159.4 149.5H145.3V132.7H159.4V149.5ZM147.2 147.5H157.3V134.7H147.2V147.5Z" fill="#FFC033"/>
<path d="M213.5 153.1C212.3 153.1 211.2 152.9 210.1 152.6C196.6 148.6 181.6 146.6 164.1 146.6H157.3V135.6H168.7C181 135.6 194.3 133.7 210.5 129.5C212 129.1 213.6 129 215.2 129.2L217.1 129.5L217 129.6C221.5 131 224.9 135 225.4 139.7C225.8 143.1 224.7 146.5 222.4 149.1C220.2 151.7 217 153.1 213.5 153.1ZM159.4 144.6H164.2C181.8 144.6 197.1 146.6 210.7 150.7C211.6 151 212.6 151.1 213.6 151.1C216.4 151.1 219.2 149.9 221.1 147.8C223 145.7 223.9 142.9 223.6 140C223.1 135.5 219.5 131.9 215.1 131.2L214.6 131.1C213.4 131 212.2 131.1 211.1 131.4C194.7 135.6 181.3 137.6 168.8 137.6H159.4V144.6Z" fill="#FFC033"/>
<path d="M112.6 165.7H106.3V155.4H117.1L112.6 165.7ZM108.3 163.7H111.3L114.1 157.4H108.3V163.7Z" fill="#FFC033"/>
<path d="M279.9 165.7H273.6V155.4H284.5L279.9 165.7ZM275.6 163.7H278.6L281.4 157.4H275.6V163.7Z" fill="#FFC033"/>
<path d="M257.614 47.9795L247.722 57.8859L249.137 59.2991L259.029 49.3927L257.614 47.9795Z" fill="#FFC033"/>
<path d="M333.7 63.2C331.2 63.2 329.1 61.1 329.1 58.6C329.1 56.1 331.2 54 333.7 54C336.2 54 338.3 56.1 338.3 58.6C338.3 61.1 336.2 63.2 333.7 63.2ZM333.7 56C332.3 56 331.1 57.2 331.1 58.6C331.1 60 332.3 61.2 333.7 61.2C335.1 61.2 336.3 60 336.3 58.6C336.3 57.2 335.1 56 333.7 56Z" fill="#FFC033"/>
<path d="M292.1 44.5H290.1V58.6H292.1V44.5Z" fill="#FFC033"/>
<path d="M362.9 108.6H35C27.8 108.6 22 102.8 22 95.6V21.6C22 14.4 27.8 8.60004 35 8.60004H362.8C370 8.60004 375.8 14.4 375.8 21.6V95.6C375.9 102.8 370 108.6 362.9 108.6ZM35 10.6C28.9 10.6 24 15.5 24 21.6V95.6C24 101.7 28.9 106.6 35 106.6H362.8C368.9 106.6 373.8 101.7 373.8 95.6V21.6C373.8 15.5 368.9 10.6 362.8 10.6H35Z" fill="#FFC033"/>
<path d="M248.5 73.7C240.2 73.7 233.4 66.9 233.4 58.6C233.4 50.3 240.2 43.5 248.5 43.5C256.8 43.5 263.6 50.3 263.6 58.6C263.6 66.9 256.8 73.7 248.5 73.7ZM248.5 45.5C241.3 45.5 235.4 51.4 235.4 58.6C235.4 65.8 241.3 71.7 248.5 71.7C255.7 71.7 261.6 65.8 261.6 58.6C261.6 51.4 255.7 45.5 248.5 45.5Z" fill="#FFC033"/>
<path d="M291.1 73.7C282.8 73.7 276 66.9 276 58.6C276 50.3 282.8 43.5 291.1 43.5C299.4 43.5 306.2 50.3 306.2 58.6C306.2 66.9 299.4 73.7 291.1 73.7ZM291.1 45.5C283.9 45.5 278 51.4 278 58.6C278 65.8 283.9 71.7 291.1 71.7C298.3 71.7 304.2 65.8 304.2 58.6C304.2 51.4 298.3 45.5 291.1 45.5Z" fill="#FFC033"/>
<path d="M333.7 73.7C325.4 73.7 318.6 66.9 318.6 58.6C318.6 50.3 325.4 43.5 333.7 43.5C342 43.5 348.8 50.3 348.8 58.6C348.8 66.9 342 73.7 333.7 73.7ZM333.7 45.5C326.5 45.5 320.6 51.4 320.6 58.6C320.6 65.8 326.5 71.7 333.7 71.7C340.9 71.7 346.8 65.8 346.8 58.6C346.8 51.4 340.9 45.5 333.7 45.5Z" fill="#FFC033"/>
<path d="M720.5 369.5H719.5V384.9H720.5V369.5Z" fill="#663E23"/>
<path d="M904.2 369.5H903.2V384.9H904.2V369.5Z" fill="#663E23"/>
</g>
</g>
<defs>
<clipPath id="clip0_1528_82419">
<rect width="1335" height="464" fill="white"/>
</clipPath>
</defs>
</svg>
