<svg width="1335" height="464" viewBox="0 0 1335 464" fill="none" xmlns="http://www.w3.org/2000/svg">
<g clip-path="url(#clip0_1528_81461)">
<rect width="1335" height="464" fill="#F3DEA6"/>
<mask id="mask0_1528_81461" style="mask-type:luminance" maskUnits="userSpaceOnUse" x="0" y="0" width="1335" height="464">
<path d="M1335 0H0V464H1335V0Z" fill="white"/>
</mask>
<g mask="url(#mask0_1528_81461)">
<path d="M1335 0H0V464.5H1335V0Z" fill="#F3DEA6"/>
<path d="M578.5 465.9V426.5H1061.1V465.4L578.5 465.9Z" fill="#FFB2CC"/>
<path d="M578.5 33.8C578.5 33.8 815 79.1 1005.2 33.8V389.4H578.5V33.8Z" fill="#F8EED2"/>
<path d="M974.7 327.9L916.4 346.6L883.8 357.1L870 314.1L913 300.3L960.9 284.9L974.7 327.9Z" fill="#665F8A"/>
<path d="M917.8 298.9V345.2L883.7 357.1L869.9 314.1L912.9 300.3L917.8 298.9Z" fill="#40376E"/>
<path fill-rule="evenodd" clip-rule="evenodd" d="M684 213.3V403.6L666.5 429.3L664.8 428.2L682 403V213.3H684Z" fill="#342C5F"/>
<path fill-rule="evenodd" clip-rule="evenodd" d="M684 403V213.3H682V403.6L699.5 429.3L701.2 428.2L684 403Z" fill="#342C5F"/>
<path d="M810.9 257.4H782.5V266.4L770 257.4C762.8 252.2 753.4 251.1 745.2 254.6L731.8 260.2L758.6 332.8H842.6L866.4 277.6C868.3 273.3 866 268.2 861.6 266.7L834.2 257.3L810.9 257.4Z" fill="#342C5F"/>
<path d="M782.5 221.3L785.4 257.4H834.3L839.3 221.3H782.5Z" fill="#FCB89A"/>
<path d="M771.5 233V250.8L847.1 246.8V231.3L771.5 233Z" fill="#40376E"/>
<path d="M953.5 52C955 50.5 954.9 48 953 46.7C951.8 45.9 950.2 45.9 949 46.7C948.2 47.3 947.7 48.1 947.6 49C947.3 50.6 946.4 52 945.3 53.2L898.1 99.9L900.2 102L947.5 55.3C948.7 54.2 950.1 53.3 951.7 53.1C952.3 52.8 953 52.5 953.5 52Z" fill="#1D1831"/>
<path d="M921.2 100C926.1 95.2 926 87.2 921 82.5C916.5 78.3 909.4 78.2 904.7 82.2C899.7 86.5 899.2 93.9 903.2 98.9L896.6 105.4L902.1 111L907 106.2C908.7 104.5 911 103.6 913.4 103.5C916.3 103.3 919.1 102.2 921.2 100Z" fill="#FCB89A"/>
<path d="M655.2 48.7C653.7 47.2 651.2 47.3 649.9 49.2C649.1 50.4 649.1 52 649.9 53.2C650.5 54 651.3 54.5 652.2 54.6C653.8 54.9 655.2 55.8 656.4 56.9L703.1 104.1L705.2 102L658.5 54.7C657.4 53.5 656.5 52.1 656.3 50.5C656 49.9 655.7 49.3 655.2 48.7Z" fill="#1D1831"/>
<path d="M703.2 81C698.4 76.1 690.4 76.1999 685.7 81.1999C681.5 85.6999 681.4 92.8 685.4 97.5C689.8 102.5 697.1 103 702.1 99L708.6 105.6L714.2 100L709.4 95.0999C707.7 93.3999 706.8 91.0999 706.7 88.6999C706.5 85.9999 705.4 83.2 703.2 81Z" fill="#FCB89A"/>
<path d="M919 122.8L886.9 93L808.2 177.7C807 179 805.3 179.9 803.5 180.2C800.7 180.6 797.9 179.6 796 177.4L724.1 90.4L690.3 118.4L763.6 207.1L766.4 236.6L852.6 235.6L865.2 180.8L919 122.8Z" fill="#FFB2CC"/>
<path d="M765.6 260.2H674.1V366.6H765.6V260.2Z" fill="#9E9AB5"/>
<path fill-rule="evenodd" clip-rule="evenodd" d="M718.8 366.2V257.4H720.8V367L693.5 394.3C693 394.8 692.7 395.5 692.7 396.3V426.5H690.7V396.3C690.7 395 691.2 393.8 692.1 392.9L718.8 366.2Z" fill="#342C5F"/>
<path fill-rule="evenodd" clip-rule="evenodd" d="M917.3 366.3V257.3H919.3V366.7L905.7 394C905.4 394.5 905.2 395.3 905.2 396.2V426.4H903.2V396.2C903.2 395.1 903.4 393.9 903.9 393.1L917.3 366.3Z" fill="#342C5F"/>
<path fill-rule="evenodd" clip-rule="evenodd" d="M917.3 257.3H919.3V366.2L932.7 393C933.1 393.9 933.4 395 933.4 396.1V426.3H931.4V396.1C931.4 395.2 931.2 394.4 930.9 393.9L917.3 366.7V257.3Z" fill="#342C5F"/>
<path fill-rule="evenodd" clip-rule="evenodd" d="M682.1 366.2V257.4H684.1V367L656.8 394.3C656.3 394.8 656 395.5 656 396.3V426.5H654V396.3C654 395 654.5 393.8 655.4 392.9L682.1 366.2Z" fill="#342C5F"/>
<path fill-rule="evenodd" clip-rule="evenodd" d="M718.8 257.4H720.8V366.2L747.5 392.9C748.4 393.8 748.9 395 748.9 396.3V426.5H746.9V396.3C746.9 395.6 746.6 394.8 746.1 394.3L718.8 367V257.4Z" fill="#342C5F"/>
<path fill-rule="evenodd" clip-rule="evenodd" d="M755.6 257.4H757.6V366.2L784.3 392.9C785.2 393.8 785.7 395 785.7 396.3V426.5H783.7V396.3C783.7 395.6 783.4 394.8 782.9 394.3L755.6 367V257.4Z" fill="#342C5F"/>
<path d="M944.7 245.1H855.5V312.8H944.7V245.1Z" fill="#9E9AB5"/>
<path fill-rule="evenodd" clip-rule="evenodd" d="M860.7 315.2V243.1H862.9V315.2H860.7Z" fill="#342C5F"/>
<path fill-rule="evenodd" clip-rule="evenodd" d="M879.6 315.2V243.1H881.8V315.2H879.6Z" fill="#342C5F"/>
<path fill-rule="evenodd" clip-rule="evenodd" d="M898.4 315.2V243.1H900.6V315.2H898.4Z" fill="#342C5F"/>
<path fill-rule="evenodd" clip-rule="evenodd" d="M917.3 315.2V243.1H919.5V315.2H917.3Z" fill="#342C5F"/>
<path fill-rule="evenodd" clip-rule="evenodd" d="M936.1 315.2V243.1H938.3V315.2H936.1Z" fill="#342C5F"/>
<path fill-rule="evenodd" clip-rule="evenodd" d="M938.2 210.9V401.2L920.7 426.9L919 425.8L936.1 400.6V210.9H938.2Z" fill="#342C5F"/>
<path fill-rule="evenodd" clip-rule="evenodd" d="M938.3 400.6V199.3H936.3V401.2L953.8 426.9L955.5 425.8L938.3 400.6Z" fill="#342C5F"/>
<path d="M987 229.2C973.3 242.9 955.3 249.8 937.3 249.8C919.3 249.8 901.3 243 887.6 229.2C915 201.8 959.5 201.8 987 229.2Z" fill="#ECCC77"/>
<path d="M987 229.2H887.6C915 201.8 959.5 201.8 987 229.2Z" fill="#F3DEA6"/>
<path d="M743.7 250.8L622.5 224.5C659.6 215.1 713.8 226.9 743.7 250.8Z" fill="#ECCC77"/>
<path d="M886.8 279H785.4V426.5H886.9V279H886.8Z" fill="#665F8A"/>
<path d="M785.4 426.5C826.1 426.5 859.2 393.5 859.2 352.7C859.2 311.9 826.2 278.9 785.4 278.9C744.6 278.9 711.6 311.9 711.6 352.7C711.6 393.5 744.6 426.5 785.4 426.5Z" fill="#FEF8EC"/>
<path fill-rule="evenodd" clip-rule="evenodd" d="M860.1 352.7C860.1 394 826.6 427.5 785.3 427.5V425.5C825.5 425.5 858.1 392.9 858.1 352.7H860.1Z" fill="#342C5F"/>
<path fill-rule="evenodd" clip-rule="evenodd" d="M785.4 427.5C744.1 427.5 710.6 394 710.6 352.7H712.6C712.6 392.9 745.2 425.5 785.4 425.5V427.5Z" fill="#342C5F"/>
<path d="M674.1 291.1H669V300.3H674.1V291.1Z" fill="#868686"/>
<path fill-rule="evenodd" clip-rule="evenodd" d="M886.8 292.1H818.3V290.1H886.8V292.1Z" fill="#342C5F"/>
<path fill-rule="evenodd" clip-rule="evenodd" d="M886.8 326H852V324H886.8V326Z" fill="#342C5F"/>
<path fill-rule="evenodd" clip-rule="evenodd" d="M886.8 359.8H852V357.8H886.8V359.8Z" fill="#342C5F"/>
<path fill-rule="evenodd" clip-rule="evenodd" d="M886.8 393.5H836.1V391.5H886.8V393.5Z" fill="#342C5F"/>
<path fill-rule="evenodd" clip-rule="evenodd" d="M886.8 427.2H791.8V425.2H886.8V427.2Z" fill="#342C5F"/>
<path d="M1329.6 382H1215.1C1212 382 1209.4 384.5 1209.4 387.7V458.8C1209.4 461.9 1211.9 464.5 1215.1 464.5H1329.6C1332.7 464.5 1335.3 462 1335.3 458.8V387.7C1335.3 384.5 1332.7 382 1329.6 382Z" fill="#ECCC77"/>
<path d="M1326 389.6H1218.7C1217.1 389.6 1215.9 390.9 1215.9 392.4V452.8C1215.9 454.4 1217.2 455.6 1218.7 455.6H1326C1327.6 455.6 1328.8 454.3 1328.8 452.8V392.4C1328.8 390.9 1327.6 389.6 1326 389.6Z" fill="#F3DEA6"/>
<path fill-rule="evenodd" clip-rule="evenodd" d="M1194.7 331.4H1350.1V486.8H1194.7V331.4ZM1196.7 333.4V484.8H1348.1V333.4H1196.7Z" fill="#ECCC77"/>
<path fill-rule="evenodd" clip-rule="evenodd" d="M1349.1 444.9H1195.7V442.9H1349.1V444.9Z" fill="#ECCC77"/>
<path fill-rule="evenodd" clip-rule="evenodd" d="M1349.1 431H1195.7V429H1349.1V431Z" fill="#ECCC77"/>
<path fill-rule="evenodd" clip-rule="evenodd" d="M1349.1 417H1195.7V415H1349.1V417Z" fill="#ECCC77"/>
<path fill-rule="evenodd" clip-rule="evenodd" d="M1349.1 403.1H1195.7V401.1H1349.1V403.1Z" fill="#ECCC77"/>
<path fill-rule="evenodd" clip-rule="evenodd" d="M1320.2 485.8V332.4H1322.2V485.8H1320.2Z" fill="#ECCC77"/>
<path fill-rule="evenodd" clip-rule="evenodd" d="M1306.2 485.8V332.4H1308.2V485.8H1306.2Z" fill="#ECCC77"/>
<path fill-rule="evenodd" clip-rule="evenodd" d="M1292.3 485.8V332.4H1294.3V485.8H1292.3Z" fill="#ECCC77"/>
<path fill-rule="evenodd" clip-rule="evenodd" d="M1278.3 485.8V332.4H1280.3V485.8H1278.3Z" fill="#ECCC77"/>
<path fill-rule="evenodd" clip-rule="evenodd" d="M1264.4 485.8V332.4H1266.4V485.8H1264.4Z" fill="#ECCC77"/>
<path fill-rule="evenodd" clip-rule="evenodd" d="M1250.4 485.8V332.4H1252.4V485.8H1250.4Z" fill="#ECCC77"/>
<path fill-rule="evenodd" clip-rule="evenodd" d="M1236.5 485.8V332.4H1238.5V485.8H1236.5Z" fill="#ECCC77"/>
<path fill-rule="evenodd" clip-rule="evenodd" d="M1222.6 485.8V332.4H1224.6V485.8H1222.6Z" fill="#ECCC77"/>
<path d="M1329.6 353.6H1215.1C1212 353.6 1209.4 356.1 1209.4 359.3V376.3C1209.4 379.4 1211.9 382 1215.1 382H1329.6C1332.7 382 1335.3 379.5 1335.3 376.3V359.3C1335.3 356.2 1332.7 353.6 1329.6 353.6Z" fill="#ECCC77"/>
<path d="M1322.6 359.1H1222.2C1219.9 359.1 1218.1 361 1218.1 363.2V372.3C1218.1 374.6 1219.9 376.4 1222.2 376.4H1322.6C1324.9 376.4 1326.7 374.5 1326.7 372.3V363.2C1326.7 360.9 1324.9 359.1 1322.6 359.1Z" fill="#F3DEA6"/>
<path d="M1289.9 372.3C1292.4 372.3 1294.4 370.3 1294.4 367.8C1294.4 365.3 1292.4 363.3 1289.9 363.3C1287.4 363.3 1285.4 365.3 1285.4 367.8C1285.4 370.3 1287.4 372.3 1289.9 372.3Z" fill="#ECCC77"/>
<path d="M1303.2 372.3C1305.7 372.3 1307.7 370.3 1307.7 367.8C1307.7 365.3 1305.7 363.3 1303.2 363.3C1300.7 363.3 1298.7 365.3 1298.7 367.8C1298.7 370.3 1300.8 372.3 1303.2 372.3Z" fill="#ECCC77"/>
<path d="M1316.6 372.3C1319.1 372.3 1321.1 370.3 1321.1 367.8C1321.1 365.3 1319.1 363.3 1316.6 363.3C1314.1 363.3 1312.1 365.3 1312.1 367.8C1312.1 370.3 1314.1 372.3 1316.6 372.3Z" fill="#ECCC77"/>
<path d="M1184.9 177.6C1194.3 177.6 1202.4 184.3 1204.2 193.5L1219.4 272.6L1122.2 251.3V177.6H1184.9Z" fill="#EC7043"/>
<path d="M1134.1 256.4L955.2 228.9L921.3 211.8C919.5 210.9 917.3 212 917 214L914.3 231.5C913.7 235.7 916.5 239.6 920.7 240.2L952.7 245.1L1130.1 282.4L1134.1 256.4Z" fill="#40376E"/>
<path d="M1234 292.5L1191.8 235C1188.3 230.3 1181.7 229.3 1177 232.7L1165.1 241.5C1160.4 245 1153.8 243.9 1150.3 239.2C1146.8 234.5 1140.2 233.5 1135.5 236.9L1099.4 263.4L1145.6 326.4C1149.6 331.9 1157.4 333.1 1162.9 329C1168.4 325 1176.1 326.1 1180.2 331.6L1189 343.5C1193 349 1200.8 350.2 1206.3 346.1L1228.3 330C1240.3 321.4 1242.8 304.5 1234 292.5Z" fill="#40376E"/>
<path d="M981 251.2L1002.1 269.6L1006 256.5L1004.5 241.6C1004.3 240 1003 238.7 1001.3 238.7C999.5 238.7 998.1 240.2 998.1 242L998.2 246C998.3 250.2 994.6 253.5 990.4 252.8L981 251.2Z" fill="#FFC1B3"/>
<path d="M1047.6 177.6L1003.1 262.2C995.8 276.1 1007.5 292.4 1023.1 289.9L1068.4 282.5L1047.6 177.6Z" fill="#EC7043"/>
<path d="M1132.1 167.4L1096.2 147.9C1082.7 140.6 1065.8 145.4 1058.2 158.8C1051.7 170.2 1041.4 178.9 1029.1 183.3L982.8 200.1C982.8 200.1 992 230.7 1015.6 238.2L1047.6 177.5H1132.1V167.4Z" fill="#663E23"/>
<path d="M1357.3 454.7L1305.1 442.9L1280.5 419.2L1160.7 303.7L1149.6 277.3L1146.3 269.5H1086.1L1082.4 277.3L1077.1 288.4L1070.9 301.3L995.9 346.4C986.1 352.3 982.7 364.8 988.2 374.8L1016.6 427L1021.4 435.8C1025.5 443.3 1021.4 452.7 1013.1 454.8L984.9 461.9C981.9 462.7 982.4 467.1 985.5 467.1H1072.3L1058.2 427.1H1072.3L1054.4 401.7C1047.5 391.9 1042 381.2 1038.1 369.9L1065.3 361.1L1109.6 346.8H1134.5L1248.1 451.7L1253.9 445.9L1277.5 465.5H1356.2C1362.6 465.5 1363.7 456.1 1357.3 454.7Z" fill="#7DB6F2"/>
<path d="M1160.8 303.7L1077.2 288.5L1082.5 277.4H1149.7L1160.8 303.7Z" fill="#61A5F1"/>
<path d="M1133.9 174.5L1138.5 169.2C1139.1 168.5 1138.6 167.5 1137.7 167.5H1095.5C1094.6 167.5 1094.1 168.5 1094.7 169.2L1098.9 174.6C1099.8 175.8 1099 177.6 1097.4 177.6H1047.5L1068.2 282.6H1166.2L1184.8 177.6H1135.2C1133.7 177.6 1132.9 175.7 1133.9 174.5Z" fill="#313030"/>
<path d="M1058.2 427.1L1072.3 467.1H985.5C982.4 467.1 981.9 462.7 984.9 461.9L1013.1 454.8C1021.4 452.7 1025.5 443.3 1021.4 435.8L1016.6 427H1058.2V427.1Z" fill="#313030"/>
<path d="M1356.1 465.5H1277.4L1253.8 445.9L1280.5 419.2L1305.1 442.9L1357.3 454.7C1363.7 456.1 1362.6 465.5 1356.1 465.5Z" fill="#313030"/>
<path d="M1109.6 346.8L1065.3 361.1V346.8H1109.6Z" fill="#61A5F1"/>
<path d="M1150.3 305.3L1127.2 308L1127.8 313.3L1150.9 310.6L1150.3 305.3Z" fill="#313030"/>
<path d="M1108.4 303L1085.3 300L1084.6 305.3L1107.7 308.3L1108.4 303Z" fill="#313030"/>
<path d="M1113.5 258.5C1099.9 258.5 1088.8 247.4 1088.8 233.9C1088.8 222.7 1097.9 213.6 1109.1 213.6C1118.4 213.6 1125.9 221.1 1125.9 230.4C1125.9 238.1 1119.6 244.4 1111.9 244.4C1105.4 244.4 1100.1 239.1 1100.1 232.6C1100.1 227.1 1104.6 222.6 1110.1 222.6C1114.8 222.6 1118.7 226.5 1118.7 231.2C1118.7 235.1 1115.7 238.3 1111.8 238.6C1116.3 238.6 1120 234.9 1120 230.4C1120 224.3 1115.1 219.4 1109 219.4C1101 219.4 1094.5 225.9 1094.5 233.9C1094.5 244.3 1103 252.8 1113.3 252.8C1126.7 252.8 1137.6 241.9 1137.6 228.5C1137.6 211.4 1123.7 197.4 1106.5 197.4V191.6C1126.8 191.6 1143.4 208.2 1143.4 228.5C1143.6 245 1130.1 258.5 1113.5 258.5Z" fill="#EC7043"/>
<path d="M809.4 183H795L797 167.8H809.4V183Z" fill="#FCB89A"/>
<path d="M820.1 152.3C820.1 161.8 812.4 172.7 802.9 172.7C793.4 172.7 785.7 161.8 785.7 152.3C785.7 142.8 793.4 135.1 802.9 135.1C812.4 135.1 820.1 142.8 820.1 152.3Z" fill="#FCB89A"/>
<path d="M786.2 156.9C785.6 157.1 784.8 156.9 784.5 156.3L783.5 154.4C783.1 153.6 783.5 152.5 784.3 152.2C785.1 151.9 786 152.3 786.3 153.1L787 155.1C787.3 155.8 786.9 156.6 786.2 156.9Z" fill="#FCB89A"/>
<path d="M820 156.8C820.6 157 821.4 156.8 821.7 156.2L822.7 154.3C823.2 153.5 822.7 152.4 821.9 152.1C821.1 151.8 820.2 152.2 819.9 153L819.2 155C818.9 155.8 819.2 156.6 820 156.8Z" fill="#FCB89A"/>
<path d="M785.9 154.4L789.1 153.9C796.7 152.8 802.3 146.3 802.3 138.7C802.3 144.6 806 149.9 811.6 151.9L820.2 155V150.7C820.2 141.3 812.5 133.6 803.1 133.6C793.7 133.6 786 141.3 786 150.7L785.9 154.4Z" fill="#212121"/>
<path d="M802.6 114.7L798.8 115C793.5 115.4 789.6 119.9 789.9 125.2C790.3 130.5 794.8 134.4 800.1 134.1L803.9 133.8C809.2 133.4 813.1 128.9 812.8 123.6C812.5 118.3 807.9 114.3 802.6 114.7Z" fill="#212121"/>
<path d="M802.9 162.6C804.4 162.6 805.6 161.1 805.6 159.1C805.6 157.1 804.4 155.6 802.9 155.6C801.4 155.6 800.2 157.1 800.2 159.1C800.2 161.1 801.4 162.6 802.9 162.6Z" fill="#D35D33"/>
<path d="M805.3 159.1C805.3 160.4 804.2 161.5 802.9 161.5C801.6 161.5 800.6 160.4 800.6 159.1C800.6 158.9 800.6 158.6 800.7 158.4C801 157.5 801.9 156.8 802.9 156.8C803.9 156.8 804.8 157.5 805.1 158.4C805.2 158.7 805.3 158.9 805.3 159.1Z" fill="#212121"/>
<path d="M805.2 158.4H800.7C801 157.5 801.9 156.8 802.9 156.8C803.9 156.8 804.9 157.5 805.2 158.4Z" fill="#F7F7F7"/>
<path d="M797 153.2C797 154 796.3 154 795.5 154C794.7 154 794 154 794 153.2C794 152.4 794.7 151.7 795.5 151.7C796.3 151.7 797 152.4 797 153.2Z" fill="#212121"/>
<path d="M811.8 153.2C811.8 154 811.1 154 810.3 154C809.5 154 808.8 154 808.8 153.2C808.8 152.4 809.5 151.7 810.3 151.7C811.1 151.7 811.8 152.4 811.8 153.2Z" fill="#212121"/>
<path d="M272.4 215.6H92.2002V461.5H272.3V215.6H272.4Z" fill="#ECCC77"/>
<path d="M268.4 93.3H96.2002C94.0002 93.3 92.2002 95.1 92.2002 97.3V211.6C92.2002 213.8 94.0002 215.6 96.2002 215.6H268.3C270.5 215.6 272.3 213.8 272.3 211.6V97.3C272.4 95.1 270.6 93.3 268.4 93.3Z" fill="#ECCC77"/>
<path d="M263.7 130.8H100.8V209.7H263.7V130.8Z" fill="#F3DEA6"/>
<path d="M263.7 227.4H100.8V449.7H263.7V227.4Z" fill="#F3DEA6"/>
<path d="M253 123.6C258.9 123.6 263.7 118.8 263.7 112.9C263.7 107 258.9 102.2 253 102.2C247.1 102.2 242.3 107 242.3 112.9C242.3 118.8 247.1 123.6 253 123.6Z" fill="#F3DEA6"/>
<path d="M223.6 123.6C229.5 123.6 234.3 118.8 234.3 112.9C234.3 107 229.5 102.2 223.6 102.2C217.7 102.2 212.9 107 212.9 112.9C212.9 118.8 217.7 123.6 223.6 123.6Z" fill="#F3DEA6"/>
<path d="M194.1 123.6C200 123.6 204.8 118.8 204.8 112.9C204.8 107 200 102.2 194.1 102.2C188.2 102.2 183.4 107 183.4 112.9C183.4 118.8 188.2 123.6 194.1 123.6Z" fill="#F3DEA6"/>
<path fill-rule="evenodd" clip-rule="evenodd" d="M263.7 197.6H100.8V195.6H263.7V197.6Z" fill="#ECCC77"/>
<path fill-rule="evenodd" clip-rule="evenodd" d="M263.7 184.4H100.8V182.4H263.7V184.4Z" fill="#ECCC77"/>
<path fill-rule="evenodd" clip-rule="evenodd" d="M263.7 171.3H100.8V169.3H263.7V171.3Z" fill="#ECCC77"/>
<path fill-rule="evenodd" clip-rule="evenodd" d="M263.7 158.1H100.8V156.1H263.7V158.1Z" fill="#ECCC77"/>
<path fill-rule="evenodd" clip-rule="evenodd" d="M263.7 144.9H100.8V142.9H263.7V144.9Z" fill="#ECCC77"/>
<path fill-rule="evenodd" clip-rule="evenodd" d="M235.6 209.8V130.9H237.6V209.8H235.6Z" fill="#ECCC77"/>
<path fill-rule="evenodd" clip-rule="evenodd" d="M208.4 209.8V130.9H210.4V209.8H208.4Z" fill="#ECCC77"/>
<path fill-rule="evenodd" clip-rule="evenodd" d="M181.3 209.8V130.9H183.3V209.8H181.3Z" fill="#ECCC77"/>
<path fill-rule="evenodd" clip-rule="evenodd" d="M154.1 209.8V130.9H156.1V209.8H154.1Z" fill="#ECCC77"/>
<path fill-rule="evenodd" clip-rule="evenodd" d="M127 209.8V130.9H129V209.8H127Z" fill="#ECCC77"/>
<path fill-rule="evenodd" clip-rule="evenodd" d="M100.8 337.6H263.7V339.6H100.8V337.6Z" fill="#ECCC77"/>
<path fill-rule="evenodd" clip-rule="evenodd" d="M263.7 321.1H100.8V319.1H263.7V321.1Z" fill="#ECCC77"/>
<path fill-rule="evenodd" clip-rule="evenodd" d="M263.7 302.5H100.8V300.5H263.7V302.5Z" fill="#ECCC77"/>
<path fill-rule="evenodd" clip-rule="evenodd" d="M263.7 284H100.8V282H263.7V284Z" fill="#ECCC77"/>
<path fill-rule="evenodd" clip-rule="evenodd" d="M263.7 265.5H100.8V263.5H263.7V265.5Z" fill="#ECCC77"/>
<path fill-rule="evenodd" clip-rule="evenodd" d="M263.7 247H100.8V245H263.7V247Z" fill="#ECCC77"/>
<path fill-rule="evenodd" clip-rule="evenodd" d="M235.6 338.6V227.5H237.6V338.6H235.6Z" fill="#ECCC77"/>
<path fill-rule="evenodd" clip-rule="evenodd" d="M208.4 338.6V227.5H210.4V338.6H208.4Z" fill="#ECCC77"/>
<path fill-rule="evenodd" clip-rule="evenodd" d="M181.3 338.6V227.5H183.3V338.6H181.3Z" fill="#ECCC77"/>
<path fill-rule="evenodd" clip-rule="evenodd" d="M154.1 338.6V227.5H156.1V338.6H154.1Z" fill="#ECCC77"/>
<path fill-rule="evenodd" clip-rule="evenodd" d="M127 338.6V227.5H129V338.6H127Z" fill="#ECCC77"/>
<path fill-rule="evenodd" clip-rule="evenodd" d="M263.7 339.6H100.8V337.6H263.7V339.6Z" fill="#ECCC77"/>
<path fill-rule="evenodd" clip-rule="evenodd" d="M263.7 432.2H100.8V430.2H263.7V432.2Z" fill="#ECCC77"/>
<path fill-rule="evenodd" clip-rule="evenodd" d="M263.7 413.6H100.8V411.6H263.7V413.6Z" fill="#ECCC77"/>
<path fill-rule="evenodd" clip-rule="evenodd" d="M263.7 395.1H100.8V393.1H263.7V395.1Z" fill="#ECCC77"/>
<path fill-rule="evenodd" clip-rule="evenodd" d="M263.7 376.6H100.8V374.6H263.7V376.6Z" fill="#ECCC77"/>
<path fill-rule="evenodd" clip-rule="evenodd" d="M263.7 358.1H100.8V356.1H263.7V358.1Z" fill="#ECCC77"/>
<path fill-rule="evenodd" clip-rule="evenodd" d="M235.6 449.7V338.6H237.6V449.7H235.6Z" fill="#ECCC77"/>
<path fill-rule="evenodd" clip-rule="evenodd" d="M208.4 449.7V338.6H210.4V449.7H208.4Z" fill="#ECCC77"/>
<path fill-rule="evenodd" clip-rule="evenodd" d="M181.3 449.7V338.6H183.3V449.7H181.3Z" fill="#ECCC77"/>
<path fill-rule="evenodd" clip-rule="evenodd" d="M154.1 449.7V338.6H156.1V449.7H154.1Z" fill="#ECCC77"/>
<path fill-rule="evenodd" clip-rule="evenodd" d="M127 449.7V338.6H129V449.7H127Z" fill="#ECCC77"/>
<path d="M553.2 96.9C553.2 96.9 597.2 102.1 597.2 61.1C597.2 20.1 562.9 12.6 562.9 12.6L572.8 26.7C572.8 26.7 565.8 16 547.5 22.3C556 31.7 560 44.3 558.4 56.9L553.2 96.9Z" fill="white"/>
<path d="M537.4 101.6L532.2 100.6C514.5 96.9 504.2 78.4 510.4 61.5C511.3 59 512.3 56.6 513.4 54.1C530.9 16.3 586.1 21 597.3 61.1L550.4 85.1L555.3 105L537.4 101.6Z" fill="#313030"/>
<path d="M559.5 89.1L553.8 109.5H535.5L541.2 84.3L559.5 89.1Z" fill="#A5543F"/>
<path d="M539.2 373.2L531.2 389.2L545.2 403.2L562.2 372.5L539.2 373.2Z" fill="#D65C32"/>
<path d="M405.5 333.4L410.9 331.4L415.6 351.2L406.9 354.6L405.5 333.4Z" fill="#D65C32"/>
<path d="M519 413.5L535.4 380.9L561.6 395.7L553.5 408.5C549.7 414.5 548.8 421.8 550.9 428.6L558.4 452.2C559.1 454.5 556.2 456.1 554.7 454.2L530 423.4L537.2 409.9C537.7 409 536.5 408.2 535.8 408.9L525.7 420.2L519 413.5Z" fill="#FEF8EC"/>
<path d="M410.9 331.4L384.2 341.2V347.4L393.2 348.9C394.1 349.1 394.8 349.9 394.8 350.8C394.8 351.6 394.3 352.3 393.6 352.6L382.6 356.8L376.2 396.4C376 397.9 378 398.6 378.7 397.3L388.2 380.8C391.4 375.2 396.6 370.9 402.8 368.9L416.1 364.6L410.9 331.4Z" fill="#FEF8EC"/>
<path d="M601.5 308.5L563.1 175.3L509.2 187.6L485.4 304.2L416.5 329.4L410.8 331.5L418.5 363.9L423.8 362.2L497.9 338.2C505 335.9 510.5 330.3 512.7 323.2L538.9 239L564.3 323.5L539.3 373.3L535.4 381L564.8 390.7L597.2 339.3C603 330.1 604.6 318.9 601.5 308.5Z" fill="#212121"/>
<path d="M410.3 329L420.7 372.5L491.9 353.5C506.2 349.7 517.2 338.2 520.3 323.8L538.9 238.8L564.3 323.4L535.4 380.9L580.7 395.9L601.9 338.8C607 325 607.3 309.8 602.7 295.8L566 184.9H509.5L485.5 304.1L410.3 329Z" fill="#313030"/>
<path d="M553.8 109.4H575.3C585.1 109.4 594.2 114.3 599.7 122.4L635.3 175.6C642.7 186.7 637.7 201.8 625.1 206.2C616.5 209.2 606.9 206.1 601.7 198.7L578.7 165.9C578.7 171.1 574.5 175.3 569.3 175.3H563.1L571.8 187.6H509.1L515 109.5L553.8 109.4Z" fill="#40376E"/>
<path d="M482.9 195.9L459.4 197.2C453.3 197.5 448.1 201.8 446.6 207.8L439.7 236C438.5 240.8 440 245.9 443.5 249.3L466.8 271.8C471 275.9 477.3 276.9 482.6 274.3L540.4 246.3C545.8 243.7 548.5 237.5 546.8 231.7C545.9 228.8 544 226.3 541.4 224.8L535.5 221.3L530.4 207.3L530.1 201.9C529.8 197.1 525.8 193.5 521 193.7L482.9 195.9Z" fill="#EC7043"/>
<path d="M475.7 222.6L672.6 163.6C671.9 161.4 674.2 159.6 676.2 160.6L696.7 171.6C698.5 172.5 699.1 174.7 698.2 176.5C697.3 178.3 695.1 178.9 693.3 178L691 176.8C689.4 175.9 687.4 176.5 686.5 178.1C685.4 180.2 682.8 180.9 680.8 179.8L673.3 175.8L480 236.8L475.7 222.6Z" fill="#F3B4CA"/>
<path d="M516.7 230L510 207.7L501.4 210.3L508.1 232.6L516.7 230Z" fill="#0B1D46"/>
<path d="M510.6 241.2L502.7 214.9L494.1 217.5L502 243.8L510.6 241.2Z" fill="white"/>
<path d="M486.5 263.9C489.2 263.9 491.5 261.7 491.5 258.9C491.5 256.2 489.3 253.9 486.5 253.9C483.8 253.9 481.5 256.1 481.5 258.9C481.5 261.7 483.8 263.9 486.5 263.9Z" fill="#0B1D46"/>
<path d="M500.1 259C502.4 259 504.2 257.2 504.2 254.9C504.2 252.6 502.4 250.8 500.1 250.8C497.8 250.8 496 252.6 496 254.9C496 257.1 497.8 259 500.1 259Z" fill="#0B1D46"/>
<path d="M480.9 239.6L474.8 219.3C474.3 217.7 472.7 216.9 471.1 217.3L466.8 218.6C465.2 219.1 464.4 220.7 464.8 222.3L470.9 242.6C471.4 244.2 473 245 474.6 244.6L478.9 243.3C480.5 242.8 481.4 241.1 480.9 239.6Z" fill="#303030"/>
<path fill-rule="evenodd" clip-rule="evenodd" d="M471.7 226.8L671.9 166.6L672.1 167.4L471.9 227.6L471.7 226.8Z" fill="white"/>
<path fill-rule="evenodd" clip-rule="evenodd" d="M472.4 229.3L676.9 167.8L677.1 168.6L472.6 230.1L472.4 229.3Z" fill="white"/>
<path fill-rule="evenodd" clip-rule="evenodd" d="M473.2 231.9L682.9 168.8L683.1 169.6L473.4 232.7L473.2 231.9Z" fill="white"/>
<path fill-rule="evenodd" clip-rule="evenodd" d="M473.9 234.4L687.2 170.2L687.4 171L474.1 235.2L473.9 234.4Z" fill="white"/>
<path d="M557.7 109.4V105.4L532.2 100.5L530.2 109.4H557.7Z" fill="#3F3A72"/>
<path d="M455.5 175.7L485.5 206.4L492.7 213.8C494.3 215.4 495.2 217.6 495.2 219.9V226.3C495.2 227.7 496.4 228.9 497.8 228.9H501.9C503.1 228.9 504.1 228.2 504.4 227.1L506.2 221.3V230.8C506.2 231.6 506.8 232.2 507.6 232.2C508.3 232.2 508.9 231.7 509 231L510.2 222.8C510.8 218.6 509.8 214.3 507.3 210.8L506.3 209.4L510.1 211.4C511 211.9 512.2 211.7 512.8 210.8C513.1 210.4 513.2 209.9 513.2 209.5C513.2 208.8 512.9 208.2 512.3 207.7L506 203.3C504.5 202.3 502.8 201.8 501 202.1L500 202.2C497.8 202.5 495.6 201.2 494.8 199.1V199L485.5 171.7L511.9 154.4L515.3 109.4H510.2C500.7 109.4 491.7 113.5 485.5 120.6L455.1 155.4C449.8 161.4 450.1 170.1 455.5 175.7Z" fill="#40376E"/>
<path d="M622.6 203.8C617.8 203.3 615.5 197.8 618.3 194C619.5 192.2 621.3 190.9 623.3 190.2L625 189.6C627.2 188.8 628.8 187.1 629.3 184.8L631.9 174.3L643.3 170.9L641.8 184.4C641.3 188.8 639 192.8 635.5 195.4L627 202.4C625.8 203.5 624.2 204 622.6 203.8Z" fill="#A5543F"/>
<path d="M485.4 206.4L492.6 213.8C494.2 215.4 495.1 217.6 495.1 219.9V226.3C495.1 227.7 496.3 228.9 497.7 228.9H501.8C502.9 228.9 503.9 228.2 504.3 227.1L506.1 221.3V230.8C506.1 231.6 506.7 232.2 507.5 232.2C508.2 232.2 508.8 231.7 508.9 231L510.5 219.7C510.8 217.5 510.3 215.2 508.9 213.4L506 209.4L509.8 211.4C510.7 211.9 511.9 211.7 512.5 210.8C512.8 210.4 512.9 210 512.9 209.5C512.9 208.8 512.6 208.2 512 207.7L505.7 203.3C504.2 202.3 502.5 201.8 500.7 202.1L499.7 202.2C497.5 202.5 495.3 201.2 494.5 199.1V199L485.4 206.4Z" fill="#A5543F"/>
<path d="M496 200.7L488.1 209.1L484.7 205.7C483.5 204.5 481.9 203.5 480.3 203.1L475.8 201.8C473.3 201.1 471.1 199.5 469.6 197.3L455.5 175.7L490.6 187.2L496 200.7Z" fill="#40376E"/>
<path d="M537.4 71.8001L543 92.5L561.7 90.5C566.5 90 569.5 84.9 567.4 80.5L559.5 63.3C559.5 63.3 556.2 82.2001 537.4 71.8001Z" fill="#A5543F"/>
<path d="M534.7 75.3L539.7 78.3L537.4 71.8L536.7 71.5C535.6 71 534.2 71.5 533.8 72.7C533.4 73.7 533.8 74.8 534.7 75.3Z" fill="#A5543F"/>
<path fill-rule="evenodd" clip-rule="evenodd" d="M182.3 216.6H96.2002V214.6H182.3V216.6Z" fill="#EEB236"/>
<path fill-rule="evenodd" clip-rule="evenodd" d="M1236.4 33C1236.8 33.2 1236.9 33.7 1236.8 34.1L1206.9 146.2L1316.3 125.5C1316.7 125.4 1317.2 125.6 1317.4 126.1C1317.6 126.5 1317.5 127 1317.1 127.3L1226.3 203.3L1326.8 220.4C1327.2 220.5 1327.6 220.8 1327.6 221.3C1327.6 221.7 1327.4 222.2 1327 222.3L1250.4 251.1L1321.7 308.5C1322 308.8 1322.2 309.2 1322 309.6C1321.8 310 1321.5 310.3 1321.1 310.3H1253.8V308.3H1318.2L1247.8 251.5C1247.5 251.3 1247.4 250.9 1247.4 250.6C1247.5 250.2 1247.7 249.9 1248 249.8L1322.8 221.7L1223.8 204.8C1223.4 204.7 1223.1 204.5 1223 204.1C1222.9 203.7 1223 203.3 1223.3 203.1L1312.9 128.2L1205.7 148.5C1205.4 148.6 1205 148.4 1204.8 148.2C1204.6 147.9 1204.5 147.6 1204.6 147.3L1234 36.8L1127.1 131.6C1126.9 131.8 1126.6 131.9 1126.3 131.8C1126 131.8 1125.7 131.6 1125.6 131.3L1078.8 48.7L1088.4 118.3L1086.4 118.6L1076.1 43.9C1076 43.4 1076.3 43 1076.8 42.8C1077.2 42.6 1077.7 42.8 1078 43.3L1126.8 129.4L1235.3 33.2C1235.5 32.8 1236 32.7 1236.4 33Z" fill="#EC7043"/>
<path d="M386.2 289.7C383.7 283 384.5 275.5 385.2 268.4C385.7 263.3 386.2 258.5 385.6 254C385 249.2 383.2 244.3 381.5 239.6C379 232.9 376.5 226 377.2 219.2C377.9 212.2 381.8 205.9 385.5 199.8C388.1 195.6 390.8 191.2 392.3 186.7C393.8 182.2 394.3 177.1 394.8 172.1C395.5 165 396.2 157.6 399.8 151.7C403.4 145.8 409.6 141.8 415.6 137.9C419.8 135.2 424.1 132.4 427.5 128.9C430.7 125.6 433.4 121.2 435.9 117C439.6 110.8 443.5 104.5 449.4 100.6C455.3 96.8 462.5 95.9 469.5 95C474.5 94.4 479.6 93.8 484.1 92.1L484.8 94C480 95.7 474.8 96.4 469.7 97C462.6 97.9 455.9 98.7 450.4 102.2C444.8 105.8 441.1 112 437.5 117.9C434.9 122.2 432.2 126.7 428.8 130.2C425.3 133.8 420.9 136.7 416.6 139.4C410.8 143.1 404.8 147 401.5 152.6C398.1 158.2 397.4 165.3 396.8 172.2C396.3 177.3 395.8 182.5 394.2 187.2C392.6 191.9 389.9 196.3 387.2 200.7C383.6 206.6 379.8 212.7 379.2 219.2C378.6 225.6 380.9 232 383.4 238.7C385.2 243.5 387 248.5 387.7 253.5C388.3 258.3 387.8 263.4 387.3 268.4C386.6 275.3 385.9 282.5 388.2 288.8L386.2 289.7Z" fill="#EC7043"/>
<path d="M332.1 309.5C328.6 299.9 328.8 289.5 329 279.5C329.1 273.1 329.2 267.1 328.5 261.2C327.7 255.1 326 248.8 324.3 242.8C321.6 233.2 318.9 223.3 319.9 213.5C320.9 203.7 325.5 194.5 330 185.5C332.8 179.9 335.7 174.2 337.6 168.4C339.5 162.6 340.7 156.3 341.8 150.1C343.6 140.3 345.4 130.1 350.5 121.7C355.6 113.3 363.8 107 371.7 100.9C376.6 97.1 381.8 93.2 386 88.8C390.2 84.5 393.9 79.4 397.5 74.4C403.4 66.2 409.5 57.8 417.9 52.3C426 47.1 436 45 445.7 42.9C451.9 41.6 458.3 40.2 464.3 38.1L465 40C458.9 42.2 452.5 43.6 446.2 44.9C436.2 47 426.8 49 419 54C410.8 59.3 404.9 67.6 399.1 75.6C395.5 80.6 391.7 85.8 387.5 90.2C383.1 94.7 378 98.7 373 102.5C365.2 108.5 357.2 114.6 352.3 122.8C347.3 131 345.6 140.9 343.8 150.6C342.7 156.8 341.5 163.2 339.6 169.1C337.6 175 334.7 180.8 331.9 186.5C327.5 195.3 322.9 204.4 322 213.8C321.1 223.2 323.7 232.5 326.4 242.3C328.1 248.4 329.8 254.7 330.7 261C331.5 267 331.3 273.4 331.2 279.6C331 289.5 330.8 299.7 334.2 308.9L332.1 309.5Z" fill="#EC7043"/>
<path fill-rule="evenodd" clip-rule="evenodd" d="M816.8 184H792.8V182H816.8V184Z" fill="#EE8AAB"/>
<path fill-rule="evenodd" clip-rule="evenodd" d="M760.3 132.6C760.7 132.7 761 133.1 761 133.5V147H759V136.4L739 161L737.4 159.7L759.1 132.9C759.4 132.6 759.9 132.5 760.3 132.6Z" fill="#EE8AAB"/>
<path fill-rule="evenodd" clip-rule="evenodd" d="M854.8 188.5L883.3 159.7L884.7 161.1L856.2 189.9L854.8 188.5Z" fill="#EE8AAB"/>
<path d="M785.4 312L793.5 333.1L814.2 323.9L805 344.6L826.2 352.7L805 360.8L814.2 381.5L793.5 372.3L785.4 393.4L777.3 372.3L756.6 381.5L765.8 360.8L744.6 352.7L765.8 344.6L756.6 323.9L777.3 333.1L785.4 312Z" fill="#ECCC77"/>
<path fill-rule="evenodd" clip-rule="evenodd" d="M563.3 76.7L557.3 81L556.7 80.2L562.7 75.9L563.3 76.7Z" fill="#682518"/>
<path d="M551.6 75.4C552.3 75.4 552.8 74.9 552.8 74.2C552.8 73.5 552.3 73 551.6 73C550.9 73 550.4 73.5 550.4 74.2C550.4 74.9 550.9 75.4 551.6 75.4Z" fill="#313030"/>
<path d="M562.2 70.4C562.9 70.4 563.5 69.8 563.5 69.1C563.5 68.4 562.9 67.8 562.2 67.8C561.5 67.8 560.9 68.4 560.9 69.1C560.8 69.8 561.4 70.4 562.2 70.4Z" fill="#313030"/>
<path fill-rule="evenodd" clip-rule="evenodd" d="M558.3 71.2C559.4 70.9 560.3 72 560 73L559.4 74.9L558.4 74.6L559 72.7C559.1 72.4 558.8 72.1 558.5 72.1L556.8 72.5L556.6 71.5L558.3 71.2Z" fill="#8C362A"/>
<path fill-rule="evenodd" clip-rule="evenodd" d="M534.7 79.1L535.6 75.9L536.6 76.2L535.7 79.4C535.6 79.9 535.8 80.4 536.3 80.5C536.8 80.7 537.4 80.4 537.6 79.9L539 76L539.9 76.3L538.5 80.2C538.1 81.2 537 81.8 535.9 81.4C534.9 81.1 534.4 80.1 534.7 79.1Z" fill="#ECCC77"/>
</g>
</g>
<defs>
<clipPath id="clip0_1528_81461">
<rect width="1335" height="464" fill="white"/>
</clipPath>
</defs>
</svg>
