<svg width="1335" height="464" viewBox="0 0 1335 464" fill="none" xmlns="http://www.w3.org/2000/svg">
<g clip-path="url(#clip0_1528_83480)">
<rect width="1335" height="464" fill="#FFEBBA"/>
<mask id="mask0_1528_83480" style="mask-type:luminance" maskUnits="userSpaceOnUse" x="0" y="0" width="1335" height="465">
<path d="M1335 0.380005H0V464.38H1335V0.380005Z" fill="white"/>
</mask>
<g mask="url(#mask0_1528_83480)">
<path d="M1335 0.00012207H0V464H1335V0.00012207Z" fill="#FFEBBA"/>
<path d="M945.27 47.5397C965.301 47.5397 981.54 31.3011 981.54 11.2698C981.54 -8.76161 965.301 -25.0002 945.27 -25.0002C925.239 -25.0002 909 -8.76161 909 11.2698C909 31.3011 925.239 47.5397 945.27 47.5397Z" fill="#FFBA00"/>
<path d="M945.27 11.2698L966.56 5.5098C967.99 10.7998 967.4 16.4398 964.9 21.3198C959.39 32.0898 945.99 36.4198 935.21 30.8998C924.44 25.3898 920.11 11.9898 925.63 1.20979C931.14 -9.56021 944.54 -13.8902 955.32 -8.37021L945.27 11.2598V11.2698Z" fill="#FF9E00"/>
<path d="M945.27 25.4497C953.101 25.4497 959.45 19.1011 959.45 11.2697C959.45 3.43832 953.101 -2.91028 945.27 -2.91028C937.439 -2.91028 931.09 3.43832 931.09 11.2697C931.09 19.1011 937.439 25.4497 945.27 25.4497Z" fill="#FF8400"/>
<path d="M1035.21 80.4197C1050.79 80.4197 1063.42 67.7897 1063.42 52.2097C1063.42 36.6298 1050.79 23.9998 1035.21 23.9998C1019.63 23.9998 1007 36.6298 1007 52.2097C1007 67.7897 1019.63 80.4197 1035.21 80.4197Z" fill="#FFBA00"/>
<path d="M1035.21 52.2099L1051.77 47.73C1052.88 51.85 1052.42 56.2299 1050.48 60.0299C1046.19 68.41 1035.77 71.77 1027.39 67.48C1019.01 63.19 1015.65 52.7699 1019.94 44.3899C1024.23 36.0099 1034.65 32.6499 1043.03 36.9399L1035.21 52.2099Z" fill="#FF9E00"/>
<path d="M1035.21 63.2404C1041.3 63.2404 1046.24 58.3021 1046.24 52.2104C1046.24 46.1187 1041.3 41.1804 1035.21 41.1804C1029.12 41.1804 1024.18 46.1187 1024.18 52.2104C1024.18 58.3021 1029.12 63.2404 1035.21 63.2404Z" fill="#FF8400"/>
<path d="M1184.29 366.359L1179.78 360.601L1173.42 364.265L1174.77 366.6C1181.32 377.985 1179.65 392.173 1170.94 402.02C1149.61 426.167 1144.95 462.149 1161.91 491.618L1295.68 414.616C1278.74 385.185 1245.34 371.14 1213.78 377.397C1202.68 379.6 1191.28 375.27 1184.29 366.359Z" fill="#0F1835"/>
<path d="M1197.1 398.037C1166.69 415.545 1156.22 454.402 1173.73 484.817L1283.88 421.41C1266.37 390.995 1227.52 380.53 1197.1 398.037Z" fill="#AA5D9D"/>
<path d="M1199.63 402.447C1171.64 418.556 1162.02 454.304 1178.12 482.292L1279.47 423.951C1263.36 395.963 1227.61 386.335 1199.62 402.444L1199.63 402.447Z" fill="#55287C"/>
<path d="M1203.16 408.582C1178.57 422.744 1170.11 454.153 1184.26 478.75L1273.32 427.48C1259.16 402.888 1227.75 394.429 1203.15 408.578L1203.16 408.582Z" fill="#D6ACEB"/>
<path d="M1205.45 412.544C1183.05 425.445 1175.33 454.064 1188.23 476.467L1269.37 429.76C1256.47 407.356 1227.85 399.643 1205.45 412.544Z" fill="#AA5D9D"/>
<path d="M1207.55 416.196C1187.16 427.934 1180.15 453.979 1191.89 474.367L1265.73 431.863C1253.99 411.474 1227.95 404.462 1207.56 416.2L1207.55 416.196Z" fill="#D6ACEB"/>
<path d="M1210.74 421.742C1193.4 431.72 1187.45 453.854 1197.42 471.185L1260.17 435.058C1250.19 417.724 1228.06 411.77 1210.73 421.739L1210.74 421.742Z" fill="#EEDCF7"/>
<path d="M1213.03 425.705C1197.89 434.425 1192.67 453.755 1201.39 468.892L1256.21 437.336C1247.49 422.198 1228.16 416.985 1213.03 425.705Z" fill="#FFDFDE"/>
<path d="M1220.25 436.502C1209.05 442.948 1205.19 457.262 1211.65 468.466L1252.22 445.109C1245.78 433.909 1231.46 430.05 1220.26 436.506L1220.25 436.502Z" fill="#FFF9EE"/>
<path d="M597.899 185.171L600.602 184.944C602.663 184.775 604.512 183.628 605.583 181.861L616.063 164.523C617.237 162.57 619.366 161.393 621.642 161.413L652.578 161.728C655.889 161.758 658.64 164.304 658.925 167.608L660.321 183.707C660.526 186.118 659.362 188.447 657.307 189.731C653.294 192.226 648.051 189.698 647.506 185.007L647.361 183.769C646.661 177.741 640.989 173.566 635.023 174.693C632.201 175.222 629.718 176.895 628.154 179.31L621.937 188.974C620.765 190.793 620.583 193.073 621.461 195.052L624.038 200.909C626.573 206.663 620.204 212.267 614.814 209.013L595.099 197.103C589.754 193.87 591.678 185.688 597.899 185.171Z" fill="#008700"/>
<path d="M586.484 213.557L544.574 298.429C542.802 302.015 539.864 304.656 536.443 306.102C532.291 307.86 527.432 307.868 523.07 305.722C519.919 304.163 517.432 301.652 515.892 298.65C514.692 296.321 514.073 293.693 514.13 290.979L516.165 197.535C516.535 180.614 531.921 168.026 548.579 171.011L566.641 174.244C584.694 177.48 594.613 197.126 586.486 213.567L586.484 213.557Z" fill="#FF4310"/>
<path d="M536.441 306.093C532.289 307.85 527.43 307.858 523.068 305.712C519.917 304.153 517.43 301.642 515.89 298.64L571.518 208.559L536.443 306.102L536.441 306.093Z" fill="#FF0000"/>
<path d="M570.565 331.071C576.407 333.245 582.979 331.843 587.435 327.472L654.074 261.938C666.136 250.068 664.762 230.24 651.172 220.156L636.437 209.225C621.702 198.294 600.608 204.546 594.197 221.731L561.134 310.418C558.042 318.73 562.263 327.977 570.565 331.071Z" fill="#FF4310"/>
<path fill-rule="evenodd" clip-rule="evenodd" d="M516.98 197.531L514.935 290.977L513.316 290.942L515.361 197.496L516.98 197.531Z" fill="#FF0000"/>
<path fill-rule="evenodd" clip-rule="evenodd" d="M651.653 219.496C665.642 229.877 667.056 250.287 654.64 262.505L653.503 261.351C665.212 249.83 663.878 230.585 650.687 220.797L651.653 219.496Z" fill="#FF0000"/>
<path d="M605.91 185.949L604.807 185.404C595.106 180.613 583.358 184.594 578.568 194.295L531.12 290.378C526.329 300.079 530.31 311.826 540.011 316.617L541.113 317.162C550.814 321.952 562.562 317.971 567.352 308.271L614.801 212.188C619.591 202.487 615.61 190.739 605.91 185.949Z" fill="#FF4310"/>
<path fill-rule="evenodd" clip-rule="evenodd" d="M566.617 307.928L614.071 211.84L615.523 212.557L568.07 308.646L566.617 307.928Z" fill="#FF0000"/>
<path fill-rule="evenodd" clip-rule="evenodd" d="M579.28 194.667L531.827 290.756L530.375 290.038L577.828 193.95L579.28 194.667Z" fill="#FF0000"/>
<path fill-rule="evenodd" clip-rule="evenodd" d="M531.827 290.756C527.236 300.047 531.048 311.316 540.348 315.904L539.631 317.357C529.528 312.372 525.388 300.131 530.375 290.038L531.827 290.756Z" fill="#FF0000"/>
<path d="M1335.1 151.775L1347.18 165.82L1366.47 188.268L1349.48 202.856L1323.98 192.97L1298.6 183.124L1301.18 180.906L1323.76 188.214L1333.68 191.414C1333.9 191.495 1334.05 191.185 1333.85 191.061L1323.59 184.563L1308.23 174.842L1312.83 170.892L1323.26 177.508L1341.75 189.233C1341.95 189.358 1342.15 189.112 1342.01 188.932L1327.57 172.125L1320.69 164.132L1324.26 161.067L1333.35 170.249L1346.38 183.414C1346.56 183.596 1346.83 183.352 1346.69 183.156L1336.49 169.242L1328.09 157.767L1330.97 155.296L1340.55 167.937L1345.17 174.024L1341.57 167.612L1333.46 153.161L1335.1 151.753L1335.1 151.775Z" fill="#008700"/>
<path d="M1301.18 180.928L1323.76 188.226L1323.99 192.983L1298.6 183.137L1301.18 180.928Z" fill="#004700"/>
<path d="M1308.23 174.864L1312.83 170.914L1323.27 177.53L1323.6 184.576L1308.23 174.864Z" fill="#004700"/>
<path d="M1324.27 161.092L1333.35 170.271L1327.58 172.15L1320.7 164.158L1324.27 161.092Z" fill="#004700"/>
<path d="M1330.97 155.318L1340.56 167.959L1336.49 169.274L1328.09 157.798L1330.97 155.318Z" fill="#004700"/>
<path d="M1335.1 151.775L1347.18 165.82L1341.58 167.634L1333.46 153.183L1335.1 151.775Z" fill="#004700"/>
<path d="M1324.89 102.282C1323.91 95.4496 1320.5 88.8714 1314.42 83.9685C1305.06 76.435 1291.63 75.6814 1281.48 82.1106C1269.97 89.4006 1265.72 102.889 1269.3 114.671C1260.56 113.446 1251.31 116.214 1244.58 123.285C1235.56 132.735 1234.18 147.548 1241.34 158.479C1245.94 165.518 1252.91 169.752 1260.32 171.063C1252.91 182.3 1254.12 197.82 1264.75 207.746C1274.23 216.589 1288.92 217.858 1299.75 210.739C1311.49 203.021 1315.4 188.763 1310.9 176.757C1313.99 175.613 1316.95 173.944 1319.59 171.664C1324.05 167.825 1327.04 162.914 1328.5 157.637C1338.01 159.341 1348.3 156.246 1355.37 148C1363.4 138.644 1364.4 124.775 1357.79 114.35C1350.42 102.737 1336.75 98.5081 1324.89 102.282Z" fill="#008700"/>
<path fill-rule="evenodd" clip-rule="evenodd" d="M1324.67 101.615C1336.82 97.749 1350.84 102.082 1358.38 113.975L1357.2 114.725C1350.01 103.393 1336.67 99.2672 1325.1 102.949L1324.67 101.615Z" fill="#004700"/>
<path fill-rule="evenodd" clip-rule="evenodd" d="M1290.62 162.891C1277.1 158.038 1262.21 165.065 1257.36 178.583L1256.04 178.11C1261.15 163.864 1276.85 156.459 1291.1 161.573L1290.62 162.891Z" fill="#004700"/>
<path fill-rule="evenodd" clip-rule="evenodd" d="M1270.17 114.925C1276.31 127.92 1291.81 133.483 1304.8 127.355L1305.4 128.621C1291.7 135.079 1275.37 129.216 1268.91 115.523L1270.17 114.925Z" fill="#004700"/>
<path d="M659.884 429.87L667.299 448.615L679.142 478.581L656.47 487.535L633.767 468.283L611.168 449.117L614.606 447.755L635.22 463.312L644.286 470.146C644.488 470.307 644.748 470.045 644.591 469.842L636.35 459.507L624.01 444.04L630.139 441.611L638.511 452.14L653.352 470.788C653.509 470.99 653.81 470.802 653.723 470.567L644.861 448.141L640.638 437.468L645.396 435.588L651.471 448.265L660.174 466.45C660.295 466.698 660.658 466.552 660.589 466.294L655.062 448.351L650.501 433.555L654.345 432.033L659.702 448.446L662.279 456.349L660.868 448.479L657.675 430.728L659.864 429.873L659.884 429.87Z" fill="#008700"/>
<path d="M614.611 447.766L635.226 463.323L633.773 468.294L611.174 449.128L614.611 447.766Z" fill="#004700"/>
<path d="M624.027 444.045L630.157 441.617L638.529 452.146L636.368 459.512L624.027 444.045Z" fill="#004700"/>
<path d="M645.422 435.597L651.497 448.274L644.879 448.147L640.655 437.474L645.422 435.597Z" fill="#004700"/>
<path d="M654.367 432.05L659.724 448.463L655.084 448.368L650.526 433.563L654.367 432.05Z" fill="#004700"/>
<path d="M659.884 429.87L667.299 448.615L660.894 448.488L657.701 430.738L659.884 429.87Z" fill="#004700"/>
<path d="M667.008 375.328C668.434 367.962 667.271 359.971 662.756 352.764C655.824 341.683 642.27 336.124 629.539 339.117C615.103 342.516 605.936 354.876 605.412 368.265C596.861 363.89 586.37 363.448 576.918 368.314C564.281 374.829 557.57 389.571 561.044 403.359C563.272 412.235 568.925 419.078 576.089 423.077C564.462 431.991 560.174 448.389 567.57 462.384C574.164 474.857 588.834 481.397 602.504 477.928C617.332 474.172 626.427 460.905 626.071 446.942C629.655 446.861 633.289 446.199 636.829 444.797C642.787 442.441 647.608 438.449 650.989 433.541C660.165 438.686 671.851 439.162 682.058 433.212C693.656 426.45 699.627 412.537 696.536 399.47C693.098 384.903 680.536 375.681 666.996 375.334L667.008 375.328Z" fill="#008700"/>
<path fill-rule="evenodd" clip-rule="evenodd" d="M667.023 374.735C680.82 375.089 693.623 384.487 697.126 399.328L695.97 399.6C692.597 385.309 680.275 376.263 666.992 375.922L667.023 374.735Z" fill="#00A338"/>
<path fill-rule="evenodd" clip-rule="evenodd" d="M622.907 455.997C627.23 444.252 621.216 431.231 609.471 426.908L609.894 425.76C622.273 430.316 628.612 444.04 624.055 456.42L622.907 455.997Z" fill="#004700"/>
<path fill-rule="evenodd" clip-rule="evenodd" d="M630.465 356.111C624.939 371.123 632.63 387.774 647.642 393.3L647.219 394.448C631.573 388.689 623.557 371.334 629.317 355.688L630.465 356.111Z" fill="#004700"/>
<path fill-rule="evenodd" clip-rule="evenodd" d="M611.721 374.461C600.868 362.7 582.542 361.961 570.784 372.806L569.954 371.906C582.209 360.603 601.309 361.373 612.62 373.631L611.721 374.461Z" fill="#004700"/>
<path d="M768.541 61.271C768.545 50.4261 786.297 37.17 808.202 31.6565C830.098 26.1385 846.39 34.9399 844.588 51.2945C842.781 67.6581 825.029 80.9143 804.927 80.9091C784.824 80.904 768.541 72.1071 768.541 61.271Z" fill="#629E51"/>
<path d="M738.169 70.7973C747.215 76.7812 748.488 98.9036 741.012 120.217C733.535 141.531 717.217 150.269 704.569 139.742C691.912 129.21 690.648 107.092 701.726 90.3218C712.814 73.5564 729.133 64.818 738.169 70.7973Z" fill="#629E51"/>
<path d="M793.02 92.3148C801.975 86.1968 822.941 93.3864 839.844 108.361C856.748 123.335 858.679 141.747 844.152 149.484C829.625 157.22 808.664 150.044 797.328 133.438C785.996 116.845 784.07 98.4239 793.02 92.3148Z" fill="#29B25E"/>
<path d="M780.605 107.069C785.81 110.986 785.781 124.304 780.527 136.818C775.272 149.331 765.162 153.984 757.952 147.222C750.738 140.447 750.775 127.133 758.031 117.473C765.286 107.814 775.396 103.161 780.605 107.069Z" fill="#29B25E"/>
<path fill-rule="evenodd" clip-rule="evenodd" d="M774.513 64.2172L834.557 49.1564L835.124 51.4164L775.08 66.4772L775.079 66.4772C765.757 68.8147 755.87 66.4623 748.599 60.182L749.36 59.3004L748.599 60.182L697.051 15.6546L698.574 13.8914L750.122 58.4188C756.819 64.2032 765.927 66.3701 774.513 64.2172Z" fill="#008700"/>
<path fill-rule="evenodd" clip-rule="evenodd" d="M711.767 28.3728L713.297 26.6159L719.084 31.6205C719.084 31.6206 719.084 31.6207 719.085 31.6208C719.769 32.2118 720.433 32.8195 721.078 33.4432L838.684 136.639L837.148 138.39L728.938 43.4405C735.489 54.5972 737.291 68.1879 733.424 81.003L733.424 81.003L721.145 121.674L718.915 121L731.193 80.3297C731.193 80.3297 731.193 80.3297 731.193 80.3296C736.06 64.2046 731.483 46.7888 719.497 35.1562L711.773 28.3783L711.767 28.3728Z" fill="#008700"/>
<path fill-rule="evenodd" clip-rule="evenodd" d="M784.997 90.5497L767.705 135.045L765.533 134.201L782.826 89.7057L784.997 90.5497Z" fill="#008700"/>
<path fill-rule="evenodd" clip-rule="evenodd" d="M1063.12 429.646L1245.14 616.466L1242.46 619.075L1060.44 432.255L1063.12 429.646Z" fill="#004700"/>
<path fill-rule="evenodd" clip-rule="evenodd" d="M985.307 430.353L1171.84 612.663L1169.22 615.337L982.693 433.027L985.307 430.353Z" fill="#004700"/>
<path fill-rule="evenodd" clip-rule="evenodd" d="M1028.92 439.723L1215.45 622.043L1212.83 624.717L1026.3 442.397L1028.92 439.723Z" fill="#29B25E"/>
<path fill-rule="evenodd" clip-rule="evenodd" d="M1041.82 438.283L1228.35 620.603L1225.73 623.278L1039.2 440.958L1041.82 438.283Z" fill="#008700"/>
<path fill-rule="evenodd" clip-rule="evenodd" d="M1044.28 428.663L1230.81 610.973L1228.19 613.647L1041.66 431.338L1044.28 428.663Z" fill="#4CA046"/>
<path fill-rule="evenodd" clip-rule="evenodd" d="M970.954 367.761L993.974 385.561L991.686 388.52L968.666 370.72L970.954 367.761Z" fill="#29B25E"/>
<path fill-rule="evenodd" clip-rule="evenodd" d="M956.158 387.395L927.148 389.695L926.852 385.966L955.862 383.666L956.158 387.395Z" fill="#29B25E"/>
<path fill-rule="evenodd" clip-rule="evenodd" d="M963.122 374.686L992.132 372.386L992.427 376.114L963.417 378.414L963.122 374.686Z" fill="#004700"/>
<path fill-rule="evenodd" clip-rule="evenodd" d="M974.562 356.213L1002.36 364.803L1001.26 368.377L973.458 359.787L974.562 356.213Z" fill="#29B25E"/>
<path fill-rule="evenodd" clip-rule="evenodd" d="M1000.03 381.728L1011.72 408.378L1008.3 409.881L996.608 383.231L1000.03 381.728Z" fill="#29B25E"/>
<path fill-rule="evenodd" clip-rule="evenodd" d="M1018.59 383.65L1041.62 401.45L1039.34 404.41L1016.31 386.61L1018.59 383.65Z" fill="#008700"/>
<path d="M1010.98 119.447L1192.26 225.1L1175.46 253.931L1161.95 245.042C1158.8 242.945 1155.56 246.003 1154.22 248.67L1141.84 269.914C1138.89 274.972 1136.38 274.187 1132.04 271.658L1074.05 233.455C1060.92 225.123 1035.26 205.747 1015.64 189.564C997.4 174.529 977.745 156.999 968.418 147.836C964.633 144.592 944.825 120.173 938.307 109.28C938.307 109.28 935.406 104.52 936.681 102.572C938.343 100.153 940.87 100.609 942.138 100.332C948.157 100.452 983.297 103.313 1010.98 119.447Z" fill="#CCCCCC"/>
<mask id="mask1_1528_83480" style="mask-type:alpha" maskUnits="userSpaceOnUse" x="936" y="100" width="257" height="174">
<path d="M1010.98 119.447L1192.26 225.101L1175.46 253.932L1161.95 245.042C1158.8 242.945 1155.56 246.004 1154.22 248.671L1141.84 269.915C1138.89 274.973 1136.38 274.187 1132.04 271.659L1074.05 233.455C1060.92 225.124 1035.26 205.747 1015.64 189.565C997.4 174.53 977.745 156.999 968.418 147.836C964.633 144.593 944.825 120.173 938.307 109.28C938.307 109.28 935.406 104.52 936.681 102.573C938.343 100.153 940.87 100.609 942.138 100.332C948.157 100.452 983.297 103.314 1010.98 119.447Z" fill="#CCCCCC"/>
</mask>
<g mask="url(#mask1_1528_83480)">
<path d="M1198.6 224.676L1177.6 257.176C1162.02 247.722 1165.55 244.081 1156.1 259.676L1148.1 272.676L1142.6 282.176L1071.6 236.676C1142.6 250.176 1159.6 236.676 1177.6 211.176L1198.6 224.676Z" fill="#ADADAD"/>
<path fill-rule="evenodd" clip-rule="evenodd" d="M956.475 119.766C950.235 111.894 943.625 103.03 940.338 97.5357L942.096 96.2921C945.326 101.69 951.879 110.483 958.119 118.355C961.234 122.286 964.263 125.975 966.746 128.882C969.248 131.809 971.156 133.895 972.048 134.659L972.068 134.676L972.086 134.694C981.393 143.837 1001.03 161.352 1019.25 176.379C1038.87 192.555 1064.5 211.908 1077.59 220.214L1077.6 220.217L1135.59 258.42L1135.6 258.424L1146.24 265.304L1144.97 267.048L1134.31 260.164L1134.31 260.16L1076.33 221.964C1076.33 221.963 1076.32 221.962 1076.32 221.961C1063.15 213.602 1037.47 194.205 1017.84 178.018C999.601 162.984 979.942 145.451 970.587 136.263C969.581 135.394 967.603 133.22 965.139 130.336C962.64 127.412 959.6 123.707 956.475 119.766Z" fill="#FFF9EE"/>
</g>
<path d="M1192.85 224.069L1212.96 235.79L1194.09 268.162L1174.92 254.822L1192.85 224.069Z" fill="#FFCA3F"/>
<path d="M1336.06 316.021C1335.99 316.161 1335.9 316.307 1335.81 316.447L1323.26 337.129C1322.3 338.708 1321.11 340.06 1319.76 341.166C1318.38 342.298 1316.83 343.171 1315.18 343.77C1310.83 345.362 1305.83 345.029 1301.57 342.444L1288.75 334.665C1286.95 333.579 1285.59 332.067 1284.69 330.335C1283.84 328.696 1282.17 327.677 1280.32 327.684C1278.37 327.691 1276.4 327.178 1274.61 326.092L1257.71 315.841C1255.91 314.755 1254.55 313.243 1253.66 311.511C1252.8 309.866 1251.13 308.854 1249.28 308.86C1247.34 308.86 1245.36 308.347 1243.57 307.262L1226.67 297.01C1224.88 295.925 1223.51 294.413 1222.62 292.681C1221.76 291.042 1220.09 290.023 1218.24 290.03C1216.3 290.036 1214.32 289.524 1212.53 288.438L1199.71 280.658C1192.25 276.135 1189.87 266.424 1194.39 258.963L1206.94 238.281C1211.47 230.821 1221.18 228.443 1228.64 232.966L1241.46 240.746C1243.25 241.831 1244.62 243.343 1245.51 245.075C1246.36 246.714 1248.04 247.733 1249.88 247.726C1251.83 247.726 1253.81 248.233 1255.6 249.318L1272.5 259.569C1274.29 260.655 1275.65 262.174 1276.55 263.899C1277.4 265.544 1279.07 266.557 1280.92 266.557C1282.87 266.55 1284.84 267.063 1286.63 268.149L1303.54 278.4C1305.33 279.486 1306.69 280.998 1307.59 282.729C1308.44 284.368 1310.11 285.387 1311.96 285.38C1313.91 285.374 1315.88 285.887 1317.67 286.972L1330.5 294.752C1337.82 299.189 1340.24 308.62 1336.06 316.021Z" fill="#FFD777"/>
<path fill-rule="evenodd" clip-rule="evenodd" d="M1221.03 287.134L1243.3 249.081L1245.89 250.596L1223.62 288.649L1221.03 287.134Z" fill="#FFBA00"/>
<path fill-rule="evenodd" clip-rule="evenodd" d="M1253.31 306.157L1275.58 268.11L1278.17 269.626L1255.9 307.673L1253.31 306.157Z" fill="#FFBA00"/>
<path fill-rule="evenodd" clip-rule="evenodd" d="M1283.17 325.188L1305.44 287.134L1308.03 288.649L1285.76 326.703L1283.17 325.188Z" fill="#FFBA00"/>
<path d="M1297.65 318.785L1315.18 343.77C1310.83 345.362 1305.83 345.028 1301.57 342.444L1288.75 334.664C1286.95 333.578 1285.59 332.066 1284.69 330.335C1283.84 328.696 1282.17 327.677 1280.32 327.683C1278.37 327.69 1276.4 327.177 1274.61 326.092L1257.71 315.84C1255.91 314.755 1254.55 313.243 1253.66 311.511C1252.8 309.866 1251.13 308.853 1249.28 308.86C1247.34 308.86 1245.36 308.347 1243.57 307.261L1226.67 297.01C1224.88 295.924 1223.51 294.412 1222.62 292.68C1221.76 291.042 1220.09 290.023 1218.24 290.029C1216.3 290.036 1214.32 289.523 1212.53 288.437L1199.71 280.657C1192.25 276.135 1189.87 266.423 1194.39 258.963L1206.94 238.281L1217.08 282.896L1224.46 278.846C1227.25 277.314 1230.69 277.707 1233.07 279.812L1255.49 299.721C1256.93 301 1258.63 301.939 1260.48 302.472L1284.54 309.426C1289.85 310.958 1294.47 314.262 1297.65 318.785Z" fill="#FFBA00"/>
<path fill-rule="evenodd" clip-rule="evenodd" d="M417.109 -86.3448L599.129 100.475L596.451 103.085L414.431 -83.7349L417.109 -86.3448Z" fill="#008700"/>
<path fill-rule="evenodd" clip-rule="evenodd" d="M339.307 -85.637L525.837 96.673L523.223 99.3477L336.693 -82.9623L339.307 -85.637Z" fill="#29B25E"/>
<path fill-rule="evenodd" clip-rule="evenodd" d="M407.893 -28.3866L602.683 145.073L600.196 147.867L405.406 -25.5935L407.893 -28.3866Z" fill="#008700"/>
<path fill-rule="evenodd" clip-rule="evenodd" d="M382.907 -76.2673L569.437 106.053L566.823 108.727L380.293 -73.5927L382.907 -76.2673Z" fill="#008700"/>
<path fill-rule="evenodd" clip-rule="evenodd" d="M395.807 -77.7073L582.337 104.613L579.723 107.287L393.193 -75.0327L395.807 -77.7073Z" fill="#29B25E"/>
<path fill-rule="evenodd" clip-rule="evenodd" d="M398.277 -87.3372L584.807 94.9828L582.193 97.6574L395.663 -84.6626L398.277 -87.3372Z" fill="#546300"/>
</g>
<path d="M1063.13 354C1083.99 354 1100.89 337.094 1100.89 316.24C1100.89 295.385 1083.99 278.479 1063.13 278.479C1042.28 278.479 1025.37 295.385 1025.37 316.24C1025.37 337.094 1042.28 354 1063.13 354Z" fill="#FFBA00"/>
<path d="M1063.13 316.239L1054.88 337.664C1049.55 335.617 1045.18 331.648 1042.62 326.551C1036.96 315.296 1041.56 301.378 1052.82 295.725C1064.08 290.063 1077.99 294.672 1083.65 305.927C1089.31 317.183 1084.7 331.101 1073.44 336.754L1063.13 316.239Z" fill="#FF9E00"/>
<path d="M1063.13 331.009C1071.29 331.009 1077.9 324.396 1077.9 316.24C1077.9 308.083 1071.29 301.471 1063.13 301.471C1054.98 301.471 1048.36 308.083 1048.36 316.24C1048.36 324.396 1054.98 331.009 1063.13 331.009Z" fill="#FF8400"/>
<path d="M1241.75 54.3262C1237.29 58.1596 1229.84 64.3771 1221.28 71.454C1220.74 71.9005 1220.19 72.3471 1219.64 72.802C1213.4 77.958 1206.66 83.51 1200.12 88.8851C1199.4 89.4748 1198.69 90.0561 1197.98 90.6375C1180.69 104.842 1165.37 117.37 1165.37 117.58C1148.65 131.422 1123.88 129.08 1110.04 112.365C1088.54 86.5935 1107.99 47.0893 1141.17 48.016L1184.18 48.9512L1186.85 49.0101L1211.73 49.5493L1213.82 49.5915L1240.26 50.1644C1242.43 50.2149 1243.4 52.9109 1241.75 54.3262Z" fill="#FFBA00"/>
<path fill-rule="evenodd" clip-rule="evenodd" d="M1141.14 48.8582C1108.69 47.9516 1089.65 86.6141 1110.68 111.825L1109.39 112.905C1087.42 86.5729 1107.29 46.227 1141.19 47.1738L1141.14 48.8582Z" fill="#FF5A00"/>
<path d="M1138.54 87.3095L1154.54 104.934C1150.16 108.911 1144.45 111.118 1138.54 111.118C1125.48 111.118 1114.74 100.377 1114.74 87.318C1114.74 74.2594 1125.48 63.5177 1138.54 63.5177C1151.6 63.5177 1162.34 74.2594 1162.34 87.318L1138.54 87.318L1138.54 87.3095Z" fill="#FF9E00"/>
<path d="M1138.54 102.618C1146.99 102.618 1153.85 95.7642 1153.85 87.3098C1153.85 78.8555 1146.99 72.0018 1138.54 72.0018C1130.08 72.0018 1123.23 78.8555 1123.23 87.3098C1123.23 95.7642 1130.08 102.618 1138.54 102.618Z" fill="#FF8400"/>
<path d="M1175.65 107.15L1174.17 106.358C1184.67 86.7193 1177.24 62.1861 1157.6 51.6803L1158.39 50.1975C1178.85 61.1414 1186.59 86.6941 1175.65 107.15Z" fill="#FF5A00"/>
<path d="M1200.12 88.885C1199.4 89.4747 1198.69 90.056 1197.98 90.6373C1201.97 75.3462 1196.59 58.8924 1184.18 48.951L1186.85 49.01C1198.07 58.9598 1203.1 74.2762 1200.12 88.885Z" fill="#FF5A00"/>
<path d="M1221.28 71.4539C1220.74 71.9004 1220.19 72.3469 1219.64 72.8019C1219.58 69.1455 1219 65.4806 1217.91 61.8832C1216.54 57.3759 1214.45 53.2224 1211.73 49.5492L1213.82 49.5913C1216.29 53.155 1218.22 57.1232 1219.52 61.3946C1220.52 64.714 1221.11 68.0839 1221.28 71.4539Z" fill="#FF5A00"/>
<path d="M990.217 237.119C984.437 241.879 978.531 246.731 972.727 251.5C972.078 252.031 971.429 252.561 970.789 253.092C961.176 260.986 951.917 268.585 944.074 275.03C943.037 275.873 942.035 276.707 941.058 277.507C929.431 287.07 921.596 293.557 921.596 293.725C915.058 299.134 907.678 302.849 899.986 304.922C898.596 305.301 897.189 305.621 895.782 305.891C875.908 309.665 854.635 302.79 840.827 286.109C814.297 254.322 830.481 208.213 865.36 195.508C866.691 195.019 868.056 194.581 869.446 194.194C874.703 192.736 880.331 192.012 886.262 192.18L911.486 192.728L915.395 192.812L947.562 193.511L950.291 193.57L953.611 193.646L990.217 237.119Z" fill="#FFBA00"/>
<mask id="mask2_1528_83480" style="mask-type:alpha" maskUnits="userSpaceOnUse" x="827" y="192" width="164" height="115">
<path d="M990.217 237.119C984.437 241.879 978.531 246.731 972.727 251.5C972.078 252.031 971.429 252.561 970.789 253.092C961.176 260.986 951.917 268.585 944.074 275.03C943.037 275.873 942.035 276.707 941.058 277.507C929.431 287.07 921.596 293.557 921.596 293.725C915.058 299.134 907.678 302.849 899.986 304.922C898.596 305.301 897.189 305.621 895.782 305.891C875.908 309.665 854.635 302.79 840.827 286.109C814.297 254.322 830.481 208.213 865.36 195.508C866.691 195.019 868.056 194.581 869.446 194.194C874.703 192.736 880.331 192.012 886.262 192.18L911.486 192.728L915.395 192.812L947.562 193.511L950.291 193.57L953.611 193.646L990.217 237.119Z" fill="#FFBA00"/>
</mask>
<g mask="url(#mask2_1528_83480)">
<path fill-rule="evenodd" clip-rule="evenodd" d="M841.476 285.572C855.081 302.007 876.04 308.783 895.625 305.063L895.939 306.719C875.776 310.548 854.19 303.574 840.178 286.646L841.476 285.572Z" fill="#FF5A00"/>
<path d="M914.395 192.812L910.486 192.728C931.835 202.737 946.654 224.439 946.654 249.529C946.654 259.579 944.278 269.083 940.058 277.508C941.035 276.707 942.037 275.873 943.074 275.031C946.461 267.204 948.339 258.585 948.339 249.529C948.339 225.029 934.59 203.689 914.395 192.812Z" fill="#FF5A00"/>
<path d="M861.627 236.141C853.649 236.141 847.154 242.628 847.154 250.615C847.154 258.602 853.649 265.08 861.627 265.08C869.606 265.08 876.093 258.593 876.093 250.615C876.093 242.636 869.606 236.141 861.627 236.141ZM861.627 263.395C854.576 263.395 848.839 257.666 848.839 250.615C848.839 243.563 854.576 237.826 861.627 237.826C868.679 237.826 874.408 243.563 874.408 250.615C874.408 257.666 868.679 263.395 861.627 263.395Z" fill="#FF5A00"/>
<path d="M949.291 193.57L946.561 193.511C961.195 205.003 970.623 222.855 970.623 242.864C970.623 246.344 970.336 249.764 969.788 253.092C970.429 252.561 971.077 252.03 971.726 251.5C972.114 248.677 972.308 245.796 972.308 242.864C972.308 223.099 963.352 205.39 949.291 193.57Z" fill="#FF5A00"/>
</g>
<path d="M768.727 217.244L862.099 247.489C863.22 247.852 863.827 249.048 863.464 250.168C863.186 251.028 862.42 251.584 861.569 251.634L724.024 265.788C715.043 266.715 707.014 260.177 706.088 251.196C705.161 242.215 711.699 234.186 720.679 233.26C721.783 233.15 722.963 233.159 724.024 233.26L861.569 247.414L861.046 251.559L764.691 232.897C760.302 232.047 757.429 227.792 758.28 223.403C759.164 218.659 764.152 215.719 768.735 217.236L768.727 217.244Z" fill="#29B25E"/>
<path fill-rule="evenodd" clip-rule="evenodd" d="M723.236 249.757L840.789 244.449L840.865 246.132L723.312 251.44L723.236 249.757Z" fill="#008700"/>
<path d="M811.64 353.533C780.53 326.303 733.23 329.443 706 360.553L715.94 369.253C738.37 343.633 777.32 341.043 802.93 363.473C828.55 385.903 831.14 424.853 808.71 450.463L818.65 459.163C845.88 428.053 842.74 380.753 811.63 353.523L811.64 353.533Z" fill="#EEDCF7"/>
<path d="M851.22 378.863C820.34 373.613 791.05 394.393 785.8 425.283L792.58 426.433C797.19 399.293 822.93 381.033 850.07 385.643C877.21 390.253 895.47 415.993 890.86 443.133L897.64 444.283C902.89 413.403 882.11 384.113 851.22 378.863Z" fill="#AB5BD7"/>
<path d="M879.35 387.133C872.66 365.313 849.55 353.043 827.73 359.733L829.55 365.663C848.1 359.973 867.74 370.403 873.43 388.943C879.12 407.493 868.69 427.133 850.15 432.823L851.97 438.753C873.79 432.063 886.06 408.953 879.37 387.133H879.35Z" fill="#55287C"/>
<path d="M789.82 401.613C773.11 398.773 757.27 410.013 754.43 426.723L762.29 428.063C764.39 415.703 776.12 407.383 788.48 409.483C800.84 411.583 809.16 423.313 807.06 435.673L814.92 437.013C817.76 420.303 806.52 404.463 789.81 401.623L789.82 401.613Z" fill="#A22914"/>
</g>
<defs>
<clipPath id="clip0_1528_83480">
<rect width="1335" height="464" fill="white"/>
</clipPath>
</defs>
</svg>
