<svg width="1335" height="464" viewBox="0 0 1335 464" fill="none" xmlns="http://www.w3.org/2000/svg">
<g clip-path="url(#clip0_1528_86226)">
<rect width="1335" height="464" fill="#EBE0F5"/>
<mask id="mask0_1528_86226" style="mask-type:luminance" maskUnits="userSpaceOnUse" x="0" y="0" width="1335" height="464">
<path d="M1335 0H0V464H1335V0Z" fill="white"/>
</mask>
<g mask="url(#mask0_1528_86226)">
<mask id="mask1_1528_86226" style="mask-type:luminance" maskUnits="userSpaceOnUse" x="0" y="0" width="1335" height="464">
<path d="M1335 0H0V464H1335V0Z" fill="white"/>
</mask>
<g mask="url(#mask1_1528_86226)">
<path d="M1335 0H-0.000488281V464H1335V0Z" fill="#CCB2E5"/>
<path d="M1380.16 -5.48999H-8.27002V402.04H1380.16V-5.48999Z" fill="#EBE0F5"/>
<path d="M641.37 248.89C641.37 248.89 843.84 342.57 980.35 135.59L860.09 129.77L641.38 248.89H641.37Z" fill="#041F49"/>
<path d="M881.59 402.03H851.11C844.18 402.03 838.03 397.59 835.85 391.02C809.36 310.94 818.05 402.03 818.05 402.03H811.07L797.45 328.51L786.08 267.09L773.25 180.8L775.72 130.47L831.84 139.7L831.2 186.7C830.76 218.51 834.06 309.07 842.59 339.71L854.97 384.22L882.58 397.77C884.71 398.82 883.97 402.03 881.59 402.03Z" fill="#FF8F8A"/>
<path d="M881.59 402.03H851.11C844.18 402.03 838.03 397.59 835.85 391.02C809.36 310.94 818.05 402.03 818.05 402.03H811.07L797.45 328.51C815.13 328.51 831.03 339.31 837.54 355.75L848.81 384.22H854.97L882.58 397.77C884.71 398.82 883.97 402.03 881.59 402.03Z" fill="#96290C"/>
<path d="M922.17 111.28L920.43 117.48C915.14 136.3 904.22 153.09 889.04 165.41C885.55 168.24 882.28 171.32 879.24 174.59C876.23 177.85 873.44 181.31 870.91 184.95C848.11 217.75 787.88 313.36 808.34 381.25L832.36 396.37C834.96 398.01 833.8 402.04 830.72 402.04H794.01C784.21 402.04 776.2 394.26 775.86 384.47C775.4 371.28 772.6 355.49 761.9 355.49C743.52 355.49 743.12 402.04 743.12 402.04H737L745.11 350.47C746.08 344.34 746.68 338.16 747.09 331.96C747.71 322.53 751.53 305.39 771.09 305.39L773.15 300.64C786.44 269.98 795.2 237.55 799.17 204.36L827.75 -34.9399L891.33 15.6901C919.9 38.4501 932.06 76.1101 922.18 111.28H922.17Z" fill="#FFBFB8"/>
<path d="M830.72 402.03H794.01C784.21 402.03 776.2 394.25 775.86 384.46C775.4 371.27 772.6 355.48 761.9 355.48C743.52 355.48 743.12 402.03 743.12 402.03H737L745.11 350.46C746.08 344.33 746.68 338.15 747.09 331.95C747.71 322.52 751.53 305.38 771.09 305.38L792.36 369.7C794.64 376.59 801.08 381.24 808.34 381.24L832.36 396.36C834.96 398 833.8 402.03 830.72 402.03Z" fill="#FF5817"/>
<path d="M1319.14 293.44C1319.14 346.11 1276.44 388.81 1223.77 388.81" stroke="#ECB036" stroke-width="2" stroke-miterlimit="10"/>
<path d="M715.81 398.13L587.85 356.02C565.53 348.68 542.56 365.3 542.56 388.8C542.56 388.8 332.92 237.32 48.9299 402.03H715.18C717.45 402.03 717.96 398.84 715.81 398.13Z" fill="#FDF9F0"/>
<path d="M1032.21 275.8C1036.73 289.28 1026.37 299.64 1009.08 298.93C991.79 298.22 975.47 285.55 972.63 270.64C969.79 255.72 980.15 245.37 995.76 247.51C1011.37 249.65 1027.69 262.32 1032.21 275.8Z" fill="#AFA9DE"/>
<path d="M1291.52 247.92C1291.09 252.1 1285.74 255.49 1279.55 255.49C1273.36 255.49 1269.34 251.55 1270.55 246.69C1271.77 241.83 1277.12 238.44 1282.52 239.12C1287.91 239.8 1291.94 243.74 1291.52 247.92Z" fill="#F9EDCE"/>
<path d="M1155.41 50.57C1159.38 59.97 1150.56 68.79 1135.72 70.26C1120.88 71.73 1108.84 66.24 1108.84 57.99C1108.84 49.74 1117.66 40.92 1128.53 38.3C1139.41 35.68 1151.44 41.17 1155.41 50.57Z" fill="#ECB036"/>
<path d="M1023.88 395.89C1019.39 388.29 1023.98 378.55 1032.71 377.18L1048.34 374.73C1056.8 373.41 1064.79 369.97 1071.58 364.75L1102.27 341.12H1184.75L1180.82 402.03H1131.52V393.44L1094.95 402.03H1034.64C1030.22 402.03 1026.13 399.7 1023.88 395.89Z" fill="#041F49"/>
<path d="M1082.08 348.95H1188.27L1166.46 119.98L1054.9 77.51L1082.08 348.95Z" fill="#1F7AD0"/>
<path d="M1227.94 238.36C1227.94 238.36 1252.15 298.89 1252.15 361.15L1212.99 377.78C1200.33 383.16 1204.17 402.04 1217.93 402.04H1275.76C1287.6 402.04 1297.89 393.91 1300.62 382.38L1314.41 324.25L1324.21 334.05L1352.17 306.09L1283.57 237.49L1227.94 238.35V238.36Z" fill="#793625"/>
<path d="M1069.24 -87.21L1045.57 49.31C1040.41 79.07 1047.84 109.63 1066.09 133.7L1223.35 341.13L1321.83 262.14L1160.78 66.21L1206.35 -10.61C1222.9 -38.51 1225.64 -72.49 1213.78 -102.69L1187.45 -169.72H1039.82L1069.24 -87.21Z" fill="#3A9EE0"/>
<path d="M1128.18 77.51L1160.77 66.21L1129.67 97.31" stroke="#1D7DBB" stroke-width="2" stroke-linejoin="round"/>
<path d="M1236.64 330.45L1172.27 227.19C1171.59 226.1 1173.12 225.01 1173.93 226.01L1249.97 319.76L1236.64 330.45Z" fill="#3A9CDE"/>
</g>
<path d="M641.37 248.89C641.37 248.89 752.72 264.81 780.32 237.21C885.31 132.22 980.34 135.59 980.34 135.59L893.32 -5.48999H739.04V121.7L641.36 248.89H641.37Z" fill="#FF5817"/>
<path d="M765.6 86.07C765.6 86.07 739.04 63.37 739.04 33.77V121.7L765.6 86.07Z" fill="#D23A13"/>
<path d="M641.37 248.89L778.96 68.5601" stroke="#96290C" stroke-width="2" stroke-miterlimit="10"/>
<path d="M741.13 232C741.13 232 754.01 199.24 744.58 141.6L773.62 232C773.62 232 762.62 213.1 741.13 232Z" fill="#96290C"/>
<path d="M1143.19 348.95L1118.05 318.65C1111.26 310.47 1117.08 298.08 1127.71 298.08H1130.23C1136.66 298.08 1140.1 290.51 1135.87 285.67L1133.16 282.56C1113.76 260.31 1098.73 234.6 1088.87 206.78L1059.56 124.05L1182.38 287.08L1188.27 348.95H1143.19Z" fill="#0D386C"/>
<path d="M1252.15 361.14L1314.27 268.19L1249.97 319.76L1252.15 361.14Z" fill="#041F49"/>
<path d="M577.59 153.38C577.59 147.542 572.858 142.81 567.02 142.81C561.182 142.81 556.45 147.542 556.45 153.38C556.45 159.218 561.182 163.95 567.02 163.95C572.858 163.95 577.59 159.218 577.59 153.38Z" fill="#AFA9DE"/>
<path d="M1302.04 153.38C1302.04 147.542 1297.31 142.81 1291.47 142.81C1285.63 142.81 1280.9 147.542 1280.9 153.38C1280.9 159.218 1285.63 163.95 1291.47 163.95C1297.31 163.95 1302.04 159.218 1302.04 153.38Z" fill="#AFA9DE"/>
<path d="M567.02 173.47C567.02 173.47 552.36 314.67 696 337.34" stroke="#AFA9DE" stroke-width="2" stroke-miterlimit="10"/>
<path d="M859.93 268.19C859.93 268.19 895.85 334.23 976.67 295.32" stroke="#AFA9DE" stroke-width="2" stroke-miterlimit="10"/>
<path d="M1202.67 50.3101C1202.67 50.3101 1256.58 65.1101 1257.64 109.51C1257.64 109.51 1298.87 117.98 1291.47 153.38" stroke="#AFA9DE" stroke-width="2" stroke-linejoin="round"/>
</g>
</g>
<defs>
<clipPath id="clip0_1528_86226">
<rect width="1335" height="464" fill="white"/>
</clipPath>
</defs>
</svg>
