<svg width="1335" height="464" viewBox="0 0 1335 464" fill="none" xmlns="http://www.w3.org/2000/svg">
<g clip-path="url(#clip0_1528_82491)">
<rect width="1335" height="464" fill="#CCB2E5"/>
<mask id="mask0_1528_82491" style="mask-type:luminance" maskUnits="userSpaceOnUse" x="0" y="0" width="1335" height="464">
<path d="M1335 0H0V464H1335V0Z" fill="white"/>
</mask>
<g mask="url(#mask0_1528_82491)">
<path d="M1335.1 -0.0999756H0.100098V464.1H1335.1V-0.0999756Z" fill="#CCB2E5"/>
<path d="M630.8 203.8H-17.2998V347.6H630.8V203.8Z" fill="#B794DB"/>
<path d="M1231.5 371.7H621.5C602.6 371.7 587.3 387 587.3 405.9V414.8C587.3 433.7 602.6 449 621.5 449H1231.4C1250.3 449 1265.6 433.7 1265.6 414.8V406C1265.7 387.1 1250.4 371.7 1231.5 371.7Z" fill="#8E88C3"/>
<path d="M1336.7 346.6H-167.4V348.6H1336.7V346.6Z" fill="#8E88C3"/>
<path d="M580.8 -8.39996H-4.2998V203.9H580.9V-8.39996H580.8Z" fill="#675F8C"/>
<path d="M401 152C397.2 152 394 148.9 394 145V140.1C394 131.8 391.4 123.9 386.6 117.1L384.7 114.5V91.4H376.3V114.7L375.4 115.7C369.2 122.8 365.8 132 365.8 141.5V146.6C365.8 149.6 363.4 152 360.4 152C357.4 152 355 149.6 355 146.6V121.6C355 121.1 354.6 120.7 354.1 120.7H345C343.4 120.7 342.1 119.4 342.1 117.8V110.1C342.1 109.6 341.7 109.2 341.2 109.2H335C334.5 109.2 334.1 109.6 334.1 110.1V117.8C334.1 119.4 332.8 120.7 331.2 120.7H321.1C320.6 120.7 320.2 121.1 320.2 121.6V152H311.4V150H318.2V121.6C318.2 120 319.5 118.7 321.1 118.7H331.2C331.7 118.7 332.1 118.3 332.1 117.8V110.1C332.1 108.5 333.4 107.2 335 107.2H341.4C343 107.2 344.3 108.5 344.3 110.1V117.8C344.3 118.3 344.7 118.7 345.2 118.7H354.3C355.9 118.7 357.2 120 357.2 121.6V146.6C357.2 148.5 358.7 150 360.6 150C362.5 150 364 148.5 364 146.6V141.5C364 131.5 367.6 121.9 374.1 114.4L374.5 114V89.4H386.9V113.8L388.4 115.9C393.5 123 396.2 131.3 396.2 140V144.9C396.2 147.6 398.4 149.9 401.2 149.9C404 149.9 406.2 147.7 406.2 144.9V128.8C406.2 123.1 409.5 117.9 414.6 115.4V103.6H424.1V115.4C429.3 117.9 432.6 123 432.6 128.8V144.7C432.6 147.6 434.9 149.9 437.8 149.9H448.9V144.3C448.9 140.8 451.7 138 455.2 138H458.2V131.7H478.4V138H482C484.8 138 487.2 140.3 487.2 143.2V146.8C487.2 148.5 488.6 149.9 490.3 149.9C492 149.9 493.4 148.5 493.4 146.8V114.2C493.4 110.4 496.5 107.2 500.4 107.2C504.3 107.2 507.4 110.3 507.4 114.2V145.8C507.4 148.1 509.2 149.9 511.5 149.9C513.8 149.9 515.6 148.1 515.6 145.8V133C515.6 128.5 519.2 124.9 523.6 124.8V107.3H533.2V125.2C537.2 125.7 540.4 129.2 540.4 133.3V150H567V152H538V133.3C538 129.9 535.2 127.1 531.8 127.1H530.8V109.3H525.2V126.8H523.4C520 126.8 517.2 129.6 517.2 133V145.8C517.2 149.2 514.5 151.9 511.1 151.9C507.7 151.9 505 149.2 505 145.8V114.2C505 111.5 502.8 109.2 500 109.2C497.2 109.2 495 111.4 495 114.2V146.8C495 149.6 492.7 151.9 489.9 151.9C487.1 151.9 484.8 149.6 484.8 146.8V143.2C484.8 141.5 483.4 140 481.6 140H476V133.7H460V140H455C452.6 140 450.7 141.9 450.7 144.3V151.9H437.6C433.6 151.9 430.4 148.7 430.4 144.7V128.8C430.4 123.6 427.3 119 422.5 117L421.9 116.7L421.8 116V105.6H416.3V116.7L415.7 117C411 119 407.9 123.6 407.9 128.8V145C408 148.9 404.9 152 401 152Z" fill="#362C62"/>
<path d="M-55.8998 152C-59.6999 152 -62.8998 148.9 -62.8998 145V128.9C-62.8998 123.7 -65.9998 119.1 -70.6998 117.1L-71.2999 116.8V105.7H-76.7999V116.8L-77.3998 117.1C-82.1999 119.1 -85.2999 123.7 -85.2999 128.9V152H-105.6V144.4C-105.6 142 -107.5 140.1 -109.9 140.1H-114.9V133.8H-131.1V140.1H-136.7C-138.4 140.1 -139.9 141.5 -139.9 143.3V146.9C-139.9 149.7 -142.2 152 -145 152C-147.8 152 -150.1 149.7 -150.1 146.9V109.3H-160V152H-166.1V150H-162V107.3H-148.1V146.9C-148.1 148.6 -146.7 150 -145 150C-143.3 150 -141.9 148.6 -141.9 146.9V143.3C-141.9 140.4 -139.6 138.1 -136.7 138.1H-133.1V131.8H-112.9V138.1H-109.9C-106.4 138.1 -103.6 140.9 -103.6 144.4V150H-87.2999V128.9C-87.2999 123.1 -83.9998 117.9 -78.7999 115.5V103.8H-69.2999V115.6C-64.1999 118 -60.8998 123.2 -60.8998 129V145C-60.8998 147.7 -58.6999 150 -55.8998 150C-53.0998 150 -50.8998 147.8 -50.8998 145V140.1C-50.8998 131.4 -48.1998 123 -43.0998 116L-41.5998 113.9V89.4H-29.1998V114L-28.7999 114.4C-22.2999 121.9 -18.6998 131.5 -18.6998 141.5V150H-11.9998V121.6C-11.9998 120 -10.6999 118.7 -9.09985 118.7H0.000152588C0.500153 118.7 0.900146 118.3 0.900146 117.8V110.1C0.900146 108.5 2.20015 107.2 3.80016 107.2H10.2001C11.8002 107.2 13.1002 108.5 13.1002 110.1V117.8C13.1002 118.3 13.5002 118.7 14.0002 118.7H24.0002C25.6002 118.7 26.9001 120 26.9001 121.6H24.9001C24.9001 121.1 24.5002 120.7 24.0002 120.7H13.9001C12.3001 120.7 11.0002 119.4 11.0002 117.8V110.1C11.0002 109.6 10.6002 109.2 10.1002 109.2H3.70015C3.20015 109.2 2.80016 109.6 2.80016 110.1V117.8C2.80016 119.4 1.50015 120.7 -0.0998535 120.7H-9.19984C-9.69984 120.7 -10.0999 121.1 -10.0999 121.6V152H-20.7999V141.5C-20.7999 132 -24.1998 122.9 -30.3998 115.7L-31.2999 114.7V91.4H-39.6998V114.5L-41.5998 117.1C-46.3998 123.8 -48.9998 131.8 -48.9998 140.1V145C-48.8998 148.9 -51.9998 152 -55.8998 152Z" fill="#362C62"/>
<path d="M301.9 199.9H299.9V104.7C299.9 84.6 283.6 68.3 263.6 68.3H243.6C228.5 68.3 216.2 56 216.2 40.8V-26.8H218.2V40.8C218.2 54.8 229.6 66.3 243.6 66.3H263.6C284.7 66.3 301.9 83.5 301.9 104.7V199.9Z" fill="#362C62"/>
<path d="M97 146H95V104.7C95 83.5 112.2 66.3 133.3 66.3H153.3C167.3 66.3 178.7 54.9 178.7 40.8V-26.8H180.7V40.8C180.7 56 168.4 68.3 153.3 68.3H133.3C113.3 68.3 97 84.6 97 104.7V146Z" fill="#362C62"/>
<path d="M275.5 193.8H273.5C273.5 157.9 240 128.8 198.7 128.8C157.4 128.8 123.9 158 123.9 193.8H121.9C121.9 156.8 156.3 126.8 198.7 126.8C241.1 126.8 275.5 156.8 275.5 193.8Z" fill="#362C62"/>
<path d="M86.0002 199.8C78.8002 199.8 72.4002 196 68.8002 189.7C66.8002 186.1 65.9002 182.1 66.3002 178.2L53.0002 199.8H-13.2998V198.6L-13.1998 198.4L23.5002 125C29.6002 112.8 41.8002 105.2 55.5002 105.2C68.9002 105.2 80.6002 112.2 87.0002 124.1C93.4002 136 92.7002 149.8 85.3002 161L82.1002 165.9L102.6 142.4L125.3 152.3L102.4 191C98.7002 196.5 92.6002 199.8 86.0002 199.8ZM75.0002 160.2L76.7002 161.2L70.9002 170.6C67.5002 176.2 67.3002 182.9 70.5002 188.6C73.7002 194.3 79.5002 197.7 85.9002 197.7C91.8002 197.7 97.3002 194.8 100.6 189.8L122.2 153L102.9 144.5L77.3002 174C76.8002 174.6 76.0002 174.6 75.4002 174.2C74.8002 173.7 74.7002 172.9 75.1002 172.3L83.5002 159.6C90.5002 149 91.1002 136 85.1002 124.7C79.1002 113.6 68.0002 106.9 55.4002 106.9C42.5002 106.9 31.0002 114.1 25.2002 125.6L-10.6998 197.6H52.0002L75.0002 160.2Z" fill="#362C62"/>
<path d="M-7.19994 187L-12.9999 163.8C-14.7999 156.7 -12.1999 149.2 -6.29994 144.8L26.7001 119.9L27.9001 121.5L-5.09994 146.4C-10.2999 150.3 -12.6999 157 -11.0999 163.3L-5.19994 186.5L-7.19994 187Z" fill="#362C62"/>
<path d="M75.8 112.7L73.8 112.5L75.1 103.8L53.9 100.2L51.4 107.4L49.5 106.7L52.6 97.9L77.3 102.2L75.8 112.7Z" fill="#362C62"/>
<path d="M140.966 124.95L89.2112 147.857L90.0206 149.685L141.776 126.779L140.966 124.95Z" fill="#362C62"/>
<path d="M157.3 137.2C147.2 137.2 139 128.9 139 118.8C139 108.7 147.2 100.4 157.3 100.4C167.4 100.4 175.6 108.7 175.6 118.8C175.6 128.9 167.4 137.2 157.3 137.2ZM157.3 102.4C148.3 102.4 141 109.8 141 118.8C141 127.8 148.3 135.2 157.3 135.2C166.3 135.2 173.6 127.8 173.6 118.8C173.6 109.8 166.3 102.4 157.3 102.4Z" fill="#362C62"/>
<path d="M117.6 150.2L115.9 149.2L119.2 143.8C119.9 142.7 120.8 141.9 121.9 141.3L124.7 139.9C126.3 139.1 127.4 137.4 127.4 135.5V131.7H129.4V135.5C129.4 138.1 128 140.4 125.7 141.6L122.9 143C122.1 143.4 121.4 144 121 144.8L117.6 150.2Z" fill="#362C62"/>
<path d="M75.8 81.9H73.8V102.5H75.8V81.9Z" fill="#362C62"/>
<path d="M58.2 99.8L56.3 99.2L59.5 89.3L55 78.3C53.3 74.3 53.6 69.9 55.7 66.1C57.8 62.4 61.5 59.9 65.7 59.3C72.8 58.3 79.4 62.7 81.1 69.7L82.4 74.9H82.8C85 74.9 86.8 76.7 86.8 78.9C86.8 81.1 85 82.9 82.8 82.9H82.7L83.4 88.1C83.6 89.8 83.1 91.5 82 92.8C80.9 94.1 79.3 94.8 77.6 94.8H74.8V92.8H77.6C78.7 92.8 79.8 92.3 80.5 91.5C81.2 90.6 81.6 89.5 81.4 88.4L80.3 80.9H82.7C83.8 80.9 84.7 80 84.7 78.9C84.7 77.8 83.8 76.9 82.7 76.9H80.7L79.1 70.2C77.7 64.2 72 60.4 65.9 61.3C62.3 61.8 59.2 64 57.4 67.2C55.6 70.4 55.3 74.2 56.8 77.6L61.6 89.2L58.2 99.8Z" fill="#362C62"/>
<path d="M68.5 89H60.3V91H68.5V89Z" fill="#362C62"/>
<path d="M580.8 150H300.9V152H580.8V150Z" fill="#362C62"/>
<path d="M835.9 -26.8H833.9V347.6H835.9V-26.8Z" fill="#8E88C3"/>
<path d="M1220.5 -26.8H1218.5V347.6H1220.5V-26.8Z" fill="#8E88C3"/>
<path d="M711.3 74.8C700 74.8 690.9 65.6 690.9 54.3C690.9 43 700.1 33.8 711.3 33.8C722.5 33.8 731.7 43 731.7 54.3C731.8 65.6 722.6 74.8 711.3 74.8ZM711.3 35.7C701.1 35.7 692.9 44 692.9 54.2C692.9 64.4 701.2 72.7 711.3 72.7C721.4 72.7 729.7 64.4 729.7 54.2C729.7 44 721.5 35.7 711.3 35.7Z" fill="#8E88C3"/>
<path d="M780.8 74.8C769.5 74.8 760.4 65.6 760.4 54.3C760.4 43 769.6 33.8 780.8 33.8C792 33.8 801.2 43 801.2 54.3C801.2 65.6 792.1 74.8 780.8 74.8ZM780.8 35.7C770.6 35.7 762.4 44 762.4 54.2C762.4 64.4 770.7 72.7 780.8 72.7C790.9 72.7 799.2 64.4 799.2 54.2C799.2 44 791 35.7 780.8 35.7Z" fill="#8E88C3"/>
<path d="M781.8 34.7H779.8C779.8 27.8 774.2 22.1 767.3 22.1H724.9C718 22.1 712.4 27.7 712.4 34.7H710.4C710.4 26.7 716.9 20.1 724.9 20.1H767.3C775.3 20.1 781.8 26.7 781.8 34.7Z" fill="#8E88C3"/>
<path d="M1071.4 74.8C1060.1 74.8 1051 65.6 1051 54.3C1051 43 1060.2 33.8 1071.4 33.8C1082.6 33.8 1091.8 43 1091.8 54.3C1091.8 65.6 1082.7 74.8 1071.4 74.8ZM1071.4 35.7C1061.2 35.7 1053 44 1053 54.2C1053 64.4 1061.3 72.7 1071.4 72.7C1081.5 72.7 1089.8 64.4 1089.8 54.2C1089.8 44 1081.5 35.7 1071.4 35.7Z" fill="#8E88C3"/>
<path d="M1140.9 74.8C1129.6 74.8 1120.5 65.6 1120.5 54.3C1120.5 43 1129.7 33.8 1140.9 33.8C1152.1 33.8 1161.3 43 1161.3 54.3C1161.3 65.6 1152.1 74.8 1140.9 74.8ZM1140.9 35.7C1130.7 35.7 1122.5 44 1122.5 54.2C1122.5 64.4 1130.8 72.7 1140.9 72.7C1151 72.7 1159.3 64.4 1159.3 54.2C1159.3 44 1151 35.7 1140.9 35.7Z" fill="#8E88C3"/>
<path d="M1141.8 34.7H1139.8C1139.8 27.8 1134.2 22.1 1127.3 22.1H1084.9C1078 22.1 1072.4 27.7 1072.4 34.7H1070.4C1070.4 26.7 1076.9 20.1 1084.9 20.1H1127.3C1135.3 20.1 1141.8 26.7 1141.8 34.7Z" fill="#8E88C3"/>
<path d="M747.1 -26.8H745.1V21.2H747.1V-26.8Z" fill="#8E88C3"/>
<path d="M1107.1 -26.8H1105.1V21.2H1107.1V-26.8Z" fill="#8E88C3"/>
<path d="M1267.76 259.215L1218.76 308.357L1220.17 309.769L1269.17 260.627L1267.76 259.215Z" fill="#8E88C3"/>
<path d="M1322.41 242.387L1218.83 346.265L1220.24 347.678L1323.83 243.799L1322.41 242.387Z" fill="#8E88C3"/>
<path d="M896.415 19.4951L794.949 121.392L795.658 122.097L897.123 20.2007L896.415 19.4951Z" fill="white"/>
<path d="M896.604 69.7648L795.139 171.661L795.848 172.367L897.313 70.4704L896.604 69.7648Z" fill="white"/>
<path d="M598.2 193.8H-171.4V203.9H598.2V193.8Z" fill="#B4AFD7"/>
<path d="M215.3 194.5L213.9 193.1C219.6 187.3 221.2 176.7 221.6 172.5C214.5 176.7 209.3 186 207.4 189.7C207.2 190.3 206.9 190.8 206.6 191.3L204.8 190.4C204.9 190.3 205.1 189.7 205.6 188.7C209 180.5 206.5 170.5 205.3 166.8C192.1 180.7 190.2 193.8 190.2 193.9L188.2 193.6C188.3 193 190.2 179 205 164.2L206.1 163.1L206.7 164.5C206.9 165 210.2 173.5 209.3 182.4C212.4 177.8 216.9 172.3 222.4 169.7L223.9 169L223.8 170.6C223.7 171.4 223.1 186.7 215.3 194.5Z" fill="#362C62"/>
<path d="M178.2 194.1L179.1 189.2C181.1 178 174.8 169 172.4 165.9C166.6 178.2 170.9 193.2 171 193.4L169.1 194C168.9 193.3 164.1 177 171.3 163.7L171.9 162.5L172.8 163.5C173.2 163.9 181.8 172.8 181.4 185.4L190.1 172.1V193.7H188.1V178.8L178.2 194.1Z" fill="#362C62"/>
<path d="M236.5 194.1L237.4 189.2C239.4 178 233.1 169 230.7 165.9C224.9 178.2 229.2 193.2 229.3 193.4L227.4 194C227.2 193.3 222.4 177 229.6 163.7L230.2 162.5L231.1 163.5C231.5 163.9 240.1 172.8 239.7 185.4L248.4 172.1V193.7H246.4V178.8L236.5 194.1Z" fill="#362C62"/>
<path d="M153.7 194.3C144.5 181.5 151.8 165.9 152.1 165.2L152.6 164.2L153.5 164.8C169.6 174.5 165.6 193.7 165.5 193.9L163.5 193.5C163.7 192.8 167.1 176.3 153.4 167.2C152 170.8 148.1 183.2 155.2 193.2L153.7 194.3Z" fill="#362C62"/>
<path d="M1208.26 322.757L1204.3 323.297L1219.43 434.366L1223.39 433.826L1208.26 322.757Z" fill="#041F49"/>
<path d="M561.7 405.3L552.3 281.3C550.5 257.4 530.4 238.7 506.5 238.7H386.1C362.2 238.7 342.1 257.4 340.3 281.3L330.9 405.3L326.9 405L336.3 281C338.3 255 360.1 234.7 386.1 234.7H506.4C532.3 234.7 554.2 255 556.2 281L565.6 405L561.7 405.3Z" fill="#6960AF"/>
<path d="M575.2 230.3H317.3V243H575.2V230.3Z" fill="#6960AF"/>
<path d="M525.6 300.2H416V309.1H525.6V300.2Z" fill="#6960AF"/>
<path d="M427.9 417.5H423.9V334.9L412.3 416.9L408.3 416.3L423.9 306.3L427.9 306.6V417.5Z" fill="#6960AF"/>
<path d="M517.6 417.5H513.6V336.6L502.9 416.9L498.9 416.3L513.6 306.3L517.6 306.6V417.5Z" fill="#6960AF"/>
<path d="M427.9 203.7H423.9V306.5H427.9V203.7Z" fill="#6960AF"/>
<path d="M517.6 203.7H513.6V306.5H517.6V203.7Z" fill="#6960AF"/>
<path d="M517.6 251.7H425.9V247.7H513.6V220.5H425.9V216.5H517.6V251.7Z" fill="#6960AF"/>
<path d="M425.9 206.8C429.1 206.8 431.6 204.2 431.6 201.1C431.6 197.9 429 195.4 425.9 195.4C422.8 195.4 420.2 198 420.2 201.1C420.2 204.3 422.8 206.8 425.9 206.8Z" fill="#6960AF"/>
<path d="M515.6 206.8C518.8 206.8 521.3 204.2 521.3 201.1C521.3 197.9 518.7 195.4 515.6 195.4C512.5 195.4 509.9 198 509.9 201.1C509.9 204.3 512.5 206.8 515.6 206.8Z" fill="#6960AF"/>
<path d="M46.6001 272.3H42.6001V370.7H46.6001V272.3Z" fill="#A0D1F9"/>
<path d="M137.4 364.8H35.4001V373.1H137.4V364.8Z" fill="#A0D1F9"/>
<path d="M46.6001 474H42.6001V399.1L32.1001 473.5L28.1001 472.9L42.6001 370.5L46.6001 370.8V474Z" fill="#A0D1F9"/>
<path d="M130.1 474H126.1V400.9L116.4 473.5L112.5 473L126.1 370.5L130.1 370.8V474Z" fill="#A0D1F9"/>
<path d="M130.1 272.3H126.1V370.7H130.1V272.3Z" fill="#A0D1F9"/>
<path d="M128.1 288.1H44.6001V292.1H128.1V288.1Z" fill="#A0D1F9"/>
<path d="M128.1 323.3H44.6001V327.3H128.1V323.3Z" fill="#A0D1F9"/>
<path d="M1005.3 288.4H938.1V297.2H1005.3V288.4Z" fill="#041F49"/>
<path d="M908.3 347.8L900.2 370.9C897.4 378.8 891 384.7 882.9 386.9L873.5 389.4C871.3 390 871.7 393.3 874 393.3H906L922 349L908.3 347.8Z" fill="#FFF8EB"/>
<path d="M926.6 252.3L900.5 258.9C881.1 263.8 867.5 281.3 867.5 301.4V393.3C867.5 393.3 887.7 360.4 920.5 393.3H1015.2L985.8 295.9L997.6 286.2C1007.7 278 1010.1 263.5 1003.3 252.4C1003.3 252.3 926.6 245.9 926.6 252.3Z" fill="#FF7CAE"/>
<path d="M912.4 157.6C912.4 157.6 879.1 80.4 943.7 98.7C943.7 98.7 1016.3 76.1 986 151.5L912.4 157.6Z" fill="#4D3330"/>
<path d="M942.2 142.9L947.2 171.7L962.3 142.9L1011.2 160.7L983 193.6L1006.3 244.1H928.9L912.4 157.6L942.2 142.9Z" fill="#FF7CAE"/>
<path d="M952.3 124.1L953.3 116.2C954.2 109.3 949.4 102.6 942.5 101.6C935.5 100.7 929.1 105.7 928.3 112.7L927.6 119.1C927 124.1 930.4 128.8 935.3 129.8L938.5 130.5L942.1 142.9L948.5 197L962.2 142.9L952.3 124.1Z" fill="#A9624B"/>
<path d="M962.5 138.6C962.8 138.2 963 137.7 963 137.2C963 135.8 961.9 134.7 960.5 134.7H960.4C960.4 134.5 960.5 134.4 960.5 134.2C960.5 133.3 960 132.5 959.2 132C959.7 131.5 960 130.9 960 130.2C960 128.8 958.9 127.7 957.5 127.7C957.3 127.7 957.1 127.8 956.9 127.8C957.1 127.4 957.2 127 957.2 126.6C957.2 125.6 956.6 124.8 955.8 124.4C956 124 956.1 123.7 956.1 123.3C956.1 122.9 956 122.5 955.8 122.2C956.6 121.8 957.1 121 957.1 120C957.1 119.4 956.9 118.9 956.6 118.5C957.1 118 957.4 117.4 957.4 116.6C957.4 115.2 956.3 114.1 954.9 114.1C953.5 114.1 952.4 115.2 952.4 116.6C952.4 117.2 952.6 117.7 952.9 118.1C952.4 118.6 952.1 119.2 952.1 120C952.1 120.4 952.2 120.8 952.4 121.1C951.6 121.5 951.1 122.3 951.1 123.3C951.1 124.3 951.7 125.1 952.5 125.5C952.3 125.8 952.2 126.2 952.2 126.6C952.2 128 953.3 129.1 954.7 129.1C954.9 129.1 955.1 129 955.3 129C955.1 129.4 955 129.8 955 130.2C955 131.1 955.5 131.9 956.3 132.4C955.8 132.9 955.5 133.5 955.5 134.2C955.5 135.6 956.6 136.7 958 136.7H958.1C958.1 136.9 958 137 958 137.2C958 138.1 958.5 138.9 959.3 139.4C959 139.8 958.8 140.3 958.8 140.8C958.8 142.2 959.9 143.3 961.3 143.3C962.7 143.3 963.8 142.2 963.8 140.8C963.8 139.8 963.3 139 962.5 138.6Z" fill="#4D3330"/>
<path d="M951.1 111V111.1C951.1 112.5 952.2 113.6 953.6 113.6C955 113.6 956.1 112.5 956.1 111.1C956.1 109.9 955.2 108.9 954.1 108.7V108.6C954.1 107.2 953 106.1 951.6 106.1C951.3 106.1 951 106.2 950.7 106.3C950.9 105.9 951.1 105.5 951.1 105.1C951.1 103.7 950 102.6 948.6 102.6C948.1 102.6 947.6 102.8 947.1 103.1C947.2 102.8 947.3 102.5 947.3 102.2C947.3 100.8 946.2 99.7 944.8 99.7C944.1 99.7 943.5 100 943 100.4C942.7 99.3 941.8 98.6 940.6 98.6C939.6 98.6 938.7 99.2 938.3 100.1C937.8 99.6 937.2 99.2 936.4 99.2C935 99.2 933.9 100.3 933.9 101.7C933.9 101.9 934 102 934 102.2C933.6 101.9 933.1 101.7 932.6 101.7C931.3 101.7 930.2 102.7 930.1 104C929.7 103.8 929.3 103.7 928.9 103.7C927.5 103.7 926.4 104.8 926.4 106.2C926.4 106.9 926.7 107.6 927.2 108C926.4 108.4 925.9 109.2 925.9 110.2C925.9 110.6 926 110.9 926.1 111.2C925.2 111.6 924.6 112.5 924.6 113.5C924.6 114.3 925 115.1 925.7 115.5C925.1 116 924.7 116.7 924.7 117.5C924.7 118.9 925.8 120 927.2 120C928.6 120 929.7 118.9 929.7 117.5C929.7 116.7 929.3 116 928.6 115.5C929.2 115 929.6 114.4 929.6 113.5C929.6 113.1 929.5 112.8 929.4 112.5C930.3 112.1 930.9 111.2 930.9 110.2C930.9 109.5 930.6 108.8 930.1 108.4C930.8 108 931.3 107.3 931.4 106.4C931.8 106.6 932.2 106.7 932.6 106.7C934 106.7 935.1 105.6 935.1 104.2C935.1 104 935 103.9 935 103.7C935.4 104 935.9 104.2 936.4 104.2C937.4 104.2 938.2 103.6 938.7 102.8C939.2 103.3 939.8 103.7 940.6 103.7C941.3 103.7 941.9 103.4 942.4 103C942.6 103.8 943.3 104.5 944.1 104.7C943.7 105.1 943.5 105.7 943.5 106.3C943.5 107.7 944.6 108.8 946 108.8C946.2 108.8 946.3 108.7 946.5 108.7V108.8C946.5 110.2 947.6 111.3 949 111.3C949.5 111.3 949.9 111.1 950.3 110.9C950.6 110.9 950.8 111 951.1 111Z" fill="#4D3330"/>
<path d="M911.1 118.3C912.5 118.3 913.6 117.2 913.6 115.8C913.6 114.4 912.5 113.3 911.1 113.3C909.7 113.3 908.6 114.4 908.6 115.8C908.6 117.2 909.7 118.3 911.1 118.3Z" fill="#4D3330"/>
<path d="M912.4 159C913.9 159 915.1 157.8 915.1 156.3C915.1 154.8 913.9 153.6 912.4 153.6C910.9 153.6 909.7 154.8 909.7 156.3C909.7 157.8 910.9 159 912.4 159Z" fill="#4D3330"/>
<path d="M912.4 155.7C913.9 155.7 915.1 154.5 915.1 153C915.1 151.5 913.9 150.3 912.4 150.3C910.9 150.3 909.7 151.5 909.7 153C909.7 154.5 910.9 155.7 912.4 155.7Z" fill="#4D3330"/>
<path d="M910.7 152.5C912.2 152.5 913.4 151.3 913.4 149.8C913.4 148.3 912.2 147.1 910.7 147.1C909.2 147.1 908 148.3 908 149.8C908 151.3 909.2 152.5 910.7 152.5Z" fill="#4D3330"/>
<path d="M909.7 149.2C911.2 149.2 912.4 148 912.4 146.5C912.4 145 911.2 143.8 909.7 143.8C908.2 143.8 907 145 907 146.5C907 148.1 908.2 149.2 909.7 149.2Z" fill="#4D3330"/>
<path d="M907 145.6C908.5 145.6 909.7 144.4 909.7 142.9C909.7 141.4 908.5 140.2 907 140.2C905.5 140.2 904.3 141.4 904.3 142.9C904.4 144.4 905.6 145.6 907 145.6Z" fill="#4D3330"/>
<path d="M908 142.2C909.5 142.2 910.7 141 910.7 139.5C910.7 138 909.5 136.8 908 136.8C906.5 136.8 905.3 138 905.3 139.5C905.3 141.1 906.5 142.2 908 142.2Z" fill="#4D3330"/>
<path d="M905.6 138.2C907.1 138.2 908.3 137 908.3 135.5C908.3 134 907.1 132.8 905.6 132.8C904.1 132.8 902.9 134 902.9 135.5C902.9 137 904.2 138.2 905.6 138.2Z" fill="#4D3330"/>
<path d="M906.5 134C908 134 909.2 132.8 909.2 131.3C909.2 129.8 908 128.6 906.5 128.6C905 128.6 903.8 129.8 903.8 131.3C903.8 132.8 905 134 906.5 134Z" fill="#4D3330"/>
<path d="M904.4 130C905.9 130 907.1 128.8 907.1 127.3C907.1 125.8 905.9 124.6 904.4 124.6C902.9 124.6 901.7 125.8 901.7 127.3C901.7 128.8 902.9 130 904.4 130Z" fill="#4D3330"/>
<path d="M905.3 126.6C906.8 126.6 908 125.4 908 123.9C908 122.4 906.8 121.2 905.3 121.2C903.8 121.2 902.6 122.4 902.6 123.9C902.6 125.4 903.8 126.6 905.3 126.6Z" fill="#4D3330"/>
<path d="M904.4 122.6C905.9 122.6 907.1 121.4 907.1 119.9C907.1 118.4 905.9 117.2 904.4 117.2C902.9 117.2 901.7 118.4 901.7 119.9C901.7 121.4 902.9 122.6 904.4 122.6Z" fill="#4D3330"/>
<path d="M905.6 119.4C907.1 119.4 908.3 118.2 908.3 116.7C908.3 115.2 907.1 114 905.6 114C904.1 114 902.9 115.2 902.9 116.7C902.9 118.2 904.2 119.4 905.6 119.4Z" fill="#4D3330"/>
<path d="M905.6 115.1C907.1 115.1 908.3 113.9 908.3 112.4C908.3 110.9 907.1 109.7 905.6 109.7C904.1 109.7 902.9 110.9 902.9 112.4C903 113.9 904.2 115.1 905.6 115.1Z" fill="#4D3330"/>
<path d="M905.6 111.7C907.1 111.7 908.3 110.5 908.3 109C908.3 107.5 907.1 106.3 905.6 106.3C904.1 106.3 902.9 107.5 902.9 109C903 110.5 904.2 111.7 905.6 111.7Z" fill="#4D3330"/>
<path d="M908 109C909.5 109 910.7 107.8 910.7 106.3C910.7 104.8 909.5 103.6 908 103.6C906.5 103.6 905.3 104.8 905.3 106.3C905.3 107.8 906.5 109 908 109Z" fill="#4D3330"/>
<path d="M909.7 105.1C911.2 105.1 912.4 103.9 912.4 102.4C912.4 100.9 911.2 99.7 909.7 99.7C908.2 99.7 907 100.9 907 102.4C907 103.9 908.2 105.1 909.7 105.1Z" fill="#4D3330"/>
<path d="M912.4 103C913.9 103 915.1 101.8 915.1 100.3C915.1 98.8 913.9 97.6 912.4 97.6C910.9 97.6 909.7 98.8 909.7 100.3C909.7 101.8 910.9 103 912.4 103Z" fill="#4D3330"/>
<path d="M916 100.3C917.5 100.3 918.7 99.1 918.7 97.6C918.7 96.1 917.5 94.9 916 94.9C914.5 94.9 913.3 96.1 913.3 97.6C913.3 99.1 914.5 100.3 916 100.3Z" fill="#4D3330"/>
<path d="M919.2 100.3C920.7 100.3 921.9 99.1 921.9 97.6C921.9 96.1 920.7 94.9 919.2 94.9C917.7 94.9 916.5 96.1 916.5 97.6C916.5 99.1 917.7 100.3 919.2 100.3Z" fill="#4D3330"/>
<path d="M923.2 98.4C924.7 98.4 925.9 97.2 925.9 95.7C925.9 94.2 924.7 93 923.2 93C921.7 93 920.5 94.2 920.5 95.7C920.5 97.3 921.7 98.4 923.2 98.4Z" fill="#4D3330"/>
<path d="M926.6 99.3C928.1 99.3 929.3 98.1 929.3 96.6C929.3 95.1 928.1 93.9 926.6 93.9C925.1 93.9 923.9 95.1 923.9 96.6C923.9 98.1 925.1 99.3 926.6 99.3Z" fill="#4D3330"/>
<path d="M930.2 100.3C931.7 100.3 932.9 99.1 932.9 97.6C932.9 96.1 931.7 94.9 930.2 94.9C928.7 94.9 927.5 96.1 927.5 97.6C927.6 99.1 928.8 100.3 930.2 100.3Z" fill="#4D3330"/>
<path d="M934 99.8C935.5 99.8 936.7 98.6 936.7 97.1C936.7 95.6 935.5 94.4 934 94.4C932.5 94.4 931.3 95.6 931.3 97.1C931.3 98.6 932.5 99.8 934 99.8Z" fill="#4D3330"/>
<path d="M937.7 101.1C939.2 101.1 940.4 99.9 940.4 98.4C940.4 96.9 939.2 95.7 937.7 95.7C936.2 95.7 935 96.9 935 98.4C935 99.9 936.2 101.1 937.7 101.1Z" fill="#4D3330"/>
<path d="M941.3 102C942.8 102 944 100.8 944 99.3C944 97.8 942.8 96.6 941.3 96.6C939.8 96.6 938.6 97.8 938.6 99.3C938.6 100.8 939.8 102 941.3 102Z" fill="#4D3330"/>
<path d="M945.9 102C947.4 102 948.6 100.8 948.6 99.3C948.6 97.8 947.4 96.6 945.9 96.6C944.4 96.6 943.2 97.8 943.2 99.3C943.3 100.8 944.5 102 945.9 102Z" fill="#4D3330"/>
<path d="M949.9 100.3C951.4 100.3 952.6 99.1 952.6 97.6C952.6 96.1 951.4 94.9 949.9 94.9C948.4 94.9 947.2 96.1 947.2 97.6C947.3 99.1 948.5 100.3 949.9 100.3Z" fill="#4D3330"/>
<path d="M953.7 101.1C955.2 101.1 956.4 99.9 956.4 98.4C956.4 96.9 955.2 95.7 953.7 95.7C952.2 95.7 951 96.9 951 98.4C951.1 99.9 952.3 101.1 953.7 101.1Z" fill="#4D3330"/>
<path d="M956.8 98.6C958.3 98.6 959.5 97.4 959.5 95.9C959.5 94.4 958.3 93.2 956.8 93.2C955.3 93.2 954.1 94.4 954.1 95.9C954.1 97.4 955.3 98.6 956.8 98.6Z" fill="#4D3330"/>
<path d="M960.1 99.3C961.6 99.3 962.8 98.1 962.8 96.6C962.8 95.1 961.6 93.9 960.1 93.9C958.6 93.9 957.4 95.1 957.4 96.6C957.5 98.1 958.7 99.3 960.1 99.3Z" fill="#4D3330"/>
<path d="M964.2 98.6C965.7 98.6 966.9 97.4 966.9 95.9C966.9 94.4 965.7 93.2 964.2 93.2C962.7 93.2 961.5 94.4 961.5 95.9C961.5 97.4 962.8 98.6 964.2 98.6Z" fill="#4D3330"/>
<path d="M968.2 99.8C969.7 99.8 970.9 98.6 970.9 97.1C970.9 95.6 969.7 94.4 968.2 94.4C966.7 94.4 965.5 95.6 965.5 97.1C965.5 98.6 966.7 99.8 968.2 99.8Z" fill="#4D3330"/>
<path d="M972.2 99.3C973.7 99.3 974.9 98.1 974.9 96.6C974.9 95.1 973.7 93.9 972.2 93.9C970.7 93.9 969.5 95.1 969.5 96.6C969.5 98.1 970.7 99.3 972.2 99.3Z" fill="#4D3330"/>
<path d="M975.7 101.1C977.2 101.1 978.4 99.9 978.4 98.4C978.4 96.9 977.2 95.7 975.7 95.7C974.2 95.7 973 96.9 973 98.4C973 99.9 974.2 101.1 975.7 101.1Z" fill="#4D3330"/>
<path d="M979.7 101.1C981.2 101.1 982.4 99.9 982.4 98.4C982.4 96.9 981.2 95.7 979.7 95.7C978.2 95.7 977 96.9 977 98.4C977.1 99.9 978.3 101.1 979.7 101.1Z" fill="#4D3330"/>
<path d="M982.4 103C983.9 103 985.1 101.8 985.1 100.3C985.1 98.8 983.9 97.6 982.4 97.6C980.9 97.6 979.7 98.8 979.7 100.3C979.7 101.8 980.9 103 982.4 103Z" fill="#4D3330"/>
<path d="M985.8 105.6C987.3 105.6 988.5 104.4 988.5 102.9C988.5 101.4 987.3 100.2 985.8 100.2C984.3 100.2 983.1 101.4 983.1 102.9C983.1 104.4 984.3 105.6 985.8 105.6Z" fill="#4D3330"/>
<path d="M987.7 107.8C989.2 107.8 990.4 106.6 990.4 105.1C990.4 103.6 989.2 102.4 987.7 102.4C986.2 102.4 985 103.6 985 105.1C985 106.6 986.2 107.8 987.7 107.8Z" fill="#4D3330"/>
<path d="M989.9 111.1C991.4 111.1 992.6 109.9 992.6 108.4C992.6 106.9 991.4 105.7 989.9 105.7C988.4 105.7 987.2 106.9 987.2 108.4C987.2 109.9 988.4 111.1 989.9 111.1Z" fill="#4D3330"/>
<path d="M990.8 115.1C992.3 115.1 993.5 113.9 993.5 112.4C993.5 110.9 992.3 109.7 990.8 109.7C989.3 109.7 988.1 110.9 988.1 112.4C988.2 113.9 989.4 115.1 990.8 115.1Z" fill="#4D3330"/>
<path d="M992.6 119.4C994.1 119.4 995.3 118.2 995.3 116.7C995.3 115.2 994.1 114 992.6 114C991.1 114 989.9 115.2 989.9 116.7C989.9 118.2 991.1 119.4 992.6 119.4Z" fill="#4D3330"/>
<path d="M991.6 123.9C993.1 123.9 994.3 122.7 994.3 121.2C994.3 119.7 993.1 118.5 991.6 118.5C990.1 118.5 988.9 119.7 988.9 121.2C988.9 122.7 990.1 123.9 991.6 123.9Z" fill="#4D3330"/>
<path d="M992.6 127.9C994.1 127.9 995.3 126.7 995.3 125.2C995.3 123.7 994.1 122.5 992.6 122.5C991.1 122.5 989.9 123.7 989.9 125.2C989.9 126.8 991.1 127.9 992.6 127.9Z" fill="#4D3330"/>
<path d="M991.6 131.3C993.1 131.3 994.3 130.1 994.3 128.6C994.3 127.1 993.1 125.9 991.6 125.9C990.1 125.9 988.9 127.1 988.9 128.6C988.9 130.1 990.1 131.3 991.6 131.3Z" fill="#4D3330"/>
<path d="M991.6 135.2C993.1 135.2 994.3 134 994.3 132.5C994.3 131 993.1 129.8 991.6 129.8C990.1 129.8 988.9 131 988.9 132.5C988.9 134.1 990.1 135.2 991.6 135.2Z" fill="#4D3330"/>
<path d="M989.9 138.8C991.4 138.8 992.6 137.6 992.6 136.1C992.6 134.6 991.4 133.4 989.9 133.4C988.4 133.4 987.2 134.6 987.2 136.1C987.2 137.6 988.4 138.8 989.9 138.8Z" fill="#4D3330"/>
<path d="M989.7 142.2C991.2 142.2 992.4 141 992.4 139.5C992.4 138 991.2 136.8 989.7 136.8C988.2 136.8 987 138 987 139.5C987 141.1 988.2 142.2 989.7 142.2Z" fill="#4D3330"/>
<path d="M987.7 145.6C989.2 145.6 990.4 144.4 990.4 142.9C990.4 141.4 989.2 140.2 987.7 140.2C986.2 140.2 985 141.4 985 142.9C985 144.4 986.2 145.6 987.7 145.6Z" fill="#4D3330"/>
<path d="M987.7 148.6C989.2 148.6 990.4 147.4 990.4 145.9C990.4 144.4 989.2 143.2 987.7 143.2C986.2 143.2 985 144.4 985 145.9C985 147.4 986.2 148.6 987.7 148.6Z" fill="#4D3330"/>
<path d="M985.8 151.9C987.3 151.9 988.5 150.7 988.5 149.2C988.5 147.7 987.3 146.5 985.8 146.5C984.3 146.5 983.1 147.7 983.1 149.2C983.1 150.7 984.3 151.9 985.8 151.9Z" fill="#4D3330"/>
<path d="M983.1 151.3C984.6 151.3 985.8 150.1 985.8 148.6C985.8 147.1 984.6 145.9 983.1 145.9C981.6 145.9 980.4 147.1 980.4 148.6C980.4 150.1 981.7 151.3 983.1 151.3Z" fill="#4D3330"/>
<path d="M980.3 149.8C981.8 149.8 983 148.6 983 147.1C983 145.6 981.8 144.4 980.3 144.4C978.8 144.4 977.6 145.6 977.6 147.1C977.7 148.6 978.9 149.8 980.3 149.8Z" fill="#4D3330"/>
<path d="M976.5 148.3C978 148.3 979.2 147.1 979.2 145.6C979.2 144.1 978 142.9 976.5 142.9C975 142.9 973.8 144.1 973.8 145.6C973.8 147.1 975 148.3 976.5 148.3Z" fill="#4D3330"/>
<path d="M972.9 147.2C974.4 147.2 975.6 146 975.6 144.5C975.6 143 974.4 141.8 972.9 141.8C971.4 141.8 970.2 143 970.2 144.5C970.2 146 971.4 147.2 972.9 147.2Z" fill="#4D3330"/>
<path d="M969.5 146.6C971 146.6 972.2 145.4 972.2 143.9C972.2 142.4 971 141.2 969.5 141.2C968 141.2 966.8 142.4 966.8 143.9C966.8 145.4 968.1 146.6 969.5 146.6Z" fill="#4D3330"/>
<path d="M966.3 144.9C967.8 144.9 969 143.7 969 142.2C969 140.7 967.8 139.5 966.3 139.5C964.8 139.5 963.6 140.7 963.6 142.2C963.6 143.7 964.8 144.9 966.3 144.9Z" fill="#4D3330"/>
<path d="M964.2 143.6C965.7 143.6 966.9 142.4 966.9 140.9C966.9 139.4 965.7 138.2 964.2 138.2C962.7 138.2 961.5 139.4 961.5 140.9C961.5 142.4 962.8 143.6 964.2 143.6Z" fill="#4D3330"/>
<path d="M916 156.3C917.5 156.3 918.7 155.1 918.7 153.6C918.7 152.1 917.5 150.9 916 150.9C914.5 150.9 913.3 152.1 913.3 153.6C913.3 155.1 914.5 156.3 916 156.3Z" fill="#4D3330"/>
<path d="M920.5 155.2C922 155.2 923.2 154 923.2 152.5C923.2 151 922 149.8 920.5 149.8C919 149.8 917.8 151 917.8 152.5C917.9 154 919.1 155.2 920.5 155.2Z" fill="#4D3330"/>
<path d="M923.9 152.5C925.4 152.5 926.6 151.3 926.6 149.8C926.6 148.3 925.4 147.1 923.9 147.1C922.4 147.1 921.2 148.3 921.2 149.8C921.3 151.3 922.5 152.5 923.9 152.5Z" fill="#4D3330"/>
<path d="M928.2 151C929.7 151 930.9 149.8 930.9 148.3C930.9 146.8 929.7 145.6 928.2 145.6C926.7 145.6 925.5 146.8 925.5 148.3C925.5 149.8 926.8 151 928.2 151Z" fill="#4D3330"/>
<path d="M930.7 148.5C932.2 148.5 933.4 147.3 933.4 145.8C933.4 144.3 932.2 143.1 930.7 143.1C929.2 143.1 928 144.3 928 145.8C928 147.3 929.2 148.5 930.7 148.5Z" fill="#4D3330"/>
<path d="M921.1 147.2C922.6 147.2 923.8 146 923.8 144.5C923.8 143 922.6 141.8 921.1 141.8C919.6 141.8 918.4 143 918.4 144.5C918.4 146 919.6 147.2 921.1 147.2Z" fill="#4D3330"/>
<path d="M944.9 244.1H918.5C918.5 244.1 909.5 232.1 904.6 215.5C903.1 210.3 901.9 204.7 901.6 198.8C901.1 191.2 902 183.3 905 175.4L930 177.9L932 140.2C932.2 137.4 930.9 134.6 928.6 132.9C925.8 130.8 924.2 127.6 924.2 124.1V123.9L924.3 119.5C924.3 118.5 925.1 117.8 926.1 117.9C926.9 118 927.5 118.6 927.5 119.4C927.7 122.3 929.1 129.1 938.6 130.4L944.9 244.1Z" fill="#A9624B"/>
<path d="M912.4 157.6C912.4 157.6 898 166.4 901.1 196.9L917.7 205.6L920.6 190.4L912.4 157.6Z" fill="#FF7CAE"/>
<path d="M1002.8 170.6L1031.8 226.2C1035.3 234.7 1029.1 244.1 1019.9 244.1H944.9V241.8L957.4 237.4C961.9 235.8 966.8 235.9 971.3 237.7L974.4 238.9L1001 232.5L983 193.4L1002.8 170.6Z" fill="#A9624B"/>
<path d="M927.2 187.2L920.6 228.6L904.6 215.5C903.1 210.3 901.9 204.7 901.6 198.8L927.2 187.2Z" fill="#4D3330"/>
<path d="M957.8 216.2L957.6 219.3L955.9 244H939.4L937.7 219.3L937.5 216.2H957.8Z" fill="#FFF8EB"/>
<path d="M988.9 216.2L987.7 232.9L986.9 244.1H970.4L969.6 232.9L968.4 216.2H988.9Z" fill="#FFF8EB"/>
<path d="M957.6 219.3L955.9 244H939.4L937.7 219.3H957.6Z" fill="#3A9EE0"/>
<path d="M987.7 232.9L986.9 244.1H970.4L969.6 232.9H987.7Z" fill="#CEE7FB"/>
<path d="M970.4 244.1C970.4 244.1 979.3 235.9 986.9 244.1H970.4Z" fill="#3A9EE0"/>
<path d="M793.3 229.1L792.5 232.9L791.7 244.1H775.2L774.4 232.9L773.6 229.1C773.4 228.3 774.1 227.5 774.9 227.5H791.9C792.8 227.5 793.5 228.3 793.3 229.1Z" fill="#FFF8EB"/>
<path d="M792.5 232.9L791.7 244.1H775.2L774.4 232.9H792.5Z" fill="#3A9EE0"/>
<path d="M775.2 244.1C775.2 244.1 783.4 239.9 791.7 244.1H775.2Z" fill="#041F49"/>
<path d="M939.3 244.1C939.3 244.1 948.9 237.9 955.8 244.1H939.3Z" fill="#9BC2FF"/>
<path d="M932.5 235.6C932.5 232.6 930.5 230 927.6 229.3L911 225.2C907.7 224.4 904.5 226.9 904.5 230.3C904.5 233.2 906.8 235.6 909.8 235.6H932.5Z" fill="#A85634"/>
<path d="M939.795 226.761L914.19 232.312L914.614 234.267L940.219 228.715L939.795 226.761Z" fill="#1D9B3E"/>
<path d="M935.6 229.4L935.2 229.1C935 228.9 934.9 228.6 935 228.4L935.3 228C937.3 224.9 941.4 224 944.4 226L944.8 226.3C945 226.5 945.1 226.8 944.9 227L944.6 227.4C942.7 230.5 938.6 231.4 935.6 229.4Z" fill="#1D9B3E"/>
<path d="M923.093 233.734L923.075 235.734L949.275 235.964L949.293 233.964L923.093 233.734Z" fill="#1D9B3E"/>
<path d="M944.8 236L944.1 235.3C943.9 235.1 943.9 234.8 944.1 234.6L944.8 233.9C947.2 231.5 951.1 231.5 953.5 234L954.2 234.7C954.4 234.9 954.4 235.2 954.2 235.4L953.5 236.1C951.1 238.4 947.2 238.4 944.8 236Z" fill="#1D9B3E"/>
<path d="M911.622 229.793L911.271 231.762L937.065 236.36L937.416 234.391L911.622 229.793Z" fill="#1D9B3E"/>
<path d="M916.5 231.3C916.7 231.5 916.6 231.9 916.4 232C913.2 234.3 908.7 233.5 906.5 230.2C906.3 230 906.4 229.6 906.6 229.5C909.8 227.3 914.2 228.1 916.5 231.3Z" fill="#1D9B3E"/>
<path d="M933.1 117.7L935.3 117.1C937.2 116.6 939.1 116.9 940.7 118.1L942.6 119.5L933.1 117.7Z" fill="#4D3330"/>
<path d="M934 117.9C934 117.9 937.1 122.8 941.3 119.2L934 117.9Z" fill="#84433F"/>
<path d="M936.9 115V114C936.9 113.4 937.4 112.9 938 112.9C938.4 112.9 938.8 113.2 939 113.6L939.5 114.9L937.9 114.1L936.9 115Z" fill="#84433F"/>
<path d="M944.5 112.8L943.3 112.9C943.2 112.7 943.2 112.4 943.4 112.3L943.7 112.1C944.3 111.7 945.1 111.9 945.5 112.5L945.7 112.8C945.8 113 945.8 113.3 945.6 113.4L944.5 112.8Z" fill="#020202"/>
<path d="M933.1 111.1L931.9 111.2C931.8 111 931.8 110.7 932 110.6L932.3 110.4C932.9 110 933.7 110.2 934.1 110.8L934.3 111.1C934.4 111.3 934.4 111.6 934.2 111.7L933.1 111.1Z" fill="#020202"/>
<path d="M1101.2 434.5L1082.6 313.4C1080.1 297 1071.7 281.9 1059.2 271.1C1046.6 260.3 1030.6 254.3 1014 254.3H839.2C822.6 254.3 806.6 260.3 794 271.1C781.4 281.9 773.1 297 770.6 313.4L752 434.5L748 433.9L766.6 312.8C769.3 295.4 778.1 279.5 791.4 268.1C804.7 256.6 821.7 250.3 839.2 250.3H1013.8C1031.3 250.3 1048.3 256.6 1061.6 268.1C1074.9 279.6 1083.7 295.4 1086.4 312.8L1105 433.9L1101.2 434.5Z" fill="#041F49"/>
<path d="M920.5 393.2L902.4 285.8C902.3 285 901.1 285.1 901.1 285.9L905.9 393.2H920.5Z" fill="#FF5798"/>
<path d="M637.3 237.9L619.3 302.5H687.1V280.7H641.6L660.4 247.6C664.5 240.4 660.8 231.3 652.8 229.1C646.2 227.2 639.2 231.1 637.3 237.9Z" fill="#313030"/>
<path d="M667.6 233.5L618.4 321.2H724.3L657.1 385.1L686.5 414.7H768.3L780.6 343C784.8 318.4 773 293.8 751.1 281.9L720.7 265.4L723.9 233.5H667.6Z" fill="#663E23"/>
<path d="M665.6 434.2C714.4 434.2 754 394.5 754 345.5C754 296.5 714.4 256.8 665.6 256.8C616.8 256.8 577.2 296.5 577.2 345.5C577.2 394.5 616.8 434.2 665.6 434.2Z" fill="#C4E2F6"/>
<path d="M665.6 419.4C706.2 419.4 739.2 386.3 739.2 345.6C739.2 304.9 706.3 271.8 665.6 271.8C625 271.8 592 304.9 592 345.6C592 386.3 625 419.4 665.6 419.4Z" fill="#D8ECF9"/>
<path d="M665.6 367C677.4 367 687 357.4 687 345.5C687 333.6 677.4 324 665.6 324C653.8 324 644.2 333.6 644.2 345.5C644.2 357.4 653.8 367 665.6 367Z" fill="#313030"/>
<path d="M760.8 434.2C775.7 434.2 787.8 422 787.8 407.1C787.8 392.1 775.7 380 760.8 380C745.9 380 733.7 392.2 733.7 407.1C733.7 422.1 745.8 434.2 760.8 434.2Z" fill="#D2ECF5"/>
<path d="M760.8 424.4C770.3 424.4 778.1 416.6 778.1 407C778.1 397.4 770.4 389.6 760.8 389.6C751.3 389.6 743.5 397.4 743.5 407C743.5 416.6 751.2 424.4 760.8 424.4Z" fill="#A0D1F9"/>
<path d="M760.8 417.9C766.8 417.9 771.6 413.1 771.6 407.1C771.6 401.1 766.8 396.3 760.8 396.3C754.8 396.3 750 401.1 750 407.1C750 413.1 754.8 417.9 760.8 417.9Z" fill="#313030"/>
<path d="M831.2 217.7L827.4 221.6C826.3 222.8 824.7 223.4 823.1 223.3L821.4 223.2C820.2 223.1 819.4 222 819.5 220.9C819.6 219.8 820.6 218.9 821.7 219L824.7 219.2L825.3 212.2L831.2 217.7Z" fill="#6F3724"/>
<path d="M808 208.7L821.6 209.8C825.4 210.1 828.9 211.5 831.9 213.9L837.9 218.8C838.9 219.6 838.9 221 838 221.9C837.5 222.4 836.8 222.6 836.1 222.4L804.3 213.8L808 208.7Z" fill="#C85E43"/>
<path d="M815.6 213.1L818.7 210.3L835.6 220.2L843.7 221.1C845.2 221.3 846.7 221.9 847.8 223L853.6 228.6H851.7L844.9 223.3L837.6 223.9C835.7 224 833.9 223.6 832.2 222.7L815.6 213.1Z" fill="#C9C9C9"/>
<path d="M802.5 206.9L826.3 215C827.7 215.5 828.5 216.9 828.3 218.4C828 220.1 826.4 221.2 824.7 220.8L814.4 218.6C813.3 218.4 812.1 218.5 811.2 219.1L809.8 219.9C808.1 220.9 806.1 221.1 804.2 220.4L794.6 216.9L802.5 206.9Z" fill="#C85E43"/>
<path d="M1151.8 389.1L1163.6 418.2L1138.4 428.4C1135.5 429.6 1136.3 434 1139.5 434H1194L1169.3 380.6L1151.8 389.1Z" fill="#041F49"/>
<path d="M1103.1 214.8L1106.9 262.9C1108.3 281.2 1112 299.2 1117.7 316.6L1146 402.5L1185.2 392.4L1156.2 313L1155.6 212.6L1103.1 214.8Z" fill="#7E7226"/>
<path d="M731.8 129.5L767.8 180L810.6 204.5L798.6 221.3L769.8 215.6C759.4 213.5 750 208 743.1 199.9L722.3 175.4L731.8 129.5Z" fill="#3A9EE0"/>
<path d="M776.9 201.5L779.6 205.8L801.9 197.2V194.4L804.1 196C804.1 196 820.1 191.2 823.4 181.2L776.9 201.5Z" fill="#C9C9C9"/>
<path d="M769.3 122C769.7 125 767.5 127.8 764.5 128.1L745.7 129.7L739.8 142.9L727.7 124.1L729.1 120V91.3L749.9 89C755.9 88.3 761.5 91.8 763.6 97.5L767.3 107.5L771.4 110.7L767.8 112L768 113.5V113.6L768.3 115.4V115.8L768.4 116.5L768.6 117.7L769.3 122Z" fill="#C85E43"/>
<path d="M764.5 128.1L745.7 129.7L742.1 108.8L743.3 103.1L750.5 114.8C750.9 115.5 751.7 116 752.5 116.1L768.6 117.7L769.2 122.1C769.7 125 767.5 127.8 764.5 128.1Z" fill="#4D3330"/>
<path d="M768.4 115.7L764.7 114.8L765.3 114.5L768.1 113.4L768.2 114.2L768.4 115.7Z" fill="#292221"/>
<path d="M768.2 114.3L765.3 114.6L768.1 113.5L768.2 114.3Z" fill="white"/>
<path d="M768.5 116.5C766 116.6 764.2 115.1 764.2 115.1L768.1 113.6L765.6 115.1L768.4 115.4V115.8L768.5 116.5Z" fill="#4C271E"/>
<path d="M742.2 112.9C743.3 112.9 744.2 112 744.2 110.9C744.2 109.8 743.3 108.9 742.2 108.9C741.1 108.9 740.2 109.8 740.2 110.9C740.2 112 741 112.9 742.2 112.9Z" fill="#6F3724"/>
<path d="M749.5 148.2L740.4 157.7L745.2 168.4L749.5 148.2Z" fill="#FFB100"/>
<path d="M746.7 106.3L763.9 98.4V91L746.7 106.3Z" fill="#8C802F"/>
<path d="M729.1 119.9L760.6 97.7C765.4 94.3 766.8 87.4 763.2 82.7C763 82.4 762.7 82.1 762.4 81.8C761.2 80.5 759.4 79.9 757.6 80C752.2 80.4 727.7 80.6 718.5 91.6C713.6 97.5 715.2 106.6 721.9 110.3C722 110.3 722 110.4 722.1 110.4C722 110.4 719.8 119 729.1 119.9Z" fill="white"/>
<path d="M767.8 112L767.1 112.1C765.3 112.3 763.6 113 762.2 114L758.3 117L769.3 113.3L767.8 112Z" fill="#4D3330"/>
<path d="M743.6 149.9L748.5 138.9L728 123.1L743.6 149.9Z" fill="#FF7CAE"/>
<path d="M749.5 148.2L735.1 214.6L727.6 249.2C669.9 247.4 651.5 246.6 651.5 246.6L665.5 213.6C665.8 211.9 666.1 210.3 666.5 208.6C673.9 171.5 688.3 134.2 724.4 123.9C725.6 123.6 726.8 123.3 728 123L749.5 148.2Z" fill="#3A9EE0"/>
<path d="M735.1 214.6L727.6 249.2C669.9 247.4 651.5 246.6 651.5 246.6L665.5 213.6C665.8 211.9 666.1 210.3 666.5 208.6L700.9 222.2L735.1 214.6Z" fill="#3A9EE0"/>
<path d="M686.2 152.2L664.4 188.5C659.4 196.9 658.6 207.2 662.4 216.3C668.5 230.8 684.4 238.4 699.4 233.9L772.2 212L766.5 186.1L701 197L728 160.8C735.8 150.4 728.4 135.6 715.4 135.6C703.5 135.6 692.4 141.9 686.2 152.2Z" fill="#3A9EE0"/>
<path d="M690.6 236.1C678.2 236.1 666.5 228.7 661.5 216.6L663.3 215.8C669.2 229.9 684.6 237.2 699.1 232.8L699.7 234.7C696.7 235.7 693.6 236.1 690.6 236.1Z" fill="#0053AB"/>
<path d="M766.5 193.5L782.1 190.1C785.5 189.4 789 190.3 791.7 192.5L798.2 198C800.2 199.7 799 203 796.3 203H787C786.1 200.5 783.3 199.2 780.9 200.1L770.5 203.9L766.5 193.5Z" fill="#C85E43"/>
<path d="M886 235.6H821V240.1H824.3C825.4 240.1 826.3 241 826.3 242.1C826.3 243.2 827.2 244.1 828.3 244.1H878.8C879.9 244.1 880.8 243.2 880.8 242.1C880.8 241 881.7 240.1 882.8 240.1H886.1L886 235.6Z" fill="#FFF8EB"/>
<path d="M965.7 235.6H900.7V240.1H904C905.1 240.1 906 241 906 242.1C906 243.2 906.9 244.1 908 244.1H958.5C959.6 244.1 960.5 243.2 960.5 242.1C960.5 241 961.4 240.1 962.5 240.1H965.8L965.7 235.6Z" fill="#FFF8EB"/>
<path d="M865.6 224.8L877.6 225.8L878 220.4L866 219.4L865.6 224.8Z" fill="#977002"/>
<path d="M877.8 225.7C879.3 225.7 880.5 224.5 880.5 223C880.5 221.5 879.3 220.3 877.8 220.3C876.3 220.3 875.1 221.5 875.1 223C875.1 224.5 876.3 225.7 877.8 225.7Z" fill="#FBBA06"/>
<path d="M865.8 224.8C867.3 224.8 868.5 223.6 868.5 222.1C868.5 220.6 867.3 219.4 865.8 219.4C864.3 219.4 863.1 220.6 863.1 222.1C863.1 223.6 864.3 224.8 865.8 224.8Z" fill="#FBBA06"/>
<path d="M865.3 219.5L865 220.7C864.3 223.8 862.9 226.7 860.9 229.1L860.1 230L855.7 227.8L856.5 226.9C858.5 224.5 859.9 221.6 860.6 218.5L860.9 217.3L865.3 219.5Z" fill="#FFDD9F"/>
<path d="M841 230.2H829V235.6H841V230.2Z" fill="#FFDD9F"/>
<path d="M829 235.6C830.5 235.6 831.7 234.4 831.7 232.9C831.7 231.4 830.5 230.2 829 230.2C827.5 230.2 826.3 231.4 826.3 232.9C826.3 234.4 827.5 235.6 829 235.6Z" fill="#FBBA06"/>
<path d="M879.9 236.2L870.3 229L873.5 224.7L883.2 231.9L879.9 236.2Z" fill="#FFDD9F"/>
<path d="M871.8 229.6C873.3 229.6 874.5 228.4 874.5 226.9C874.5 225.4 873.3 224.2 871.8 224.2C870.3 224.2 869.1 225.4 869.1 226.9C869.1 228.3 870.3 229.6 871.8 229.6Z" fill="#DB362E"/>
<path d="M864.8 235.6H876.8V230.2H864.8V235.6Z" fill="#977002"/>
<path d="M876.8 235.6C878.3 235.6 879.5 234.4 879.5 232.9C879.5 231.4 878.3 230.2 876.8 230.2C875.3 230.2 874.1 231.4 874.1 232.9C874.2 234.4 875.4 235.6 876.8 235.6Z" fill="#FBBA06"/>
<path d="M864.8 235.6C866.3 235.6 867.5 234.4 867.5 232.9C867.5 231.4 866.3 230.2 864.8 230.2C863.3 230.2 862.1 231.4 862.1 232.9C862.1 234.4 863.3 235.6 864.8 235.6Z" fill="#FBBA06"/>
<path d="M828.7 225.5L837.6 217.4L841.2 221.4L832.3 229.5L828.7 225.5Z" fill="#977002"/>
<path d="M839.5 222.1C841 222.1 842.2 220.9 842.2 219.4C842.2 217.9 841 216.7 839.5 216.7C838 216.7 836.8 217.9 836.8 219.4C836.8 220.9 838 222.1 839.5 222.1Z" fill="#FBBA06"/>
<path d="M830.5 230.2C832 230.2 833.2 229 833.2 227.5C833.2 226 832 224.8 830.5 224.8C829 224.8 827.8 226 827.8 227.5C827.9 229 829.1 230.2 830.5 230.2Z" fill="#FBBA06"/>
<path d="M840.1 222.1L848.2 231L844.2 234.6L836.1 225.7L840.1 222.1Z" fill="#FFDD9F"/>
<path d="M846.2 235.6C847.7 235.6 848.9 234.4 848.9 232.9C848.9 231.4 847.7 230.2 846.2 230.2C844.7 230.2 843.5 231.4 843.5 232.9C843.5 234.4 844.7 235.6 846.2 235.6Z" fill="#FBBA06"/>
<path d="M857.9 235.8L847.2 230.2L849.7 225.4L860.4 231L857.9 235.8Z" fill="#977002"/>
<path d="M848.5 230.5C850 230.5 851.2 229.3 851.2 227.8C851.2 226.3 850 225.1 848.5 225.1C847 225.1 845.8 226.3 845.8 227.8C845.8 229.3 847 230.5 848.5 230.5Z" fill="#FBBA06"/>
<path d="M841.6 228.5C843.1 228.5 844.4 227.3 844.4 225.7C844.4 224.1 843.2 222.9 841.6 222.9C840.1 222.9 838.8 224.1 838.8 225.7C838.8 227.3 840.1 228.5 841.6 228.5Z" fill="#DB362E"/>
<path d="M856.7 234.7C858.2 234.7 859.5 233.5 859.5 231.9C859.5 230.3 858.3 229.1 856.7 229.1C855.2 229.1 853.9 230.3 853.9 231.9C853.9 233.5 855.1 234.7 856.7 234.7Z" fill="#FFB100"/>
<path d="M872.1 222.2C873.6 222.2 874.9 221 874.9 219.4C874.9 217.8 873.7 216.6 872.1 216.6C870.6 216.6 869.3 217.8 869.3 219.4C869.3 221 870.5 222.2 872.1 222.2Z" fill="#DB362E"/>
<path d="M836.6 234C838.1 234 839.4 232.8 839.4 231.2C839.4 229.6 838.2 228.4 836.6 228.4C835.1 228.4 833.8 229.6 833.8 231.2C833.8 232.8 835.1 234 836.6 234Z" fill="#DB362E"/>
<path d="M999.6 240.6C999.6 238.7 1001.1 237.2 1003 237.2L1011.7 237.1C1021.9 236.9 1031.2 230.8 1035.3 221.4L1083.7 111.8H1126.3L1047.5 244.2H1003C1001.1 244.1 999.6 242.5 999.6 240.6Z" fill="#FFB4A4"/>
<path d="M723.983 164.675L691.255 207.504L692.844 208.719L725.572 165.89L723.983 164.675Z" fill="#0053AB"/>
<path d="M701.433 196.97L699.435 197.056L699.815 205.848L701.813 205.762L701.433 196.97Z" fill="#0053AB"/>
<path d="M1075.8 79.5L1078.8 73.7C1079.3 72.7 1079.3 71.5 1078.7 70.6C1077.5 68.8 1074.9 68.7 1073.6 70.4L1075.8 79.5Z" fill="#FFB4A4"/>
<path d="M1096.2 102.1L1074.5 113.4L1057.9 98.7C1055.8 99.6 1053.3 98.7 1052.2 96.7L1042.1 77.7L1041.7 77L1071.6 62.3L1076.5 82L1096.2 102.1Z" fill="#FFB4A4"/>
<path d="M1053.1 89.2L1059.3 93.4C1062.4 95.5 1066.5 95.6 1069.7 93.6L1080.9 86.6L1077.2 79.7L1072.3 60.8L1044.7 72.5L1053.1 89.2Z" fill="#212121"/>
<path d="M1057.9 98.7L1056.7 99.2C1055.2 99.8 1053.6 99.2 1052.8 97.8L1042.1 77.7L1048.9 77L1050.7 81.8L1053.1 78.6L1054.6 82.6C1055.2 84.1 1055 85.7 1054.3 87.1L1053.1 89.2L1057.9 98.7Z" fill="#FF988D"/>
<path d="M1041.6 80.5L1073.5 65.2C1074.3 64.8 1074.7 63.8 1074.4 62.9L1072.6 58.5C1072.2 57.6 1071.2 57.2 1070.3 57.6L1038.8 71.7C1038 72.1 1037.6 72.9 1037.8 73.7L1039.2 79.3C1039.4 80.4 1040.6 81 1041.6 80.5Z" fill="#FCD632"/>
<path d="M1070.3 60.4L1069 57C1068 54.3 1065.4 52.5 1062.5 52.4L1058.8 52.3L1054.4 50.2C1052.9 49.5 1051.2 49.6 1049.7 50.4L1043 54.3C1041.4 55.2 1040.5 56.9 1040.5 58.7L1040.6 62.9C1040.6 63.8 1040.3 64.6 1039.8 65.3L1038.8 66.7C1038 67.7 1037.8 69.1 1038.2 70.3L1039.7 74.7L1070.3 60.4Z" fill="#FCD632"/>
<path d="M1047.4 84.6C1047.8 84.4 1047.9 83.7 1047.6 83C1047.3 82.4 1046.7 82 1046.2 82.3C1045.8 82.5 1045.7 83.2 1046 83.9C1046.3 84.5 1046.9 84.8 1047.4 84.6Z" fill="#212121"/>
<path d="M1046.3 85.6L1047.2 91.5L1049.1 90.8L1046.3 85.6Z" fill="#FF988D"/>
<path d="M1061.8 60.5268L1038.5 71.1277L1038.91 72.0379L1062.21 61.437L1061.8 60.5268Z" fill="#FD6632"/>
<path d="M742.4 176.6L722.3 174.9L722.7 170L742.8 171.8L742.4 176.6Z" fill="#0259CF"/>
<path d="M729.8 179.5C731.5 179.5 732.9 178.1 732.9 176.4C732.9 174.7 731.5 173.3 729.8 173.3C728.1 173.3 726.7 174.7 726.7 176.4C726.7 178.1 728 179.5 729.8 179.5Z" fill="#0259CF"/>
<path d="M918.4 198.6C923 195 923.3 187.6 919 182.1C914.7 176.5 907.5 174.9 902.9 178.5C898.3 182.1 898 189.5 902.3 195C906.5 200.5 913.8 202.1 918.4 198.6Z" fill="#1D9B3E"/>
<path d="M904.3 167.5L923.4 191.9C925.1 194.1 928.4 194 930 191.7L937.1 181.5C938.7 179.3 937.6 176.1 935 175.3L905.6 165.7C904.4 165.3 903.5 166.6 904.3 167.5Z" fill="#FCD632"/>
<path d="M935.2 200.5C941.6 197.5 944.7 190.8 942.3 185.5C939.8 180.2 932.7 178.3 926.3 181.3C919.9 184.3 916.8 191 919.2 196.3C921.6 201.5 928.8 203.4 935.2 200.5Z" fill="#6EAB6E"/>
<path d="M947.3 201.4L938 206.4C929.3 211.1 919.2 212.5 909.5 210.5L899.2 208.4L896.5 189.5L944.6 182.5L947.3 201.4Z" fill="#FFF8EB"/>
<path d="M924.9 210.3L943.7 203.2C944.9 202.7 944.8 201 943.5 200.7L934 199C932.5 198.7 931.5 197.1 932 195.6C932.3 194.6 933.2 193.9 934.3 193.8L951.4 192.3C955.8 191.9 960 190.8 964 188.9L1089.8 129.7L1112.1 149.4L1037.8 184.4C1033.2 186.6 1028.4 188.3 1023.4 189.6L944 210.4C941.3 211.1 938.7 211.9 936.1 212.8L927 216C925.4 216.6 923.7 215.7 923.2 214.2C922.6 212.6 923.4 210.9 924.9 210.3Z" fill="#FFB4A4"/>
<path d="M1054.8 146.1L1055.3 176L1090 162.6L1065.7 131.1L1054.8 146.1Z" fill="#FF988D"/>
<path d="M1244.58 216.553L1208.7 322.333L1212.49 323.617L1248.36 217.837L1244.58 216.553Z" fill="#041F49"/>
<path d="M1246.5 224.8C1250.7 224.8 1254.1 221.4 1254.1 217.2C1254.1 213 1250.7 209.6 1246.5 209.6C1242.3 209.6 1238.9 213 1238.9 217.2C1238.9 221.4 1242.3 224.8 1246.5 224.8Z" fill="#041F49"/>
<path d="M1154.96 322.746L1151 323.286L1166.13 434.354L1170.1 433.814L1154.96 322.746Z" fill="#041F49"/>
<path d="M1214.8 318.6H1147.6V327.4H1214.8V318.6Z" fill="#041F49"/>
<path d="M1226.9 362L1264.8 385.9L1258.8 428.2C1258.3 432 1252.8 432.3 1251.9 428.5L1245.6 401.5C1244.4 396.2 1241 391.7 1236.4 388.9L1217 377.2L1226.9 362Z" fill="#041F49"/>
<path d="M1108.7 212.5L1112.4 302.3C1113.3 324.8 1126.9 344.9 1147.4 354.1L1225.2 389.1L1233.7 362.5L1163.6 302.8L1170.2 270.7C1173.8 250.1 1168.5 229 1155.7 212.5H1108.7Z" fill="#8C802F"/>
<path d="M1058.6 239.5H1010.2V244H1058.6V239.5Z" fill="white"/>
<path d="M1015.2 233.7V239.5H1024.5V230.4L1017.3 231.3L1015.2 233.7Z" fill="#FFB100"/>
<path d="M1035.8 239.5L1041 236.8V230.4H1032.7L1029.3 236.3C1028.5 237.7 1029.5 239.5 1031.1 239.5H1035.8Z" fill="#D63C33"/>
<path d="M1030 239.5H1030.2C1030.8 239.5 1031.4 239.3 1031.9 239.1L1037.9 235.8C1042.3 233.4 1041.9 226.8 1037.2 225C1034.3 223.9 1031 225.2 1029.7 228L1026.7 234.4C1025.7 236.8 1027.4 239.5 1030 239.5Z" fill="#FFB100"/>
<path d="M1053.6 235.3H1041V239.5H1053.6V235.3Z" fill="#D63C33"/>
<path d="M1019.4 238.9C1017.1 238.9 1015.2 237 1015.2 234.7V230.5C1015.2 228.2 1017.1 226.3 1019.4 226.3H1020.2C1022.9 226.3 1024.9 228.7 1024.3 231.4L1023.5 235.6C1023.2 237.5 1021.4 238.9 1019.4 238.9Z" fill="#D63C33"/>
<path d="M762.5 106.8C763 106.8 763.4 106.4 763.4 105.9C763.4 105.4 763 105 762.5 105C762 105 761.6 105.4 761.6 105.9C761.6 106.4 762 106.8 762.5 106.8Z" fill="#020202"/>
<path d="M1165 213L1099.2 214.9L1094.3 172.9H1085.5L1053.1 136.7C1056 133.6 1058.7 130.4 1061.1 126.8L1069 115C1077.2 105.6 1089 100.2 1101.4 100.2C1102.4 100.2 1103.4 100.2 1104.4 100.3C1122.6 101.6 1138 114.3 1142.8 131.9L1165 213Z" fill="#FFF8EB"/>
<path d="M1119 172.9L1099.2 214.9L1094.3 172.9H1119Z" fill="#F9EDCE"/>
<path d="M1166.15 284.679L1158.09 321.504L1160.04 321.932L1168.11 285.107L1166.15 284.679Z" fill="#685C21"/>
<path d="M1126.2 171.9H1085.5V173.9H1126.2V171.9Z" fill="#FCD632"/>
<path d="M1153 280.5H1127C1126.2 280.5 1125.6 281.1 1125.6 281.9V309.8C1125.6 310.6 1126.2 311.2 1127 311.2H1153C1153.8 311.2 1154.4 310.6 1154.4 309.8V281.9C1154.4 281.1 1153.8 280.5 1153 280.5Z" fill="#7E7226"/>
<path d="M1157.9 279.7H1122.1V281.7H1157.9V279.7Z" fill="#685C21"/>
<path d="M1140 288.1C1142.6 288.1 1144.7 286 1144.7 283.4C1144.7 280.8 1142.6 278.7 1140 278.7C1137.4 278.7 1135.3 280.8 1135.3 283.4C1135.3 286 1137.4 288.1 1140 288.1Z" fill="#041F49"/>
<path d="M1222.05 352.762L1210.72 382.582L1211.66 382.938L1222.99 353.117L1222.05 352.762Z" fill="#1C1C19"/>
<path d="M1119.77 221.179L1118.32 222.563L1138.47 243.562L1139.91 242.177L1119.77 221.179Z" fill="#685C21"/>
<path d="M1103.1 244.1H750V260.6H1103.1V244.1Z" fill="#A0D1F9"/>
<path d="M987.752 295.219L983.922 296.374L1013.3 393.742L1017.13 392.586L987.752 295.219Z" fill="#041F49"/>
<path d="M155.7 479.2L146.3 355.2C144.5 331.3 124.4 312.6 100.5 312.6H-19.8999C-43.7999 312.6 -63.8999 331.3 -65.6999 355.2L-75.0999 479.2L-79.0999 478.9L-69.6999 354.9C-67.6999 328.9 -45.8999 308.6 -19.8999 308.6H100.4C126.3 308.6 148.2 328.9 150.2 354.9L159.6 478.9L155.7 479.2Z" fill="#A0D1F9"/>
<path d="M169.2 304.3H-88.7V317H169.2V304.3Z" fill="#A0D1F9"/>
</g>
</g>
<defs>
<clipPath id="clip0_1528_82491">
<rect width="1335" height="464" fill="white"/>
</clipPath>
</defs>
</svg>
