<svg width="1335" height="464" viewBox="0 0 1335 464" fill="none" xmlns="http://www.w3.org/2000/svg">
<g clip-path="url(#clip0_1528_82333)">
<rect width="1335" height="464" fill="#FEE3E2"/>
<mask id="mask0_1528_82333" style="mask-type:luminance" maskUnits="userSpaceOnUse" x="0" y="0" width="1335" height="464">
<path d="M0 464V0H1335V464" fill="white"/>
</mask>
<g mask="url(#mask0_1528_82333)">
<path d="M0.659302 464V0H1335.66V464" fill="#FEE3E2"/>
<path d="M1341.37 251.28L1338.44 245.62C1337.68 244.15 1336.07 243.33 1334.44 243.58L1327.97 244.58L1327.8 225.05L1337.18 209.83L1335.83 181.53C1335.52 174.91 1331.4 169.07 1325.3 166.55L1314.8 162.21C1308.62 159.68 1301.56 160.98 1296.69 165.55L1290.27 171.59C1288.31 173.43 1285.67 174.35 1282.99 174.08L1271.2 172.96L1270.96 175.49L1285.58 176.89L1279.41 188.9C1278.66 190.36 1277.54 191.57 1276.16 192.41L1272.7 194.52C1271.67 195.15 1271.67 196.66 1272.68 197.29L1276.95 199.96L1276.57 202.59L1280.49 202.03C1280.49 202.03 1278.86 204.58 1276.22 204.93L1275.54 209.42C1274.61 215.6 1278.86 221.36 1285.02 222.27L1297.96 224.18V242.65L1290.2 240.35C1287.71 239.61 1285.14 241.2 1284.67 243.76L1284.05 247.12C1257.7 245.49 1232.18 256.77 1215.62 277.44L1166.12 339.24L1229.15 424.11L1255.23 429.01V458.68C1255.23 460.91 1257.04 462.73 1259.26 462.73C1261.29 462.73 1263 461.22 1263.26 459.2L1265.48 442.03C1265.76 439.87 1268.75 439.55 1269.47 441.6L1271.82 448.22C1272.16 449.17 1273.05 449.81 1274.06 449.81C1275.37 449.81 1276.44 448.74 1276.44 447.43V433L1289.57 435.47L1305.31 541.6H1363.85V252.92L1341.39 251.28H1341.37Z" fill="#FDB0CE"/>
<path d="M260.13 269.8L261.81 270.81C265.21 272.83 267.52 276.3 268.1 280.24L268.72 284.5C271.4 303.08 287.49 316.69 306.2 316.2L314.43 315.99C321.99 315.78 329.32 318.63 334.76 323.89L340.91 329.82C346.56 335.28 353.39 339.35 360.87 341.74L389.6 350.86L405.98 497.71L584.15 467.24L577.73 306.1C576.94 258.96 487.38 263.22 487.38 263.22C487.38 263.22 482.23 251.46 474.88 234.54L460.59 236.5L465.73 227.11C479.3 202.33 477.38 171.76 460.38 149.2C459.95 148.64 459.55 148.11 459.16 147.64L457.03 145.01C460.52 139.21 462.31 132.55 461.31 126.61C459.02 113.13 446.29 104.07 432.85 106.37C419.42 108.67 407.29 125.84 409.57 139.31C410.38 144.07 412.51 148.25 415.49 151.6C414.14 151.51 412.79 151.58 411.46 151.81C408.99 152.23 406.6 153.21 404.5 154.73C396.96 160.15 395.15 170.65 400.45 178.31L402.28 180.92L400.06 181.3C395.75 182.04 393.2 186.55 394.8 190.64C395.68 192.91 397.7 194.56 400.11 194.95L405.17 195.78L407.44 202.12C408.66 205.53 410.86 208.48 413.78 210.62L418.78 214.27C423.01 217.36 425.69 222.14 426.11 227.35L427.26 241.12L418.96 242.27L421.1 254.87L402.94 262.48L337.9 240.59L305.32 229.62L311.19 176.95L315.53 138.03L307 135.87L307.45 132.77C307.73 130.94 308.63 129.26 310.01 128L311.9 126.3C312.52 125.75 313.03 125.09 313.4 124.35L317.95 115.5C318.26 114.9 318.15 114.17 317.66 113.68C317.13 113.15 316.26 113.08 315.65 113.54L311.01 117.02C309.74 117.99 307.92 117 308.02 115.39L308.54 107.29C308.71 104.71 306.85 102.45 304.29 102.1C302.07 101.8 299.93 103.08 299.12 105.18L296.59 111.61C295.28 114.99 295.37 118.75 296.85 122.05L297.65 123.82C299.05 126.93 299.28 130.41 298.38 133.69L290.39 131.67L286.93 147.76L276.99 152.95C262.2 160.64 254.06 177.08 256.86 193.58C257.63 198.1 256.44 202.73 253.63 206.31L249.4 211.72C234.77 230.36 239.81 257.65 260.13 269.79V269.8Z" fill="#FDB0CE"/>
<path d="M1011.33 307.89H1014.08V302.47H993.45L997.32 294.16C999.24 290.03 996.24 285.29 991.69 285.29C989.28 285.29 987.08 286.69 986.06 288.88L979.74 302.46H945.41V307.88H948.15C942.24 307.89 937.45 312.71 937.45 318.65V424.01C937.45 429.96 942.25 434.78 948.17 434.78H1011.29C1017.22 434.78 1022.02 429.96 1022.02 424.01V318.65C1022.02 312.7 1017.23 307.89 1011.31 307.88L1011.33 307.89ZM991.53 286.72C994.39 286.72 996.7 289.04 996.7 291.91C996.7 294.78 994.38 297.1 991.53 297.1C988.68 297.1 986.36 294.78 986.36 291.91C986.36 289.04 988.68 286.72 991.53 286.72ZM983.67 298.41H993.99L993.22 299.82H982.9L983.67 298.41Z" fill="#FDB0CE"/>
<path d="M945.42 440.21H1014.08V428.85L945.42 434.79V440.21Z" fill="#FDB0CE"/>
<path d="M1094.18 58.66C1094.18 56.32 1096.06 54.43 1098.38 54.43H1126.12C1128.42 54.43 1130.29 56.28 1130.34 58.59C1130.44 63.98 1130.58 76.02 1130.65 102.34" fill="#0F5123"/>
<path d="M1130.65 102.33H1094.18V58.66C1094.18 56.32 1096.06 54.43 1098.38 54.43H1126.12C1128.42 54.43 1130.29 56.28 1130.34 58.59C1130.44 63.98 1130.58 76.02 1130.65 102.34V102.33Z" fill="#663E23"/>
<path d="M1094.18 102.33H1130.65" stroke="#F7F7F7" stroke-miterlimit="10"/>
<path d="M1136.31 195.29V93.04H1088.52V195.29C1088.52 213.73 1081.22 231.42 1068.22 244.47L1067.84 244.86C1054.84 257.9 1047.54 275.59 1047.54 294.04V437.18C1047.54 438.29 1048.44 439.19 1049.54 439.19H1175.28C1176.38 439.19 1177.28 438.29 1177.28 437.18V294.04C1177.28 275.59 1169.98 257.9 1156.98 244.86L1156.6 244.47C1143.61 231.43 1136.31 213.74 1136.31 195.3V195.29Z" fill="#9B9716"/>
<path d="M1094.18 93.04H1130.65V119.93C1130.65 122.27 1128.77 124.16 1126.45 124.16H1098.71C1096.41 124.16 1094.54 122.31 1094.49 120C1094.39 114.61 1094.25 119.35 1094.18 93.04Z" fill="#918117"/>
<path d="M1160.92 296.62V408.96H1063.91V296.62C1063.91 267.37 1112.41 241.67 1112.41 241.67C1112.41 241.67 1160.92 267.36 1160.92 296.62Z" fill="#ECB036"/>
<path d="M1160.92 337.74V371.4H1063.91V348.52H1063.93L1121.64 342.11L1160.92 337.74Z" fill="#918117"/>
<path d="M1146.83 364.93L1139.84 371.4L1099.32 408.96H1063.91V348.52H1063.93L1128.42 361.29L1146.83 364.93Z" fill="#B4A34E"/>
<path d="M1160.92 351.27V408.96H1063.91C1063.91 408.96 1083.38 388.16 1110.06 371.41C1115.88 367.76 1122.04 364.3 1128.42 361.29C1138.86 356.36 1149.88 352.65 1160.92 351.27Z" fill="#D9CE99"/>
<path d="M1063.91 318.57L1121.64 342.11L1063.91 348.52V318.57Z" fill="#7E7226"/>
<path d="M101.85 297.98L101.63 297.76C94.2101 290.31 90.0401 280.21 90.0401 269.68V211.29H86.7901C86.7501 199.89 86.6801 194.3 86.6301 191.61C86.6001 190.29 85.5401 189.24 84.2201 189.24H68.3801C67.0601 189.24 65.9801 190.32 65.9801 191.66V211.3H62.7501V269.69C62.7501 280.22 58.5801 290.33 51.1601 297.77L50.9401 297.99C43.5201 305.44 39.3501 315.54 39.3501 326.07V407.82C39.3501 408.45 39.8601 408.97 40.4901 408.97H112.3C112.93 408.97 113.44 408.46 113.44 407.82V326.07C113.44 315.54 109.27 305.43 101.85 297.98Z" fill="#FDB0CE"/>
<path d="M920.69 277.78C912.66 270.19 908.19 259.55 908.19 248.47V200.81C908.19 198.87 908.71 197 909.5 195.24C909.91 194.32 910.14 193.31 910.14 192.23C910.14 191.15 909.91 190.14 909.5 189.22C908.71 187.45 908.19 185.58 908.19 183.65V183.04C908.19 181.11 908.71 179.23 909.5 177.47C909.91 176.55 910.14 175.53 910.14 174.46C910.14 172.59 909.44 170.89 908.29 169.58H909.19C909.19 165.7 906.06 162.56 902.2 162.56H885.7C881.84 162.56 878.71 165.7 878.71 169.58H879.61C878.46 170.88 877.76 172.58 877.76 174.46C877.76 175.53 877.99 176.55 878.4 177.47C879.19 179.24 879.71 181.11 879.71 183.04V183.65C879.71 185.59 879.19 187.46 878.4 189.22C877.99 190.14 877.76 191.15 877.76 192.23C877.76 193.31 877.99 194.32 878.4 195.24C879.19 197.01 879.71 198.88 879.71 200.81V248.47C879.71 259.54 875.24 270.18 867.21 277.78C859.66 284.91 854.95 295.03 854.95 306.26V433.73C854.95 437.31 857.84 440.21 861.41 440.21H926.5C930.07 440.21 932.96 437.31 932.96 433.73V306.26C932.96 295.03 928.25 284.91 920.7 277.78H920.69Z" fill="#3D1902"/>
<path d="M948.04 236.93V186.4C948.04 184.35 948.59 182.36 949.43 180.49C949.87 179.52 950.11 178.44 950.11 177.3C950.11 176.16 949.87 175.09 949.43 174.11C948.59 172.24 948.04 170.25 948.04 168.2V167.55C948.04 165.5 948.59 163.51 949.43 161.64C949.87 160.67 950.11 159.59 950.11 158.45C950.11 156.38 949.3 154.49 947.99 153.09C947.74 151.68 946.52 150.61 945.04 150.61H920.85C919.38 150.61 918.16 151.68 917.9 153.09C916.59 154.49 915.78 156.37 915.78 158.45C915.78 159.59 916.02 160.66 916.46 161.64C917.3 163.51 917.85 165.5 917.85 167.55V168.2C917.85 170.25 917.3 172.24 916.46 174.11C916.02 175.08 915.78 176.16 915.78 177.3C915.78 178.44 916.02 179.51 916.46 180.49C917.3 182.36 917.85 184.35 917.85 186.4V236.93C917.85 248.67 913.11 259.95 904.59 268C896.59 275.56 891.59 286.29 891.59 298.19V433.33C891.59 437.12 894.65 440.2 898.43 440.2H967.44C971.22 440.2 974.28 437.12 974.28 433.33V298.19C974.28 286.29 969.28 275.56 961.28 268C952.76 259.95 948.02 248.67 948.02 236.93H948.04Z" fill="#663E23"/>
<path d="M932.95 434.09H903.19C900.91 434.09 899.77 431.33 901.38 429.71L904.27 426.81C920.11 410.91 945.79 410.91 961.63 426.81L964.52 429.71C966.13 431.33 964.99 434.09 962.71 434.09H932.95Z" fill="#593219"/>
<path d="M960.16 312.23C954.14 312.23 948.76 308.41 946.81 302.7C943.34 292.53 938.41 286.16 932.94 286.16C927.47 286.16 922.54 292.52 919.07 302.7C917.12 308.41 911.74 312.23 905.72 312.23C897.91 312.23 891.59 318.58 891.59 326.41V355.65C891.59 363.48 897.92 369.83 905.72 369.83H907.89C913.5 369.83 918.49 373.24 920.73 378.4C924.03 386.02 928.29 390.61 932.94 390.61C937.59 390.61 941.85 386.02 945.15 378.4C947.39 373.24 952.38 369.83 957.99 369.83H960.16C967.97 369.83 974.29 363.48 974.29 355.65V326.41C974.29 318.58 967.96 312.23 960.16 312.23Z" fill="#FBC400"/>
<path d="M924.2 145.85H941.69C945.78 145.85 949.1 149.17 949.1 153.26V153.29H916.78V153.26C916.78 149.17 920.1 145.85 924.19 145.85H924.2Z" fill="#371703"/>
<path d="M916.56 314.78C916.24 314.33 915.62 314.22 915.17 314.54L914.57 314.97C914.53 314.65 914.37 314.35 914.06 314.19C913.57 313.93 912.97 314.12 912.71 314.61L911.51 316.88C911.4 316.74 911.26 316.61 911.08 316.54C910.57 316.35 909.99 316.61 909.79 317.13L908.89 319.57C908.75 319.48 908.59 319.41 908.41 319.41C907.86 319.35 907.39 319.82 907.37 320.37L907.27 322.86C907.14 322.75 906.99 322.66 906.81 322.63C906.26 322.54 905.75 322.9 905.66 323.45L905.36 325.24C905.16 324.98 904.85 324.81 904.5 324.84C903.95 324.88 903.54 325.37 903.58 325.92L903.79 328.49L903.77 328.44C903.52 327.95 902.92 327.75 902.43 328C901.94 328.25 901.74 328.86 901.99 329.35L902.88 331.1C903.5 332.31 903.69 333.7 903.44 335.04C903.01 337.26 902.8 339.54 902.8 341.85C902.8 351.37 906.5 360.33 913.21 367.06L914.62 365.64C908.29 359.28 904.8 350.83 904.8 341.85C904.8 340.36 904.9 338.88 905.09 337.42C905.4 335.07 906.59 332.91 908.35 331.33C908.76 330.96 909.05 330.7 909.05 330.7C909.5 330.38 909.61 329.75 909.29 329.3C909.17 329.13 909.01 329.03 908.83 328.96L909.61 328.4C910.06 328.08 910.17 327.45 909.85 327C909.77 326.88 909.67 326.79 909.55 326.72L910.9 325.76C911.35 325.44 911.46 324.81 911.14 324.36C911.04 324.22 910.91 324.13 910.77 324.06L912.09 323.12C912.43 322.88 912.57 322.48 912.49 322.1L914.26 320.84C914.71 320.52 914.82 319.89 914.5 319.44C914.45 319.37 914.39 319.33 914.32 319.27L915.36 318.53C915.81 318.21 915.92 317.58 915.6 317.13C915.53 317.03 915.43 316.95 915.33 316.88L916.34 316.17C916.79 315.85 916.9 315.22 916.58 314.77L916.56 314.78Z" fill="#FFD9E4"/>
<path d="M949.34 314.78C949.66 314.33 950.28 314.22 950.73 314.54L951.33 314.97C951.37 314.65 951.53 314.35 951.84 314.19C952.33 313.93 952.93 314.12 953.19 314.61L954.39 316.88C954.5 316.74 954.64 316.61 954.82 316.54C955.33 316.35 955.91 316.61 956.11 317.13L957.01 319.57C957.15 319.48 957.31 319.41 957.49 319.41C958.04 319.35 958.51 319.82 958.53 320.37L958.63 322.86C958.76 322.75 958.91 322.66 959.09 322.63C959.64 322.54 960.15 322.9 960.24 323.45L960.54 325.24C960.74 324.98 961.05 324.81 961.4 324.84C961.95 324.88 962.36 325.37 962.32 325.92L962.11 328.49L962.13 328.44C962.38 327.95 962.98 327.75 963.47 328C963.96 328.25 964.16 328.86 963.91 329.35L963.02 331.1C962.4 332.31 962.21 333.7 962.46 335.04C962.89 337.26 963.1 339.54 963.1 341.85C963.1 351.37 959.4 360.33 952.69 367.06L951.28 365.64C957.61 359.28 961.1 350.83 961.1 341.85C961.1 340.36 961 338.88 960.81 337.42C960.5 335.07 959.31 332.91 957.55 331.33C957.14 330.96 956.85 330.7 956.85 330.7C956.4 330.38 956.29 329.75 956.61 329.3C956.73 329.13 956.89 329.03 957.07 328.96L956.29 328.4C955.84 328.08 955.73 327.45 956.05 327C956.13 326.88 956.23 326.79 956.35 326.72L955 325.76C954.55 325.44 954.44 324.81 954.76 324.36C954.86 324.22 954.99 324.13 955.13 324.06L953.81 323.12C953.47 322.88 953.33 322.48 953.41 322.1L951.64 320.84C951.19 320.52 951.08 319.89 951.4 319.44C951.45 319.37 951.51 319.33 951.58 319.27L950.54 318.53C950.09 318.21 949.98 317.58 950.3 317.13C950.37 317.03 950.47 316.95 950.57 316.88L949.56 316.17C949.11 315.85 949 315.22 949.32 314.77L949.34 314.78Z" fill="#FFD9E4"/>
<path d="M932.95 319.76L936.65 329.42L946.08 325.21L941.88 334.68L951.52 338.39L941.88 342.11L946.08 351.57L936.65 347.36L932.95 357.03L929.25 347.36L919.82 351.57L924.01 342.11L914.38 338.39L924.01 334.68L919.82 325.21L929.25 329.42L932.95 319.76Z" fill="#FF5817"/>
<path d="M858.14 236.93V186.4C858.14 184.35 858.69 182.36 859.53 180.49C859.97 179.52 860.21 178.44 860.21 177.3C860.21 176.16 859.97 175.09 859.53 174.11C858.69 172.24 858.14 170.25 858.14 168.2V167.55C858.14 165.5 858.69 163.51 859.53 161.64C859.97 160.67 860.21 159.59 860.21 158.45C860.21 156.38 859.4 154.49 858.09 153.09C857.84 151.68 856.62 150.61 855.14 150.61H830.95C829.48 150.61 828.26 151.68 828 153.09C826.69 154.49 825.88 156.37 825.88 158.45C825.88 159.59 826.12 160.66 826.56 161.64C827.4 163.51 827.95 165.5 827.95 167.55V168.2C827.95 170.25 827.4 172.24 826.56 174.11C826.12 175.08 825.88 176.16 825.88 177.3C825.88 178.44 826.12 179.51 826.56 180.49C827.4 182.36 827.95 184.35 827.95 186.4V236.93C827.95 248.67 823.21 259.95 814.69 268C806.69 275.56 801.69 286.29 801.69 298.19V433.33C801.69 437.12 804.75 440.2 808.53 440.2H877.54C881.32 440.2 884.38 437.12 884.38 433.33V298.19C884.38 286.29 879.38 275.56 871.38 268C862.86 259.95 858.12 248.67 858.12 236.93H858.14Z" fill="#502400"/>
<path d="M843.04 434.09H813.28C811 434.09 809.86 431.33 811.47 429.71L814.36 426.81C830.2 410.91 855.88 410.91 871.72 426.81L874.61 429.71C876.22 431.33 875.08 434.09 872.8 434.09H843.04Z" fill="#3D1902"/>
<path d="M870.26 312.23C864.24 312.23 858.86 308.41 856.91 302.7C853.44 292.53 848.51 286.16 843.04 286.16C837.57 286.16 832.64 292.52 829.17 302.7C827.22 308.41 821.84 312.23 815.82 312.23C808.01 312.23 801.69 318.58 801.69 326.41V355.65C801.69 363.48 808.02 369.83 815.82 369.83H817.99C823.6 369.83 828.59 373.24 830.83 378.4C834.13 386.02 838.39 390.61 843.04 390.61C847.69 390.61 851.95 386.02 855.25 378.4C857.49 373.24 862.48 369.83 868.09 369.83H870.26C878.07 369.83 884.39 363.48 884.39 355.65V326.41C884.39 318.58 878.06 312.23 870.26 312.23Z" fill="#ECB036"/>
<path d="M834.3 145.85H851.79C855.88 145.85 859.2 149.17 859.2 153.26V153.29H826.88V153.26C826.88 149.17 830.2 145.85 834.29 145.85H834.3Z" fill="#371703"/>
<path d="M826.65 314.78C826.33 314.33 825.71 314.22 825.26 314.54L824.66 314.97C824.62 314.65 824.46 314.35 824.15 314.19C823.66 313.93 823.06 314.12 822.8 314.61L821.6 316.88C821.49 316.74 821.35 316.61 821.17 316.54C820.66 316.35 820.08 316.61 819.88 317.13L818.98 319.57C818.84 319.48 818.68 319.41 818.5 319.41C817.95 319.35 817.48 319.82 817.46 320.37L817.36 322.86C817.23 322.75 817.08 322.66 816.9 322.63C816.35 322.54 815.84 322.9 815.75 323.45L815.45 325.24C815.25 324.98 814.94 324.81 814.59 324.84C814.04 324.88 813.63 325.37 813.67 325.92L813.88 328.49L813.86 328.44C813.61 327.95 813.01 327.75 812.52 328C812.03 328.25 811.83 328.86 812.08 329.35L812.97 331.1C813.59 332.31 813.78 333.7 813.53 335.04C813.1 337.26 812.89 339.54 812.89 341.85C812.89 351.37 816.59 360.33 823.3 367.06L824.71 365.64C818.38 359.28 814.89 350.83 814.89 341.85C814.89 340.36 814.99 338.88 815.18 337.42C815.49 335.07 816.68 332.91 818.44 331.33C818.85 330.96 819.14 330.7 819.14 330.7C819.59 330.38 819.7 329.75 819.38 329.3C819.26 329.13 819.1 329.03 818.92 328.96L819.7 328.4C820.15 328.08 820.26 327.45 819.94 327C819.86 326.88 819.76 326.79 819.64 326.72L820.99 325.76C821.44 325.44 821.55 324.81 821.23 324.36C821.13 324.22 821 324.13 820.86 324.06L822.18 323.12C822.52 322.88 822.66 322.48 822.58 322.1L824.35 320.84C824.8 320.52 824.91 319.89 824.59 319.44C824.54 319.37 824.48 319.33 824.41 319.27L825.45 318.53C825.9 318.21 826.01 317.58 825.69 317.13C825.62 317.03 825.52 316.95 825.42 316.88L826.43 316.17C826.88 315.85 826.99 315.22 826.67 314.77L826.65 314.78Z" fill="#D5931A"/>
<path d="M859.44 314.78C859.76 314.33 860.38 314.22 860.83 314.54L861.43 314.97C861.47 314.65 861.63 314.35 861.94 314.19C862.43 313.93 863.03 314.12 863.29 314.61L864.49 316.88C864.6 316.74 864.74 316.61 864.92 316.54C865.43 316.35 866.01 316.61 866.21 317.13L867.11 319.57C867.25 319.48 867.41 319.41 867.59 319.41C868.14 319.35 868.61 319.82 868.63 320.37L868.73 322.86C868.86 322.75 869.01 322.66 869.19 322.63C869.74 322.54 870.25 322.9 870.34 323.45L870.64 325.24C870.84 324.98 871.15 324.81 871.5 324.84C872.05 324.88 872.46 325.37 872.42 325.92L872.21 328.49L872.23 328.44C872.48 327.95 873.08 327.75 873.57 328C874.06 328.25 874.26 328.86 874.01 329.35L873.12 331.1C872.5 332.31 872.31 333.7 872.56 335.04C872.99 337.26 873.2 339.54 873.2 341.85C873.2 351.37 869.5 360.33 862.79 367.06L861.38 365.64C867.71 359.28 871.2 350.83 871.2 341.85C871.2 340.36 871.1 338.88 870.91 337.42C870.6 335.07 869.41 332.91 867.65 331.33C867.24 330.96 866.95 330.7 866.95 330.7C866.5 330.38 866.39 329.75 866.71 329.3C866.83 329.13 866.99 329.03 867.17 328.96L866.39 328.4C865.94 328.08 865.83 327.45 866.15 327C866.23 326.88 866.33 326.79 866.45 326.72L865.1 325.76C864.65 325.44 864.54 324.81 864.86 324.36C864.96 324.22 865.09 324.13 865.23 324.06L863.91 323.12C863.57 322.88 863.43 322.48 863.51 322.1L861.74 320.84C861.29 320.52 861.18 319.89 861.5 319.44C861.55 319.37 861.61 319.33 861.68 319.27L860.64 318.53C860.19 318.21 860.08 317.58 860.4 317.13C860.47 317.03 860.57 316.95 860.67 316.88L859.66 316.17C859.21 315.85 859.1 315.22 859.42 314.77L859.44 314.78Z" fill="#D5931A"/>
<path d="M843.04 319.76L846.75 329.42L856.17 325.21L851.98 334.68L861.61 338.39L851.98 342.11L856.17 351.57L846.75 347.36L843.04 357.03L839.34 347.36L829.91 351.57L834.11 342.11L824.48 338.39L834.11 334.68L829.91 325.21L839.34 329.42L843.04 319.76Z" fill="#C93501"/>
<path d="M1205.29 439.17H1171.13C1150.6 439.17 1135.53 419.84 1140.46 399.84L1143.02 389.47L1153.7 346.11H1222.72L1233.4 389.47L1235.96 399.84C1240.89 419.84 1225.82 439.17 1205.29 439.17Z" fill="#FEEECC"/>
<path d="M1204.06 435.71H1172.36C1153.31 435.71 1139.32 417.77 1143.9 399.21L1146.28 389.59H1230.16L1232.54 399.21C1237.12 417.77 1223.13 435.71 1204.08 435.71H1204.06Z" fill="#663E23"/>
<path d="M126.44 408.96H113.2C105.24 408.96 99.4 401.47 101.31 393.72L102.3 389.7L106.44 372.9H133.19L137.33 389.7L138.32 393.72C140.23 401.47 134.39 408.96 126.43 408.96H126.44Z" fill="#FEEECC"/>
<path d="M125.97 407.62H113.68C106.29 407.62 100.87 400.67 102.65 393.47L103.57 389.74H136.08L137 393.47C138.77 400.67 133.35 407.62 125.97 407.62Z" fill="#FF7CAE"/>
<path d="M171.3 408.96H158.06C150.1 408.96 144.26 401.47 146.17 393.72L147.16 389.7L151.3 372.9H178.05L182.19 389.7L183.18 393.72C185.09 401.47 179.25 408.96 171.29 408.96H171.3Z" fill="#FEEECC"/>
<path d="M170.82 407.62H158.53C151.14 407.62 145.72 400.67 147.5 393.47L148.42 389.74H180.93L181.85 393.47C183.62 400.67 178.2 407.62 170.82 407.62Z" fill="#FF7CAE"/>
<path d="M205.37 408.96H192.13C184.17 408.96 178.33 401.47 180.24 393.72L181.23 389.7L185.37 372.9H212.12L216.26 389.7L217.25 393.72C219.16 401.47 213.32 408.96 205.36 408.96H205.37Z" fill="#FEEECC"/>
<path d="M204.9 407.62H192.61C185.22 407.62 179.8 400.67 181.58 393.47L182.5 389.74H215.01L215.93 393.47C217.7 400.67 212.28 407.62 204.9 407.62Z" fill="#FF7CAE"/>
<path d="M733.08 334.83L706.75 416.17C702.31 429.89 689.57 439.18 675.2 439.18H589.48C575.11 439.18 562.38 429.89 557.94 416.17L531.6 334.83C527.08 320.84 532.04 305.5 543.9 296.84L587.76 264.87C590.92 262.56 594.22 260.53 597.63 258.77C601.67 256.7 603.84 252.3 603.39 247.76C602.8 241.83 604.02 235.76 607.04 230.42C607.99 228.75 608.53 226.87 608.53 224.93V176.19C608.53 168.21 614.98 161.74 622.93 161.74H641.77C649.73 161.74 656.18 168.21 656.18 176.19V224.93C656.18 226.87 656.72 228.75 657.67 230.42C660.69 235.76 661.9 241.83 661.31 247.76C660.86 252.3 663.05 256.69 667.08 258.77C670.48 260.53 673.78 262.56 676.95 264.87L720.81 296.84C732.67 305.5 737.63 320.83 733.1 334.83H733.08Z" fill="#675F8C"/>
<path d="M638.98 226.85C640.74 228.62 643.13 229.61 645.62 229.61C650.8 229.61 655.01 233.83 655.01 239.03C655.01 241.53 656 243.92 657.76 245.69C661.43 249.37 661.43 255.33 657.76 259.01C656 260.78 655.01 263.17 655.01 265.67C655.01 270.87 650.81 275.09 645.62 275.09C643.13 275.09 640.74 276.08 638.98 277.85C635.31 281.53 629.37 281.53 625.71 277.85C623.95 276.08 621.56 275.09 619.07 275.09C613.89 275.09 609.68 270.87 609.68 265.67C609.68 263.17 608.69 260.78 606.93 259.01C603.26 255.33 603.26 249.37 606.93 245.69C608.69 243.92 609.68 241.53 609.68 239.03C609.68 233.83 613.88 229.61 619.07 229.61C621.56 229.61 623.95 228.62 625.71 226.85C629.38 223.17 635.32 223.17 638.98 226.85Z" fill="#E8E8E8"/>
<path d="M656.17 176.19V203.09H608.52V176.19C608.52 168.21 614.97 161.74 622.92 161.74H641.76C649.72 161.74 656.17 168.21 656.17 176.19Z" fill="#362C62"/>
<path d="M684.36 316.27H580.34C576.021 316.27 572.52 319.771 572.52 324.09V370.11C572.52 374.429 576.021 377.93 580.34 377.93H684.36C688.679 377.93 692.18 374.429 692.18 370.11V324.09C692.18 319.771 688.679 316.27 684.36 316.27Z" fill="#FEEECC"/>
<path d="M632.34 400.03C652.537 400.03 668.91 396.032 668.91 391.1C668.91 386.168 652.537 382.17 632.34 382.17C612.143 382.17 595.77 386.168 595.77 391.1C595.77 396.032 612.143 400.03 632.34 400.03Z" fill="#362C62"/>
<path d="M632.34 397.36C650.135 397.36 664.56 394.557 664.56 391.1C664.56 387.643 650.135 384.84 632.34 384.84C614.546 384.84 600.12 387.643 600.12 391.1C600.12 394.557 614.546 397.36 632.34 397.36Z" stroke="#FEEECC" stroke-miterlimit="10"/>
<path d="M628.93 370.1L609.43 350.53C607.54 348.64 607.54 345.57 609.43 343.67L628.93 324.1C630.82 322.21 633.87 322.21 635.76 324.1L655.26 343.67C657.15 345.56 657.15 348.63 655.26 350.53L635.76 370.1C633.87 371.99 630.82 371.99 628.93 370.1Z" fill="#362C62"/>
<path d="M792.27 361.04H710.89V439.17H792.27V361.04Z" fill="#FF7CAE"/>
<path d="M792.27 418.76H710.89V439.18H792.27V418.76Z" fill="#D2ECF5"/>
<path d="M734.98 408.24C735.03 408.32 735.1 408.39 735.16 408.46H757.88C758.77 407.37 758.72 405.77 757.71 404.75L755.12 402.15C755.54 402.26 756 402.29 756.45 402.18L763.2 400.59C762.48 401.09 762.01 401.92 762.01 402.87V408.46H780.59V402.87C780.59 401.34 779.36 400.1 777.83 400.1H765.29L769.17 399.18C770.65 398.83 771.57 397.34 771.22 395.85L768.23 383.09C767.88 381.6 766.4 380.68 764.91 381.03L752.19 384.03C750.71 384.38 749.79 385.87 750.14 387.36L753.13 400.12C753.13 400.12 753.15 400.16 753.15 400.18L748.46 395.47C747.38 394.39 745.64 394.39 744.56 395.47L735.32 404.74C735.19 404.87 735.07 405.02 734.97 405.17V402.86C734.97 401.33 733.74 400.09 732.21 400.09H719.15C717.63 400.09 716.39 401.33 716.39 402.86V408.45H734.97V408.23L734.98 408.24Z" fill="white"/>
<path d="M716.4 415.99V408.47H710.89V418.76H719.16C717.64 418.76 716.4 417.52 716.4 415.99Z" fill="#663E23"/>
<path d="M780.59 408.47V415.99C780.59 417.52 779.36 418.76 777.83 418.76H792.27V408.47H780.59Z" fill="#663E23"/>
<path d="M762.01 415.99V408.47H757.88C757.82 408.54 757.77 408.61 757.71 408.68L748.47 417.95C747.93 418.49 747.23 418.76 746.52 418.76H764.77C763.25 418.76 762.01 417.52 762.01 415.99Z" fill="#663E23"/>
<path d="M735.33 408.68C735.26 408.61 735.22 408.54 735.16 408.47H734.98V415.99C734.98 417.52 733.75 418.76 732.22 418.76H746.52C745.81 418.76 745.11 418.49 744.57 417.95L735.33 408.68Z" fill="#663E23"/>
<path d="M734.98 415.99V408.47H716.4V415.99C716.4 417.52 717.63 418.76 719.16 418.76H732.22C733.74 418.76 734.98 417.52 734.98 415.99Z" fill="#3D1902"/>
<path d="M757.71 408.68C757.78 408.61 757.82 408.54 757.88 408.47H735.16C735.22 408.54 735.27 408.61 735.33 408.68L744.57 417.95C745.11 418.49 745.81 418.76 746.52 418.76C747.23 418.76 747.93 418.49 748.47 417.95L757.71 408.68Z" fill="#3D1902"/>
<path d="M780.59 415.99V408.47H762.01V415.99C762.01 417.52 763.25 418.76 764.77 418.76H777.83C779.35 418.76 780.59 417.52 780.59 415.99Z" fill="#3D1902"/>
<path d="M710.89 366.67L729.32 417.29C729.48 417.78 730.17 417.8 730.35 417.31L751.58 366.67L772.81 417.31C772.99 417.79 773.68 417.78 773.84 417.29L792.27 366.67" stroke="#FDB0CE" stroke-linejoin="round"/>
<path d="M710.89 418.76H792.27" stroke="#FDB0CE" stroke-linejoin="round"/>
<path d="M710.89 361.04C710.89 361.04 752.02 372.46 792.27 361.04" stroke="#FDB0CE" stroke-linejoin="round"/>
<path d="M589.48 439.17C575.11 439.17 562.38 429.88 557.94 416.16" stroke="#311200" stroke-miterlimit="10"/>
<path d="M675.2 439.17H589.48C616.77 427.03 647.91 427.03 675.2 439.17ZM675.2 439.17C689.57 439.17 702.32 429.88 706.75 416.16" stroke="#311200" stroke-miterlimit="10"/>
<path d="M632.34 271.29C642.762 271.29 651.21 262.81 651.21 252.35C651.21 241.89 642.762 233.41 632.34 233.41C621.919 233.41 613.47 241.89 613.47 252.35C613.47 262.81 621.919 271.29 632.34 271.29Z" stroke="#311200" stroke-miterlimit="10"/>
<path d="M681.55 345.72H663.74C660.6 345.72 657.48 344.49 655.5 342.03C655.32 341.81 655.14 341.6 654.93 341.4L638.22 324.63C636.83 323.23 635.02 322.26 633.06 322.09C630.64 321.88 628.33 322.72 626.65 324.42L609.73 341.4C609.53 341.6 609.34 341.81 609.16 342.03C607.19 344.48 604.07 345.72 600.92 345.72H583.11V348.49H600.92C604.06 348.49 607.18 349.72 609.16 352.18C609.34 352.4 609.52 352.61 609.73 352.81L626.44 369.58C627.83 370.98 629.64 371.95 631.59 372.12C634.01 372.34 636.32 371.49 638.01 369.79L654.93 352.81C655.13 352.61 655.32 352.4 655.5 352.18C657.47 349.73 660.59 348.5 663.73 348.5H681.54V345.73L681.55 345.72ZM652.99 350.85L636.07 367.83C634.02 369.89 630.66 369.89 628.61 367.83L611.69 350.85C609.63 348.78 609.63 345.43 611.69 343.36L628.46 326.53C629.33 325.66 630.44 325.03 631.65 324.87C633.31 324.66 634.91 325.22 636.07 326.38L652.99 343.36C655.05 345.43 655.05 348.78 652.99 350.85Z" stroke="#FEEECC" stroke-miterlimit="10"/>
<path d="M1336.62 440.21H527.52C496.9 440.21 466.84 452.89 440.44 476.94H1336.62V440.21Z" fill="#FDB0CE"/>
<path d="M278.39 408.96H-12.7899V466.02H334.81L309 425.73C302.31 415.28 290.77 408.96 278.39 408.96Z" fill="#FDB0CE"/>
<path d="M546.49 439.46H1320.81" stroke="#FF7CAE" stroke-width="2" stroke-miterlimit="10"/>
</g>
</g>
<defs>
<clipPath id="clip0_1528_82333">
<rect width="1335" height="464" fill="white"/>
</clipPath>
</defs>
</svg>
