<svg width="1335" height="464" viewBox="0 0 1335 464" fill="none" xmlns="http://www.w3.org/2000/svg">
<g clip-path="url(#clip0_1528_84113)">
<rect width="1335" height="464" fill="#121831"/>
<mask id="mask0_1528_84113" style="mask-type:luminance" maskUnits="userSpaceOnUse" x="0" y="0" width="1335" height="464">
<path d="M1335 0H0V464H1335V0Z" fill="white"/>
</mask>
<g mask="url(#mask0_1528_84113)">
<path d="M1335 0H0V464H1335V0Z" fill="#121831"/>
<path d="M757.97 469.65L650.87 500.35C642.11 502.86 632.98 497.79 630.46 489.03L604.76 399.37L598.99 379.24C593.27 359.28 596.54 338.87 606.39 322.35C615.93 306.36 619.13 287.39 615.65 269.1L607.89 228.34L593.68 153.64L604.35 150.58L612.11 148.36L622.79 145.3L665.32 254.86C672.06 272.21 684.83 286.61 701.39 295.11C718.51 303.91 732.09 319.48 737.81 339.44L769.29 449.24C771.8 458 766.73 467.13 757.97 469.65Z" fill="#82882E"/>
<path d="M631.59 290.67C627.28 300.75 625.07 311.59 625.07 322.53C625.07 323.4 625.07 324.27 625.11 325.14C625.92 349.82 619.66 374.22 607.07 395.47L604.76 399.37L598.99 379.24C593.27 359.28 596.54 338.87 606.39 322.35C615.93 306.36 619.13 287.39 615.65 269.1L607.89 228.34L618.12 200.44L629.11 221.75C635.09 233.37 638.1 246.1 638.1 258.85C638.1 269.66 635.94 280.49 631.59 290.67Z" fill="#646A1A"/>
<path d="M718.27 353.623L623.134 380.903C621.01 381.512 619.782 383.727 620.391 385.85L644.923 471.403C645.532 473.526 647.747 474.754 649.87 474.145L745.006 446.865C747.13 446.256 748.358 444.041 747.749 441.918L723.217 356.365C722.608 354.242 720.393 353.014 718.27 353.623Z" fill="#FDBD00"/>
<path d="M612.11 148.35L624.45 113.42C630.9 95.16 620.32 75.3 601.57 70.46C577.71 64.31 555.77 85.51 561.1 109.57C563.22 119.16 554.62 127.68 545.06 125.48L497.36 114.47C468.38 107.78 439.04 124.16 429.52 152.34C417.27 188.6 442.97 226.56 481.19 228.65L540.93 231.92C555.19 232.7 561.85 249.94 551.83 260.11L541.11 270.98C523.94 288.39 530.55 317.72 553.52 326.08L571.04 332.46C578.26 335.09 581.5 343.48 577.94 350.28L574.84 356.19C570.76 363.96 573.84 373.57 581.68 377.52C591.32 382.38 602.88 376.3 604.33 365.6L605.64 355.91C607.2 344.4 610.38 333.17 615.1 322.56C624.01 302.51 627.38 280.44 624.86 258.65L612.13 148.36L612.11 148.35Z" fill="#FFF2D6"/>
<path fill-rule="evenodd" clip-rule="evenodd" d="M540.388 270.268L551.098 259.398L552.522 260.802L541.812 271.672L540.388 270.268Z" fill="#FDBD00"/>
<path fill-rule="evenodd" clip-rule="evenodd" d="M551.108 259.398C560.524 249.841 554.264 233.641 540.865 232.909L540.974 230.912C556.095 231.739 563.156 250.019 552.532 260.802L551.108 259.398Z" fill="#FDBD00"/>
<path d="M961.61 242.72L980.18 305.77L1032.27 265.68L1010.23 327.6L1075.94 325.78L1021.71 362.93L1075.94 400.08L1010.23 398.26L1032.27 460.19L980.18 420.1L961.61 483.15L943.03 420.1L890.94 460.19L912.98 398.26L847.27 400.08L901.5 362.93L847.27 325.78L912.98 327.6L890.94 265.68L943.03 305.77L961.61 242.72Z" fill="#EC5E3A"/>
<path d="M871.85 425.14C968.395 425.14 1046.66 346.875 1046.66 250.33C1046.66 153.785 968.395 75.52 871.85 75.52C775.305 75.52 697.04 153.785 697.04 250.33C697.04 346.875 775.305 425.14 871.85 425.14Z" fill="#3A9EE0"/>
<path fill-rule="evenodd" clip-rule="evenodd" d="M698.04 250.33C698.04 346.328 775.862 424.14 871.85 424.14V426.14C774.758 426.14 696.04 347.432 696.04 250.33H698.04Z" fill="#0D386C"/>
<path fill-rule="evenodd" clip-rule="evenodd" d="M871.85 424.14C967.848 424.14 1045.66 346.318 1045.66 250.33H1047.66C1047.66 347.422 968.952 426.14 871.85 426.14V424.14Z" fill="#0D386C"/>
<path d="M871.85 383.54C945.42 383.54 1005.06 323.9 1005.06 250.33C1005.06 176.76 945.42 117.12 871.85 117.12C798.28 117.12 738.64 176.76 738.64 250.33C738.64 323.9 798.28 383.54 871.85 383.54Z" fill="#FFF9E3"/>
<path d="M1005.07 250.33C1005.07 323.9 945.43 383.54 871.86 383.54L1005.07 250.33Z" fill="#FFF9E3"/>
<path fill-rule="evenodd" clip-rule="evenodd" d="M871.86 382.54C944.878 382.54 1004.07 323.348 1004.07 250.33H1006.07C1006.07 324.452 945.982 384.54 871.86 384.54V382.54Z" fill="#0D386C"/>
<path fill-rule="evenodd" clip-rule="evenodd" d="M875.975 156.67L879.345 250.06L864.355 250.6L860.985 157.21L875.975 156.67Z" fill="#0D386C"/>
<path fill-rule="evenodd" clip-rule="evenodd" d="M854.661 129.155L879.241 271.645L864.459 274.195L839.879 131.705L854.661 129.155Z" fill="#FDBD00"/>
<path fill-rule="evenodd" clip-rule="evenodd" d="M872.292 262.557L776.792 309.617L775.908 307.823L871.408 260.763L872.292 262.557Z" fill="#EC5E3A"/>
<path fill-rule="evenodd" clip-rule="evenodd" d="M752.23 244.31C748.905 244.31 746.21 247.005 746.21 250.33C746.21 253.655 748.905 256.35 752.23 256.35C755.555 256.35 758.25 253.655 758.25 250.33C758.25 247.005 755.555 244.31 752.23 244.31ZM744.21 250.33C744.21 245.901 747.801 242.31 752.23 242.31C756.659 242.31 760.25 245.901 760.25 250.33C760.25 254.759 756.659 258.35 752.23 258.35C747.801 258.35 744.21 254.759 744.21 250.33Z" fill="#3A9CDE"/>
<path fill-rule="evenodd" clip-rule="evenodd" d="M991.47 244.31C988.145 244.31 985.45 247.005 985.45 250.33C985.45 253.655 988.145 256.35 991.47 256.35C994.795 256.35 997.49 253.655 997.49 250.33C997.49 247.005 994.795 244.31 991.47 244.31ZM983.45 250.33C983.45 245.901 987.041 242.31 991.47 242.31C995.899 242.31 999.49 245.901 999.49 250.33C999.49 254.759 995.899 258.35 991.47 258.35C987.041 258.35 983.45 254.759 983.45 250.33Z" fill="#3A9CDE"/>
<path fill-rule="evenodd" clip-rule="evenodd" d="M871.85 124.69C868.525 124.69 865.83 127.385 865.83 130.71C865.83 134.035 868.525 136.73 871.85 136.73C875.175 136.73 877.87 134.035 877.87 130.71C877.87 127.385 875.175 124.69 871.85 124.69ZM863.83 130.71C863.83 126.281 867.421 122.69 871.85 122.69C876.279 122.69 879.87 126.281 879.87 130.71C879.87 135.139 876.279 138.73 871.85 138.73C867.421 138.73 863.83 135.139 863.83 130.71Z" fill="#3A9CDE"/>
<path fill-rule="evenodd" clip-rule="evenodd" d="M871.85 363.93C868.525 363.93 865.83 366.625 865.83 369.95C865.83 373.275 868.525 375.97 871.85 375.97C875.175 375.97 877.87 373.275 877.87 369.95C877.87 366.625 875.175 363.93 871.85 363.93ZM863.83 369.95C863.83 365.521 867.421 361.93 871.85 361.93C876.279 361.93 879.87 365.521 879.87 369.95C879.87 374.379 876.279 377.97 871.85 377.97C867.421 377.97 863.83 374.379 863.83 369.95Z" fill="#3A9CDE"/>
<path fill-rule="evenodd" clip-rule="evenodd" d="M548.495 177.214C548.494 177.214 548.493 177.213 548.98 176.34C549.384 175.615 549.453 175.492 549.465 175.471C549.467 175.467 549.467 175.467 549.467 175.467L549.468 175.467L549.475 175.471L549.504 175.487C549.531 175.502 549.572 175.524 549.627 175.554C549.737 175.613 549.904 175.701 550.123 175.814C550.562 176.041 551.215 176.367 552.06 176.764C553.749 177.557 556.207 178.628 559.263 179.734C565.381 181.946 573.875 184.287 583.406 184.82C592.934 185.354 603.476 184.081 613.722 179.09C623.96 174.104 633.966 165.375 642.386 150.897L644.115 151.903C635.515 166.69 625.226 175.712 614.598 180.888C603.977 186.061 593.079 187.365 583.294 186.817C573.513 186.27 564.822 183.871 558.583 181.614C555.461 180.485 552.947 179.39 551.21 178.574C550.341 178.167 549.666 177.829 549.207 177.592C548.977 177.473 548.801 177.38 548.681 177.316C548.621 177.283 548.575 177.259 548.544 177.241L548.508 177.221L548.498 177.216L548.495 177.214Z" fill="#FDBD00"/>
<mask id="mask1_1528_84113" style="mask-type:luminance" maskUnits="userSpaceOnUse" x="1169" y="116" width="156" height="289">
<path d="M1321.41 385.03L1248.74 404.25C1245.21 405.18 1242.79 400.77 1245.48 398.29L1246.37 397.47C1265.79 379.55 1273.72 352.34 1266.96 326.79L1253.71 276.71C1247.78 277.5 1241.25 275.02 1234.47 269.76C1211.58 252.01 1185.76 202.71 1169.57 141.51L1263.84 116.57C1280.46 179.4 1282.05 236.37 1269.93 262.22C1266.75 269.01 1262.62 273.65 1257.57 275.69L1271.33 327.7C1277.83 352.27 1296.92 371.54 1321.44 378.27C1324.89 379.22 1324.87 384.12 1321.41 385.03Z" fill="white"/>
</mask>
<g mask="url(#mask1_1528_84113)">
<path d="M1321.41 385.03L1248.74 404.25C1245.21 405.18 1242.79 400.77 1245.48 398.29L1246.37 397.47C1265.79 379.55 1273.72 352.34 1266.96 326.79L1253.71 276.71C1247.78 277.5 1241.25 275.02 1234.47 269.76C1211.58 252.01 1185.76 202.71 1169.57 141.51L1263.84 116.57C1280.46 179.4 1282.05 236.37 1269.93 262.22C1266.75 269.01 1262.62 273.65 1257.57 275.69L1271.33 327.7C1277.83 352.27 1296.92 371.54 1321.44 378.27C1324.89 379.22 1324.87 384.12 1321.41 385.03Z" fill="#F5CF72"/>
<path d="M1230.18 269.06L1274.52 261.74C1274.52 261.74 1267.95 275.04 1257.57 275.68L1253.7 276.7L1244.81 286.56L1230.18 269.05V269.06Z" fill="#3A9EE0"/>
</g>
<mask id="mask2_1528_84113" style="mask-type:luminance" maskUnits="userSpaceOnUse" x="1056" y="181" width="119" height="283">
<path d="M1134.44 462.97L1059.65 455.43C1056.02 455.06 1055.3 450.08 1058.69 448.7L1059.81 448.24C1084.29 438.28 1101.27 415.6 1103.92 389.31L1109.11 337.77C1103.28 336.43 1098.04 331.81 1093.54 324.5C1078.35 299.84 1071.5 244.61 1077.85 181.63L1174.87 191.41C1168.35 256.07 1149.83 309.97 1129.39 329.91C1124.03 335.15 1118.53 338.04 1113.09 338.18L1107.7 391.71C1105.15 417 1116.26 441.75 1136.84 456.66C1139.73 458.76 1138 463.34 1134.43 462.98L1134.44 462.97Z" fill="white"/>
</mask>
<g mask="url(#mask2_1528_84113)">
<path d="M1134.44 462.97L1059.65 455.43C1056.02 455.06 1055.3 450.08 1058.69 448.7L1059.81 448.24C1084.29 438.28 1101.27 415.6 1103.92 389.31L1109.11 337.77C1103.28 336.43 1098.04 331.81 1093.54 324.5C1078.35 299.84 1071.5 244.61 1077.85 181.63L1174.87 191.41C1168.35 256.07 1149.83 309.97 1129.39 329.91C1124.03 335.15 1118.53 338.04 1113.09 338.18L1107.7 391.71C1105.15 417 1116.26 441.75 1136.84 456.66C1139.73 458.76 1138 463.34 1134.43 462.98L1134.44 462.97Z" fill="#F5CF72"/>
<path d="M1083.42 325.37C1083.42 325.37 1125.99 332.69 1147.27 312.07C1147.27 312.07 1127.98 361.29 1083.42 325.37Z" fill="#3A9EE0"/>
</g>
<path d="M469.88 295.9L500.68 308.31C502.65 309.1 504.88 308.15 505.68 306.18L511.65 291.36C512.44 289.39 511.49 287.16 509.52 286.36L506.01 284.95L513.96 265.2L490.18 255.62L482.23 275.37L478.72 273.96C476.75 273.17 474.52 274.12 473.72 276.09L467.75 290.91C466.96 292.88 467.91 295.11 469.88 295.91V295.9Z" fill="#57AAE3"/>
<path d="M506.01 284.95L482.23 275.37L487.34 262.69L508.56 278.61L506.01 284.95Z" fill="#0D386C"/>
<path fill-rule="evenodd" clip-rule="evenodd" d="M278.74 271.92C279.183 271.92 279.574 272.212 279.699 272.638L303.277 352.687L369.41 301.788C369.761 301.517 370.249 301.51 370.608 301.771C370.966 302.032 371.111 302.497 370.962 302.915L342.991 381.53L426.402 379.23C426.846 379.218 427.244 379.499 427.381 379.921C427.518 380.343 427.361 380.804 426.995 381.055L358.149 428.21L426.995 475.375C427.361 475.626 427.518 476.087 427.381 476.509C427.244 476.931 426.845 477.212 426.402 477.2L342.991 474.89L370.962 553.505C371.111 553.923 370.966 554.388 370.608 554.649C370.249 554.91 369.761 554.903 369.41 554.633L303.277 503.743L279.699 583.783C279.574 584.208 279.183 584.5 278.74 584.5C278.296 584.5 277.906 584.208 277.781 583.783L254.203 503.743L188.07 554.633C187.718 554.903 187.231 554.91 186.872 554.649C186.513 554.388 186.369 553.923 186.518 553.505L214.498 474.89L131.078 477.2C130.634 477.212 130.236 476.931 130.099 476.509C129.962 476.087 130.119 475.626 130.485 475.375L199.33 428.21L130.485 381.055C130.119 380.804 129.962 380.343 130.099 379.921C130.236 379.499 130.634 379.218 131.077 379.23L214.498 381.53L186.518 302.915C186.369 302.498 186.513 302.032 186.872 301.771C187.231 301.51 187.718 301.517 188.07 301.788L254.203 352.687L277.781 272.638C277.906 272.212 278.296 271.92 278.74 271.92ZM278.74 276.459L255.709 354.653C255.616 354.969 255.373 355.219 255.059 355.321C254.745 355.423 254.401 355.364 254.14 355.162L189.54 305.443L216.872 382.235C216.983 382.546 216.933 382.891 216.739 383.158C216.545 383.425 216.232 383.579 215.902 383.57L134.416 381.323L201.665 427.385C201.937 427.571 202.1 427.88 202.1 428.21C202.1 428.54 201.937 428.849 201.665 429.035L134.415 475.106L215.902 472.85C216.232 472.841 216.545 472.995 216.739 473.262C216.933 473.529 216.983 473.875 216.872 474.185L189.54 550.977L254.14 501.268C254.401 501.066 254.745 501.007 255.059 501.109C255.373 501.211 255.616 501.461 255.709 501.777L278.74 579.961L301.771 501.777C301.864 501.461 302.107 501.211 302.421 501.109C302.735 501.007 303.078 501.066 303.34 501.268L367.94 550.978L340.618 474.185C340.507 473.874 340.557 473.529 340.751 473.262C340.945 472.995 341.258 472.841 341.588 472.85L423.064 475.106L355.815 429.035C355.543 428.849 355.38 428.54 355.38 428.21C355.38 427.88 355.543 427.571 355.815 427.385L423.064 381.323L341.587 383.57C341.258 383.579 340.945 383.425 340.751 383.158C340.557 382.891 340.507 382.546 340.618 382.235L367.94 305.443L303.34 355.162C303.078 355.364 302.735 355.423 302.421 355.321C302.107 355.219 301.864 354.969 301.771 354.653L278.74 276.459Z" fill="#EC5E3A"/>
<path fill-rule="evenodd" clip-rule="evenodd" d="M159.422 90.9026L147.39 28.0307L135.358 90.9032L100.182 37.42L113.116 100.117L60.1516 64.1628L96.0967 117.136L33.4131 104.194L86.8932 139.368L24.0177 151.401L86.8926 163.442L33.4131 198.616L96.0971 185.674L60.1516 238.638L113.116 202.693L100.182 265.381L135.358 211.907L147.39 274.771L159.422 211.908L194.607 265.381L181.663 202.693L234.628 238.638L198.683 185.674L261.367 198.616L207.888 163.442L270.762 151.401L207.887 139.368L261.367 104.194L198.683 117.136L234.628 64.1628L181.663 100.118L194.607 37.42L159.422 90.9026ZM197.66 30.05L183.88 96.8L240.27 58.5201L202 114.92L268.74 101.14L211.8 138.59L278.74 151.4L211.8 164.22L268.74 201.67L202 187.89L240.27 244.28L183.88 206.01L197.66 272.75L160.2 215.82L147.39 282.75L134.58 215.82L97.13 272.75L110.9 206.01L54.51 244.28L92.78 187.89L26.04 201.67L82.98 164.22L16.04 151.4L82.98 138.59L26.04 101.14L92.78 114.92L54.51 58.5201L110.9 96.8L97.13 30.05L134.58 86.9901L147.39 20.05L160.2 86.9901L197.66 30.05Z" fill="#AFA9DE"/>
<path d="M1065.45 130.91C1049.31 125.15 1035.87 113.64 1027.7 98.5801L1043.55 80.0701C1051.72 95.1301 1065.16 106.64 1081.3 112.4L1065.45 130.91Z" fill="#FDBD00"/>
<path d="M1163.53 387.96C1171.34 372.71 1184.51 360.88 1200.51 354.75L1216.8 372.88C1200.8 379.02 1187.63 390.84 1179.82 406.09L1163.53 387.96Z" fill="#AFA9DE"/>
<path d="M49.4902 366.29C57.3002 351.04 70.4702 339.21 86.4702 333.08L102.76 351.21C86.7602 357.35 73.5902 369.17 65.7802 384.42L49.4902 366.29Z" fill="#FDF9F0"/>
<path d="M395.76 71.46C381.64 81.17 364.43 85.32 347.44 83.11L341.73 59.42C358.72 61.62 375.93 57.47 390.05 47.77L395.76 71.46Z" fill="#AFA9DE"/>
<path d="M602.32 483.49L342.19 198.9L351.16 190.93C350.56 191.72 605.78 483.02 602.32 483.5V483.49Z" fill="#FDBD00"/>
<path d="M322.62 141.99L325.56 157.36L334.16 144.29L331 159.61L343.94 150.82L335.16 163.77L350.48 160.61L337.41 169.2L352.77 172.14L337.41 175.08L350.48 183.68L335.16 180.52L343.94 193.46L331 184.68L334.16 200L325.56 186.93L322.62 202.29L319.68 186.93L311.08 200L314.25 184.68L301.3 193.46L310.09 180.52L294.77 183.68L307.84 175.08L292.47 172.14L307.84 169.2L294.77 160.61L310.09 163.77L301.3 150.82L314.25 159.61L311.08 144.29L319.68 157.36L322.62 141.99Z" fill="#FDF9F0"/>
<path fill-rule="evenodd" clip-rule="evenodd" d="M460.953 195.467C452.497 187.012 449.952 174.314 454.484 163.251L456.335 164.009C452.108 174.327 454.482 186.168 462.367 194.053L462.847 194.533L461.433 195.947L460.953 195.467Z" fill="#FDBD00"/>
</g>
</g>
<defs>
<clipPath id="clip0_1528_84113">
<rect width="1335" height="464" fill="white"/>
</clipPath>
</defs>
</svg>
