<svg width="1335" height="464" viewBox="0 0 1335 464" fill="none" xmlns="http://www.w3.org/2000/svg">
<g clip-path="url(#clip0_1528_81126)">
<mask id="mask0_1528_81126" style="mask-type:luminance" maskUnits="userSpaceOnUse" x="0" y="0" width="1335" height="464">
<path d="M1335 0H0V464H1335V0Z" fill="white"/>
</mask>
<g mask="url(#mask0_1528_81126)">
<path d="M1335 0H0V464H1335V0Z" fill="#D2E5D2"/>
<path d="M396.9 461C462.2 461 515.2 408 515.2 342.7C515.2 277.4 462.2 224.4 396.9 224.4C331.6 224.4 278.6 277.4 278.6 342.7C278.6 408 331.5 461 396.9 461Z" fill="#A29A62"/>
<path d="M61.8999 184H418.1C466.4 184 491 126.1 457.6 91.3C434.2 67 394.7 69.4 374.4 96.3L339.1 143.1L322.8 131.5C296.4 112.7 260.6 114.4 236.1 135.7L222.7 147.4C208.8 159.6 189.8 164.2 171.8 159.8L143.7 152.9C118.4 146.7 91.6999 154.2 73.1999 172.6L61.8999 184Z" fill="#FBEFD0"/>
<path d="M804.7 320C787.9 320 775.1 305.1 777.5 288.5L780 271C782 257.5 793.6 247.4 807.2 247.4C824 247.4 836.8 262.3 834.4 278.9L831.9 296.4C830 310 818.4 320 804.7 320Z" fill="#7C7233"/>
<path d="M381 516.5C381 569 338.4 611.6 285.9 611.6C233.4 611.6 190.8 569 190.8 516.5C190.8 464 233.4 293.8 285.9 293.8C338.4 293.8 381 464 381 516.5Z" fill="#8E822F"/>
<path d="M228.8 398.2C228.8 437.1 197.3 468.6 158.4 468.6C119.5 468.6 88 437.1 88 398.2C88 359.3 119.5 302.3 158.4 302.3C197.3 302.3 228.8 359.4 228.8 398.2Z" fill="#7C7233"/>
<path d="M499 421.4V464H0V219.8C0 219.8 38.9 270 120.5 320.2C172.3 352.2 241.4 384.2 328.6 403.4C379.2 414.6 436 421.4 499 421.4Z" fill="#8E822F"/>
<path d="M853.8 350.4H872C930.5 350.4 949.4 413.4 897.3 434.7L827.9 463.1H626.7V350.4H853.8Z" fill="#5E9653"/>
<path d="M668.8 350.4H683.4C730.2 350.4 745.4 413.4 703.7 434.7L648 463.1H486.9V350.4H668.8Z" fill="#ABCAA6"/>
<path d="M648 463.1L868.6 350.5H1335V462.6L648 463.1Z" fill="#8E822F"/>
<path d="M1335 350.482H668.8C741.2 317.282 806.9 293.882 866.2 278.282C891 271.782 914.7 266.582 937.3 262.582C1037.5 244.882 1116.3 250.382 1176.5 265.082C1223.3 276.482 1258.8 293.382 1284.2 309.182C1319.1 330.982 1335 350.482 1335 350.482Z" fill="#A29A62"/>
<path d="M909.2 303.8C886.6 308 866.4 301.2 864.1 288.7C863.5 285.3 864.2 281.7 866.2 278.3C891 271.8 914.7 266.6 937.3 262.6C942 265.4 945 269.1 945.9 273.6C948.2 286 931.8 299.6 909.2 303.8Z" fill="#FBEFD0"/>
<path d="M998 350.4C998 350.4 988.6 234.5 1300.1 350.4H998Z" fill="#F8DEA0"/>
<path d="M366.3 396.5L410.1 361.4C457.8 323.1 525.1 322.5 573.4 359.9L634 406.8C660.6 427.4 693.2 438.6 726.7 438.6H1335V464.5H160.1C158.1 464.5 157.9 461.5 159.9 461.2L251.3 447.2C293.3 440.8 332.9 423.3 366.3 396.5Z" fill="#7C7233"/>
<path d="M998 350.4C998 350.4 997.6 428.8 1299.3 350.4H998Z" fill="#FBEFD0"/>
<path d="M1047.7 240.7H1045.7V266.2H1047.7V240.7Z" fill="white"/>
<path d="M739 350.5H736C736 333.8 743.1 317.7 755.5 306.5L764.7 298.2L766.7 300.4L757.5 308.7C745.7 319.3 739 334.6 739 350.5Z" fill="#26253A"/>
<path d="M739 301.7H736V350.4H739V301.7Z" fill="#26253A"/>
<path d="M737.3 323.3L728.5 322.2C719.9 321.1 713.5 313.8 713.5 305.2H716.5C716.5 312.3 721.8 318.4 728.9 319.2L737.7 320.3L737.3 323.3Z" fill="#26253A"/>
<path d="M789.7 303.6C801 290.5 803.3 271.8 795.6 256.4L778.6 222.2C770.8 206.6 753.2 198.4 736.3 202.7C714.4 208.2 702.4 231.8 710.8 252.8L715.5 264.5C717.3 269 714.1 273.8 709.3 273.9L703.6 274C696.6 274.1 690.3 278.1 687.4 284.4C682.2 295.4 689 308.2 700.9 310.2L750.1 318.3C764.8 320.6 779.9 315.1 789.7 303.6Z" fill="#8E822F"/>
<path d="M974.9 224V214.5V205L996.9 214.5L974.9 224Z" fill="#F26533"/>
<path d="M975.9 205H973.9V261.7H975.9V205Z" fill="#FBEFD0"/>
<path d="M980.8 264.9C982.6 264.9 984 263.4 984 261.7C984 260 982.5 258.5 980.8 258.5C979 258.5 977.6 260 977.6 261.7C977.6 263.4 979 264.9 980.8 264.9Z" fill="#313030"/>
<path d="M328.6 403.4C304.3 422.4 259.4 435.2 208.1 435.2C130.9 435.2 68.2002 406.3 68.2002 370.6C68.2002 350.2 88.6002 332.1 120.4 320.2C172.3 352.2 241.4 384.2 328.6 403.4Z" fill="#FBEFD0"/>
<path d="M1143 270.4L1262.7 393H1260.6L1270.8 377.8C1272.4 375.5 1275.5 374.8 1277.9 376.4C1280.9 378.3 1280.9 382.9 1277.9 384.9L1262.7 395.1L1261.5 395.9L1260.7 395.1L1138 275.4C1134.7 272.1 1139.5 267 1143 270.4Z" fill="white"/>
<path d="M1125.9 223.9L1155.3 278.8L1161.9 279.8C1165.3 280.3 1167.6 283.6 1166.8 287L1165.4 293H1157.7L1109.9 236.2L1125.9 223.9Z" fill="#EF8160"/>
<path d="M1084.3 224.2L1155.5 297.8V299.5C1155.5 303.1 1158.4 306.1 1162.1 306.1H1169.3L1166.4 297.5C1166.1 296.7 1167.2 296 1167.8 296.6L1171.3 300.1C1172.1 300.9 1173.4 300.9 1174.2 300.1C1175 299.3 1175 298 1174.2 297.2L1162.7 285.7C1161.3 284.3 1159.4 283.5 1157.5 283.5H1155.5L1136.4 251.2C1135.4 249.5 1134 248 1132.4 246.8L1126.1 242.3L1111.6 201.6L1084.3 224.2Z" fill="#F9AF95"/>
<path d="M1097.7 195.7L1106.3 170.9L1114 161.7C1118.7 156.1 1116.9 147.6 1110.3 144.4C1103.8 141.2 1096 144.9 1094.4 151.9L1091.4 164.7L1077.1 186.6L1097.7 195.7Z" fill="#F9AF95"/>
<path d="M1111 190.2L1130.7 227L1117.7 241.9L1111 190.2Z" fill="#FF85AD"/>
<path d="M1125.9 232.6L1104.9 256.2L1094.3 245.6L1079.3 260.6L1073.4 266.5L1038.6 246.7L1073.3 181.1C1076.7 174.7 1083.3 170.8 1090.4 170.8C1094.5 170.8 1098.4 172.1 1101.6 174.4C1104.8 176.7 1107.3 179.9 1108.7 183.8L1125.9 232.6Z" fill="#F3B4CA"/>
<path d="M1077.9 383.4L1071.6 425.6L1091.4 438.7H1104.7C1106.6 438.7 1108.2 437.1 1108.2 435.2C1108.2 433.5 1106.9 432 1105.2 431.7L1099.6 430.9C1097.7 430.6 1096 429.8 1094.6 428.4L1087.9 421.7L1095.8 383.4H1077.9Z" fill="#313030"/>
<path d="M1051.4 390.3L1047.5 438.6H1066.2L1066.9 435C1067.4 432.4 1066 429.8 1063.6 428.8L1062.3 428.2L1066.8 390.3H1051.4Z" fill="#313030"/>
<path d="M1109.1 349L1095 413.4H1071.7L1079.9 342.6C1079.9 342.3 1079.9 342 1079.8 341.7C1079.6 341.3 1079.4 341 1079 340.8C1078.7 340.6 1078.4 340.6 1078.1 340.6C1077.3 340.6 1076.4 341.2 1076.3 342.2L1068.5 413.4H1043.9L1047.3 339.3L1031 285.9C1028.1 276.4 1028.9 266.2 1033.2 257.3L1038.5 246.5L1067.1 249.1C1068.4 249.2 1069.6 249.8 1070.6 250.7C1077.3 257.4 1083.1 264.9 1087.9 273.1C1092.7 281.2 1096.5 290 1099.1 299.1L1108.3 331.1C1110.2 337 1110.3 343.1 1109.1 349Z" fill="#ABCAA6"/>
<path d="M1078.9 340.9C1078.6 340.7 1078.3 340.7 1078 340.7C1077.2 340.7 1076.3 341.3 1076.2 342.3L1068.4 413.5H1049.4L1066.8 339.8L1063.1 309.4L1078.9 340.9Z" fill="#6EAD6E"/>
<path d="M1104.9 256.2L1094.3 245.6L1079.3 260.6L1081.9 233.2L1104.9 256.2Z" fill="#FF85AD"/>
<path d="M1069.7 281.9H1036.3V283.9H1069.7V281.9Z" fill="#5E9653"/>
<path d="M1077.39 227.814L1076.68 228.518L1104.52 256.544L1105.23 255.839L1077.39 227.814Z" fill="#FF85AD"/>
<path d="M1050.95 282.436L1049.16 283.326L1078.84 343.062L1080.63 342.172L1050.95 282.436Z" fill="#5E9653"/>
<path d="M1092.1 153.4C1090.9 153.4 1090 154.6 1090.3 155.7L1091 158.2C1091.2 159.1 1092 159.6 1092.9 159.6H1093.6L1093.8 155.3C1094 154.2 1093.1 153.4 1092.1 153.4Z" fill="#F9AF95"/>
<path d="M1115.4 162.3C1116.3 163.1 1116.2 164.6 1115.2 165.2L1113 166.6C1112.2 167.1 1111.3 167 1110.6 166.4L1110.1 165.9L1112.8 162.5C1113.4 161.7 1114.6 161.6 1115.4 162.3Z" fill="#F9AF95"/>
<path d="M1084.3 173.8L1086.4 166.9L1108.4 172.7L1103.9 179.3L1084.3 173.8Z" fill="white"/>
<path d="M1077.6 219.8H1076.6V210.9C1076.6 198.9 1083.2 188.2 1093.9 182.8L1099.6 179.9L1100.1 180.8L1094.4 183.7C1084.1 188.9 1077.7 199.3 1077.7 210.9V219.8H1077.6Z" fill="#FF85AD"/>
<path d="M1091.4 164.6L1103.8 168.2L1114 161.6L1114.2 161.4C1117.7 158.2 1118.7 153.1 1116.6 148.8L1112.3 140H1097.8V144.5L1095.7 146C1093.7 147.4 1092.8 149.8 1093.3 152.1L1093.8 154.4L1091.4 164.6Z" fill="#CBCBCB"/>
<path d="M1220.2 400.3L1243.4 402.7C1243.4 402.7 1236.1 389 1220.2 400.3Z" fill="#D2E5D2"/>
<path d="M1268.6 370.1L1273.5 351.7C1273.5 351.7 1284 364.1 1268.6 370.1Z" fill="#7C7233"/>
<path d="M1283.1 406.5L1309.9 394.9C1310.3 394.7 1310.7 395.3 1310.3 395.6L1298.6 406.8C1296.2 409.1 1292.7 409.9 1289.5 408.8L1283.1 406.5Z" fill="#A29A62"/>
<path d="M1231.5 385.9C1223.1 381.7 1225.8 373.8 1225.9 373.7L1226.8 374C1226.7 374.3 1224.4 381.2 1232 385L1231.5 385.9Z" fill="#7C7233"/>
<path d="M1321.4 397C1316.1 391.7 1308.7 388.6 1301.2 388.6H1300.9V387.6H1301.2C1309 387.6 1316.6 390.8 1322.1 396.3L1321.4 397Z" fill="#7C7233"/>
<path d="M1186.4 152.8C1190.1 152.8 1193.2 149.8 1193.2 146C1193.2 142.3 1190.2 139.2 1186.4 139.2C1182.6 139.2 1179.6 142.2 1179.6 146C1179.6 149.7 1182.6 152.8 1186.4 152.8Z" fill="white"/>
<path d="M1020.9 438.6H1255.9C1256.9 438.6 1257 437.1 1256 437L1184.7 425.6C1172.5 423.6 1160.1 424.8 1148.5 429.1L1084.6 452.4C1074.2 456.2 1062.7 456.1 1052.3 452.2L1020.5 440.2C1019.8 439.8 1020 438.6 1020.9 438.6Z" fill="#A29A62"/>
<path d="M800.1 227.4C801.1 223.3 805.3 220.8 809.4 221.8L828.5 226.6L830.3 227.1L830.8 228L869.6 295.9C871.3 299.1 866.6 301.7 864.9 298.6L828.8 235.4C827.8 233.6 825.7 232.7 823.7 233.2C818.1 234.6 809.4 236.8 809.4 236.8C804 238.2 798.6 232.9 800.1 227.4Z" fill="#313030"/>
<path d="M858.1 217.6C854 216.6 849.8 219.1 848.8 223.2L844.1 242.3L843.6 244.2L844.2 245.1L886.3 311C888.3 314 892.8 311.1 890.9 308.1L851.8 246.8C850.7 245.1 850.9 242.8 852.2 241.3C856.1 237 862 230.3 862 230.3C865.8 226 863.6 218.8 858.1 217.6Z" fill="#313030"/>
<path d="M824.8 205H850.7C852.6 205 854.3 206.3 854.6 208.1C855 210.4 853.2 212.5 850.9 212.5C847.5 212.5 845.4 216.1 846.9 219L886.6 294.5L883.3 296.2L840.5 214.8C839.7 213.3 838.2 212.4 836.6 212.4H825C823.1 212.4 821.4 211.1 821.1 209.3C820.7 207 822.5 205 824.8 205Z" fill="#313030"/>
<path d="M954.3 408.5C968.9 400.1 973.9 381.4 965.4 366.8L912.4 275.3L894 243.6L841.2 274.2L912.5 397.4C921.1 411.9 939.7 416.9 954.3 408.5Z" fill="#ABCAA6"/>
<path d="M940.8 302.2L912.5 275.4L930.1 324.2L938.8 319.1C945 315.6 946 307.1 940.8 302.2Z" fill="#6EAD6E"/>
<path d="M919.1 379.4L948.8 362.2C950.2 361.4 950.6 359.7 949.8 358.3L937.2 336.6C936.4 335.2 934.7 334.8 933.3 335.6L903.6 352.8C902.2 353.6 901.8 355.3 902.6 356.7L915.2 378.4C916 379.7 917.8 380.2 919.1 379.4Z" fill="#6EAD6E"/>
<path d="M879.8 452.7C889 452.7 896.5 445.2 896.5 436.1C896.5 426.9 889 419.5 879.8 419.5C870.6 419.5 863.2 427 863.2 436.1C863.1 445.3 870.6 452.7 879.8 452.7Z" fill="#313030"/>
<path d="M879.8 441.3C882.7 441.3 885 439 885 436.1C885 433.2 882.7 430.9 879.8 430.9C876.9 430.9 874.6 433.2 874.6 436.1C874.5 439 876.9 441.3 879.8 441.3Z" fill="#989797"/>
<path d="M940.7 452.7C946.7 452.7 951.7 447.8 951.7 441.8C951.7 435.8 946.8 430.8 940.7 430.8C934.7 430.8 929.8 435.7 929.8 441.8C929.8 447.8 934.7 452.7 940.7 452.7Z" fill="#313030"/>
<path d="M940.7 445.2C942.6 445.2 944.2 443.7 944.2 441.8C944.2 439.9 942.7 438.3 940.7 438.3C938.8 438.3 937.3 439.8 937.3 441.8C937.3 443.8 938.8 445.2 940.7 445.2Z" fill="#989797"/>
<path d="M850.3 194.5L875.3 219.5C879.4 223.6 881.7 229.1 881.7 234.9L882.1 325.8C882.1 338.5 885.8 351 892.6 361.8L942.4 440.8L939.2 442.8L888.8 362.9C886.7 359.6 881.7 361.1 881.7 365V436.1H878V234.9C878 230.1 876.1 225.5 872.7 222.1L847.7 197.2L850.3 194.5Z" fill="#313030"/>
<path d="M840.1 192.3L862.3 214.5L867.6 209.2L845.4 187L840.1 192.3Z" fill="#5E9653"/>
<path d="M666.4 233.6H515.1L563 208.2C568.6 205.2 575.3 209.3 575.3 215.6C575.3 220.5 581.1 223.1 584.8 219.8L598.1 207.7C608.4 198.3 625 205.7 625 219.6C625 223.5 629.2 226 632.6 224L659.8 208.7C668.6 203.7 679.6 210.1 679.6 220.3C679.6 227.7 673.7 233.6 666.4 233.6Z" fill="#FEF8EC"/>
<path d="M1038.66 245.691L1038.49 247.684L1072.56 250.622L1072.73 248.629L1038.66 245.691Z" fill="#313030"/>
</g>
</g>
<defs>
<clipPath id="clip0_1528_81126">
<rect width="1335" height="464" fill="white"/>
</clipPath>
</defs>
</svg>
