<svg width="1335" height="464" viewBox="0 0 1335 464" fill="none" xmlns="http://www.w3.org/2000/svg">
<g clip-path="url(#clip0_1528_86265)">
<rect width="1335" height="464" fill="#D9EFF2"/>
<mask id="mask0_1528_86265" style="mask-type:luminance" maskUnits="userSpaceOnUse" x="0" y="0" width="1335" height="464">
<path d="M0 0V464H1335V0" fill="white"/>
</mask>
<g mask="url(#mask0_1528_86265)">
<path d="M0 0V464H1335V0" fill="#D9EFF2"/>
<path d="M1335 438.37H0V464H1335V438.37Z" fill="#46A6F6"/>
<path d="M1300.35 423.53H584.02C580.049 423.53 576.83 426.749 576.83 430.72C576.83 434.691 580.049 437.91 584.02 437.91H1300.35C1304.32 437.91 1307.54 434.691 1307.54 430.72C1307.54 426.749 1304.32 423.53 1300.35 423.53Z" fill="#3C1C0F"/>
<path d="M897.84 333.33L872.74 308.23L942.19 210.88L1011.64 308.23L986.54 333.33C962.05 357.82 922.34 357.82 897.85 333.33H897.84Z" fill="#F74F2D"/>
<path d="M885.65 154.4H998.72V216.56C998.72 247.76 973.39 273.09 942.19 273.09C910.99 273.09 885.66 247.76 885.66 216.56V154.4H885.65Z" fill="#FF5F2F"/>
<path d="M932.78 291.94V415.43C932.78 419.91 929.15 423.53 924.68 423.53H893.28C889.23 423.53 887.43 418.44 890.59 415.9L907.74 402.08L877.51 354.13L852.38 314.27C834.38 284.36 857.19 248.55 889.07 248.55C892.98 248.55 897.03 249.09 901.15 250.24C919.85 255.47 932.78 272.52 932.78 291.94Z" fill="#FFC497"/>
<path d="M1032.23 314.27L1007.1 354.13L976.87 402.08L994.02 415.9C997.18 418.44 995.38 423.53 991.33 423.53H959.93C955.46 423.53 951.83 419.91 951.83 415.43V291.94C951.83 272.52 964.76 255.47 983.46 250.24C987.58 249.09 991.63 248.55 995.54 248.55C1027.42 248.55 1050.23 284.36 1032.23 314.27Z" fill="#FFC497"/>
<path d="M1303.6 347.81H580.78V360.43H1303.6V347.81Z" fill="#3C1C0F"/>
<path d="M1125.62 354.58V367.14H1097.57V355.74C1097.57 351.37 1094.02 347.82 1089.65 347.82C1087.75 347.82 1086.21 346.28 1086.21 344.38C1086.21 342.48 1087.75 340.94 1089.65 340.94C1093.94 340.94 1096.32 335.96 1093.61 332.63L998.9 213.58L989.57 154.42H1004.06C1026.25 154.42 1046.35 167.54 1055.28 187.85L1122.9 341.64C1124.69 345.72 1125.62 350.13 1125.62 354.59V354.58Z" fill="#FFC497"/>
<path d="M894.81 154.41L885.66 216.57L809.26 310.01L791.74 331.43L790.76 332.63C789.97 333.61 789.61 334.72 789.61 335.81C789.61 338.45 791.69 340.94 794.72 340.94C795.67 340.94 796.53 341.32 797.15 341.95C797.77 342.57 798.16 343.43 798.16 344.38C798.16 345.33 797.77 346.19 797.15 346.81C796.53 347.44 795.67 347.82 794.72 347.82C790.35 347.82 786.81 351.37 786.81 355.74V367.14H758.75V354.58C758.75 350.12 759.68 345.71 761.48 341.63L765.96 331.43L775.38 310.01L829.1 187.84C838.03 167.53 858.12 154.41 880.32 154.41H894.81Z" fill="#FFC497"/>
<path d="M673.64 303.22H646.19C641.772 303.22 638.19 306.802 638.19 311.22V397.03C638.19 401.448 641.772 405.03 646.19 405.03H673.64C678.058 405.03 681.64 401.448 681.64 397.03V311.22C681.64 306.802 678.058 303.22 673.64 303.22Z" fill="#77A2B8"/>
<path d="M638.19 336.95V371.31C638.19 375.72 634.61 379.31 630.19 379.31H624.46C620.04 379.31 616.46 375.72 616.46 371.31V336.95C616.46 332.53 620.04 328.95 624.46 328.95H630.19C634.61 328.95 638.19 332.53 638.19 336.95Z" fill="#B2D9EB"/>
<path d="M1238.19 303.22H1210.74C1206.32 303.22 1202.74 306.802 1202.74 311.22V397.03C1202.74 401.448 1206.32 405.03 1210.74 405.03H1238.19C1242.61 405.03 1246.19 401.448 1246.19 397.03V311.22C1246.19 306.802 1242.61 303.22 1238.19 303.22Z" fill="#77A2B8"/>
<path d="M1259.92 328.95H1254.19C1249.77 328.95 1246.19 332.532 1246.19 336.95V371.31C1246.19 375.728 1249.77 379.31 1254.19 379.31H1259.92C1264.34 379.31 1267.92 375.728 1267.92 371.31V336.95C1267.92 332.532 1264.34 328.95 1259.92 328.95Z" fill="#B2D9EB"/>
<path d="M638.19 370.81V371.31C638.19 375.72 634.61 379.31 630.19 379.31H624.46C620.04 379.31 616.46 375.72 616.46 371.31V370.81C616.46 366.39 620.04 362.81 624.46 362.81H630.19C634.61 362.81 638.19 366.39 638.19 370.81Z" fill="#77A2B8"/>
<path d="M1259.92 362.81H1254.19C1249.77 362.81 1246.19 366.392 1246.19 370.81V371.31C1246.19 375.728 1249.77 379.31 1254.19 379.31H1259.92C1264.34 379.31 1267.92 375.728 1267.92 371.31V370.81C1267.92 366.392 1264.34 362.81 1259.92 362.81Z" fill="#77A2B8"/>
<path d="M673.64 348.23H646.19C641.772 348.23 638.19 351.812 638.19 356.23V397.03C638.19 401.448 641.772 405.03 646.19 405.03H673.64C678.058 405.03 681.64 401.448 681.64 397.03V356.23C681.64 351.812 678.058 348.23 673.64 348.23Z" fill="#3C1C0F"/>
<path d="M1238.19 348.23H1210.74C1206.32 348.23 1202.74 351.812 1202.74 356.23V397.03C1202.74 401.448 1206.32 405.03 1210.74 405.03H1238.19C1242.61 405.03 1246.19 401.448 1246.19 397.03V356.23C1246.19 351.812 1242.61 348.23 1238.19 348.23Z" fill="#3C1C0F"/>
<path d="M1224.46 292.72V415.53C1224.46 419.95 1220.88 423.53 1216.46 423.53H1189.01C1184.59 423.53 1181.01 419.95 1181.01 415.53V292.72C1181.01 288.31 1184.59 284.72 1189.01 284.72H1216.46C1220.88 284.72 1224.46 288.31 1224.46 292.72Z" fill="#1C7A80"/>
<path d="M703.37 292.72V415.53C703.37 419.95 699.78 423.53 695.37 423.53H667.91C663.5 423.53 659.91 419.95 659.91 415.53V292.72C659.91 288.31 663.5 284.72 667.91 284.72H695.37C699.78 284.72 703.37 288.31 703.37 292.72Z" fill="#1C7A80"/>
<path d="M703.37 376.5V415.53C703.37 419.95 699.78 423.53 695.37 423.53H667.91C663.5 423.53 659.91 419.95 659.91 415.53V376.5C659.91 372.09 663.5 368.5 667.91 368.5H695.37C699.78 368.5 703.37 372.09 703.37 376.5Z" fill="#310E09"/>
<path d="M1224.46 376.5V415.53C1224.46 419.95 1220.88 423.53 1216.46 423.53H1189.01C1184.59 423.53 1181.01 419.95 1181.01 415.53V376.5C1181.01 372.09 1184.59 368.5 1189.01 368.5H1216.46C1220.88 368.5 1224.46 372.09 1224.46 376.5Z" fill="#310E09"/>
<path d="M942.08 85.8601C947.653 85.8601 952.17 81.3426 952.17 75.7701C952.17 70.1975 947.653 65.6801 942.08 65.6801C936.507 65.6801 931.99 70.1975 931.99 75.7701C931.99 81.3426 936.507 85.8601 942.08 85.8601Z" fill="#1C1B1A"/>
<path d="M944.17 50.47H939.99H922.71L937.24 68.3H939.99H944.17H946.91L961.45 50.47H944.17Z" fill="#1C1B1A"/>
<path d="M985.68 154.41V171.62C985.68 183.63 980.81 194.5 972.94 202.37C965.07 210.24 954.2 215.11 942.19 215.11C918.17 215.11 898.7 195.64 898.7 171.62V154.41H919.8C922.24 154.41 924.44 152.93 925.36 150.67L928.14 143.85L931.58 135.42H952.79L956.02 143.32L959.02 150.67C959.94 152.93 962.14 154.41 964.58 154.41H985.68Z" fill="#FFC497"/>
<path d="M956.02 143.32L942.19 150.39L928.14 143.85L931.58 135.42H952.79L956.02 143.32Z" fill="#FFAF7A"/>
<path d="M966.88 118.45C966.88 132.09 955.82 143.15 942.18 143.15C928.54 143.15 917.48 132.09 917.48 118.45C917.48 104.81 928.54 90.1801 942.18 90.1801C955.82 90.1801 966.88 104.81 966.88 118.45Z" fill="#FFC497"/>
<path d="M917.34 124.89C916.41 125.22 915.39 124.72 915.09 123.78L913.54 118.9C913.18 117.75 913.78 116.53 914.91 116.11C916.28 115.61 917.75 116.52 917.91 117.97L918.48 123.06C918.57 123.86 918.1 124.62 917.34 124.89Z" fill="#FFAF7A"/>
<path d="M967.03 124.89C967.96 125.22 968.98 124.72 969.28 123.78L970.83 118.9C971.19 117.75 970.59 116.53 969.46 116.11C968.09 115.61 966.62 116.52 966.46 117.97L965.89 123.06C965.8 123.86 966.27 124.62 967.03 124.89Z" fill="#FFAF7A"/>
<path d="M937.76 85.86H946.61" stroke="#FF2C3B" stroke-width="4" stroke-miterlimit="10" stroke-linecap="round"/>
<path d="M946.58 122.65L946.37 121.67L945.8 121.79C944.9 121.99 943.99 121.76 943.18 121.32C942.9 121.17 942.59 121.09 942.25 121.09C941.61 121.09 941.05 121.39 940.69 121.86C940.13 122.59 939.4 123.17 938.5 123.37L937.93 123.49L938.14 124.47L938.71 124.35C939.61 124.15 940.52 124.38 941.33 124.82C941.61 124.97 941.92 125.05 942.26 125.05C942.9 125.05 943.46 124.75 943.82 124.28C944.38 123.55 945.11 122.97 946.01 122.77L946.58 122.65Z" fill="#1C1B1A"/>
<path d="M945.09 118.53H939.28C939.28 118.53 940.58 114.37 942.18 114.37C943.78 114.37 945.08 118.53 945.08 118.53H945.09Z" fill="#FFAF7A"/>
<path d="M818.47 298.43L827.45 279.31C839.87 252.86 860.21 230.93 885.66 216.56L818.48 298.43H818.47Z" fill="#FFAF7A"/>
<path d="M910.54 154.4H942.18" stroke="#FFAF7A" stroke-width="2" stroke-miterlimit="10"/>
<path d="M917.49 116.45L931.15 110.1C937.92 106.95 942.26 100.16 942.26 92.69C942.26 92.69 942.14 115.98 964.15 115.98L957.29 109.12L966.89 116.91V110.57C966.89 96.93 955.83 85.87 942.19 85.87C928.55 85.87 917.49 96.93 917.49 110.57V116.46V116.45Z" fill="#1C1B1A"/>
<path d="M963.63 291.21L951.83 347.2V319.81C952.35 317.93 952.98 316.08 953.72 314.26L963.17 291.07C963.28 290.8 963.69 290.92 963.63 291.21Z" fill="#FF925A"/>
<path d="M932.78 320.98V347.8L932.71 348.23L920.75 291.49C920.69 291.2 921.1 291.07 921.21 291.35L930.65 314.54C931.51 316.65 932.22 318.8 932.78 320.98Z" fill="#FF925A"/>
<path d="M809.26 310.01L791.74 331.43H765.96L775.38 310.01H809.26Z" fill="#4A974A"/>
<path d="M932.77 395.98V423.53H881.77C880.83 423.53 879.92 423.2 879.19 422.59C878.14 421.71 877.69 420.46 877.78 419.25C877.86 417.91 878.62 416.61 879.98 415.93L907.73 402.08L903.89 395.98H932.77Z" fill="#4A974A"/>
<path d="M932.77 419.25V423.53H881.77C880.83 423.53 879.92 423.2 879.19 422.59C878.14 421.71 877.69 420.46 877.78 419.25H932.77Z" fill="white"/>
<path d="M951.8 395.98V423.53H1002.8C1003.74 423.53 1004.65 423.2 1005.38 422.59C1006.43 421.71 1006.88 420.46 1006.79 419.25C1006.71 417.91 1005.95 416.61 1004.59 415.93L976.84 402.08L980.68 395.98H951.8Z" fill="#4A974A"/>
<path d="M951.8 419.25V423.53H1002.8C1003.74 423.53 1004.65 423.2 1005.38 422.59C1006.43 421.71 1006.88 420.46 1006.79 419.25H951.8Z" fill="white"/>
</g>
</g>
<defs>
<clipPath id="clip0_1528_86265">
<rect width="1335" height="464" fill="white"/>
</clipPath>
</defs>
</svg>
