<svg width="1335" height="464" viewBox="0 0 1335 464" fill="none" xmlns="http://www.w3.org/2000/svg">
<g clip-path="url(#clip0_1528_83946)">
<rect width="1335" height="464" fill="#0D386C"/>
<mask id="mask0_1528_83946" style="mask-type:luminance" maskUnits="userSpaceOnUse" x="0" y="0" width="1335" height="464">
<path d="M1335 0H0V464H1335V0Z" fill="white"/>
</mask>
<g mask="url(#mask0_1528_83946)">
<mask id="mask1_1528_83946" style="mask-type:luminance" maskUnits="userSpaceOnUse" x="0" y="0" width="1335" height="464">
<path d="M1335 0H0V464H1335V0Z" fill="white"/>
</mask>
<g mask="url(#mask1_1528_83946)">
<path d="M1335 0H0V464H1335V0Z" fill="#0D386C"/>
<path d="M1164.3 423.2H751.8V504.7H1164.3V423.2Z" fill="#0D386C"/>
<path d="M1164.3 506.3H751.8C751 506.3 750.3 505.6 750.3 504.8V423.3C750.3 422.5 751 421.8 751.8 421.8H1164.3C1165.1 421.8 1165.8 422.5 1165.8 423.3V504.8C1165.8 505.6 1165.1 506.3 1164.3 506.3ZM753.3 503.3H1162.8V424.8H753.3V503.3Z" fill="#1A6BCD"/>
<path d="M1140.9 382H775.1V423.3H1140.9V382Z" fill="#0D386C"/>
<path d="M1140.9 424.7H775.1C774.3 424.7 773.6 424 773.6 423.2V382C773.6 381.2 774.3 380.5 775.1 380.5H1140.9C1141.7 380.5 1142.4 381.2 1142.4 382V423.3C1142.4 424.1 1141.7 424.7 1140.9 424.7ZM776.6 421.7H1139.4V383.4H776.6V421.7Z" fill="#1A6BCD"/>
<path d="M1058.1 58.2H857.9V382H1058.1V58.2Z" fill="#0D386C"/>
<path d="M1058.1 383.5H857.9C857.1 383.5 856.4 382.8 856.4 382V58.2C856.4 57.4 857.1 56.7 857.9 56.7H1058.1C1058.9 56.7 1059.6 57.4 1059.6 58.2V382C1059.6 382.8 1058.9 383.5 1058.1 383.5ZM859.4 380.5H1056.6V59.7H859.4V380.5Z" fill="#1A6BCD"/>
<path d="M941.8 84.9H893.1V258.4H941.8V84.9Z" fill="#0D386C"/>
<path d="M941.8 259.9H893.1C892.3 259.9 891.6 259.2 891.6 258.4V84.9C891.6 84.1 892.3 83.4 893.1 83.4H941.8C942.6 83.4 943.3 84.1 943.3 84.9V258.4C943.3 259.2 942.6 259.9 941.8 259.9ZM894.6 256.9H940.3V86.4H894.6V256.9Z" fill="#1A6BCD"/>
<path d="M1023 84.9H974.3V258.4H1023V84.9Z" fill="#0D386C"/>
<path d="M1023 259.9H974.3C973.5 259.9 972.8 259.2 972.8 258.4V84.9C972.8 84.1 973.5 83.4 974.3 83.4H1023C1023.8 83.4 1024.5 84.1 1024.5 84.9V258.4C1024.5 259.2 1023.8 259.9 1023 259.9ZM975.8 256.9H1021.5V86.4H975.8V256.9Z" fill="#1A6BCD"/>
<path d="M1023 296.4C1029.3 296.4 1034.4 291.3 1034.4 285C1034.4 278.7 1029.3 273.6 1023 273.6C1016.7 273.6 1011.6 278.7 1011.6 285C1011.6 291.3 1016.7 296.4 1023 296.4Z" fill="#362C62"/>
<path d="M1023 297.9C1015.9 297.9 1010.1 292.1 1010.1 285C1010.1 277.9 1015.9 272.1 1023 272.1C1030.1 272.1 1035.9 277.9 1035.9 285C1035.8 292.2 1030.1 297.9 1023 297.9ZM1023 275.2C1017.6 275.2 1013.1 279.6 1013.1 285.1C1013.1 290.6 1017.5 295 1023 295C1028.5 295 1032.9 290.6 1032.9 285.1C1032.9 279.6 1028.4 275.2 1023 275.2Z" fill="#1A6BCD"/>
<path d="M459.8 423.2H110.7V504.7H459.9V423.2H459.8Z" fill="#0D386C"/>
<path d="M459.8 506.3H110.7C109.9 506.3 109.2 505.6 109.2 504.8V423.3C109.2 422.5 109.9 421.8 110.7 421.8H459.9C460.7 421.8 461.4 422.5 461.4 423.3V504.8C461.3 505.6 460.7 506.3 459.8 506.3ZM112.2 503.3H458.4V424.8H112.2V503.3Z" fill="#1A6BCD"/>
<path d="M415.9 382H154.6V423.3H415.8V382H415.9Z" fill="#0D386C"/>
<path d="M415.9 424.7H154.6C153.8 424.7 153.1 424 153.1 423.2V382C153.1 381.2 153.8 380.5 154.6 380.5H415.8C416.6 380.5 417.3 381.2 417.3 382V423.3C417.4 424.1 416.7 424.7 415.9 424.7ZM156.1 421.7H414.3V383.4H156.1V421.7Z" fill="#1A6BCD"/>
<path d="M385.3 58.2H185.1V382H385.3V58.2Z" fill="#0D386C"/>
<path d="M385.3 383.5H185.1C184.3 383.5 183.6 382.8 183.6 382V58.2C183.6 57.4 184.3 56.7 185.1 56.7H385.3C386.1 56.7 386.8 57.4 386.8 58.2V382C386.8 382.8 386.2 383.5 385.3 383.5ZM186.6 380.5H383.8V59.7H186.6V380.5Z" fill="#1A6BCD"/>
<path d="M285.2 86.9C312.8 86.9 335.2 109.3 335.2 136.8V142H235.3V136.8C235.3 109.3 257.7 86.9 285.2 86.9Z" fill="#0D386C"/>
<path d="M335.2 143.5H235.3C234.5 143.5 233.8 142.8 233.8 142V136.8C233.8 108.4 256.9 85.4 285.2 85.4C313.6 85.4 336.6 108.5 336.6 136.8V142C336.7 142.8 336 143.5 335.2 143.5ZM236.8 140.5H333.7V136.8C333.7 110.1 312 88.4 285.3 88.4C258.6 88.4 236.9 110.1 236.9 136.8V140.5H236.8Z" fill="#1A6BCD"/>
<path d="M335.2 150.7H235.3V164.8H335.2V150.7Z" fill="#0D386C"/>
<path d="M335.2 166.3H235.3C234.5 166.3 233.8 165.6 233.8 164.8V150.7C233.8 149.9 234.5 149.2 235.3 149.2H335.2C336 149.2 336.7 149.9 336.7 150.7V164.8C336.7 165.6 336 166.3 335.2 166.3ZM236.8 163.3H333.7V152.2H236.8V163.3Z" fill="#1A6BCD"/>
<path d="M317.3 259.6H253.3V273.7H317.3V259.6Z" fill="#0D386C"/>
<path d="M317.3 275.2H253.3C252.5 275.2 251.8 274.5 251.8 273.7V259.6C251.8 258.8 252.5 258.1 253.3 258.1H317.3C318.1 258.1 318.8 258.8 318.8 259.6V273.7C318.8 274.5 318.1 275.2 317.3 275.2ZM254.7 272.2H315.7V261.1H254.7V272.2Z" fill="#1A6BCD"/>
<path d="M350.2 259.6C356.5 259.6 361.6 254.5 361.6 248.2C361.6 241.9 356.5 236.8 350.2 236.8C343.9 236.8 338.8 241.9 338.8 248.2C338.8 254.5 343.9 259.6 350.2 259.6Z" fill="#362C62"/>
<path d="M350.2 261.1C343.1 261.1 337.3 255.3 337.3 248.2C337.3 241.1 343.1 235.3 350.2 235.3C357.3 235.3 363.1 241.1 363.1 248.2C363.1 255.3 357.3 261.1 350.2 261.1ZM350.2 238.3C344.8 238.3 340.3 242.7 340.3 248.2C340.3 253.7 344.7 258.1 350.2 258.1C355.7 258.1 360.1 253.7 360.1 248.2C360.1 242.7 355.6 238.3 350.2 238.3Z" fill="#1A6BCD"/>
<path d="M1153.9 416.8L1155.6 441.4C1155.8 444.8 1153.8 447.9 1150.6 449.1L1134.1 455.1C1129 457 1130.3 464.5 1135.8 464.5H1179.8L1175.7 416.8H1153.9Z" fill="#121831"/>
<path d="M1199.3 416.5L1217.9 432.7C1220.5 434.9 1221.2 438.6 1219.8 441.7L1212.3 457.6C1210 462.5 1216.3 466.9 1220.1 463.1L1251.3 432L1214.6 401.2L1199.3 416.5Z" fill="#121831"/>
<path d="M1129.4 353.6L1137.3 433.3L1260.1 421.1L1227.2 343.9L1129.4 353.6Z" fill="#82882E"/>
<path d="M1299.5 395.5C1292.2 394.5 1285.5 395.3 1279.5 397.2C1270.2 400 1262.7 405.2 1258.2 408.9C1257.5 409.5 1256.7 409.9 1255.9 410.2C1253.5 411 1250.8 410.6 1248.8 408.9C1216.6 381.5 1184.2 400.6 1172.5 409.4C1169.8 411.4 1166.1 411.4 1163.4 409.3C1161.1 407.4 1158.6 405.8 1156.2 404.5C1137.5 394.2 1115.3 397.3 1098.6 402.5C1096.1 403.3 1093.8 404.1 1091.6 404.9C1086.4 406.8 1081 402.6 1081.6 397.1L1108.6 141.5C1114.9 87.8 1187.9 78.6 1207.7 128.3L1307.8 385.5C1309.7 390.8 1305.2 396.3 1299.5 395.5Z" fill="#FFFBF2"/>
<path d="M1145.9 174.6C1146.5 180.9 1141.9 186.5 1135.6 187.2C1129.3 187.8 1123.7 183.2 1123 176.9C1122.3 170.6 1126.7 161.8 1133 161.2C1139.4 160.5 1145.3 168.3 1145.9 174.6Z" fill="#121831"/>
<path d="M1187.2 170.5C1187.8 176.8 1183.2 182.4 1176.9 183.1C1170.6 183.7 1165 179.1 1164.3 172.8C1163.7 166.5 1168 157.7 1174.3 157.1C1180.6 156.4 1186.6 164.2 1187.2 170.5Z" fill="#121831"/>
<path d="M1156.1 404.4C1137.4 394.1 1115.2 397.2 1098.5 402.4L1124.1 276.7C1124.3 276 1125.3 276.1 1125.3 276.8C1123.4 303.5 1122.3 372.3 1156.1 404.4Z" fill="#D9D9D9"/>
<path d="M1279.4 397.1C1270.1 399.9 1262.6 405.1 1258.1 408.8C1257.4 409.4 1256.6 409.8 1255.8 410.1L1208 288.7C1207.7 287.9 1208.8 287.3 1209.3 288.1L1279.4 397.1Z" fill="#D9D9D9"/>
<path d="M815.5 284.2L796 330.8L815.2 338.7L837.6 288.6L815.5 284.2Z" fill="#FDF9F0"/>
<path d="M945.7 237.9L979.2 275.7L963.6 289.4L926.2 249.2L945.7 237.9Z" fill="#FDF9F0"/>
<path d="M853.4 362.5V378.6L846.4 380.5C845.6 380.7 845.7 382 846.6 382H861.9V362.5H853.4Z" fill="#121831"/>
<path d="M903.3 362.5V378.6L910.3 380.5C911.1 380.7 911 382 910.1 382H894.8V362.5H903.3Z" fill="#121831"/>
<path d="M833.4 166.1L845.8 136.2L820 111.4L826.6 95.6L882.6 158.2L833.4 166.1Z" fill="#46A646"/>
<path fill-rule="evenodd" clip-rule="evenodd" d="M839.1 220.8H917.1L918.9 344.8C919.1 356.1 910 365.4 898.7 365.6C889 365.7 880.9 359.2 878.6 350.2C876.5 359.4 868.3 366.2 858.4 366.2C847.1 366.1 838 356.8 838.1 345.5L839.1 220.8Z" fill="#121831"/>
<path d="M805.9 327L792.4 342.1L793.3 342.6L797.2 339.3L792.4 346.2L793.4 347.1L799 340.8L792.9 349.4L793.9 350.3L800.3 343.3L796.3 349L797.5 349.7L803.8 343.4L804.4 347.3L806.5 346.9L807.1 342.2C807.5 339.5 808.4 336.8 809.8 334.4L812.6 329.7L805.9 327Z" fill="#A34B08"/>
<path d="M968.7 275.3L986.3 285.2L985.6 286L980.8 284.1L987.6 289.1L986.9 290.3L979.6 286.1L988.1 292.3L987.5 293.4L979.2 288.9L984.8 293L983.9 294L975.9 290.1L976.5 294L974.4 294.4L972.3 290.2C971.1 287.7 969.3 285.5 967.2 283.7L963 280.1L968.7 275.3Z" fill="#A34B08"/>
<path d="M912.6 146.1C901 144.9 890.5 149.5 882.6 158.2C874.4 153 865.3 150.7 856.2 152.2C847.2 153.7 839.4 158.7 833.4 166.1C823.2 160.7 811.9 159.8 801.5 164.6C778.2 175.4 767.8 210.7 778.3 243.5L791.3 283.9C801.8 316.7 829.2 334.4 852.5 323.6C856.6 321.7 860.4 319 863.6 315.6C870.1 318.4 877 319.5 883.8 318.3C890.8 317.1 897.1 313.8 902.4 308.9C906.7 311.1 911.2 312.5 915.9 313C941.4 315.7 961.6 290 960.9 255.6L960.1 213.2C959.4 178.9 938.1 148.8 912.6 146.1Z" fill="#F25B2F"/>
<path d="M916 236.3C920.1 261 903.4 284.3 878.8 288.5C854.2 292.7 830.8 275.9 826.6 251.3L916 236.3Z" fill="#121831"/>
<path d="M821.8 238.4C830.7 238.4 837.9 231.2 837.9 222.3C837.9 213.4 830.7 206.2 821.8 206.2C812.9 206.2 805.7 213.4 805.7 222.3C805.7 231.2 812.9 238.4 821.8 238.4Z" fill="#121831"/>
<path d="M823.8 242.3C828.3 242.3 831.9 238.7 831.9 234.2C831.9 229.7 828.3 226.1 823.8 226.1C819.3 226.1 815.7 229.7 815.7 234.2C815.7 238.6 819.3 242.3 823.8 242.3Z" fill="#F25B2F"/>
<path d="M911.2 223.5C920.1 223.5 927.3 216.3 927.3 207.4C927.3 198.5 920.1 191.3 911.2 191.3C902.3 191.3 895.1 198.5 895.1 207.4C895.1 216.3 902.3 223.5 911.2 223.5Z" fill="#121831"/>
<path d="M913.2 227.4C917.7 227.4 921.3 223.8 921.3 219.3C921.3 214.8 917.7 211.2 913.2 211.2C908.7 211.2 905.1 214.8 905.1 219.3C905.1 223.7 908.7 227.4 913.2 227.4Z" fill="#F25B2F"/>
<path d="M855.3 229L840.5 231.5L845.3 260.1L860.1 257.6L855.3 229Z" fill="#F25B2F"/>
<path d="M833.4 198.8C832.8 198.8 832.4 198.4 832.4 197.8V166.1C832.4 165.5 832.8 165.1 833.4 165.1C834 165.1 834.4 165.5 834.4 166.1V197.8C834.4 198.4 834 198.8 833.4 198.8Z" fill="#96290C"/>
<path d="M895.1 173.8C894.8 173.8 894.5 173.7 894.3 173.5L866.9 142.2C866.5 141.8 866.6 141.2 867 140.8C867.4 140.4 868 140.5 868.4 140.9L895.8 172.2C896.2 172.6 896.1 173.2 895.7 173.6C895.5 173.7 895.3 173.8 895.1 173.8Z" fill="#96290C"/>
<path d="M863.7 316.7C863.4 316.7 863.2 316.6 863 316.4L860.9 314.3C855.3 308.7 852.3 301.4 852.3 293.5C852.3 292.9 852.7 292.5 853.3 292.5C853.9 292.5 854.3 292.9 854.3 293.5C854.3 300.8 857.2 307.7 862.3 312.9L864.4 315C864.8 315.4 864.8 316 864.4 316.4C864.2 316.6 863.9 316.7 863.7 316.7Z" fill="#96290C"/>
<path d="M1058.1 188.9C1057.1 188.9 1056.3 188.1 1056.3 187.1V47.9999L953.5 97.1999C952.6 97.5999 951.6 97.1999 951.2 96.3999C950.8 95.4999 951.2 94.4999 952 94.0999L1057.4 43.6999C1057.9 43.3999 1058.6 43.4999 1059.1 43.7999C1059.6 44.0999 1059.9 44.6999 1059.9 45.2999V187.3C1059.9 188.2 1059.1 188.9 1058.1 188.9Z" fill="white"/>
<path d="M1011.6 197.9C1011.4 197.9 1011.3 197.9 1011.1 197.8C1010.2 197.5 1009.7 196.5 1009.9 195.6L1053.7 53.4L968.8 158.2C968.2 159 967.1 159.1 966.3 158.5C965.5 157.9 965.4 156.8 966 156L1056.6 44.1C1057.1 43.4 1058 43.3 1058.8 43.7C1059.5 44.1 1059.9 45 1059.6 45.8L1013.1 196.7C1013 197.4 1012.3 197.9 1011.6 197.9Z" fill="white"/>
<path d="M1058.1 86.6C1057.6 86.6 1057 86.3 1056.7 85.9C1055.5 84.2 1054.2 83.3 1052.7 83.2C1049.9 83 1047.2 86 1047.2 86C1046.7 86.5 1046 86.7 1045.3 86.5C1044.6 86.3 1044.2 85.6 1044.1 84.9C1044 82.8 1043.4 81.3 1042.1 80.4C1039.2 78.3 1033.6 79.4 1031.7 80C1031.1 80.2 1030.5 80.1 1030.1 79.7C1029.6 79.3 1029.4 78.8 1029.4 78.2C1030.2 67.4 1017.7 66.4 1017.1 66.3C1016.1 66.2 1015.4 65.4 1015.5 64.4C1015.6 63.4 1016.4 62.7 1017.4 62.8C1022.7 63.2 1032.2 66.5 1032.9 76.1C1035.8 75.6 1040.7 75.1 1044.1 77.5C1045.5 78.5 1046.5 79.8 1047 81.5C1048.5 80.5 1050.6 79.5 1052.8 79.7C1055.3 79.8 1057.6 81.2 1059.5 83.8C1060.1 84.6 1059.9 85.7 1059.1 86.2C1058.8 86.5 1058.5 86.6 1058.1 86.6Z" fill="white"/>
<path d="M1058.1 132.6C1057.4 132.6 1056.7 132.2 1056.5 131.5C1054.7 126.7 1052.2 123.9 1049.1 123.3C1043.1 122.2 1035.5 129.2 1033 132C1032.5 132.5 1031.7 132.7 1031.1 132.5C1030.4 132.2 1030 131.6 1030 130.9C1030 123.1 1027.9 117.7 1023.7 114.7C1016.4 109.5 1004.9 113.5 1004.8 113.5C1004.2 113.7 1003.5 113.6 1003 113.1C1002.5 112.7 1002.3 112 1002.5 111.4C1004.8 103 1004.2 96.2 1000.7 91.2C995.2 83.3 984.2 82.3 984.1 82.3C983.1 82.2 982.4 81.4 982.5 80.4C982.6 79.4 983.4 78.7 984.4 78.8C984.9 78.8 997.2 80 1003.6 89.2C1007.3 94.5 1008.3 101.3 1006.6 109.4C1011 108.4 1019.4 107.4 1025.7 111.9C1030 115 1032.6 120 1033.3 126.9C1037 123.6 1043.5 118.8 1049.8 119.9C1054.2 120.7 1057.6 124.2 1059.8 130.3C1060.1 131.2 1059.7 132.2 1058.8 132.5C1058.5 132.6 1058.3 132.6 1058.1 132.6Z" fill="white"/>
<path d="M1058.1 167.9C1057.4 167.9 1056.7 167.4 1056.4 166.7C1054.7 161.6 1051.9 158.6 1048.1 157.5C1037.5 154.5 1022.1 167.4 1021.9 167.5C1021.4 167.9 1020.7 168 1020.1 167.8C1019.5 167.5 1019.1 167 1019 166.3C1018.6 160.6 1016.2 156 1012.1 152.8C1000 143.4 976.2 147.7 975.9 147.7C975.3 147.8 974.7 147.6 974.3 147.2C973.9 146.8 973.7 146.2 973.8 145.6C979.4 119.4 961.7 91.9 961.5 91.6C961 90.8 961.2 89.7 962 89.2C962.8 88.7 963.9 88.9 964.4 89.7C965.1 90.8 982 117.1 977.6 143.9C984.3 143 1003 141.5 1014 150C1018.2 153.2 1020.9 157.6 1021.9 162.9C1027 159.1 1039.1 151.4 1048.8 154.1C1053.8 155.5 1057.4 159.3 1059.5 165.6C1059.8 166.5 1059.3 167.5 1058.4 167.8C1058.5 167.8 1058.3 167.9 1058.1 167.9Z" fill="white"/>
<path d="M1038.6 372.8C1035 372.6 1031.7 374.3 1029.6 376.9C1028.9 371.6 1024.4 367.4 1018.9 367.4C1013.7 367.4 1009.5 371 1008.3 375.8C1006.2 373.8 1003.3 372.6 1000.1 372.8C994.1 373.2 989.6 378.3 989.9 384.3L991.7 413C992.1 419 997.2 423.5 1003.2 423.2C1006.2 423 1008.8 421.6 1010.7 419.5C1012.7 421.7 1015.6 423.2 1018.8 423.2C1022.6 423.2 1025.9 421.3 1027.8 418.4C1029.7 421.1 1032.7 423 1036.3 423.2C1042.3 423.5 1047.4 418.8 1047.6 412.8L1048.8 384.1C1049.3 378.1 1044.7 373 1038.6 372.8Z" fill="#F25B2F"/>
<path d="M1013.4 376.5C1014.7 374.8 1014.8 372.5 1013.6 370.8L1006.1 359.9L1008.1 357.8L1020.4 369.4C1021.5 370.4 1022.4 371.6 1023.1 373L1025.5 377.7L1020.6 375L1020.4 379.1C1019.2 376.5 1015.9 375.5 1013.5 377L1012.8 377.4L1013.4 376.5Z" fill="#82882E"/>
<path d="M1030.4 417.7L1027.6 416.6L1029.2 412.4C1032.8 402.9 1033 392.3 1029.7 382.7L1028.6 379.6L1031.4 378.6L1032.5 381.7C1036 392 1035.8 403.2 1032 413.4L1030.4 417.7Z" fill="#512217"/>
<path d="M1009.6 420.4L1009.3 420C1000.3 407.3 998.6 391.1 1004.7 376.7L1007.5 377.9C1001.9 391.3 1003.5 406.4 1011.8 418.3L1012.1 418.7L1009.6 420.4Z" fill="#512217"/>
<path d="M700.608 221.8L633.108 191H635.408C667.208 191 708.808 204.8 709.208 205L708.908 205.9C708.508 205.8 669.108 192.7 637.808 192L701.008 220.9L700.608 221.8Z" fill="white"/>
<path d="M632.097 190.97L631.841 191.937L703.763 210.984L704.019 210.017L632.097 190.97Z" fill="white"/>
<path d="M553.408 221.8L553.008 220.9L616.308 192C585.008 192.6 545.608 205.7 545.208 205.9L544.908 205C545.308 204.9 586.908 191 618.708 191H621.008L553.408 221.8Z" fill="white"/>
<path d="M621.927 191.012L550.005 210.043L550.261 211.01L622.183 191.979L621.927 191.012Z" fill="white"/>
<path d="M710.108 457.7L694.808 452C681.708 447.1 672.308 435.5 670.108 421.6L649.408 287C649.208 285.6 651.308 285.1 651.708 286.5L668.908 346.5C669.908 350.1 671.308 353.7 672.908 357.1L675.808 363.1C676.408 364.3 677.808 364.8 679.008 364.2C680.008 363.7 680.508 362.4 680.108 361.3L677.408 353.5L690.608 367C691.208 367.6 692.108 367.7 692.808 367.4C693.808 366.9 694.108 365.5 693.408 364.6L683.608 351.9L699.108 365.9C699.908 366.6 701.108 366.7 701.908 366C702.908 365.2 703.108 363.7 702.208 362.8L687.308 346.3L703.208 360C704.108 360.8 705.408 360.6 706.108 359.8C706.808 359 706.708 357.8 706.008 357L689.608 340.8L700.708 348.6C701.708 349.3 703.108 349 703.708 348C704.308 347.1 704.108 345.9 703.208 345.2L685.108 331C679.908 326.9 676.408 321 675.408 314.5L665.408 248C663.308 234.3 651.508 224.1 637.708 224H637.508H620.208C606.308 224.1 594.608 234.2 592.508 248L582.408 314.6C581.408 321.1 577.908 327.1 572.708 331.1L554.608 345.3C553.708 346 553.508 347.2 554.108 348.1C554.708 349.1 556.108 349.4 557.108 348.7L568.208 340.9L551.808 357.1C551.008 357.9 551.008 359.1 551.708 359.9C552.408 360.8 553.708 360.9 554.608 360.1L570.508 346.4L555.608 362.9C554.708 363.9 554.908 365.4 555.908 366.1C556.708 366.7 557.908 366.7 558.708 366L574.208 352L564.408 364.6C563.708 365.5 564.008 366.8 565.008 367.4C565.708 367.8 566.608 367.6 567.208 367L580.408 353.5L577.708 361.3C577.308 362.4 577.808 363.6 578.808 364.2C580.008 364.8 581.408 364.3 582.008 363.1L584.908 357.1C586.508 353.7 587.908 350.2 588.908 346.5L606.108 286.5C606.508 285.1 608.608 285.6 608.408 287L587.708 421.5C585.608 435.3 576.108 447 563.008 451.9L547.708 457.6C544.208 458.9 545.108 464.1 548.908 464.1H601.108L621.708 328.4C622.908 320.2 634.708 320.2 636.008 328.4L656.608 464.1H708.808C712.708 464.2 713.608 459 710.108 457.7Z" fill="#121831"/>
<path d="M733.908 55.1L673.508 69.5C668.808 70.6 663.808 70.6 659.208 69.1C649.708 66 639.508 64.3 628.908 64.3C618.308 64.3 608.108 66 598.608 69.1C594.008 70.6 589.008 70.7 584.308 69.5L523.908 55.1C520.108 54.2 516.708 57.8 517.808 61.5L535.308 120.4C536.608 124.8 536.408 129.4 535.008 133.8C532.208 142.8 530.708 152.4 530.708 162.4C530.708 186.3 539.308 208.2 553.508 225.2C564.408 238.2 569.508 255 569.508 272V294.9H688.108V272C688.108 255.1 693.208 238.2 704.108 225.2C718.308 208.2 727.008 186.3 727.008 162.4C727.008 152.5 725.508 142.9 722.708 133.8C721.408 129.4 721.108 124.8 722.408 120.4L739.908 61.5C741.108 57.8 737.708 54.2 733.908 55.1Z" fill="#121831"/>
<path d="M701.408 132.9V156.8C701.408 169.4 693.208 180.2 681.808 184C678.908 185.1 675.808 185.6 672.608 185.6H648.608V161.7C648.608 149.1 656.808 138.3 668.208 134.5C671.108 133.4 674.208 132.9 677.408 132.9H701.408Z" fill="#FFDC6C"/>
<path d="M689.008 159.2C689.008 167.8 686.708 176.4 681.908 184C679.008 185.1 675.908 185.6 672.708 185.6H669.308C658.908 170.2 658.608 150.1 668.308 134.5C671.208 133.4 674.308 132.9 677.508 132.9H680.908C686.308 140.8 689.008 149.9 689.008 159.2Z" fill="#121831"/>
<path d="M556.408 132.9V156.8C556.408 169.4 564.608 180.2 576.008 184C578.908 185.1 582.008 185.6 585.208 185.6H609.108V161.7C609.108 149.1 600.908 138.3 589.508 134.5C586.608 133.4 583.608 132.9 580.308 132.9H556.408Z" fill="#FFDC6C"/>
<path d="M568.908 159.2C568.908 167.8 571.208 176.4 576.008 184C578.908 185.1 582.008 185.6 585.208 185.6H588.608C599.008 170.2 599.308 150.1 589.608 134.5C586.708 133.4 583.608 132.9 580.408 132.9H577.008C571.508 140.8 568.908 149.9 568.908 159.2Z" fill="#121831"/>
<path d="M556.408 132.9V156.8C556.408 169.4 564.608 180.2 576.008 184C578.908 185.1 582.008 185.6 585.208 185.6H609.108V161.7C609.108 149.1 600.908 138.3 589.508 134.5C586.608 133.4 583.608 132.9 580.308 132.9H556.408Z" fill="#FFDC6C"/>
<path d="M620.808 175.8H617.808C617.808 151.2 602.108 129.4 578.808 121.7L579.708 118.9C604.308 127 620.808 149.9 620.808 175.8Z" fill="white"/>
<path d="M640.308 175.8H637.308C637.308 149.9 653.808 127 678.308 118.8L679.208 121.6C656.008 129.4 640.308 151.2 640.308 175.8Z" fill="white"/>
<path d="M568.908 159.2C568.908 167.8 571.208 176.4 576.008 184C578.908 185.1 582.008 185.6 585.208 185.6H588.608C599.008 170.2 599.308 150.1 589.608 134.5C586.708 133.4 583.608 132.9 580.408 132.9H577.008C571.508 140.8 568.908 149.9 568.908 159.2Z" fill="#121831"/>
<path d="M614.108 216.9C608.208 216.9 602.408 214.7 597.908 210.2L600.008 208.1C607.808 215.9 620.408 215.9 628.108 208.1L630.208 210.2C625.808 214.7 620.008 216.9 614.108 216.9Z" fill="white"/>
<path d="M643.708 216.9C637.808 216.9 632.008 214.7 627.508 210.2L629.608 208.1C637.408 215.9 650.008 215.9 657.708 208.1L659.808 210.2C655.508 214.7 649.608 216.9 643.708 216.9Z" fill="white"/>
<path d="M538.408 227.5L537.208 224.7L608.708 194.3L518.508 206L518.108 203L619.108 189.9C619.808 189.8 620.508 190.3 620.708 191C620.908 191.7 620.508 192.5 619.808 192.8L538.408 227.5Z" fill="white"/>
<path d="M521.308 225.4L520.108 222.6C520.708 222.4 576.408 198.2 619.108 189.9L619.708 192.8C577.308 201.1 521.808 225.2 521.308 225.4Z" fill="white"/>
<path d="M720.108 227.5L638.608 192.9C637.908 192.6 637.508 191.8 637.708 191.1C637.908 190.4 638.608 189.9 639.308 190L740.308 203L739.908 206L649.708 194.3L721.208 224.7L720.108 227.5Z" fill="white"/>
<path d="M737.208 225.4C736.608 225.2 681.208 201.1 638.908 192.9L639.508 190C682.108 198.2 737.908 222.4 738.508 222.7L737.208 225.4Z" fill="white"/>
<path d="M643.208 186.7H614.608V191.8C614.608 196.1 618.108 199.5 622.308 199.5C624.108 199.5 625.608 201 625.608 202.8V207.6C625.608 209.4 627.108 210.9 628.908 210.9C630.708 210.9 632.208 209.4 632.208 207.6V202.8C632.208 201 633.708 199.5 635.508 199.5C639.808 199.5 643.208 196 643.208 191.8V186.7Z" fill="#FFDC6C"/>
<path d="M628.608 305C630.808 309.3 632.908 313.6 634.808 317.9C634.808 318 635.208 318.9 635.008 318.4C634.808 318 635.108 318.7 635.108 318.7C635.308 319.3 635.608 319.8 635.808 320.4C636.308 321.5 636.708 322.7 637.108 323.8C637.908 326.1 638.608 328.4 639.308 330.7C639.908 333 640.408 335.2 640.808 337.5C640.808 337.7 641.008 339 640.908 338.3C641.008 338.9 641.008 339.5 641.108 340.1C641.208 341.3 641.308 342.5 641.308 343.7C641.408 345.6 641.308 347.5 641.108 349.3C641.108 349.7 641.008 350.1 641.008 350.5C640.908 351.2 641.108 349.7 641.008 350.4C641.008 350.6 640.908 350.9 640.908 351.1C640.708 352 640.608 353 640.408 353.9C640.008 355.7 639.508 357.4 638.808 359.2C638.608 359.6 638.508 360.1 638.308 360.5C638.208 360.7 637.908 361.3 638.308 360.4C638.208 360.6 638.108 360.8 638.008 361C637.608 361.8 637.208 362.7 636.708 363.5C636.308 364.3 635.808 365 635.408 365.7C635.208 366 635.008 366.4 634.708 366.7C634.608 366.9 634.408 367.1 634.308 367.3C634.308 367.3 633.608 368.2 634.008 367.7C634.408 367.2 633.908 367.8 633.808 367.9C633.708 368.1 633.508 368.3 633.408 368.4C633.108 368.7 632.908 369 632.608 369.3C631.908 370 631.308 370.7 630.508 371.4C630.208 371.7 629.908 371.9 629.608 372.2C629.408 372.4 629.308 372.5 629.108 372.6C629.208 372.5 629.908 372 629.208 372.5C628.508 373 627.708 373.6 626.908 374C626.208 374.5 625.408 374.9 624.608 375.2C624.308 375.3 623.408 375.7 624.208 375.4C623.608 375.6 623.008 375.8 622.408 376C621.608 376.3 620.708 376.5 619.908 376.7C619.408 376.8 618.908 376.9 618.408 377C618.208 377 617.908 377.1 617.708 377.1C618.308 377 618.108 377 617.608 377.1C615.708 377.3 613.808 377.3 611.908 377.1C611.408 377.1 610.908 377 610.408 377C611.308 377.1 610.308 377 609.908 376.9C608.908 376.7 607.808 376.5 606.808 376.2C606.008 376 605.108 375.7 604.308 375.4C603.808 375.2 603.308 375.1 602.908 374.9C602.708 374.8 602.408 374.7 602.208 374.6C602.808 374.8 602.408 374.7 602.008 374.5C600.208 373.7 598.508 372.8 596.808 371.7C596.008 371.2 595.208 370.7 594.408 370.1C594.208 369.9 594.008 369.8 593.808 369.6C593.308 369.2 594.308 370 593.808 369.6C593.408 369.2 592.908 368.9 592.508 368.5C591.008 367.2 589.508 365.7 588.208 364.1C587.508 363.3 586.908 362.5 586.208 361.7C586.708 362.4 585.808 361.1 585.708 361C585.408 360.6 585.108 360.1 584.808 359.7C582.408 356.1 580.408 352.3 578.608 348.3C578.308 347.7 578.808 348.9 578.608 348.2C578.508 348 578.408 347.8 578.408 347.6C578.208 347.1 578.008 346.6 577.808 346C577.408 345 577.008 343.9 576.708 342.9C576.008 340.8 575.308 338.7 574.708 336.5C573.608 332.5 572.708 328.5 571.708 324.5C569.808 316.5 567.608 308.1 562.808 301.3C557.308 293.5 549.208 288.4 539.708 287.3C530.808 286.2 521.708 289.4 515.108 295.4C513.408 296.9 512.008 298.6 510.608 300.5C509.308 302.3 510.208 305.6 512.208 306.7C514.508 307.9 516.808 307.1 518.408 305.1C518.508 305 518.908 304.4 518.408 305.1C518.608 304.9 518.708 304.7 518.908 304.5C519.208 304.1 519.608 303.7 519.908 303.4C520.608 302.7 521.408 301.9 522.208 301.3C522.408 301.1 522.608 301 522.808 300.8C522.108 301.3 522.708 300.9 522.808 300.8C523.208 300.5 523.508 300.3 523.908 300C524.808 299.4 525.808 298.9 526.808 298.4C527.008 298.3 528.308 297.7 527.508 298.1C527.908 297.9 528.308 297.8 528.808 297.6C529.808 297.2 530.908 296.9 532.008 296.7C532.408 296.6 532.908 296.5 533.308 296.4C533.408 296.4 534.308 296.3 533.708 296.3C533.108 296.4 533.908 296.3 534.108 296.3C535.208 296.2 536.208 296.2 537.308 296.2C537.808 296.2 538.408 296.3 538.908 296.3C539.008 296.3 539.908 296.4 539.308 296.3C538.808 296.2 539.408 296.3 539.508 296.3C540.608 296.5 541.708 296.7 542.808 297C543.808 297.3 544.708 297.6 545.608 298C544.808 297.7 545.508 298 545.608 298C545.808 298.1 546.108 298.2 546.308 298.3C546.808 298.6 547.408 298.9 547.908 299.2C548.808 299.7 549.608 300.3 550.408 300.8C549.708 300.3 550.908 301.2 551.108 301.3C551.508 301.6 551.908 302 552.208 302.4C552.908 303.1 553.608 303.8 554.308 304.6C554.508 304.8 554.608 305 554.808 305.2C554.308 304.5 554.708 305.1 554.808 305.2C555.108 305.6 555.408 306 555.708 306.4C556.808 308.1 557.808 309.9 558.608 311.7C558.708 311.9 559.308 313.3 558.908 312.4C559.108 312.8 559.208 313.2 559.408 313.6C559.808 314.6 560.208 315.6 560.508 316.7C561.808 320.6 562.708 324.6 563.708 328.6C565.708 337.3 568.108 345.9 571.808 354.1C575.508 362.3 580.608 369.9 587.408 375.5C594.208 381.1 602.308 384.8 611.108 385.8C619.308 386.7 627.908 384.6 634.508 379.5C641.108 374.4 645.508 367.5 648.008 359.8C654.008 341.7 647.608 322.9 639.708 306.5C638.708 304.3 637.608 302.1 636.508 300C635.408 297.8 632.308 297.1 630.308 298.4C628.108 300.2 627.508 302.8 628.608 305Z" fill="#121831"/>
<path d="M543.608 107.1L528.408 68.4C528.208 67.9 528.308 67.2 528.708 66.8C529.108 66.4 529.708 66.2 530.308 66.4L560.608 76.6L559.608 79.4L532.408 70.2L546.408 105.9L543.608 107.1Z" fill="white"/>
<path d="M718.008 99.2L715.308 98L728.308 68.1L689.308 79.7L688.408 76.8L730.508 64.2C731.108 64 731.708 64.2 732.108 64.6C732.508 65 732.608 65.7 732.308 66.2L718.008 99.2Z" fill="white"/>
<path d="M678.908 293.4H579.308V296.4H678.908V293.4Z" fill="white"/>
<path d="M1279.9 171.8C1285.8 171.8 1290.7 167 1290.7 161C1290.7 155.1 1285.9 150.2 1279.9 150.2C1274 150.2 1269.1 155 1269.1 161C1269.2 167 1274 171.8 1279.9 171.8Z" fill="#121831"/>
<path d="M1283.4 157.2L1303.1 150.7L1287.6 136.8L1283.4 157.2Z" fill="#121831"/>
<path d="M1276.4 164.9L1256.7 171.4L1272.2 185.3L1276.4 164.9Z" fill="#121831"/>
<path d="M476.4 374.9C482.3 374.9 487.2 370.1 487.2 364.1C487.2 358.2 482.4 353.3 476.4 353.3C470.4 353.3 465.6 358.1 465.6 364.1C465.6 370.1 470.4 374.9 476.4 374.9Z" fill="#1A6BCD"/>
<path d="M481.3 365.8L495.1 381.3L501.7 361.6L481.3 365.8Z" fill="#1A6BCD"/>
<path d="M471.4 362.5L457.6 347L451 366.7L471.4 362.5Z" fill="#1A6BCD"/>
<path d="M119.1 295C125 295 129.9 290.2 129.9 284.2C129.9 278.3 125.1 273.4 119.1 273.4C113.2 273.4 108.3 278.2 108.3 284.2C108.3 290.2 113.2 295 119.1 295Z" fill="#121831"/>
<path d="M123.5 281.4L144.2 280.4L133 263L123.5 281.4Z" fill="#121831"/>
<path d="M114.7 287.1L94 288.1L105.2 305.5L114.7 287.1Z" fill="#121831"/>
<path d="M58.5998 413.3C64.4998 413.3 69.3998 408.5 69.3998 402.5C69.3998 396.6 64.5998 391.7 58.5998 391.7C52.6998 391.7 47.7998 396.5 47.7998 402.5C47.8998 408.5 52.6998 413.3 58.5998 413.3Z" fill="#1A6BCD"/>
<path d="M58.0999 407.8L45.8999 424.6L66.4999 426.8L58.0999 407.8Z" fill="#1A6BCD"/>
<path d="M59.2002 397.4L71.4002 380.6L50.7002 378.5L59.2002 397.4Z" fill="#1A6BCD"/>
<path d="M1290.7 244.5C1297.6 244.5 1303.2 238.9 1303.2 232C1303.2 225.1 1297.6 219.5 1290.7 219.5C1283.8 219.5 1278.2 225.1 1278.2 232C1278.2 238.9 1283.8 244.5 1290.7 244.5Z" fill="#1A6BCD"/>
<path d="M756.5 316.5C759.3 316.5 761.6 314.2 761.6 311.4C761.6 308.6 759.3 306.3 756.5 306.3C753.7 306.3 751.4 308.6 751.4 311.4C751.4 314.2 753.7 316.5 756.5 316.5Z" fill="#121831"/>
<path d="M438.2 142C443.2 142 447.3 137.9 447.3 132.9C447.3 127.9 443.2 123.8 438.2 123.8C433.2 123.8 429.1 127.9 429.1 132.9C429.1 137.9 433.1 142 438.2 142Z" fill="#57AAE3"/>
<path d="M56.8002 238.4C62.9002 238.4 67.9002 233.4 67.9002 227.3C67.9002 221.2 62.9002 216.2 56.8002 216.2C50.7002 216.2 45.7002 221.2 45.7002 227.3C45.7002 233.4 50.7002 238.4 56.8002 238.4Z" fill="#57AAE3"/>
</g>
</g>
</g>
<defs>
<clipPath id="clip0_1528_83946">
<rect width="1335" height="464" fill="white"/>
</clipPath>
</defs>
</svg>
