<svg width="1335" height="464" viewBox="0 0 1335 464" fill="none" xmlns="http://www.w3.org/2000/svg">
<g clip-path="url(#clip0_1528_85236)">
<rect width="1335" height="464" fill="#F6DC9D"/>
<mask id="mask0_1528_85236" style="mask-type:luminance" maskUnits="userSpaceOnUse" x="0" y="0" width="1335" height="464">
<path d="M1335 0H0V464H1335V0Z" fill="white"/>
</mask>
<g mask="url(#mask0_1528_85236)">
<path d="M1335 0H0V464H1335V0Z" fill="#F6DC9D"/>
<path d="M769.81 157.61L772.88 137.78C773.67 132.66 777.79 128.69 782.93 128.09L790.68 127.18C794.55 126.73 797.65 123.75 798.26 119.9L800.36 106.58L804.77 104.83C806.1 104.3 806.36 102.54 805.24 101.65L800.36 97.7699L792 82.1799C786.21 71.3799 773.95 65.7499 761.98 68.3999C747.3 71.6499 737.99 86.1399 741.14 100.85L744.84 118.1L737.74 141.6L769.81 157.62V157.61Z" fill="#BE7927"/>
<path d="M785.81 167.36L821.28 333.87H781.82L785.81 167.36Z" fill="#121831"/>
<path d="M1089.9 182.68C1081.77 181.15 1075.48 174.69 1074.16 166.53L1067.52 125.36L1103.46 146.51C1110.59 150.7 1114.32 158.91 1112.79 167.04C1110.79 177.68 1100.53 184.69 1089.89 182.69L1089.9 182.68Z" fill="#631C00"/>
<path d="M833.63 246.44L856.34 243.43L865.58 235.22C869.08 232.11 874.12 231.45 878.3 233.56L907.13 248.11L903.89 255.22C901.93 259.52 896.97 261.57 892.54 259.91L876.8 254L870.38 260.58L836.61 266.02L833.63 246.45V246.44Z" fill="#BE7927"/>
<path d="M1072.96 133.39C1073.29 138.71 1074.3 143.98 1075.96 149.08L1050.91 163.38V151.66C1050.91 146.8 1047.34 142.67 1042.53 141.96L1029.18 139.97C1023.84 139.19 1019.58 135.11 1018.57 129.81L1015.98 116.27H1009.27C1010.83 110.76 1013.03 105.48 1015.82 100.51C1016.9 98.6 1018.06 96.72 1019.3 94.91C1021.28 92.03 1023.46 89.3 1025.85 86.71L1027.94 84.43C1033.94 77.94 1042.67 74.66 1051.47 75.64C1065.86 77.22 1076.3 89.41 1076.3 103.3C1076.3 105.15 1076.11 107.02 1075.73 108.91L1074.14 116.72C1073.02 122.22 1072.63 127.82 1072.98 133.39H1072.96Z" fill="#F9AD88"/>
<path d="M727.55 216.61L698.14 318.12C693.96 332.56 691.59 347.46 691.1 362.48L684.01 579.9H778.23L796.66 285.32L727.55 216.6V216.61Z" fill="#13529C"/>
<path d="M811.64 579.91L796.66 285.32L778.23 579.91H811.64Z" fill="#121831"/>
<path d="M1113.72 302.9L1110.39 356.15L1097.24 566.38H1012.96L1018.08 409.63L1019.31 371.91C1019.75 358.47 1021.86 345.15 1025.6 332.23L1026.86 327.9L1051.91 241.44L1102.89 292.14L1113.72 302.9Z" fill="#D9D9D9"/>
<path d="M1127.12 566.38H1097.24L1110.39 356.15L1113.72 302.9L1116.36 354.72L1127.12 566.38Z" fill="#B6B6B6"/>
<path d="M1116.36 354.72L1110.39 356.15L1088.1 361.5C1083.87 362.51 1079.42 361.79 1075.73 359.5C1068.68 355.12 1059.47 356.75 1054.35 363.28L1018.08 409.63L1019.31 371.91C1019.75 358.47 1021.86 345.15 1025.6 332.23L1026.86 327.9L1102.89 292.14L1113.72 302.9L1116.36 354.72Z" fill="#808080"/>
<path d="M735.79 149.64L740.81 125.36L780.75 138.08V157.61L735.79 149.64Z" fill="#020202"/>
<path d="M821.27 306.19H687.5L705.39 232.02L720.74 168.35C724.78 151.62 739.73 140.41 756.19 140.41C759.09 140.41 762.03 140.75 764.97 141.48C784.22 146.24 798.73 162.07 801.79 181.65L813.34 255.48L821.27 306.19Z" fill="#FDF9F0"/>
<path d="M821.27 306.19H687.5L695.55 272.82C702.09 245.7 711.58 219.38 723.85 194.33L740.33 198.29L746.15 269.39L813.34 255.48L821.27 306.19Z" fill="#FBE8ED"/>
<path d="M841.36 236.88L856.36 234.73V272.23L841.36 274.81V236.88Z" fill="#FBE8ED"/>
<path d="M729.26 170.13L712.23 246.38C705.02 278.66 733.71 307.55 766.04 300.55L849.62 282.47L843.63 234.31L775.12 244.62L790.14 184.54C795.08 164.79 780.14 145.66 759.79 145.66C745.14 145.66 732.45 155.83 729.25 170.13H729.26Z" fill="#FDF9F0"/>
<path d="M870.38 260.57L881.01 248.59L891.99 251.56L890.08 258.66C889 262.67 884.81 264.99 880.84 263.77L870.38 260.56V260.57Z" fill="#F9AD88"/>
<path d="M889.55 229.55C885.82 228.74 881.93 229.4 878.68 231.38L864.5 240.01C862.76 241.07 862.13 243.29 863.06 245.1C864.05 247.02 866.41 247.77 868.32 246.77L877.63 241.89L903.12 246.08L907.13 248.12L913.33 246.08V234.7L889.55 229.56V229.55Z" fill="#F9AD88"/>
<path d="M905.55 223.71L909.74 252.34H931.79L936.97 256.71C941.29 260.36 946.41 262.96 951.91 264.3L988.4 273.19C1016.9 280.13 1046.49 266.97 1060.42 241.16L1095.53 176.09C1077.8 159.2 1049.43 161.02 1033.99 180.03L1008.57 211.34L905.56 223.7L905.55 223.71Z" fill="#FDF9F0"/>
<path d="M1032.41 226.81L1043.04 165.99L1081.05 144.29L1083.87 160.44L1097.34 168.6L1107.68 308.04H1041.34L1032.41 226.81Z" fill="#82882E"/>
<path d="M1024.87 220.11L951.243 254.662C950.243 255.131 949.813 256.322 950.282 257.322L1000.63 364.606C1001.1 365.606 1002.29 366.036 1003.29 365.567L1076.92 331.015C1077.92 330.546 1078.35 329.355 1077.88 328.355L1027.53 221.071C1027.06 220.071 1025.87 219.641 1024.87 220.11Z" fill="#121831"/>
<path d="M1013.53 316.53L1003.66 320.23C998.23 322.26 992.14 321.31 987.59 317.73L974.92 307.74C974.53 307.43 974 307.86 974.21 308.31L978.72 317.91L975.36 328.64C973.11 335.84 976.57 343.58 983.43 346.7L994.63 351.79L996.28 347.6C998.36 342.34 1002.67 338.29 1008.04 336.53L1018.07 333.24L1013.55 316.53H1013.53Z" fill="#F9AD88"/>
<path d="M1100.07 171.98L1141.27 267.03C1152.12 292.07 1137.42 320.79 1110.75 326.61L1034.88 343.19C1028.73 344.53 1022.39 341.92 1018.97 336.63L1011.39 338.53L1005.75 317.7L1083.98 278.72L1057.57 251.79C1038.6 232.44 1037.37 201.87 1054.73 181.06L1066.36 167.13C1075.9 155.7 1094.13 158.33 1100.06 171.99L1100.07 171.98Z" fill="#FDF9F0"/>
<path d="M1076.28 103.3C1076.28 105.15 1076.09 107.02 1075.71 108.91L1074.12 116.72C1073 122.22 1072.61 127.82 1072.96 133.39V133.41L1057.86 125.3C1055.11 123.82 1054.78 120.01 1057.23 118.08C1058.44 117.12 1059.06 115.6 1058.84 114.07L1058.81 113.86C1058.4 110.88 1055.15 109.21 1052.48 110.61L1041.61 103.39L1051.43 113.2C1034.35 113.2 1023.37 100.6 1019.29 94.92C1021.27 92.04 1023.45 89.31 1025.84 86.72L1027.93 84.44C1033.93 77.95 1042.66 74.67 1051.46 75.65C1065.85 77.23 1076.29 89.42 1076.29 103.31L1076.28 103.3Z" fill="#631C00"/>
<path d="M1016.71 120.13L1023.99 118.76L1017.46 124.01L1016.71 120.13Z" fill="#F3804B"/>
<path d="M1023.99 118.76L1016.95 121.39L1016.71 120.13C1016.71 120.13 1018.05 117.98 1023.99 118.76Z" fill="#FF8E62"/>
<path fill-rule="evenodd" clip-rule="evenodd" d="M1016.5 116.737L1014.37 96.9068L1016.35 96.6932L1018.48 116.523L1016.5 116.737Z" fill="#F25B2F"/>
<path fill-rule="evenodd" clip-rule="evenodd" d="M1042.15 108.11H1016.43V106.11H1042.15V108.11Z" fill="#F25B2F"/>
<path d="M1021.98 111.77H1018.51L1019.25 111.03C1020.76 109.52 1023.2 109.52 1024.71 111.03L1025.45 111.77H1021.98Z" fill="#020202"/>
<path fill-rule="evenodd" clip-rule="evenodd" d="M1025.08 120.682L1021.61 116.972L1022.35 116.288L1025.82 119.998L1025.08 120.682Z" fill="#FF8E62"/>
<path d="M1054.81 120.79C1056.26 120.79 1057.44 119.613 1057.44 118.16C1057.44 116.708 1056.26 115.53 1054.81 115.53C1053.36 115.53 1052.18 116.708 1052.18 118.16C1052.18 119.613 1053.36 120.79 1054.81 120.79Z" fill="#FDBD00"/>
<path d="M1043.04 165.99L1072.96 133.39L1078.88 145.53L1043.04 165.99Z" fill="#FDBD00"/>
<path d="M1043.04 165.99H1043.7C1051.75 165.99 1058.28 172.52 1058.28 180.57V181.23H1057.62C1049.57 181.23 1043.04 174.7 1043.04 166.65V165.99Z" fill="#FDBD00"/>
<path d="M1042.99 165.995L1043.19 166.625C1045.61 174.302 1041.35 182.494 1033.67 184.916L1033.04 185.114L1032.84 184.485C1030.42 176.808 1034.68 168.616 1042.36 166.194L1042.99 165.995Z" fill="#FDBD00"/>
<path d="M783.69 95.63L795.66 76.38L778.89 69.67L783.69 95.63Z" fill="#121831"/>
<path d="M752.44 146.52C766.42 146.58 782.64 148.34 788.62 155.56L780.74 116.29L787.38 69.68C787.38 69.68 756.75 55.45 742.15 83.84C727.55 112.24 739.72 119.74 739.72 119.74L737.67 125.24C733.82 135.55 741.44 146.48 752.44 146.53V146.52Z" fill="#44BFF4"/>
<path d="M799.85 109.8L794.23 108.93C794.23 108.93 795.98 113.88 799.2 113.88L799.84 109.8H799.85Z" fill="#232322"/>
<path d="M794.24 108.93L799.47 112.21L799.85 109.8L794.24 108.93Z" fill="#61321D"/>
<path d="M792.42 98.87C793.364 98.87 794.13 98.1044 794.13 97.16C794.13 96.2156 793.364 95.45 792.42 95.45C791.476 95.45 790.71 96.2156 790.71 97.16C790.71 98.1044 791.476 98.87 792.42 98.87Z" fill="#232322"/>
<path d="M789.26 95.45H794.24L795.6 94.09C795.6 94.09 792.6 93.02 789.26 95.45Z" fill="#232322"/>
<path d="M739.73 119.73C752.32 119.73 764.39 124.73 773.29 133.63L777.49 137.83C777.84 138.18 777.43 138.75 776.99 138.52L739.72 119.72L739.73 119.73Z" fill="#13529C"/>
<path d="M857.93 392.14H843.56V390.82H823.71V392.14H809.34V410.46C817.28 410.46 823.71 416.9 823.71 424.83V496.5H843.56V424.83C843.56 416.89 850 410.46 857.93 410.46V392.14Z" fill="#AFA9DE"/>
<path d="M862.63 367.44H540.38V392.14H862.63V367.44Z" fill="#FBE8ED"/>
<path d="M618.93 392.14H547.52V492.7H618.93V392.14Z" fill="#AFA9DE"/>
<path d="M547.52 408.91H540.38V424.62H547.52V408.91Z" fill="#121831"/>
<path d="M638.241 364.568L657.625 304.771L650.014 302.304L630.631 362.101L638.241 364.568Z" fill="#121831"/>
<path d="M639.96 359.45H558.25V367.45H639.96V359.45Z" fill="#121831"/>
<path d="M682.12 348.92H749.78V367.44H682.12C677.01 367.44 672.86 363.29 672.86 358.18C672.86 353.07 677.01 348.92 682.12 348.92Z" fill="#44BFF4"/>
<path d="M720.02 341.44H664.47V349.01H720.02V341.44Z" fill="#FDBD00"/>
<path fill-rule="evenodd" clip-rule="evenodd" d="M389.073 435.32L369.253 285.058L365.287 285.582L385.337 437.582C385.468 438.576 386.316 439.32 387.32 439.32H413.1V435.32H389.073Z" fill="#121831"/>
<path fill-rule="evenodd" clip-rule="evenodd" d="M441.536 380.276C441.911 379.901 442.42 379.69 442.95 379.69H501.24V383.69H443.778L388.734 438.734L385.906 435.906L441.536 380.276Z" fill="#121831"/>
<path d="M500.7 424.62H410.52C403.506 424.62 397.82 430.304 397.82 437.315C397.82 444.326 403.506 450.01 410.52 450.01H500.7C507.714 450.01 513.4 444.326 513.4 437.315C513.4 430.304 507.714 424.62 500.7 424.62Z" fill="#82882E"/>
<path d="M387.943 288.124C386.736 277.294 376.981 269.494 366.154 270.7C355.327 271.907 347.529 281.665 348.736 292.494L359.698 390.845C360.905 401.675 370.661 409.475 381.487 408.269C392.314 407.062 400.112 397.304 398.905 386.475L387.943 288.124Z" fill="#82882E"/>
<path d="M508.72 372.56H448.24C445.655 372.56 443.56 374.655 443.56 377.24V386.14C443.56 388.725 445.655 390.82 448.24 390.82H508.72C511.305 390.82 513.4 388.725 513.4 386.14V377.24C513.4 374.655 511.305 372.56 508.72 372.56Z" fill="#82882E"/>
<path fill-rule="evenodd" clip-rule="evenodd" d="M1064.34 364.201L1052.4 559.201L1050.4 559.079L1062.34 364.079L1064.34 364.201Z" fill="#B6B6B6"/>
<path fill-rule="evenodd" clip-rule="evenodd" d="M453.61 487.32V450.01H457.61V487.32H453.61Z" fill="#121831"/>
</g>
</g>
<defs>
<clipPath id="clip0_1528_85236">
<rect width="1335" height="464" fill="white"/>
</clipPath>
</defs>
</svg>
