<svg width="1335" height="464" viewBox="0 0 1335 464" fill="none" xmlns="http://www.w3.org/2000/svg">
<g clip-path="url(#clip0_1528_83332)">
<rect width="1335" height="464" fill="#CDE6D0"/>
<mask id="mask0_1528_83332" style="mask-type:luminance" maskUnits="userSpaceOnUse" x="0" y="0" width="1335" height="464">
<path d="M1335 0H0V464H1335V0Z" fill="white"/>
</mask>
<g mask="url(#mask0_1528_83332)">
<path d="M1335.57 0.26001H0.569946V463.74H1335.57V0.26001Z" fill="#E4E6C4"/>
<path d="M1263.98 428.99C1263.98 430.01 1263.26 431.03 1261.96 431.03H1226.68L1216.86 413.51L1206.23 394.56L1158.07 308.68L1116.62 394.56L1107.47 413.51L1099.01 431.03H1067.22C1065.51 431.03 1064.54 429.67 1064.54 428.32C1064.54 427.29 1065.1 426.26 1066.32 425.83L1087.14 418.46C1089.73 417.54 1091.9 415.79 1093.33 413.51C1093.83 412.71 1094.24 411.86 1094.55 410.95L1100.1 394.56L1137.49 284.15L1174.38 287.01L1226.15 394.56L1235.27 413.51L1235.9 414.81C1237.58 418.31 1240.68 420.91 1244.42 421.96L1262.51 427.06C1263.52 427.35 1263.98 428.17 1263.98 428.99Z" fill="#FFA87D"/>
<path d="M1116.62 394.56L1107.47 413.51L1099.01 431.03H1067.22C1065.51 431.03 1064.54 429.67 1064.54 428.32C1064.54 427.29 1065.1 426.26 1066.32 425.83L1087.14 418.46C1089.73 417.54 1091.9 415.79 1093.33 413.51C1093.83 412.71 1094.24 411.86 1094.55 410.95L1100.1 394.56H1116.62Z" fill="white"/>
<path d="M1263.98 428.99C1263.98 430.01 1263.26 431.03 1261.96 431.03H1226.68L1216.86 413.51L1206.23 394.56H1226.15L1235.27 413.51L1235.9 414.81C1237.58 418.31 1240.68 420.91 1244.42 421.96L1262.51 427.06C1263.52 427.35 1263.98 428.17 1263.98 428.99Z" fill="white"/>
<path d="M1093.33 413.51H1107.47L1099.01 431.03H1067.22C1064.21 431.03 1063.49 426.83 1066.32 425.83L1087.14 418.46C1089.73 417.54 1091.9 415.79 1093.33 413.51Z" fill="#262646"/>
<path d="M1261.96 431.03H1226.68L1216.86 413.51H1235.27L1235.9 414.81C1237.58 418.31 1240.68 420.91 1244.42 421.96L1262.51 427.06C1264.77 427.7 1264.31 431.03 1261.96 431.03Z" fill="#262646"/>
<path d="M1148.48 243.56L1107.36 344.62L1122.71 376.36C1130.71 392.9 1147.46 403.4 1165.83 403.4H1260.53C1260.53 403.4 1174.69 320.8 1179.34 254.06L1148.47 243.56H1148.48Z" fill="#FDB0CE"/>
<path d="M1082.7 270.3L1078.44 274.09C1076.37 275.93 1073.96 277.35 1071.34 278.26L1062.31 281.4C1061 281.86 1060.48 283.44 1061.28 284.58C1061.79 285.31 1062.7 285.63 1063.55 285.4L1074.99 282.25L1074.47 285C1074.27 286.04 1075.07 287.01 1076.13 287.01C1076.93 287.01 1077.62 286.45 1077.78 285.67L1078.05 284.43C1078.56 282.07 1080.01 280.01 1082.07 278.75L1087.28 275.56L1082.69 270.29L1082.7 270.3Z" fill="#FFA87D"/>
<path d="M1213.07 186.31L1209.53 177.61L1206.8 176.09C1205.56 175.4 1205.11 173.83 1205.8 172.59L1206.4 171.52L1206.22 170.04C1206.06 168.72 1207.17 167.6 1208.49 167.73L1213.86 168.28C1215.08 168.4 1215.97 169.48 1215.86 170.7L1215.58 174.05C1215.49 175.14 1215.74 176.23 1216.3 177.17L1218.98 181.64L1213.06 186.32L1213.07 186.31Z" fill="#FFA87D"/>
<path d="M1139.29 256.92L1131.74 278.65L1185.39 283.26L1187.06 260.3L1139.29 256.92Z" fill="#FFF8EB"/>
<path d="M1131.79 262.86L1186.89 275.59C1188.64 275.99 1190.37 274.84 1190.67 273.07L1195.01 247.15L1220.71 251.65C1227.94 252.92 1235.38 251.15 1241.27 246.77C1252.25 238.6 1255.28 223.46 1248.3 211.7L1232.5 185.06C1230.95 182.45 1227.82 181.25 1224.93 182.16L1222.85 182.81L1218.33 177.08L1209.79 182.61L1211.64 188.39L1209.09 190.76C1206.37 193.29 1205.75 197.35 1207.58 200.57L1217.02 217.17L1164.47 200.09C1155.77 197.26 1146.23 199.06 1139.16 204.87C1139.16 204.87 1093.54 244.89 1080.26 256.55C1078.18 258.37 1077.73 261.42 1079.18 263.78L1081.29 267.21L1076.61 272.1L1083.14 280.58L1089.23 276.72L1091.36 278.4C1094.07 280.53 1097.94 280.36 1100.45 277.98L1134.28 246.01L1129.57 258.76C1128.92 260.52 1129.96 262.46 1131.79 262.88V262.86Z" fill="#423772"/>
<path d="M1207.34 172.62L1188.3 154.4C1187.83 153.97 1188.51 153.21 1188.99 153.65L1208.69 171.14C1209.68 172.02 1208.31 173.53 1207.33 172.61L1207.34 172.62Z" fill="#502400"/>
<path d="M1162.91 199.62C1162.91 199.62 1179.22 231.47 1200.13 211.67L1187.91 203.35L1176.26 200.47L1162.91 199.62Z" fill="#FFF8EB"/>
<path d="M1176.25 200.46V195.06C1176.25 194.02 1175.79 193.04 1174.99 192.39L1171.67 189.65C1170.51 188.7 1169.84 187.28 1169.84 185.78V180.62L1167.4 177.67C1167.17 177.39 1167.29 176.96 1167.65 176.85L1171.02 175.82L1175.17 172.15C1177.94 169.7 1181.65 168.61 1185.3 169.17L1187.53 169.51C1192.07 170.2 1195.86 173.34 1197.38 177.67C1199.35 183.25 1197.11 189.45 1192.03 192.49L1188.66 194.51L1187.91 203.35L1176.26 200.47L1176.25 200.46Z" fill="#FFA87D"/>
<path d="M950.84 215.41H19.87V302.98H950.84V215.41Z" stroke="#00ABFF" stroke-width="2" stroke-linecap="round" stroke-linejoin="round"/>
<path d="M19.87 281.09H950.84" stroke="#00ABFF" stroke-width="2" stroke-linecap="round" stroke-linejoin="round"/>
<path d="M19.87 259.2H950.84" stroke="#00ABFF" stroke-width="2" stroke-linecap="round" stroke-linejoin="round"/>
<path d="M19.87 237.31H950.84" stroke="#00ABFF" stroke-width="2" stroke-linecap="round" stroke-linejoin="round"/>
<path d="M764.64 215.41V302.98" stroke="#00ABFF" stroke-width="2" stroke-linecap="round" stroke-linejoin="round"/>
<path d="M578.45 215.41V302.98" stroke="#00ABFF" stroke-width="2" stroke-linecap="round" stroke-linejoin="round"/>
<path d="M392.26 215.41V302.98" stroke="#00ABFF" stroke-width="2" stroke-linecap="round" stroke-linejoin="round"/>
<path d="M206.06 215.41V302.98" stroke="#00ABFF" stroke-width="2" stroke-linecap="round" stroke-linejoin="round"/>
<path d="M1323.23 11.0701H392.26V98.6401H1323.23V11.0701Z" stroke="#00ABFF" stroke-width="2" stroke-linecap="round" stroke-linejoin="round"/>
<path d="M392.26 76.7401H1323.23" stroke="#00ABFF" stroke-width="2" stroke-linecap="round" stroke-linejoin="round"/>
<path d="M392.26 54.8501H1323.23" stroke="#00ABFF" stroke-width="2" stroke-linecap="round" stroke-linejoin="round"/>
<path d="M392.26 32.9601H1323.23" stroke="#00ABFF" stroke-width="2" stroke-linecap="round" stroke-linejoin="round"/>
<path d="M1137.03 11.0701V98.6301" stroke="#00ABFF" stroke-width="2" stroke-linecap="round" stroke-linejoin="round"/>
<path d="M950.84 11.0701V98.6301" stroke="#00ABFF" stroke-width="2" stroke-linecap="round" stroke-linejoin="round"/>
<path d="M764.64 11.0701V98.6301" stroke="#00ABFF" stroke-width="2" stroke-linecap="round" stroke-linejoin="round"/>
<path d="M578.45 11.0701V98.6301" stroke="#00ABFF" stroke-width="2" stroke-linecap="round" stroke-linejoin="round"/>
<path d="M1289.58 431.04H358.61V518.61H1289.58V431.04Z" stroke="#00ABFF" stroke-width="2" stroke-linecap="round" stroke-linejoin="round"/>
<path d="M358.61 452.93H1289.58" stroke="#00ABFF" stroke-width="2" stroke-linecap="round" stroke-linejoin="round"/>
<path d="M1103.39 431.04V518.6" stroke="#00ABFF" stroke-miterlimit="10"/>
<path d="M917.2 431.04V518.6" stroke="#00ABFF" stroke-width="2" stroke-linecap="round" stroke-linejoin="round"/>
<path d="M731 431.04V518.6" stroke="#00ABFF" stroke-width="2" stroke-linecap="round" stroke-linejoin="round"/>
<path d="M544.81 431.04V518.6" stroke="#00ABFF" stroke-width="2" stroke-linecap="round" stroke-linejoin="round"/>
<path d="M1285.35 294.07L1236.96 306.96C1234.77 307.54 1233.25 309.52 1233.25 311.78V358.26C1233.25 348.85 1224.16 341.57 1214.29 344.72C1208.48 346.57 1204.68 352.17 1204.68 358.26C1204.68 366.15 1211.08 372.55 1218.97 372.55H1233.26C1238.32 372.55 1242.43 368.44 1242.43 363.38V318.3L1285.36 306.87V341.95C1285.36 334.06 1278.96 327.66 1271.07 327.66C1264.97 327.66 1259.38 331.46 1257.53 337.27C1254.38 347.14 1261.67 356.23 1271.07 356.23H1285.36C1290.42 356.23 1294.53 352.12 1294.53 347.06V298.12C1294.53 294.84 1291.42 292.45 1288.25 293.3L1285.36 294.07H1285.35Z" fill="#FD6632"/>
<path d="M1092.91 60.41L1016.59 80.74C1013.14 81.66 1010.74 84.78 1010.74 88.35V161.65C1010.74 146.82 996.41 135.33 980.83 140.29C971.67 143.21 965.68 152.03 965.68 161.65C965.68 174.09 975.77 184.18 988.21 184.18H1010.74C1018.73 184.18 1025.2 177.71 1025.2 169.72V98.63L1092.9 80.6V135.92C1092.9 123.48 1082.81 113.39 1070.37 113.39C1060.76 113.39 1051.93 119.38 1049.01 128.54C1044.05 144.11 1055.53 158.45 1070.37 158.45H1092.9C1100.89 158.45 1107.36 151.98 1107.36 143.99V66.81C1107.36 61.64 1102.46 57.87 1097.46 59.2L1092.9 60.42L1092.91 60.41Z" fill="#FFC033"/>
<path d="M540.84 246.67L451.7 270.41C447.67 271.48 444.87 275.13 444.87 279.29V364.91C444.87 347.59 428.13 334.17 409.94 339.97C399.24 343.38 392.24 353.69 392.24 364.91C392.24 379.44 404.02 391.22 418.55 391.22H444.86C454.19 391.22 461.75 383.66 461.75 374.33V291.3L540.82 270.24V334.85C540.82 320.32 529.04 308.54 514.51 308.54C503.28 308.54 492.97 315.54 489.57 326.24C483.78 344.43 497.19 361.17 514.51 361.17H540.82C550.15 361.17 557.71 353.61 557.71 344.28V254.14C557.71 248.1 551.99 243.7 546.15 245.26L540.82 246.68L540.84 246.67Z" fill="#FD6632"/>
<path d="M206.24 171.68L202.38 172.72L137.63 189.97C134.71 190.75 132.66 193.39 132.66 196.4V258.61C132.66 246.03 120.5 236.27 107.28 240.49C99.5299 242.96 94.4399 250.46 94.4399 258.61C94.4399 262.9 95.8499 266.83 98.2099 270.04C98.7799 270.77 99.3899 271.48 100.05 272.14C103.49 275.58 108.27 277.72 113.55 277.72H132.66C136.05 277.72 139.12 276.35 141.33 274.14C143.57 271.9 144.94 268.84 144.94 265.47V228.12L172.82 220.7C172.56 220.84 172.33 221.01 172.09 221.17C168.89 223.41 166.41 226.64 165.16 230.52C163.04 237.12 164.43 243.48 167.94 248.17C171.4 252.86 176.99 255.9 183.28 255.9H202.39C205.78 255.9 208.85 254.51 211.08 252.29C213.29 250.08 214.66 247.01 214.66 243.62V178.14C214.66 173.76 210.49 170.55 206.25 171.68H206.24ZM202.38 236.76C202.38 226.49 194.27 218.1 184.09 217.67L202.38 212.79V236.75V236.76ZM144.93 210.98V205.14L202.38 189.82V195.69L144.93 210.98Z" fill="#FFAECD"/>
<path d="M950.46 206.29L946.6 207.33L881.85 224.58C878.93 225.36 876.88 228 876.88 231.01V293.22C876.88 280.64 864.72 270.88 851.5 275.1C843.75 277.57 838.66 285.07 838.66 293.22C838.66 297.51 840.07 301.44 842.43 304.65C843 305.38 843.61 306.09 844.27 306.75C847.71 310.19 852.49 312.33 857.77 312.33H876.88C880.27 312.33 883.34 310.96 885.55 308.75C887.79 306.51 889.16 303.45 889.16 300.08V262.73L917.04 255.31C916.78 255.45 916.55 255.62 916.31 255.78C913.11 258.02 910.63 261.25 909.38 265.13C907.26 271.73 908.65 278.09 912.16 282.78C915.62 287.47 921.21 290.51 927.5 290.51H946.61C950 290.51 953.07 289.12 955.3 286.9C957.51 284.69 958.88 281.62 958.88 278.23V212.75C958.88 208.37 954.71 205.16 950.47 206.29H950.46ZM946.6 271.37C946.6 261.1 938.49 252.71 928.31 252.28L946.6 247.4V271.36V271.37ZM889.15 245.59V239.75L946.6 224.43V230.3L889.15 245.59Z" fill="#58AF67"/>
<path d="M718.23 192.12V246.21C715.6 243.71 712.04 242.16 708.13 242.16C701.86 242.16 696.11 246.07 694.21 252.04C690.98 262.19 698.46 271.54 708.13 271.54H722.82C725.35 271.54 727.4 269.49 727.4 266.96V192.12H718.23Z" fill="#4A8EF5"/>
<path d="M253.08 253.42V307.51C250.45 305.01 246.89 303.46 242.98 303.46C236.71 303.46 230.96 307.37 229.06 313.34C225.83 323.49 233.31 332.84 242.98 332.84H257.67C260.2 332.84 262.25 330.79 262.25 328.26V253.42H253.08Z" fill="#58AF67"/>
<path d="M510.15 58.92V113.01C507.52 110.51 503.96 108.96 500.05 108.96C493.78 108.96 488.03 112.87 486.13 118.84C482.9 128.99 490.38 138.34 500.05 138.34H514.74C517.27 138.34 519.32 136.29 519.32 133.76V58.92H510.15Z" fill="#FFAECD"/>
<path d="M767.18 359.85H746.75V413.94C744.12 411.44 740.56 409.89 736.65 409.89C730.38 409.89 724.63 413.8 722.73 419.77C719.5 429.92 726.98 439.27 736.65 439.27H751.34C753.87 439.27 755.92 437.22 755.92 434.69V383.45C755.92 375.48 762.38 369.02 770.35 369.02H773.04H767.29H781.01V359.85H767.18Z" fill="#FFAECD"/>
<path d="M818.13 70.89H794.67V133C791.65 130.13 787.57 128.36 783.07 128.36C775.87 128.36 769.27 132.85 767.08 139.7C763.37 151.36 771.96 162.09 783.07 162.09H799.94C802.85 162.09 805.2 159.73 805.2 156.83V98C805.2 88.85 812.62 81.43 821.77 81.43H824.86H818.25H834.01V70.9H818.13V70.89Z" fill="#FD6632"/>
<path d="M354 173.12H333.57V227.21C330.94 224.71 327.38 223.16 323.47 223.16C317.2 223.16 311.45 227.07 309.55 233.04C306.32 243.19 313.8 252.54 323.47 252.54H338.16C340.69 252.54 342.74 250.49 342.74 247.96V196.72C342.74 188.75 349.2 182.29 357.17 182.29H359.86H354.11H367.83V173.12H354Z" fill="#FFC033"/>
<path d="M461.77 291.31L549.57 267.33" stroke="#3D76BC" stroke-width="2" stroke-miterlimit="10"/>
<path d="M144.93 205.14L209.14 187.69" stroke="#3D76BC" stroke-width="2" stroke-miterlimit="10"/>
<path d="M144.93 228.44L209.14 210.99" stroke="#3D76BC" stroke-width="2" stroke-miterlimit="10"/>
<path d="M889.15 239.75L950.91 222.83" stroke="#3D76BC" stroke-width="2" stroke-miterlimit="10"/>
<path d="M889.15 262.53L950.91 245.6" stroke="#3D76BC" stroke-width="2" stroke-miterlimit="10"/>
<path d="M1025.2 98.62L1097.5 79.51" stroke="#041F49" stroke-miterlimit="10"/>
<path d="M781.01 369.02H753" stroke="#E36962" stroke-miterlimit="10"/>
<path d="M834.01 81.42H805.99" stroke="#3D76BC" stroke-width="2" stroke-miterlimit="10"/>
<path d="M367.83 182.29H342.07" stroke="#3D76BC" stroke-width="2" stroke-miterlimit="10"/>
<path d="M1242.42 318.3L1285.35 306.87" stroke="#483A8B" stroke-miterlimit="10"/>
<path d="M1172.98 172.81L1176.62 174.29L1175.13 190.22C1174.44 197.57 1178.89 204.43 1185.87 206.81L1200.12 211.66C1200.12 211.66 1205.57 161.96 1181.84 166.9C1178.25 167.65 1175.11 169.83 1172.98 172.81Z" fill="#502400"/>
<path d="M930.94 199.62L930.74 199.2C911.21 158 869.7 131.73 824.1 131.73" stroke="#391702" stroke-width="2" stroke-miterlimit="10"/>
<path d="M1172.78 253.54C1172.78 253.54 1085.12 170.2 1001.78 253.54" stroke="#FCD632" stroke-width="2" stroke-linejoin="round"/>
<path d="M653.94 392.46C675.75 370.65 711.11 370.65 732.92 392.46" stroke="#FFF8EB" stroke-width="2" stroke-miterlimit="10"/>
<path d="M474.6 152.8C491.76 169.96 519.58 169.96 536.74 152.8" stroke="#58AF67" stroke-width="2" stroke-miterlimit="10"/>
<path d="M1201.89 219.52C1204.44 219.52 1206.51 217.452 1206.51 214.9C1206.51 212.348 1204.44 210.28 1201.89 210.28C1199.34 210.28 1197.27 212.348 1197.27 214.9C1197.27 217.452 1199.34 219.52 1201.89 219.52Z" fill="#502400"/>
<path d="M1205.92 225.01C1207.81 225.01 1209.35 223.474 1209.35 221.58C1209.35 219.686 1207.81 218.15 1205.92 218.15C1204.03 218.15 1202.49 219.686 1202.49 221.58C1202.49 223.474 1204.03 225.01 1205.92 225.01Z" fill="#502400"/>
<path d="M1208.93 228.82C1210.27 228.82 1211.36 227.732 1211.36 226.39C1211.36 225.048 1210.27 223.96 1208.93 223.96C1207.59 223.96 1206.5 225.048 1206.5 226.39C1206.5 227.732 1207.59 228.82 1208.93 228.82Z" fill="#502400"/>
</g>
<g clip-path="url(#clip1_1528_83332)">
<mask id="mask1_1528_83332" style="mask-type:luminance" maskUnits="userSpaceOnUse" x="0" y="0" width="1335" height="464">
<path d="M1334.43 0.26001H0.569946V463.74H1334.43V0.26001Z" fill="white"/>
</mask>
<g mask="url(#mask1_1528_83332)">
<path d="M1335.57 0.26001H0.569946V463.74H1335.57V0.26001Z" fill="#CDE6D0"/>
<path d="M1263.98 428.99C1263.98 430.01 1263.26 431.03 1261.96 431.03H1226.68L1216.86 413.51L1206.23 394.56L1158.07 308.68L1116.62 394.56L1107.47 413.51L1099.01 431.03H1067.22C1065.51 431.03 1064.54 429.67 1064.54 428.32C1064.54 427.29 1065.1 426.26 1066.32 425.83L1087.14 418.46C1089.73 417.54 1091.9 415.79 1093.33 413.51C1093.83 412.71 1094.24 411.86 1094.55 410.95L1100.1 394.56L1137.49 284.15L1174.38 287.01L1226.15 394.56L1235.27 413.51L1235.9 414.81C1237.58 418.31 1240.68 420.91 1244.42 421.96L1262.51 427.06C1263.52 427.35 1263.98 428.17 1263.98 428.99Z" fill="#FFA87D"/>
<path d="M1116.62 394.56L1107.47 413.51L1099.01 431.03H1067.22C1065.51 431.03 1064.54 429.67 1064.54 428.32C1064.54 427.29 1065.1 426.26 1066.32 425.83L1087.14 418.46C1089.73 417.54 1091.9 415.79 1093.33 413.51C1093.83 412.71 1094.24 411.86 1094.55 410.95L1100.1 394.56H1116.62Z" fill="white"/>
<path d="M1263.98 428.99C1263.98 430.01 1263.26 431.03 1261.96 431.03H1226.68L1216.86 413.51L1206.23 394.56H1226.15L1235.27 413.51L1235.9 414.81C1237.58 418.31 1240.68 420.91 1244.42 421.96L1262.51 427.06C1263.52 427.35 1263.98 428.17 1263.98 428.99Z" fill="white"/>
<path d="M1093.33 413.51H1107.47L1099.01 431.03H1067.22C1064.21 431.03 1063.49 426.83 1066.32 425.83L1087.14 418.46C1089.73 417.54 1091.9 415.79 1093.33 413.51Z" fill="#262646"/>
<path d="M1261.96 431.03H1226.68L1216.86 413.51H1235.27L1235.9 414.81C1237.58 418.31 1240.68 420.91 1244.42 421.96L1262.51 427.06C1264.77 427.7 1264.31 431.03 1261.96 431.03Z" fill="#262646"/>
<path d="M1148.48 243.56L1107.36 344.62L1122.71 376.36C1130.71 392.9 1147.46 403.4 1165.83 403.4H1260.53C1260.53 403.4 1174.69 320.8 1179.34 254.06L1148.47 243.56H1148.48Z" fill="#FDB0CE"/>
<path d="M1082.7 270.3L1078.44 274.09C1076.37 275.93 1073.96 277.35 1071.34 278.26L1062.31 281.4C1061 281.86 1060.48 283.44 1061.28 284.58C1061.79 285.31 1062.7 285.63 1063.55 285.4L1074.99 282.25L1074.47 285C1074.27 286.04 1075.07 287.01 1076.13 287.01C1076.93 287.01 1077.62 286.45 1077.78 285.67L1078.05 284.43C1078.56 282.07 1080.01 280.01 1082.07 278.75L1087.28 275.56L1082.69 270.29L1082.7 270.3Z" fill="#FFA87D"/>
<path d="M1213.07 186.31L1209.53 177.61L1206.8 176.09C1205.56 175.4 1205.11 173.83 1205.8 172.59L1206.4 171.52L1206.22 170.04C1206.06 168.72 1207.17 167.6 1208.49 167.73L1213.86 168.28C1215.08 168.4 1215.97 169.48 1215.86 170.7L1215.58 174.05C1215.49 175.14 1215.74 176.23 1216.3 177.17L1218.98 181.64L1213.06 186.32L1213.07 186.31Z" fill="#FFA87D"/>
<path d="M1139.29 256.92L1131.74 278.65L1185.39 283.26L1187.06 260.3L1139.29 256.92Z" fill="#FFF8EB"/>
<path d="M1131.79 262.86L1186.89 275.59C1188.64 275.99 1190.37 274.84 1190.67 273.07L1195.01 247.15L1220.71 251.65C1227.94 252.92 1235.38 251.15 1241.27 246.77C1252.25 238.6 1255.28 223.46 1248.3 211.7L1232.5 185.06C1230.95 182.45 1227.82 181.25 1224.93 182.16L1222.85 182.81L1218.33 177.08L1209.79 182.61L1211.64 188.39L1209.09 190.76C1206.37 193.29 1205.75 197.35 1207.58 200.57L1217.02 217.17L1164.47 200.09C1155.77 197.26 1146.23 199.06 1139.16 204.87C1139.16 204.87 1093.54 244.89 1080.26 256.55C1078.18 258.37 1077.73 261.42 1079.18 263.78L1081.29 267.21L1076.61 272.1L1083.14 280.58L1089.23 276.72L1091.36 278.4C1094.07 280.53 1097.94 280.36 1100.45 277.98L1134.28 246.01L1129.57 258.76C1128.92 260.52 1129.96 262.46 1131.79 262.88V262.86Z" fill="#423772"/>
<path d="M1207.34 172.62L1188.3 154.4C1187.83 153.97 1188.51 153.21 1188.99 153.65L1208.69 171.14C1209.68 172.02 1208.31 173.53 1207.33 172.61L1207.34 172.62Z" fill="#502400"/>
<path d="M1162.91 199.62C1162.91 199.62 1179.22 231.47 1200.13 211.67L1187.91 203.35L1176.26 200.47L1162.91 199.62Z" fill="#FFF8EB"/>
<path d="M1176.25 200.46V195.06C1176.25 194.02 1175.79 193.04 1174.99 192.39L1171.67 189.65C1170.51 188.7 1169.84 187.28 1169.84 185.78V180.62L1167.4 177.67C1167.17 177.39 1167.29 176.96 1167.65 176.85L1171.02 175.82L1175.17 172.15C1177.94 169.7 1181.65 168.61 1185.3 169.17L1187.53 169.51C1192.07 170.2 1195.86 173.34 1197.38 177.67C1199.35 183.25 1197.11 189.45 1192.03 192.49L1188.66 194.51L1187.91 203.35L1176.26 200.47L1176.25 200.46Z" fill="#FFA87D"/>
<path fill-rule="evenodd" clip-rule="evenodd" d="M18.87 215.41C18.87 214.858 19.3177 214.41 19.87 214.41H950.84C951.392 214.41 951.84 214.858 951.84 215.41V302.98C951.84 303.532 951.392 303.98 950.84 303.98H19.87C19.3177 303.98 18.87 303.532 18.87 302.98V215.41ZM20.87 216.41V301.98H949.84V216.41H20.87Z" fill="#00ABFF"/>
<path fill-rule="evenodd" clip-rule="evenodd" d="M18.87 281.09C18.87 280.538 19.3177 280.09 19.87 280.09H950.84C951.392 280.09 951.84 280.538 951.84 281.09C951.84 281.642 951.392 282.09 950.84 282.09H19.87C19.3177 282.09 18.87 281.642 18.87 281.09Z" fill="#00ABFF"/>
<path fill-rule="evenodd" clip-rule="evenodd" d="M18.87 259.2C18.87 258.648 19.3177 258.2 19.87 258.2H950.84C951.392 258.2 951.84 258.648 951.84 259.2C951.84 259.752 951.392 260.2 950.84 260.2H19.87C19.3177 260.2 18.87 259.752 18.87 259.2Z" fill="#00ABFF"/>
<path fill-rule="evenodd" clip-rule="evenodd" d="M18.87 237.31C18.87 236.758 19.3177 236.31 19.87 236.31H950.84C951.392 236.31 951.84 236.758 951.84 237.31C951.84 237.862 951.392 238.31 950.84 238.31H19.87C19.3177 238.31 18.87 237.862 18.87 237.31Z" fill="#00ABFF"/>
<path fill-rule="evenodd" clip-rule="evenodd" d="M764.64 214.41C765.192 214.41 765.64 214.858 765.64 215.41V302.98C765.64 303.532 765.192 303.98 764.64 303.98C764.088 303.98 763.64 303.532 763.64 302.98V215.41C763.64 214.858 764.088 214.41 764.64 214.41Z" fill="#00ABFF"/>
<path fill-rule="evenodd" clip-rule="evenodd" d="M578.45 214.41C579.002 214.41 579.45 214.858 579.45 215.41V302.98C579.45 303.532 579.002 303.98 578.45 303.98C577.898 303.98 577.45 303.532 577.45 302.98V215.41C577.45 214.858 577.898 214.41 578.45 214.41Z" fill="#00ABFF"/>
<path fill-rule="evenodd" clip-rule="evenodd" d="M392.26 214.41C392.812 214.41 393.26 214.858 393.26 215.41V302.98C393.26 303.532 392.812 303.98 392.26 303.98C391.708 303.98 391.26 303.532 391.26 302.98V215.41C391.26 214.858 391.708 214.41 392.26 214.41Z" fill="#00ABFF"/>
<path fill-rule="evenodd" clip-rule="evenodd" d="M206.06 214.41C206.612 214.41 207.06 214.858 207.06 215.41V302.98C207.06 303.532 206.612 303.98 206.06 303.98C205.508 303.98 205.06 303.532 205.06 302.98V215.41C205.06 214.858 205.508 214.41 206.06 214.41Z" fill="#00ABFF"/>
<path fill-rule="evenodd" clip-rule="evenodd" d="M391.26 11.0701C391.26 10.5178 391.708 10.0701 392.26 10.0701H1323.23C1323.78 10.0701 1324.23 10.5178 1324.23 11.0701V98.6401C1324.23 99.1924 1323.78 99.6401 1323.23 99.6401H392.26C391.708 99.6401 391.26 99.1924 391.26 98.6401V11.0701ZM393.26 12.0701V97.6401H1322.23V12.0701H393.26Z" fill="#00ABFF"/>
<path fill-rule="evenodd" clip-rule="evenodd" d="M391.26 76.7401C391.26 76.1878 391.708 75.7401 392.26 75.7401H1323.23C1323.78 75.7401 1324.23 76.1878 1324.23 76.7401C1324.23 77.2924 1323.78 77.7401 1323.23 77.7401H392.26C391.708 77.7401 391.26 77.2924 391.26 76.7401Z" fill="#00ABFF"/>
<path fill-rule="evenodd" clip-rule="evenodd" d="M391.26 54.8501C391.26 54.2978 391.708 53.8501 392.26 53.8501H1323.23C1323.78 53.8501 1324.23 54.2978 1324.23 54.8501C1324.23 55.4024 1323.78 55.8501 1323.23 55.8501H392.26C391.708 55.8501 391.26 55.4024 391.26 54.8501Z" fill="#00ABFF"/>
<path fill-rule="evenodd" clip-rule="evenodd" d="M391.26 32.9601C391.26 32.4078 391.708 31.9601 392.26 31.9601H1323.23C1323.78 31.9601 1324.23 32.4078 1324.23 32.9601C1324.23 33.5124 1323.78 33.9601 1323.23 33.9601H392.26C391.708 33.9601 391.26 33.5124 391.26 32.9601Z" fill="#00ABFF"/>
<path fill-rule="evenodd" clip-rule="evenodd" d="M1137.03 10.0701C1137.58 10.0701 1138.03 10.5178 1138.03 11.0701V98.6301C1138.03 99.1824 1137.58 99.6301 1137.03 99.6301C1136.48 99.6301 1136.03 99.1824 1136.03 98.6301V11.0701C1136.03 10.5178 1136.48 10.0701 1137.03 10.0701Z" fill="#00ABFF"/>
<path fill-rule="evenodd" clip-rule="evenodd" d="M950.84 10.0701C951.392 10.0701 951.84 10.5178 951.84 11.0701V98.6301C951.84 99.1824 951.392 99.6301 950.84 99.6301C950.288 99.6301 949.84 99.1824 949.84 98.6301V11.0701C949.84 10.5178 950.288 10.0701 950.84 10.0701Z" fill="#00ABFF"/>
<path fill-rule="evenodd" clip-rule="evenodd" d="M764.64 10.0701C765.192 10.0701 765.64 10.5178 765.64 11.0701V98.6301C765.64 99.1824 765.192 99.6301 764.64 99.6301C764.088 99.6301 763.64 99.1824 763.64 98.6301V11.0701C763.64 10.5178 764.088 10.0701 764.64 10.0701Z" fill="#00ABFF"/>
<path fill-rule="evenodd" clip-rule="evenodd" d="M578.45 10.0701C579.002 10.0701 579.45 10.5178 579.45 11.0701V98.6301C579.45 99.1824 579.002 99.6301 578.45 99.6301C577.898 99.6301 577.45 99.1824 577.45 98.6301V11.0701C577.45 10.5178 577.898 10.0701 578.45 10.0701Z" fill="#00ABFF"/>
<path fill-rule="evenodd" clip-rule="evenodd" d="M357.61 431.04C357.61 430.488 358.058 430.04 358.61 430.04H1289.58C1290.13 430.04 1290.58 430.488 1290.58 431.04V518.61C1290.58 519.162 1290.13 519.61 1289.58 519.61H358.61C358.058 519.61 357.61 519.162 357.61 518.61V431.04ZM359.61 432.04V517.61H1288.58V432.04H359.61Z" fill="#00ABFF"/>
<path fill-rule="evenodd" clip-rule="evenodd" d="M357.61 452.93C357.61 452.378 358.058 451.93 358.61 451.93H1289.58C1290.13 451.93 1290.58 452.378 1290.58 452.93C1290.58 453.482 1290.13 453.93 1289.58 453.93H358.61C358.058 453.93 357.61 453.482 357.61 452.93Z" fill="#00ABFF"/>
<path fill-rule="evenodd" clip-rule="evenodd" d="M1102.89 518.6V431.04H1103.89V518.6H1102.89Z" fill="#00ABFF"/>
<path fill-rule="evenodd" clip-rule="evenodd" d="M917.2 430.04C917.752 430.04 918.2 430.488 918.2 431.04V518.6C918.2 519.152 917.752 519.6 917.2 519.6C916.648 519.6 916.2 519.152 916.2 518.6V431.04C916.2 430.488 916.648 430.04 917.2 430.04Z" fill="#00ABFF"/>
<path fill-rule="evenodd" clip-rule="evenodd" d="M731 430.04C731.552 430.04 732 430.488 732 431.04V518.6C732 519.152 731.552 519.6 731 519.6C730.448 519.6 730 519.152 730 518.6V431.04C730 430.488 730.448 430.04 731 430.04Z" fill="#00ABFF"/>
<path fill-rule="evenodd" clip-rule="evenodd" d="M544.81 430.04C545.362 430.04 545.81 430.488 545.81 431.04V518.6C545.81 519.152 545.362 519.6 544.81 519.6C544.258 519.6 543.81 519.152 543.81 518.6V431.04C543.81 430.488 544.258 430.04 544.81 430.04Z" fill="#00ABFF"/>
<path d="M1285.35 294.07L1236.96 306.96C1234.77 307.54 1233.25 309.52 1233.25 311.78V358.26C1233.25 348.85 1224.16 341.57 1214.29 344.72C1208.48 346.57 1204.68 352.17 1204.68 358.26C1204.68 366.15 1211.08 372.55 1218.97 372.55H1233.26C1238.32 372.55 1242.43 368.44 1242.43 363.38V318.3L1285.36 306.87V341.95C1285.36 334.06 1278.96 327.66 1271.07 327.66C1264.97 327.66 1259.38 331.46 1257.53 337.27C1254.38 347.14 1261.67 356.23 1271.07 356.23H1285.36C1290.42 356.23 1294.53 352.12 1294.53 347.06V298.12C1294.53 294.84 1291.42 292.45 1288.25 293.3L1285.36 294.07H1285.35Z" fill="#FD6632"/>
<path d="M1092.91 60.41L1016.59 80.74C1013.14 81.66 1010.74 84.78 1010.74 88.35V161.65C1010.74 146.82 996.41 135.33 980.83 140.29C971.67 143.21 965.68 152.03 965.68 161.65C965.68 174.09 975.77 184.18 988.21 184.18H1010.74C1018.73 184.18 1025.2 177.71 1025.2 169.72V98.63L1092.9 80.6V135.92C1092.9 123.48 1082.81 113.39 1070.37 113.39C1060.76 113.39 1051.93 119.38 1049.01 128.54C1044.05 144.11 1055.53 158.45 1070.37 158.45H1092.9C1100.89 158.45 1107.36 151.98 1107.36 143.99V66.81C1107.36 61.64 1102.46 57.87 1097.46 59.2L1092.9 60.42L1092.91 60.41Z" fill="#FFC033"/>
<path d="M540.84 246.67L451.7 270.41C447.67 271.48 444.87 275.13 444.87 279.29V364.91C444.87 347.59 428.13 334.17 409.94 339.97C399.24 343.38 392.24 353.69 392.24 364.91C392.24 379.44 404.02 391.22 418.55 391.22H444.86C454.19 391.22 461.75 383.66 461.75 374.33V291.3L540.82 270.24V334.85C540.82 320.32 529.04 308.54 514.51 308.54C503.28 308.54 492.97 315.54 489.57 326.24C483.78 344.43 497.19 361.17 514.51 361.17H540.82C550.15 361.17 557.71 353.61 557.71 344.28V254.14C557.71 248.1 551.99 243.7 546.15 245.26L540.82 246.68L540.84 246.67Z" fill="#FD6632"/>
<path d="M206.24 171.68L202.38 172.72L137.63 189.97C134.71 190.75 132.66 193.39 132.66 196.4V258.61C132.66 246.03 120.5 236.27 107.28 240.49C99.5299 242.96 94.4399 250.46 94.4399 258.61C94.4399 262.9 95.8499 266.83 98.2099 270.04C98.7799 270.77 99.3899 271.48 100.05 272.14C103.49 275.58 108.27 277.72 113.55 277.72H132.66C136.05 277.72 139.12 276.35 141.33 274.14C143.57 271.9 144.94 268.84 144.94 265.47V228.12L172.82 220.7C172.56 220.84 172.33 221.01 172.09 221.17C168.89 223.41 166.41 226.64 165.16 230.52C163.04 237.12 164.43 243.48 167.94 248.17C171.4 252.86 176.99 255.9 183.28 255.9H202.39C205.78 255.9 208.85 254.51 211.08 252.29C213.29 250.08 214.66 247.01 214.66 243.62V178.14C214.66 173.76 210.49 170.55 206.25 171.68H206.24ZM202.38 236.76C202.38 226.49 194.27 218.1 184.09 217.67L202.38 212.79V236.75V236.76ZM144.93 210.98V205.14L202.38 189.82V195.69L144.93 210.98Z" fill="#FFAECD"/>
<path d="M950.46 206.29L946.6 207.33L881.85 224.58C878.93 225.36 876.88 228 876.88 231.01V293.22C876.88 280.64 864.72 270.88 851.5 275.1C843.75 277.57 838.66 285.07 838.66 293.22C838.66 297.51 840.07 301.44 842.43 304.65C843 305.38 843.61 306.09 844.27 306.75C847.71 310.19 852.49 312.33 857.77 312.33H876.88C880.27 312.33 883.34 310.96 885.55 308.75C887.79 306.51 889.16 303.45 889.16 300.08V262.73L917.04 255.31C916.78 255.45 916.55 255.62 916.31 255.78C913.11 258.02 910.63 261.25 909.38 265.13C907.26 271.73 908.65 278.09 912.16 282.78C915.62 287.47 921.21 290.51 927.5 290.51H946.61C950 290.51 953.07 289.12 955.3 286.9C957.51 284.69 958.88 281.62 958.88 278.23V212.75C958.88 208.37 954.71 205.16 950.47 206.29H950.46ZM946.6 271.37C946.6 261.1 938.49 252.71 928.31 252.28L946.6 247.4V271.36V271.37ZM889.15 245.59V239.75L946.6 224.43V230.3L889.15 245.59Z" fill="#58AF67"/>
<path d="M718.23 192.12V246.21C715.6 243.71 712.04 242.16 708.13 242.16C701.86 242.16 696.11 246.07 694.21 252.04C690.98 262.19 698.46 271.54 708.13 271.54H722.82C725.35 271.54 727.4 269.49 727.4 266.96V192.12H718.23Z" fill="#4A8EF5"/>
<path d="M253.08 253.42V307.51C250.45 305.01 246.89 303.46 242.98 303.46C236.71 303.46 230.96 307.37 229.06 313.34C225.83 323.49 233.31 332.84 242.98 332.84H257.67C260.2 332.84 262.25 330.79 262.25 328.26V253.42H253.08Z" fill="#58AF67"/>
<path d="M510.15 58.92V113.01C507.52 110.51 503.96 108.96 500.05 108.96C493.78 108.96 488.03 112.87 486.13 118.84C482.9 128.99 490.38 138.34 500.05 138.34H514.74C517.27 138.34 519.32 136.29 519.32 133.76V58.92H510.15Z" fill="#FFAECD"/>
<path d="M767.18 359.85H746.75V413.94C744.12 411.44 740.56 409.89 736.65 409.89C730.38 409.89 724.63 413.8 722.73 419.77C719.5 429.92 726.98 439.27 736.65 439.27H751.34C753.87 439.27 755.92 437.22 755.92 434.69V383.45C755.92 375.48 762.38 369.02 770.35 369.02H773.04H767.29H781.01V359.85H767.18Z" fill="#FFAECD"/>
<path d="M818.13 70.89H794.67V133C791.65 130.13 787.57 128.36 783.07 128.36C775.87 128.36 769.27 132.85 767.08 139.7C763.37 151.36 771.96 162.09 783.07 162.09H799.94C802.85 162.09 805.2 159.73 805.2 156.83V98C805.2 88.85 812.62 81.43 821.77 81.43H824.86H818.25H834.01V70.9H818.13V70.89Z" fill="#FD6632"/>
<path d="M354 173.12H333.57V227.21C330.94 224.71 327.38 223.16 323.47 223.16C317.2 223.16 311.45 227.07 309.55 233.04C306.32 243.19 313.8 252.54 323.47 252.54H338.16C340.69 252.54 342.74 250.49 342.74 247.96V196.72C342.74 188.75 349.2 182.29 357.17 182.29H359.86H354.11H367.83V173.12H354Z" fill="#FFC033"/>
<path fill-rule="evenodd" clip-rule="evenodd" d="M550.097 269.259L462.297 293.239L461.243 289.381L549.043 265.401L550.097 269.259Z" fill="#CC532A"/>
<path fill-rule="evenodd" clip-rule="evenodd" d="M209.402 188.655L145.192 206.105L144.668 204.175L208.878 186.725L209.402 188.655Z" fill="#EB6D98"/>
<path fill-rule="evenodd" clip-rule="evenodd" d="M209.402 211.955L145.192 229.405L144.668 227.475L208.878 210.025L209.402 211.955Z" fill="#EB6D98"/>
<path fill-rule="evenodd" clip-rule="evenodd" d="M951.174 223.795L889.414 240.715L888.886 238.786L950.646 221.866L951.174 223.795Z" fill="#378D30"/>
<path fill-rule="evenodd" clip-rule="evenodd" d="M951.174 246.564L889.414 263.494L888.886 261.566L950.646 244.636L951.174 246.564Z" fill="#378D30"/>
<path fill-rule="evenodd" clip-rule="evenodd" d="M1098.01 81.4436L1025.71 100.554L1024.69 96.6864L1096.99 77.5764L1098.01 81.4436Z" fill="#E6AF33"/>
<path fill-rule="evenodd" clip-rule="evenodd" d="M753 368.02H781.01V370.02H753V368.02Z" fill="#EB6D98"/>
<path fill-rule="evenodd" clip-rule="evenodd" d="M805.99 80.42H834.01V82.42H805.99V80.42Z" fill="#CC532A"/>
<path fill-rule="evenodd" clip-rule="evenodd" d="M342.07 181.29H367.83V183.29H342.07V181.29Z" fill="#FFC033"/>
<path fill-rule="evenodd" clip-rule="evenodd" d="M1285.61 307.836L1242.68 319.266L1242.16 317.334L1285.09 305.904L1285.61 307.836Z" fill="#CC532A"/>
<path d="M1172.98 172.81L1176.62 174.29L1175.13 190.22C1174.44 197.57 1178.89 204.43 1185.87 206.81L1200.12 211.66C1200.12 211.66 1205.57 161.96 1181.84 166.9C1178.25 167.65 1175.11 169.83 1172.98 172.81Z" fill="#502400"/>
<path fill-rule="evenodd" clip-rule="evenodd" d="M824.1 130.73C870.086 130.73 911.948 157.223 931.643 198.772L931.843 199.19L930.037 200.05L929.836 199.628C910.472 158.777 869.313 132.73 824.1 132.73V130.73Z" fill="#4C8431"/>
<path fill-rule="evenodd" clip-rule="evenodd" d="M1173.47 252.814C1173.47 252.815 1173.47 252.815 1172.78 253.54C1172.09 254.265 1172.09 254.265 1172.09 254.264L1172.09 254.262L1172.08 254.252L1172.03 254.21C1171.99 254.172 1171.93 254.115 1171.85 254.039C1171.68 253.887 1171.44 253.662 1171.11 253.371C1170.46 252.789 1169.48 251.942 1168.21 250.893C1165.67 248.793 1161.95 245.882 1157.22 242.646C1147.75 236.171 1134.27 228.41 1118.23 223.239C1102.18 218.07 1083.58 215.496 1063.85 219.362C1044.12 223.227 1023.19 233.54 1002.49 254.247L1001.07 252.833C1022.04 231.87 1043.32 221.348 1063.47 217.4C1083.61 213.453 1102.55 216.088 1118.84 221.336C1135.12 226.582 1148.77 234.448 1158.35 240.995C1163.13 244.27 1166.91 247.219 1169.49 249.351C1170.78 250.417 1171.77 251.28 1172.44 251.878C1172.78 252.177 1173.03 252.409 1173.2 252.568C1173.25 252.607 1173.28 252.642 1173.32 252.672C1173.35 252.703 1173.38 252.729 1173.4 252.75L1173.45 252.798L1173.47 252.814Z" fill="#FBBA06"/>
<path fill-rule="evenodd" clip-rule="evenodd" d="M732.213 393.167C710.793 371.748 676.067 371.748 654.647 393.167L653.233 391.753C675.433 369.552 711.427 369.552 733.627 391.753L732.213 393.167Z" fill="#FFF8EB"/>
<path fill-rule="evenodd" clip-rule="evenodd" d="M537.447 153.507C519.896 171.058 491.443 171.058 473.893 153.507L475.307 152.093C492.077 168.862 519.263 168.862 536.033 152.093L537.447 153.507Z" fill="#FFAECD"/>
<path d="M1201.89 219.52C1204.44 219.52 1206.51 217.452 1206.51 214.9C1206.51 212.348 1204.44 210.28 1201.89 210.28C1199.34 210.28 1197.27 212.348 1197.27 214.9C1197.27 217.452 1199.34 219.52 1201.89 219.52Z" fill="#502400"/>
<path d="M1205.92 225.01C1207.81 225.01 1209.35 223.474 1209.35 221.58C1209.35 219.686 1207.81 218.15 1205.92 218.15C1204.03 218.15 1202.49 219.686 1202.49 221.58C1202.49 223.474 1204.03 225.01 1205.92 225.01Z" fill="#502400"/>
<path d="M1208.93 228.82C1210.27 228.82 1211.36 227.732 1211.36 226.39C1211.36 225.048 1210.27 223.96 1208.93 223.96C1207.59 223.96 1206.5 225.048 1206.5 226.39C1206.5 227.732 1207.59 228.82 1208.93 228.82Z" fill="#502400"/>
</g>
</g>
</g>
<defs>
<clipPath id="clip0_1528_83332">
<rect width="1335" height="464" fill="white"/>
</clipPath>
<clipPath id="clip1_1528_83332">
<rect width="1335" height="464" fill="white"/>
</clipPath>
</defs>
</svg>
