<svg width="1335" height="464" viewBox="0 0 1335 464" fill="none" xmlns="http://www.w3.org/2000/svg">
<g clip-path="url(#clip0_1528_83613)">
<rect width="1335" height="464" fill="#CDE6D0"/>
<mask id="mask0_1528_83613" style="mask-type:luminance" maskUnits="userSpaceOnUse" x="0" y="-1" width="1335" height="466">
<path d="M1335 465L0 463.618V-0.509347L1335 -1V465Z" fill="white"/>
</mask>
<g mask="url(#mask0_1528_83613)">
<rect y="-1" width="1335" height="464" fill="#CDE6D0"/>
<path d="M889.339 75.0161C887.359 89.5061 877.589 100.876 867.539 111.126C857.949 120.906 847.129 131.266 832.839 135.506C819.819 139.376 805.119 137.166 790.249 135.126C775.379 133.096 760.619 131.276 749.119 124.056C736.499 116.126 728.849 103.256 722.239 91.2561C715.309 78.6761 708.949 65.1061 710.929 50.6161C712.909 36.1261 722.679 24.7561 732.729 14.5061C742.319 4.7261 753.139 -5.6339 767.429 -9.8739C780.449 -13.7439 795.149 -11.5339 810.019 -9.4939C824.889 -7.4639 839.649 -5.6439 851.149 1.5761C863.769 9.5061 871.419 22.3761 878.029 34.3761C884.959 46.9561 891.319 60.5261 889.339 75.0161Z" fill="#FCD632"/>
<path d="M599.551 165.066H904.711C940.301 165.066 958.121 122.036 932.961 96.8763C917.361 81.2763 892.071 81.2763 876.471 96.8763L853.951 119.396C837.611 135.736 811.111 135.736 794.771 119.396L725.681 50.3063C677.211 1.83625 598.311 2.92625 551.191 52.7062C528.081 77.1162 526.791 114.926 548.181 140.856C560.831 156.186 579.671 165.066 599.551 165.066Z" fill="#FFF8EB"/>
<path d="M11.3595 248.001H1323.34C1329.96 248.001 1335.34 253.381 1335.34 260.001V504.351H-0.640503V260.001C-0.640503 253.381 4.7395 248.001 11.3595 248.001Z" fill="#58AF67"/>
<path fill-rule="evenodd" clip-rule="evenodd" d="M389.859 456.565C389.764 456.542 389.53 456.487 388.95 456.35C387.977 456.12 387.977 456.119 387.977 456.118L387.978 456.113L387.982 456.096L387.998 456.035C388.011 455.981 388.03 455.903 388.057 455.802C388.109 455.598 388.189 455.301 388.297 454.917C388.515 454.15 388.85 453.037 389.324 451.643C390.272 448.855 391.776 444.938 394.003 440.406C398.457 431.346 405.816 419.798 417.436 409.89C440.753 390.01 480.959 376.951 548.501 403.118L547.779 404.982C480.762 379.019 441.372 392.11 418.734 411.412C407.377 421.096 400.168 432.397 395.798 441.288C393.614 445.732 392.143 449.567 391.218 452.287C390.756 453.646 390.43 454.726 390.222 455.463C390.117 455.831 390.042 456.114 389.993 456.302C389.968 456.397 389.951 456.468 389.939 456.514L389.927 456.566L389.924 456.577L389.923 456.58C389.923 456.58 389.923 456.58 389.859 456.565Z" fill="#4A8EF5"/>
<path d="M363.13 357.1H206.18V371.94H363.13V357.1Z" fill="white"/>
<path fill-rule="evenodd" clip-rule="evenodd" d="M234.515 479.442C234.419 479.455 234.18 479.488 233.59 479.57C232.599 479.708 232.599 479.706 232.599 479.705L232.598 479.7L232.596 479.683L232.588 479.62C232.581 479.565 232.571 479.486 232.559 479.381C232.534 479.173 232.501 478.867 232.464 478.47C232.389 477.675 232.3 476.517 232.238 475.045C232.115 472.103 232.103 467.908 232.542 462.877C233.422 452.819 236.112 439.392 243.369 425.955C257.929 398.992 290.703 372.29 363.14 372.29V374.29C291.267 374.29 259.266 400.727 245.129 426.905C238.036 440.038 235.398 453.181 234.535 463.051C234.104 467.984 234.117 472.092 234.237 474.961C234.297 476.396 234.384 477.521 234.455 478.283C234.491 478.664 234.523 478.955 234.545 479.149C234.557 479.246 234.566 479.318 234.572 479.366L234.579 479.418L234.58 479.43L234.58 479.432C234.58 479.433 234.58 479.433 234.515 479.442Z" fill="#4A8EF5"/>
<path d="M-0.999878 337.001H744.088C755.628 337.001 765 347.504 765 360.438V465.001H-0.999878V337.011V337.001Z" fill="#4A974A"/>
<path fill-rule="evenodd" clip-rule="evenodd" d="M1018.63 230.065C1028.69 205.047 1052.94 188.66 1079.9 188.66C1125.78 188.66 1157.68 234.303 1141.91 277.388L1140.03 276.7L1141.91 277.388L1051.64 524.018L1047.88 522.643L1138.15 276.013C1152.96 235.538 1123 192.66 1079.9 192.66C1054.58 192.66 1031.79 208.054 1022.35 231.556L904.785 524.066L901.074 522.575L1018.63 230.065Z" fill="#1C3A16"/>
<path d="M912.48 391.54H1104.63V373.37H912.48V391.54Z" fill="#1C3A16"/>
<path fill-rule="evenodd" clip-rule="evenodd" d="M1073.07 523.601C1073.07 523.604 1073.07 523.605 1071.09 523.33C1069.11 523.055 1069.11 523.056 1069.11 523.056L1069.11 523.055L1069.11 523.042L1069.12 522.982C1069.12 522.948 1069.13 522.901 1069.14 522.843C1069.14 522.808 1069.14 522.769 1069.15 522.725C1069.18 522.493 1069.21 522.143 1069.26 521.683C1069.34 520.761 1069.45 519.398 1069.52 517.656C1069.67 514.17 1069.68 509.174 1069.16 503.173C1068.11 491.163 1064.9 475.181 1056.28 459.221C1039.14 427.475 1000.26 395.21 912.48 395.21V391.21C1001.38 391.21 1041.81 424.005 1059.8 457.32C1068.75 473.89 1072.06 490.438 1073.14 502.825C1073.69 509.023 1073.67 514.193 1073.52 517.823C1073.44 519.639 1073.33 521.071 1073.24 522.055C1073.19 522.548 1073.15 522.929 1073.12 523.189C1073.11 523.32 1073.09 523.421 1073.09 523.49L1073.08 523.571L1073.07 523.594L1073.07 523.601Z" fill="#1C3A16"/>
<path fill-rule="evenodd" clip-rule="evenodd" d="M748.26 277.36H664.61V273.36H748.26C791.514 273.36 826.58 308.426 826.58 351.68V517.33H822.58V351.68C822.58 310.635 789.305 277.36 748.26 277.36Z" fill="#1C3A16"/>
<path fill-rule="evenodd" clip-rule="evenodd" d="M854.1 351.68C854.1 308.426 889.165 273.36 932.42 273.36H1016.07V277.36H932.42C891.374 277.36 858.1 310.635 858.1 351.68V517.33H854.1V351.68Z" fill="#1C3A16"/>
<path fill-rule="evenodd" clip-rule="evenodd" d="M838.34 538.85V272.27H842.34V538.85H838.34Z" fill="#1C3A16"/>
<path d="M1048.5 259.16H615.92V277.33H1048.5V259.16Z" fill="#F8F7D9"/>
<path fill-rule="evenodd" clip-rule="evenodd" d="M548.848 276.013C548.848 276.013 548.848 276.013 548.848 276.013L639.118 522.643L635.362 524.018L545.091 277.388L545.091 277.388C529.324 234.303 561.22 188.66 607.1 188.66C634.056 188.66 658.311 205.047 668.365 230.065L785.925 522.575L782.214 524.066L664.654 231.556C655.209 208.054 632.423 192.66 607.1 192.66C563.999 192.66 534.035 235.538 548.848 276.013Z" fill="#1C3A16"/>
<path d="M774.52 373.38H582.37V391.55H774.52V373.38Z" fill="#1C3A16"/>
<path fill-rule="evenodd" clip-rule="evenodd" d="M617.901 519.056C617.901 519.056 617.901 519.055 615.92 519.33C613.939 519.605 613.938 519.604 613.938 519.601L613.937 519.594L613.934 519.571L613.923 519.49C613.915 519.42 613.902 519.32 613.887 519.189C613.856 518.928 613.815 518.548 613.769 518.055C613.676 517.071 613.566 515.639 613.49 513.823C613.338 510.192 613.323 505.022 613.864 498.825C614.947 486.438 618.262 469.889 627.21 453.32C645.201 420.005 685.626 387.21 774.53 387.21V391.21C686.753 391.21 647.873 423.475 630.729 455.221C622.11 471.181 618.899 487.162 617.849 499.173C617.325 505.174 617.341 510.17 617.487 513.655C617.559 515.398 617.665 516.761 617.751 517.682C617.794 518.143 617.833 518.493 617.86 518.725C617.873 518.84 617.884 518.926 617.891 518.982L617.899 519.042L617.901 519.054L617.901 519.056Z" fill="#1C3A16"/>
<path d="M1082.76 178.85L1036.83 240.25L961.51 249.27C958.76 249.6 955.99 249.57 953.25 249.17L938.39 247.04C934.18 246.44 929.89 246.68 925.78 247.77L900.66 254.38C899.59 254.66 898.85 255.63 898.85 256.73C898.85 258.07 899.94 259.16 901.28 259.16H1082.77V178.85H1082.76Z" fill="#FF9987"/>
<path d="M1090.94 64.0904C1090.94 64.0904 1077.03 62.4704 1066.01 75.7504C1054.99 89.0304 1051.23 134.09 1113.34 154.12C1175.45 174.15 1139.07 63.1904 1090.94 64.0904Z" fill="#FCD632"/>
<path d="M1066.21 166.31C1064.72 161.67 1065.78 156.59 1069 152.94L1078.35 142.33L1074.58 109.44C1074.58 109.44 1078.71 95.1104 1092.12 95.1104V175.91H1079.36C1073.35 175.91 1068.03 172.03 1066.2 166.31H1066.21Z" fill="#712815"/>
<mask id="mask1_1528_83613" style="mask-type:luminance" maskUnits="userSpaceOnUse" x="828" y="357" width="113" height="150">
<path d="M884.06 357.46L828.84 506H844.62L940.61 373.96L884.06 357.46Z" fill="white"/>
</mask>
<g mask="url(#mask1_1528_83613)">
<path d="M884.06 357.46L828.84 506H844.62L940.61 373.96L884.06 357.46Z" fill="#FF9987"/>
<path d="M874.81 490.12L856.11 424.19V403.55H902.93V490.12H874.81Z" fill="#FF8677"/>
</g>
<path d="M1122.2 277.82L1108.52 330.95C1102.95 352.63 1084.77 368.79 1062.53 371.77L1025.91 376.7V505.99H880.28L903.36 438.56L878.91 425.84L813.64 391.91L864.76 325.88C880.92 304.99 907.24 294.63 933.33 298.89L1013.63 311.96L1052.01 277.82H1122.2Z" fill="#FF7CAE"/>
<path d="M880.28 505.99L903.36 438.56L878.91 425.84L933 353.33L880.28 505.99Z" fill="#FF5798"/>
<path fill-rule="evenodd" clip-rule="evenodd" d="M980.29 372.14H1058.86V374.14H980.29V372.14Z" fill="#FF5798"/>
<path d="M923.86 259.16H893.73C893.22 259.16 893.08 258.46 893.54 258.24L902.16 254.34C903.86 253.56 905.66 253.13 907.49 252.97V238.94C903.29 238.62 899.55 236.81 896.75 234.07C892.93 230.35 890.83 224.89 891.74 219.1L894 204.59H923.56L925.85 219.1C926.77 224.89 924.67 230.35 920.84 234.1C918.04 236.82 914.3 238.62 910.1 238.95V252.98C911.93 253.14 913.73 253.57 915.43 254.35L924.05 258.25C924.51 258.47 924.37 259.17 923.86 259.17V259.16Z" fill="#EAF4FC"/>
<path d="M920.85 234.1C918.05 236.82 914.31 238.62 910.11 238.95V239.68C909.25 239.73 908.39 239.73 907.5 239.68V238.95C903.3 238.63 899.56 236.82 896.76 234.08C904.54 231.12 913.1 231.12 920.86 234.11L920.85 234.1Z" fill="#CEE7FB"/>
<path d="M910.1 238.94H907.49V241.55H910.1V238.94Z" fill="#041F49"/>
<path d="M976.53 211.54H983.24C992.23 211.54 999.54 218.84 999.54 227.84V234.55H992.83C983.84 234.55 976.53 227.25 976.53 218.25V211.54Z" fill="#FCD632"/>
<path d="M972.633 219.103L970.658 225.516C968.012 234.107 958.883 238.944 950.282 236.295L943.869 234.32L945.845 227.907C948.491 219.315 957.619 214.478 966.221 217.128L972.633 219.103Z" fill="#1D9B3E"/>
<path d="M1020.09 220.824L1018.11 227.236C1015.47 235.828 1006.34 240.665 997.737 238.016L991.325 236.041L993.3 229.628C995.946 221.036 1005.07 216.199 1013.68 218.848L1020.09 220.824Z" fill="#6EAB6E"/>
<path d="M998.16 240.3L995.07 228.07C994.55 225.99 996.11 223.98 998.26 223.98C1000.07 223.98 1001.55 225.45 1001.55 227.27V227.87C1001.55 228.86 1002.75 229.35 1003.45 228.66L1009.72 222.39C1011.53 220.58 1014.48 220.58 1016.29 222.39C1018.1 224.2 1018.1 227.15 1016.29 228.96L1013.76 231.49L1019.58 232.6L998.18 240.3H998.16Z" fill="#1D9B3E"/>
<path d="M991.88 232.6L986.31 224.58C982.86 219.62 975.74 219.05 971.55 223.4L968.31 226.76L955.65 222.74C953.58 222.08 951.31 222.83 950.04 224.59C947.62 227.93 950.01 232.6 954.13 232.6H991.89H991.88Z" fill="#6EAB6E"/>
<path fill-rule="evenodd" clip-rule="evenodd" d="M962.134 219.199C962.134 219.198 962.134 219.198 962.62 219.08L963.106 218.963L963.106 218.965L963.108 218.973L963.116 219.006C963.124 219.036 963.135 219.08 963.15 219.139C963.181 219.258 963.228 219.433 963.291 219.658C963.417 220.108 963.608 220.759 963.869 221.556C964.391 223.15 965.189 225.326 966.295 227.651C968.517 232.324 971.933 237.499 976.75 239.861L976.309 240.759C971.176 238.242 967.637 232.802 965.392 228.08C964.264 225.707 963.45 223.49 962.919 221.867C962.653 221.055 962.457 220.39 962.328 219.927C962.263 219.696 962.215 219.515 962.183 219.391C962.167 219.329 962.154 219.282 962.146 219.249L962.137 219.212L962.135 219.202L962.134 219.199Z" fill="#008C31"/>
<path fill-rule="evenodd" clip-rule="evenodd" d="M980.139 241.912C980.139 241.912 980.139 241.912 979.65 241.81C979.16 241.709 979.16 241.709 979.16 241.709L979.16 241.708L979.161 241.705L979.163 241.696L979.17 241.663C979.176 241.635 979.185 241.594 979.198 241.541C979.223 241.436 979.26 241.283 979.312 241.09C979.416 240.704 979.576 240.155 979.807 239.497C980.267 238.183 981.008 236.427 982.131 234.667C984.377 231.145 988.188 227.56 994.35 227.56C997.432 227.56 999.467 228.564 1000.73 230.147C1001.97 231.708 1002.4 233.754 1002.44 235.724C1002.49 237.701 1002.15 239.665 1001.81 241.126C1001.64 241.858 1001.47 242.469 1001.33 242.898C1001.27 243.112 1001.21 243.281 1001.17 243.398C1001.15 243.456 1001.14 243.501 1001.13 243.532L1001.11 243.567L1001.11 243.577L1001.11 243.58L1001.11 243.58C1001.11 243.581 1001.11 243.581 1000.64 243.41C1000.17 243.24 1000.17 243.24 1000.17 243.24L1000.17 243.24L1000.17 243.238L1000.17 243.231L1000.18 243.201C1000.19 243.174 1000.21 243.133 1000.23 243.078C1000.26 242.97 1000.31 242.809 1000.38 242.604C1000.5 242.193 1000.67 241.605 1000.84 240.898C1001.17 239.481 1001.49 237.607 1001.44 235.747C1001.4 233.88 1000.99 232.088 999.945 230.77C998.914 229.476 997.198 228.56 994.35 228.56C988.651 228.56 985.112 231.851 982.974 235.204C981.904 236.882 981.193 238.563 980.751 239.827C980.529 240.459 980.376 240.984 980.278 241.349C980.229 241.532 980.194 241.675 980.171 241.771C980.16 241.819 980.152 241.855 980.146 241.879L980.141 241.905L980.14 241.911L980.139 241.912L980.139 241.912Z" fill="#008C31"/>
<path fill-rule="evenodd" clip-rule="evenodd" d="M961.464 226.453L963.114 236.973L962.126 237.128L960.476 226.608L961.464 226.453Z" fill="#008C31"/>
<path d="M996.22 236.73C998.501 236.73 1000.35 234.881 1000.35 232.6C1000.35 230.319 998.501 228.47 996.22 228.47C993.939 228.47 992.09 230.319 992.09 232.6C992.09 234.881 993.939 236.73 996.22 236.73Z" fill="#FD6632"/>
<path d="M972.4 237.95C974.681 237.95 976.53 236.101 976.53 233.82C976.53 231.539 974.681 229.69 972.4 229.69C970.119 229.69 968.27 231.539 968.27 233.82C968.27 236.101 970.119 237.95 972.4 237.95Z" fill="#FD6632"/>
<path d="M973.37 224.03C975.651 224.03 977.5 222.181 977.5 219.9C977.5 217.619 975.651 215.77 973.37 215.77C971.089 215.77 969.24 217.619 969.24 219.9C969.24 222.181 971.089 224.03 973.37 224.03Z" fill="#FD6632"/>
<path d="M949.99 236.73C952.271 236.73 954.12 234.881 954.12 232.6C954.12 230.319 952.271 228.47 949.99 228.47C947.709 228.47 945.86 230.319 945.86 232.6C945.86 234.881 947.709 236.73 949.99 236.73Z" fill="#FD6632"/>
<path d="M1019.58 232.6L1016.79 243.89C1014.59 252.85 1006.55 259.17 997.31 259.17H962C959.54 259.17 957.16 258.73 954.94 257.88C954.55 257.75 954.18 257.6 953.81 257.42C948.3 254.94 944.02 250.03 942.52 243.89L939.73 232.6H1019.59H1019.58Z" fill="#EAF4FC"/>
<path d="M1019.58 232.6L1016.79 243.89C1014.59 252.85 1006.55 259.17 997.31 259.17H962C959.54 259.17 957.16 258.73 954.94 257.88H974.23C985.54 257.88 996.37 253.39 1004.37 245.39L1017.16 232.6H1019.58Z" fill="#CEE7FB"/>
<path d="M1114.92 125.52L1107.73 138.91L1108.1 160.98H1108.16L1090.36 169.16L1091.59 140.2L1082.29 137.52C1077.41 136.11 1073.57 132.11 1072.79 127.09C1072.74 126.79 1072.71 126.49 1072.68 126.18L1072.02 118.01L1067.49 115.14C1066.6 114.6 1066.72 113.25 1067.72 112.88L1072.02 111.19C1073.02 110.79 1073.88 110.19 1074.6 109.44L1079.47 104.14L1081.59 101.82C1084.46 98.6704 1088.18 96.5704 1092.14 95.6604C1093.69 95.2904 1095.24 95.1204 1096.81 95.1204C1099.76 95.1204 1102.74 95.7504 1105.55 97.0704C1113.03 100.6 1117.39 108.05 1117.39 115.76C1117.39 119.06 1116.62 122.41 1114.92 125.53V125.52Z" fill="#FF9987"/>
<path d="M1068.5 176.5L1041.25 218.156L1072.09 220.001L1068.5 176.5Z" fill="#EBDCC1"/>
<path d="M1155.46 228.67L1160.82 272.26C1161.85 280.65 1157.57 288.81 1150.08 292.73L1089.36 324.46L1080.86 311.71L1127.4 268.24V228.67H1155.46Z" fill="#FF9987"/>
<path fill-rule="evenodd" clip-rule="evenodd" d="M1092.18 330.727L1075.27 304.837L1076.95 303.744L1093.86 329.634L1092.18 330.727Z" fill="#FF5798"/>
<path d="M1127.3 138.99L1120.25 169.16L1085.79 168.46L1107.73 138.91L1096.38 123.75C1093.77 120.28 1092.31 116.13 1092.17 111.8C1092.14 111.54 1092.14 111.31 1092.14 111.05V95.1104H1099.59C1109.77 95.1104 1118.34 102.71 1119.6 112.8L1120.4 119.08L1121.95 120.43C1127.34 124.96 1129.46 132.3 1127.31 139L1127.3 138.99Z" fill="#712815"/>
<path d="M1098.06 129.58C1099.3 129.58 1100.3 128.246 1100.3 126.6C1100.3 124.955 1099.3 123.62 1098.06 123.62C1096.82 123.62 1095.82 124.955 1095.82 126.6C1095.82 128.246 1096.82 129.58 1098.06 129.58Z" fill="#FCD632"/>
<path d="M1092.13 95.1104C1092.13 95.1104 1113.49 99.1504 1120.39 119.07V95.1104H1092.13Z" fill="#FCD632"/>
<path fill-rule="evenodd" clip-rule="evenodd" d="M1091.68 96.0545C1091.68 96.0545 1091.68 96.0546 1091.76 95.5604C1091.84 95.0663 1091.84 95.0664 1091.84 95.0664L1091.84 95.0666L1091.84 95.0671L1091.85 95.0692L1091.9 95.0769C1091.94 95.0837 1092 95.094 1092.08 95.1082C1092.23 95.1364 1092.46 95.1799 1092.75 95.2417C1093.32 95.3654 1094.15 95.5622 1095.16 95.8565C1097.19 96.4448 1099.96 97.4236 1102.97 98.987C1108.97 102.113 1115.9 107.592 1119.52 116.981L1118.58 117.34C1115.08 108.249 1108.37 102.928 1102.5 99.8739C1099.57 98.3473 1096.86 97.3911 1094.88 96.8169C1093.89 96.5299 1093.09 96.3386 1092.54 96.2194C1092.26 96.1599 1092.04 96.1183 1091.9 96.0918C1091.83 96.0786 1091.77 96.0691 1091.73 96.063L1091.69 96.0564L1091.69 96.0549L1091.68 96.0546L1091.68 96.0545Z" fill="#43281A"/>
<path d="M1072.09 119.07L1077.51 121.19L1072.42 123.17L1072.09 119.07Z" fill="#FD5729"/>
<path d="M1083.13 111.91L1080.82 110.59C1081.29 109.76 1082.18 109.25 1083.13 109.25C1084.59 109.25 1085.79 110.45 1085.79 111.91H1083.13Z" fill="#FF8677"/>
<path d="M1083.13 113.07C1083.77 113.07 1084.29 112.551 1084.29 111.91C1084.29 111.27 1083.77 110.75 1083.13 110.75C1082.49 110.75 1081.97 111.27 1081.97 111.91C1081.97 112.551 1082.49 113.07 1083.13 113.07Z" fill="#241F20"/>
<path d="M1042.79 281.36L1061.16 193.17C1065.3 173.29 1082.82 159.04 1103.13 159.04C1116.23 159.04 1128.34 165.99 1134.96 177.29L1165.19 228.96H1127.41V268.24L1113.36 281.36H1042.79Z" fill="#FFF8EB"/>
<path d="M1127.41 228.66V268.24L1108.26 228.66H1127.41Z" fill="#FF8677"/>
<path fill-rule="evenodd" clip-rule="evenodd" d="M1097.82 227.66H1143.99V229.66H1097.82V227.66Z" fill="#FCD632"/>
<path d="M1097.57 119.07L1099.72 124.26C1099.72 124.26 1102.18 121.03 1101.41 119.07C1100.64 117.11 1097.57 119.07 1097.57 119.07Z" fill="#FF9987"/>
<path fill-rule="evenodd" clip-rule="evenodd" d="M1087.41 110.466L1082.5 107.886L1082.96 107L1087.87 109.58L1087.41 110.466Z" fill="#A34B30"/>
</g>
</g>
<defs>
<clipPath id="clip0_1528_83613">
<rect width="1335" height="464" fill="white"/>
</clipPath>
</defs>
</svg>
