<svg width="1335" height="464" viewBox="0 0 1335 464" fill="none" xmlns="http://www.w3.org/2000/svg">
<g clip-path="url(#clip0_1528_84970)">
<rect width="1335" height="464" fill="#AFA9DE"/>
<mask id="mask0_1528_84970" style="mask-type:luminance" maskUnits="userSpaceOnUse" x="0" y="0" width="1335" height="464">
<path d="M1335 0H0V464H1335V0Z" fill="white"/>
</mask>
<g mask="url(#mask0_1528_84970)">
<path d="M1335 -0.330002H0V464.33H1335V-0.330002Z" fill="#AFA9DE"/>
<path d="M435.75 95.67C446.238 95.67 454.74 87.1679 454.74 76.68C454.74 66.1921 446.238 57.69 435.75 57.69C425.262 57.69 416.76 66.1921 416.76 76.68C416.76 87.1679 425.262 95.67 435.75 95.67Z" fill="#08233A"/>
<path d="M455.53 64.97C466.017 64.97 474.52 56.4679 474.52 45.98C474.52 35.4921 466.017 26.99 455.53 26.99C445.042 26.99 436.54 35.4921 436.54 45.98C436.54 56.4679 445.042 64.97 455.53 64.97Z" fill="#F0809C"/>
<path d="M472.35 33.3C482.838 33.3 491.34 24.7979 491.34 14.31C491.34 3.82212 482.838 -4.67999 472.35 -4.67999C461.862 -4.67999 453.36 3.82212 453.36 14.31C453.36 24.7979 461.862 33.3 472.35 33.3Z" fill="#08233A"/>
<path d="M498.95 7.75C509.438 7.75 517.94 -0.75211 517.94 -11.24C517.94 -21.7279 509.438 -30.23 498.95 -30.23C488.462 -30.23 479.96 -21.7279 479.96 -11.24C479.96 -0.75211 488.462 7.75 498.95 7.75Z" fill="#362C62"/>
<path d="M688.67 10.98C699.158 10.98 707.66 2.47789 707.66 -8.01C707.66 -18.4979 699.158 -27 688.67 -27C678.182 -27 669.68 -18.4979 669.68 -8.01C669.68 2.47789 678.182 10.98 688.67 10.98Z" fill="#005597"/>
<path d="M718.33 31.32C728.818 31.32 737.32 22.8179 737.32 12.33C737.32 1.84211 728.818 -6.66 718.33 -6.66C707.842 -6.66 699.34 1.84211 699.34 12.33C699.34 22.8179 707.842 31.32 718.33 31.32Z" fill="#08233A"/>
<path d="M748.27 52.78C758.758 52.78 767.26 44.2779 767.26 33.79C767.26 23.3021 758.758 14.8 748.27 14.8C737.782 14.8 729.28 23.3021 729.28 33.79C729.28 44.2779 737.782 52.78 748.27 52.78Z" fill="#E3E1F2"/>
<path d="M778.11 74.6C788.598 74.6 797.1 66.0979 797.1 55.61C797.1 45.1221 788.598 36.62 778.11 36.62C767.622 36.62 759.12 45.1221 759.12 55.61C759.12 66.0979 767.622 74.6 778.11 74.6Z" fill="#948DD4"/>
<path d="M815.98 80.06C826.468 80.06 834.97 71.5579 834.97 61.07C834.97 50.5821 826.468 42.08 815.98 42.08C805.492 42.08 796.99 50.5821 796.99 61.07C796.99 71.5579 805.492 80.06 815.98 80.06Z" fill="#F0809C"/>
<path d="M849.4 86.55C859.888 86.55 868.39 78.0479 868.39 67.56C868.39 57.0721 859.888 48.57 849.4 48.57C838.912 48.57 830.41 57.0721 830.41 67.56C830.41 78.0479 838.912 86.55 849.4 86.55Z" fill="#005597"/>
<path d="M882.11 74.03C892.598 74.03 901.1 65.5279 901.1 55.04C901.1 44.5521 892.598 36.05 882.11 36.05C871.622 36.05 863.12 44.5521 863.12 55.04C863.12 65.5279 871.622 74.03 882.11 74.03Z" fill="#57AAE3"/>
<path d="M917.11 68.13C927.598 68.13 936.1 59.6279 936.1 49.14C936.1 38.6521 927.598 30.15 917.11 30.15C906.622 30.15 898.12 38.6521 898.12 49.14C898.12 59.6279 906.622 68.13 917.11 68.13Z" fill="#E3E1F2"/>
<path d="M942.66 46.48C953.148 46.48 961.65 37.9779 961.65 27.49C961.65 17.0021 953.148 8.5 942.66 8.5C932.172 8.5 923.67 17.0021 923.67 27.49C923.67 37.9779 932.172 46.48 942.66 46.48Z" fill="#08233A"/>
<path d="M968.84 22.51C979.328 22.51 987.83 14.0079 987.83 3.52C987.83 -6.96789 979.328 -15.47 968.84 -15.47C958.352 -15.47 949.85 -6.96789 949.85 3.52C949.85 14.0079 958.352 22.51 968.84 22.51Z" fill="#F5CF72"/>
<path d="M1109.99 11.22C1120.48 11.22 1128.98 2.71789 1128.98 -7.76999C1128.98 -18.2579 1120.48 -26.76 1109.99 -26.76C1099.5 -26.76 1091 -18.2579 1091 -7.76999C1091 2.71789 1099.5 11.22 1109.99 11.22Z" fill="#08233A"/>
<path d="M1114.64 47.89C1125.13 47.89 1133.63 39.3879 1133.63 28.9C1133.63 18.4121 1125.13 9.91 1114.64 9.91C1104.15 9.91 1095.65 18.4121 1095.65 28.9C1095.65 39.3879 1104.15 47.89 1114.64 47.89Z" fill="#75C476"/>
<path d="M1133.85 78.67C1144.34 78.67 1152.84 70.1679 1152.84 59.68C1152.84 49.1921 1144.34 40.69 1133.85 40.69C1123.36 40.69 1114.86 49.1921 1114.86 59.68C1114.86 70.1679 1123.36 78.67 1133.85 78.67Z" fill="#005597"/>
<path d="M1143.74 114.76C1154.23 114.76 1162.73 106.258 1162.73 95.77C1162.73 85.2821 1154.23 76.78 1143.74 76.78C1133.25 76.78 1124.75 85.2821 1124.75 95.77C1124.75 106.258 1133.25 114.76 1143.74 114.76Z" fill="#948DD4"/>
<path d="M1153.99 149.5C1164.48 149.5 1172.98 140.998 1172.98 130.51C1172.98 120.022 1164.48 111.52 1153.99 111.52C1143.5 111.52 1135 120.022 1135 130.51C1135 140.998 1143.5 149.5 1153.99 149.5Z" fill="#362C62"/>
<path d="M1158.4 183.72C1168.89 183.72 1177.39 175.218 1177.39 164.73C1177.39 154.242 1168.89 145.74 1158.4 145.74C1147.91 145.74 1139.41 154.242 1139.41 164.73C1139.41 175.218 1147.91 183.72 1158.4 183.72Z" fill="#08233A"/>
<path d="M1178.01 215.05C1188.5 215.05 1197 206.548 1197 196.06C1197 185.572 1188.5 177.07 1178.01 177.07C1167.52 177.07 1159.02 185.572 1159.02 196.06C1159.02 206.548 1167.52 215.05 1178.01 215.05Z" fill="#E3E1F2"/>
<path d="M1195.45 243.74C1205.94 243.74 1214.44 235.238 1214.44 224.75C1214.44 214.262 1205.94 205.76 1195.45 205.76C1184.96 205.76 1176.46 214.262 1176.46 224.75C1176.46 235.238 1184.96 243.74 1195.45 243.74Z" fill="#E3E1F2"/>
<path d="M1225.61 262.74C1236.1 262.74 1244.6 254.238 1244.6 243.75C1244.6 233.262 1236.1 224.76 1225.61 224.76C1215.12 224.76 1206.62 233.262 1206.62 243.75C1206.62 254.238 1215.12 262.74 1225.61 262.74Z" fill="#08233A"/>
<path d="M1256 275.57C1266.49 275.57 1274.99 267.068 1274.99 256.58C1274.99 246.092 1266.49 237.59 1256 237.59C1245.51 237.59 1237.01 246.092 1237.01 256.58C1237.01 267.068 1245.51 275.57 1256 275.57Z" fill="#E3E1F2"/>
<path d="M1287.83 264.52C1298.32 264.52 1306.82 256.018 1306.82 245.53C1306.82 235.042 1298.32 226.54 1287.83 226.54C1277.34 226.54 1268.84 235.042 1268.84 245.53C1268.84 256.018 1277.34 264.52 1287.83 264.52Z" fill="#005597"/>
<path d="M1322.35 254.21C1332.84 254.21 1341.34 245.708 1341.34 235.22C1341.34 224.732 1332.84 216.23 1322.35 216.23C1311.86 216.23 1303.36 224.732 1303.36 235.22C1303.36 245.708 1311.86 254.21 1322.35 254.21Z" fill="#F0809C"/>
<path d="M1352.57 242.73C1363.06 242.73 1371.56 234.228 1371.56 223.74C1371.56 213.252 1363.06 204.75 1352.57 204.75C1342.08 204.75 1333.58 213.252 1333.58 223.74C1333.58 234.228 1342.08 242.73 1352.57 242.73Z" fill="#08233A"/>
<path d="M1175.61 497.4C1186.1 497.4 1194.6 488.898 1194.6 478.41C1194.6 467.922 1186.1 459.42 1175.61 459.42C1165.12 459.42 1156.62 467.922 1156.62 478.41C1156.62 488.898 1165.12 497.4 1175.61 497.4Z" fill="#08233A"/>
<path d="M1164.89 464.33C1175.38 464.33 1183.88 455.828 1183.88 445.34C1183.88 434.852 1175.38 426.35 1164.89 426.35C1154.4 426.35 1145.9 434.852 1145.9 445.34C1145.9 455.828 1154.4 464.33 1164.89 464.33Z" fill="#E3E1F2"/>
<path d="M1162.5 429.72C1172.99 429.72 1181.49 421.218 1181.49 410.73C1181.49 400.242 1172.99 391.74 1162.5 391.74C1152.01 391.74 1143.51 400.242 1143.51 410.73C1143.51 421.218 1152.01 429.72 1162.5 429.72Z" fill="#948DD4"/>
<path d="M1184.17 401.86C1194.66 401.86 1203.16 393.358 1203.16 382.87C1203.16 372.382 1194.66 363.88 1184.17 363.88C1173.68 363.88 1165.18 372.382 1165.18 382.87C1165.18 393.358 1173.68 401.86 1184.17 401.86Z" fill="#57AAE3"/>
<path d="M1218.99 389.98C1229.48 389.98 1237.98 381.478 1237.98 370.99C1237.98 360.502 1229.48 352 1218.99 352C1208.5 352 1200 360.502 1200 370.99C1200 381.478 1208.5 389.98 1218.99 389.98Z" fill="#948DD4"/>
<path d="M1255.49 395.77C1265.98 395.77 1274.48 387.268 1274.48 376.78C1274.48 366.292 1265.98 357.79 1255.49 357.79C1245 357.79 1236.5 366.292 1236.5 376.78C1236.5 387.268 1245 395.77 1255.49 395.77Z" fill="#75C476"/>
<path d="M1290.41 385.95C1300.9 385.95 1309.4 377.448 1309.4 366.96C1309.4 356.472 1300.9 347.97 1290.41 347.97C1279.92 347.97 1271.42 356.472 1271.42 366.96C1271.42 377.448 1279.92 385.95 1290.41 385.95Z" fill="#08233A"/>
<path d="M1327.83 386.55C1338.32 386.55 1346.82 378.048 1346.82 367.56C1346.82 357.072 1338.32 348.57 1327.83 348.57C1317.34 348.57 1308.84 357.072 1308.84 367.56C1308.84 378.048 1317.34 386.55 1327.83 386.55Z" fill="#F5CF72"/>
<path d="M762.25 344.62C772.738 344.62 781.24 336.118 781.24 325.63C781.24 315.142 772.738 306.64 762.25 306.64C751.762 306.64 743.26 315.142 743.26 325.63C743.26 336.118 751.762 344.62 762.25 344.62Z" fill="#005597"/>
<path d="M731.25 363.93C741.738 363.93 750.24 355.428 750.24 344.94C750.24 334.452 741.738 325.95 731.25 325.95C720.762 325.95 712.26 334.452 712.26 344.94C712.26 355.428 720.762 363.93 731.25 363.93Z" fill="#F0809C"/>
<path d="M702.52 385.38C713.008 385.38 721.51 376.878 721.51 366.39C721.51 355.902 713.008 347.4 702.52 347.4C692.032 347.4 683.53 355.902 683.53 366.39C683.53 376.878 692.032 385.38 702.52 385.38Z" fill="#08233A"/>
<path d="M667.55 397.12C678.037 397.12 686.54 388.618 686.54 378.13C686.54 367.642 678.037 359.14 667.55 359.14C657.062 359.14 648.56 367.642 648.56 378.13C648.56 388.618 657.062 397.12 667.55 397.12Z" fill="#E3E1F2"/>
<path d="M632.19 409.3C642.678 409.3 651.18 400.798 651.18 390.31C651.18 379.822 642.678 371.32 632.19 371.32C621.702 371.32 613.2 379.822 613.2 390.31C613.2 400.798 621.702 409.3 632.19 409.3Z" fill="#F5CF72"/>
<path d="M595.98 406.63C606.468 406.63 614.97 398.128 614.97 387.64C614.97 377.152 606.468 368.65 595.98 368.65C585.492 368.65 576.99 377.152 576.99 387.64C576.99 398.128 585.492 406.63 595.98 406.63Z" fill="#57AAE3"/>
<path d="M563.04 394.12C573.528 394.12 582.03 385.618 582.03 375.13C582.03 364.642 573.528 356.14 563.04 356.14C552.552 356.14 544.05 364.642 544.05 375.13C544.05 385.618 552.552 394.12 563.04 394.12Z" fill="#948DD4"/>
<path d="M536.68 371.63C547.168 371.63 555.67 363.128 555.67 352.64C555.67 342.152 547.168 333.65 536.68 333.65C526.192 333.65 517.69 342.152 517.69 352.64C517.69 363.128 526.192 371.63 536.68 371.63Z" fill="#005597"/>
<path d="M514.41 345.09C524.898 345.09 533.4 336.588 533.4 326.1C533.4 315.612 524.898 307.11 514.41 307.11C503.922 307.11 495.42 315.612 495.42 326.1C495.42 336.588 503.922 345.09 514.41 345.09Z" fill="#E3E1F2"/>
<path d="M497.39 313.16C507.878 313.16 516.38 304.658 516.38 294.17C516.38 283.682 507.878 275.18 497.39 275.18C486.902 275.18 478.4 283.682 478.4 294.17C478.4 304.658 486.902 313.16 497.39 313.16Z" fill="#08233A"/>
<path d="M479.26 282.1C489.747 282.1 498.25 273.598 498.25 263.11C498.25 252.622 489.747 244.12 479.26 244.12C468.772 244.12 460.27 252.622 460.27 263.11C460.27 273.598 468.772 282.1 479.26 282.1Z" fill="#E3E1F2"/>
<path d="M461.36 249.91C471.848 249.91 480.35 241.408 480.35 230.92C480.35 220.432 471.848 211.93 461.36 211.93C450.872 211.93 442.37 220.432 442.37 230.92C442.37 241.408 450.872 249.91 461.36 249.91Z" fill="#948DD4"/>
<path d="M443.7 217.43C454.188 217.43 462.69 208.928 462.69 198.44C462.69 187.952 454.188 179.45 443.7 179.45C433.212 179.45 424.71 187.952 424.71 198.44C424.71 208.928 433.212 217.43 443.7 217.43Z" fill="#08233A"/>
<path d="M411.78 196.32C422.268 196.32 430.77 187.818 430.77 177.33C430.77 166.842 422.268 158.34 411.78 158.34C401.292 158.34 392.79 166.842 392.79 177.33C392.79 187.818 401.292 196.32 411.78 196.32Z" fill="#E3E1F2"/>
<path d="M384.34 176.17C394.827 176.17 403.33 167.668 403.33 157.18C403.33 146.692 394.827 138.19 384.34 138.19C373.852 138.19 365.35 146.692 365.35 157.18C365.35 167.668 373.852 176.17 384.34 176.17Z" fill="#005597"/>
<path d="M349.42 173.52C359.908 173.52 368.41 165.018 368.41 154.53C368.41 144.042 359.908 135.54 349.42 135.54C338.932 135.54 330.43 144.042 330.43 154.53C330.43 165.018 338.932 173.52 349.42 173.52Z" fill="#75C476"/>
<path d="M315.25 163.9C325.738 163.9 334.24 155.398 334.24 144.91C334.24 134.422 325.738 125.92 315.25 125.92C304.762 125.92 296.26 134.422 296.26 144.91C296.26 155.398 304.762 163.9 315.25 163.9Z" fill="#57AAE3"/>
<path d="M282.9 172.57C293.388 172.57 301.89 164.068 301.89 153.58C301.89 143.092 293.388 134.59 282.9 134.59C272.412 134.59 263.91 143.092 263.91 153.58C263.91 164.068 272.412 172.57 282.9 172.57Z" fill="#08233A"/>
<path d="M248.99 183.06C259.478 183.06 267.98 174.558 267.98 164.07C267.98 153.582 259.478 145.08 248.99 145.08C238.502 145.08 230 153.582 230 164.07C230 174.558 238.502 183.06 248.99 183.06Z" fill="#362C62"/>
<path d="M215.81 192.69C226.298 192.69 234.8 184.188 234.8 173.7C234.8 163.212 226.298 154.71 215.81 154.71C205.322 154.71 196.82 163.212 196.82 173.7C196.82 184.188 205.322 192.69 215.81 192.69Z" fill="#005597"/>
<path d="M181.47 198.08C191.958 198.08 200.46 189.578 200.46 179.09C200.46 168.602 191.958 160.1 181.47 160.1C170.982 160.1 162.48 168.602 162.48 179.09C162.48 189.578 170.982 198.08 181.47 198.08Z" fill="#F0809C"/>
<path d="M146.92 195C157.408 195 165.91 186.498 165.91 176.01C165.91 165.522 157.408 157.02 146.92 157.02C136.432 157.02 127.93 165.522 127.93 176.01C127.93 186.498 136.432 195 146.92 195Z" fill="#08233A"/>
<path d="M122.8 169.22C133.287 169.22 141.79 160.718 141.79 150.23C141.79 139.742 133.287 131.24 122.8 131.24C112.312 131.24 103.81 139.742 103.81 150.23C103.81 160.718 112.312 169.22 122.8 169.22Z" fill="#57AAE3"/>
<path d="M116.54 132.97C127.028 132.97 135.53 124.468 135.53 113.98C135.53 103.492 127.028 94.99 116.54 94.99C106.052 94.99 97.5498 103.492 97.5498 113.98C97.5498 124.468 106.052 132.97 116.54 132.97Z" fill="#F5CF72"/>
<path d="M128 97.83C138.488 97.83 146.99 89.3279 146.99 78.84C146.99 68.3521 138.488 59.85 128 59.85C117.512 59.85 109.01 68.3521 109.01 78.84C109.01 89.3279 117.512 97.83 128 97.83Z" fill="#08233A"/>
<path d="M123.78 61.8C134.268 61.8 142.77 53.2979 142.77 42.81C142.77 32.3221 134.268 23.82 123.78 23.82C113.292 23.82 104.79 32.3221 104.79 42.81C104.79 53.2979 113.292 61.8 123.78 61.8Z" fill="#362C62"/>
<path d="M130.26 24.94C140.748 24.94 149.25 16.4379 149.25 5.95001C149.25 -4.53788 140.748 -13.04 130.26 -13.04C119.772 -13.04 111.27 -4.53788 111.27 5.95001C111.27 16.4379 119.772 24.94 130.26 24.94Z" fill="#F5CF72"/>
<path fill-rule="evenodd" clip-rule="evenodd" d="M19.9564 409.548C28.2651 423.332 46.5608 432.808 81.318 433.691C110.541 434.431 139.366 429.965 168.129 424.579C174.202 423.442 180.275 422.264 186.348 421.085C208.967 416.695 231.592 412.303 254.256 410.055C281.831 404.459 317.581 404.894 351.951 406.548C362.762 407.068 373.431 407.709 383.676 408.324C406.115 409.671 426.524 410.896 441.957 410.472C451.12 409.71 455.21 406.973 456.678 403.704C458.202 400.314 457.282 395.61 454.571 390.054C451.901 384.585 447.703 378.709 443.387 373.245C440.74 369.895 438.128 366.793 435.803 364.032C434.3 362.249 432.918 360.607 431.724 359.134L434.055 357.246C435.164 358.615 436.518 360.222 438.01 361.995C440.379 364.809 443.097 368.039 445.741 371.385C450.091 376.892 454.452 382.971 457.267 388.738C460.039 394.418 461.528 400.232 459.415 404.934C457.249 409.754 451.667 412.682 442.163 413.465L442.122 413.468L442.081 413.469C426.508 413.901 405.86 412.662 383.317 411.309C373.104 410.696 362.502 410.059 351.807 409.545C317.395 407.888 281.954 407.482 254.779 413.01L254.704 413.025L254.628 413.033C232.091 415.264 209.62 419.625 186.995 424.016C180.903 425.198 174.8 426.383 168.681 427.528C139.883 432.92 110.798 437.439 81.2418 436.69C46.1089 435.797 26.4896 426.197 17.3871 411.097C8.33666 396.083 10.0496 376.191 16.1365 355.606C22.2413 334.96 32.881 313.184 42.2289 294.136L42.5903 293.4C47.138 284.134 51.3564 275.539 54.6058 268.007C57.9546 260.245 60.2051 253.763 60.77 248.926L63.7498 249.274C63.1297 254.582 60.7176 261.414 57.3604 269.196C54.0813 276.796 49.8344 285.449 45.3028 294.682L44.9221 295.458C35.5513 314.552 25.0334 336.097 19.0133 356.457C12.9751 376.878 11.5956 395.678 19.9564 409.548Z" fill="#FFF9E3"/>
<path d="M425.95 385C441.928 385 454.88 372.048 454.88 356.07C454.88 340.092 441.928 327.14 425.95 327.14C409.972 327.14 397.02 340.092 397.02 356.07C397.02 372.048 409.972 385 425.95 385Z" fill="#362C62"/>
<path d="M388.15 411.01C404.128 411.01 417.08 398.058 417.08 382.08C417.08 366.102 404.128 353.15 388.15 353.15C372.173 353.15 359.22 366.102 359.22 382.08C359.22 398.058 372.173 411.01 388.15 411.01Z" fill="#362C62"/>
<path d="M349.95 422.95C365.928 422.95 378.88 409.998 378.88 394.02C378.88 378.042 365.928 365.09 349.95 365.09C333.972 365.09 321.02 378.042 321.02 394.02C321.02 409.998 333.972 422.95 349.95 422.95Z" fill="#362C62"/>
<path d="M311.18 421C327.158 421 340.11 408.048 340.11 392.07C340.11 376.092 327.158 363.14 311.18 363.14C295.202 363.14 282.25 376.092 282.25 392.07C282.25 408.048 295.202 421 311.18 421Z" fill="#362C62"/>
<path d="M272.81 409.71C288.788 409.71 301.74 396.758 301.74 380.78C301.74 364.802 288.788 351.85 272.81 351.85C256.833 351.85 243.88 364.802 243.88 380.78C243.88 396.758 256.833 409.71 272.81 409.71Z" fill="#362C62"/>
<path fill-rule="evenodd" clip-rule="evenodd" d="M425.95 340.85C417.545 340.85 410.73 347.664 410.73 356.07C410.73 364.476 417.545 371.29 425.95 371.29C434.356 371.29 441.17 364.476 441.17 356.07C441.17 347.664 434.356 340.85 425.95 340.85ZM407.73 356.07C407.73 346.007 415.888 337.85 425.95 337.85C436.013 337.85 444.17 346.007 444.17 356.07C444.17 366.133 436.013 374.29 425.95 374.29C415.888 374.29 407.73 366.133 407.73 356.07Z" fill="#08233A"/>
<path d="M208.508 352.416L254.173 365.847L280.847 275.159L235.182 261.727L208.508 352.416Z" fill="#362C62"/>
<path d="M382.24 304.99L426.64 318.05L454.47 326.23C457 326.97 457.36 330.42 455.03 331.66L451.89 333.34C432.64 343.63 416.98 359.06 404.29 376.81C383.4 406.03 345.62 420.3 309.22 409.59L241.94 389.8L255.88 267.81L382.25 304.98L382.24 304.99Z" fill="#F2BF43"/>
<path d="M371.58 364.884L325.815 389.846C314.113 396.229 299.433 391.911 293.05 380.209L268.088 334.444L313.853 309.482C325.555 303.099 340.235 307.417 346.618 319.119L371.58 364.884Z" fill="#948DD4"/>
<path fill-rule="evenodd" clip-rule="evenodd" d="M326.329 391.277C314.001 398.004 298.56 393.455 291.833 381.129L294.467 379.691C300.401 390.565 314.02 394.576 324.892 388.643L326.329 391.277Z" fill="#6257BF"/>
<path fill-rule="evenodd" clip-rule="evenodd" d="M267.362 333.133L313.322 308.073L314.758 310.707L268.798 335.767L267.362 333.133Z" fill="#6257BF"/>
<path fill-rule="evenodd" clip-rule="evenodd" d="M313.332 308.063C325.66 301.336 341.1 305.885 347.827 318.211L345.193 319.648C339.26 308.775 325.64 304.764 314.769 310.697L313.332 308.063Z" fill="#6257BF"/>
<path fill-rule="evenodd" clip-rule="evenodd" d="M347.827 318.212L372.897 364.172L370.263 365.608L345.193 319.648L347.827 318.212Z" fill="#6257BF"/>
<path fill-rule="evenodd" clip-rule="evenodd" d="M347.643 324.128L350.275 322.689L350.957 323.931C356.81 334.655 370.25 338.607 380.972 332.763L382.408 335.397C374.049 339.953 364.237 339.266 356.756 334.449C362.993 344.106 375.719 347.459 385.972 341.863L395.932 336.433L397.368 339.067L387.409 344.497C375.211 351.154 359.93 346.655 353.273 334.459L347.645 324.131L347.643 324.128Z" fill="#6257BF"/>
<path d="M229.2 358.51L246.38 349.14L233.11 345.24L248.15 337.04L236.52 333.62L249.24 325.87L239.63 323.05L250.31 316.53L242.25 314.16L251.2 308.73L244.43 306.74L252.05 301.32L246.5 299.69L252.65 296.03L247.98 294.66L255.88 267.82L244.98 363.15L229.2 358.51Z" fill="#08233A"/>
<path d="M270.62 386.49C275.497 386.49 279.45 382.537 279.45 377.66C279.45 372.783 275.497 368.83 270.62 368.83C265.743 368.83 261.79 372.783 261.79 377.66C261.79 382.537 265.743 386.49 270.62 386.49Z" fill="#6257BF"/>
<path d="M235.17 261.73L353.25 296.46C388.66 306.87 426.75 302.79 459.15 285.12C459.15 285.12 395.57 259.65 336.9 291.65C336.9 291.65 307.39 222.34 235.17 261.73Z" fill="#08233A"/>
<path d="M447.65 324.22C447.65 324.22 413.59 287.51 336.9 291.65L447.65 324.22Z" fill="#7C73C9"/>
<path d="M62.2601 278.04C78.2377 278.04 91.1901 265.088 91.1901 249.11C91.1901 233.132 78.2377 220.18 62.2601 220.18C46.2825 220.18 33.3301 233.132 33.3301 249.11C33.3301 265.088 46.2825 278.04 62.2601 278.04Z" fill="#362C62"/>
<path d="M79.9603 320.37C95.9379 320.37 108.89 307.418 108.89 291.44C108.89 275.462 95.9379 262.51 79.9603 262.51C63.9827 262.51 51.0303 275.462 51.0303 291.44C51.0303 307.418 63.9827 320.37 79.9603 320.37Z" fill="#362C62"/>
<path d="M105.61 351.09C121.588 351.09 134.54 338.138 134.54 322.16C134.54 306.182 121.588 293.23 105.61 293.23C89.6326 293.23 76.6802 306.182 76.6802 322.16C76.6802 338.138 89.6326 351.09 105.61 351.09Z" fill="#362C62"/>
<path d="M139.27 370.44C155.247 370.44 168.2 357.488 168.2 341.51C168.2 325.532 155.247 312.58 139.27 312.58C123.292 312.58 110.34 325.532 110.34 341.51C110.34 357.488 123.292 370.44 139.27 370.44Z" fill="#362C62"/>
<path d="M177.64 381.72C193.618 381.72 206.57 368.768 206.57 352.79C206.57 336.812 193.618 323.86 177.64 323.86C161.662 323.86 148.71 336.812 148.71 352.79C148.71 368.768 161.662 381.72 177.64 381.72Z" fill="#362C62"/>
<path fill-rule="evenodd" clip-rule="evenodd" d="M62.26 233.89C53.8543 233.89 47.04 240.704 47.04 249.11C47.04 257.516 53.8543 264.33 62.26 264.33C70.6658 264.33 77.48 257.516 77.48 249.11C77.48 240.704 70.6658 233.89 62.26 233.89ZM44.04 249.11C44.04 239.047 52.1974 230.89 62.26 230.89C72.3227 230.89 80.48 239.047 80.48 249.11C80.48 259.173 72.3227 267.33 62.26 267.33C52.1974 267.33 44.04 259.173 44.04 249.11Z" fill="#08233A"/>
<path d="M126.66 229.82L82.2601 216.76L54.4301 208.58C51.9001 207.84 49.7401 210.54 51.0201 212.84L52.7501 215.95C63.3601 235.02 68.1801 256.47 69.2401 278.27C70.9801 314.14 95.0201 346.6 131.42 357.3L198.7 377.09L253.02 266.98L126.65 229.81L126.66 229.82Z" fill="#6257BF"/>
<path d="M181.725 270.634L206.687 316.399L160.923 341.361C149.22 347.744 134.54 343.426 128.157 331.724L103.195 285.959L148.96 260.997C160.662 254.614 175.342 258.932 181.725 270.634Z" fill="#948DD4"/>
<path fill-rule="evenodd" clip-rule="evenodd" d="M129.588 331.202C135.511 342.075 149.139 346.086 160.012 340.153L161.449 342.787C149.121 349.514 133.67 344.966 126.953 332.638L129.588 331.202Z" fill="#F2BF43"/>
<path fill-rule="evenodd" clip-rule="evenodd" d="M205.373 317.118L180.303 271.158L182.937 269.722L208.007 315.682L205.373 317.118Z" fill="#F2BF43"/>
<path fill-rule="evenodd" clip-rule="evenodd" d="M180.303 271.158C174.379 260.286 160.751 256.274 149.878 262.207L148.441 259.573C160.769 252.846 176.221 257.394 182.937 269.722L180.303 271.158Z" fill="#F2BF43"/>
<path fill-rule="evenodd" clip-rule="evenodd" d="M149.879 262.207L103.919 287.277L102.482 284.643L148.442 259.573L149.879 262.207Z" fill="#F2BF43"/>
<path fill-rule="evenodd" clip-rule="evenodd" d="M95.4932 250.288L98.1272 248.852L103.557 258.811C109.146 269.053 121.639 273.131 132.1 268.411C123.218 268.396 114.618 263.66 110.063 255.308L112.697 253.872C118.483 264.481 131.681 268.464 142.34 262.902L143.949 262.025L143.952 262.023L145.391 264.655L145.388 264.657L144.151 265.335L144.149 265.337C144.017 265.409 143.885 265.479 143.752 265.549L135.059 270.287C122.861 276.944 107.58 272.444 100.923 260.248L95.4932 250.288Z" fill="#F2BF43"/>
<path d="M226.36 357.67L216.99 340.5L230.26 344.4L222.06 329.37L233.68 332.78L227.18 319.38L236.79 322.21L231.34 310.95L239.4 313.33L234.81 303.91L241.58 305.9L238.11 297.23L243.66 298.86L240.47 292.45L245.14 293.82L253.03 266.98L210.58 353.03L226.36 357.67Z" fill="#08233A"/>
<path d="M181.17 360.18C186.047 360.18 190 356.227 190 351.35C190 346.473 186.047 342.52 181.17 342.52C176.293 342.52 172.34 346.473 172.34 351.35C172.34 356.227 176.293 360.18 181.17 360.18Z" fill="#F2BF43"/>
<path d="M273.74 273.07L155.66 238.34C120.25 227.93 90.4403 203.88 72.7603 171.48C72.7603 171.48 140.01 184.49 172.01 243.15C172.01 243.15 234.34 200.85 273.74 273.07Z" fill="#08233A"/>
<path fill-rule="evenodd" clip-rule="evenodd" d="M338.269 291.06C338.27 291.061 338.27 291.062 336.89 291.65C335.51 292.238 335.51 292.238 335.51 292.238L335.51 292.237L335.507 292.231L335.493 292.199C335.481 292.17 335.461 292.125 335.434 292.064C335.379 291.942 335.296 291.759 335.183 291.519C334.958 291.038 334.615 290.332 334.151 289.442C333.223 287.663 331.815 285.155 329.9 282.264C326.066 276.474 320.23 269.185 312.203 263.115C304.186 257.054 293.996 252.217 281.412 251.283C268.829 250.35 253.729 253.311 235.878 263.047L234.442 260.413C252.701 250.454 268.373 247.308 281.634 248.291C294.896 249.275 305.624 254.38 314.012 260.722C322.39 267.057 328.445 274.633 332.401 280.608C334.382 283.599 335.843 286.198 336.811 288.055C337.295 288.984 337.657 289.728 337.899 290.244C338.02 290.502 338.111 290.702 338.173 290.841C338.204 290.91 338.227 290.963 338.243 291L338.262 291.044L338.268 291.056L338.269 291.06Z" fill="#7C73C9"/>
<path fill-rule="evenodd" clip-rule="evenodd" d="M172.852 244.402C172.852 244.401 172.853 244.401 172.01 243.16C171.168 241.919 171.169 241.918 171.17 241.917L171.173 241.915L171.185 241.908L171.224 241.881C171.258 241.859 171.307 241.826 171.37 241.785C171.497 241.702 171.682 241.583 171.923 241.432C172.406 241.129 173.113 240.699 174.023 240.18C175.842 239.143 178.478 237.748 181.762 236.306C188.322 233.424 197.514 230.332 207.987 229.542C218.473 228.75 230.257 230.267 241.94 236.619C253.622 242.972 265.096 254.102 275.057 272.362L272.423 273.798C262.685 255.948 251.592 245.283 240.507 239.255C229.421 233.227 218.235 231.777 208.213 232.533C198.179 233.29 189.326 236.26 182.968 239.052C179.793 240.447 177.251 241.793 175.508 242.787C174.637 243.283 173.966 243.692 173.517 243.974C173.292 244.114 173.122 244.224 173.011 244.297C172.955 244.333 172.914 244.36 172.887 244.378L172.859 244.397L172.853 244.401L172.852 244.402Z" fill="#7C73C9"/>
<path d="M61.2603 210.58C61.2603 210.58 109.78 198.15 172.01 243.15L61.2603 210.58Z" fill="#7C73C9"/>
<path d="M786.51 167.42L790.06 195.33C794.35 229 770.53 259.78 736.85 264.07L683.55 270.86L663.75 255.53C661.16 253.53 657.44 254 655.44 256.59L640.11 276.4L586.91 283.18C553.24 287.47 522.46 263.65 518.17 229.97L514.62 202.06L786.52 167.43L786.51 167.42Z" fill="#F5CF72"/>
<path d="M650.56 184.74C650.56 184.74 616.24 107.11 541.11 116.68L551.39 197.37L650.56 184.74Z" fill="#46A646"/>
<path d="M507.15 143.53C507.15 143.53 596.04 142.54 650.56 184.74L573.13 194.6C540.81 198.72 511.27 175.85 507.16 143.53H507.15Z" fill="#362C62"/>
<path d="M650.56 184.74C650.56 184.74 664.33 100.99 739.45 91.42L749.73 172.11L650.56 184.74Z" fill="#46A646"/>
<path d="M779.06 108.9C779.06 108.9 692.76 130.22 650.56 184.74L727.99 174.88C760.31 170.76 783.17 141.23 779.06 108.91V108.9Z" fill="#362C62"/>
<path d="M763.789 215.452L706.33 170.979L661.856 228.438L719.315 272.912L763.789 215.452Z" fill="#75C476"/>
<path d="M737.54 206.087L751.64 217L740.727 231.1C728.057 247.47 704.474 250.474 688.105 237.804L674.005 226.89L684.918 212.79C697.588 196.421 721.171 193.417 737.54 206.087Z" fill="#46A646"/>
<path d="M727.023 209.222L739.131 218.593L729.76 230.7C722.262 240.387 708.303 242.165 698.616 234.667L686.509 225.296L695.88 213.189C703.378 203.502 717.336 201.724 727.023 209.222Z" fill="#6257BF"/>
<path fill-rule="evenodd" clip-rule="evenodd" d="M735.98 208.087C720.691 196.252 698.702 199.052 686.867 214.34L682.913 211.28C696.438 193.808 721.568 190.608 739.04 204.133L735.98 208.087Z" fill="#F2BF43"/>
<path fill-rule="evenodd" clip-rule="evenodd" d="M686.866 214.341L675.956 228.431L672.003 225.369L682.913 211.279L686.866 214.341Z" fill="#6257BF"/>
<path fill-rule="evenodd" clip-rule="evenodd" d="M688.757 211.9C688.757 211.9 688.757 211.9 688.757 211.9L681.417 221.39L677.462 218.33L684.803 208.84C698.037 191.744 703.936 170.088 701.21 148.635L706.17 148.005C709.063 170.772 702.803 193.755 688.757 211.9Z" fill="#F2BF43"/>
<path fill-rule="evenodd" clip-rule="evenodd" d="M748.109 198.906C731.09 185.732 706.601 188.843 693.427 205.87L679.997 223.22L676.043 220.16L689.473 202.81C689.473 202.81 689.473 202.81 689.473 202.81C704.338 183.598 731.969 180.088 751.17 194.953L760.401 202.104L757.339 206.056L748.109 198.906C748.109 198.907 748.109 198.906 748.109 198.906Z" fill="#F2BF43"/>
<path d="M606.263 287.341L650.737 229.882L593.278 185.408L548.804 242.868L606.263 287.341Z" fill="#75C476"/>
<path d="M638.588 231.43L627.675 245.53C615.004 261.899 591.422 264.903 575.053 252.233L560.953 241.32L571.866 227.22C584.536 210.851 608.119 207.846 624.488 220.516L638.588 231.43Z" fill="#46A646"/>
<path d="M626.088 233.022L616.717 245.129C609.219 254.817 595.261 256.595 585.574 249.097L573.467 239.726L582.837 227.619C590.335 217.932 604.294 216.153 613.981 223.651L626.088 233.022Z" fill="#6257BF"/>
<path fill-rule="evenodd" clip-rule="evenodd" d="M569.893 225.67C583.418 208.198 608.548 204.998 626.02 218.523L622.96 222.477C607.671 210.642 585.682 213.442 573.847 228.73L569.893 225.67Z" fill="#F2BF43"/>
<path fill-rule="evenodd" clip-rule="evenodd" d="M626.021 218.523L640.111 229.433L637.049 233.387L622.959 222.477L626.021 218.523Z" fill="#6257BF"/>
<path fill-rule="evenodd" clip-rule="evenodd" d="M592.6 162.475C595.327 183.926 606.474 203.409 623.571 216.643L633.06 223.982L630.001 227.938L620.51 220.597C602.366 206.551 590.534 185.874 587.64 163.105L592.6 162.475Z" fill="#F2BF43"/>
<path fill-rule="evenodd" clip-rule="evenodd" d="M555.854 219.829C570.719 200.628 598.338 197.108 617.55 211.973L634.9 225.403L631.84 229.357L614.49 215.927C614.49 215.927 614.49 215.927 614.49 215.927C597.462 202.752 572.982 205.872 559.807 222.89L552.656 232.121L548.704 229.059L555.854 219.829C555.854 219.829 555.853 219.829 555.854 219.829Z" fill="#F2BF43"/>
<path fill-rule="evenodd" clip-rule="evenodd" d="M642.46 101.314L673.68 346.454L668.72 347.086L637.5 101.946L642.46 101.314Z" fill="#362C62"/>
<path d="M653.24 205.76L667.26 108.76C669.83 91 654.76 75.68 636.96 77.95C619.16 80.22 608.42 98.82 615.35 115.37L653.23 205.75" fill="#362C62"/>
<path d="M603.25 271.95C607.812 271.95 611.51 268.252 611.51 263.69C611.51 259.128 607.812 255.43 603.25 255.43C598.688 255.43 594.99 259.128 594.99 263.69C594.99 268.252 598.688 271.95 603.25 271.95Z" fill="#F2BF43"/>
<path d="M716.55 257.52C721.112 257.52 724.81 253.822 724.81 249.26C724.81 244.698 721.112 241 716.55 241C711.988 241 708.29 244.698 708.29 249.26C708.29 253.822 711.988 257.52 716.55 257.52Z" fill="#F2BF43"/>
<path d="M529.75 225.01C533.533 225.01 536.6 221.943 536.6 218.16C536.6 214.377 533.533 211.31 529.75 211.31C525.967 211.31 522.9 214.377 522.9 218.16C522.9 221.943 525.967 225.01 529.75 225.01Z" fill="#75C476"/>
<path d="M776.54 193.58C780.323 193.58 783.39 190.513 783.39 186.73C783.39 182.947 780.323 179.88 776.54 179.88C772.757 179.88 769.69 182.947 769.69 186.73C769.69 190.513 772.757 193.58 776.54 193.58Z" fill="#75C476"/>
<path d="M841.12 378.12C846.7 402.02 870.6 416.87 894.5 411.28L1098.63 363.6C1122.53 358.02 1137.38 334.12 1131.79 310.22L841.11 378.12H841.12Z" fill="#08233A"/>
<path d="M856.02 295.64C860.6 298.49 866.13 299.4 871.38 298.17C882.32 295.61 893.26 302.41 895.82 313.35C897.05 318.6 900.31 323.16 904.89 326C914.43 331.93 917.36 344.47 911.43 354.02C908.58 358.6 907.67 364.13 908.9 369.38C911.46 380.32 904.66 391.26 893.72 393.82C888.47 395.05 883.91 398.31 881.07 402.89C875.14 412.43 862.6 415.36 853.05 409.43C848.47 406.58 842.94 405.67 837.69 406.9C826.75 409.46 815.81 402.66 813.25 391.72C812.02 386.47 808.76 381.91 804.18 379.07C794.64 373.14 791.71 360.6 797.64 351.05C800.49 346.47 801.4 340.94 800.17 335.69C797.61 324.75 804.41 313.81 815.35 311.25C820.6 310.02 825.16 306.76 828 302.18C833.93 292.64 846.47 289.71 856.02 295.64Z" fill="#57AAE3"/>
<path d="M1109.94 236.33C1114.52 239.18 1120.05 240.09 1125.3 238.86C1136.24 236.3 1147.18 243.1 1149.74 254.04C1150.97 259.29 1154.23 263.85 1158.81 266.69C1168.35 272.62 1171.28 285.16 1165.35 294.71C1162.5 299.29 1161.59 304.82 1162.82 310.07C1165.38 321.01 1158.58 331.95 1147.64 334.51C1142.39 335.74 1137.83 339 1134.99 343.58C1129.06 353.12 1116.52 356.05 1106.97 350.12C1102.39 347.27 1096.86 346.36 1091.61 347.59C1080.67 350.15 1069.73 343.35 1067.17 332.41C1065.94 327.16 1062.68 322.6 1058.1 319.76C1048.56 313.83 1045.63 301.29 1051.56 291.74C1054.41 287.16 1055.32 281.63 1054.09 276.38C1051.53 265.44 1058.33 254.5 1069.27 251.94C1074.52 250.71 1079.08 247.45 1081.92 242.87C1087.85 233.33 1100.39 230.4 1109.94 236.33Z" fill="#57AAE3"/>
<path d="M1113.49 231.84C1127.89 293.48 1089.6 355.11 1028.06 369.48L960.38 385.29C929.61 392.48 898.85 386.52 873.86 371C848.99 355.55 830 330.52 822.81 299.74L925.86 275.67C951.95 269.57 964.27 239.29 949.46 216.96C933.36 192.68 904.47 168.45 853.29 168.55C851.66 168.55 851.21 166.33 852.75 165.79C880.03 156.21 971.69 130.96 1020.3 203.5C1018.22 198.42 986.49 128.75 864.06 106.32C860.65 105.7 860.34 100.92 863.62 99.8C904.62 85.84 1043.15 54.19 1113.49 231.84Z" fill="#6257BF"/>
<path d="M1113.49 231.85C1108.8 211.78 1082.19 207.4 1071.32 224.9L1065.34 234.53C1060.08 212.01 1030.22 207.09 1018.01 226.74L1003.77 249.67C1001.04 238 985.57 235.45 979.25 245.63L967.77 264.11L949.29 252.63C939.11 246.31 926.37 255.45 929.09 267.11L906.16 252.87C886.52 240.66 861.92 258.3 867.18 280.82L857.55 274.84C840.05 263.97 818.13 279.68 822.82 299.75L849.13 293.6C897.26 282.36 946.65 306.6 967.2 351.55L996.32 415.26C999.36 421.91 1009.34 419.58 1009.12 412.27L1007 342.25C1005.51 292.84 1039.04 249.23 1087.18 237.99L1113.49 231.84V231.85Z" fill="#57AAE3"/>
<path d="M934.798 351.992C938.017 343.067 926.761 330.831 909.658 324.663C892.555 318.496 876.081 320.732 872.862 329.657C869.643 338.583 880.899 350.818 898.002 356.986C915.105 363.154 931.579 360.918 934.798 351.992Z" fill="#948DD4"/>
<path d="M1071.4 316.431C1084 303.324 1088.67 287.368 1081.83 280.792C1074.99 274.216 1059.23 279.511 1046.63 292.618C1034.03 305.725 1029.36 321.681 1036.2 328.257C1043.04 334.833 1058.8 329.538 1071.4 316.431Z" fill="#948DD4"/>
<path fill-rule="evenodd" clip-rule="evenodd" d="M878.915 343.34C883.27 348.074 890.14 352.556 898.511 355.575C906.882 358.594 915.031 359.528 921.405 358.663C927.86 357.787 932.063 355.155 933.387 351.483C934.711 347.811 933.155 343.103 928.745 338.309C924.39 333.575 917.521 329.093 909.149 326.074C900.778 323.056 892.629 322.122 886.255 322.987C879.8 323.863 875.597 326.494 874.273 330.166C872.949 333.838 874.505 338.546 878.915 343.34ZM876.707 345.371C872.019 340.275 869.557 334.402 871.451 329.148C873.346 323.895 878.989 320.945 885.852 320.014C892.795 319.072 901.435 320.104 910.167 323.252C918.899 326.401 926.209 331.121 930.953 336.278C935.641 341.375 938.104 347.247 936.209 352.501C934.315 357.755 928.671 360.704 921.808 361.635C914.865 362.578 906.225 361.546 897.493 358.397C888.762 355.248 881.451 350.528 876.707 345.371Z" fill="#FFF9E3"/>
<path fill-rule="evenodd" clip-rule="evenodd" d="M1035.57 313.308C1033.74 319.56 1034.43 324.47 1037.24 327.176C1040.06 329.881 1044.99 330.378 1051.16 328.303C1057.26 326.254 1064.15 321.807 1070.32 315.391C1076.49 308.976 1080.66 301.914 1082.47 295.741C1084.3 289.489 1083.61 284.579 1080.79 281.873C1077.98 279.168 1073.04 278.671 1066.87 280.746C1060.77 282.795 1053.88 287.242 1047.71 293.658C1041.55 300.073 1037.37 307.135 1035.57 313.308ZM1032.69 312.466C1034.66 305.741 1039.12 298.27 1045.55 291.579C1051.98 284.887 1059.27 280.134 1065.91 277.902C1072.48 275.697 1078.84 275.84 1082.87 279.711C1086.9 283.581 1087.29 289.937 1085.35 296.583C1083.38 303.308 1078.92 310.779 1072.48 317.47C1066.05 324.162 1058.76 328.915 1052.12 331.147C1045.56 333.352 1039.19 333.209 1035.16 329.338C1031.14 325.468 1030.74 319.112 1032.69 312.466Z" fill="#FFF9E3"/>
<path fill-rule="evenodd" clip-rule="evenodd" d="M966.781 253.309L1002.67 406.989L999.749 407.671L963.859 253.991L966.781 253.309Z" fill="#F2BF43"/>
<path d="M807.78 371.25C809.956 371.25 811.72 369.486 811.72 367.31C811.72 365.134 809.956 363.37 807.78 363.37C805.604 363.37 803.84 365.134 803.84 367.31C803.84 369.486 805.604 371.25 807.78 371.25Z" fill="#08233A"/>
<path d="M1156.9 289.7C1159.08 289.7 1160.84 287.936 1160.84 285.76C1160.84 283.584 1159.08 281.82 1156.9 281.82C1154.72 281.82 1152.96 283.584 1152.96 285.76C1152.96 287.936 1154.72 289.7 1156.9 289.7Z" fill="#08233A"/>
<path d="M1238.65 130.82C1247.95 130.82 1255.49 123.28 1255.49 113.98C1255.49 104.68 1247.95 97.14 1238.65 97.14C1229.35 97.14 1221.81 104.68 1221.81 113.98C1221.81 123.28 1229.35 130.82 1238.65 130.82Z" fill="#7C73C9"/>
<path d="M748.27 434.98C755.991 434.98 762.25 428.721 762.25 421C762.25 413.279 755.991 407.02 748.27 407.02C740.549 407.02 734.29 413.279 734.29 421C734.29 428.721 740.549 434.98 748.27 434.98Z" fill="#F5CF72"/>
<path d="M222.87 101.63C243.117 101.63 259.53 85.2168 259.53 64.97C259.53 44.7232 243.117 28.31 222.87 28.31C202.623 28.31 186.21 44.7232 186.21 64.97C186.21 85.2168 202.623 101.63 222.87 101.63Z" fill="#7C73C9"/>
<path d="M47.3201 138.19C51.5617 138.19 55.0001 134.752 55.0001 130.51C55.0001 126.268 51.5617 122.83 47.3201 122.83C43.0786 122.83 39.6401 126.268 39.6401 130.51C39.6401 134.752 43.0786 138.19 47.3201 138.19Z" fill="#08233A"/>
<path d="M248.99 471.87C259.539 471.87 268.09 463.319 268.09 452.77C268.09 442.221 259.539 433.67 248.99 433.67C238.442 433.67 229.89 442.221 229.89 452.77C229.89 463.319 238.442 471.87 248.99 471.87Z" fill="#F0809C"/>
<path d="M1296.69 322.16C1307.09 322.16 1315.52 313.73 1315.52 303.33C1315.52 292.93 1307.09 284.5 1296.69 284.5C1286.29 284.5 1277.86 292.93 1277.86 303.33C1277.86 313.73 1286.29 322.16 1296.69 322.16Z" fill="#F5CF72"/>
</g>
</g>
<defs>
<clipPath id="clip0_1528_84970">
<rect width="1335" height="464" fill="white"/>
</clipPath>
</defs>
</svg>
