<svg width="1336" height="464" viewBox="0 0 1336 464" fill="none" xmlns="http://www.w3.org/2000/svg">
<g clip-path="url(#clip0_1528_88696)">
<rect width="1335" height="464" transform="translate(0.369141)" fill="#C9DAC1"/>
<mask id="mask0_1528_88696" style="mask-type:luminance" maskUnits="userSpaceOnUse" x="0" y="0" width="1336" height="464">
<path d="M1335.37 0H0.369141V464H1335.37V0Z" fill="white"/>
</mask>
<g mask="url(#mask0_1528_88696)">
</g>
<g clip-path="url(#clip1_1528_88696)">
<mask id="mask1_1528_88696" style="mask-type:luminance" maskUnits="userSpaceOnUse" x="1" y="0" width="1335" height="464">
<path d="M1335.6 0H1.3999V464H1335.6V0Z" fill="white"/>
</mask>
<g mask="url(#mask1_1528_88696)">
<path d="M1335.6 0H1.3999V466.5H1335.6V0Z" fill="#C9DAC1"/>
<path d="M1288.9 198.4H1205.3V89.2H1270.2L1288.9 198.4Z" fill="#FFD985"/>
<path d="M1080.7 466.7L1077.7 466.4L1117.6 -6.5L1120.6 -6.2L1112.5 90C1112.2 93.3 1114.8 96.2 1118.2 96.2H1292.4C1295.4 96.2 1297.8 93.9 1298.1 91L1306.3 -6.5L1309.3 -6.2L1269.4 466.7L1266.4 466.4L1272.2 397.1C1272.5 393.8 1269.9 390.9 1266.5 390.9H1092.3C1089.3 390.9 1086.9 393.2 1086.6 396.1L1080.7 466.7ZM1111.2 104.4L1106.4 161.4C1106.1 164.7 1108.7 167.6 1112.1 167.6H1286.3C1289.3 167.6 1291.7 165.3 1292 162.4L1296.8 105.4C1297.1 102.1 1294.5 99.2 1291.1 99.2H1116.9C1113.9 99.2 1111.5 101.5 1111.2 104.4ZM1273.4 382.7L1290.8 176.8C1291.1 173.5 1288.5 170.6 1285.1 170.6H1110.9C1107.9 170.6 1105.5 172.9 1105.2 175.8L1087.8 381.7C1087.5 385 1090.1 387.9 1093.5 387.9H1267.7C1270.7 387.9 1273.1 385.7 1273.4 382.7Z" fill="#471810"/>
<path d="M1270.2 229.1L1119.6 228.6L1145.4 89.2H1270.2V229.1Z" fill="#FFECC1"/>
<path d="M1168.5 169.4L1254.8 164.4L1259.8 80.8H1177.5L1168.5 169.4Z" fill="#FFFBF2"/>
<path d="M927.938 82.8391L924.211 84.2907L953.207 158.742L956.934 157.29L927.938 82.8391Z" fill="#709D5A"/>
<path d="M940.043 72.789L936.058 73.1375L943.568 159.01L947.552 158.661L940.043 72.789Z" fill="#709D5A"/>
<path d="M973.307 77.954L938.836 158.056L942.511 159.637L976.981 79.5352L973.307 77.954Z" fill="#709D5A"/>
<path d="M957.163 96.1245L934.868 158.244L938.633 159.595L960.928 97.4756L957.163 96.1245Z" fill="#709D5A"/>
<path d="M928.7 135.7H960.5C962.2 135.7 963.6 137.1 963.6 138.8V157.1C963.6 158.8 962.2 160.2 960.5 160.2H928.7C927 160.2 925.6 158.8 925.6 157.1V138.8C925.6 137.1 927 135.7 928.7 135.7Z" fill="#66291D"/>
<path d="M953.8 134.2H935.3V135.7H953.8V134.2Z" fill="#5D271F"/>
<path d="M960.1 131.8H929.1V134.3H960.1V131.8Z" fill="#66291D"/>
<path d="M930.3 159.9L934.6 158.8C941.2 157.1 948 157.1 954.6 158.8L958.9 159.9C959.1 160 959.1 160.3 958.8 160.3H930.4C930.1 160.3 930.1 159.9 930.3 159.9Z" fill="#471810"/>
<path d="M930.6 140.7H958.6V150.9C958.6 153.4 956.6 155.4 954.1 155.4H935.2C932.7 155.4 930.7 153.4 930.7 150.9V140.7H930.6Z" fill="#FFCD5C"/>
<path d="M425.1 46.4C425.1 46.4 339 48 330.9 138.6L399.1 106C399.1 106 350.1 135.3 331 169.8C332.7 187.1 336.9 203 342.3 217.4C348.2 203.8 363.5 175.4 394.5 158L361.7 255.7C377.9 281.3 394.4 296.1 394.4 296.1C394.4 296.1 489.4 186.6 425.1 46.4Z" fill="#ADC69D"/>
<path d="M571.3 265.9L599 278.6L662 249.5L651.8 237.9L667.8 246.9L720.7 222.5L683.8 205.4L731.4 217.6L735.4 215.8L709.7 205.5L740.9 213.3L775.5 197.3L771.5 193.4C717.3 140.7 634.5 130.8 569.4 169.1C537.7 187.7 520.5 223.8 526.1 260.2L562.8 295.6L578.7 288.3L571.3 265.9Z" fill="#B6CCAA"/>
<path d="M509.2 310.3L456.5 310.5C409.4 310.7 363.5 325.4 325.1 352.5L221.6 425.6L331.8 437.4C379.1 442.5 425.5 422.2 454 384.2L509.2 310.3Z" fill="#B6CCAA"/>
<path d="M520.7 163.7L559 158.6C573.7 139.8 581.7 115.8 579.9 90.4V90.1L533.4 102.7L578.9 77.4L576.1 37.8L543.5 47.5L575.7 31.4L572.5 -13H498L480.9 48.6C469.6 89.4 471.3 132.8 485.9 172.6L494.5 196L503 194.1C520.5 190.1 535.9 181.7 548.3 170.3L520.7 163.7Z" fill="#94B583"/>
<path d="M576 419.6L426.5 42.4L402.8 239.7L400.8 239.5L425 38.2C425.1 37.7 425.4 37.4 425.9 37.3C426.4 37.2 426.8 37.5 427 37.9L577.9 418.8L576 419.6Z" fill="#709D5A"/>
<path d="M631.754 171.524L516.183 266.827L517.456 268.37L633.026 173.067L631.754 171.524Z" fill="#709D5A"/>
<path d="M526.314 34.3775L491.474 205.78L493.434 206.178L528.274 34.7759L526.314 34.3775Z" fill="#709D5A"/>
<path d="M957.5 310.9C956.8 311.9 956 312.8 955.2 313.7C954.4 314.6 953.6 315.5 952.7 316.3C951.9 317.2 951 318 950.1 318.8C949.2 319.6 948.2 320.3 947.3 321C946.4 321.8 945.6 322.6 944.6 323.4C943.6 324.1 942.5 324.5 941.5 325.2C940.5 325.8 939.6 326.7 938.6 327.3C937.5 327.9 936.6 328.7 935.5 329.2C934.4 329.7 933.1 329.7 932 330.1C930.9 330.5 929.9 331.4 928.8 331.7C927.7 332.1 926.5 332.5 925.4 332.8C924.2 333.1 922.9 332.7 921.7 332.9C920.5 333.1 919.3 333.4 918 333.5C916.8 333.7 915.5 333.8 914.3 333.8C913 333.9 911.8 333.8 910.6 333.8C909.3 333.8 908.1 333.9 906.9 333.8C905.7 333.7 904.5 334 903.4 333.8C902.2 333.7 901 333.7 899.9 333.5C898.7 333.3 897.5 333.2 896.4 332.9C895.3 332.6 894.3 331.5 893.2 331.2C892.1 330.8 890.7 331.2 889.6 330.8C888.5 330.4 887.7 329.4 886.6 328.9C885.5 328.4 884.4 328.1 883.3 327.5C882.3 326.9 881.5 326 880.5 325.4C879.5 324.8 878.5 324.2 877.6 323.5C876.7 322.8 875.3 322.6 874.5 321.8C873.6 321 873 320 872.1 319.2C871.3 318.4 870.6 317.4 869.9 316.5C869.1 315.6 868.5 314.6 867.8 313.7C867.1 312.8 866 312.1 865.4 311.1C864.8 310.1 864.6 308.9 864 307.8C863.4 306.8 862.6 305.9 862.1 304.8C861.6 303.7 861.3 302.6 860.9 301.5C860.5 300.4 859.7 299.4 859.4 298.3C859.1 297.2 859.3 295.9 859 294.8C858.8 293.6 858.9 292.5 858.7 291.3C858.6 290.1 857.8 289 857.7 287.9C857.7 286.7 857.6 285.5 857.6 284.4C857.6 283.2 858.1 282.1 858.2 280.9C858.3 279.7 858.3 278.5 858.5 277.4C858.7 276.3 859.5 275.2 859.8 274.1C860.1 273 860.4 271.9 860.8 270.8C861.2 269.7 861.7 268.7 862.1 267.6C862.6 266.5 863.2 265.6 863.8 264.5C864.3 263.5 864.3 262.1 864.9 261.1C865.5 260.1 866.7 259.5 867.3 258.5C868 257.5 868.7 256.6 869.4 255.7C870.2 254.8 871 254 871.8 253.1C872.6 252.3 873.2 251.2 874.1 250.4C875 249.6 875.6 248.5 876.6 247.8C877.5 247.1 878.8 246.7 879.7 246.1C880.7 245.5 881.9 245.3 883 244.7C884 244.1 884.8 243.1 885.9 242.6C887 242.1 888.1 241.8 889.2 241.4C890.3 241 891.5 240.8 892.6 240.4C893.7 240.1 894.8 239.6 895.9 239.3C897 239 898.2 238.7 899.4 238.6C900.6 238.4 901.8 238.5 902.9 238.4C904.1 238.3 905.2 238.2 906.4 238.2C907.6 238.2 908.8 238 909.9 238.1C911.1 238.2 912.2 238.6 913.4 238.7C914.6 238.8 915.7 238.9 916.9 239.1C918.1 239.3 919.1 239.9 920.2 240.2C921.3 240.5 922.5 240.7 923.6 241.1C924.7 241.5 926 241.4 927.1 241.9C928.2 242.4 929.3 242.9 930.3 243.5C931.3 244.1 932.2 244.9 933.2 245.5C934.4 246.3 935.6 247 936.7 247.8C937.7 248.6 938.3 249.8 939.2 250.6C940.1 251.5 941 252.3 941.9 253.2C942.7 254.1 943.5 255.1 944.2 256.1C944.9 257.1 946 257.9 946.7 258.9C947.3 260 947.7 261.2 948.3 262.3C948.8 263.4 949 264.7 949.4 265.9C949.8 267.1 950.8 268.1 951.1 269.3C951.4 270.5 951.2 271.8 951.4 273C951.6 274.2 951.8 275.4 951.9 276.7C952 277.9 952.5 279.2 952.4 280.4C952.4 281.6 951.7 282.8 951.5 284.1C951.4 285.3 952 286.7 951.7 287.9C951.4 289.1 950.7 290.3 950.3 291.4C951.5 291.8 952.8 292 953.8 292.7C954.8 293.3 955.7 294.1 956.5 294.9C957.3 295.8 957.8 296.9 958.3 297.9C958.8 298.9 959 300 959.2 301.2C959.4 302.3 959.4 303.4 959.3 304.5C959.2 305.6 959.3 306.8 958.9 307.9C958.7 308.9 958.2 310 957.5 310.9Z" fill="#FFFBF2"/>
<path d="M957.4 310.9C956.7 311.9 955.6 312.6 954.9 313.5C954.1 314.4 953.4 315.3 952.5 316.2C951.7 317.1 951.1 318.2 950.2 319C949.3 319.8 948.4 320.6 947.5 321.4C946.6 322.2 945.5 322.8 944.6 323.5C943.6 324.2 942.8 325.1 941.8 325.7C940.8 326.3 939.8 327.1 938.7 327.6C937.6 328.2 936.4 328.3 935.3 328.8C934.2 329.3 933 329.6 931.9 330C930.8 330.4 929.7 330.8 928.5 331.1C927.4 331.5 926.4 332.3 925.2 332.6C924 332.9 922.8 332.8 921.6 333C920.4 333.2 919.2 334.1 918 334.3C916.8 334.5 915.5 334.3 914.2 334.4C912.9 334.5 911.7 334.7 910.4 334.7C909.1 334.7 908 334.2 906.8 334.1C907.4 333.1 908.3 332.3 908.9 331.3C909.5 330.3 909.9 329.1 910.5 328.1C911.1 327.1 911.7 326.1 912.3 325C912.9 324 913 322.7 913.6 321.6C914.2 320.6 915.1 319.7 915.6 318.6C916.1 317.5 917.1 316.7 917.6 315.6C918.1 314.5 918.1 313.2 918.6 312.1C919.1 311 919.7 310 920.2 308.9C920.7 307.8 921.2 306.7 921.7 305.7C922.2 304.6 922.6 303.5 923 302.4C923.4 301.3 924.1 300.3 924.6 299.2C925 298.1 925.4 297 925.8 295.9C926.2 294.8 926.5 293.6 926.9 292.5C927.3 291.4 928.2 290.4 928.5 289.3C928.8 288.2 928.6 286.8 928.9 285.7C929.2 284.6 929.7 283.5 930 282.3C930.3 281.2 930.5 280 930.8 278.8C931.1 277.7 932 276.7 932.2 275.5C932.5 274.4 932.2 273.1 932.5 271.9C932.8 270.7 933.6 269.7 933.8 268.5C934 267.3 933.7 266.1 934 264.9C934.2 263.7 934.5 262.6 934.8 261.4C935 260.2 935 259 935.2 257.9C935.4 256.7 936.2 255.7 936.4 254.5C936.6 253.3 936.3 252.1 936.4 250.9C936.5 249.7 936.7 248.4 936.8 247.2C937.8 248 938.8 249 939.7 249.8C940.6 250.7 941.5 251.6 942.3 252.5C943.1 253.4 943.8 254.5 944.5 255.5C945.2 256.5 946 257.5 946.6 258.6C947.2 259.7 947.5 260.9 948.1 262C948.6 263.1 949.1 264.2 949.5 265.4C949.9 266.6 950.9 267.5 951.2 268.7C951.5 269.9 952 271.1 952.2 272.3C952.4 273.5 952 274.8 952.1 276.1C952.2 277.3 952 278.6 952 279.8C952 281 952.7 282.3 952.6 283.6C952.5 284.8 951.8 286 951.5 287.2C951.2 288.4 951 289.7 950.7 290.9C951.9 291.3 953.2 291.4 954.3 292.1C955.3 292.7 955.9 293.9 956.6 294.7C957.4 295.6 958.4 296.3 958.9 297.3C959.4 298.3 959.1 299.6 959.3 300.7C959.5 301.8 960.4 302.9 960.3 304C960.2 305.1 959.8 306.3 959.4 307.4C958.8 308.9 958.1 309.9 957.4 310.9Z" fill="#FFF2D6"/>
<path d="M912.6 328.5C911.8 328.5 911 328.3 910.3 328.2C909.8 328.1 909.4 328 909.1 328C908.2 328 907.4 327.8 906.6 327.7C906.2 327.6 905.8 327.6 905.4 327.5C905.1 327.5 904.6 327.5 904.2 327.6C903.4 327.7 902.6 327.8 901.7 327.6C900.8 327.4 900.1 327.1 899.4 326.8C899 326.6 898.6 326.4 898.2 326.3C897.9 326.2 897.5 326.2 897 326.2C896.2 326.2 895.3 326.2 894.4 325.8C893.6 325.5 892.9 325 892.3 324.6C891.9 324.3 891.5 324.1 891.2 323.9C890.4 323.5 889.7 323.1 889.1 322.7C888.7 322.5 888.4 322.3 888 322C887.7 321.8 887.4 321.6 887 321.5C886.3 321.1 885.5 320.7 884.8 320.2C884.5 320 884.1 319.8 883.7 319.5C883.1 319.1 882.3 318.7 881.7 318.2C880.9 317.5 880.1 316.8 879.4 316.1L879 315.7C878.7 315.4 878.4 315.1 878.1 314.9C877.5 314.4 876.9 313.8 876.3 313.1C875.7 312.4 875.3 311.7 874.8 311.1C874.6 310.7 874.3 310.4 874.1 310.1C873.6 309.4 873.3 308.6 873 307.9C872.8 307.5 872.7 307.1 872.5 306.7C872.3 306.4 872 306 871.7 305.7C871.2 305.1 870.7 304.5 870.3 303.7C869.9 302.9 869.7 302.1 869.4 301.4C869.3 301 869.1 300.6 869 300.2C868.7 299.3 868.4 298.4 868.2 297.6C868.1 297.3 868 297 867.9 296.7C867.8 296.3 867.7 296 867.6 295.6C867.3 294.8 867.1 294 866.9 293.1C866.7 292.2 866.7 291.4 866.7 290.6C866.7 290.2 866.7 289.8 866.6 289.3C866.6 288.9 866.4 288.5 866.3 288.1C866.1 287.4 865.9 286.6 865.9 285.7C865.9 284.8 866.1 283.9 866.3 283.2C866.4 282.8 866.6 282.3 866.6 282C866.7 280.9 866.8 279.6 867 278.3C867.2 277.2 867.4 276 867.7 274.7C868 273.6 868.3 272.5 868.8 271.2C868.9 270.8 869 270.4 869.2 270C869.4 269.2 869.6 268.5 870 267.7C870.2 267.3 870.3 266.9 870.4 266.5C870.6 265.8 870.9 265 871.3 264.2C871.7 263.4 872.3 262.8 872.8 262.3C873.1 261.9 873.4 261.6 873.6 261.3C874.1 260.5 874.7 259.9 875.2 259.3C875.5 259 875.8 258.7 876 258.4C876.2 258.1 876.4 257.9 876.7 257.6C877.2 256.9 877.8 256.2 878.5 255.5C878.7 255.3 879 254.9 879.2 254.5C879.6 253.8 880.1 253.1 880.9 252.5C881.6 251.9 882.4 251.6 883.2 251.3C883.6 251.1 884 250.9 884.3 250.7C885.5 249.9 886.6 249.3 887.5 248.8C888.6 248.2 889.8 247.7 890.9 247.3C891.3 247.2 891.7 246.9 892.1 246.7C892.8 246.3 893.5 245.9 894.4 245.7C895.3 245.4 896.2 245.5 897 245.5C897.5 245.5 897.9 245.5 898.2 245.5C898.6 245.4 899 245.3 899.4 245.2C900.2 245 901 244.8 901.9 244.7C902.8 244.6 903.7 244.6 904.6 244.7C905 244.7 905.3 244.7 905.7 244.7C906 244.7 906.4 244.6 906.9 244.5C907.7 244.3 908.5 244.1 909.5 244.2C910.6 244.3 911.8 244.5 912.8 244.8L913.2 244.9C914.3 245.1 915.6 245.4 916.9 245.8C917.3 245.9 917.7 246 918.1 246.1C918.9 246.3 919.7 246.5 920.6 246.8C921.8 247.3 923 247.9 924 248.5C924.8 248.9 925.4 249.4 926.1 249.9C926.4 250.2 926.8 250.4 927.1 250.7C927.5 250.9 927.8 251.2 928.2 251.4C928.9 251.8 929.7 252.3 930.4 252.9C931.2 253.6 931.7 254.4 932.1 255.1C932.3 255.5 932.5 255.9 932.8 256.1C933.1 256.4 933.4 256.7 933.8 257C934.4 257.5 935.1 258.1 935.6 258.9C936.4 260 937.1 261.1 937.8 262.2C938 262.5 938.3 262.9 938.6 263.3C939.1 263.9 939.6 264.7 940 265.5C940.5 266.5 940.8 267.6 941.1 268.6L941.3 269.3C941.6 270.2 941.7 271.1 941.7 271.9C941.7 272.4 941.8 272.8 941.9 273.2C942 273.6 942.1 274 942.3 274.5C942.6 275.3 942.8 276.1 942.9 277.1C943 278.2 943.1 279.6 943 281.1C943 282 942.8 282.9 942.6 283.7C942.5 284.1 942.4 284.6 942.3 285C942.2 285.4 942.2 285.9 942.2 286.3C942.1 287.1 942.1 288 941.8 288.9C941.6 289.8 941.1 290.6 940.8 291.3C940.6 291.7 940.4 292.1 940.2 292.5C939.8 293.6 939.3 294.7 938.5 296.1C938.4 296.4 938.2 296.7 938.1 297C937.7 297.8 937.2 298.7 936.6 299.6C936.4 299.9 936.2 300.2 936.1 300.4C935.6 301.2 935.1 302 934.4 302.7C933.8 303.4 933.1 304 932.4 304.5C932.1 304.7 931.8 305 931.5 305.2C931.2 305.5 930.9 305.8 930.6 306.1C930.1 306.7 929.5 307.4 928.7 307.9C927.9 308.5 926.9 308.7 926.2 308.9C925.8 309 925.3 309.1 925.1 309.3C924.7 309.5 924.4 309.7 924.1 309.9C923.4 310.3 922.7 310.8 921.8 311.1C921.4 311.2 921.1 311.4 920.7 311.6C919.9 311.9 919.1 312.3 918.2 312.5C917.1 312.8 915.8 313 914.4 313.2C913.2 313.4 911.9 313.5 910.6 313.5C909.3 313.5 908 313.5 906.7 313.4C905.8 313.3 904.9 313 904.2 312.8C903.8 312.7 903.4 312.5 903 312.4C902.1 312.2 901.3 311.8 900.6 311.4C900.2 311.2 899.8 311 899.5 310.8C899.2 310.7 898.8 310.6 898.3 310.5C897.5 310.3 896.7 310.2 895.8 309.7C895 309.3 894.2 308.7 893.6 308.2C893.3 308 893 307.8 892.7 307.5C892.4 307.3 892 307.1 891.6 306.9C890.9 306.6 890.1 306.2 889.4 305.6C888.6 304.9 888.2 304.1 887.8 303.4C887.6 303 887.4 302.7 887.2 302.4C887 302.2 886.7 301.9 886.3 301.6C885.7 301.1 885 300.6 884.5 299.8C884 299 883.6 298.2 883.3 297.4C883.2 297.1 883 296.7 882.8 296.4C882.3 295.4 882 294.3 881.6 293.3L881.5 292.8C881.2 291.8 881 290.8 880.8 289.9L880.7 289.2C880.6 288.8 880.5 288.5 880.4 288.1C880.2 287.3 880 286.5 879.9 285.5C879.8 284.5 879.9 283.6 880 282.7C880 282.4 880.1 282.1 880.1 281.8C880.1 281.5 880.1 281.2 880.2 280.9C880.2 280 880.3 279.1 880.5 278.1C880.6 277.8 880.6 277.5 880.7 277.2C880.9 276.3 881 275.3 881.4 274.4C881.7 273.5 882.2 272.8 882.7 272.2C883 271.8 883.2 271.5 883.4 271.2C883.6 270.9 883.7 270.5 883.9 270.2C884.2 269.5 884.6 268.6 885.1 267.8C885.9 266.7 886.7 265.6 887.6 264.6C888.4 263.7 889.3 263 890.2 262.4L890.7 262C891 261.8 891.3 261.4 891.6 261.1C892.2 260.5 892.9 259.8 893.8 259.3C894.7 258.8 895.7 258.6 896.5 258.4C897 258.3 897.4 258.2 897.7 258.1L898.4 257.9C899.4 257.5 900.5 257.1 901.6 256.9C902.6 256.7 903.6 256.7 904.4 256.8C904.8 256.8 905.2 256.8 905.6 256.8C905.9 256.8 906.4 256.7 906.8 256.6C907.6 256.4 908.6 256.2 909.7 256.3C910.7 256.4 911.6 256.8 912.4 257.2C912.8 257.4 913.2 257.6 913.6 257.7C914.8 258.1 916.1 258.5 917.4 259.1C918.4 259.6 919.2 260.1 920 260.7C920.3 260.9 920.5 261.1 920.8 261.3C921.1 261.5 921.5 261.7 921.9 261.9C922.7 262.3 923.5 262.7 924.3 263.5C925.2 264.3 925.8 265.2 926.4 266.1C926.5 266.3 926.7 266.5 926.8 266.7C927 267 927.2 267.2 927.4 267.5C928 268.3 928.7 269.2 929.2 270.2C929.3 270.4 929.4 270.7 929.6 270.9C930.1 271.9 930.6 272.9 930.9 274C931.2 275.1 931.1 276.1 931 276.9C931 277.4 930.9 277.8 931 278.1C931 278.5 931.1 278.9 931.2 279.3C931.4 280.2 931.6 281.1 931.5 282.2C931.4 283.5 931.2 284.9 930.8 286.3C930.5 287.3 930 288.2 929.6 288.9C929.4 289.3 929.1 289.7 929 290C928.5 291.1 927.9 292.3 927.1 293.6C926.4 294.6 925.7 295.6 924.8 296.5C924 297.4 923.1 298 922.2 298.6L921.9 298.8C921.7 299 921.4 299.2 921.2 299.3C920.5 299.8 919.8 300.4 918.9 300.8C918.6 300.9 918.3 301.2 918 301.4C917.3 301.9 916.6 302.4 915.6 302.6C914.6 302.9 913.6 302.8 912.9 302.7C912.5 302.7 912.1 302.6 911.8 302.6C911.6 302.6 911.3 302.7 911.1 302.7C910.2 302.8 909.2 302.9 908.1 302.9C907.8 302.9 907.5 302.9 907.2 302.9C906.4 302.9 905.4 302.8 904.4 302.6C903.1 302.3 901.9 301.9 900.8 301.4C899.8 301 898.8 300.4 897.5 299.5C896.6 298.9 895.8 298.1 895.2 297.4C895 297.2 894.9 297 894.7 296.9C894 296.2 893.5 295.3 893.1 294.6C892.9 294.3 892.8 294 892.6 293.7L892.4 293.3C891.8 292.4 891.2 291.5 890.8 290.4C890.7 290.1 890.6 289.9 890.5 289.6C890.1 288.8 889.7 287.9 889.5 286.8C889.3 285.6 889.3 284.4 889.3 283.3V283C889.3 282.7 889.3 282.3 889.2 281.9C889.1 281.1 889 280.1 889.2 279.1C889.4 278.1 889.8 277.2 890.2 276.4C890.4 276.1 890.5 275.8 890.6 275.5C891 274.5 891.6 273.7 892.1 273C892.3 272.8 892.5 272.5 892.6 272.2C893.3 271.1 894.2 270.3 895 269.6L895.2 269.4C895.4 269.2 895.7 268.9 895.9 268.7C896.5 268.1 897.2 267.3 898.1 266.8C898.4 266.6 898.7 266.4 899 266.3C899.8 265.8 900.6 265.2 901.7 264.9C903 264.5 904.3 264.4 905.4 264.3H905.6C906.7 264.2 907.8 264.4 908.8 264.6C909.1 264.6 909.3 264.7 909.6 264.7C910.9 264.9 912 265.3 913.1 265.8L913.4 265.9C914.6 266.4 915.7 266.9 916.9 267.8C917.2 268 917.5 268.2 917.8 268.3C918.6 268.8 919.6 269.4 920.3 270.3C921.1 271.2 921.5 272.2 921.9 273.2C922 273.5 922.1 273.8 922.3 274.1C922.9 275.3 923.3 276.5 923.6 278.1C923.8 279.4 923.9 280.6 923.8 282.2C923.7 283.5 923.4 284.8 922.9 286.2L922.7 286.7C922.4 287.7 922 288.9 921.2 290L917.9 287.8C918.3 287.1 918.6 286.4 918.9 285.5L919.1 284.9C919.5 283.8 919.7 282.9 919.8 281.9C919.9 280.7 919.8 279.7 919.7 278.8C919.5 277.6 919.2 276.7 918.8 275.8C918.6 275.5 918.5 275.1 918.3 274.8C918 274.1 917.7 273.4 917.3 273C916.9 272.6 916.4 272.2 915.7 271.8C915.4 271.6 915 271.4 914.7 271.2C913.8 270.6 912.9 270.1 912 269.8L911.7 269.7C910.7 269.3 909.9 269 909.1 268.9C908.8 268.9 908.5 268.8 908.2 268.8C907.4 268.7 906.7 268.5 906 268.6H905.8C904.8 268.7 903.8 268.8 902.9 269C902.4 269.2 901.8 269.5 901.3 269.9C901 270.1 900.6 270.4 900.2 270.6C899.8 270.8 899.4 271.3 898.9 271.8C898.6 272.1 898.3 272.4 898 272.7L897.7 272.9C897 273.6 896.4 274.1 895.9 274.9C895.7 275.2 895.5 275.5 895.3 275.8C894.9 276.4 894.5 276.9 894.3 277.5C894.1 277.9 894 278.3 893.8 278.6C893.5 279.2 893.2 279.8 893.1 280.3C893 280.7 893.1 281.2 893.2 281.8C893.3 282.3 893.3 282.8 893.3 283.4V283.7C893.3 284.7 893.3 285.6 893.4 286.4C893.5 287 893.8 287.7 894.1 288.4C894.2 288.7 894.4 289 894.5 289.3C894.8 290 895.2 290.7 895.8 291.5L896 291.9C896.2 292.3 896.4 292.6 896.6 293C896.9 293.6 897.2 294.1 897.6 294.4C897.8 294.6 898 294.8 898.2 295C898.7 295.6 899.3 296.1 899.8 296.5C900.9 297.2 901.7 297.7 902.5 298C903.4 298.4 904.4 298.7 905.4 299C906 299.1 906.6 299.2 907.3 299.2C907.7 299.2 908 299.2 908.4 299.2C909.1 299.2 909.8 299.2 910.6 299.1C910.9 299.1 911.1 299 911.4 299C912.1 298.9 912.7 299 913.3 299.1C913.8 299.1 914.3 299.2 914.5 299.1C914.8 299 915.3 298.7 915.7 298.4C916.1 298.1 916.6 297.8 917.2 297.5C917.7 297.2 918.2 296.8 918.8 296.4C919.1 296.2 919.3 296 919.6 295.8L919.9 295.6C920.7 295.1 921.4 294.5 922 293.9C922.7 293.2 923.3 292.4 923.8 291.5C924.5 290.5 924.9 289.5 925.4 288.5C925.7 287.9 926 287.4 926.3 286.9C926.6 286.4 926.9 285.9 927 285.4C927.3 284.2 927.5 283.1 927.6 282C927.6 281.5 927.5 280.9 927.4 280.2C927.3 279.7 927.2 279.2 927.1 278.6C927 277.9 927.1 277.2 927.1 276.6C927.2 276 927.2 275.5 927.1 275.1C926.9 274.3 926.5 273.5 926.1 272.7C926 272.4 925.8 272.2 925.7 271.9C925.4 271.2 924.9 270.6 924.4 269.9C924.2 269.6 924 269.3 923.8 269.1C923.6 268.9 923.5 268.7 923.3 268.4C922.8 267.6 922.3 266.9 921.7 266.4C921.4 266.1 920.9 265.8 920.3 265.5C919.8 265.3 919.3 265 918.7 264.6C918.4 264.4 918.1 264.2 917.8 264C917.1 263.5 916.5 263.1 915.8 262.8C914.7 262.3 913.6 262 912.6 261.6C911.9 261.4 911.3 261.1 910.8 260.9C910.3 260.6 909.7 260.4 909.3 260.3C909 260.3 908.4 260.4 907.9 260.5C907.3 260.6 906.6 260.8 905.9 260.8C905.4 260.8 904.9 260.8 904.4 260.8C903.7 260.8 903 260.7 902.5 260.8C901.7 261 900.8 261.3 899.9 261.6L899.2 261.9C898.6 262.1 898.1 262.2 897.5 262.4C896.9 262.5 896.3 262.7 895.8 262.9C895.4 263.1 895 263.5 894.6 264C894.2 264.4 893.8 264.9 893.2 265.3L892.7 265.7C891.9 266.3 891.2 266.9 890.6 267.5C889.8 268.3 889.1 269.2 888.4 270.2C888.1 270.7 887.8 271.3 887.5 271.9C887.3 272.3 887.2 272.7 887 273.1C886.7 273.7 886.4 274.2 886 274.6C885.7 275.1 885.4 275.5 885.3 275.8C885.1 276.5 884.9 277.2 884.8 278C884.7 278.3 884.7 278.6 884.6 278.9C884.5 279.6 884.4 280.3 884.4 281.1C884.4 281.4 884.4 281.8 884.3 282.1C884.3 282.4 884.2 282.8 884.2 283.1C884.1 283.9 884.1 284.6 884.1 285.3C884.1 285.8 884.3 286.5 884.5 287.1C884.6 287.6 884.7 288 884.8 288.5L884.9 289.3C885.1 290.1 885.2 290.9 885.4 291.7L885.6 292.2C885.9 293.1 886.2 294 886.6 294.8C886.8 295.2 887 295.6 887.1 296C887.4 296.6 887.6 297.2 887.9 297.7C888.1 298 888.5 298.3 888.9 298.6C889.4 299 889.9 299.4 890.3 299.9C890.8 300.5 891.1 301.1 891.4 301.6C891.6 302 891.9 302.5 892.1 302.7C892.4 302.9 892.8 303.2 893.3 303.4C893.8 303.6 894.4 303.9 895 304.3C895.4 304.5 895.7 304.8 896.1 305.1C896.7 305.5 897.3 305.9 897.8 306.2C898.2 306.4 898.7 306.5 899.3 306.6C899.8 306.7 900.5 306.8 901.1 307.1C901.7 307.3 902.3 307.6 902.8 307.9C903.3 308.2 903.8 308.4 904.2 308.5C904.7 308.6 905.3 308.8 905.7 309C906.3 309.2 906.9 309.4 907.4 309.5C908.5 309.6 909.6 309.6 910.8 309.6C911.9 309.6 913.1 309.4 914.2 309.3C915.5 309.1 916.6 308.9 917.5 308.7C918.1 308.6 918.7 308.3 919.4 308C919.8 307.8 920.2 307.6 920.7 307.5C921.2 307.3 921.7 307 922.3 306.6C922.7 306.3 923.1 306.1 923.6 305.8C924.3 305.4 925 305.3 925.6 305.1C926.1 305 926.6 304.8 926.8 304.7C927.2 304.4 927.6 304 928 303.5C928.4 303.1 928.7 302.7 929.2 302.3C929.5 302 929.9 301.7 930.2 301.4C930.8 300.9 931.3 300.5 931.7 300.1C932.2 299.6 932.6 298.9 933 298.2C933.2 297.9 933.4 297.6 933.6 297.3C934 296.7 934.4 295.9 934.8 295.2C935 294.9 935.1 294.6 935.3 294.3C936 293 936.4 292.1 936.8 291.2C937 290.6 937.3 290.1 937.6 289.5C937.9 288.9 938.2 288.4 938.3 288C938.4 287.5 938.5 286.8 938.5 286.1C938.5 285.6 938.6 285 938.7 284.5C938.8 283.9 938.9 283.4 939 282.9C939.2 282.2 939.3 281.6 939.3 281.1C939.3 279.9 939.3 278.6 939.2 277.6C939.2 277.1 939 276.6 938.8 276C938.6 275.5 938.4 274.8 938.3 274.2C938.2 273.6 938.1 273.1 938.1 272.5C938 271.8 938 271.2 937.8 270.7L937.6 270C937.3 269.1 937 268.2 936.7 267.3C936.5 266.8 936.1 266.3 935.7 265.8C935.4 265.3 935 264.9 934.7 264.3C934.1 263.3 933.5 262.3 932.8 261.4C932.5 261 932 260.6 931.6 260.2C931.2 259.8 930.8 259.5 930.3 259C929.8 258.4 929.4 257.8 929.1 257.2C928.8 256.7 928.6 256.3 928.3 256.1C927.8 255.7 927.2 255.4 926.6 255C926.2 254.7 925.7 254.5 925.3 254.2C924.9 253.9 924.5 253.6 924.1 253.3C923.6 252.9 923 252.5 922.5 252.2C921.5 251.7 920.4 251.1 919.4 250.7C918.9 250.5 918.3 250.3 917.6 250.2C917.1 250.1 916.6 250 916.1 249.8C915 249.5 913.8 249.2 912.8 249L912.4 248.9C911.4 248.7 910.4 248.5 909.5 248.4C909.2 248.4 908.7 248.5 908.2 248.6C907.6 248.7 906.9 248.9 906.1 248.9C905.7 248.9 905.3 248.9 904.9 248.9C904.1 248.9 903.4 248.9 902.7 248.9C902.1 249 901.4 249.1 900.7 249.3C900.3 249.4 899.8 249.5 899.4 249.6C898.6 249.7 897.9 249.7 897.3 249.7C896.8 249.7 896.3 249.7 896 249.7C895.6 249.8 895.1 250.1 894.5 250.4C894 250.7 893.5 251 892.9 251.2C891.8 251.7 890.8 252.1 889.8 252.6C888.9 253.1 888 253.6 886.9 254.3C886.3 254.7 885.7 255 885.1 255.2C884.6 255.4 884.1 255.6 883.8 255.9C883.5 256.1 883.3 256.5 883 257C882.7 257.5 882.3 258.1 881.7 258.7C881.2 259.2 880.7 259.8 880.3 260.4C880.1 260.7 879.8 261 879.6 261.3C879.3 261.7 879 262 878.6 262.4C878.1 262.9 877.7 263.4 877.4 263.9C877 264.5 876.6 264.9 876.2 265.4C875.8 265.8 875.5 266.2 875.2 266.6C875 267 874.8 267.6 874.6 268.1C874.4 268.6 874.3 269.2 874 269.8C873.8 270.3 873.6 270.9 873.4 271.6C873.3 272.1 873.1 272.6 873 273C872.6 274.2 872.3 275.2 872 276.2C871.7 277.3 871.5 278.4 871.4 279.5C871.2 280.6 871.1 281.8 871.1 282.8C871 283.6 870.8 284.2 870.7 284.8C870.6 285.3 870.4 285.8 870.4 286.1C870.4 286.5 870.5 287 870.7 287.5C870.9 288.1 871 288.7 871.1 289.4C871.2 289.9 871.2 290.4 871.2 290.9C871.2 291.6 871.3 292.2 871.4 292.8C871.5 293.4 871.7 294.1 872 294.8C872.1 295.2 872.3 295.6 872.4 296.1C872.5 296.4 872.6 296.8 872.7 297.1C872.9 297.9 873.1 298.6 873.4 299.3C873.6 299.7 873.7 300.2 873.9 300.6C874.1 301.3 874.3 301.9 874.6 302.5C874.8 302.9 875.1 303.3 875.5 303.7C875.9 304.1 876.3 304.6 876.6 305.2C876.9 305.8 877.2 306.4 877.4 306.9C877.6 307.4 877.8 307.9 878.1 308.3C878.4 308.7 878.7 309.1 878.9 309.5C879.3 310.1 879.6 310.6 880 311.1C880.4 311.6 880.9 312 881.4 312.5C881.7 312.8 882.1 313.1 882.4 313.4L882.8 313.8C883.5 314.5 884.1 315.1 884.8 315.7C885.2 316 885.7 316.3 886.3 316.6C886.8 316.9 887.3 317.1 887.8 317.5C888.4 317.9 889 318.2 889.7 318.6C890.1 318.8 890.4 319 890.8 319.2C891.2 319.4 891.6 319.7 892 319.9C892.6 320.3 893.1 320.6 893.7 320.9C894.4 321.2 894.9 321.6 895.4 322C895.8 322.3 896.3 322.6 896.6 322.8C896.9 322.9 897.4 322.9 897.8 322.9C898.5 322.9 899.2 322.9 900 323.1C900.7 323.3 901.3 323.6 901.8 323.8C902.3 324 902.8 324.3 903.2 324.3C903.5 324.4 904 324.3 904.5 324.3C905.1 324.2 905.9 324.2 906.6 324.3C907 324.4 907.5 324.4 907.9 324.5C908.6 324.6 909.3 324.7 910 324.7C910.7 324.7 911.4 324.9 912 325C912.5 325.1 913 325.3 913.4 325.2C913.8 325.2 914.4 325.1 914.9 324.9C915.4 324.8 916.1 324.6 916.7 324.5C917.4 324.4 918.1 324.5 918.7 324.5C919.3 324.5 919.8 324.6 920.2 324.5C920.6 324.4 921.1 324.2 921.6 324C922.1 323.8 922.7 323.5 923.4 323.3L924 323.1C924.9 322.8 925.8 322.6 926.7 322.3C927.6 322 928.5 321.6 929.4 321.2L929.8 321C930.3 320.8 930.8 320.5 931.3 320.1C931.7 319.8 932.2 319.5 932.7 319.2C933.5 318.8 934.2 318.6 934.9 318.5C935.3 318.4 935.8 318.3 936 318.2C936.3 318 936.6 317.6 937 317.2C937.4 316.7 937.9 316.2 938.5 315.7C939.1 315.3 939.7 314.9 940.2 314.7C940.7 314.4 941.1 314.2 941.4 313.9C941.6 313.7 941.9 313.3 942.1 312.8C942.4 312.2 942.8 311.6 943.3 311C943.8 310.5 944.3 310.1 944.8 309.7C945.2 309.4 945.7 309.1 945.9 308.8C946.1 308.5 946.4 308.2 946.7 307.9C947.2 307.3 947.7 306.7 948.1 306.2L951.4 308.4C950.9 309.2 950.3 309.8 949.8 310.5C949.6 310.8 949.3 311.1 949.1 311.4C948.5 312.1 947.8 312.6 947.2 313.1C946.8 313.4 946.5 313.6 946.2 313.9C946 314.1 945.8 314.5 945.5 314.9C945.1 315.6 944.7 316.3 944 317C943.3 317.6 942.6 318 941.9 318.4C941.5 318.6 941.1 318.8 940.8 319C940.5 319.2 940.2 319.6 939.9 319.9C939.4 320.5 938.9 321.1 938.1 321.6C937.2 322.2 936.3 322.3 935.6 322.5C935.2 322.6 934.7 322.7 934.5 322.8C934.1 323 933.7 323.3 933.4 323.5C932.8 323.9 932.1 324.4 931.4 324.7L931 324.9C930 325.3 929.1 325.8 928 326.2C927 326.6 926 326.8 925 327.1L924.5 327.2C924.1 327.3 923.7 327.5 923.3 327.7C922.6 328 921.9 328.4 921 328.5C920.1 328.7 919.3 328.6 918.5 328.6C918 328.6 917.6 328.5 917.2 328.6C916.8 328.6 916.4 328.8 915.9 328.9C915.2 329.1 914.4 329.3 913.5 329.3C912.8 328.5 912.7 328.5 912.6 328.5Z" fill="#FFECC1"/>
<path d="M1073.4 280.2C1073.3 281.4 1072.5 282.4 1072.3 283.6C1072.1 284.7 1072.2 285.9 1071.9 287.1C1071.6 288.2 1071.1 289.3 1070.8 290.4C1070.5 291.5 1070.4 292.7 1070.1 293.8C1069.7 294.9 1069.2 296 1068.8 297C1068.4 298.1 1067.7 299.1 1067.2 300.1C1066.7 301.2 1066.1 302.1 1065.5 303.2C1065 304.2 1064.4 305.2 1063.8 306.2C1063.2 307.2 1062.8 308.3 1062.1 309.2C1061.5 310.2 1061.3 311.5 1060.6 312.4C1059.9 313.3 1058.7 313.9 1057.9 314.8C1057.2 315.7 1056.9 317 1056.1 317.9C1055.3 318.8 1054.2 319.3 1053.4 320.1C1052.6 320.9 1051.6 321.6 1050.7 322.3C1049.8 323.1 1048.8 323.7 1047.8 324.5C1046.8 325.2 1046 326.1 1045 326.8C1044 327.5 1043.3 328.6 1042.2 329.2C1041.2 329.8 1040 330.2 1038.9 330.8C1037.8 331.3 1036.6 331.6 1035.5 332.1C1034.4 332.6 1033.3 333.1 1032.2 333.5C1031.1 333.9 1029.8 334 1028.7 334.4C1027.5 334.7 1026.4 335.3 1025.3 335.5C1024.1 335.8 1022.9 335.8 1021.7 336C1020.5 336.2 1019.3 336.4 1018.1 336.5C1016.9 336.6 1015.7 336.4 1014.5 336.4C1013.3 336.4 1012.1 336.8 1010.9 336.8C1009.7 336.7 1008.5 336.6 1007.3 336.5C1006.1 336.4 1005 335.9 1003.8 335.6C1002.6 335.4 1001.5 335 1000.3 334.7C999.1 334.4 997.9 334.5 996.7 334.1C995.6 333.7 994.6 332.8 993.5 332.4C992.4 332 991.1 331.9 990 331.4C988.9 330.9 987.9 330.3 986.8 329.7C985.8 329.1 984.9 328.9 983.9 328.3C983 329.7 981.9 330.7 980.6 331.8C979.7 332.6 978.8 333.5 977.8 334C976.8 334.6 975.4 334.3 974.3 334.7C973.2 335.1 972.2 335.7 971 335.9C969.8 336 968.7 335.7 967.5 335.6C966.3 335.5 965 335.9 963.9 335.6C962.8 335.3 961.7 334.7 960.6 334.1C959.6 333.5 958.7 332.7 957.8 331.9C956.9 331.1 956.1 330.3 955.4 329.3C954.6 328.3 953.9 327.3 953.2 326.3C952.5 325.3 951.7 324.3 951 323.3C950.3 322.3 950 321 949.4 319.9C948.8 318.8 947.9 317.9 947.3 316.8C946.7 315.7 946.4 314.5 945.9 313.4C945.4 312.3 944.7 311.2 944.3 310.1C943.9 309 943.7 307.7 943.3 306.5C942.9 305.3 942.9 304.1 942.5 302.9C942.2 301.7 941.2 300.7 941 299.5C940.7 298.3 940.3 297.1 940.1 295.9C939.9 294.7 940.1 293.4 939.9 292.2C939.7 291 939.7 289.7 939.6 288.5C939.5 287.3 938.8 286.1 938.7 284.8C938.6 283.6 939.1 282.3 939.1 281.1C939.1 279.9 938.7 278.6 938.8 277.4C938.9 276.2 939.2 274.9 939.3 273.7C939.4 272.5 939.2 271.2 939.4 270C939.6 268.8 940.4 267.6 940.6 266.4C940.8 265.2 940.5 263.8 940.8 262.6C941.1 261.4 941.8 260.3 942.1 259.1C942.4 257.9 943 256.8 943.4 255.6C943.8 254.4 943.9 253.2 944.4 252C944.8 250.8 945.7 249.9 946.2 248.7C946.7 247.6 947.3 246.5 947.8 245.4C948.4 244.3 948.9 243.2 949.5 242.1C950.1 241 950.5 239.8 951.2 238.8C951.9 237.8 952.8 236.9 953.5 235.9C954.2 234.9 954.8 233.8 955.5 232.8C956.3 231.8 956.9 230.8 957.7 229.8C958.5 228.9 959.3 227.9 960.1 227C960.9 226.1 962 225.4 962.9 224.6C963.8 223.7 964.5 222.7 965.4 221.8C966.3 221 967.2 220.3 968.2 219.6C969.1 218.9 970 218 970.9 217.3C971.9 216.6 972.8 215.9 973.8 215.3C974.8 214.7 975.9 214.2 976.9 213.6C977.9 213 978.9 212.2 979.9 211.7C981 211.2 982.1 210.8 983.2 210.3C984.3 209.8 985.5 209.7 986.6 209.3C987.7 208.9 988.7 208.2 989.8 207.9C990.9 207.6 992.1 207.3 993.2 207.1C994.3 206.8 995.5 206.3 996.6 206.1C997.8 205.9 998.9 205.7 1000.1 205.5C1001.3 205.4 1002.5 205.3 1003.6 205.3C1004.8 205.2 1006 205.9 1007.2 205.8C1008.4 205.8 1009.6 205.1 1010.7 205.2C1011.9 205.2 1013.1 205.2 1014.2 205.3C1015.4 205.4 1016.5 206 1017.7 206.2C1018.9 206.4 1020 206.9 1021.2 207.2C1022.4 207.4 1023.5 207.8 1024.7 208.1C1025.9 208.4 1027.2 208.2 1028.3 208.6C1029.4 209 1030.7 209.2 1031.8 209.6C1032.9 210 1033.8 211 1034.9 211.5C1036 212 1037 212.6 1038.1 213.2C1039.2 213.8 1040.2 214.3 1041.3 214.9C1042.3 215.5 1043.5 216 1044.5 216.6C1045.5 217.3 1046.6 217.8 1047.6 218.5C1048.5 219.2 1049.2 220.3 1050.1 221.1C1051 221.9 1052.2 222.4 1053 223.2C1053.8 223.9 1054 225.2 1054.7 226C1055.4 226.8 1056.6 227.2 1057.3 228C1058 228.8 1058.4 229.8 1059.1 230.7C1059.8 231.6 1060.9 232.3 1061.6 233.2C1062.3 234.2 1062.7 235.3 1063.3 236.3C1063.9 237.3 1064.1 238.5 1064.7 239.6C1065.3 240.6 1066.2 241.5 1066.7 242.5C1067.2 243.6 1067.9 244.5 1068.3 245.6C1068.7 246.7 1069 247.9 1069.4 249C1069.8 250.1 1070 251.3 1070.4 252.4C1070.7 253.5 1071.3 254.6 1071.6 255.7C1071.9 256.8 1071.6 258.1 1071.8 259.2C1072 260.4 1072.6 261.4 1072.7 262.6C1072.9 263.8 1073.2 264.9 1073.3 266.1C1073.4 267.3 1073.3 268.4 1073.3 269.6C1073.3 270.8 1073.3 271.9 1073.2 273.1C1073.2 274.3 1073.4 275.5 1073.3 276.6C1073.5 277.8 1073.6 279 1073.4 280.2Z" fill="#FFFBF2"/>
<path d="M1073.1 280.1C1071.2 296.1 1063.7 311.4 1051 322.5C1031.4 339.7 1004.3 340.9 984 327.6L1013.4 317.3C1021.2 314.5 1023.7 304.7 1018 298.6L1019.5 297.1C1039.3 277.3 1051.2 251.2 1053.2 223.5C1055.5 225.7 1057.6 228.1 1059.6 230.6C1070.8 244.9 1075.2 262.9 1073.1 280.1Z" fill="#FFF2D6"/>
<path d="M1015.5 323C1014.4 323 1013.6 322.7 1012.9 322.4C1012.5 322.2 1012.1 322.1 1011.8 322.1C1011.5 322.1 1011 322.1 1010.6 322.2C1009.9 322.3 1009 322.4 1008.1 322.2C1007.3 322.1 1006.5 321.8 1005.8 321.6C1005.4 321.5 1005 321.3 1004.5 321.2C1003.6 321 1002.7 320.7 1001.9 320.4C1001.6 320.3 1001.3 320.2 1001 320.1C1000.2 319.8 999.4 319.5 998.6 319.1C998.3 318.9 997.9 318.8 997.6 318.6C997.2 318.4 996.8 318.3 996.4 318.1C995.7 317.9 994.9 317.6 994.2 317.2C993.4 316.8 992.7 316.3 992.1 315.9C991.8 315.7 991.4 315.4 991.1 315.2C990.8 315 990.4 314.8 990.1 314.6C989.4 314.2 988.7 313.8 988 313.3C987.7 313.1 987.4 312.8 987 312.6C986.3 312.1 985.6 311.7 985 311.1C984.3 310.5 983.9 309.8 983.5 309.2C983.2 308.8 983 308.4 982.7 308.2C982.4 307.9 982.1 307.6 981.8 307.3C981.2 306.8 980.6 306.3 980.1 305.6C979.3 304.7 978.6 303.7 977.9 302.6C977.4 301.8 977 301.1 976.6 300.3C976.4 300 976.3 299.7 976.1 299.3C975.9 299 975.6 298.7 975.3 298.3C974.8 297.7 974.2 297.1 973.9 296.2C973.5 295.4 973.4 294.5 973.2 293.8C973.1 293.3 973 292.9 972.9 292.6C972.8 292.2 972.6 291.9 972.5 291.5C972.2 290.7 971.9 289.9 971.7 289.1C971.5 288.2 971.4 287.4 971.4 286.7C971.4 286.2 971.4 285.8 971.3 285.4C971.3 285.1 971.1 284.7 970.9 284.3C970.6 283.6 970.2 282.8 970.1 281.8C970 280.9 970.2 280 970.4 279.3C970.5 278.8 970.6 278.4 970.6 278.1V277.8C970.6 276.7 970.6 275.6 970.7 274.4C970.8 273.5 971 272.7 971.2 272C971.3 271.6 971.4 271.2 971.5 270.8C971.6 270.5 971.6 270 971.6 269.5C971.6 268.8 971.6 267.9 971.8 267C972 266.2 972.4 265.4 972.7 264.6C972.9 264.2 973 263.8 973.2 263.5C973.3 263.1 973.5 262.7 973.6 262.3C973.8 261.5 974.1 260.8 974.4 260C974.6 259.6 974.7 259.3 974.9 258.9C975.2 258.2 975.5 257.4 976 256.6C976.5 255.8 977.2 255.2 977.8 254.7C978.2 254.4 978.5 254.1 978.7 253.9C978.9 253.6 979.1 253.2 979.3 252.8C979.6 252.1 980 251.4 980.6 250.7C981.3 249.9 982.1 249 983.2 248C983.8 247.4 984.6 247 985.2 246.6C985.6 246.4 986 246.1 986.3 245.9L986.6 245.6C987.4 244.9 988.3 244.2 989.2 243.6L989.6 243.4C990.5 242.8 991.4 242.2 992.4 241.6C993.3 241.1 994.2 240.8 995 240.4C995.3 240.3 995.5 240.2 995.8 240.1C996.2 239.9 996.6 239.8 996.9 239.6C997.6 239.2 998.4 238.9 999.2 238.6C999.5 238.5 1000 238.3 1000.4 238.1C1001.1 237.8 1001.9 237.4 1002.8 237.2C1003.8 237 1004.7 237.1 1005.4 237.2C1005.9 237.3 1006.3 237.3 1006.6 237.3C1007 237.3 1007.4 237.2 1007.7 237.2C1008.5 237.1 1009.4 237 1010.3 237C1010.7 237 1011.1 237 1011.6 236.9C1012.4 236.8 1013.2 236.8 1014.1 236.9C1015.5 237 1016.7 237.2 1017.9 237.4C1019.2 237.6 1020.4 238 1021.6 238.4C1022.5 238.7 1023.2 239 1024 239.4C1024.4 239.6 1024.7 239.7 1025.1 239.9C1025.9 240.2 1026.6 240.7 1027.3 241.1C1027.7 241.4 1028 241.6 1028.4 241.8C1028.7 242 1029 242.1 1029.3 242.3C1030.1 242.7 1030.9 243.1 1031.7 243.6C1032 243.8 1032.4 244 1032.7 244.2C1033.4 244.6 1034.1 245 1034.8 245.6C1035.5 246.2 1036.2 246.9 1036.8 247.5C1037 247.7 1037.3 248 1037.5 248.2C1037.8 248.5 1038.1 248.7 1038.5 249C1039.1 249.4 1039.8 249.9 1040.4 250.7C1041 251.4 1041.4 252.2 1041.8 252.9C1042 253.3 1042.2 253.7 1042.4 254C1042.9 254.8 1043.3 255.6 1043.6 256.4C1043.8 256.8 1043.9 257.2 1044.1 257.5C1044.6 258.4 1044.9 259.3 1045.2 260.2C1045.3 260.5 1045.4 260.8 1045.5 261.1C1045.6 261.5 1045.8 261.9 1046 262.3C1046.3 263 1046.7 263.8 1047 264.7C1047.1 265.1 1047.2 265.5 1047.4 266C1047.7 266.8 1048 267.6 1048.1 268.5C1048.2 269.5 1048.2 270.5 1048.2 271.4C1048.2 271.7 1048.2 272.1 1048.2 272.4C1048.2 273.3 1048.1 274.2 1048 275.1C1047.9 275.5 1047.9 275.9 1047.8 276.3C1047.7 277.3 1047.5 278.2 1047.3 279.1C1047.2 279.4 1047.1 279.8 1047.1 280.1C1046.9 281.2 1046.5 282.4 1046.1 283.8C1046 284.2 1045.9 284.6 1045.8 285.1C1045.6 285.9 1045.4 286.7 1045.1 287.6C1044.7 288.5 1044.2 289.2 1043.7 289.8C1043.4 290.2 1043.2 290.5 1042.9 290.9C1042.2 292.1 1041.4 293.1 1040.7 294.1C1039.9 295.2 1039 296.1 1038.1 297C1037.2 297.9 1036.3 298.7 1035.2 299.6C1034.9 299.8 1034.6 300.1 1034.3 300.4C1033.7 301 1033 301.5 1032.3 302.1C1032 302.3 1031.6 302.6 1031.3 302.9C1030.7 303.4 1030 303.9 1029.2 304.3C1028.2 304.8 1027 305.4 1025.7 305.8C1024.7 306.2 1023.6 306.4 1022.6 306.6L1022 306.7C1021.6 306.8 1021.2 306.9 1020.8 307C1020 307.2 1019.2 307.5 1018.3 307.6C1017.2 307.7 1015.9 307.7 1014.4 307.7C1013.4 307.7 1012.6 307.4 1011.8 307.1C1011.4 307 1010.9 306.8 1010.6 306.8C1009.7 306.7 1008.8 306.4 1008.1 306.1C1007.7 306 1007.3 305.8 1006.9 305.7C1006.5 305.6 1006.1 305.5 1005.7 305.4C1004.9 305.2 1004.1 305 1003.2 304.7C1002 304.2 1000.9 303.7 999.8 303.1C999.5 302.9 999.1 302.7 998.7 302.6C998 302.3 997.2 301.9 996.4 301.4C996.2 301.2 995.9 301 995.7 300.9C994.9 300.3 994.1 299.8 993.4 299.1C992.7 298.4 992.3 297.7 991.9 297C991.7 296.6 991.4 296.2 991.2 295.9C990.6 295.1 990.1 294.4 989.7 293.6C989.5 293.3 989.4 293 989.2 292.8L988.8 292.2C988.3 291.4 987.7 290.6 987.3 289.6C987.2 289.3 987 289 986.8 288.7C986.4 287.9 986 287.1 985.7 286.2C985.4 285.3 985.4 284.4 985.4 283.6C985.4 283.2 985.4 282.8 985.3 282.4C985.1 281.3 984.9 280.1 984.9 278.7C984.9 278.3 984.8 277.9 984.8 277.5C984.7 276.7 984.6 275.9 984.7 275C984.8 274.1 985.1 273.2 985.4 272.5C985.6 272.1 985.7 271.7 985.8 271.4C985.9 271.1 985.9 270.7 985.9 270.2C986 269.4 986 268.6 986.4 267.7C986.8 266.6 987.3 265.5 988 264.3C988.2 264 988.3 263.6 988.5 263.2C988.8 262.5 989.2 261.7 989.7 260.9C990.2 260.1 990.9 259.5 991.5 258.9C991.8 258.6 992 258.4 992.3 258.1C993 257.3 993.8 256.7 994.6 256L995.1 255.6C996.2 254.7 997.3 254.1 998.3 253.4L998.5 253.3C998.8 253.1 999.2 252.8 999.6 252.6C1000.3 252.1 1001.1 251.5 1002 251.1C1003 250.7 1004 250.6 1004.9 250.4C1005.3 250.3 1005.7 250.3 1006.1 250.2C1006.5 250.1 1006.9 250 1007.3 249.8C1008.1 249.5 1009 249.2 1010.1 249.1C1011.3 249 1012.4 249.1 1013.5 249.3L1014.2 249.4C1015.3 249.5 1016.2 249.9 1016.9 250.3C1017.3 250.5 1017.7 250.7 1018.1 250.8C1018.5 250.9 1018.9 251 1019.3 251C1020.1 251.1 1021.1 251.3 1022 251.7C1022.3 251.8 1022.6 252 1022.9 252.1C1023.8 252.4 1024.8 252.8 1025.7 253.4C1026.8 254.1 1027.8 255 1028.7 255.8L1028.9 256C1029.7 256.7 1030.3 257.5 1030.9 258.3C1031.1 258.6 1031.3 258.9 1031.6 259.1C1032.5 260.2 1033.2 261.4 1033.9 262.5C1034.1 262.8 1034.3 263.2 1034.5 263.5C1035 264.3 1035.5 265.1 1035.9 266.1C1036.3 267.3 1036.6 268.6 1036.9 270.1C1037.1 271.1 1037 272.1 1036.9 273C1036.8 273.4 1036.8 273.9 1036.8 274.2C1036.8 274.6 1036.8 274.9 1036.8 275.3C1036.8 276.2 1036.9 277.2 1036.7 278.3C1036.5 279.4 1036.1 280.3 1035.8 281.1C1035.7 281.4 1035.5 281.8 1035.4 282.1C1035.3 282.4 1035.2 282.8 1035.1 283.1C1034.8 284 1034.5 285 1033.9 285.9L1033.6 286.4C1033 287.4 1032.5 288.4 1031.7 289.3C1031.5 289.6 1031.3 289.8 1031 290.1C1030.4 290.8 1029.7 291.7 1028.9 292.4C1027.9 293.2 1026.8 293.8 1025.9 294.3L1025.3 294.6C1024 295.3 1022.6 295.8 1021.4 296.2C1020.3 296.5 1019.3 296.6 1018.4 296.6C1018 296.6 1017.7 296.6 1017.3 296.7H1016.8C1015.6 296.8 1014.4 296.9 1013.1 296.8C1011.5 296.6 1010.2 296.4 1009 296.1C1007.8 295.7 1006.8 295.2 1005.8 294.7L1005.2 294.4C1004 293.8 1003 293 1001.8 292C1001.6 291.8 1001.2 291.6 1000.8 291.4C1000 291 999 290.5 998.3 289.6L1001.4 287C1001.6 287.3 1002.1 287.5 1002.6 287.8C1003.2 288.1 1003.8 288.4 1004.4 288.9C1005.4 289.7 1006.2 290.3 1007.1 290.8L1007.8 291.2C1008.6 291.7 1009.4 292.1 1010.2 292.3C1011.2 292.6 1012.2 292.8 1013.5 292.9C1014.4 293 1015.4 292.9 1016.4 292.8L1016.9 292.7C1017.3 292.7 1017.8 292.6 1018.3 292.6C1019.1 292.6 1019.8 292.5 1020.3 292.4C1021.4 292.1 1022.5 291.7 1023.5 291.1L1024.2 290.8C1025.1 290.3 1025.9 289.9 1026.5 289.4C1027 289 1027.5 288.3 1028 287.7C1028.2 287.4 1028.5 287.1 1028.7 286.8C1029.3 286.1 1029.7 285.3 1030.2 284.5L1030.5 283.9C1030.8 283.3 1031.1 282.6 1031.3 281.9C1031.4 281.5 1031.6 281.1 1031.7 280.7C1031.8 280.3 1032 279.9 1032.2 279.5C1032.5 278.8 1032.8 278.1 1032.9 277.5C1033 276.9 1033 276.1 1033 275.3C1033 274.9 1033 274.5 1033 274.1C1033 273.5 1033.1 273 1033.1 272.4C1033.2 271.7 1033.3 271.1 1033.2 270.7C1033 269.4 1032.7 268.3 1032.4 267.4C1032.2 266.8 1031.8 266.2 1031.4 265.6C1031.1 265.2 1030.9 264.8 1030.7 264.4C1030.2 263.4 1029.6 262.4 1028.8 261.6C1028.5 261.3 1028.3 261 1028.1 260.7C1027.6 260 1027.1 259.4 1026.6 259L1026.4 258.8C1025.5 258 1024.7 257.3 1023.9 256.8C1023.3 256.4 1022.6 256.1 1021.8 255.8C1021.4 255.7 1021.1 255.5 1020.7 255.4C1020.2 255.2 1019.6 255.1 1018.9 255C1018.4 254.9 1017.9 254.8 1017.3 254.7C1016.6 254.5 1016 254.2 1015.4 253.9C1014.9 253.6 1014.4 253.4 1014 253.4L1013.2 253.3C1012.2 253.2 1011.3 253.1 1010.4 253.2C1009.9 253.2 1009.3 253.4 1008.7 253.7C1008.2 253.9 1007.6 254.1 1007 254.2C1006.5 254.3 1006.1 254.4 1005.6 254.5C1004.9 254.6 1004.1 254.7 1003.6 255C1003.1 255.2 1002.6 255.6 1002.1 256C1001.7 256.3 1001.2 256.7 1000.7 257L1000.5 257.1C999.5 257.7 998.6 258.2 997.8 258.9L997.2 259.4C996.5 260 995.8 260.5 995.3 261.1C995 261.4 994.7 261.7 994.4 262C993.9 262.5 993.4 263 993.1 263.4C992.8 263.8 992.6 264.4 992.3 265C992.1 265.5 991.9 265.9 991.7 266.4C991.1 267.5 990.7 268.4 990.4 269.3C990.3 269.7 990.2 270.2 990.2 270.8C990.2 271.3 990.1 271.9 990 272.5C989.9 273.1 989.7 273.7 989.5 274.1C989.3 274.6 989.1 275.1 989.1 275.5C989.1 276 989.1 276.6 989.2 277.2C989.3 277.7 989.3 278.2 989.4 278.8C989.4 279.8 989.6 280.7 989.8 282C989.9 282.7 989.9 283.3 989.9 283.8C989.9 284.3 989.9 284.9 990 285.2C990.2 285.8 990.5 286.4 990.8 287.1C991 287.5 991.2 287.8 991.3 288.2C991.6 288.9 992.1 289.6 992.5 290.3L992.9 291C993.1 291.3 993.3 291.6 993.5 291.9C993.9 292.6 994.2 293.2 994.7 293.7C995.1 294.2 995.5 294.8 995.8 295.3C996.1 295.8 996.4 296.3 996.7 296.5C997.2 297 997.9 297.5 998.6 298C998.9 298.2 999.1 298.4 999.4 298.6C999.8 298.9 1000.4 299.1 1000.9 299.4C1001.4 299.6 1001.9 299.8 1002.4 300.1C1003.3 300.6 1004.4 301.1 1005.4 301.5C1005.9 301.7 1006.6 301.9 1007.2 302C1007.7 302.1 1008.1 302.2 1008.6 302.3C1009.1 302.4 1009.5 302.6 1010 302.8C1010.6 303 1011.2 303.2 1011.8 303.3C1012.5 303.4 1013.1 303.6 1013.7 303.8C1014.2 304 1014.8 304.2 1015.1 304.2C1016.4 304.2 1017.5 304.2 1018.5 304.1C1019 304.1 1019.6 303.9 1020.2 303.7C1020.7 303.5 1021.2 303.4 1021.8 303.3L1022.5 303.2C1023.4 303 1024.3 302.8 1025.1 302.6C1026.2 302.2 1027.3 301.7 1028.2 301.3C1028.6 301.1 1029.1 300.7 1029.6 300.3C1030 300 1030.4 299.6 1030.9 299.3C1031.4 299 1031.9 298.5 1032.4 298.1C1032.7 297.8 1033.1 297.5 1033.4 297.2C1034.4 296.4 1035.2 295.7 1035.9 294.9C1036.7 294.1 1037.5 293.2 1038.2 292.3C1039 291.3 1039.6 290.4 1040.2 289.5C1040.5 289 1040.8 288.5 1041.2 288.1C1041.6 287.6 1042 287.1 1042.2 286.6C1042.4 286.1 1042.5 285.5 1042.7 284.9C1042.8 284.4 1042.9 283.8 1043.1 283.2C1043.5 281.9 1043.8 280.9 1044 279.9C1044.1 279.5 1044.2 279.2 1044.2 278.8C1044.4 278 1044.6 277.2 1044.6 276.5C1044.6 276 1044.7 275.5 1044.8 275C1044.9 274.3 1045 273.6 1045 273C1045 272.6 1045 272.3 1045 271.9C1045 271 1045 270.2 1044.9 269.5C1044.8 269 1044.6 268.4 1044.4 267.8C1044.2 267.3 1044 266.8 1043.9 266.2C1043.8 265.7 1043.5 265.2 1043.2 264.6C1043 264.1 1042.7 263.6 1042.5 263C1042.4 262.7 1042.3 262.3 1042.1 262C1041.8 261.2 1041.6 260.5 1041.2 259.8C1041 259.4 1040.8 258.9 1040.6 258.5C1040.3 257.8 1040 257.2 1039.7 256.7C1039.4 256.3 1039.1 255.8 1038.9 255.3C1038.6 254.7 1038.3 254.1 1037.9 253.7C1037.6 253.4 1037.2 253.1 1036.7 252.8C1036.2 252.5 1035.7 252.1 1035.2 251.6C1034.9 251.3 1034.7 251.1 1034.4 250.8C1033.8 250.2 1033.3 249.7 1032.7 249.2C1032.2 248.8 1031.7 248.5 1031.1 248.1C1030.7 247.9 1030.3 247.6 1029.9 247.3C1029.3 246.9 1028.6 246.6 1027.9 246.2C1027.6 246 1027.2 245.9 1026.9 245.7C1026.4 245.4 1025.9 245.1 1025.5 244.8C1025 244.5 1024.5 244.1 1024 243.9C1023.6 243.7 1023.1 243.5 1022.7 243.3C1022 243 1021.4 242.7 1020.8 242.5C1019.7 242.2 1018.6 241.8 1017.5 241.6C1016.5 241.4 1015.4 241.2 1014.1 241.1C1013.5 241 1012.9 241.1 1012.2 241.1C1011.7 241.1 1011.2 241.2 1010.7 241.2C1010 241.2 1009.3 241.3 1008.6 241.4C1008.2 241.5 1007.8 241.5 1007.3 241.6C1006.5 241.7 1005.8 241.6 1005.2 241.5C1004.7 241.4 1004.2 241.4 1003.9 241.4C1003.5 241.5 1003 241.7 1002.5 242C1002 242.3 1001.4 242.6 1000.7 242.8C1000.1 243 999.5 243.3 998.9 243.6C998.5 243.8 998 244 997.6 244.2C997.3 244.3 997 244.4 996.7 244.6C995.9 244.9 995.2 245.2 994.5 245.6C993.7 246.1 992.9 246.6 992 247.2L991.6 247.4C990.8 247.9 990.1 248.5 989.3 249.2L989 249.5C988.4 250 987.9 250.3 987.3 250.6C986.8 250.9 986.4 251.1 986.1 251.4C985.2 252.3 984.4 253.1 983.8 253.9C983.5 254.2 983.3 254.7 983 255.2C982.7 255.7 982.5 256.3 982.1 256.8C981.6 257.5 981.1 257.9 980.6 258.4C980.2 258.7 979.8 259 979.7 259.3C979.4 259.8 979.1 260.5 978.9 261.1C978.7 261.5 978.5 262 978.3 262.4C978.1 262.9 977.9 263.5 977.7 264.2C977.6 264.7 977.4 265.2 977.2 265.6C977 266 976.9 266.5 976.7 266.9C976.4 267.6 976.2 268.2 976 268.8C975.9 269.2 975.9 269.7 975.9 270.2C975.9 270.8 975.9 271.5 975.8 272.2C975.7 272.7 975.6 273.2 975.5 273.6C975.3 274.3 975.2 274.9 975.1 275.5C975 276.5 975 277.5 975 278.5V278.8C975 279.6 974.8 280.2 974.7 280.9C974.6 281.4 974.5 281.9 974.5 282.2C974.5 282.5 974.7 282.9 974.9 283.4C975.2 284 975.5 284.7 975.6 285.5C975.7 286.1 975.7 286.7 975.8 287.2C975.8 287.8 975.9 288.4 976 288.8C976.2 289.4 976.4 290.1 976.7 290.8C976.9 291.2 977 291.6 977.2 292C977.4 292.6 977.5 293.3 977.7 293.9C977.8 294.5 977.9 295 978.1 295.4C978.2 295.7 978.6 296.1 978.9 296.5C979.3 297 979.8 297.5 980.1 298.1C980.3 298.5 980.5 298.8 980.7 299.2C981.1 299.9 981.4 300.5 981.8 301.1C982.4 302 983.1 302.9 983.8 303.8C984.2 304.2 984.6 304.7 985.1 305.1C985.5 305.4 985.9 305.8 986.2 306.2C986.7 306.7 987.1 307.3 987.4 307.8C987.7 308.3 988 308.7 988.3 308.9C988.8 309.3 989.4 309.7 990 310.1C990.4 310.4 990.7 310.6 991.1 310.9C991.6 311.3 992.2 311.6 992.8 312C993.2 312.2 993.6 312.5 994 312.7C994.4 312.9 994.8 313.2 995.1 313.5C995.7 313.9 996.3 314.3 996.8 314.6C997.3 314.8 997.8 315 998.4 315.2C998.9 315.4 999.4 315.5 999.9 315.8C1000.3 316 1000.6 316.1 1001 316.3C1001.7 316.6 1002.3 316.9 1003 317.1C1003.3 317.2 1003.6 317.3 1004 317.4C1004.8 317.7 1005.5 317.9 1006.3 318.1C1006.8 318.2 1007.3 318.4 1007.8 318.6C1008.4 318.8 1009 319 1009.5 319.1C1009.8 319.2 1010.3 319.1 1010.9 319C1011.5 318.9 1012.2 318.8 1013 318.9C1013.8 319 1014.5 319.2 1015.1 319.5C1015.6 319.7 1016 319.8 1016.3 319.8C1016.7 319.8 1017.2 319.7 1017.7 319.5C1018.3 319.4 1019 319.2 1019.7 319.1C1020.2 319.1 1020.7 319.1 1021.2 319.1C1021.9 319.1 1022.5 319.1 1023.1 319C1023.5 318.9 1024 318.7 1024.5 318.5C1025 318.3 1025.7 318 1026.4 317.9C1027.1 317.7 1027.7 317.7 1028.3 317.7C1028.9 317.7 1029.4 317.6 1029.8 317.5C1030.4 317.3 1031 317.2 1031.5 317.1C1032.1 317 1032.7 316.9 1033.1 316.7C1034 316.3 1034.9 315.9 1035.8 315.5L1036.2 315.3C1037 314.9 1037.8 314.4 1038.7 313.9L1039.2 313.6C1040.4 312.9 1041.3 312.3 1042.1 311.8C1042.6 311.5 1043 311.1 1043.5 310.6C1043.9 310.2 1044.3 309.9 1044.7 309.5C1045.1 309.2 1045.5 308.7 1045.9 308.3C1046.3 307.9 1046.6 307.5 1047.1 307C1047.7 306.4 1048.4 306.1 1049 305.7C1049.4 305.5 1049.9 305.2 1050.1 305C1050.4 304.7 1050.7 304.2 1051 303.7C1051.3 303.2 1051.6 302.7 1052 302.1C1052.3 301.7 1052.7 301.3 1053.1 300.9C1053.5 300.4 1054 300 1054.3 299.5C1054.7 299 1055 298.4 1055.3 297.7C1055.5 297.3 1055.7 296.9 1056 296.5C1056.3 295.9 1056.6 295.3 1056.9 294.6C1057.1 294.2 1057.3 293.8 1057.5 293.4C1058 292.3 1058.5 291.3 1058.9 290.3C1059.2 289.7 1059.5 289.1 1059.8 288.6C1060.1 288.1 1060.4 287.6 1060.5 287.2C1060.7 286.7 1060.7 286.1 1060.8 285.5C1060.9 284.9 1061 284.4 1061.1 283.8C1061.2 283.2 1061.4 282.6 1061.6 282.1C1061.8 281.5 1062 281 1062.1 280.5C1062.3 279.4 1062.4 278.3 1062.5 277C1062.5 276.6 1062.5 276.1 1062.4 275.5C1062.3 274.9 1062.2 274.2 1062.2 273.5C1062.2 272.9 1062.3 272.3 1062.4 271.7C1062.5 271.1 1062.6 270.5 1062.5 270.1C1062.5 269.7 1062.5 269.3 1062.5 269C1062.5 268.2 1062.5 267.4 1062.4 266.7C1062.3 266.2 1062.2 265.7 1062 265.1C1061.8 264.5 1061.6 263.9 1061.5 263.3C1061.3 262.2 1061 261.1 1060.7 259.9C1060.6 259.4 1060.3 258.9 1060.1 258.4C1059.8 257.9 1059.6 257.3 1059.4 256.7C1059.1 255.9 1059.1 255.1 1059 254.4C1059 253.9 1058.9 253.4 1058.8 253.2C1058.6 252.7 1058.3 252.2 1057.9 251.6C1057.6 251.1 1057.3 250.6 1057.1 250.2C1056.9 249.7 1056.6 249.2 1056.4 248.7C1056.1 248.1 1055.9 247.5 1055.6 247.1L1055.5 246.9C1054.9 246 1054.4 245 1053.7 244.2C1053.4 243.8 1053 243.3 1052.5 242.9C1052.1 242.5 1051.7 242.1 1051.3 241.6C1050.6 240.8 1049.8 239.9 1049.1 239.1L1048.3 238.3C1047.7 237.6 1047.1 237 1046.5 236.4C1046.2 236.2 1045.8 235.9 1045.3 235.7C1044.7 235.4 1044 235.1 1043.4 234.6C1043 234.3 1042.7 234 1042.3 233.7C1041.7 233.2 1041.2 232.8 1040.7 232.4C1040.2 232 1039.6 231.7 1039 231.4C1038.5 231.2 1038.1 230.9 1037.6 230.6C1036.9 230.2 1036.4 229.6 1035.9 229.1C1035.5 228.7 1035.2 228.4 1034.9 228.2C1034.5 228 1033.9 227.8 1033.4 227.7C1032.8 227.5 1032.2 227.3 1031.6 227.1L1031.2 226.9C1030.2 226.5 1029.3 226 1028.3 225.7C1027.2 225.3 1026 224.9 1025 224.6C1024.3 224.4 1023.6 224.1 1023.1 223.8C1022.6 223.5 1022.1 223.3 1021.8 223.2C1021.4 223.1 1020.9 223.2 1020.4 223.2C1019.7 223.2 1019 223.3 1018.2 223.2C1017.5 223.1 1016.8 223.1 1016.1 223C1015.6 223 1015.2 222.9 1014.7 222.9C1014.2 222.8 1013.6 222.8 1013.1 222.7C1012.4 222.6 1011.8 222.5 1011.3 222.5C1010.6 222.5 1009.9 222.4 1009.3 222.3C1008.7 222.2 1008.2 222.1 1007.7 222.1C1007.2 222.1 1006.7 222.2 1006.1 222.4C1005.5 222.5 1004.9 222.7 1004.2 222.7C1003.6 222.8 1003 222.9 1002.4 223.1C1001.9 223.2 1001.3 223.4 1000.8 223.4C999.4 223.6 998.4 223.8 997.4 224.1C996.2 224.4 995 224.7 994 225C992.9 225.3 991.8 225.7 990.7 226.2C990 226.5 989.2 226.6 988.6 226.7C988.1 226.8 987.6 226.9 987.2 227C986.8 227.2 986.4 227.5 986 227.9C985.5 228.3 985 228.7 984.3 229.1C983.8 229.4 983.3 229.6 982.9 229.8C982.3 230.1 981.7 230.4 981.2 230.7C980.7 231 980.1 231.5 979.6 231.9C979.2 232.2 978.8 232.5 978.4 232.8C978.1 233 977.7 233.3 977.4 233.5C976.8 233.9 976.1 234.4 975.6 234.8C975.2 235.1 974.8 235.5 974.3 235.8C973.8 236.2 973.3 236.6 972.8 237C972.5 237.3 972.2 237.7 971.9 238.2C971.6 238.7 971.2 239.3 970.7 239.8C970.2 240.3 969.6 240.7 969.2 241.1C968.8 241.4 968.3 241.8 968.1 242.1C967.7 242.5 967.4 242.9 967 243.3C966.5 243.8 966.1 244.2 965.8 244.7C965.4 245.2 965.1 245.7 964.8 246.3C964.5 246.8 964.3 247.2 964 247.6C963.8 247.9 963.6 248.2 963.4 248.4C962.9 249.1 962.5 249.8 962 250.5C961.7 250.9 961.5 251.5 961.3 252.1C961.1 252.6 960.9 253.2 960.6 253.8C960.3 254.4 960 255 959.8 255.7C959.6 256.1 959.5 256.6 959.3 257C959.1 257.5 958.9 257.9 958.6 258.4C958.3 259 958 259.6 957.8 260.2C957.5 260.9 957.2 261.5 956.8 262.1C956.5 262.6 956.2 263 956.1 263.4C956 263.7 956 264.2 956.1 264.7C956.1 265.4 956.2 266.2 956 267C955.8 267.7 955.6 268.3 955.3 268.9C955.1 269.4 954.9 269.9 954.8 270.3C954.7 270.6 954.8 271.1 954.9 271.6C955 272.3 955.1 273 955 273.8C954.9 274.3 954.9 274.8 954.8 275.2C954.7 275.9 954.6 276.6 954.5 277.2C954.5 278 954.3 278.7 954.1 279.3C954 279.8 953.8 280.3 953.8 280.7C953.8 281.1 953.9 281.7 954 282.2C954.1 282.8 954.2 283.4 954.3 284.1C954.3 284.8 954.2 285.5 954.2 286.1C954.1 286.7 954.1 287.2 954.1 287.6C954.1 288 954.3 288.5 954.5 289.1C954.7 289.7 954.9 290.3 955 291L955.1 291.9C955.2 292.8 955.4 293.6 955.6 294.4C955.8 295.3 956 296.1 956.3 297L956.5 297.8C956.6 298.3 956.9 298.8 957.1 299.4C957.3 299.9 957.6 300.4 957.8 301C958.1 301.8 958.1 302.7 958.1 303.4C958.1 303.8 958.1 304.4 958.2 304.6C958.3 304.9 958.7 305.3 959 305.8C959.4 306.3 959.9 306.9 960.2 307.6C960.5 308.3 960.7 309 960.9 309.6C961 310.1 961.2 310.6 961.4 311C961.6 311.3 961.9 311.6 962.3 312C962.8 312.5 963.3 313 963.8 313.7C964.2 314.3 964.5 315 964.7 315.6C964.9 316.1 965.1 316.6 965.3 316.9C965.6 317.3 965.8 317.7 966.1 318C966.5 318.6 966.9 319.2 967.3 319.7L963 321C962.5 320.3 962 319.7 961.5 319C961.3 318.6 961 318.3 960.8 318C960.3 317.3 960 316.5 959.7 315.8C959.5 315.3 959.3 314.9 959.1 314.6C958.9 314.3 958.6 314 958.2 313.7C957.6 313.2 957 312.6 956.6 311.8C956.2 311 955.9 310.2 955.7 309.5C955.6 309 955.4 308.6 955.3 308.2C955.1 307.9 954.9 307.5 954.5 307.1C954 306.5 953.5 305.9 953.2 305C952.8 304.1 952.8 303.1 952.8 302.4C952.8 302 952.8 301.5 952.7 301.3C952.6 300.9 952.4 300.5 952.1 300C951.8 299.3 951.5 298.6 951.2 297.8L951 297.1C950.7 296.2 950.4 295.2 950.2 294.3C950 293.4 949.8 292.4 949.7 291.5L949.6 290.6C949.5 290.2 949.4 289.8 949.2 289.3C949 288.6 948.7 287.8 948.6 287C948.5 286.1 948.6 285.3 948.7 284.6C948.8 284.1 948.8 283.6 948.8 283.3C948.8 282.9 948.7 282.4 948.6 281.9C948.5 281.2 948.3 280.4 948.3 279.6C948.3 278.7 948.5 277.9 948.7 277.2C948.8 276.7 948.9 276.3 949 275.9C949.1 275.1 949.2 274.3 949.3 273.5C949.4 273.1 949.4 272.6 949.5 272.2C949.5 271.9 949.5 271.4 949.4 270.9C949.3 270.2 949.2 269.3 949.4 268.4C949.6 267.5 949.9 266.8 950.2 266.1C950.4 265.6 950.6 265.2 950.7 264.8C950.8 264.5 950.8 264.1 950.7 263.6C950.7 262.8 950.6 261.9 950.9 261C951.2 260.1 951.6 259.4 952 258.8C952.3 258.4 952.5 258 952.6 257.6C952.9 256.8 953.2 256.1 953.6 255.5C953.8 255.1 954 254.7 954.2 254.3C954.4 253.9 954.5 253.5 954.7 253.1C955 252.4 955.3 251.6 955.7 250.9C955.9 250.5 956.1 250.1 956.2 249.6C956.5 248.9 956.7 248.2 957.2 247.5C957.7 246.7 958.2 245.9 958.7 245.2L959.3 244.4C959.6 244 959.8 243.6 960 243.2C960.4 242.5 960.8 241.9 961.3 241.2C961.8 240.5 962.3 240 962.9 239.5C963.2 239.2 963.6 238.8 963.9 238.5C964.5 237.8 965.1 237.4 965.7 236.9C966.1 236.6 966.5 236.3 966.8 236C967.1 235.7 967.3 235.3 967.6 234.9C968 234.3 968.5 233.6 969.1 233C969.7 232.4 970.3 232 970.9 231.5C971.3 231.2 971.6 230.9 972 230.7C972.7 230.1 973.4 229.6 974.1 229.2C974.4 229 974.7 228.8 975.1 228.5C975.5 228.2 975.8 228 976.2 227.7C976.8 227.2 977.5 226.7 978.2 226.3C978.9 225.8 979.6 225.5 980.3 225.2C980.7 225 981.1 224.8 981.5 224.6C981.8 224.4 982.2 224.1 982.6 223.8C983.2 223.3 983.8 222.8 984.7 222.4C985.6 222 986.4 221.9 987.2 221.8C987.7 221.7 988.1 221.7 988.5 221.5C989.6 221.1 990.8 220.6 992 220.2C993.1 219.9 994.3 219.5 995.6 219.2C996.7 218.9 997.8 218.7 999.3 218.5C999.8 218.4 1000.2 218.3 1000.7 218.2C1001.4 218 1002.2 217.8 1003 217.8C1003.4 217.8 1003.9 217.7 1004.4 217.5C1005.1 217.3 1005.9 217.2 1006.8 217.1C1007.7 217.1 1008.5 217.2 1009.2 217.3C1009.7 217.4 1010.2 217.5 1010.6 217.5C1011.4 217.5 1012.2 217.7 1013 217.8C1013.5 217.9 1013.9 217.9 1014.4 218C1014.8 218 1015.2 218.1 1015.7 218.1C1016.5 218.1 1017.3 218.2 1018.2 218.3C1018.5 218.4 1019 218.3 1019.5 218.3C1020.3 218.3 1021.1 218.2 1022 218.4C1022.9 218.6 1023.6 219 1024.3 219.3C1024.7 219.5 1025.2 219.7 1025.5 219.9C1026.6 220.2 1027.8 220.6 1029.1 221.1C1030.2 221.5 1031.2 222 1032.2 222.4L1032.6 222.6C1033 222.8 1033.4 222.9 1033.9 223C1034.6 223.2 1035.4 223.4 1036.2 223.8C1037 224.2 1037.7 224.9 1038.2 225.4C1038.5 225.7 1038.9 226.1 1039.1 226.2C1039.5 226.4 1039.9 226.7 1040.3 226.9C1041 227.3 1041.7 227.6 1042.4 228.1C1043.1 228.6 1043.7 229.1 1044.3 229.7C1044.6 230 1044.9 230.3 1045.3 230.5C1045.6 230.7 1046 230.9 1046.4 231.1C1047.1 231.4 1047.9 231.8 1048.6 232.5C1049.3 233.2 1050 233.9 1050.6 234.6L1051.4 235.4C1052.2 236.2 1053 237.1 1053.8 238.1C1054.1 238.5 1054.4 238.8 1054.7 239.1C1055.2 239.6 1055.8 240.2 1056.3 240.9C1057 241.9 1057.6 242.9 1058.2 243.9L1058.3 244.1C1058.7 244.8 1059.1 245.6 1059.4 246.3C1059.6 246.7 1059.8 247.1 1060 247.5C1060.2 247.9 1060.5 248.3 1060.7 248.7C1061.1 249.4 1061.5 250 1061.9 250.8C1062.3 251.7 1062.3 252.6 1062.4 253.4C1062.4 253.9 1062.5 254.3 1062.5 254.6C1062.6 255 1062.8 255.4 1063.1 255.8C1063.4 256.4 1063.8 257.2 1064 258C1064.3 259.2 1064.6 260.5 1064.8 261.6C1064.9 262 1065 262.4 1065.2 262.9C1065.4 263.6 1065.7 264.4 1065.8 265.2C1065.9 266.1 1065.9 267 1066 267.9C1066 268.3 1066 268.6 1066 269C1066 269.9 1065.9 270.7 1065.8 271.4C1065.7 271.9 1065.7 272.3 1065.7 272.8C1065.7 273.2 1065.8 273.6 1065.8 274.1C1065.9 274.8 1066 275.7 1065.9 276.5C1065.8 277.8 1065.7 279 1065.5 280.2C1065.4 281 1065.1 281.8 1064.8 282.5C1064.6 283 1064.5 283.4 1064.4 283.8C1064.3 284.2 1064.2 284.7 1064.2 285.2C1064.1 285.9 1064 286.7 1063.7 287.5C1063.4 288.3 1063 289.1 1062.7 289.7C1062.5 290.1 1062.2 290.5 1062.1 290.9C1061.6 292.1 1061.1 293.2 1060.6 294.3C1060.4 294.7 1060.3 295 1060.1 295.4C1059.8 296.1 1059.4 296.9 1059 297.7C1058.8 298.1 1058.6 298.4 1058.4 298.8C1058 299.5 1057.6 300.2 1057.2 301C1056.7 301.7 1056.2 302.3 1055.7 302.9C1055.4 303.2 1055.1 303.6 1054.8 303.9C1054.6 304.2 1054.3 304.6 1054.1 305C1053.7 305.6 1053.3 306.3 1052.7 307C1052.1 307.7 1051.3 308.1 1050.6 308.5C1050.2 308.7 1049.8 308.9 1049.6 309.2C1049.3 309.5 1049 309.8 1048.7 310.2C1048.2 310.7 1047.7 311.4 1047 311.9C1046.7 312.2 1046.3 312.5 1046 312.8C1045.4 313.3 1044.9 313.9 1044.2 314.4C1043.3 315 1042.4 315.6 1041.1 316.4L1040.6 316.7C1039.7 317.2 1038.8 317.8 1037.8 318.2L1037.4 318.4C1036.4 318.9 1035.4 319.4 1034.4 319.8C1033.6 320.1 1032.8 320.3 1032.1 320.4C1031.6 320.5 1031.2 320.6 1030.8 320.7C1029.9 321 1029.1 321 1028.4 321C1027.9 321 1027.5 321 1027.1 321.1C1026.7 321.2 1026.3 321.3 1025.9 321.5C1025.2 321.8 1024.5 322.1 1023.6 322.2C1022.8 322.3 1022 322.3 1021.2 322.3C1020.8 322.3 1020.3 322.3 1019.9 322.3C1019.5 322.3 1019.1 322.4 1018.6 322.5C1017.2 322.8 1016.4 323 1015.5 323Z" fill="#FFECC1"/>
<path d="M455.3 464H1156.5V333.5H478.6C465.7 333.5 455.3 343.9 455.3 356.8V464Z" fill="#FFECC1"/>
<path d="M1118.7 340L1247.4 318.9C1259.1 317 1268.1 307.6 1269.5 295.8C1271.9 275.9 1252.2 260.5 1233.5 267.7L1111.8 314.6C1106.9 316.5 1103.6 321.1 1103.3 326.4C1103.1 334.8 1110.5 341.3 1118.7 340Z" fill="#FFF2D6"/>
<path d="M1090.7 333.5V464H1335.9L1336.1 362.3C1336.2 328.1 1304.8 302.4 1271.3 309.2L1233.6 316.9C1186.5 326.5 1138.7 332 1090.7 333.5Z" fill="#FFFBF2"/>
<path d="M490.081 463.972H644.981V332.972H490.081V463.972Z" fill="#FFD985"/>
<path d="M646 334.1H644V464H646V334.1Z" fill="#FFC033"/>
<path d="M770.2 260.7C765.5 257.8 764 251.7 766.7 246.9L771.8 238C772.2 237.3 773.2 237.5 773.4 238.2L775.8 248.9C776.7 252.8 775.2 256.9 772 259.4L770.2 260.7Z" fill="#FFD985"/>
<path d="M770.861 250.048L768.468 272.822L770.457 273.031L772.85 250.257L770.861 250.048Z" fill="#362C62"/>
<path d="M748.4 261.5H793C794.9 261.5 796.5 263.1 796.5 265V318.6H745V265C744.9 263 746.5 261.5 748.4 261.5Z" fill="#FFFBF2"/>
<path d="M827.8 302.3C824.7 300.4 823.7 296.4 825.5 293.3L828.9 287.4C829.2 286.9 829.8 287 830 287.6L831.6 294.6C832.2 297.2 831.2 299.9 829.1 301.5L827.8 302.3Z" fill="#FFD985"/>
<path d="M827.968 295.268L826.39 310.285L828.379 310.494L829.957 295.477L827.968 295.268Z" fill="#362C62"/>
<path d="M813.5 302.9H842.8C844.1 302.9 845.1 303.9 845.1 305.2V318.9H811.3V305.2C811.3 303.9 812.3 302.9 813.5 302.9Z" fill="#FFFBF2"/>
<mask id="mask2_1528_88696" style="mask-type:luminance" maskUnits="userSpaceOnUse" x="603" y="264" width="106" height="58">
<path d="M708.9 295.1C708.5 301.8 703.4 308.4 693.4 313.5C671.8 324.7 639.1 324.7 620 313.5C600.6 302.3 598.3 284.3 615.4 273.3C619.2 270.8 623.9 268.9 629.1 267.5C647.2 262.8 671.6 264.6 690.3 273.2C703.1 279.2 709.3 287.2 708.9 295.1Z" fill="white"/>
</mask>
<g mask="url(#mask2_1528_88696)">
<path d="M708.9 295.1C708.5 301.8 703.4 308.4 693.4 313.5C671.8 324.7 639.1 324.7 620 313.5C600.6 302.3 598.3 284.3 615.4 273.3C619.2 270.8 623.9 268.9 629.1 267.5C647.2 262.8 671.6 264.6 690.3 273.2C703.1 279.2 709.3 287.2 708.9 295.1Z" fill="#C1BDB1"/>
<path d="M601 297.3C601 297.3 672.1 335.8 710.8 298.3V331H595.2L601 297.3Z" fill="#928D7B"/>
<path d="M676.4 310.1C650.4 310.1 618.3 297.7 593.2 285.7L594.1 283.9C653.1 312.2 683 310.6 697.8 304.3C703.6 301.8 707.2 298.5 709.4 295.8C695.3 305.4 673.4 305 645.5 294.5C622.2 285.7 602.7 272.9 602.5 272.8L603.6 271.1C604.4 271.6 680.7 321.4 712.4 290.8L715.3 288L714.1 291.8C714 292.2 711.1 300.8 698.7 306.1C692 308.9 684.5 310.1 676.4 310.1Z" fill="#928D7B"/>
<path d="M650.8 303C632.2 303 601.8 284.9 600.5 284.1L600 283.8V271.2L601.8 273.2C615.4 288.7 639.4 295.1 651 298.1C656.7 299.6 657.9 299.9 657.8 301.2C657.7 302.3 656.6 302.6 652.9 302.8C652.1 303 651.5 303 650.8 303ZM602 282.7C606.2 285.1 636.1 302.2 652.6 300.9C652.8 300.9 653.1 300.9 653.3 300.8C652.4 300.6 651.5 300.3 650.5 300C639.2 297 616.3 291 602.1 276.4V282.7H602Z" fill="#928D7B"/>
</g>
<path d="M708.9 295.1C677.9 298.3 645.1 278.8 629.2 267.6C647.3 262.9 671.7 264.7 690.4 273.3C703.1 279.2 709.3 287.2 708.9 295.1Z" fill="#928D7B"/>
<path d="M693.1 260.2C692.4 267.7 673.8 272.9 651.5 271.7C629.2 270.6 612.4 265.3 614 259.8C615.4 255.2 628.6 250.9 645.5 249C648.8 248.6 652.2 248.4 655.6 248.2C667.7 247.7 678.2 249.2 685.1 251.9C690.3 254.1 693.4 256.9 693.1 260.2Z" fill="#C1BDB1"/>
<path d="M685.1 252C676.3 255.3 642.5 251.1 642.5 251.1C642.5 251.1 643.6 250.3 645.5 249.1C648.8 248.7 652.2 248.5 655.6 248.3C667.6 247.8 678.2 249.2 685.1 252Z" fill="#6F6855"/>
<path d="M674.1 236.5C679.2 240.3 675.9 246.7 665.3 250.6C653.6 254.3 641.6 254.5 640 251.3C638.9 248.3 645 243 652.6 238.8C653.3 238.4 654 238 654.7 237.6C661.7 233.5 669.6 232.9 674.1 236.5Z" fill="#928D7B"/>
<path d="M752.6 304.9C757.7 308.7 754.4 315.1 743.8 319C732.1 322.7 720.1 322.9 718.5 319.7C717.4 316.7 723.5 311.4 731.1 307.2C731.8 306.8 732.5 306.4 733.2 306C740.2 301.9 748.2 301.3 752.6 304.9Z" fill="#928D7B"/>
<path d="M791.1 311.5C788.4 305.8 794.4 301.7 805.6 303.3C817.7 305.6 828.3 311.1 828.2 314.7C827.7 317.8 819.8 319.6 811.2 319.7C810.4 319.7 809.6 319.7 808.8 319.7C800.6 320 793.3 316.8 791.1 311.5Z" fill="#928D7B"/>
<path d="M757.3 314.5C755.3 310.3 759.7 307.3 767.9 308.5C776.7 310.2 784.5 314.2 784.5 316.8C784.2 319.1 778.4 320.4 772 320.5C771.4 320.5 770.8 320.5 770.2 320.5C764.3 320.8 759 318.4 757.3 314.5Z" fill="#6F6855"/>
<path d="M850.9 317.2H581.6V334H850.9V317.2Z" fill="#471810"/>
<path d="M1080.9 333H732.8V335H1080.9V333Z" fill="#FFC033"/>
<path d="M628.8 339C625.4 345.5 618.8 343.5 619.5 336.2C613 332.8 615 326.2 622.3 326.9C625.7 320.4 632.3 322.4 631.6 329.7C638 333.1 636 339.7 628.8 339Z" fill="#FFFBF2"/>
<path d="M625.5 334.7C626.439 334.7 627.2 333.939 627.2 333C627.2 332.061 626.439 331.3 625.5 331.3C624.561 331.3 623.8 332.061 623.8 333C623.8 333.939 624.561 334.7 625.5 334.7Z" fill="#FFCD5C"/>
<path d="M593.9 379.3C586.6 379.8 584.8 373.1 591.4 369.9C590.9 362.6 597.6 360.8 600.8 367.4C608.1 366.9 609.9 373.6 603.3 376.8C603.7 384.1 597 385.8 593.9 379.3Z" fill="#FFC033"/>
<path d="M597.3 375.1C598.239 375.1 599 374.339 599 373.4C599 372.461 598.239 371.7 597.3 371.7C596.361 371.7 595.6 372.461 595.6 373.4C595.6 374.339 596.361 375.1 597.3 375.1Z" fill="#F76341"/>
<path d="M1112.4 317C1107.4 317 1106.5 312.3 1111.1 310.5C1111.1 305.5 1115.8 304.6 1117.6 309.2C1122.6 309.2 1123.5 313.9 1118.9 315.7C1118.9 320.7 1114.3 321.6 1112.4 317Z" fill="#FFFBF2"/>
<path d="M1115 314C1115.5 314 1115.9 313.597 1115.9 313.1C1115.9 312.603 1115.5 312.2 1115 312.2C1114.5 312.2 1114.1 312.603 1114.1 313.1C1114.1 313.597 1114.5 314 1115 314Z" fill="#F76341"/>
<path d="M1232.2 414.2C1227.2 414.2 1226.3 409.6 1230.9 407.7C1230.9 402.7 1235.5 401.8 1237.4 406.4C1242.4 406.4 1243.3 411 1238.7 412.9C1238.7 418 1234 418.9 1232.2 414.2Z" fill="#FFC033"/>
<path d="M1234.8 411.6C1235.46 411.6 1236 411.063 1236 410.4C1236 409.737 1235.46 409.2 1234.8 409.2C1234.14 409.2 1233.6 409.737 1233.6 410.4C1233.6 411.063 1234.14 411.6 1234.8 411.6Z" fill="#F76341"/>
<path d="M923.7 336.8C918.7 336.8 917.8 332.2 922.4 330.3C922.4 325.3 927 324.4 928.9 329C933.9 329 934.8 333.6 930.2 335.5C930.2 340.6 925.6 341.5 923.7 336.8Z" fill="#717820"/>
<path d="M926.3 334.2C926.963 334.2 927.5 333.663 927.5 333C927.5 332.337 926.963 331.8 926.3 331.8C925.637 331.8 925.1 332.337 925.1 333C925.1 333.663 925.637 334.2 926.3 334.2Z" fill="#FFCD5C"/>
<path d="M989.8 159.7H890V166.4H989.8V159.7Z" fill="#94B583"/>
<path d="M530.274 301.304L340.981 362.367L341.595 364.27L530.888 303.208L530.274 301.304Z" fill="#709D5A"/>
</g>
</g>
</g>
<defs>
<clipPath id="clip0_1528_88696">
<rect width="1335" height="464" fill="white" transform="translate(0.369141)"/>
</clipPath>
<clipPath id="clip1_1528_88696">
<rect width="1335" height="464" fill="white" transform="translate(1)"/>
</clipPath>
</defs>
</svg>
