<svg width="1335" height="464" viewBox="0 0 1335 464" fill="none" xmlns="http://www.w3.org/2000/svg">
<g clip-path="url(#clip0_1528_88390)">
<rect width="1335" height="464" fill="#D9EFF2"/>
<mask id="mask0_1528_88390" style="mask-type:luminance" maskUnits="userSpaceOnUse" x="0" y="0" width="1335" height="464">
<path d="M1334.62 0H0.370117V464H1334.62V0Z" fill="white"/>
</mask>
<g mask="url(#mask0_1528_88390)">
<path d="M1335.37 0H0.370117V464H1335.37V0Z" fill="#D9EFF2"/>
<path d="M821.86 305.97L818.04 309.41C819.28 308.2 820.55 307.05 821.86 305.97Z" fill="#FFCE43"/>
<path d="M1334.62 285.36H0.370117V464H1334.62V285.36Z" fill="#A2CAA2"/>
<path d="M1334.63 285.36V171.23L1225.26 217.92C1190.1 232.93 1200.82 285.36 1239.05 285.36H1334.63Z" fill="#C6E6C7"/>
<path d="M0.370117 212.37L82.5101 238.87C112.9 248.67 146.21 241.22 169.52 219.41L197.8 192.96C216.57 175.4 245.2 173.7 265.91 188.93C307.48 219.48 285.87 285.37 234.28 285.37H0.370117V212.38V212.37Z" fill="#75C476"/>
<path d="M1179.64 268.79L1155.24 301.05C1151.2 303.28 1146.69 304.41 1142.18 304.41C1138.67 304.41 1135.16 303.73 1131.84 302.36C1130.36 301.75 1128.96 301.02 1127.65 300.17C1121.21 296.08 1116.82 289.44 1115.53 281.98C1115.14 279.79 1115.02 277.52 1115.2 275.23L1117.79 242.17L1118.02 239.29C1118.14 237.77 1117.62 236.27 1116.73 235.03C1115.72 233.63 1115.12 231.91 1115.12 230.05C1115.12 224.77 1119.91 220.6 1125.38 221.67C1128.74 222.32 1131.44 225.05 1132.06 228.42C1132.53 230.98 1131.85 233.38 1130.47 235.2C1129.34 236.68 1128.94 238.58 1129.38 240.38L1129.83 242.17L1135.84 266.69L1137.11 271.85L1138.36 276.95L1180.7 242.95L1179.64 268.79Z" fill="#F5CF72"/>
<path d="M1139.83 263.68L1137.1 271.85L1127.64 300.17C1121.2 296.08 1116.81 289.44 1115.52 281.98L1135.83 266.69L1139.83 263.68Z" fill="#E79011"/>
<path d="M1119.78 328.53L1177 313.71L1189.39 340.55H1121.32C1114.14 340.56 1112.84 330.33 1119.79 328.53H1119.78Z" fill="#C67555"/>
<path d="M1218.38 352.3L1197.72 358.6L1177 313.71L1164.82 287.31L1128.72 340.58H1105.94L1140.35 256.39C1152.39 226.93 1193.21 224.59 1208.53 252.48L1235.32 301.23L1237.52 305.25C1247.52 323.45 1238.26 346.25 1218.38 352.31V352.3Z" fill="#F5CF72"/>
<path d="M1218.38 352.3L1197.72 358.6L1177 313.71L1235.32 301.23L1237.52 305.25C1247.52 323.45 1238.26 346.25 1218.38 352.31V352.3Z" fill="#F3714D"/>
<path fill-rule="evenodd" clip-rule="evenodd" d="M352.033 278.77C352.867 280.202 352.382 282.039 350.95 282.872L170.47 387.982C169.039 388.816 167.202 388.332 166.368 386.9C165.534 385.468 166.019 383.631 167.451 382.798L347.931 277.688C349.362 276.854 351.199 277.338 352.033 278.77Z" fill="#0D386C"/>
<path d="M349.45 291.03C347.37 291.03 345.44 290.42 343.81 289.37C341.29 287.75 338.29 287.06 335.31 287.33L255.88 294.58C256.14 295.11 256.38 295.66 256.6 296.22L288.13 378.29L265.63 368.28L241.66 330.76C238.45 325.74 237.98 319.45 240.4 314.01L242.82 308.57L223.3 323.85L182.5 355.79C175.36 361.38 166.95 364.05 158.62 364.05C145.4 364.05 132.41 357.32 125.11 344.89C115.99 329.38 118.7 309.59 131.74 297.18C153.93 276.07 190.96 249.04 230.11 255.79C236.17 256.83 241.92 257.82 247.37 258.77C296.1 267.17 321.16 271.49 334.06 273.72C337.38 274.29 340.84 273.69 343.64 271.82C345.56 270.54 347.93 269.87 350.47 270.11C355.34 270.58 359.31 274.47 359.85 279.34C360.55 285.66 355.62 291.02 349.44 291.02L349.45 291.03Z" fill="#FFA0A3"/>
<path d="M228.731 242.42C229.441 242.53 230.121 242.02 230.181 241.27C230.231 240.62 229.731 240.05 229.091 239.93C228.331 239.79 227.721 239.24 227.481 238.51L226.201 234.51C224.241 228.38 217.681 225 211.551 226.96C204.721 229.15 201.461 236.93 204.711 243.33L204.741 243.39L188.311 262.8L210.571 260.59L212.901 257.15C215.621 259.24 219.271 259.97 222.721 258.86C228.371 257.05 231.491 251 229.681 245.35L228.741 242.42H228.731Z" fill="#FFA0A3"/>
<path d="M247.38 258.78L223.83 285.35L196.65 297.19H131.75C153.94 276.08 190.97 249.05 230.12 255.8C236.18 256.84 241.93 257.83 247.38 258.78Z" fill="#F5CF72"/>
<path d="M223.3 323.86L182.5 355.8C175.36 361.39 166.95 364.06 158.62 364.06C145.4 364.06 132.41 357.33 125.11 344.9C115.99 329.39 118.7 309.6 131.74 297.19H196.64L223.3 323.85V323.86Z" fill="#1E90A4"/>
<path d="M180.061 268.63L196.071 253.51L212.081 258.35L205.481 271.37L180.061 268.63Z" fill="#F5CF72"/>
<path d="M196.64 297.2L154.52 313.77L131.75 297.2H196.64Z" fill="#148196"/>
<path fill-rule="evenodd" clip-rule="evenodd" d="M229.951 256.786C211.479 253.602 193.444 258.039 177.195 265.871L176.326 264.069C192.817 256.121 211.282 251.538 230.29 254.815L229.951 256.786Z" fill="#EC5E3A"/>
<path d="M197.87 251.5L197.48 250.21C196.66 247.5 197.84 244.59 200.31 243.21C196.86 241.41 196.15 236.79 198.9 234.04L200.31 232.62C198.6 228.58 201.35 224.05 205.73 223.71L212.88 223.15L215.69 221.5C218.77 219.69 222.6 219.75 225.62 221.66C229.03 223.81 230.72 227.87 229.85 231.81C229.53 233.26 228.48 234.43 227.08 234.91L224.25 235.87C222.06 236.62 219.68 236.65 217.47 235.98L218.5 240.59L214.7 241.46L210.95 237.42C210.4 236.83 209.51 236.69 208.81 237.08C207.96 237.55 207.65 238.63 208.13 239.47L208.73 240.54C209.61 242.13 209.12 244.12 207.6 245.12L197.87 251.49V251.5Z" fill="#24100D"/>
<path fill-rule="evenodd" clip-rule="evenodd" d="M809.302 278.77C810.136 280.202 809.652 282.038 808.22 282.872L627.74 387.982C626.308 388.816 624.471 388.331 623.638 386.9C622.804 385.468 623.288 383.631 624.72 382.798L805.2 277.688C806.632 276.854 808.469 277.338 809.302 278.77Z" fill="#24100D"/>
<path d="M806.72 291.03C804.64 291.03 802.71 290.42 801.08 289.37C798.56 287.75 795.56 287.06 792.58 287.33L713.15 294.58C713.41 295.11 713.65 295.66 713.87 296.22L745.4 378.29L722.9 368.28L698.93 330.76C695.72 325.74 695.25 319.45 697.67 314.01L700.09 308.57L680.57 323.85L639.77 355.79C632.63 361.38 624.22 364.05 615.89 364.05C602.67 364.05 589.68 357.32 582.38 344.89C573.26 329.38 575.97 309.59 589.01 297.18C611.2 276.07 648.23 249.04 687.38 255.79C693.44 256.83 699.19 257.82 704.64 258.77C753.37 267.17 778.43 271.49 791.33 273.72C794.65 274.29 798.11 273.69 800.91 271.82C802.83 270.54 805.2 269.87 807.74 270.11C812.61 270.58 816.58 274.47 817.12 279.34C817.82 285.66 812.89 291.02 806.71 291.02L806.72 291.03Z" fill="#FFC1B3"/>
<path d="M686 242.42C686.71 242.53 687.39 242.02 687.45 241.27C687.5 240.62 687 240.05 686.36 239.93C685.6 239.79 684.99 239.24 684.75 238.51L683.47 234.51C681.51 228.38 674.95 225 668.82 226.96C661.99 229.15 658.73 236.93 661.98 243.33L662.01 243.39L645.58 262.8L667.84 260.59L670.17 257.15C672.89 259.24 676.54 259.97 679.99 258.86C685.64 257.05 688.76 251 686.95 245.35L686.01 242.42H686Z" fill="#FFC1B3"/>
<path d="M674.74 235.98L677.12 244.61L686.01 242.42L689.49 247.64C691.1 250.05 691.38 253.11 690.23 255.77C688.57 259.62 684.37 261.7 680.3 260.68L661.37 255.94L671.97 241.46L670.92 237.01L674.74 235.98Z" fill="white"/>
<path d="M704.65 258.78L681.099 285.35L653.919 297.19H589.02C611.21 276.08 648.24 249.05 687.39 255.8C693.45 256.84 699.2 257.83 704.65 258.78Z" fill="#F5CF72"/>
<path d="M680.58 323.86L639.78 355.8C632.64 361.39 624.23 364.06 615.9 364.06C602.68 364.06 589.69 357.33 582.39 344.9C573.27 329.39 575.98 309.6 589.02 297.19H653.92L680.58 323.85V323.86Z" fill="#1E90A4"/>
<path d="M637.34 268.63L653.34 253.51L669.35 258.35L662.75 271.37L637.34 268.63Z" fill="#F5CF72"/>
<path d="M653.919 297.2L611.789 313.77L589.02 297.2H653.919Z" fill="#148196"/>
<path d="M655.15 251.5L654.76 250.21C653.94 247.5 655.12 244.59 657.59 243.21C654.14 241.41 653.43 236.79 656.18 234.04L657.59 232.62C655.88 228.58 658.63 224.05 663.01 223.71C667.71 223.34 672.42 224.14 676.74 226.02L681.5 228.09L682.36 227.88C684.14 227.45 685.95 228.48 686.49 230.22C687.03 231.95 686.15 233.81 684.46 234.49L681.46 235.69C679.32 236.54 676.95 236.64 674.74 235.97L675.77 240.58L671.97 241.45L668.22 237.41C667.67 236.82 666.78 236.68 666.08 237.07C665.23 237.54 664.92 238.62 665.4 239.46L666 240.53C666.88 242.12 666.39 244.11 664.87 245.11L655.14 251.48L655.15 251.5Z" fill="white"/>
<path d="M577.63 291.03C575.55 291.03 573.62 290.42 571.99 289.37C569.47 287.75 566.47 287.06 563.49 287.33L484.06 294.58C484.32 295.11 484.56 295.66 484.78 296.22L516.31 378.29L493.81 368.28L469.84 330.76C466.63 325.74 466.16 319.45 468.58 314.01L471 308.57L451.48 323.85L410.68 355.79C403.54 361.38 395.13 364.05 386.8 364.05C373.58 364.05 360.59 357.32 353.29 344.89C344.17 329.38 346.88 309.59 359.92 297.18C382.11 276.07 419.14 249.04 458.29 255.79C464.35 256.83 470.1 257.82 475.55 258.77C524.28 267.17 549.34 271.49 562.24 273.72C565.56 274.29 569.02 273.69 571.82 271.82C573.74 270.54 576.11 269.87 578.65 270.11C583.52 270.58 587.49 274.47 588.03 279.34C588.73 285.66 583.8 291.02 577.62 291.02L577.63 291.03Z" fill="#FFB08D"/>
<path d="M451.45 250.21C449.9 252.06 447.84 253.28 445.63 253.78C443.66 254.23 442.18 255.86 442.12 257.88V258.16L424.49 271.93L427.28 251.81L427.98 246.75L427.92 246.71C426.28 245.74 424.99 244.43 424.04 242.94C421.44 238.83 421.57 233.26 424.95 229.22C427.6 226.05 431.58 224.65 435.39 225.14C437.53 225.42 439.6 226.28 441.37 227.77L444.59 230.46C445.17 230.95 445.99 231.09 446.7 230.79C447.3 230.55 448.03 230.76 448.34 231.35C448.69 232.01 448.39 232.8 447.73 233.09L448.82 234L450.1 235.07C450.34 235.27 450.57 235.48 450.79 235.69C451.36 236.26 451.86 236.89 452.28 237.56C454.71 241.4 454.51 246.52 451.44 250.2L451.45 250.21Z" fill="#FFB08D"/>
<path d="M475.56 258.78L452.01 285.35L424.83 297.19H359.93C382.12 276.08 419.15 249.05 458.3 255.8C464.36 256.84 470.11 257.83 475.56 258.78Z" fill="#F3714D"/>
<path d="M451.49 323.86L410.69 355.8C403.55 361.39 395.14 364.06 386.81 364.06C373.59 364.06 360.6 357.33 353.3 344.9C344.18 329.39 346.89 309.6 359.93 297.19H424.83L451.49 323.85V323.86Z" fill="#1E99DD"/>
<path d="M424.83 297.2L382.7 313.77L359.93 297.2H424.83Z" fill="#0D386C"/>
<path d="M1035.94 291.03C1033.86 291.03 1031.93 290.42 1030.3 289.37C1027.78 287.75 1024.78 287.06 1021.8 287.33L942.371 294.58C942.631 295.11 942.871 295.66 943.091 296.22L974.621 378.29L952.121 368.28L928.151 330.76C924.941 325.74 924.471 319.45 926.891 314.01L929.311 308.57L909.791 323.85L868.991 355.79C861.851 361.38 853.441 364.05 845.111 364.05C831.891 364.05 818.901 357.32 811.601 344.89C802.481 329.38 805.191 309.59 818.231 297.18C840.421 276.07 877.451 249.04 916.601 255.79C922.661 256.83 928.411 257.82 933.861 258.77C982.591 267.17 1007.65 271.49 1020.55 273.72C1023.87 274.29 1027.33 273.69 1030.13 271.82C1032.05 270.54 1034.42 269.87 1036.96 270.11C1041.83 270.58 1045.8 274.47 1046.34 279.34C1047.04 285.66 1042.11 291.02 1035.93 291.02L1035.94 291.03Z" fill="#FFB08D"/>
<path d="M929.441 256.48C928.731 259.49 926.731 262.05 924.021 263.5C922.751 264.17 921.331 264.59 919.811 264.71C916.201 265 912.811 263.44 910.651 260.77L907.591 263.59L885.431 260.61L901.771 248.54L903.631 247.17L905.881 245.51V245.44C905.411 243.59 905.451 241.75 905.851 240.04C906.971 235.29 911.041 231.5 916.291 231.1C920.411 230.78 924.201 232.64 926.511 235.71C927.461 236.98 928.161 238.45 928.541 240.07C928.671 240.64 928.761 241.22 928.801 241.82L929.131 246C929.181 246.77 929.661 247.44 930.371 247.75C930.971 248.01 931.321 248.68 931.121 249.3C930.891 250.02 930.111 250.36 929.441 250.08L929.681 253.16C929.771 254.29 929.681 255.4 929.431 256.46L929.441 256.48Z" fill="#FFB08D"/>
<path d="M929.441 256.48C928.731 259.49 926.731 262.05 924.021 263.5L915.541 261.18C910.461 259.79 909.421 253.03 913.851 250.18L919.641 246.45L929.451 250.1L929.691 253.18C929.781 254.31 929.691 255.42 929.441 256.48Z" fill="#CCA092"/>
<path d="M933.87 258.78L910.32 285.35L883.14 297.19H818.24C840.43 276.08 877.46 249.05 916.61 255.8C922.67 256.84 928.42 257.83 933.87 258.78Z" fill="#F3714D"/>
<path d="M909.8 323.86L869 355.8C861.86 361.39 853.45 364.06 845.12 364.06C831.9 364.06 818.91 357.33 811.61 344.9C802.49 329.39 805.2 309.6 818.24 297.19H883.14L909.8 323.85V323.86Z" fill="#57AAE3"/>
<path d="M883.14 297.2L841.01 313.77L818.24 297.2H883.14Z" fill="#0D386C"/>
<path d="M922.021 240.19L919.631 246.45L918.441 242.8C918.201 242.08 917.611 241.54 916.891 241.37L916.751 241.34C915.521 241.14 914.381 242 914.261 243.24L913.991 245.76C913.911 249.13 910.741 251.57 907.461 250.79C905.531 250.33 904.141 248.9 903.621 247.19L905.871 245.53V245.46C905.401 243.61 905.441 241.77 905.841 240.06C906.961 235.31 911.031 231.52 916.281 231.12C920.401 230.8 924.191 232.66 926.501 235.73C927.451 237 928.151 238.47 928.531 240.09L920.931 235.53C922.211 236.73 922.631 238.57 922.011 240.21L922.021 240.19Z" fill="#24100D"/>
<path d="M901.451 239.93L902.121 236.06C902.381 234.57 903.091 233.2 904.161 232.13L904.911 231.38C905.211 231.08 905.221 230.59 904.911 230.28C903.171 228.48 903.091 225.66 904.711 223.76L906.051 222.19C907.861 220.07 911.091 219.91 913.101 221.84L915.221 223.88C915.821 224.46 916.571 224.87 917.391 225.06L918.651 225.36C919.721 225.61 920.671 226.23 921.321 227.11L923.671 230.25L901.421 239.92L901.451 239.93Z" fill="#57AAE3"/>
<path d="M921.999 227.175L900.69 240.325C900.135 240.667 899.963 241.394 900.305 241.949L902.9 246.153C903.242 246.707 903.969 246.88 904.523 246.537L925.832 233.387C926.387 233.045 926.559 232.318 926.217 231.763L923.622 227.559C923.28 227.005 922.553 226.833 921.999 227.175Z" fill="#0D386C"/>
<path fill-rule="evenodd" clip-rule="evenodd" d="M687.495 243.806C687.563 244.073 687.402 244.346 687.135 244.414L684.485 245.094C684.217 245.163 683.945 245.002 683.876 244.734C683.808 244.467 683.969 244.194 684.236 244.126L686.886 243.446C687.154 243.377 687.426 243.538 687.495 243.806Z" fill="#FF645E"/>
<path d="M1002.5 334.01H199.07C198.14 334.01 12.25 335.17 12.96 335.77L33.27 352.92C50.43 367.41 72.17 375.36 94.64 375.36H1200.3C1222.76 375.36 1244.5 367.41 1261.67 352.92L1281.98 335.77C1282.69 335.17 1282.27 334.01 1281.33 334.01H1002.49H1002.5Z" fill="#0D386C"/>
<path d="M0.370117 356.66V464H1334.63V356.66H409.11H0.370117Z" fill="#57AAE3"/>
<path d="M923.691 380.89L937.841 389.3C938.171 389.49 938.271 389.92 938.081 390.24C938.021 390.34 937.931 390.42 937.841 390.48L923.691 398.89C918.721 401.84 912.301 400.21 909.341 395.24C903.881 385.81 914.421 375.48 923.691 380.89Z" fill="#1E99DD"/>
<path d="M880.54 380.89L918.76 389.52C918.96 389.57 919.09 389.77 919.04 389.97C919.01 390.12 918.89 390.22 918.76 390.25L880.54 398.88C875.57 400 870.63 396.88 869.51 391.91C867.93 385.43 874.1 379.31 880.54 380.88V380.89Z" fill="#1E99DD"/>
<path d="M466.42 380.89L477.1 389.4C477.37 389.62 477.42 390.01 477.2 390.28C477.1 390.48 466.54 398.73 466.42 398.89C454.11 407.92 440.52 390.87 452.08 380.89C456.36 377.48 462.32 377.62 466.42 380.89Z" fill="#1E99DD"/>
<path d="M380.01 374.57L455.48 389.39C456 389.48 456.03 390.31 455.48 390.39L380.01 405.21C371.55 406.87 363.34 401.36 361.68 392.9C359.35 382.26 369.44 372.28 380.01 374.57Z" fill="#1E99DD"/>
<path d="M899.95 334.02H834.65L834.66 334.01L899.95 334.02Z" fill="#33607F"/>
<path d="M438 236.33L438.26 237.24L434.05 236.29C433.52 236.17 432.99 236.27 432.57 236.54C432.13 236.82 431.8 237.27 431.69 237.81C431.49 238.79 432.06 239.77 433.01 240.07L435.24 240.81L436.76 245.82L427.29 251.82L427.94 246.72C426.3 245.75 425.01 244.44 424.07 242.95C421.46 238.83 421.6 233.27 424.97 229.23C427.63 226.06 431.61 224.65 435.42 225.14L425.97 231.12C430.72 228.75 436.48 231.23 438.02 236.32L438 236.33Z" fill="#793625"/>
<path d="M1138.88 186.54L1071.83 224.48C1070.98 224.96 1070.82 226.13 1071.51 226.82L1100.62 255.93C1101.31 256.62 1102.48 256.46 1102.96 255.61L1140.9 188.56C1141.64 187.25 1140.19 185.8 1138.88 186.54Z" fill="#FDF9F0"/>
<path d="M1130.46 235.2C1129.33 236.68 1128.93 238.58 1129.37 240.38L1129.81 242.17H1117.78L1118.01 239.3C1118.13 237.77 1117.62 236.28 1116.72 235.04C1115.71 233.63 1115.11 231.92 1115.11 230.06C1115.11 224.78 1119.9 220.61 1125.37 221.68C1128.73 222.34 1131.43 225.07 1132.05 228.43C1132.53 230.99 1131.85 233.39 1130.46 235.22V235.2Z" fill="#C67555"/>
<path d="M1165.19 234.06V223.99H1156.77C1154.21 223.99 1152.57 221.26 1153.78 219L1157.17 212.66H1151.12L1159.63 197.76C1162.88 192.06 1169.65 189.38 1175.92 191.3C1184.42 193.9 1188.39 203.63 1184.15 211.43L1180.43 218.26C1179.11 220.68 1178.42 223.39 1178.42 226.14V233.09L1165.18 234.05L1165.19 234.06Z" fill="#C67555"/>
<path d="M1183.77 239.78L1163.55 241.2L1163.08 225.93L1180.68 224.73L1183.77 239.78Z" fill="#F5CF72"/>
<path fill-rule="evenodd" clip-rule="evenodd" d="M579.741 278.159C580.913 279.33 580.913 281.23 579.741 282.401L474.631 387.511C473.46 388.683 471.56 388.683 470.388 387.511C469.217 386.34 469.217 384.44 470.388 383.269L575.498 278.159C576.67 276.987 578.569 276.987 579.741 278.159Z" fill="#FDF9F0"/>
<path fill-rule="evenodd" clip-rule="evenodd" d="M1039.22 278.159C1040.39 279.33 1040.39 281.23 1039.22 282.401L934.112 387.511C932.94 388.683 931.04 388.683 929.869 387.511C928.697 386.34 928.697 384.44 929.869 383.269L1034.98 278.159C1036.15 276.987 1038.05 276.987 1039.22 278.159Z" fill="#24100D"/>
<path d="M1152.74 193.13L1184.15 211.43L1186.23 207.42C1188.83 202.39 1187.72 196.24 1183.51 192.44C1181.52 190.64 1178.99 189.54 1176.32 189.29L1170.76 188.77C1166.07 188.33 1161.48 190.34 1158.62 194.08L1153.25 192.08C1152.58 191.83 1152.13 192.78 1152.75 193.14L1152.74 193.13Z" fill="#F3714D"/>
<path d="M1159.9 197.3L1161.2 204.52C1161.61 206.82 1163.61 208.49 1165.94 208.49H1171.4C1172.47 208.49 1173.34 209.36 1173.34 210.43C1173.34 211.5 1172.47 212.37 1171.4 212.37H1168.49L1178.49 224.73L1183.14 221.6C1184.82 220.47 1185.12 218.11 1183.77 216.6L1184.55 215.87C1185.89 214.61 1185.7 212.43 1184.16 211.43L1159.91 197.3H1159.9Z" fill="#7D4227"/>
<path fill-rule="evenodd" clip-rule="evenodd" d="M42.5503 389.89C42.5503 388.785 43.4457 387.89 44.5503 387.89H1012C1013.1 387.89 1014 388.785 1014 389.89C1014 390.995 1013.1 391.89 1012 391.89H44.5503C43.4457 391.89 42.5503 390.995 42.5503 389.89Z" fill="#1E99DD"/>
<path fill-rule="evenodd" clip-rule="evenodd" d="M1021.23 356.66C1021.23 355.555 1022.13 354.66 1023.23 354.66H1334.63C1335.74 354.66 1336.63 355.555 1336.63 356.66C1336.63 357.765 1335.74 358.66 1334.63 358.66H1023.23C1022.13 358.66 1021.23 357.765 1021.23 356.66Z" fill="#1E99DD"/>
<path d="M81.9999 136.74H354.17C380.36 136.74 390.37 102.59 368.34 88.44C347.35 74.96 320.1 76.36 300.6 91.92L278.7 109.38C266.74 118.91 250.43 120.88 236.55 114.46L220.87 107.21C200.2 97.65 176.38 97.62 155.69 107.12L142.3 113.27C127.31 120.16 111.62 125.42 95.5099 128.98L81.4799 132.08C78.7199 132.69 79.1699 136.75 81.9899 136.75L81.9999 136.74Z" fill="#FDF9F0"/>
<path d="M751.2 79.22H1009.59C1034.47 79.22 1043.89 46.69 1022.85 33.4C1016.05 29.1 1007.58 28.37 1000.14 31.43L936.23 57.73C915.12 66.42 891.69 67.7 869.76 61.37L837.95 52.18C827.48 49.16 816.34 49.45 806.04 53.03L750.06 72.49C746.38 73.77 747.3 79.22 751.2 79.22Z" fill="#FDF9F0"/>
<path d="M1169.32 141.99H1335.38V67.21L1286.06 113.52C1277.91 121.17 1265.87 122.94 1255.87 117.96L1235.23 107.68C1219.43 99.81 1200.5 101.9 1186.8 113.03L1165.26 130.52C1160.54 134.35 1163.25 141.99 1169.33 141.99H1169.32Z" fill="#FDF9F0"/>
<path d="M558.46 181.35H678.26C695.97 181.35 702.93 158.39 688.21 148.55C677.84 141.62 664.08 142.65 654.85 151.05L640.29 164.31C633.38 170.61 623.27 171.94 614.96 167.66L600.3 160.1C592.81 156.24 583.79 156.9 576.94 161.81L556.81 176.24C554.58 177.84 555.71 181.36 558.45 181.36L558.46 181.35Z" fill="#FDF9F0"/>
<path d="M224.31 240.65C224.796 240.65 225.19 240.256 225.19 239.77C225.19 239.284 224.796 238.89 224.31 238.89C223.824 238.89 223.43 239.284 223.43 239.77C223.43 240.256 223.824 240.65 224.31 240.65Z" fill="#24100D"/>
<path d="M229.431 244.61C228.741 244.61 228.071 244.33 227.581 243.84L227.561 243.82H229.181L229.431 244.61Z" fill="#24100D"/>
<path d="M227.55 243.82L229.03 243.37L229.18 243.82H227.55Z" fill="#EC5E3A"/>
<path fill-rule="evenodd" clip-rule="evenodd" d="M231.209 283.247L197.039 298.117L196.241 296.283L230.411 281.413L231.209 283.247Z" fill="#EC5E3A"/>
<path fill-rule="evenodd" clip-rule="evenodd" d="M187.03 287.39H216.88V289.39H187.03V287.39Z" fill="#EC5E3A"/>
<path d="M442.39 233.37C442.887 233.37 443.29 232.967 443.29 232.47C443.29 231.973 442.887 231.57 442.39 231.57C441.893 231.57 441.49 231.973 441.49 232.47C441.49 232.967 441.893 233.37 442.39 233.37Z" fill="#282727"/>
<path d="M450.801 235.7C450.571 235.98 450.221 236.15 449.831 236.15C449.111 236.15 448.521 235.56 448.521 234.84C448.521 234.52 448.631 234.23 448.831 234.01L450.111 235.08C450.351 235.28 450.581 235.49 450.801 235.7Z" fill="#282727"/>
<path fill-rule="evenodd" clip-rule="evenodd" d="M442.112 229.312C442.359 229.434 442.461 229.733 442.339 229.981L440.559 233.591C440.437 233.839 440.137 233.941 439.889 233.818C439.642 233.696 439.54 233.397 439.662 233.149L441.442 229.539C441.564 229.291 441.864 229.189 442.112 229.312Z" fill="#963E18"/>
<path fill-rule="evenodd" clip-rule="evenodd" d="M458.281 256.785C439.809 253.602 421.774 258.039 405.525 265.871L404.656 264.069C421.147 256.121 439.612 251.538 458.62 254.815L458.281 256.785Z" fill="#EC5E3A"/>
<path fill-rule="evenodd" clip-rule="evenodd" d="M459.539 283.247L425.369 298.117L424.571 296.283L458.741 281.413L459.539 283.247Z" fill="#EC5E3A"/>
<path fill-rule="evenodd" clip-rule="evenodd" d="M415.36 287.39H445.2V289.39H415.36V287.39Z" fill="#EC5E3A"/>
<path fill-rule="evenodd" clip-rule="evenodd" d="M687.13 256.785C668.658 253.602 650.624 258.039 634.374 265.871L633.506 264.069C649.996 256.121 668.462 251.538 687.47 254.815L687.13 256.785Z" fill="#E79011"/>
<path fill-rule="evenodd" clip-rule="evenodd" d="M688.389 283.247L654.229 298.117L653.431 296.283L687.591 281.413L688.389 283.247Z" fill="#E79011"/>
<path fill-rule="evenodd" clip-rule="evenodd" d="M644.21 287.39H674.06V289.39H644.21V287.39Z" fill="#E79011"/>
<path fill-rule="evenodd" clip-rule="evenodd" d="M916.38 256.785C897.908 253.602 879.874 258.039 863.624 265.871L862.756 264.069C879.246 256.121 897.712 251.538 916.72 254.815L916.38 256.785Z" fill="#EC5E3A"/>
<path fill-rule="evenodd" clip-rule="evenodd" d="M917.639 283.247L883.469 298.117L882.671 296.283L916.841 281.413L917.639 283.247Z" fill="#EC5E3A"/>
<path fill-rule="evenodd" clip-rule="evenodd" d="M873.46 287.39H903.31V289.39H873.46V287.39Z" fill="#EC5E3A"/>
<path d="M681.541 239.55C682.038 239.55 682.441 239.147 682.441 238.65C682.441 238.153 682.038 237.75 681.541 237.75C681.044 237.75 680.641 238.153 680.641 238.65C680.641 239.147 681.044 239.55 681.541 239.55Z" fill="#232221"/>
<path fill-rule="evenodd" clip-rule="evenodd" d="M924.602 242.811C924.789 242.608 925.105 242.595 925.308 242.782L927.458 244.762C927.61 244.902 927.66 245.12 927.586 245.312C927.511 245.504 927.326 245.63 927.12 245.63H924.97C924.694 245.63 924.47 245.406 924.47 245.13C924.47 244.854 924.694 244.63 924.97 244.63H925.839L924.631 243.518C924.428 243.331 924.415 243.014 924.602 242.811Z" fill="#FF645E"/>
<path fill-rule="evenodd" clip-rule="evenodd" d="M1177.83 269.497L1149.91 311.087L1148.25 309.973L1176.17 268.383L1177.83 269.497Z" fill="#E79011"/>
<path fill-rule="evenodd" clip-rule="evenodd" d="M1178.27 206.596L1158.11 194.936L1159.11 193.204L1179.27 204.864L1178.27 206.596Z" fill="#963E18"/>
<path d="M1159.9 208.63C1160.63 208.63 1161.23 208.035 1161.23 207.3C1161.23 206.565 1160.63 205.97 1159.9 205.97C1159.17 205.97 1158.57 206.565 1158.57 207.3C1158.57 208.035 1159.17 208.63 1159.9 208.63Z" fill="#4D1A09"/>
<path fill-rule="evenodd" clip-rule="evenodd" d="M1160 214.2L1156.31 214.93L1156.11 213.949L1159.8 213.219L1160 214.2Z" fill="#963E18"/>
<path fill-rule="evenodd" clip-rule="evenodd" d="M1183.94 330.97L1163.91 287.72L1165.73 286.88L1185.76 330.13L1183.94 330.97Z" fill="#E79011"/>
</g>
</g>
<defs>
<clipPath id="clip0_1528_88390">
<rect width="1335" height="464" fill="white"/>
</clipPath>
</defs>
</svg>
