<svg width="1335" height="464" viewBox="0 0 1335 464" fill="none" xmlns="http://www.w3.org/2000/svg">
<g clip-path="url(#clip0_1528_88492)">
<rect width="1335" height="464" fill="#E4E6B7"/>
<mask id="mask0_1528_88492" style="mask-type:luminance" maskUnits="userSpaceOnUse" x="0" y="0" width="1335" height="464">
<path d="M1335 0H0V464H1335V0Z" fill="white"/>
</mask>
<g mask="url(#mask0_1528_88492)">
<path d="M1335 1H0V465H1335V1Z" fill="#E4E6B7"/>
<path d="M1335 305.59H0V371.35H1335V305.59Z" fill="#C6E6C7"/>
<path d="M1335 371.36H0V445.33H1335V371.36Z" fill="#ABDBAB"/>
<path d="M1335 445.33H0V464.62H1335V445.33Z" fill="#75C476"/>
<path d="M823.1 105.02L768.06 98.52C758.27 97.36 748.37 99.41 739.85 104.36L670.66 144.53L645.68 153.03C644.67 153.37 644.18 154.51 644.62 155.48C644.97 156.26 645.83 156.69 646.67 156.49L658.76 153.67L641.76 159.03C641.04 159.26 640.55 159.92 640.55 160.68C640.55 161.77 641.55 162.59 642.62 162.37L658.24 159.15L639.87 165.75C638.85 166.12 638.38 167.29 638.86 168.26C639.24 169.02 640.1 169.41 640.92 169.2L660.18 164.35L643.32 170.33C642.51 170.62 642.1 171.5 642.39 172.31C642.67 173.08 643.51 173.49 644.29 173.25L663.84 167.2C665.02 166.84 666.18 167.79 666.07 169.01L665.83 171.5C665.67 173.11 666.94 174.5 668.55 174.5C669.83 174.5 670.94 173.61 671.22 172.36L671.39 171.61C673.89 160.48 682.05 151.47 692.87 147.88L752.95 127.93L810.18 138.6L823.11 105.02H823.1Z" fill="#FF9A8D"/>
<path d="M825.499 261.57L808.499 278.57L755.699 331.27C749.699 337.27 739.699 336.67 734.699 330.07C734.499 329.97 734.299 329.77 734.199 329.57L706.899 291.77L699.499 281.57L678.399 252.47C669.899 240.47 655.999 233.47 641.399 233.47H630.399C628.399 233.47 626.899 231.87 626.899 229.97C626.899 228.37 627.899 226.97 629.399 226.57L672.199 214.47C674.799 213.77 677.399 215.77 677.399 218.47V224.07L717.399 250.07C718.899 251.07 720.299 252.17 721.599 253.37C723.199 254.87 724.499 256.47 725.699 258.17L728.499 262.27L744.699 278.57L788.099 261.57H825.499Z" fill="#FF9A8D"/>
<path d="M825.499 261.57L808.499 278.57C792.039 282.57 776.889 290.74 764.509 302.28L734.619 330.14L706.899 291.76L721.599 253.36C723.199 254.86 724.499 256.46 725.699 258.16L728.499 262.26L744.699 278.56L788.099 261.56H825.499V261.57Z" fill="#FF786E"/>
<path d="M626.88 229.97C626.88 231.9 628.44 233.46 630.37 233.46H641.37C656.06 233.46 669.88 240.52 678.46 252.45L699.46 281.54L721.61 253.4C720.34 252.17 718.94 251.06 717.43 250.08L677.43 224.11V218.45C677.43 215.74 674.8 213.77 672.22 214.51L629.43 226.61C627.91 227.02 626.89 228.42 626.89 229.97H626.88Z" fill="#FFF9E3"/>
<path d="M856.25 216.47L823.72 195.38H821.36C791.88 195.38 764.29 209.94 747.65 234.27L730.88 258.8L701.75 301.47H699.33C688.54 301.47 678.65 307.46 673.61 317.02L664.17 334.99L633.56 393.12V436.65C633.56 440.18 636 443.43 639.49 443.98C643.95 444.68 647.76 441.3 647.76 436.97V418.69C647.76 407.88 652.05 397.51 659.7 389.87L686.94 362.63L788.07 261.5" fill="#FF9A8D"/>
<path d="M730.88 258.81L769.32 280.27L788.07 261.52H831.44L856.26 216.47L823.73 195.38H809.55C787.46 195.38 766.8 206.28 754.34 224.52L730.9 258.81H730.88Z" fill="#5CB85B"/>
<path d="M788.07 261.52H825.48L829.18 220.41L788.07 261.52Z" fill="#2D892D"/>
<path d="M633.57 393.13V436.99C641.5 433.95 636.73 438.8 640.67 438.8C644.61 438.8 647.77 440.93 647.77 436.99V418.65C647.77 407.86 652.08 397.52 659.71 389.89L686.95 362.65L664.18 335L633.57 393.13Z" fill="#FFF9E3"/>
<path d="M658.45 400.78L652.34 388.03L639.59 394.41V381.68L633.56 393.13V436.02C633.56 440.47 637.17 444.08 641.62 444.08C646.07 444.08 649.68 440.47 649.68 436.02V421.94C649.68 414 652.83 406.39 658.45 400.78Z" fill="#121831"/>
<path d="M677.41 224.09H670.78C669.16 224.09 667.84 225.41 667.84 227.03V228.68C667.84 232.03 666.14 235.16 663.33 236.99L652.22 244.23L642.52 237.83L653.28 235.48C653.28 235.48 643.57 234 631.63 235.14C628.64 235.43 626.04 233.09 626.11 230.09C626.16 227.89 627.65 225.98 629.78 225.4L672.97 213.63C675.2 213.02 677.4 214.7 677.4 217.02V224.11L677.41 224.09Z" fill="#121831"/>
<path d="M919.32 139.96L891.08 174.5L876.07 166.07L856.26 216.48L823.73 195.39L813.49 149.01L791.1 141.89L800.35 100.34L845.47 105.9L844.54 93.57L890.34 98.2L886.27 113.48C886.27 113.48 903.83 119.68 919.35 139.95L919.32 139.96Z" fill="#F5CF72"/>
<path d="M893 211.35C892.5 212.15 891.9 212.95 891.3 213.65L886.9 219.05L886.1 219.95C884.1 222.35 880.5 222.65 878.1 220.65L871.8 215.45C857.4 203.45 855.4 182.05 867.3 167.65L871.1 163.05L872.5 161.35C874.5 158.95 878.1 158.55 880.5 160.55L883.4 162.95L886.8 165.85C900.6 177.15 903.1 197.05 893 211.35Z" fill="#FFF9E3"/>
<path d="M893 211.35C892.5 212.15 891.9 212.95 891.3 213.65L886.9 219.05L877 218.65L877.9 196.65C878.1 191.45 877.5 186.25 876.1 181.15L871.1 163.05L872.5 161.35C874.5 158.95 878.1 158.55 880.5 160.55L883.4 162.95L882.4 174.35C881.5 183.95 883.5 193.45 888 201.95L893 211.35Z" fill="#57AAE3"/>
<path d="M865.7 209L918.1 199.85L893.7 171.28L916.07 143.93L939.37 170.36C945.84 177.88 948.72 187.85 947.24 197.66C944.73 214.32 930.41 226.63 913.57 226.63H879.2C868.77 226.63 860.32 218.18 860.32 207.75V196.91L865.7 209.01V209Z" fill="#FF9A8D"/>
<path d="M832.52 153.52L834.54 155.99L837.07 154.05C841.37 150.76 844.15 145.87 844.78 140.49L828.13 138.55C827.5 143.93 829.08 149.33 832.51 153.52H832.52Z" fill="#121831"/>
<path d="M875.48 110.29L864.55 119.08L856.04 109.22L866.3 104.09L852.66 97.2L861.85 89.92L855.37 87.18C853.23 86.28 851.99 84.03 852.36 81.74L853.44 75.09L850.5 72.26C850.1 71.88 850.28 71.21 850.81 71.07L855.19 69.96L858.96 66.72C864.78 61.71 872.48 59.48 880.08 60.59C885.29 61.35 889.67 64.87 891.55 69.79C893.82 75.74 891.95 82.47 886.94 86.39L875.54 95.33L877.86 101.85C878.94 104.88 877.98 108.27 875.47 110.28L875.48 110.29Z" fill="#FF9A8D"/>
<path d="M875.54 95.34L870.78 79L877.84 75.42L874.31 71.21L868.46 77.95L869.72 67.1L867.09 70.16L860.45 62.89C860.45 62.89 881.52 51.51 891.95 66.68C902.38 81.85 875.53 95.35 875.53 95.35L875.54 95.34Z" fill="#7A210B"/>
<path d="M893.39 72.36C893.39 72.36 897.66 82.92 909.41 76.87C921.16 70.82 911.31 40.19 895.29 45.03C878.68 50.05 893.39 72.36 893.39 72.36Z" fill="#7A210B"/>
<path fill-rule="evenodd" clip-rule="evenodd" d="M117.63 19.01V371.36H109.63V19.01H117.63Z" fill="#FFF9E3"/>
<path fill-rule="evenodd" clip-rule="evenodd" d="M301.07 19.01V371.36H293.07V19.01H301.07Z" fill="#FFF9E3"/>
<path fill-rule="evenodd" clip-rule="evenodd" d="M297.07 232.86H113.63V224.86H297.07V232.86Z" fill="#FFF9E3"/>
<path d="M740.31 402.34C744.48 402.34 747.86 398.96 747.86 394.79C747.86 390.62 744.48 387.24 740.31 387.24C736.14 387.24 732.76 390.62 732.76 394.79C732.76 398.96 736.14 402.34 740.31 402.34Z" fill="#A2AB3B"/>
<path d="M563.22 402.34C570.289 402.34 576.02 396.609 576.02 389.54C576.02 382.471 570.289 376.74 563.22 376.74C556.151 376.74 550.42 382.471 550.42 389.54C550.42 396.609 556.151 402.34 563.22 402.34Z" fill="#5CB85B"/>
<path d="M670.24 452.26C674.067 452.26 677.17 449.157 677.17 445.33C677.17 441.503 674.067 438.4 670.24 438.4C666.412 438.4 663.31 441.503 663.31 445.33C663.31 449.157 666.412 452.26 670.24 452.26Z" fill="#46A646"/>
<path d="M1156.25 148.86L1173.4 170.86C1177.84 177.59 1179.84 185.63 1179.08 193.66L1170.99 278.43C1170.76 280.85 1171.13 283.29 1172.06 285.53L1176.51 296.21C1176.74 296.77 1176.49 297.42 1175.94 297.68C1175.39 297.94 1174.73 297.71 1174.45 297.17L1170.45 289.37L1175.31 303.14C1175.54 303.79 1175.22 304.51 1174.57 304.77C1173.92 305.03 1173.17 304.72 1172.9 304.07L1168.84 294.47L1171.63 305.4C1171.81 306.11 1171.39 306.83 1170.68 307.02C1169.99 307.21 1169.27 306.81 1169.06 306.13L1165.73 295.43L1166.95 306.36C1167.03 307.12 1166.45 307.78 1165.69 307.8C1165.05 307.82 1164.49 307.37 1164.38 306.74L1161.84 293.18C1161.84 293.18 1161.53 296.04 1161.14 300.18C1161.07 300.92 1160.45 301.49 1159.71 301.49C1158.86 301.49 1158.18 300.78 1158.25 299.93C1158.43 297.69 1158.82 293.23 1159.43 287.57C1160.34 279.05 1149.53 189.82 1149.53 189.82L1138.9 166.77L1156.27 148.86H1156.25Z" fill="#633F27"/>
<path d="M1051.93 326.22L1079.89 358.18L1127.15 412.18C1131.48 417.11 1133.07 423.91 1131.32 430.27L1125.84 450.66C1125.4 452.3 1127.43 453.35 1128.47 452.03L1156.32 417.82C1158.51 415.13 1158.18 411.19 1155.5 408.94L1147.5 402.09L1108.69 331.97L1105.84 326.82C1103.21 322.11 1099.43 318.21 1094.82 315.47L1080.18 306.81L1110.99 282.85L1130.29 267.83L1140.16 284.66L1161.76 321.34C1172.4 339.43 1194.93 346.56 1214.01 338.06C1214.17 338.01 1214.39 337.95 1214.56 337.84L1267.52 313.39C1276.4 309.28 1286.76 309.72 1295.31 314.6L1315.38 326.06C1316.97 326.99 1318.56 324.85 1317.24 323.59L1282.76 290.59C1280.57 288.51 1277.61 287.47 1274.59 287.79L1213.24 294.26L1212.58 294.31C1207.65 294.86 1203.31 297.87 1201.12 302.37L1200.74 303.19L1184.35 264.65L1158.42 203.74L1095.87 208.45L1070.87 248.85L1048.56 284.92C1040.5 297.91 1041.87 314.69 1051.96 326.2L1051.93 326.22Z" fill="#965E38"/>
<path d="M1119.72 166.77L1046.57 192.77C1038.84 195.52 1030.4 195.54 1022.65 192.83L940.83 164.17C938.5 163.35 936 163.12 933.55 163.5L921.91 165.29C921.3 165.38 920.72 164.98 920.6 164.37C920.48 163.76 920.86 163.16 921.47 163.02L930.15 160.96L915.36 162.41C914.66 162.48 914.03 161.98 913.93 161.28C913.83 160.57 914.32 159.91 915.03 159.8L925.51 158.13L914.03 158.22C913.29 158.22 912.68 157.63 912.66 156.89C912.64 156.16 913.21 155.55 913.94 155.51L925.33 154.82L914.23 153.36C913.46 153.26 912.94 152.52 913.11 151.76C913.25 151.12 913.83 150.68 914.48 150.72L928.5 151.52C928.5 151.52 925.75 150.51 921.75 149.12C921.04 148.87 920.63 148.12 920.8 147.39C921 146.55 921.87 146.05 922.69 146.33C924.86 147.06 929.17 148.53 934.62 150.5C942.82 153.48 1033.65 164.54 1033.65 164.54L1098.63 133.54L1119.71 166.77H1119.72Z" fill="#965E38"/>
<path d="M1067.82 246.29L1070.84 248.87L1110.97 282.86L1130.27 267.84L1140.14 284.67L1184.32 264.66L1186.19 263.78L1158.39 203.75L1095.84 208.46L1067.82 246.29Z" fill="#FFF9E3"/>
<path d="M1098.8 150.63L1081.76 114.36C1080.71 112.13 1078.62 110.56 1076.18 110.19L1066.58 108.71C1062.46 108.08 1059.56 104.32 1060 100.17L1060.69 93.57L1055.23 91.26C1054.74 91.05 1054.71 90.38 1055.17 90.12L1061.69 86.46L1067.37 77.56C1071.36 71.3 1078.65 67.97 1085.99 69.03C1096.75 70.59 1103.97 80.9 1101.76 91.55L1099.72 101.35L1119.73 128.47L1098.81 150.64L1098.8 150.63Z" fill="#965E38"/>
<path d="M1099.71 101.33H1089.4L1079.78 91.71L1083.92 87.57C1084.98 86.51 1084.98 84.78 1083.92 83.72C1082.86 82.66 1081.13 82.66 1080.07 83.72L1075.71 88.08V77.58L1080.6 72.69C1076.61 76.68 1071.21 78.92 1065.57 78.92H1061.54L1070.15 70.31C1074.86 65.6 1081.24 62.96 1087.9 62.96C1094.56 62.96 1100.94 65.61 1105.65 70.31C1111.52 76.18 1112.09 85.5 1106.97 92.04L1099.71 101.32V101.33Z" fill="#121831"/>
<path d="M1068.96 87.38C1070.09 87.38 1071.01 86.4622 1071.01 85.33C1071.01 84.1978 1070.09 83.28 1068.96 83.28C1067.83 83.28 1066.91 84.1978 1066.91 85.33C1066.91 86.4622 1067.83 87.38 1068.96 87.38Z" fill="#4F2C10"/>
<path d="M1060.47 95.63L1065.16 95.08C1065.16 95.08 1061.81 98.47 1060.17 98.47L1060.47 95.62V95.63Z" fill="#633F27"/>
<path d="M1065.16 95.08L1060.33 96.97L1060.47 95.63L1065.16 95.08Z" fill="#49270F"/>
<path d="M1177.17 213.67L1086.54 216.67L1095.65 179.95L1083.68 184.29L1048.59 146.6L1090.28 121.75L1109.11 104.3L1127 126.63L1180.5 167.72L1150.7 174.24L1177.17 213.67Z" fill="#57AAE3"/>
<path d="M1130.27 267.84L1140.14 284.67L1164.64 240.64L1130.27 267.84Z" fill="#F8DE9F"/>
<path d="M1213.21 294.26L1213.98 338.06C1214.14 338.01 1214.36 337.95 1214.53 337.84L1267.49 313.39C1269.08 312.68 1270.72 312.07 1272.42 311.64H1272.47C1277.4 310.27 1282.67 310.27 1287.6 311.53C1290.29 312.19 1292.86 313.17 1295.27 314.6L1315.34 326.06C1316.93 326.99 1318.52 324.85 1317.2 323.59L1282.72 290.59C1280.53 288.51 1277.57 287.47 1274.55 287.79L1264.3 288.89L1213.2 294.26H1213.21Z" fill="#57AAE3"/>
<path d="M1131.31 430.28L1125.83 450.67C1125.39 452.31 1127.42 453.36 1128.46 452.04L1156.31 417.83C1158.5 415.14 1158.17 411.2 1155.49 408.95L1147.49 402.1L1108.68 331.98L1079.9 358.19L1127.16 412.19C1129.63 414.99 1131.16 418.33 1131.76 421.89C1132.2 424.63 1132.09 427.48 1131.32 430.28H1131.31Z" fill="#57AAE3"/>
<path d="M1278.84 297.44L1272.43 311.64H1272.48L1282.4 320.58L1290.18 317.29L1287.6 311.53C1290.29 312.19 1292.86 313.17 1295.27 314.6L1315.34 326.06C1316.93 326.99 1318.52 324.85 1317.2 323.59L1282.72 290.59C1280.53 288.51 1277.57 287.47 1274.55 287.79L1264.3 288.89L1278.83 297.44H1278.84Z" fill="#121831"/>
<path d="M1131.31 430.28L1125.83 450.67C1125.39 452.31 1127.42 453.36 1128.46 452.04L1156.31 417.83C1158.5 415.14 1158.17 411.2 1155.49 408.95L1147.49 402.1L1142.35 418.02C1141.64 420.21 1138.99 421.06 1137.15 419.68L1132.52 416.21C1129.72 414.12 1125.71 415.06 1124.14 418.18L1122.22 422L1129.35 426.88L1131.76 421.89C1132.2 424.63 1132.09 427.48 1131.32 430.28H1131.31Z" fill="#121831"/>
<path fill-rule="evenodd" clip-rule="evenodd" d="M1138.33 165.596L1084.2 185.696L1083.16 182.884L1137.29 162.784L1138.33 165.596Z" fill="#14384C"/>
<path d="M1097.61 438.29C1099.91 438.29 1101.78 436.423 1101.78 434.12C1101.78 431.817 1099.91 429.95 1097.61 429.95C1095.31 429.95 1093.44 431.817 1093.44 434.12C1093.44 436.423 1095.31 438.29 1097.61 438.29Z" fill="#A2AB3B"/>
<path d="M1174.98 392.31C1179.5 392.31 1183.16 388.648 1183.16 384.13C1183.16 379.612 1179.5 375.95 1174.98 375.95C1170.46 375.95 1166.8 379.612 1166.8 384.13C1166.8 388.648 1170.46 392.31 1174.98 392.31Z" fill="#5CB85B"/>
<path d="M1233.89 438.29C1236.19 438.29 1238.06 436.423 1238.06 434.12C1238.06 431.817 1236.19 429.95 1233.89 429.95C1231.59 429.95 1229.72 431.817 1229.72 434.12C1229.72 436.423 1231.59 438.29 1233.89 438.29Z" fill="#2D892D"/>
<path fill-rule="evenodd" clip-rule="evenodd" d="M1186.89 425.327L1159.76 439.607L1158.36 436.953L1185.49 422.673L1186.89 425.327Z" fill="#75C476"/>
<path fill-rule="evenodd" clip-rule="evenodd" d="M1112.42 430.747L1120.27 459.677L1117.37 460.463L1109.52 431.533L1112.42 430.747Z" fill="#2D892D"/>
<path fill-rule="evenodd" clip-rule="evenodd" d="M708.834 385.741C708.834 385.741 708.834 385.741 707.53 385C706.226 384.259 706.226 384.259 706.227 384.258L706.228 384.255L706.233 384.246L706.249 384.219C706.262 384.196 706.281 384.163 706.306 384.121C706.355 384.038 706.428 383.917 706.523 383.763C706.713 383.454 706.995 383.009 707.369 382.452C708.118 381.338 709.239 379.772 710.739 377.94C713.738 374.279 718.269 369.541 724.403 365.228C736.709 356.575 755.414 349.68 780.928 356.511L780.152 359.409C755.616 352.84 737.816 359.465 726.129 367.682C720.267 371.804 715.93 376.338 713.06 379.841C711.626 381.591 710.562 383.08 709.859 384.125C709.508 384.648 709.248 385.059 709.077 385.336C708.992 385.474 708.929 385.579 708.889 385.647C708.869 385.682 708.854 385.707 708.845 385.722L708.835 385.739L708.834 385.741Z" fill="#82882E"/>
<path d="M1070.84 248.87L1098.59 292.48L1110.97 282.86L1070.84 248.87Z" fill="#633F27"/>
<path d="M1152.46 305.59L1184.32 264.66L1140.14 284.67L1152.46 305.59Z" fill="#633F27"/>
<path d="M1055.56 154.09V189.57L1080.38 180.75L1055.56 154.09Z" fill="#633F27"/>
<path fill-rule="evenodd" clip-rule="evenodd" d="M865.167 104.098L844.303 94.0202L844.738 93.1198L867.434 104.082L856.829 109.384L869.464 124.499L868.697 125.141L855.251 109.056L865.167 104.098Z" fill="#FAEECE"/>
<path fill-rule="evenodd" clip-rule="evenodd" d="M778.626 271.345L737.826 248.815L738.793 247.065L779.593 269.595L778.626 271.345Z" fill="#2D892D"/>
<path d="M775.98 132.22L799.901 102.28L792.55 135.31L775.98 132.22Z" fill="#FF786E"/>
</g>
</g>
<defs>
<clipPath id="clip0_1528_88492">
<rect width="1335" height="464" fill="white"/>
</clipPath>
</defs>
</svg>
