<svg width="1335" height="464" viewBox="0 0 1335 464" fill="none" xmlns="http://www.w3.org/2000/svg">
<g clip-path="url(#clip0_1528_86045)">
<rect width="1335" height="464" fill="#D2ECF5"/>
<mask id="mask0_1528_86045" style="mask-type:luminance" maskUnits="userSpaceOnUse" x="0" y="0" width="1335" height="464">
<path d="M1335 0H0V464H1335V0Z" fill="white"/>
</mask>
<g mask="url(#mask0_1528_86045)">
<path d="M1335 0H0V464H1335V0Z" fill="#D2ECF5"/>
<path fill-rule="evenodd" clip-rule="evenodd" d="M78.8 333.12V34.21H82.8V333.12H78.8Z" fill="white"/>
<path fill-rule="evenodd" clip-rule="evenodd" d="M208.93 333.12V34.21H212.93V333.12H208.93Z" fill="white"/>
<path fill-rule="evenodd" clip-rule="evenodd" d="M210.93 209.03H80.8V205.03H210.93V209.03Z" fill="white"/>
<path d="M427.01 243.11H169.04C166.671 243.11 164.75 245.031 164.75 247.4V277.05C164.75 279.419 166.671 281.34 169.04 281.34H427.01C429.379 281.34 431.3 279.419 431.3 277.05V247.4C431.3 245.031 429.379 243.11 427.01 243.11Z" fill="#307BF2"/>
<path d="M389.32 256.9H0V464H389.32V256.9Z" fill="#3A9CDE"/>
<path d="M1572.29 256.9H1174.45V464H1572.29V256.9Z" fill="#3A9CDE"/>
<path d="M778.71 256.9H389.39V464H778.71V256.9Z" fill="#A0D1F9"/>
<path d="M1181.5 256.9H777.93V464H1181.5V256.9Z" fill="#6BB7F6"/>
<path d="M1368.57 353H-9V491.23H1368.57V353Z" fill="#709D5A"/>
<path fill-rule="evenodd" clip-rule="evenodd" d="M1368.19 397.63H60.7V395.63H1368.19V397.63Z" fill="white"/>
<path d="M1387.79 307.75H-25.17V352.55H1387.79V307.75Z" fill="#F6DC9D"/>
<path fill-rule="evenodd" clip-rule="evenodd" d="M-25.17 351.55H1387.8V353.55H-25.17V351.55Z" fill="#4C8431"/>
<path d="M1028.53 174.35L1010.74 220.97L979.61 189.84C978.71 188.94 978.13 187.78 977.94 186.53L977.35 182.57C977.09 180.84 976.07 179.31 974.58 178.39L966.81 173.64C966.14 173.23 965.27 173.33 964.72 173.89C964.05 174.56 964.05 175.63 964.72 176.3L968.6 180.18L957.38 168.96L952.68 173.66L957.72 185.12C958.64 187.21 960.21 188.96 962.19 190.1L964.07 191.18C965.3 191.89 966.37 192.83 967.23 193.96L1001.03 238.12C1004.4 242.52 1009.63 245.1 1015.17 245.1C1022.6 245.1 1029.25 240.48 1031.85 233.52L1051.13 181.89L1028.53 174.35Z" fill="#FF9781"/>
<path d="M1027.53 161.28L1010.75 194.41L1038.6 202.51L1027.53 161.28Z" fill="#307BF2"/>
<path d="M964.88 387.14L978.29 310.72C980.86 296.09 989.85 283.39 1002.79 276.11L1043.55 253.18V226.51H1079.8L1088.04 246.78C1094.79 263.4 1086.83 282.34 1070.23 289.14L1010.95 313.42L986.72 392.38C985.27 397.11 980.9 400.34 975.96 400.34C968.96 400.34 963.66 394.03 964.87 387.13L964.88 387.14Z" fill="#FF9781"/>
<path d="M1181.98 329.47L1162.89 310.39L1124.48 324L1068.58 343.8C1056.37 348.13 1043.56 339.07 1043.56 326.12V253.18H1086.12L1084.22 284.45L1082.78 308.16L1119.08 299.2L1172.9 285.91L1186.61 326.6C1187.56 329.4 1184.07 331.57 1181.98 329.47Z" fill="#FF9781"/>
<path d="M1084.22 284.45L1082.78 308.16H1043.56V284.45H1084.22Z" fill="#FF7461"/>
<path fill-rule="evenodd" clip-rule="evenodd" d="M965.7 426.464L976.03 380.274L980.91 381.366L970.581 427.551C970.58 427.553 970.58 427.554 970.58 427.555C969.715 431.444 966.278 434.212 962.298 434.24L962.29 434.24L945.43 434.31L945.41 429.31L962.262 429.24C962.263 429.24 962.264 429.24 962.265 429.24C963.922 429.227 965.343 428.077 965.699 426.469L965.7 426.464Z" fill="#041F49"/>
<path d="M970.67 349.25H1001.05L986.74 397.04C985.15 402.37 980.24 406.02 974.68 406.02C966.74 406.02 960.78 398.76 962.34 390.97L970.67 349.25Z" fill="#E8E8E8"/>
<path d="M1087.74 294.66V278.68L1090.31 272.11C1094.46 261.47 1093.85 249.56 1088.63 239.4L1080.41 223.41H1040.01V252.04L1011.15 266.69L1028.46 308.64L1087.72 294.66H1087.74Z" fill="#4A2F74"/>
<path d="M1028.47 308.65L1087.74 278.68V294.66L1028.47 308.65Z" fill="#041F49"/>
<path d="M1181.98 329.46L1162.89 310.38L1124.48 323.99L1119.08 299.19L1155.71 290.15L1172.9 285.9L1186.61 326.59C1187.56 329.39 1184.07 331.56 1181.98 329.46Z" fill="#FFF8EB"/>
<path d="M1058.11 152.8L1108.39 157.18C1115.9 157.83 1123.15 160.24 1129.56 164.2L1179.6 195.1C1180.86 195.88 1182.21 196.47 1183.63 196.88L1185.01 197.27C1188.42 198.25 1191.41 200.32 1193.52 203.16L1198.91 210.43L1192.43 213.65L1181.14 204.65L1184.39 210.06C1184.85 210.83 1184.62 211.82 1183.87 212.31C1183.37 212.64 1182.73 212.67 1182.19 212.39L1175.23 208.77C1173.92 208.09 1172.85 207.01 1172.19 205.68L1170.99 203.28L1118.15 181.34H1058.12V152.81L1058.11 152.8Z" fill="#FF9781"/>
<path d="M1181.98 329.46L1162.89 310.38L1167.72 304.69C1169.5 302.6 1168.75 299.39 1166.24 298.28L1161.22 296.07C1158.65 294.94 1156.65 292.8 1155.71 290.15L1172.9 285.9L1186.61 326.59C1187.56 329.39 1184.07 331.56 1181.98 329.46Z" fill="#403A76"/>
<path d="M1097.23 186.51H1079.79L1089.61 222.76L1092.47 233.33L1037.14 243.11L1021.54 185C1017.02 168.17 1029.7 151.64 1047.13 151.64H1097.24V186.51H1097.23Z" fill="#6BB7F6"/>
<path d="M1089.61 222.76L1053.36 186.51H1079.79L1089.61 222.76Z" fill="#307BF2"/>
<path d="M1046.77 154.55L1032.62 139.89L1034.07 130.09C1035.23 122.29 1030.06 114.96 1022.33 113.42C1016.08 112.18 1009.74 115.07 1006.6 120.61L1002.79 127.3L998.89 131.65C998.32 132.29 998.72 133.32 999.58 133.39L1003.42 133.71L1004.84 140.58C1005.43 143.45 1007.89 145.56 1010.82 145.73L1014.85 145.95L1028.57 161.28L1046.77 154.54V154.55Z" fill="#FF9781"/>
<path d="M1032.63 139.89L1036.84 144.26C1038.39 145.86 1040.89 146.07 1042.67 144.74C1045.48 142.65 1044.86 138.28 1041.59 137.04L1036.42 135.09L1039.15 123.86C1040.05 120.17 1037.3 116.6 1033.51 116.52L1028.24 112.51C1024.57 109.72 1019.64 109.23 1015.5 111.24L1011.59 113.14L1008.11 112.7C1006.06 112.44 1004.08 113.55 1003.22 115.44C1002.2 117.69 1003.09 120.35 1005.26 121.53C1007.45 122.73 1009.86 123.46 1012.34 123.69L1015.85 124.01V130.83H1017.42L1019.43 128.34C1020.51 127 1022.57 127.04 1023.59 128.42C1024.51 129.66 1024.17 131.42 1022.86 132.23L1019.32 134.41L1024.89 140.36C1027.05 142.67 1030.78 142.44 1032.64 139.88L1032.63 139.89Z" fill="#2B2929"/>
<path d="M1007.3 128.34C1007.89 128.34 1008.37 127.861 1008.37 127.27C1008.37 126.679 1007.89 126.2 1007.3 126.2C1006.71 126.2 1006.23 126.679 1006.23 127.27C1006.23 127.861 1006.71 128.34 1007.3 128.34Z" fill="#2B2929"/>
<path d="M890.99 291.73L880.46 283.8L863.58 291.4L829.77 306.62C822.85 309.73 814.75 306.19 812.34 299L805.1 277.44L799.66 261.22L793.97 244.28L818.09 234.39L823.37 253.98L826.09 264.09L831.01 282.34L860.11 277.58L871.38 275.74L879.97 270.61L880.41 270.35L881 271.23L893.34 289.49C894.39 291.03 892.47 292.85 890.99 291.73Z" fill="#8B5332"/>
<path d="M829.74 187.84C830.59 183.5 828.08 179.19 823.88 177.8L792.25 167.33L784.72 184.65L813.23 204.49L817.01 225.56C817.14 226.29 816.98 227.05 816.55 227.66C815.93 228.55 815.88 229.73 816.42 230.67L818.6 234.46L820.15 233.33L820.99 234.46C821.69 235.4 822.86 235.86 824.01 235.65C825.49 235.38 826.56 234.09 826.55 232.59L826.51 227.37C826.51 226.27 826.09 225.22 825.34 224.41L824.58 223.59C823.66 222.59 823.24 221.23 823.43 219.88L829.74 187.83V187.84Z" fill="#041F49"/>
<path d="M789.19 221.29V262.25L788.49 263.06L773.98 279.85L760.8 295.11C760.8 303.24 757.57 311.05 751.81 316.8L726.73 341.88L725.09 344.14L717.06 355.21L711.35 363.09L696.82 354.16L688.52 349.06C687.45 348.4 688 346.77 689.25 346.88L702.04 348.13L709.31 348.84L714.6 338.67L759.56 252.27L765.34 241.15L775.68 221.29H789.19Z" fill="#8B5332"/>
<path d="M826.09 264.09L805.1 277.44L799.66 261.22L823.37 253.98L826.09 264.09Z" fill="#61341C"/>
<path d="M788.49 263.06L773.98 279.85L759.56 252.27L765.34 241.15L788.49 263.06Z" fill="#61341C"/>
<path d="M725.09 344.14L711.35 363.09L696.82 354.16L702.04 348.13L709.31 348.84L714.6 338.67L725.09 344.14Z" fill="#307BF2"/>
<path d="M717.06 355.21L711.35 363.09L696.82 354.16L688.52 349.06C687.45 348.4 688 346.77 689.25 346.88L702.04 348.13L709.31 348.84V355.21H717.06Z" fill="#FFF8EB"/>
<path d="M830.8 258.73L822.71 260.87L820.57 256.9V261.5L798.12 268.56L793.97 257.04L793.95 257.07L787.71 267.29L758.19 247.43L780.04 213.77H800.91C810.51 213.77 818.98 220.04 821.79 229.22L830.8 258.73Z" fill="#FFF8EB"/>
<path d="M787.92 162.95L776.6 179.8C774.52 182.9 774.08 186.82 775.43 190.3L778.59 198.46L774.99 218.51L822.72 222.71L806.39 163.61C805.61 160.78 802.69 159.1 799.85 159.84L787.93 162.95H787.92Z" fill="#FFAECD"/>
<path d="M803.73 186.95L796.78 202.32C794.03 208.86 787.68 212.82 780.98 212.82C778.9 212.82 776.79 212.44 774.74 211.64C767.95 208.99 763.59 202.33 763.86 195.05L765.3 155.89V155.76C765.3 154.81 764.97 153.89 764.36 153.16C763.68 152.35 763.34 151.31 763.43 150.26L763.92 144.14L771.02 141.84L772.73 144.74L774.12 144.69L775.1 150.11C775.34 151.46 774.69 152.81 773.48 153.46L771.7 154.41L779.61 193.91L783.93 182.86L803.73 186.95Z" fill="#8B5332"/>
<path d="M801.34 163.38L800.49 152.68L804.06 144.7C806.26 139.78 804.04 134.02 799.12 131.83C794.62 129.83 789.34 131.51 786.82 135.73L786.05 137.01L782.45 137.39C781.79 137.46 781.55 138.29 782.06 138.7L783.69 140.03L782.75 146.16C782.46 148.03 783.38 149.88 785.04 150.79L786.35 151.51C787.46 152.12 788.21 153.23 788.35 154.5L789.72 166.56L801.33 163.38H801.34Z" fill="#8B5332"/>
<path d="M800.49 152.68H812.14C812.14 152.68 810.98 126.07 789.88 130.99C789.88 130.99 786.7 137.53 793.35 142.45H795.42C796.43 142.45 797.24 143.27 797.24 144.27C797.24 145.28 796.42 146.09 795.42 146.09H793.75L800.5 152.67L800.49 152.68Z" fill="#462929"/>
<path d="M809.46 152.68H817.89C822.54 152.68 826.32 156.46 826.32 161.11C826.32 165.76 822.54 169.54 817.89 169.54C813.24 169.54 809.46 165.76 809.46 161.11V152.68Z" fill="#462929"/>
<path d="M890.99 291.73L880.46 283.8L863.58 291.4L860.11 277.58L871.38 275.74L879.97 270.61L881 271.23L893.34 289.49C894.39 291.03 892.47 292.85 890.99 291.73Z" fill="#307BF2"/>
<path d="M890.99 291.73L880.46 283.8V277.78L871.38 275.74L879.97 270.61L880.41 270.35L881 271.23L893.34 289.49C894.39 291.03 892.47 292.85 890.99 291.73Z" fill="#FFF8EB"/>
<path d="M793.95 257.07L787.71 267.29L787.75 239.96L793.95 257.07Z" fill="#F6DC9D"/>
<path d="M773.1 157.82H764.67V159.43H773.1V157.82Z" fill="#041F49"/>
<path d="M768.34 161.11C769.743 161.11 770.88 159.973 770.88 158.57C770.88 157.167 769.743 156.03 768.34 156.03C766.937 156.03 765.8 157.167 765.8 158.57C765.8 159.973 766.937 161.11 768.34 161.11Z" fill="#FFF8EB"/>
</g>
</g>
<defs>
<clipPath id="clip0_1528_86045">
<rect width="1335" height="464" fill="white"/>
</clipPath>
</defs>
</svg>
