<svg width="1335" height="464" viewBox="0 0 1335 464" fill="none" xmlns="http://www.w3.org/2000/svg">
<g clip-path="url(#clip0_1528_79340)">
<rect width="1335" height="464" fill="#FDD7E3"/>
<mask id="mask0_1528_79340" style="mask-type:luminance" maskUnits="userSpaceOnUse" x="0" y="0" width="1335" height="464">
<path d="M1335 0H0V464H1335V0Z" fill="white"/>
</mask>
<g mask="url(#mask0_1528_79340)">
<path d="M1335 0H0V464H1335V0Z" fill="#FDD7E3"/>
<path d="M666.83 241.23H529.9V301.03H666.83V241.23Z" fill="#FFAECD"/>
<path d="M529.9 301.03V314.25C536.08 314.25 541.08 319.26 541.08 325.43V392.14H548.82L553.67 324.63C554.09 318.78 558.96 314.25 564.82 314.25H631.91C637.77 314.25 642.64 318.78 643.06 324.63L647.91 392.14H655.65V325.43C655.65 319.25 660.66 314.25 666.83 314.25V301.03H529.9Z" fill="#FF7CAE"/>
<path d="M598.37 280.6C603.6 280.6 607.84 276.36 607.84 271.13C607.84 265.9 603.6 261.66 598.37 261.66C593.14 261.66 588.9 265.9 588.9 271.13C588.9 276.36 593.14 280.6 598.37 280.6Z" fill="#FF7CAE"/>
<path d="M586.72 193.16H566.771V241.23H586.72V193.16Z" fill="#FF7CAE"/>
<path d="M566.66 168.31H586.83C598.42 168.31 607.83 177.72 607.83 189.31V201.61H545.66V189.31C545.66 177.72 555.07 168.31 566.66 168.31Z" fill="#FFF8EB"/>
<path d="M566.771 201.61V208.78L586.73 219.61V201.61H566.771Z" fill="#382C65"/>
<path d="M1293.51 241.23H1156.58V301.03H1293.51V241.23Z" fill="#FFAECD"/>
<path d="M1156.58 301.03V314.25C1162.76 314.25 1167.76 319.26 1167.76 325.43V392.14H1175.5L1180.35 324.63C1180.77 318.78 1185.64 314.25 1191.5 314.25H1258.59C1264.45 314.25 1269.32 318.78 1269.74 324.63L1274.59 392.14H1282.33V325.43C1282.33 319.25 1287.34 314.25 1293.51 314.25V301.03H1156.58Z" fill="#FF7CAE"/>
<path d="M1225.05 280.6C1230.28 280.6 1234.52 276.36 1234.52 271.13C1234.52 265.9 1230.28 261.66 1225.05 261.66C1219.82 261.66 1215.58 265.9 1215.58 271.13C1215.58 276.36 1219.82 280.6 1225.05 280.6Z" fill="#FF7CAE"/>
<path d="M1267.09 193.16H1247.14V241.23H1267.09V193.16Z" fill="#FF7CAE"/>
<path d="M1247.04 168.31H1267.21C1278.8 168.31 1288.21 177.72 1288.21 189.31V201.61H1226.04V189.31C1226.04 177.72 1235.45 168.31 1247.04 168.31Z" fill="#FFF8EB"/>
<path d="M1219.42 226.54H1182.57L1185.18 241.23H1222.03L1219.42 226.54Z" fill="#382C65"/>
<path d="M1222.2 204.1H1178.62C1175.94 204.1 1173.77 206.271 1173.77 208.95V229.03C1173.77 231.709 1175.94 233.88 1178.62 233.88H1222.2C1224.88 233.88 1227.05 231.709 1227.05 229.03V208.95C1227.05 206.271 1224.88 204.1 1222.2 204.1Z" fill="#FFF8EB"/>
<path d="M1191.63 208.86H1180.59C1180.04 208.86 1179.59 209.308 1179.59 209.86V220.9C1179.59 221.452 1180.04 221.9 1180.59 221.9H1191.63C1192.18 221.9 1192.63 221.452 1192.63 220.9V209.86C1192.63 209.308 1192.18 208.86 1191.63 208.86Z" fill="#FBC400"/>
<path d="M1222.94 208.86H1194.89C1194.34 208.86 1193.89 209.308 1193.89 209.86V220.9C1193.89 221.452 1194.34 221.9 1194.89 221.9H1222.94C1223.49 221.9 1223.94 221.452 1223.94 220.9V209.86C1223.94 209.308 1223.49 208.86 1222.94 208.86Z" fill="white"/>
<path d="M1193.89 217.29H1223.93" stroke="#FDB0CA" stroke-miterlimit="10"/>
<path d="M1198.89 215.15C1199.86 215.15 1200.64 214.367 1200.64 213.4C1200.64 212.434 1199.86 211.65 1198.89 211.65C1197.92 211.65 1197.14 212.434 1197.14 213.4C1197.14 214.367 1197.92 215.15 1198.89 215.15Z" fill="#FDD7E3"/>
<path d="M1205.57 215.15C1206.54 215.15 1207.32 214.367 1207.32 213.4C1207.32 212.434 1206.54 211.65 1205.57 211.65C1204.6 211.65 1203.82 212.434 1203.82 213.4C1203.82 214.367 1204.6 215.15 1205.57 215.15Z" fill="#FDB0CA"/>
<path d="M1212.25 215.15C1213.22 215.15 1214 214.367 1214 213.4C1214 212.434 1213.22 211.65 1212.25 211.65C1211.28 211.65 1210.5 212.434 1210.5 213.4C1210.5 214.367 1211.28 215.15 1212.25 215.15Z" fill="#FF7CAE"/>
<path d="M1218.93 215.15C1219.9 215.15 1220.68 214.367 1220.68 213.4C1220.68 212.434 1219.9 211.65 1218.93 211.65C1217.96 211.65 1217.18 212.434 1217.18 213.4C1217.18 214.367 1217.96 215.15 1218.93 215.15Z" fill="#382C65"/>
<path d="M1247.14 201.61V208.78L1267.1 219.61V201.61H1247.14Z" fill="#382C65"/>
<path d="M1335 377.56H0V464H1335V377.56Z" fill="#FFAECD"/>
<path d="M1188.16 392.59H642.16C626.597 392.59 613.98 405.207 613.98 420.77V420.78C613.98 436.343 626.597 448.96 642.16 448.96H1188.16C1203.72 448.96 1216.34 436.343 1216.34 420.78V420.77C1216.34 405.207 1203.72 392.59 1188.16 392.59Z" fill="#FF7CAE"/>
<path d="M679.21 178.2H666.83V349.03H679.21V178.2Z" fill="#382C65"/>
<path d="M1156.5 178.2H1144.12V349.03H1156.5V178.2Z" fill="#382C65"/>
<path d="M1156.58 290.76H666.83V350.56H1156.58V290.76Z" fill="#9E99B6"/>
<path d="M1156.58 349.03V378.93C1155.84 378.93 1155.11 378.98 1154.4 379.08C1146.45 380.14 1140.31 386.96 1140.31 395.2V441.67H1120.61L1114.3 414.9L1109.28 393.6C1107.43 385.79 1100.92 380.05 1093.11 379.08C1092.34 378.98 1091.55 378.93 1090.75 378.93H732.68C731.88 378.93 731.09 378.98 730.32 379.08C722.5 380.05 715.99 385.79 714.15 393.6L713.05 398.26L702.81 441.67H683.11V395.2C683.11 390.71 681.29 386.64 678.35 383.7C675.89 381.24 672.64 379.56 669.02 379.08C668.31 378.98 667.58 378.93 666.84 378.93V349.03H1156.58Z" fill="#382C65"/>
<path d="M1144.12 192.07H679.21V281.03H1144.12V192.07Z" fill="#675F8C"/>
<path d="M860.2 256.59C864.83 260.1 864.83 267.12 860.2 270.63C846.36 281.13 829.81 286.39 813.26 286.39C805.69 286.39 798.12 285.29 790.81 283.08C789.19 282.59 787.46 282.59 785.84 283.08C778.52 285.28 770.95 286.39 763.38 286.39C746.83 286.39 730.27 281.13 716.44 270.63C711.81 267.12 711.81 260.1 716.44 256.59C736.62 241.28 762.58 237.13 785.89 244.16C787.48 244.64 789.19 244.64 790.78 244.16C814.09 237.13 840.04 241.28 860.22 256.59H860.2Z" fill="#FFF8EB"/>
<path d="M1105.76 256.59C1110.39 260.1 1110.39 267.12 1105.76 270.63C1091.92 281.13 1075.37 286.39 1058.82 286.39C1051.25 286.39 1043.68 285.29 1036.37 283.08C1034.75 282.59 1033.02 282.59 1031.4 283.08C1024.08 285.28 1016.51 286.39 1008.94 286.39C992.39 286.39 975.83 281.13 962 270.63C957.37 267.12 957.37 260.1 962 256.59C982.18 241.28 1008.14 237.13 1031.45 244.16C1033.04 244.64 1034.75 244.64 1036.34 244.16C1059.65 237.13 1085.6 241.28 1105.78 256.59H1105.76Z" fill="#FFF8EB"/>
<path d="M661.74 297.42L651.07 331.71C649.45 336.9 653.33 342.17 658.77 342.17C663.23 342.17 666.84 338.56 666.84 334.1V305.07C666.84 297.16 673.25 290.75 681.16 290.75H1156.58V299.67C1156.58 306.29 1164.58 309.61 1169.26 304.92C1172.11 302.07 1172.17 297.48 1169.4 294.55L1166.71 291.72C1160.24 284.89 1151.25 281.03 1141.84 281.03H683.98C673.78 281.03 664.76 287.67 661.73 297.41L661.74 297.42Z" fill="#FDD7E3"/>
<path d="M1096.05 32.75H726.08V163.78H1096.05V32.75Z" fill="#382C65"/>
<path d="M978.36 116.23C997.022 116.23 1012.15 101.102 1012.15 82.44C1012.15 63.7783 997.022 48.65 978.36 48.65C959.699 48.65 944.57 63.7783 944.57 82.44C944.57 101.102 959.699 116.23 978.36 116.23Z" fill="#FFF8EB"/>
<path d="M920.359 120.99H1018.83C1035.44 120.99 1046.43 103.73 1039.4 88.68C1031.96 72.76 1010.04 70.96 1000.1 85.45L979.71 115.19L978.939 112.98C974.769 101.04 960.01 96.87 950.21 104.85L938.929 114.04C935.949 116.47 931.759 116.74 928.489 114.72L923.09 111.39C920.7 109.92 917.57 110.61 916.03 112.95C913.76 116.4 916.229 120.99 920.359 120.99Z" fill="#675F8C"/>
<path d="M1096.05 20.86H726.08V32.75H1096.05V20.86Z" fill="#FFAECD"/>
<path d="M1105.52 155.54H716.61V167.43H1105.52V155.54Z" fill="#FFAECD"/>
<path d="M876.67 130.22L877.61 132.87L880.14 131.67L878.94 134.2L881.59 135.14L878.94 136.09L880.14 138.62L877.61 137.42L876.67 140.06L875.72 137.42L873.19 138.62L874.39 136.09L871.75 135.14L874.39 134.2L873.19 131.67L875.72 132.87L876.67 130.22Z" fill="#FBC400"/>
<path d="M1071.99 116.38L1072.87 118.86L1075.25 117.73L1074.12 120.11L1076.6 120.99L1074.12 121.87L1075.25 124.25L1072.87 123.12L1071.99 125.6L1071.11 123.12L1068.73 124.25L1069.86 121.87L1067.38 120.99L1069.86 120.11L1068.73 117.73L1071.11 118.86L1071.99 116.38Z" fill="#FBC400"/>
<path d="M751.82 105.27L752.38 106.87L753.92 106.14L753.19 107.67L754.79 108.24L753.19 108.81L753.92 110.34L752.38 109.61L751.82 111.21L751.25 109.61L749.71 110.34L750.44 108.81L748.84 108.24L750.44 107.67L749.71 106.14L751.25 106.87L751.82 105.27Z" fill="#FBC400"/>
<path d="M852.82 50.2L853.88 53.19L856.74 51.83L855.38 54.69L858.37 55.75L855.38 56.81L856.74 59.67L853.88 58.31L852.82 61.3L851.75 58.31L848.89 59.67L850.25 56.81L847.27 55.75L850.25 54.69L848.89 51.83L851.75 53.19L852.82 50.2Z" fill="#FBC400"/>
<path d="M785.43 127.99V124.6H780.72V127.99C777.38 129 774.94 132.1 774.94 135.77V142.84C774.94 145.85 776.58 148.48 779.02 149.88V155.54H787.13V149.88C789.56 148.48 791.21 145.85 791.21 142.84V135.77C791.21 132.1 788.77 129 785.43 127.99Z" fill="#FFF8EB"/>
<path d="M783.68 150.1L780.05 89.35" stroke="#FD83AB" stroke-miterlimit="10"/>
<path d="M786.81 91.62C786.53 92.47 785.19 92.71 784.63 93.34C784.07 93.97 784 95.35 783.23 95.73C782.46 96.11 781.34 95.35 780.47 95.41C779.63 95.47 778.63 96.39 777.79 96.11C776.94 95.83 776.7 94.49 776.07 93.93C775.44 93.37 774.06 93.3 773.68 92.53C773.3 91.76 774.06 90.64 774 89.77C773.94 88.93 773.02 87.93 773.3 87.09C773.58 86.25 774.92 86 775.48 85.37C776.04 84.74 776.11 83.36 776.88 82.98C777.65 82.6 778.77 83.36 779.64 83.3C780.51 83.24 781.48 82.32 782.32 82.6C783.16 82.88 783.41 84.22 784.04 84.78C784.67 85.34 786.05 85.41 786.43 86.18C786.81 86.95 786.05 88.07 786.11 88.94C786.17 89.78 787.09 90.78 786.81 91.62Z" fill="#FDD7E3"/>
<path d="M780.05 91.65C781.32 91.65 782.35 90.6203 782.35 89.35C782.35 88.0798 781.32 87.05 780.05 87.05C778.78 87.05 777.75 88.0798 777.75 89.35C777.75 90.6203 778.78 91.65 780.05 91.65Z" fill="#FF7CAE"/>
<path d="M776.61 146.08L793.81 98.28" stroke="#FD83AB" stroke-miterlimit="10"/>
<path d="M799.131 103.03C798.531 103.7 797.211 103.39 796.451 103.75C795.661 104.13 795.071 105.35 794.221 105.4C793.361 105.45 792.641 104.31 791.811 104.02C790.981 103.73 789.731 104.2 789.071 103.6C788.401 103 788.711 101.68 788.351 100.92C787.991 100.16 786.751 99.54 786.701 98.69C786.651 97.83 787.791 97.11 788.081 96.28C788.361 95.48 787.901 94.2 788.501 93.54C789.101 92.87 790.421 93.18 791.181 92.82C791.941 92.46 792.561 91.22 793.411 91.17C794.271 91.12 794.991 92.26 795.821 92.55C796.651 92.84 797.901 92.37 798.561 92.97C799.221 93.57 798.921 94.89 799.281 95.65C799.661 96.44 800.881 97.03 800.931 97.88C800.981 98.74 799.841 99.46 799.551 100.29C799.271 101.09 799.731 102.37 799.131 103.03Z" fill="#FDD7E3"/>
<path d="M793.811 100.58C795.081 100.58 796.111 99.5502 796.111 98.28C796.111 97.0097 795.081 95.98 793.811 95.98C792.54 95.98 791.511 97.0097 791.511 98.28C791.511 99.5502 792.54 100.58 793.811 100.58Z" fill="#FF7CAE"/>
<path d="M783.08 105.71H784.47C786.97 105.71 789.01 107.74 789.01 110.25V111.64H787.62C785.12 111.64 783.08 109.61 783.08 107.1V105.71Z" fill="#FF7CAE"/>
<path d="M773.566 118.778L774.549 117.795C776.317 116.027 779.195 116.02 780.97 117.795L781.953 118.778L780.97 119.761C779.202 121.528 776.324 121.536 774.549 119.761L773.566 118.778Z" fill="#FF7CAE"/>
<path d="M786.045 120.983L786.477 119.662C787.254 117.286 789.818 115.978 792.203 116.758L793.524 117.19L793.092 118.511C792.315 120.887 789.752 122.195 787.366 121.415L786.045 120.983Z" fill="#FF7CAE"/>
<path d="M775.339 98.355C777.583 97.5932 780.018 98.7941 780.78 101.038C778.536 101.8 776.101 100.599 775.339 98.355Z" fill="#FF7CAE"/>
<path d="M730.32 379.08C722.5 380.05 715.99 385.79 714.15 393.6L713.049 398.26L683.109 397.01V395.2C683.109 390.71 681.289 386.64 678.349 383.7C675.889 381.24 672.64 379.56 669.02 379.08H730.32Z" fill="#313030"/>
<path d="M1154.39 379.08C1146.44 380.14 1140.3 386.96 1140.3 395.2V415.98L1114.29 414.9L1109.27 393.6C1107.42 385.79 1100.91 380.05 1093.1 379.08H1154.39Z" fill="#313030"/>
<path d="M885.91 441.67L886.41 439.23C886.73 437.65 887.64 436.24 888.95 435.29L889.92 434.59C891.23 433.64 891.82 431.97 891.39 430.41L888.51 419.9H898.09L905.86 441.67H885.92H885.91Z" fill="#FFF8EB"/>
<path d="M974.1 394.38C967.29 391.24 952.42 388.43 952.91 378.44C953.61 364.36 972.86 363.82 982.98 363.69C989.59 363.61 989.63 353.28 982.98 353.36C969.6 353.53 953.86 354.81 945.97 367.36C944.81 369.16 943.94 371.14 943.37 373.2C942.32 377.02 937.66 378.5 934.43 376.21L909.67 358.73L901.24 321.93L892.72 344.93L886.2 346.88L864.97 334.2L894.46 441.67H934.85C938.08 441.67 941.21 441.14 944.14 440.16C946.33 439.43 948.7 439.35 950.91 440.03C957.25 441.95 964.02 442.28 970.41 440.18C980.41 436.92 988.09 428.74 989.12 418.08C990.15 407.26 983.54 398.75 974.09 394.37L974.1 394.38ZM977.82 421.52C974.14 430.03 965.76 432.05 957.66 430.77C960.1 427.75 961.96 424.16 963.07 420.24C964.93 413.47 964.31 406.49 961.54 400.33C965.84 401.94 970.3 403.43 973.97 406.15C978.76 409.78 980.17 416.02 977.81 421.52H977.82Z" fill="#FFF8EB"/>
<path d="M874.41 353.34H878.06C881.02 353.34 883.42 355.74 883.42 358.7V362.35H879.77C876.81 362.35 874.41 359.95 874.41 356.99V353.34Z" fill="#FBC400"/>
<path d="M878.912 352.814L880.036 353.938C882.193 356.095 882.193 359.588 880.036 361.744L878.912 362.869L877.788 361.744C875.631 359.588 875.631 356.095 877.788 353.938L878.912 352.814Z" fill="#313030"/>
<path d="M900.03 358.76H896.38V355.11C896.38 352.15 898.78 349.75 901.74 349.75H905.39V353.4C905.39 356.36 902.99 358.76 900.03 358.76Z" fill="#FBC400"/>
<path d="M902.003 358.152L900.879 359.276L899.754 358.152C897.598 355.995 897.598 352.502 899.754 350.345L900.879 349.221L902.003 350.345C904.16 352.502 904.16 355.995 902.003 358.152Z" fill="#313030"/>
<path d="M894.4 366.42L891.29 364.3L893.29 361.24C893.59 360.78 893.19 360.18 892.64 360.29L890.19 360.8L887.74 361.31C887.2 361.42 887.06 362.13 887.53 362.44L890.59 364.44L888.85 367.36C888.71 367.6 888.79 367.9 889.02 368.05C889.1 368.1 889.19 368.12 889.28 368.12C889.45 368.12 889.62 368.03 889.71 367.88L891.17 365.43L893.83 367.24C894.06 367.4 894.37 367.34 894.52 367.11C894.67 366.88 894.62 366.57 894.39 366.42H894.4Z" fill="#FF7CAE"/>
<path d="M914.05 441.67C914.05 437.68 917.28 434.45 921.27 434.45H932.98C933.97 434.45 934.36 433.16 933.53 432.61L930.79 430.81C922.46 425.33 917.44 416.03 917.44 406.06V404.91C917.44 403.71 915.71 403.53 915.46 404.7L907.64 441.67H914.05Z" fill="#FDD7E3"/>
<path d="M893.09 441.67C893.09 438.61 895.57 436.14 898.62 436.14H899.65L893.08 405.31" stroke="#FD83AB" stroke-miterlimit="10"/>
</g>
</g>
<defs>
<clipPath id="clip0_1528_79340">
<rect width="1335" height="464" fill="white"/>
</clipPath>
</defs>
</svg>
