<svg width="1335" height="464" viewBox="0 0 1335 464" fill="none" xmlns="http://www.w3.org/2000/svg">
<g clip-path="url(#clip0_1528_80145)">
<rect width="1335" height="464" fill="#CDE6D0"/>
<mask id="mask0_1528_80145" style="mask-type:luminance" maskUnits="userSpaceOnUse" x="0" y="0" width="1335" height="464">
<path d="M1335 0H0V464H1335V0Z" fill="white"/>
</mask>
<g mask="url(#mask0_1528_80145)">
<path d="M1337.29 0H0.558594V464H1337.29V0Z" fill="#CDE6D0"/>
<path d="M448.939 375.786H-4.44818L-44.6001 432.659H408.787L448.939 375.786Z" fill="#A2CAA2"/>
<path d="M747.725 375.786H446.936L406.784 432.659H718.086L747.725 375.786Z" fill="#58AF67"/>
<path d="M1067.64 375.786H744.921L716.184 432.659H1027.49L1067.64 375.786Z" fill="#A2CAA2"/>
<path d="M1376.94 375.786H1065.64L1025.48 432.659H1336.79L1376.94 375.786Z" fill="#58AF67"/>
<path d="M1335.48 421.345H-40.4946V464H1335.48V421.345Z" fill="#4A974A"/>
<path d="M1007.26 426.451C1051.32 426.451 1086.96 390.805 1086.96 346.748C1086.96 302.691 1051.22 267.045 1007.26 267.045C963.203 267.045 927.557 302.691 927.557 346.748C927.557 390.805 963.303 426.451 1007.26 426.451Z" fill="#FFF8EB"/>
<path d="M1007.26 426.451C1051.32 426.451 1086.96 390.805 1086.96 346.748C1086.96 302.691 1051.22 267.045 1007.26 267.045C963.203 267.045 927.557 302.691 927.557 346.748C927.557 390.805 963.303 426.451 1007.26 426.451Z" fill="#FFF8EB"/>
<mask id="mask1_1528_80145" style="mask-type:alpha" maskUnits="userSpaceOnUse" x="927" y="267" width="160" height="160">
<path d="M1007.26 426.451C1051.32 426.451 1086.96 390.805 1086.96 346.748C1086.96 302.691 1051.22 267.045 1007.26 267.045C963.203 267.045 927.557 302.691 927.557 346.748C927.557 390.805 963.303 426.451 1007.26 426.451Z" fill="#FFF8EB"/>
</mask>
<g mask="url(#mask1_1528_80145)">
<path d="M1000.85 315.208L976.721 336.435L983.029 367.976L1013.47 378.289L1037.7 357.062L1031.39 325.521L1000.85 315.208Z" fill="#FFF8EB"/>
<path d="M1018.78 262.439L994.644 283.667L1000.95 315.208L1031.39 325.521L1055.62 304.293L1049.31 272.753L1018.78 262.439Z" fill="#313030"/>
<path d="M946.482 325.921L922.25 347.149L928.559 378.69L958.998 389.003L983.229 367.776L976.921 336.235L946.482 325.921Z" fill="#313030"/>
<path d="M1037.7 357.162L1013.57 378.389L1019.88 409.93L1050.32 420.243L1074.45 399.016L1068.14 367.475L1037.7 357.162Z" fill="#313030"/>
<path d="M1055.52 304.394L1031.39 325.621L1037.7 357.162L1068.14 367.475L1092.37 346.248L1086.06 314.707L1055.52 304.394Z" fill="#00ABFF"/>
<path d="M964.105 273.353L939.974 294.581L946.282 326.122L976.721 336.435L1000.85 315.208L994.544 283.667L964.105 273.353Z" fill="#00ABFF"/>
<path d="M983.229 367.776L959.098 389.003L965.406 420.544L995.846 430.857L1019.98 409.63L1013.67 378.089L983.229 367.776Z" fill="#00ABFF"/>
</g>
<path d="M1151.25 108.34L1071.64 159.406L1029.49 186.441L925.655 253.027C915.942 259.235 906.93 266.545 898.92 274.655C893.913 279.762 889.207 285.269 885.002 290.976C874.689 304.794 866.778 320.314 861.572 337.036L836.84 416.338C835.939 419.342 834.036 421.846 831.633 423.648C829.23 425.45 826.226 426.451 823.122 426.451C814.811 426.451 808.303 419.442 808.803 411.232L818.115 265.644C818.516 258.935 821.52 252.727 826.326 248.121L858.368 217.882L870.884 206.066L1012.37 72.4937L1041.1 45.3587L1036.9 32.7423L1025.88 0H1151.35L1162.86 51.8671L1166.87 69.8904C1170.37 84.7095 1164.06 100.029 1151.25 108.34Z" fill="#FF9F89"/>
<path d="M1007.26 0L961.801 48.0622L920.848 91.218L822.721 194.752L821.72 198.657C821.019 201.16 820.318 203.563 819.617 205.966C818.816 208.67 818.015 211.273 817.114 213.877C808.703 239.51 796.688 263.841 781.468 286.27L710.076 391.206L693.354 415.738C688.848 422.346 681.338 426.351 673.328 426.351H550.87C546.564 426.351 542.659 423.347 541.958 419.142C541.558 416.639 542.158 414.236 543.56 412.433C544.662 410.931 546.264 409.83 548.066 409.329L663.716 374.885L715.483 257.533L738.212 206.066L799.091 67.9879L800.292 65.1843L829.029 0.100129H1007.26V0Z" fill="#FF9F89"/>
<path d="M817.114 213.877C808.703 239.51 796.688 263.841 781.468 286.27L710.076 391.206L693.354 415.738C688.848 422.346 681.338 426.351 673.328 426.351H550.87C546.564 426.351 542.659 423.347 541.958 419.142C541.558 416.639 542.158 414.236 543.56 412.433C544.662 410.931 546.264 409.83 548.066 409.329L663.716 374.885L715.483 257.533L774.759 235.404L817.114 213.877Z" fill="#313030"/>
<path d="M821.32 280.463H812.308C810.706 280.463 809.304 279.161 809.304 277.459V274.455C809.304 273.354 809.905 272.452 810.806 271.852L821.32 265.744V280.463Z" fill="#49BBFF"/>
<path d="M820.919 304.894H811.907C810.305 304.894 808.903 303.593 808.903 301.89V298.887C808.903 297.785 809.504 296.884 810.405 296.283L820.919 290.175V304.894Z" fill="#49BBFF"/>
<path d="M818.817 339.539H809.805C808.203 339.539 806.801 338.237 806.801 336.535V333.531C806.801 332.43 807.402 331.529 808.303 330.928L818.817 324.82V339.539Z" fill="#49BBFF"/>
<path d="M818.817 361.267H809.805C808.203 361.267 806.801 359.965 806.801 358.263V355.259C806.801 354.158 807.402 353.257 808.303 352.656L818.817 346.548V361.267Z" fill="#49BBFF"/>
<path d="M818.817 383.095H809.805C808.203 383.095 806.801 381.794 806.801 380.092V377.088C806.801 375.986 807.402 375.085 808.303 374.484L818.817 368.376V383.095Z" fill="#49BBFF"/>
<path d="M818.817 405.625H809.805C808.203 405.625 806.801 404.323 806.801 402.621V399.617C806.801 398.515 807.402 397.614 808.303 397.013L818.817 390.906V405.625Z" fill="#49BBFF"/>
<path d="M898.92 274.655C893.913 279.762 889.207 285.269 885.002 290.976C874.689 304.794 866.778 320.314 861.572 337.036L836.84 416.338C835.939 419.342 834.036 421.846 831.633 423.648C829.23 425.45 826.226 426.451 823.122 426.451C814.811 426.451 808.303 419.442 808.803 411.232L818.115 265.643C818.516 258.935 821.52 252.727 826.326 248.121L858.368 217.882L870.884 206.066L898.92 274.655Z" fill="#313030"/>
<path d="M1163.06 51.8671L1037.1 32.8425L1151.45 0L1163.06 51.8671Z" fill="#762320"/>
<path d="M965.105 39.1506L961.801 48.0622L920.848 91.218L799.091 67.8878L791.581 66.486L800.392 65.0842L965.105 39.1506Z" fill="#762320"/>
<path d="M802.596 0.100128H1006.06L973.517 63.6824C972.615 65.3846 970.913 66.3859 969.111 66.3859H781.568C777.964 66.3859 775.561 62.6811 776.963 59.3768L802.596 0.100128Z" fill="#00ABFF"/>
<path d="M1187.89 13.0168L1021.48 34.8451V0.100128H1187.09C1195.1 0.100128 1195.9 12.0155 1187.89 13.0168Z" fill="#00ABFF"/>
<path d="M1071.64 159.406L1062.23 165.414L1051.82 172.123L1044.01 177.129L1039.4 180.033C1037.5 181.234 1035.8 182.736 1034.3 184.438C1030.99 188.243 1028.89 193.15 1028.39 198.256C1027.99 202.862 1026.38 207.068 1023.68 210.672C1021.08 214.177 1017.47 216.981 1013.17 218.683L925.555 253.027L884.902 290.976L874.789 284.868C864.175 278.46 860.37 264.842 866.078 253.728C868.08 249.823 869.082 245.618 869.082 241.412C869.082 236.005 867.479 230.698 864.275 226.092L858.468 217.782L966.107 116.15L974.818 107.839L981.427 101.631L990.238 93.3207L1012.47 72.2935L1071.64 159.406Z" fill="#FFF8EB"/>
<path d="M819.744 205.966C818.341 210.777 816.738 215.587 815.034 220.297C813.631 224.305 812.028 228.414 810.425 232.322C809.222 235.328 807.919 238.435 806.516 241.441C804.713 245.55 802.809 249.558 800.804 253.466C795.092 264.79 788.679 275.814 781.464 286.336L710.013 391.357H696.986C694.48 391.357 691.975 392.159 689.971 393.562C687.867 395.065 685.361 395.766 682.956 395.766C678.747 395.766 674.639 393.562 672.334 389.653L663.816 374.822L689.57 283.53C692.677 272.607 698.589 262.786 706.907 254.97C707.508 254.368 708.109 253.867 708.61 253.266C712.218 249.658 715.324 245.55 717.83 241.241C717.93 241.04 718.03 240.84 718.13 240.639L723.041 232.122L729.955 220.096L738.173 205.866H819.744V205.966Z" fill="#FFF8EB"/>
<path d="M815.512 405.024C815.512 405.024 874.088 403.221 901.724 354.058C901.624 354.058 889.308 436.164 815.512 405.024Z" fill="#008C31"/>
<path d="M1077.65 336.135L1107.39 290.976C1107.39 290.976 1116.3 327.323 1077.65 336.135Z" fill="#008C31"/>
<path d="M1137.23 366.975C1137.23 366.975 1142.53 336.435 1174.78 355.259L1137.23 366.975Z" fill="#4A974A"/>
<path d="M1077.65 251.325C1081.96 251.325 1085.36 247.82 1085.36 243.615C1085.36 239.309 1081.86 235.905 1077.65 235.905C1073.35 235.905 1069.94 239.41 1069.94 243.615C1069.84 247.921 1073.35 251.325 1077.65 251.325Z" fill="#4A974A"/>
<path d="M1117.8 350.553C1123.01 350.553 1127.21 346.348 1127.21 341.141C1127.21 335.934 1123.01 331.729 1117.8 331.729C1112.6 331.729 1108.39 335.934 1108.39 341.141C1108.29 346.348 1112.5 350.553 1117.8 350.553Z" fill="#A2CAA2"/>
<path d="M956.294 421.251H963.904H980.325H991.039C1006.06 421.251 1019.58 411.839 1024.78 397.721L1029.29 385.505C1029.89 383.803 1031.79 382.702 1033.49 383.102C1035.5 383.603 1036.6 385.806 1035.9 387.708L1031.29 400.124C1029.89 403.929 1027.99 407.434 1025.68 410.538C1022.48 414.943 1025.48 421.151 1030.89 421.151H1038.2C1055.22 421.151 1070.34 412.64 1082.46 400.625C1083.96 399.123 1086.66 399.223 1087.86 401.226C1088.77 402.627 1088.46 404.53 1087.26 405.731C1083.06 409.937 1078.45 413.541 1073.65 416.545C1071.54 417.847 1072.44 421.151 1074.95 421.151C1093.97 421.151 1112.2 413.642 1125.61 400.124L1141.63 384.103C1142.84 382.902 1144.84 382.601 1146.34 383.603C1148.14 384.904 1148.34 387.508 1146.74 389.01L1130.52 405.231C1115.8 419.95 1095.77 428.26 1074.95 428.26H956.194C954.091 428.26 952.389 426.358 952.689 424.155C952.99 422.453 954.592 421.251 956.294 421.251Z" fill="#4A974A"/>
<path d="M892.311 284.167L898.82 297.084C900.622 300.689 899.921 305.095 897.118 307.998L858.668 346.648C858.568 346.648 866.378 299.087 892.311 284.167Z" fill="#A5D9EC"/>
<path d="M810 391.006C810 391.006 857.061 324.52 816.809 284.167L810 391.006Z" fill="#49BBFF"/>
<path d="M568.493 426.451C568.493 426.451 684.043 401.619 659.21 426.451H568.493Z" fill="#49BBFF"/>
<path d="M663.816 374.785V404.123L600.935 393.509C600.935 393.509 653.603 364.571 663.816 374.785Z" fill="#A5D9EC"/>
<path d="M815.1 220.285C813.692 224.299 812.084 228.413 810.475 232.327H722.9L729.838 220.285H815.1Z" fill="#49BBFF"/>
<path d="M806.6 241.412C804.793 245.529 802.885 249.545 800.877 253.461H708.5C712.115 249.847 715.227 245.73 717.738 241.412H806.6Z" fill="#49BBFF"/>
<path d="M1062.23 165.414L1051.82 172.123L981.526 101.832L990.338 93.521L1062.23 165.414Z" fill="#49BBFF"/>
<path d="M1044.11 177.029L1039.5 179.933C1037.6 181.134 1035.9 182.636 1034.4 184.338L966.207 116.15L974.918 107.839L1044.11 177.029Z" fill="#49BBFF"/>
<path d="M1417.09 138.98H1363.12C1343.39 138.98 1325.67 151.296 1318.96 169.92C1315.26 180.033 1305.75 186.641 1295.03 186.641H1233.75C1224.64 186.641 1215.73 189.545 1208.22 194.852L1190.8 207.368C1184.59 211.774 1177.18 214.177 1169.47 214.177H1157.75C1152.85 214.177 1148.84 218.182 1148.84 223.088C1148.84 227.995 1152.85 232 1157.75 232H1416.99V138.98H1417.09Z" fill="#FFF8EB"/>
<path d="M310.659 354.859H513.121C516.926 354.859 517.527 349.452 513.822 348.551L478.677 340.641C471.067 338.938 464.659 333.631 461.755 326.322C458.05 317.31 449.339 311.403 439.626 311.403H390.162C382.653 311.403 375.543 314.907 371.038 320.915L361.926 332.931C357.32 339.038 350.01 342.643 342.4 342.643H310.76C307.455 342.643 304.752 345.347 304.752 348.651C304.552 352.155 307.355 354.859 310.659 354.859Z" fill="#FFF8EB"/>
</g>
</g>
<defs>
<clipPath id="clip0_1528_80145">
<rect width="1335" height="464" fill="white"/>
</clipPath>
</defs>
</svg>
