<svg width="1335" height="464" viewBox="0 0 1335 464" fill="none" xmlns="http://www.w3.org/2000/svg">
<g clip-path="url(#clip0_1528_81074)">
<rect width="1335" height="464" fill="#D8ECF5"/>
<mask id="mask0_1528_81074" style="mask-type:luminance" maskUnits="userSpaceOnUse" x="0" y="0" width="1335" height="464">
<path d="M1335 0H0V464H1335V0Z" fill="white"/>
</mask>
<g mask="url(#mask0_1528_81074)">
<path d="M1335 0H0.000488281V464H1335V0Z" fill="#D8ECF5"/>
<path d="M1275.04 464C1234.49 441.42 1189.36 428.29 1143.02 425.59L1088 422.38L1057.82 326.82L1124.66 223.31L1238.81 272.32L1263.45 302.18L1281.37 296.21L1267.29 258.65C1264.9 252.29 1259.42 247.59 1252.77 246.2L1245.54 244.69L1131.57 171.76C1120.79 164.86 1106.83 165.59 1096.82 173.56L967.59 276.58C951.95 289.05 938.79 304.35 928.79 321.67L921.87 333.66C921.45 334.39 921.02 335.11 920.58 335.82C911.26 350.88 896.9 362.15 880.3 368.33L748.82 417.31L1275.04 463.98V464Z" fill="#FFB497"/>
<path d="M1124.47 411.46L1098.42 420.44L1074.85 428.56L1066 431.61L1048.7 381.36L1073.42 376L1092.64 371.83L1109.56 368.15L1124.47 411.46Z" fill="#FFB497"/>
<path d="M1098.42 420.44L1077.41 427.68L1073.42 376L1092.64 371.83L1098.42 420.44Z" fill="#FF9473"/>
<path d="M1126.48 346.95C1125.71 344.7 1122.89 343.97 1121.11 345.55L1110.8 354.74C1110.43 355.07 1110.29 355.59 1110.46 356.06C1110.7 356.75 1111.47 357.08 1112.13 356.78L1124.71 351.06C1126.27 350.35 1127.04 348.57 1126.48 346.94V346.95Z" fill="#FF9473"/>
<path d="M1150.84 417.7C1151.61 419.95 1149.85 422.26 1147.47 422.11L1133.69 421.21C1133.19 421.18 1132.77 420.85 1132.61 420.38C1132.37 419.69 1132.78 418.95 1133.49 418.78L1146.92 415.54C1148.59 415.14 1150.29 416.07 1150.85 417.69L1150.84 417.7Z" fill="#FF9473"/>
<path d="M1167.47 410.71L1155.54 414.82L1131.97 346.38L1143.9 342.27C1158.37 337.29 1173.83 342 1183.21 352.96C1186.09 356.32 1188.39 360.27 1189.92 364.71C1191.45 369.15 1192.07 373.69 1191.86 378.1C1191.64 383.1 1190.39 387.95 1188.24 392.36C1184.16 400.68 1176.93 407.46 1167.48 410.72L1167.47 410.71Z" fill="#F26533"/>
<path d="M1095.25 429.37L1075.51 372.04L1131.97 346.38L1155.54 414.82L1095.25 429.37Z" fill="#FFB497"/>
<path d="M1117.63 398.674L1116.23 401.55L1113.35 400.147C1107.28 397.184 1104.75 389.843 1107.71 383.767L1109.11 380.891L1111.99 382.294C1118.07 385.257 1120.59 392.598 1117.63 398.674Z" fill="#FF9473"/>
<path d="M1121.51 385.3C1122.97 384.8 1125.7 385.18 1126.21 386.65C1126.71 388.11 1124.8 390.1 1123.34 390.6L1121.51 385.3Z" fill="#FF9473"/>
<path d="M1131.92 381.547C1137.9 379.487 1140.54 371.378 1137.8 363.435C1135.07 355.492 1128 350.724 1122.02 352.785C1116.03 354.845 1113.4 362.954 1116.13 370.897C1118.87 378.84 1125.94 383.608 1131.92 381.547Z" fill="#313030"/>
<path d="M1130.37 377.047C1134.48 375.632 1136.29 370.061 1134.41 364.604C1132.53 359.147 1127.67 355.87 1123.57 357.285C1119.46 358.7 1117.65 364.271 1119.53 369.728C1121.41 375.185 1126.26 378.462 1130.37 377.047Z" fill="#B1D9EB"/>
<path d="M1143.81 416.085C1149.8 414.024 1152.43 405.915 1149.7 397.973C1146.96 390.03 1139.89 385.262 1133.91 387.322C1127.93 389.383 1125.29 397.492 1128.03 405.435C1130.76 413.377 1137.83 418.146 1143.81 416.085Z" fill="#313030"/>
<path d="M1142.26 411.584C1146.37 410.169 1148.18 404.598 1146.3 399.141C1144.42 393.685 1139.57 390.408 1135.46 391.823C1131.35 393.238 1129.54 398.809 1131.42 404.266C1133.3 409.723 1138.15 412.999 1142.26 411.584Z" fill="#B1D9EB"/>
<path d="M1136.76 386.724L1135.79 388.72L1133.79 387.746C1131.26 386.515 1130.21 383.462 1131.44 380.927L1132.41 378.932L1134.41 379.905C1136.94 381.137 1137.99 384.19 1136.76 386.724Z" fill="#313030"/>
<path d="M1125.49 354.049L1124.52 356.044L1122.52 355.071C1120 353.839 1118.94 350.786 1120.18 348.251L1121.15 346.256L1123.14 347.229C1125.67 348.461 1126.73 351.514 1125.49 354.049Z" fill="#313030"/>
<path d="M1148.01 419.404L1147.04 421.4L1145.04 420.426C1142.52 419.195 1141.46 416.142 1142.69 413.607L1143.67 411.612L1145.66 412.585C1148.19 413.817 1149.25 416.87 1148.01 419.404Z" fill="#313030"/>
<path d="M1115.46 397.38L1115.2 396.62C1114.68 395.11 1114.81 393.51 1115.24 391.98C1115.38 391.49 1115.37 390.96 1115.2 390.44C1115.03 389.92 1114.7 389.5 1114.29 389.2C1113.01 388.26 1111.92 387.07 1111.4 385.56L1111.14 384.8C1111.03 384.49 1110.7 384.33 1110.39 384.44C1110.08 384.55 1109.92 384.88 1110.03 385.19L1110.29 385.95C1110.81 387.46 1110.69 389.06 1110.25 390.59C1110.11 391.08 1110.12 391.61 1110.29 392.13C1110.46 392.65 1110.79 393.07 1111.2 393.37C1112.48 394.31 1113.57 395.5 1114.09 397.01L1114.35 397.77C1114.46 398.08 1114.79 398.24 1115.1 398.13C1115.41 398.02 1115.57 397.69 1115.46 397.38Z" fill="#313030"/>
<path d="M1191.85 378.1C1186.43 379.66 1180.44 379.29 1174.99 376.63L1166.84 372.66L1170.81 364.5C1173.47 359.04 1177.97 355.07 1183.21 352.97C1186.09 356.33 1188.39 360.28 1189.92 364.72C1191.45 369.16 1192.07 373.7 1191.86 378.11L1191.85 378.1Z" fill="#F78967"/>
<path d="M948.92 387.71C952.399 387.71 955.22 384.889 955.22 381.41C955.22 377.931 952.399 375.11 948.92 375.11C945.441 375.11 942.62 377.931 942.62 381.41C942.62 384.889 945.441 387.71 948.92 387.71Z" fill="#FF9473"/>
<path d="M902.4 387.71L945.96 422.11" stroke="#FF9473" stroke-width="2" stroke-miterlimit="10"/>
<path d="M998.56 311.41L1057.83 326.82L1051.85 308.23" stroke="#FF9473" stroke-width="2" stroke-miterlimit="10"/>
<path d="M1290.04 464H553.68L637.73 409.13C688.12 376.24 751.04 368.93 807.62 389.41L867.13 410.95C881.34 416.09 896.57 417.79 911.56 415.91L937.42 412.67C949.19 411.19 961.13 411.92 972.63 414.81L1096.38 445.93C1105.41 448.2 1114.71 449.28 1124.02 449.14C1172 448.4 1219.95 452.07 1267.25 460.12L1290.04 464Z" fill="#FEF8EC"/>
<path d="M381.76 231.04L385.61 221.33C410.4 158.87 483.35 131.05 543.43 161.14L603.32 191.13C622.42 200.7 645.61 195.59 658.93 178.88L665.26 170.95C680.81 151.45 709.44 148.74 728.37 164.97L745.27 179.46C756.19 188.82 771.96 189.91 784.06 182.14C802.69 170.18 826.82 171.23 844.34 184.76L904.26 231.03H381.76V231.04Z" fill="#FEF8EC"/>
<path d="M151.37 231.04L155.22 240.75C180.01 303.21 252.96 331.03 313.04 300.94L372.93 270.95C392.03 261.38 415.22 266.49 428.54 283.2L434.87 291.13C450.42 310.63 479.05 313.34 497.98 297.11L514.88 282.62C525.8 273.26 541.57 272.17 553.67 279.94C572.3 291.9 596.43 290.85 613.95 277.32L673.87 231.05H151.37V231.04Z" fill="#B1D9EB"/>
<path d="M902.4 231.04L710.89 176.72L721 145.12C724.15 135.28 732.03 127.69 741.98 124.91L754.97 121.28C764.09 118.73 769.93 109.83 768.62 100.44L765.27 76.44L773.98 71.48C776.6 69.99 776.4 66.15 773.64 64.94L760.09 59C755.67 57.06 751.59 54.42 748.01 51.19L732.55 37.19C717.11 24.91 695.36 24.48 679.45 36.14C655.77 53.49 655.54 88.77 679 106.42L686.16 111.81C595.98 176.73 509.52 231.04 509.52 231.04H902.42H902.4Z" fill="#D89671"/>
<path d="M636.67 146.7C636.67 146.7 627.99 111.81 686.14 111.81L681.73 110.11C661.73 102.42 650.17 81.45 654.34 60.43C658.34 40.28 675.74 25.57 696.28 24.98L739.21 23.76V101.24L729.3 70.81L709.47 109.5L706.24 84.77C706.21 84.54 705.88 84.54 705.87 84.77C705.15 94.23 705.95 146.68 636.67 146.68V146.7Z" fill="#77351E"/>
<path d="M599.18 172.31C585.68 191.82 597.16 218.73 620.59 222.49L673.87 231.04H509.5L599.18 172.31Z" fill="#313030"/>
<path d="M684 169.18L710.88 176.81L714.43 165.62L684 169.18Z" fill="#77351E"/>
<path d="M766.32 84.03L753.29 89.71C753.29 89.71 760.55 94.08 767.64 93.5L766.32 84.03Z" fill="#9E4D2A"/>
<path d="M753.29 89.71L766.94 88.45L766.32 84.03L753.29 89.71Z" fill="#C6734A"/>
<path d="M109.44 231.04H917.25" stroke="#A2D3FB" stroke-width="2" stroke-miterlimit="10"/>
<path d="M215.19 427.68H458.34" stroke="white" stroke-width="2" stroke-miterlimit="10"/>
<path d="M749 69.52L744.96 70.5C745.87 66.81 750.55 65.68 753.04 68.54L749 69.52Z" fill="#313030"/>
<path d="M236 381.83C186.98 381.83 186.98 361.83 137.96 361.83C88.94 361.83 88.94 381.83 39.92 381.83C-9.09999 381.83 -9.09999 361.83 -58.13 361.83C-107.16 361.83 -107.16 381.83 -156.18 381.83C-205.21 381.83 -205.21 361.83 -254.23 361.83" stroke="#45A8F8" stroke-width="2" stroke-miterlimit="10"/>
<path d="M1407.04 149.83C1358.02 149.83 1358.02 129.83 1309 129.83C1259.98 129.83 1259.98 149.83 1210.96 149.83C1161.94 149.83 1161.94 129.83 1112.91 129.83C1063.88 129.83 1063.88 149.83 1014.86 149.83C965.83 149.83 965.83 129.83 916.81 129.83" stroke="#45A8F8" stroke-width="2" stroke-miterlimit="10"/>
<path fill-rule="evenodd" clip-rule="evenodd" d="M167.29 71.4869C134.362 66.4916 101.458 61.5 35.6201 61.5V59.5C101.604 59.5 134.616 64.5072 167.601 69.5113L167.609 69.5125C200.538 74.508 233.444 79.5 299.29 79.5C365.135 79.5 398.038 74.5082 430.965 69.5128L430.975 69.5113C463.96 64.5072 496.971 59.5 562.96 59.5V61.5C497.116 61.5 464.212 66.4918 431.285 71.4872L431.275 71.4887C398.291 76.4928 365.279 81.5 299.29 81.5C233.301 81.5 200.287 76.4928 167.301 71.4887L167.29 71.4869Z" fill="#45A8F8"/>
<path d="M118.01 295.95C124.52 293.7 129.06 287.22 128.33 279.8C127.63 272.64 121.87 266.8 114.72 266.01C105.4 264.98 97.5198 272.25 97.5198 281.35C97.5198 285.63 99.2698 289.5 102.09 292.29C102.58 292.77 102.15 293.59 101.48 293.47L56.0898 285.35V311.07C56.0898 325.36 67.6698 336.95 81.9698 336.95H108.76C120.31 336.95 129.68 327.58 129.68 316.03C129.68 307.87 124.97 300.66 117.93 297.23C117.36 296.95 117.42 296.15 118.02 295.95H118.01Z" fill="#F3C73A"/>
<path d="M105.81 325.41C91.5202 325.41 79.9302 313.83 79.9302 299.53" stroke="#FF6633" stroke-miterlimit="10"/>
<path d="M90.0001 325.41C75.7101 325.41 64.1201 313.83 64.1201 299.53" stroke="#FF6633" stroke-miterlimit="10"/>
<path d="M112.96 286.75C115.942 286.75 118.36 284.332 118.36 281.35C118.36 278.368 115.942 275.95 112.96 275.95C109.978 275.95 107.56 278.368 107.56 281.35C107.56 284.332 109.978 286.75 112.96 286.75Z" fill="#F26533"/>
<path d="M112.96 285.17C115.07 285.17 116.78 283.46 116.78 281.35C116.78 279.24 115.07 277.53 112.96 277.53C110.85 277.53 109.14 279.24 109.14 281.35C109.14 283.46 110.85 285.17 112.96 285.17Z" fill="#353231"/>
<path d="M128.16 278.62L135.05 280.02C135.95 280.2 136.19 281.38 135.44 281.9L127.05 287.69L128.16 278.62Z" fill="#F26533"/>
<path d="M862.37 84.03H1105.52" stroke="white" stroke-width="2" stroke-miterlimit="10"/>
</g>
</g>
<defs>
<clipPath id="clip0_1528_81074">
<rect width="1335" height="464" fill="white"/>
</clipPath>
</defs>
</svg>
