<svg width="1335" height="464" viewBox="0 0 1335 464" fill="none" xmlns="http://www.w3.org/2000/svg">
<g clip-path="url(#clip0_1528_84215)">
<rect width="1335" height="464" fill="#8AC38B"/>
<mask id="mask0_1528_84215" style="mask-type:luminance" maskUnits="userSpaceOnUse" x="0" y="0" width="1335" height="464">
<path d="M1335 0H0V464H1335V0Z" fill="white"/>
</mask>
<g mask="url(#mask0_1528_84215)">
<path d="M1335 0H0V464H1335V0Z" fill="#8AC38B"/>
<path d="M35.3599 83.0701H70.6699C109.59 83.0701 141.19 114.67 141.19 153.59V188.9H105.88C66.9599 188.9 35.3599 157.3 35.3599 118.38V83.0701Z" fill="#F2BF43"/>
<path d="M565.435 522.905L539.573 498.865C511.067 472.366 509.437 427.706 535.936 399.201L559.977 373.339L585.839 397.379C614.345 423.878 615.974 468.537 589.476 497.043L565.435 522.905Z" fill="#F2BF43"/>
<path d="M392.71 426.43V461.74C392.71 500.66 361.11 532.26 322.19 532.26H286.88V496.95C286.88 458.03 318.48 426.43 357.4 426.43H392.71Z" fill="#EC5E3A"/>
<path d="M1226.7 494.433C1219.6 456.166 1244.91 419.332 1283.17 412.233C1290.27 450.5 1264.97 487.334 1226.7 494.433Z" fill="#F2BF43"/>
<path d="M653.731 74.3997C686.737 53.7752 730.281 63.8281 750.906 96.8341C717.9 117.459 674.356 107.406 653.731 74.3997Z" fill="#F2BF43"/>
<path d="M377.806 147.353C370.707 109.086 396.013 72.2523 434.28 65.153C441.379 103.42 416.073 140.254 377.806 147.353Z" fill="#46A646"/>
<path d="M183.22 404.92L180.12 399.13L215.9 409.94C240.85 417.48 262.46 391.08 250.15 368.11L269.17 368.42C303.15 368.97 331.84 343.3 335.06 309.47L339.79 259.84L295.84 236.31C265.88 220.27 228.63 229.95 210.27 258.55L199.99 274.56C187.67 251.59 153.73 254.97 146.19 279.92L135.38 315.7L132.28 309.91C119.12 285.36 82.3498 291.35 77.6498 318.8L62.2998 408.57L145.56 445.48C171.02 456.77 196.37 429.46 183.21 404.91L183.22 404.92Z" fill="#82882E"/>
<path fill-rule="evenodd" clip-rule="evenodd" d="M319.892 271.641L46.8223 418.021L45.8774 416.259L318.947 269.879L319.892 271.641Z" fill="#4C510F"/>
<path d="M1128.9 -61.57L1134.59 -58.3L1098.52 -48.54C1073.36 -41.73 1068.99 -7.90001 1091.6 5.07999L1075.3 14.89C1046.18 32.41 1035.42 69.37 1050.59 99.78L1072.84 144.39L1122.58 141.1C1156.49 138.86 1182.97 110.92 1183.41 76.94L1183.66 57.92C1206.27 70.9 1233.28 50.06 1226.47 24.9L1216.71 -11.17L1222.4 -7.90002C1246.56 5.96999 1274.59 -18.57 1264.05 -44.35L1229.57 -128.64L1139.39 -115.9C1111.81 -112 1104.76 -75.42 1128.92 -61.55L1128.9 -61.57Z" fill="#82882E"/>
<path fill-rule="evenodd" clip-rule="evenodd" d="M1083.47 123.842L1237.71 -144.878L1239.45 -143.882L1085.21 124.838L1083.47 123.842Z" fill="#4C510F"/>
<path d="M1313.44 267.22L1310.21 270.76L1308.97 243.54C1308.11 224.55 1284.72 216.09 1271.9 230.12L1267.5 216.96C1259.65 193.46 1235.04 179.95 1211 185.93L1175.73 194.7L1170.19 230.62C1166.42 255.11 1182.1 278.38 1206.22 284.08L1219.72 287.27C1206.9 301.31 1217.45 323.83 1236.44 322.97L1263.66 321.73L1260.43 325.27C1246.74 340.27 1259.76 364.11 1279.78 360.68L1345.23 349.49L1350.45 283.29C1352.05 263.04 1327.12 252.23 1313.43 267.23L1313.44 267.22Z" fill="#46A646"/>
<path fill-rule="evenodd" clip-rule="evenodd" d="M1188.85 205.322L1355.67 357.652L1354.33 359.129L1187.51 206.799L1188.85 205.322Z" fill="#4C510F"/>
<path d="M270.3 77.55L265.74 76.11L289.92 63.55C306.79 54.79 304.64 30.01 286.52 24.28L296.61 14.76C314.63 -2.23999 316.55 -30.25 301.02 -49.55L278.24 -77.87L243.32 -67.8C219.51 -60.93 204.99 -36.92 209.96 -12.64L212.74 0.950005C194.62 -4.78 178.61 14.26 187.38 31.13L199.94 55.31L195.38 53.87C176.02 47.75 159.86 69.59 171.38 86.31L209.05 141L271.31 117.91C290.35 110.85 289.69 83.69 270.32 77.57L270.3 77.55Z" fill="#97523C"/>
<path fill-rule="evenodd" clip-rule="evenodd" d="M274.113 -61.5185L205.993 153.881L204.086 153.278L272.206 -62.1216L274.113 -61.5185Z" fill="#793625"/>
<path d="M591.79 188.94L594.63 192.8L567.69 188.7C548.9 185.84 536.03 207.13 547.3 222.43L533.54 224.18C508.96 227.3 490.9 248.79 492.07 273.54L493.79 309.85L527.94 322.29C551.22 330.77 577.11 319.93 587.4 297.39L593.16 284.77C604.42 300.08 628.57 294.13 631.43 275.34L635.53 248.4L638.37 252.26C650.41 268.62 676.33 260.5 676.88 240.19L678.68 173.81L614.77 155.77C595.22 150.25 579.76 172.59 591.79 188.94Z" fill="#97523C"/>
<path fill-rule="evenodd" clip-rule="evenodd" d="M506.767 299.045L688.727 165.165L689.912 166.775L507.952 300.655L506.767 299.045Z" fill="#793625"/>
<path d="M1195.41 442.4H934.71L924.41 437.2L920.91 435.4H920.81L908.91 429.3L904.21 426.9L890.21 419.8L885.41 417.3L864.71 406.9L854.11 401.5L833.91 391.2L807.91 378L790.41 369.1L783.71 365.7L749.51 348.3L702.31 324.3C710.31 308.5 719.81 293.9 730.71 280.3C730.643 280.233 730.643 280.167 730.71 280.1C742.91 264.7 756.81 250.9 772.01 238.8C788.81 225.3 807.21 214.1 826.81 205.2H826.91C850.91 194.2 876.61 186.9 903.31 183.6C913.61 182.3 924.11 181.7 934.71 181.7C940.41 181.7 946.01 181.9 951.51 182.3C978.41 184 1004.21 189.9 1028.31 199.3C1043.71 205.3 1058.41 212.7 1072.21 221.5C1094.61 235.4 1114.71 252.8 1131.91 272.7C1148.51 291.9 1162.41 313.5 1172.81 336.9V337C1178.21 348.9 1182.71 361.4 1186.21 374.2V374.3C1192.21 396 1195.41 418.9 1195.41 442.4Z" fill="#97523C"/>
<path d="M944.31 384L924.41 437.2L920.91 435.4H920.81L908.91 429.3L904.21 426.9L944.31 384Z" fill="#423030"/>
<path d="M960.51 442.4H937.11L944.31 384L960.51 442.4Z" fill="#423030"/>
<path d="M1017.61 442.4H976.61L944.31 384L1017.61 442.4Z" fill="#423030"/>
<path d="M1104.21 423.2C1102.61 429.7 1098.91 435 1093.91 438.5C1091.61 440.2 1089.11 441.5 1086.41 442.4C1081.21 444.1 1075.41 444.2 1069.91 442.4C1068.81 442.1 1067.81 441.7 1066.71 441.2L944.31 384L1079.31 390C1088.31 390.4 1095.91 395.1 1100.41 401.9C1104.41 407.9 1106.11 415.5 1104.21 423.2Z" fill="#423030"/>
<path d="M1056.96 309.5L944.3 384.04L1076.92 358.34C1093.58 355.11 1103.12 337.46 1096.7 321.75C1090.28 306.05 1071.1 300.13 1056.95 309.49L1056.96 309.5Z" fill="#121831"/>
<path d="M1030.99 244.07C1016.57 235.14 997.58 241.62 991.63 257.51L944.3 384.04L1036.49 285.29C1048.07 272.89 1045.41 253 1030.99 244.06V244.07Z" fill="#121831"/>
<path d="M932.16 219.85C915.24 221.1 903.69 237.51 908.22 253.86L944.3 384.04L960.84 249.97C962.92 233.13 949.08 218.6 932.16 219.85Z" fill="#121831"/>
<path d="M837.97 258.35C825.02 269.31 825.32 289.37 838.6 299.94L944.31 384.05L878.88 265.86C870.66 251.02 850.93 247.39 837.97 258.35Z" fill="#121831"/>
<path d="M944.31 384L809.31 378.1C808.81 378.1 808.41 378 807.91 378C800.81 377.3 794.71 374 790.41 369.1C789.51 368.2 788.81 367.2 788.21 366.2C784.11 360.2 782.51 352.6 784.41 344.9C786.01 338.4 789.71 333.1 794.71 329.6C802.31 324 812.61 322.5 821.91 326.9L944.31 384Z" fill="#423030"/>
<path d="M944.31 384L890.21 419.8L885.41 417.3L864.71 406.9L854.11 401.5L944.31 384Z" fill="#423030"/>
<path d="M944.31 384L908.91 429.3L904.21 426.9L890.21 419.8L885.41 417.3L944.31 384Z" fill="#333144"/>
<path d="M944.31 384L942.31 442.4H934.71L924.41 437.2L920.91 435.4L944.31 384Z" fill="#333144"/>
<path d="M983.71 442.4H956.11L944.31 384L983.71 442.4Z" fill="#333144"/>
<path d="M1104.61 442.4H1086.41C1081.21 444.1 1075.41 444.2 1069.91 442.4H1007.91L944.31 384L1093.91 438.5L1104.61 442.4Z" fill="#333144"/>
<path d="M1136.17 329.04L944.31 384.05L1142.61 406.74C1167.52 409.59 1188.81 388.95 1186.74 363.97C1184.67 338.99 1160.27 322.14 1136.18 329.05L1136.17 329.04Z" fill="#793625"/>
<path d="M1128.62 225.31C1112.26 206.32 1082.62 207.02 1067.19 226.77L944.3 384.05L1118.06 285.85C1139.88 273.52 1144.98 244.31 1128.62 225.31Z" fill="#793625"/>
<path d="M1000.12 147.28C975.72 141.53 952.16 159.52 951.28 184.57L944.3 384.04L1027.15 202.46C1037.56 179.65 1024.51 153.03 1000.11 147.28H1000.12Z" fill="#793625"/>
<path d="M850.29 159.69C827.17 169.38 818.69 197.79 832.7 218.57L944.3 384.05L904.6 188.45C899.61 163.88 873.41 150.01 850.29 159.7V159.69Z" fill="#793625"/>
<path d="M736.37 257.8C723.36 279.23 733.19 307.2 756.75 315.77L944.3 384.04L797.21 249.13C778.74 232.19 749.38 236.37 736.37 257.79V257.8Z" fill="#793625"/>
<path fill-rule="evenodd" clip-rule="evenodd" d="M944.024 383.089L1135.89 328.079L1136.45 330.001L944.576 385.011L944.024 383.089Z" fill="#121831"/>
<path fill-rule="evenodd" clip-rule="evenodd" d="M943.512 383.434L1066.4 226.154L1067.98 227.386L945.088 384.666L943.512 383.434Z" fill="#121831"/>
<path fill-rule="evenodd" clip-rule="evenodd" d="M943.3 384.015L950.28 184.545L952.279 184.615L945.299 384.085L943.3 384.015Z" fill="#121831"/>
<path fill-rule="evenodd" clip-rule="evenodd" d="M905.58 188.241L945.28 383.851L943.32 384.249L903.62 188.639L905.58 188.241Z" fill="#121831"/>
<path fill-rule="evenodd" clip-rule="evenodd" d="M797.886 248.403L944.976 383.313L943.624 384.787L796.534 249.877L797.886 248.403Z" fill="#121831"/>
<path d="M944.31 384L864.71 406.9L854.11 401.5L833.91 391.2L807.91 378C800.81 377.3 794.71 374 790.41 369.1L783.71 365.7L788.21 366.2L944.31 384Z" fill="#333144"/>
<path d="M1116.91 442.4H1023.91C1022.71 438.1 1022.21 433.6 1022.21 429.2C1013.31 427.8 1004.61 423.8 997.41 417.2C991.01 411.3 986.81 404 984.31 396.2C975.31 397.6 965.81 396.5 956.91 392.4C949.01 388.8 942.71 383.2 938.01 376.6C929.91 380.6 920.51 382.5 910.81 381.4C902.21 380.4 894.41 377 887.91 372.2C881.41 378.6 873.11 383.2 863.51 385.2C855.01 386.9 846.61 386 838.91 383.5C837.51 386.2 835.81 388.8 833.91 391.2L749.51 348.3C752.81 336.3 760.61 325.5 772.31 319C782.63 313.17 794.13 311.64 804.91 313.72C808.78 314.46 812.65 312.69 814.93 309.48C821.75 299.89 831.98 292.72 844.51 290.3C856.67 287.85 868.68 290.3 878.6 296.18C881.1 297.66 884.13 297.44 886.39 295.61C896.05 287.81 908.68 283.7 922.01 285.2C933.58 286.6 943.67 292.03 951.17 299.85C954.01 302.81 958.26 303.93 962.15 302.63C973.29 298.9 985.79 299.14 997.31 304.4C1008.44 309.58 1016.59 318.4 1021.19 328.82C1022.43 331.64 1025.33 333.52 1028.41 333.39C1040.75 332.86 1053.22 336.91 1063.01 346C1071.5 353.76 1076.39 363.87 1077.9 374.43C1078.52 378.78 1081.48 382.4 1085.66 383.76C1096.74 387.34 1106.51 394.83 1112.61 405.7C1119.21 417.3 1120.31 430.4 1116.91 442.4Z" fill="#FFF9E3"/>
<path d="M719.84 464C719.84 464 753.51 347.64 857.52 347.64V464H719.84Z" fill="#121831"/>
<path d="M785.78 390.92L750.86 464H840.83L785.78 390.92Z" fill="#97523C"/>
<mask id="mask1_1528_84215" style="mask-type:luminance" maskUnits="userSpaceOnUse" x="777" y="217" width="251" height="247">
<path d="M783.49 442.56C775.77 429.83 774.93 414.09 781.24 400.61L853.42 246.41H834.33V227.3L848.18 220.24C864.84 211.75 883.88 226.42 879.9 244.69L857.51 347.63L1027.85 463.99H821.55C805.99 463.99 791.55 455.86 783.49 442.55V442.56Z" fill="white"/>
</mask>
<g mask="url(#mask1_1528_84215)">
<path d="M783.49 442.56C775.77 429.83 774.93 414.09 781.24 400.61L853.42 246.41H834.33V227.3L848.18 220.24C864.84 211.75 883.88 226.42 879.9 244.69L857.51 347.63L1027.85 463.99H821.55C805.99 463.99 791.55 455.86 783.49 442.55V442.56Z" fill="#EC5E3A"/>
<path d="M799.48 361.65L802.74 388.49L811.64 369.52C814.44 363.55 823.25 364.69 824.44 371.18L827.61 388.5L857.52 347.64L957.08 464H750.86L799.48 361.65Z" fill="#121831"/>
<path d="M834.34 246.3H853.43L858.06 235.87C865.65 235.87 872.94 232.85 878.31 227.48L881.15 224.64L866.1 209.59H832.71L832.57 222.23L834.35 246.3H834.34Z" fill="#66C0C9"/>
<path fill-rule="evenodd" clip-rule="evenodd" d="M879.007 228.177C873.449 233.735 865.905 236.86 858.05 236.86V234.86C865.374 234.86 872.41 231.946 877.593 226.763L879.007 228.177Z" fill="#121831"/>
</g>
<path d="M857.52 347.64V413.03C857.52 441.18 880.34 464 908.49 464H1124.72C1124.72 464 1013.11 347.64 857.52 347.64Z" fill="#121831"/>
<path d="M853.42 246.42L831.84 292.53C830.04 296.37 826.18 298.83 821.94 298.83C812.97 298.83 807.81 288.62 813.14 281.4L838.96 246.42H853.43H853.42Z" fill="#F0809C"/>
<path d="M834.34 227.19L810.98 246.3H834.34V227.19Z" fill="#F2BF43"/>
<mask id="mask2_1528_84215" style="mask-type:luminance" maskUnits="userSpaceOnUse" x="840" y="347" width="118" height="117">
<path d="M857.52 347.64L843.29 393.68C832.5 428.6 858.6 464 895.16 464H957.09L857.53 347.64H857.52Z" fill="white"/>
</mask>
<g mask="url(#mask2_1528_84215)">
<path d="M857.52 347.64L843.29 393.68C832.5 428.6 858.6 464 895.16 464H957.09L857.53 347.64H857.52Z" fill="#793625"/>
<path d="M913.14 471.41L854.11 401.5L936.2 475.4L879 408.45L957.04 472.74L913.14 471.41Z" fill="#97523C"/>
</g>
<path d="M888.67 384.05C954.33 422.27 1026.46 448.1 1101.46 460.24L1124.72 464.01H957.08L888.67 384.06V384.05Z" fill="#97523C"/>
<path d="M848.56 232C850.372 232 851.84 230.531 851.84 228.72C851.84 226.909 850.372 225.44 848.56 225.44C846.749 225.44 845.28 226.909 845.28 228.72C845.28 230.531 846.749 232 848.56 232Z" fill="#121831"/>
<path d="M810.98 246.3L834.34 236.74V246.3H810.98Z" fill="#121831"/>
<path d="M834.6 226.94L828.3 230.32C826.42 231.33 824.88 232.89 823.89 234.78L821.33 239.68C819.23 243.69 822.01 248.52 826.53 248.72C831.28 248.93 834.48 243.94 832.31 239.71L829.06 233.39L834.6 226.94Z" fill="#EC5E3A"/>
<path fill-rule="evenodd" clip-rule="evenodd" d="M824.733 305.269L835.383 282.309L837.197 283.151L826.547 306.111L824.733 305.269Z" fill="#121831"/>
<path fill-rule="evenodd" clip-rule="evenodd" d="M912.376 472.055L853.346 402.145L854.874 400.855L913.904 470.765L912.376 472.055Z" fill="#121831"/>
<path fill-rule="evenodd" clip-rule="evenodd" d="M935.44 476.05L878.24 409.1L879.76 407.8L936.96 474.75L935.44 476.05Z" fill="#121831"/>
</g>
</g>
<defs>
<clipPath id="clip0_1528_84215">
<rect width="1335" height="464" fill="white"/>
</clipPath>
</defs>
</svg>
