<svg width="1335" height="464" viewBox="0 0 1335 464" fill="none" xmlns="http://www.w3.org/2000/svg">
<g clip-path="url(#clip0_1528_88179)">
<rect width="1335" height="464" fill="#F8DE9F"/>
<mask id="mask0_1528_88179" style="mask-type:luminance" maskUnits="userSpaceOnUse" x="0" y="0" width="1335" height="464">
<path d="M1334.85 0H0.160156V464H1334.85V0Z" fill="white"/>
</mask>
<g mask="url(#mask0_1528_88179)">
<path d="M1335.16 0H0.160156V464H1335.16V0Z" fill="#F8DE9F"/>
<path d="M438.78 301.22C518.414 301.22 582.97 236.664 582.97 157.03C582.97 77.3961 518.414 12.84 438.78 12.84C359.146 12.84 294.59 77.3961 294.59 157.03C294.59 236.664 359.146 301.22 438.78 301.22Z" fill="#F5CF72"/>
<path d="M0.160156 357.57L259.85 258.55C339.87 228.04 430.02 241.53 497.6 294.14L530.44 319.7C549.17 334.28 574.44 337.29 596.07 327.53C638.46 308.39 684.44 298.5 730.96 298.5H1334.86V464H0.160156V357.57Z" fill="#75C476"/>
<path d="M592 357.846L1335 299V391H592V357.846Z" fill="#B7BD61"/>
<path d="M820.389 206.151C769.389 206.151 728.039 247.501 728.039 298.501C728.039 349.501 769.389 390.851 820.389 390.851C871.389 390.851 912.739 349.511 912.739 298.501C912.739 247.491 871.399 206.151 820.389 206.151ZM820.389 372.911C779.299 372.911 745.989 339.591 745.989 298.501C745.989 257.411 779.299 224.101 820.389 224.101C861.479 224.101 894.799 257.411 894.799 298.501C894.799 339.591 861.479 372.911 820.389 372.911Z" fill="#121831"/>
<path d="M1145.35 206.151C1094.35 206.151 1053 247.501 1053 298.501C1053 349.501 1094.35 390.851 1145.35 390.851C1196.35 390.851 1237.7 349.511 1237.7 298.501C1237.7 247.491 1196.36 206.151 1145.35 206.151ZM1146.79 372.911C1105.69 372.911 1072.38 339.591 1072.38 298.501C1072.38 257.411 1105.69 224.101 1146.79 224.101C1187.89 224.101 1221.19 257.411 1221.19 298.501C1221.19 339.591 1187.88 372.911 1146.79 372.911Z" fill="#121831"/>
<path fill-rule="evenodd" clip-rule="evenodd" d="M916.418 168.161C916.418 165.399 918.657 163.161 921.418 163.161H1107.62C1109.49 163.161 1111.21 164.207 1112.06 165.873C1112.92 167.538 1112.78 169.543 1111.69 171.067L1039.93 271.527L1039.93 271.528C1025.59 291.59 1002.45 303.501 977.798 303.501H921.418C918.657 303.501 916.418 301.262 916.418 298.501V168.161ZM926.418 173.161V293.501H977.798C999.222 293.501 1019.33 283.151 1031.79 265.713L1097.9 173.161H926.418Z" fill="#FDF9F0"/>
<path fill-rule="evenodd" clip-rule="evenodd" d="M924.07 245.537C925.527 246.452 926.411 248.052 926.411 249.772V298.502C926.411 301.263 924.173 303.502 921.411 303.502H820.391C818.059 303.502 816.037 301.89 815.517 299.616C814.997 297.343 816.118 295.012 818.219 293.998L919.239 245.268C920.788 244.521 922.613 244.623 924.07 245.537ZM842.265 293.502H916.411V257.735L842.265 293.502Z" fill="#FDF9F0"/>
<path fill-rule="evenodd" clip-rule="evenodd" d="M1102.61 120.311C1102.61 117.549 1104.85 115.311 1107.61 115.311H1168.91C1181.09 115.311 1190.98 125.188 1190.98 137.381C1190.98 149.56 1181.1 159.451 1168.91 159.451H1125.03V149.451H1168.91C1175.58 149.451 1180.98 144.041 1180.98 137.381C1180.98 130.714 1175.57 125.311 1168.91 125.311H1112.61V167.451L1150.16 297.11L1140.56 299.892L1102.81 169.552C1102.68 169.1 1102.61 168.632 1102.61 168.161V120.311Z" fill="#FDF9F0"/>
<path fill-rule="evenodd" clip-rule="evenodd" d="M867.741 142.687C868.165 140.019 870.631 138.17 873.31 138.511L946.47 147.811L945.209 157.731L926.409 155.341V233.331H916.409V156.907L871.742 148.382C869.089 147.876 867.318 145.354 867.741 142.687Z" fill="#FDF9F0"/>
<path d="M944.018 178.799L966.828 236.499C970.208 245.049 977.028 251.789 985.618 255.079L1071.75 288.009L1079.7 311.459L1090.52 307.789L1090.36 294.969C1090.26 287.239 1086.32 280.069 1079.85 275.849L1002.96 225.709L990.288 164.939C987.348 150.819 972.808 142.379 959.088 146.829C945.778 151.139 938.868 165.789 944.018 178.799Z" fill="#FF8A8A"/>
<path d="M1070.88 390.85H1008.85C1003.07 390.85 1005.28 385.32 1006.86 379.75L1037.19 283.02H964.787C953.517 283.02 943.567 290.38 940.257 301.15L917.327 375.86C914.587 384.77 906.367 390.85 897.037 390.85H663.367C659.787 390.85 658.687 386 661.917 384.45L702.907 364.83C710.717 361.09 719.897 361.61 727.227 366.21L737.907 372.9L759.307 366.88L819.737 349.87C827.997 347.54 836.677 347.11 845.137 348.59L870.887 353.12L890.257 236.59C893.247 218.61 899.427 201.3 908.487 185.48L927.797 151.76C936.777 136.08 953.377 126.76 970.917 126.76C974.347 126.76 977.817 127.12 981.267 127.85C1013.67 133.18 1021.32 176.3 992.727 192.45L962.717 209.4L984.817 231.99H1064.34C1082.47 231.99 1094.4 250.91 1086.58 267.28L1038.97 366.85L1071.95 385.06C1075.04 386.26 1074.18 390.84 1070.87 390.84L1070.88 390.85Z" fill="#121831"/>
<path d="M1009.84 369.601C1011.69 371.091 1014.33 373.081 1016.13 371.531L1021.71 366.741C1022.6 365.981 1023.74 365.561 1024.91 365.561H1046.23V369.881L1068.88 378.751C1071.21 379.661 1073.69 380.131 1076.2 380.131H1078.93C1081.89 380.131 1084.29 382.531 1084.29 385.491C1084.29 388.451 1081.89 390.851 1078.93 390.851H1008.92C1005.59 390.851 1002.88 388.151 1002.88 384.811C1002.88 383.871 1003.1 382.941 1003.53 382.091L1009.83 369.601H1009.84Z" fill="#FDF9F0"/>
<path fill-rule="evenodd" clip-rule="evenodd" d="M1036.65 332.687L1035.56 334.36C1036.65 332.687 1036.65 332.687 1036.66 332.688L1036.66 332.689L1036.66 332.693L1036.68 332.707L1036.75 332.753C1036.81 332.792 1036.9 332.849 1037 332.923C1037.22 333.071 1037.52 333.287 1037.9 333.565C1038.67 334.122 1039.73 334.932 1040.94 335.959C1043.36 338.003 1046.44 340.948 1048.98 344.493C1051.52 348.023 1053.62 352.296 1053.84 356.967C1053.97 359.881 1053.37 362.848 1051.82 365.78C1052.59 365.549 1053.43 365.313 1054.32 365.079C1059.78 363.649 1067.38 362.29 1075.9 362.6C1093.05 363.223 1113.8 370.623 1128.19 397.269C1128.71 398.241 1128.35 399.455 1127.38 399.98C1126.41 400.504 1125.19 400.142 1124.67 399.17C1111.05 373.946 1091.7 367.177 1075.76 366.597C1067.73 366.306 1060.53 367.587 1055.34 368.948C1052.74 369.628 1050.65 370.325 1049.22 370.848C1048.51 371.11 1047.96 371.328 1047.59 371.478C1047.41 371.554 1047.27 371.612 1047.18 371.65C1047.14 371.67 1047.1 371.684 1047.08 371.693L1047.06 371.703L1047.06 371.704C1046.18 372.1 1045.14 371.811 1044.59 371.016C1044.04 370.222 1044.14 369.148 1044.82 368.466C1048.78 364.51 1050 360.668 1049.84 357.154C1049.67 353.55 1048.03 350.02 1045.73 346.824C1043.45 343.643 1040.63 340.938 1038.36 339.014C1037.28 338.105 1036.34 337.38 1035.65 336.871L1015.78 353.166C1014.92 353.867 1013.66 353.742 1012.96 352.888C1012.26 352.034 1012.39 350.774 1013.24 350.073L1034.29 332.813C1034.97 332.259 1035.92 332.208 1036.65 332.687Z" fill="#A3E2E8"/>
<path d="M926.54 168.331L930.02 238.541C930.54 248.951 935.4 258.661 943.42 265.311L1023.86 331.981V360.041H1036.81L1041.3 346.231C1044.01 337.901 1042.39 328.771 1036.98 321.891L972.72 240.121L981.23 170.301C983.21 154.081 970.68 139.741 954.34 139.511C938.49 139.291 925.75 152.501 926.53 168.331H926.54Z" fill="#FFA4A0"/>
<path d="M1008.84 95.3395L1003.08 98.7695L1003.3 99.8895L1004.44 105.779L1004.76 107.439C1005.9 113.319 1001.72 118.899 995.757 119.459L991.597 119.849L990.807 139.509L959.337 134.089L957.527 132.849L963.617 129.119C965.497 128.449 967.047 127.099 967.987 125.339C969.137 123.169 969.237 120.609 968.257 118.369L965.207 111.329L961.047 101.779C959.887 99.1095 959.327 96.3195 959.327 93.5895C959.327 85.7995 963.767 78.3795 971.247 74.8995C979.747 70.9595 989.647 73.2895 995.537 80.1495C996.407 81.1595 997.187 82.2595 997.857 83.4595L999.067 85.5995L1000.03 87.2995L1001.61 90.1195C1002.14 91.0595 1003.05 91.7095 1004.1 91.9295L1008.39 92.7795C1009.64 93.0295 1009.93 94.6895 1008.83 95.3395H1008.84Z" fill="#FFA4A0"/>
<path d="M968.269 118.37L975.029 110.88C977.669 107.95 978.849 103.99 978.249 100.09L977.629 96.14L981.559 94.83L985.489 102.46L999.079 85.6H971.329L965.219 111.33L968.269 118.37Z" fill="#F25B2F"/>
<path d="M999.07 85.6L965.21 111.33L961.05 101.78C959.89 99.11 959.34 96.32 959.34 93.59C959.34 85.8 963.78 78.38 971.26 74.9C981 70.38 992.58 74.11 997.86 83.46L999.07 85.6Z" fill="#7C73C9"/>
<path d="M759.33 366.89V390.85H663.39C659.81 390.85 658.71 386 661.94 384.45L707.94 362.43C712.63 360.19 718.14 360.5 722.54 363.26L737.93 372.91L759.33 366.89Z" fill="#FFA4A0"/>
<path d="M1004.29 105.029L997.578 102.799L1003.3 99.889L1004.29 105.029Z" fill="#FC5558"/>
<path d="M997.578 102.801C997.578 102.801 1002.27 102.591 1003.7 101.941L1003.22 99.4808L997.578 102.801Z" fill="#FF7A7B"/>
<path d="M956.535 120.016L965.218 111.333L973.901 120.016C978.696 124.81 978.696 132.589 973.901 137.383C969.107 142.177 961.329 142.177 956.535 137.383C951.741 132.589 951.741 124.811 956.535 120.016Z" fill="#F25B2F"/>
<path d="M1334.85 390.85H0.160156V464H1334.85V390.85Z" fill="#4C8431"/>
<path d="M592 358H0V391H592V358Z" fill="#57AAE3"/>
<path fill-rule="evenodd" clip-rule="evenodd" d="M1208.32 391.85H228.38V389.85H1208.32V391.85Z" fill="#646A1A"/>
</g>
</g>
<defs>
<clipPath id="clip0_1528_88179">
<rect width="1335" height="464" fill="white"/>
</clipPath>
</defs>
</svg>
