<svg width="1335" height="464" viewBox="0 0 1335 464" fill="none" xmlns="http://www.w3.org/2000/svg">
<g clip-path="url(#clip0_1528_83727)">
<rect width="1335" height="464" fill="#FEE3E2"/>
<mask id="mask0_1528_83727" style="mask-type:luminance" maskUnits="userSpaceOnUse" x="0" y="0" width="1335" height="464">
<path d="M1335 0H0V464H1335V0Z" fill="white"/>
</mask>
<g mask="url(#mask0_1528_83727)">
<path d="M1335 0H0V464H1335V0Z" fill="#FEE3E2"/>
<path d="M500.11 210.08H266.33V520.23H500.11V210.08Z" fill="#FEC7C6"/>
<path d="M185.225 -66.693L-53.2656 131.587L96.1911 311.353L334.682 113.073L185.225 -66.693Z" fill="#FEC7C6"/>
<path d="M964.04 92.59L716.69 12.75C710.38 10.71 703.62 14.18 701.58 20.48L587.24 374.69C585.2 381 588.67 387.76 594.97 389.8L842.32 469.64C848.63 471.68 855.39 468.21 857.43 461.91L971.77 107.7C973.81 101.39 970.34 94.63 964.04 92.59Z" fill="#EBE0F5"/>
<path fill-rule="evenodd" clip-rule="evenodd" d="M839.278 425.073L929.398 145.913L931.302 146.527L841.182 425.687L839.278 425.073Z" fill="#57AAE3"/>
<path fill-rule="evenodd" clip-rule="evenodd" d="M927.723 110.202L736.823 48.5815L737.437 46.6782L928.337 108.298L927.723 110.202Z" fill="#57AAE3"/>
<path fill-rule="evenodd" clip-rule="evenodd" d="M719.742 57.317L623.512 355.427L621.608 354.813L717.838 56.7026L719.742 57.317Z" fill="#57AAE3"/>
<path fill-rule="evenodd" clip-rule="evenodd" d="M632.257 372.508L822.207 433.818L821.593 435.722L631.643 374.412L632.257 372.508Z" fill="#57AAE3"/>
<path fill-rule="evenodd" clip-rule="evenodd" d="M936.46 108.38C926.022 108.38 917.56 116.842 917.56 127.28C917.56 137.718 926.022 146.18 936.46 146.18C946.898 146.18 955.36 137.718 955.36 127.28C955.36 116.842 946.898 108.38 936.46 108.38ZM915.56 127.28C915.56 115.737 924.917 106.38 936.46 106.38C948.003 106.38 957.36 115.737 957.36 127.28C957.36 138.823 948.003 148.18 936.46 148.18C924.917 148.18 915.56 138.823 915.56 127.28Z" fill="#57AAE3"/>
<path d="M942.84 139.74C945.25 138.51 945.86 134.59 944.74 129.95C948.36 126.84 950.16 123.31 948.92 120.9C947.69 118.49 943.77 117.88 939.13 119C936.02 115.38 932.49 113.59 930.08 114.82C927.67 116.05 927.06 119.97 928.18 124.61C924.56 127.72 922.77 131.25 924 133.66C925.23 136.07 929.15 136.68 933.79 135.56C936.9 139.18 940.43 140.98 942.84 139.74Z" fill="#57AAE3"/>
<path d="M936.46 132.22C939.188 132.22 941.4 130.008 941.4 127.28C941.4 124.552 939.188 122.34 936.46 122.34C933.732 122.34 931.52 124.552 931.52 127.28C931.52 130.008 933.732 132.22 936.46 132.22Z" fill="#FAEECE"/>
<path d="M726.94 116.27C734.61 120.47 743.9 122.26 752.54 120.56C756.06 119.86 759.81 118.11 761.23 114.58C762.37 111.75 761.89 107.99 759.13 106.26C756.15 104.39 752.57 106.08 750.71 108.71C748.53 111.8 749.1 115.67 751.25 118.62C755.68 124.71 764.24 127.46 771.44 128.13C779.11 128.83 787.08 127.1 793.66 123.08C796.99 121.05 800.45 118.39 802.03 114.72C803.39 111.55 802.97 107.38 800.09 105.17C797.21 102.96 793.29 103.95 790.74 106.19C787.63 108.93 787.08 113.36 787.15 117.27C787.3 125.18 788.24 135.47 796.82 138.75C800.05 139.99 803.52 139.26 806.25 137.24C808.98 135.22 810.83 132.58 813.13 130.25C815.58 127.78 818.54 125.98 822.15 126.59C825.76 127.2 828.8 129.96 829.38 133.72C829.89 137.06 828.5 141.28 825.04 142.44C823.8 142.85 822.03 142.94 821.35 141.57C820.64 140.13 821.93 138.36 823.24 137.8C825.07 137.02 827.23 137.99 828.7 139.09C830.5 140.44 831.79 142.39 833.15 144.15C835.66 147.4 838.73 149.91 842.54 151.48C849.94 154.53 858.29 153.21 864.49 148.22C869.88 143.88 873.39 136.62 871.4 129.69C870.52 126.62 868.43 123.99 865.38 122.88C862.16 121.7 858.46 122.6 855.76 124.58C849 129.54 850 139.21 854.55 145.33C857.04 148.69 860.37 151.28 863.89 153.47C867.68 155.82 871.85 158.05 876.39 158.34C880.28 158.59 883.98 157.01 886.28 153.82C888.25 151.1 888.57 147.34 886.39 144.64C884.44 142.23 881.09 141.32 878.11 141.85C874.74 142.44 872.26 145.12 871.25 148.3C868.79 156.03 874.74 162.79 881.48 165.59C885.72 167.35 890.32 167.88 894.84 168.41C896.44 168.6 896.42 166.09 894.84 165.91C887.59 165.07 878.64 163.88 874.58 156.9C872.98 154.15 872.66 150.58 874.17 147.72C875.52 145.16 878.16 143.77 881.03 144.32C883.9 144.87 885.97 147.19 885.27 150.15C884.5 153.44 881.15 155.67 877.91 155.86C873.77 156.11 869.85 154.12 866.38 152.08C862.91 150.04 859.9 147.89 857.39 144.96C853.07 139.89 850.99 130.65 857.55 126.38C860.02 124.77 863.22 124.26 865.81 125.89C868.19 127.39 869.25 130.28 869.4 132.98C869.75 139.57 865.32 145.43 859.7 148.45C853.38 151.85 845.64 151.23 839.75 147.21C836.49 144.99 834.65 141.64 832.01 138.81C829.75 136.39 826.26 134.32 822.84 135.33C820.15 136.12 817.98 139.18 818.81 142.01C819.64 144.84 822.66 145.68 825.25 145.02C831.64 143.4 833.44 135.09 830.65 129.8C827.63 124.06 819.78 122.4 814.48 125.89C812.07 127.48 810.22 129.73 808.3 131.86C806.38 133.99 804.44 136.1 801.67 136.74C798.28 137.53 794.95 135.46 793.01 132.79C790.65 129.54 790.11 125.33 789.83 121.43C789.55 117.53 789.06 113.26 790.97 109.83C792.35 107.36 796.09 105.13 798.66 107.26C801.5 109.62 800.14 113.88 798.14 116.25C795.91 118.89 792.82 120.87 789.74 122.39C783.6 125.4 776.44 126.46 769.69 125.45C766.28 124.94 762.92 123.93 759.85 122.37C756.78 120.81 753.76 118.8 752.35 115.66C751.08 112.82 752.16 109.14 755.33 108.14C758.5 107.14 759.8 110.89 759 113.36C757.94 116.61 754.13 117.82 751.09 118.31C747.16 118.95 743.02 118.81 739.11 118.07C735.2 117.33 731.59 116.02 728.16 114.14C726.75 113.37 725.49 115.52 726.9 116.3L726.94 116.27Z" fill="#57AAE3"/>
<path d="M879.13 214.59C871.54 213.65 864.21 210.26 858.65 204.99C856.28 202.74 853.59 199.4 854.69 195.91C855.48 193.41 858.77 191.16 860.74 193.87C862.2 195.88 861.88 198.93 860.12 200.64C857.71 202.97 854 203.26 850.82 203.01C844.26 202.5 837.85 199.62 832.82 195.43C827.79 191.24 823.89 185.69 822.03 179.39C821 175.88 820.4 171.18 823.76 168.7C826.65 166.56 829.72 168.68 830.58 171.73C831.58 175.26 829.46 178.69 827.41 181.4C825.14 184.4 822.66 187.54 819.6 189.76C816.8 191.79 813.25 193 809.81 192.05C806.6 191.16 805 188.45 804.35 185.36C803.05 179.26 803.99 172.28 798.12 168.3C792.6 164.56 785.08 166.4 781.93 172.28C780.43 175.09 779.99 178.58 781.51 181.47C782.86 184.05 786.01 186.19 788.89 184.57C791.3 183.21 791.8 179.94 790.74 177.57C789.42 174.61 785.92 173.5 782.91 173.61C778.94 173.76 775.36 175.81 771.42 176.12C767.91 176.4 764.32 175.74 761.16 174.19C754.59 170.96 750.45 164.11 750.47 156.8C750.47 153.34 751.48 149.91 753.73 147.23C755.72 144.85 758.72 143.05 761.91 143.84C764.92 144.59 766.92 147.4 767.55 150.32C768.25 153.56 766.95 156.85 764.76 159.25C759.35 165.18 750.65 165.31 743.25 164.42C739.76 164 735.98 163.15 733.25 160.8C731.08 158.93 729.82 155.92 730.42 153.05C731.02 150.18 733.48 148.6 736.27 149.26C739.25 149.96 741.32 152.51 741.26 155.58C741.19 159.03 738.8 162.11 735.77 163.58C732.38 165.22 728.35 165.11 724.78 164.16C720.83 163.11 717.23 161.09 713.68 159.11C712.27 158.33 711.01 160.48 712.42 161.27C719.76 165.36 728.68 169.83 737.03 165.74C743.47 162.58 746.68 152.94 740.02 148.25C737.46 146.45 733.78 145.95 731.09 147.76C728.4 149.57 727.45 152.96 727.93 156.09C729.2 164.37 738.27 166.52 745.32 167.12C753.57 167.82 762.93 166.57 767.98 159.2C770.02 156.22 770.8 152.5 769.81 149C768.89 145.75 766.58 142.84 763.36 141.67C755.97 138.98 749.45 146.59 748.31 153.2C746.95 161.05 750.11 169.37 756.47 174.21C759.64 176.62 763.43 178.07 767.38 178.54C769.35 178.77 771.34 178.71 773.3 178.4C775.59 178.03 777.75 177.19 779.98 176.61C782.94 175.85 788.75 175.66 788.8 180.06C788.81 181.51 787.84 182.99 786.21 182.57C784.58 182.15 783.38 180.15 783.14 178.54C782.59 174.89 785.01 171.04 788.29 169.53C791.57 168.02 795.73 169.03 798.22 171.6C800.71 174.17 801.01 178.18 801.36 181.63C801.71 185.08 802.12 188.58 804.33 191.33C806.66 194.22 810.43 195.23 814.01 194.76C818.04 194.23 821.43 191.9 824.23 189.06C825.77 187.5 827.16 185.79 828.53 184.07C829.8 182.47 831.05 180.83 831.96 179C833.61 175.68 834.04 171.76 831.91 168.53C829.96 165.58 826.33 164.37 823.14 166.17C819.46 168.24 818.39 172.57 818.9 176.5C819.88 183.94 824.3 191 829.75 196.01C835.2 201.02 842.08 204.4 849.43 205.35C853.05 205.81 857.11 205.68 860.29 203.68C863.07 201.94 864.54 199.03 864.09 195.76C863.71 192.97 861.8 190.34 858.81 190.13C855.2 189.88 852.47 193.25 852.05 196.57C851.54 200.55 854.19 204.16 856.92 206.75C859.99 209.66 863.58 212.05 867.42 213.8C871.26 215.55 875.09 216.58 879.16 217.08C880.75 217.28 880.74 214.78 879.16 214.58L879.13 214.59Z" fill="#57AAE3"/>
<path d="M696.7 209.95C704.37 214.15 713.66 215.94 722.3 214.24C725.82 213.54 729.57 211.79 730.99 208.26C732.13 205.43 731.65 201.67 728.89 199.94C725.91 198.07 722.33 199.76 720.47 202.39C718.29 205.48 718.86 209.35 721.01 212.3C725.44 218.39 734 221.14 741.2 221.81C748.87 222.51 756.84 220.78 763.42 216.76C766.75 214.73 770.21 212.07 771.79 208.4C773.15 205.23 772.73 201.06 769.85 198.85C766.97 196.64 763.05 197.63 760.5 199.87C757.39 202.61 756.84 207.04 756.91 210.95C757.06 218.86 758 229.15 766.58 232.43C769.81 233.67 773.28 232.94 776.01 230.92C778.74 228.9 780.59 226.26 782.89 223.93C785.34 221.46 788.3 219.66 791.91 220.27C795.52 220.88 798.56 223.64 799.14 227.4C799.65 230.74 798.26 234.96 794.8 236.12C793.56 236.53 791.79 236.62 791.11 235.25C790.4 233.81 791.69 232.04 793 231.48C794.83 230.7 796.99 231.67 798.46 232.77C800.26 234.12 801.55 236.07 802.91 237.83C805.42 241.08 808.49 243.59 812.3 245.16C819.7 248.21 828.05 246.89 834.25 241.9C839.64 237.56 843.15 230.3 841.16 223.37C840.28 220.3 838.19 217.67 835.14 216.56C831.92 215.38 828.22 216.28 825.52 218.26C818.76 223.22 819.76 232.89 824.31 239.01C826.8 242.37 830.13 244.96 833.65 247.15C837.44 249.5 841.61 251.73 846.15 252.02C850.04 252.27 853.74 250.69 856.04 247.5C858.01 244.78 858.33 241.02 856.15 238.32C854.2 235.91 850.85 235 847.87 235.53C844.5 236.12 842.02 238.8 841.01 241.98C838.55 249.71 844.5 256.47 851.24 259.27C855.48 261.03 860.08 261.56 864.6 262.09C866.2 262.28 866.18 259.77 864.6 259.59C857.35 258.75 848.4 257.56 844.34 250.58C842.74 247.83 842.42 244.26 843.93 241.4C845.28 238.84 847.92 237.45 850.79 238C853.66 238.55 855.73 240.87 855.03 243.83C854.26 247.12 850.91 249.35 847.67 249.54C843.53 249.79 839.61 247.8 836.14 245.76C832.67 243.72 829.66 241.57 827.15 238.64C822.83 233.57 820.75 224.33 827.31 220.06C829.78 218.45 832.98 217.94 835.57 219.57C837.95 221.07 839.01 223.96 839.16 226.66C839.51 233.25 835.08 239.11 829.46 242.13C823.14 245.53 815.4 244.91 809.51 240.89C806.25 238.67 804.41 235.32 801.77 232.49C799.51 230.07 796.02 228 792.6 229.01C789.91 229.8 787.74 232.86 788.57 235.69C789.4 238.52 792.42 239.36 795.01 238.7C801.4 237.08 803.2 228.77 800.41 223.48C797.39 217.74 789.54 216.08 784.24 219.57C781.83 221.16 779.98 223.41 778.06 225.54C776.14 227.67 774.2 229.78 771.43 230.42C768.04 231.21 764.71 229.14 762.77 226.47C760.41 223.22 759.87 219.01 759.59 215.11C759.31 211.21 758.82 206.94 760.73 203.51C762.11 201.04 765.85 198.81 768.42 200.94C771.26 203.3 769.9 207.56 767.9 209.93C765.67 212.57 762.58 214.55 759.5 216.07C753.36 219.08 746.2 220.14 739.45 219.13C736.04 218.62 732.68 217.61 729.61 216.05C726.54 214.49 723.52 212.48 722.11 209.34C720.84 206.5 721.92 202.82 725.09 201.82C728.26 200.82 729.56 204.57 728.76 207.04C727.7 210.29 723.89 211.5 720.85 211.99C716.92 212.63 712.78 212.49 708.87 211.75C704.96 211.01 701.35 209.7 697.92 207.82C696.51 207.05 695.25 209.2 696.66 209.98L696.7 209.95Z" fill="#57AAE3"/>
<path d="M666.46 303.64C674.13 307.84 683.42 309.63 692.06 307.93C695.58 307.23 699.33 305.48 700.75 301.95C701.89 299.12 701.41 295.36 698.65 293.63C695.67 291.76 692.09 293.45 690.23 296.08C688.05 299.17 688.62 303.04 690.77 305.99C695.2 312.08 703.76 314.83 710.96 315.5C718.63 316.2 726.6 314.47 733.18 310.45C736.51 308.42 739.97 305.76 741.55 302.09C742.91 298.92 742.49 294.75 739.61 292.54C736.73 290.33 732.81 291.32 730.26 293.56C727.15 296.3 726.6 300.73 726.67 304.64C726.82 312.55 727.76 322.84 736.34 326.12C739.57 327.36 743.04 326.63 745.77 324.61C748.5 322.59 750.35 319.95 752.65 317.62C755.1 315.15 758.06 313.35 761.67 313.96C765.28 314.57 768.32 317.33 768.9 321.09C769.41 324.43 768.02 328.65 764.56 329.81C763.32 330.22 761.55 330.31 760.87 328.94C760.16 327.5 761.45 325.73 762.76 325.17C764.59 324.39 766.75 325.36 768.22 326.46C770.02 327.81 771.31 329.76 772.67 331.52C775.18 334.77 778.25 337.28 782.06 338.85C789.46 341.9 797.81 340.58 804.01 335.59C809.4 331.25 812.91 323.99 810.92 317.06C810.04 313.99 807.95 311.36 804.9 310.25C801.68 309.07 797.98 309.97 795.28 311.95C788.52 316.91 789.52 326.58 794.07 332.7C796.56 336.06 799.89 338.65 803.41 340.84C807.2 343.19 811.37 345.42 815.91 345.71C819.8 345.96 823.5 344.38 825.8 341.19C827.77 338.47 828.09 334.71 825.91 332.01C823.96 329.6 820.61 328.69 817.63 329.22C814.26 329.81 811.78 332.49 810.77 335.67C808.31 343.4 814.26 350.16 821 352.96C825.24 354.72 829.84 355.25 834.36 355.78C835.96 355.97 835.94 353.46 834.36 353.28C827.11 352.44 818.16 351.25 814.1 344.27C812.5 341.52 812.18 337.95 813.69 335.09C815.04 332.53 817.68 331.14 820.55 331.69C823.42 332.24 825.49 334.56 824.79 337.52C824.02 340.81 820.67 343.04 817.43 343.23C813.29 343.48 809.37 341.49 805.9 339.45C802.43 337.41 799.42 335.26 796.91 332.33C792.59 327.26 790.51 318.02 797.07 313.75C799.54 312.14 802.74 311.63 805.33 313.26C807.71 314.76 808.77 317.65 808.92 320.35C809.27 326.94 804.84 332.8 799.22 335.82C792.9 339.22 785.16 338.6 779.27 334.58C776.01 332.36 774.17 329.01 771.53 326.18C769.27 323.76 765.78 321.69 762.36 322.7C759.67 323.49 757.5 326.55 758.33 329.38C759.16 332.21 762.18 333.05 764.77 332.39C771.16 330.77 772.96 322.46 770.17 317.17C767.15 311.43 759.3 309.77 754 313.26C751.59 314.85 749.74 317.1 747.82 319.23C745.9 321.36 743.96 323.47 741.19 324.11C737.8 324.9 734.47 322.83 732.53 320.16C730.17 316.91 729.63 312.7 729.35 308.8C729.07 304.9 728.58 300.63 730.49 297.2C731.87 294.73 735.61 292.5 738.18 294.63C741.02 296.99 739.66 301.25 737.66 303.62C735.43 306.26 732.34 308.24 729.26 309.76C723.12 312.77 715.96 313.83 709.21 312.82C705.8 312.31 702.44 311.3 699.37 309.74C696.3 308.18 693.28 306.17 691.87 303.03C690.6 300.19 691.68 296.51 694.85 295.51C698.02 294.51 699.32 298.26 698.52 300.73C697.46 303.98 693.65 305.19 690.61 305.68C686.68 306.32 682.54 306.18 678.63 305.44C674.72 304.7 671.11 303.39 667.68 301.51C666.27 300.74 665.01 302.89 666.42 303.67L666.46 303.64Z" fill="#57AAE3"/>
<path d="M848.89 308.27C841.3 307.33 833.97 303.94 828.41 298.67C826.04 296.42 823.35 293.08 824.45 289.59C825.24 287.09 828.53 284.84 830.5 287.55C831.96 289.56 831.64 292.61 829.88 294.32C827.47 296.65 823.76 296.94 820.58 296.69C814.02 296.18 807.61 293.3 802.58 289.11C797.55 284.92 793.65 279.37 791.79 273.07C790.76 269.56 790.16 264.86 793.52 262.38C796.41 260.24 799.48 262.36 800.34 265.41C801.34 268.94 799.22 272.37 797.17 275.08C794.9 278.08 792.42 281.22 789.36 283.44C786.56 285.47 783.01 286.68 779.57 285.73C776.36 284.84 774.76 282.13 774.11 279.04C772.81 272.94 773.75 265.96 767.88 261.98C762.36 258.24 754.84 260.08 751.69 265.96C750.19 268.77 749.75 272.26 751.27 275.15C752.62 277.73 755.77 279.87 758.65 278.25C761.06 276.89 761.56 273.62 760.5 271.25C759.18 268.29 755.68 267.18 752.67 267.29C748.7 267.44 745.12 269.49 741.18 269.8C737.67 270.08 734.08 269.42 730.92 267.87C724.35 264.64 720.21 257.79 720.23 250.48C720.23 247.02 721.24 243.59 723.49 240.91C725.48 238.53 728.48 236.73 731.67 237.52C734.68 238.27 736.68 241.08 737.31 244C738.01 247.24 736.71 250.53 734.52 252.93C729.11 258.86 720.41 258.99 713.01 258.1C709.52 257.68 705.74 256.83 703.01 254.48C700.84 252.61 699.58 249.6 700.18 246.73C700.78 243.86 703.24 242.28 706.03 242.94C709.01 243.64 711.08 246.19 711.02 249.26C710.95 252.71 708.56 255.79 705.53 257.26C702.14 258.9 698.11 258.79 694.54 257.84C690.59 256.79 686.99 254.77 683.44 252.79C682.03 252.01 680.77 254.16 682.18 254.95C689.52 259.04 698.44 263.51 706.79 259.42C713.23 256.26 716.44 246.62 709.78 241.93C707.22 240.13 703.54 239.63 700.85 241.44C698.16 243.25 697.21 246.64 697.69 249.77C698.96 258.05 708.03 260.2 715.08 260.8C723.33 261.5 732.69 260.25 737.74 252.88C739.78 249.9 740.56 246.18 739.57 242.68C738.65 239.43 736.34 236.52 733.12 235.35C725.73 232.66 719.21 240.27 718.07 246.88C716.71 254.73 719.87 263.05 726.23 267.89C729.4 270.3 733.19 271.75 737.14 272.22C739.11 272.45 741.1 272.39 743.06 272.08C745.35 271.71 747.51 270.87 749.74 270.29C752.7 269.53 758.51 269.34 758.56 273.74C758.57 275.19 757.6 276.67 755.97 276.25C754.34 275.83 753.14 273.83 752.9 272.22C752.35 268.57 754.77 264.72 758.05 263.21C761.33 261.7 765.49 262.71 767.98 265.28C770.53 267.91 770.77 271.86 771.12 275.31C771.47 278.76 771.88 282.26 774.09 285.01C776.42 287.9 780.19 288.91 783.77 288.44C787.8 287.91 791.19 285.58 793.99 282.74C795.53 281.18 796.92 279.47 798.29 277.75C799.56 276.15 800.81 274.51 801.72 272.68C803.37 269.36 803.8 265.44 801.67 262.21C799.72 259.26 796.09 258.05 792.9 259.85C789.22 261.92 788.15 266.25 788.66 270.18C789.64 277.62 794.06 284.68 799.51 289.69C804.95 294.69 811.84 298.08 819.19 299.03C822.81 299.49 826.87 299.36 830.05 297.36C832.83 295.62 834.3 292.71 833.85 289.44C833.47 286.65 831.56 284.02 828.57 283.81C824.96 283.56 822.23 286.93 821.81 290.25C821.3 294.23 823.95 297.84 826.68 300.43C829.75 303.34 833.34 305.73 837.18 307.48C841.02 309.23 844.85 310.26 848.92 310.76C850.51 310.96 850.5 308.46 848.92 308.26L848.89 308.27Z" fill="#57AAE3"/>
<path d="M761.81 390C770.98 385.38 780.15 380.75 789.33 376.13C792.2 374.68 789.68 370.37 786.81 371.81C777.64 376.43 768.47 381.06 759.29 385.68C756.42 387.13 758.94 391.44 761.81 390Z" fill="#57AAE3"/>
<path d="M763.16 375.77C770.9 381.58 777.61 388.78 782.91 396.87C784.67 399.55 789 397.05 787.23 394.35C781.42 385.5 774.14 377.8 765.68 371.46C764.6 370.65 762.89 371.29 762.26 372.36C761.51 373.64 762.07 374.97 763.16 375.78V375.77Z" fill="#57AAE3"/>
<path d="M863.725 184.99L1234.61 129.429L1267.99 352.263C1269.62 363.181 1262.09 373.369 1251.17 375.005L919.849 424.64C908.931 426.275 898.742 418.742 897.107 407.824L863.725 184.99Z" fill="#FFAECD"/>
<path fill-rule="evenodd" clip-rule="evenodd" d="M1251.01 374.041C1261.4 372.492 1268.55 362.812 1266.99 352.438L1268.97 352.141C1270.69 363.608 1262.78 374.307 1251.31 376.019L1251.01 374.041Z" fill="#F25B2F"/>
<path fill-rule="evenodd" clip-rule="evenodd" d="M1266.99 352.438L1257.49 289.018L1259.47 288.722L1268.97 352.142L1266.99 352.438Z" fill="#F25B2F"/>
<path fill-rule="evenodd" clip-rule="evenodd" d="M1005.24 410.851L1251.01 374.041L1251.31 376.019L1005.54 412.829L1005.24 410.851Z" fill="#F25B2F"/>
<path d="M863.72 185.01L1061.71 311.07C1068.36 315.3 1077.11 313.99 1082.23 308L1234.6 129.46L863.72 185.01Z" fill="#FDF9F0"/>
<path d="M1104.13 302.59L1103.1 304.86C1102.88 305.32 1102.67 305.78 1102.42 306.22L1082.75 341.47C1082.07 342.66 1080.9 343.47 1079.56 343.67C1078.22 343.87 1076.84 343.44 1075.86 342.5L1046.73 314.56C1046.36 314.21 1046 313.83 1045.68 313.46L1044.01 311.59C1039.34 306.31 1038 299.21 1040.4 292.57C1042.8 285.95 1048.41 281.36 1055.38 280.32C1061.14 279.46 1066.69 281.31 1070.75 284.92C1073.56 280.29 1078.35 276.88 1084.1 276.02C1091.07 274.98 1097.78 277.72 1102.02 283.35C1106.26 288.99 1107.05 296.18 1104.12 302.59H1104.13Z" fill="#F25B2F"/>
<path d="M508.74 77.6699L554.55 291.64C556.86 302.45 549.98 313.07 539.18 315.38L221.29 383.44C210.49 385.75 199.86 378.88 197.55 368.07L151.74 154.1L508.74 77.6599V77.6699Z" fill="#FDF9F0"/>
<path fill-rule="evenodd" clip-rule="evenodd" d="M181.228 287.031L198.538 367.871L196.582 368.289L179.272 287.449L181.228 287.031Z" fill="#FFAECD"/>
<path fill-rule="evenodd" clip-rule="evenodd" d="M198.538 367.871C200.733 378.14 210.831 384.667 221.091 382.472L221.51 384.428C210.17 386.853 199.008 379.64 196.583 368.289L198.538 367.871Z" fill="#FFAECD"/>
<path fill-rule="evenodd" clip-rule="evenodd" d="M221.091 382.472L382.911 347.822L383.33 349.778L221.51 384.428L221.091 382.472Z" fill="#FFAECD"/>
<path fill-rule="evenodd" clip-rule="evenodd" d="M494.95 81.563L538.788 286.31C538.788 286.31 538.788 286.31 538.788 286.31C540.294 293.331 535.819 300.242 528.8 301.748L225.2 366.758C225.2 366.758 225.2 366.758 225.2 366.758C218.179 368.263 211.268 363.789 209.762 356.77L167.693 160.282L494.95 90.2114V81.563ZM495.184 92.2067L170.067 161.818L211.718 356.35C212.992 362.291 218.841 366.076 224.78 364.802L528.38 299.792C534.321 298.518 538.106 292.669 536.832 286.73L495.184 92.2067Z" fill="#F9D3DD"/>
<path d="M508.74 77.6699L509.36 80.5499L509.16 80.5899C509.16 80.5899 509.12 80.5899 509.1 80.5999C506.61 81.1299 505.05 83.5399 505.59 86.0199C505.59 86.0399 505.59 86.0599 505.6 86.0799C509.25 103.12 498.39 119.9 481.35 123.55C481.33 123.55 481.31 123.55 481.29 123.56C478.8 124.09 477.24 126.5 477.78 128.98C477.78 129 477.78 129.02 477.79 129.04C481.44 146.08 470.58 162.86 453.54 166.51C453.52 166.51 453.5 166.51 453.48 166.52C450.99 167.05 449.43 169.46 449.97 171.94C449.97 171.96 449.97 171.98 449.98 172C453.63 189.04 442.77 205.82 425.73 209.47C425.71 209.47 425.69 209.47 425.67 209.48C423.18 210.01 421.62 212.42 422.16 214.9C422.16 214.92 422.16 214.94 422.17 214.96C425.82 232 414.96 248.78 397.92 252.43C397.9 252.43 397.88 252.43 397.86 252.44C395.37 252.97 393.81 255.38 394.35 257.86C394.35 257.88 394.35 257.9 394.36 257.92C398.01 274.96 387.15 291.74 370.11 295.39C369.65 295.49 369.2 295.57 368.73 295.64C368.28 295.76 367.83 295.87 367.37 295.97C350.33 299.62 333.55 288.76 329.9 271.72C329.9 271.7 329.9 271.68 329.89 271.65C329.37 269.2 327.01 267.59 324.56 268.12C323.78 268.29 322.98 268.44 322.17 268.55C306.76 270.73 291.81 261.05 287.49 246.09C287.26 245.31 287.07 244.52 286.91 243.74C286.4 241.28 283.96 239.79 281.51 240.32C281.49 240.32 281.47 240.32 281.44 240.33C264.4 243.98 247.62 233.12 243.97 216.08C243.97 216.06 243.97 216.04 243.96 216.03C243.43 213.54 241.03 211.98 238.53 212.51C238.51 212.51 238.5 212.51 238.48 212.52C221.44 216.17 204.66 205.31 201.01 188.27C201.01 188.25 201.01 188.23 201 188.21C200.47 185.72 198.06 184.16 195.58 184.7C195.56 184.7 195.54 184.7 195.52 184.71C178.48 188.36 161.7 177.5 158.05 160.46C158.05 160.44 158.05 160.42 158.04 160.4C157.51 157.91 155.1 156.35 152.62 156.89C152.6 156.89 152.58 156.89 152.56 156.9L152.36 156.94L151.74 154.06L508.74 77.6199V77.6699Z" fill="#FFAECD"/>
<path fill-rule="evenodd" clip-rule="evenodd" d="M181.516 429.314C181.516 429.314 181.515 429.313 179.02 432.44C176.525 435.566 176.523 435.565 176.52 435.562L176.511 435.555L176.48 435.53C176.455 435.51 176.419 435.481 176.373 435.443C176.281 435.369 176.148 435.26 175.977 435.119C175.634 434.835 175.137 434.419 174.501 433.872C173.229 432.78 171.403 431.167 169.149 429.061C164.644 424.851 158.424 418.66 151.519 410.698C137.726 394.792 121.111 371.72 110.015 343.161C98.9054 314.566 93.3183 280.436 101.678 242.569C110.037 204.706 132.266 163.445 176.223 120.46L181.817 126.18C138.739 168.304 117.45 208.238 109.49 244.294C101.531 280.345 106.823 312.856 117.472 340.264C128.135 367.707 144.159 389.999 157.563 405.456C164.258 413.176 170.278 419.166 174.612 423.217C176.778 425.241 178.521 426.779 179.714 427.804C180.311 428.317 180.77 428.701 181.075 428.954C181.228 429.08 181.342 429.173 181.416 429.234L181.497 429.299L181.516 429.314Z" fill="#46A646"/>
<path d="M110.16 226.74C110.16 226.74 112.53 179.45 56.5098 168.14C56.5098 168.14 50.2698 216.71 110.16 226.74Z" fill="#46A646"/>
<path fill-rule="evenodd" clip-rule="evenodd" d="M109.422 227.415L55.7725 168.815L57.2476 167.465L110.898 226.065L109.422 227.415Z" fill="#2D892D"/>
<path d="M110.17 331.67C110.17 331.67 98.8602 284.43 145.53 257.53C145.53 257.53 162.68 322.34 110.17 331.67Z" fill="#46A646"/>
<path d="M252.23 123.32C252.23 124.28 252.72 125.26 252.68 126.22C252.64 127.18 251.64 128.09 251.56 129.04C251.49 130 252.63 131.08 252.52 132.03C252.41 132.98 250.38 133.67 250.23 134.61C250.08 135.55 251.25 136.73 251.07 137.66C250.88 138.6 249.76 139.33 249.53 140.26C249.3 141.19 249.83 142.31 249.57 143.23C249.31 144.15 248.53 144.91 248.23 145.82C247.93 146.73 248.1 147.8 247.77 148.7C247.44 149.6 246.12 150.1 245.75 150.98C245.38 151.86 246.21 153.26 245.81 154.13C245.41 155 244.7 155.73 244.26 156.58C243.82 157.43 242.85 157.99 242.38 158.82C241.91 159.65 241.76 160.67 241.26 161.48C240.76 162.3 240.86 163.51 240.33 164.31C239.8 165.11 237.97 164.99 237.41 165.77C236.85 166.55 236.73 167.63 236.14 168.38C235.55 169.13 234.67 169.63 234.05 170.35C233.43 171.07 233.05 171.99 232.4 172.69C231.75 173.39 231.18 174.16 230.51 174.84C229.84 175.52 228.66 175.64 227.96 176.29C227.26 176.94 227.57 178.72 226.84 179.34C226.11 179.96 224.65 179.69 223.9 180.28C223.15 180.87 223.17 182.49 222.39 183.05C221.62 183.61 220.5 183.72 219.71 184.25C218.92 184.78 218.15 185.37 217.33 185.87C216.51 186.37 215.14 185.9 214.3 186.36C213.47 186.83 213.27 188.48 212.42 188.91C211.57 189.34 210.85 190.13 209.98 190.53C209.11 190.93 208.04 190.93 207.16 191.3C206.28 191.67 205.28 191.79 204.39 192.13C203.5 192.47 202.62 192.89 201.71 193.18C200.8 193.47 199.67 193.04 198.75 193.3C197.83 193.56 196.91 193.77 195.98 193.99C195.05 194.21 194.15 194.52 193.21 194.71C192.28 194.89 191.32 194.91 190.37 195.06C189.42 195.21 188.49 195.26 187.53 195.37C186.58 195.48 185.67 195.82 184.71 195.9C183.76 195.97 182.85 196.84 181.89 196.88C180.93 196.92 179.96 196.78 179 196.78C178.04 196.78 177.1 195.77 176.15 195.73C175.19 195.69 174.14 197.09 173.19 197.02C172.23 196.95 171.38 195.7 170.43 195.58C169.48 195.46 168.38 196.33 167.44 196.18C166.49 196.03 165.55 195.74 164.61 195.55C163.67 195.36 162.88 194.46 161.95 194.24C161.02 194.02 159.83 194.71 158.92 194.45C158.01 194.19 157.59 192.25 156.68 191.96C155.77 191.66 154.47 192.52 153.58 192.19C152.69 191.86 151.83 191.37 150.95 191.01C150.07 190.65 149.15 190.31 148.29 189.91C147.42 189.51 147.14 187.93 146.29 187.49C145.44 187.05 144.04 187.67 143.21 187.2C142.38 186.73 141.27 186.7 140.45 186.2C139.63 185.7 139.59 184 138.79 183.47C138 182.94 136.67 183.17 135.9 182.61C135.13 182.05 134.63 181.12 133.88 180.52C133.13 179.92 132.8 178.85 132.07 178.23C131.34 177.61 130.48 177.18 129.78 176.53C129.08 175.88 128.6 175.04 127.92 174.37C127.24 173.7 125.97 173.62 125.32 172.92C124.67 172.22 124.62 171 124 170.27C123.38 169.54 122.53 169.03 121.94 168.28C121.35 167.53 119.76 167.52 119.2 166.75C118.64 165.98 118.64 164.79 118.11 163.99C117.58 163.19 117.19 162.3 116.69 161.49C116.19 160.68 115.99 159.69 115.52 158.86C115.05 158.03 113.49 157.77 113.05 156.91C112.62 156.06 112.22 155.15 111.81 154.28C111.41 153.41 112.68 151.81 112.31 150.93C111.94 150.05 110.74 149.51 110.41 148.61C110.08 147.71 110.44 146.59 110.14 145.68C109.85 144.77 108.48 144.19 108.22 143.27C107.96 142.35 107.34 141.5 107.12 140.57C106.9 139.64 106.91 138.63 106.72 137.69C106.53 136.75 107.06 135.68 106.91 134.73C106.76 133.79 105.85 132.94 105.74 131.98C105.63 131.02 106.45 129.98 106.38 129.03C106.31 128.08 106.17 127.14 106.13 126.18C106.09 125.22 106.22 124.28 106.22 123.32C106.22 122.36 106.73 121.43 106.76 120.48C106.79 119.53 106.65 118.58 106.73 117.63C106.8 116.67 105.42 115.57 105.53 114.62C105.64 113.67 107.57 112.97 107.72 112.02C107.87 111.07 107.09 109.98 107.28 109.05C107.47 108.11 107.14 107.05 107.36 106.12C107.58 105.19 107.52 104.15 107.78 103.24C108.04 102.33 108.88 101.55 109.17 100.64C109.47 99.7299 109.37 98.6599 109.7 97.7599C110.03 96.8599 112.02 96.6199 112.39 95.7399C112.76 94.8599 112.58 93.7599 112.98 92.8999C113.38 92.0299 112.86 90.7099 113.29 89.8599C113.72 89.0099 115.51 88.8799 115.98 88.0499C116.45 87.2199 115.62 85.6199 116.12 84.8099C116.62 83.9999 117.33 83.2899 117.87 82.4999C118.4 81.7099 118.85 80.8199 119.41 80.0499C119.97 79.2799 120.58 78.5099 121.17 77.7599C121.76 77.0099 122.43 76.2899 123.05 75.5599C123.67 74.8299 124.26 74.0499 124.91 73.3399C125.56 72.6399 126.75 72.4499 127.43 71.7699C128.11 71.0899 128.88 70.5299 129.58 69.8799C130.28 69.2299 131.39 69.0699 132.11 68.4499C132.84 67.8299 133.48 67.1599 134.23 66.5699C134.98 65.9799 135.28 64.8099 136.05 64.2499C136.82 63.6899 137.68 63.2599 138.48 62.7199C139.28 62.1799 139.58 60.8699 140.39 60.3699C141.2 59.8699 142.32 59.8399 143.15 59.3699C143.98 58.8999 145.31 59.3699 146.16 58.9399C147.01 58.5099 147.33 56.9999 148.2 56.5999C149.07 56.1999 150.26 56.5299 151.14 56.1699C152.02 55.7999 152.46 54.2799 153.36 53.9499C154.26 53.6199 155.63 54.6399 156.54 54.3499C157.45 54.0599 158.32 53.7199 159.25 53.4599C160.17 53.1999 161.12 53.1399 162.05 52.9099C162.98 52.6799 163.67 51.3999 164.61 51.2099C165.54 51.0299 166.44 50.4499 167.39 50.2999C168.33 50.1499 169.51 51.7099 170.47 51.5999C171.43 51.4899 172.34 51.4099 173.29 51.3399C174.24 51.2699 175.11 49.8199 176.07 49.7799C177.03 49.7399 178 51.1899 178.96 51.1899C179.92 51.1899 180.86 50.7599 181.81 50.7999C182.76 50.8399 183.69 51.1299 184.64 51.1999C185.6 51.2699 186.71 49.7299 187.66 49.8399C188.61 49.9499 189.38 51.4699 190.32 51.6199C191.26 51.7699 192.13 52.2599 193.06 52.4399C194 52.6299 194.86 53.0199 195.79 53.2399C196.72 53.4599 198.06 52.0899 198.98 52.3499C199.9 52.6099 200.54 53.8399 201.44 54.1399C202.34 54.4399 203.69 53.5399 204.58 53.8699C205.48 54.1999 206.15 55.1899 207.03 55.5599C207.91 55.9299 208.9 56.0999 209.77 56.4999C210.64 56.8999 210.89 58.5599 211.74 58.9999C212.59 59.4399 213.78 59.1999 214.61 59.6699C215.44 60.1399 216.32 60.5299 217.13 61.0299C217.95 61.5299 218.81 61.9599 219.6 62.4899C220.39 63.0199 220.54 64.4599 221.31 65.0299C222.08 65.5999 223.38 65.4299 224.13 66.0199C224.88 66.6099 225.71 67.1099 226.44 67.7299C227.17 68.3499 227.87 68.9999 228.57 69.6499C229.27 70.2999 230.07 70.8599 230.75 71.5299C231.43 72.2099 231.34 73.5999 231.98 74.3099C232.63 75.0099 233.93 75.1199 234.55 75.8499C235.17 76.5799 236.12 77.0499 236.71 77.7999C237.3 78.5499 237.55 79.5799 238.11 80.3499C238.67 81.1199 239.48 81.7399 240.01 82.5299C240.54 83.3199 240.78 84.3199 241.28 85.1399C241.78 85.9599 242.45 86.6799 242.91 87.5099C243.37 88.3399 242.93 89.6599 243.36 90.5099C243.79 91.3599 243.95 92.3099 244.35 93.1799C244.75 94.0499 246.02 94.5099 246.39 95.3899C246.76 96.2699 247.04 97.1799 247.38 98.0799C247.71 98.9699 247.86 99.9299 248.16 100.84C248.45 101.75 249.37 102.47 249.63 103.39C249.89 104.31 248.98 105.53 249.2 106.46C249.42 107.39 249.47 108.32 249.66 109.26C249.84 110.19 251.4 110.88 251.55 111.83C251.7 112.77 251.46 113.78 251.57 114.73C251.68 115.68 250.9 116.7 250.98 117.66C251.05 118.61 251.4 119.52 251.43 120.48C251.46 121.44 252.14 122.37 252.14 123.33L252.23 123.32Z" fill="#FF7CAE"/>
<path d="M179.14 154.67C196.41 154.67 210.41 140.67 210.41 123.4C210.41 106.13 196.41 92.1299 179.14 92.1299C161.87 92.1299 147.87 106.13 147.87 123.4C147.87 140.67 161.87 154.67 179.14 154.67Z" fill="#FAEECE"/>
<path fill-rule="evenodd" clip-rule="evenodd" d="M1293.24 238.265C1293.24 238.265 1293.24 238.267 1297.22 237.82C1301.19 237.373 1301.2 237.376 1301.2 237.38L1301.2 237.431C1301.2 237.463 1301.21 237.509 1301.22 237.568C1301.23 237.686 1301.25 237.856 1301.27 238.078C1301.31 238.52 1301.36 239.167 1301.43 240.002C1301.55 241.674 1301.71 244.106 1301.81 247.188C1302.02 253.352 1302.04 262.127 1301.29 272.639C1299.8 293.64 1295.23 321.702 1282.88 349.742C1270.52 377.817 1250.34 405.901 1217.65 426.766C1184.97 447.628 1140.07 461.087 1078.6 460.4L1078.68 452.4C1138.93 453.073 1182.22 439.889 1213.35 420.023C1244.47 400.159 1263.71 373.428 1275.56 346.518C1287.43 319.573 1291.86 292.48 1293.31 272.072C1294.04 261.88 1294.02 253.387 1293.82 247.459C1293.72 244.496 1293.57 242.175 1293.45 240.607C1293.39 239.822 1293.34 239.226 1293.3 238.832C1293.28 238.634 1293.27 238.487 1293.26 238.393L1293.25 238.29L1293.25 238.268L1293.24 238.265Z" fill="#46A646"/>
<path d="M1200.46 431.97C1200.46 431.97 1165.34 463.73 1196.96 511.34C1196.96 511.34 1235.72 481.4 1200.46 431.97Z" fill="#46A646"/>
<path d="M1274.65 357.77C1274.65 357.77 1249.24 399.17 1197.22 385.19C1197.22 385.19 1230.92 327.23 1274.65 357.77Z" fill="#46A646"/>
<path d="M1026.88 404.64C1027.56 403.96 1027.91 402.92 1028.61 402.27C1029.31 401.62 1030.67 401.69 1031.39 401.07C1032.11 400.45 1032.08 398.87 1032.82 398.28C1033.57 397.69 1035.5 398.64 1036.27 398.07C1037.04 397.5 1037.04 395.85 1037.84 395.32C1038.64 394.79 1039.95 395.07 1040.76 394.57C1041.57 394.07 1042 392.91 1042.83 392.44C1043.67 391.97 1044.76 391.99 1045.61 391.55C1046.46 391.12 1047.1 390.24 1047.97 389.84C1048.84 389.44 1050.13 390.02 1051.01 389.66C1051.89 389.29 1052.3 387.72 1053.2 387.39C1054.1 387.06 1055.12 387.04 1056.03 386.75C1056.94 386.46 1058.02 386.75 1058.94 386.49C1059.86 386.23 1060.68 385.62 1061.61 385.4C1062.54 385.18 1063.33 384.25 1064.27 384.06C1065.21 383.87 1066.42 385.24 1067.36 385.09C1068.3 384.94 1069.15 384.25 1070.1 384.14C1071.05 384.03 1072.02 384.29 1072.97 384.22C1073.92 384.15 1074.84 383.77 1075.8 383.73C1076.76 383.69 1077.7 383.55 1078.66 383.55C1079.62 383.55 1080.54 384.29 1081.49 384.33C1082.44 384.37 1083.48 382.89 1084.44 382.96C1085.39 383.03 1086.24 384.27 1087.18 384.38C1088.13 384.49 1089.26 383.34 1090.2 383.49C1091.14 383.64 1092.01 384.35 1092.95 384.54C1093.89 384.73 1094.85 384.85 1095.78 385.07C1096.71 385.29 1097.35 386.6 1098.27 386.86C1099.19 387.12 1100.5 386.09 1101.41 386.38C1102.32 386.67 1103.38 386.63 1104.28 386.96C1105.18 387.29 1105.94 388.05 1106.82 388.41C1107.7 388.77 1108.5 389.39 1109.37 389.79C1110.24 390.19 1111.16 390.51 1112.01 390.94C1112.86 391.37 1113.35 392.48 1114.19 392.95C1115.03 393.42 1115.82 393.92 1116.64 394.42C1117.46 394.92 1118.31 395.33 1119.1 395.87C1119.89 396.4 1120.58 397.07 1121.35 397.63C1122.12 398.19 1122.82 398.82 1123.57 399.42C1124.32 400.01 1125.21 400.41 1125.93 401.04C1126.65 401.66 1127.91 401.69 1128.62 402.34C1129.33 402.99 1129.92 403.77 1130.59 404.45C1131.27 405.13 1131.22 406.5 1131.86 407.2C1132.51 407.9 1134.24 407.65 1134.86 408.38C1135.48 409.11 1135.2 410.6 1135.79 411.34C1136.38 412.08 1137.77 412.26 1138.33 413.03C1138.89 413.8 1139.36 414.68 1139.89 415.47C1140.42 416.27 1140.34 417.47 1140.84 418.28C1141.34 419.09 1142.67 419.44 1143.14 420.28C1143.61 421.12 1142.53 422.78 1142.96 423.63C1143.39 424.48 1144.92 424.8 1145.32 425.66C1145.72 426.52 1145.98 427.47 1146.34 428.35C1146.71 429.23 1147.12 430.11 1147.45 431.01C1147.78 431.91 1146.86 433.22 1147.16 434.13C1147.46 435.04 1148.88 435.59 1149.14 436.51C1149.4 437.43 1150.16 438.24 1150.38 439.17C1150.6 440.1 1149.43 441.34 1149.62 442.27C1149.81 443.2 1150.91 443.98 1151.05 444.92C1151.19 445.86 1150.89 446.87 1151 447.82C1151.11 448.77 1150.59 449.76 1150.66 450.72C1150.73 451.68 1151.04 452.59 1151.08 453.54C1151.12 454.49 1150.87 455.43 1150.87 456.39C1150.87 457.35 1151.72 458.3 1151.68 459.26C1151.64 460.22 1150.81 461.11 1150.74 462.06C1150.67 463.01 1150.9 463.97 1150.79 464.92C1150.68 465.87 1151.79 467 1151.65 467.94C1151.5 468.88 1150.66 469.73 1150.47 470.66C1150.28 471.6 1149.92 472.5 1149.7 473.43C1149.48 474.36 1148.92 475.2 1148.67 476.12C1148.41 477.04 1149.33 478.33 1149.04 479.24C1148.75 480.15 1148.39 481.07 1148.06 481.97C1147.73 482.87 1145.7 483.1 1145.33 483.98C1144.97 484.86 1145.43 486.09 1145.03 486.96C1144.63 487.83 1143.58 488.37 1143.15 489.22C1142.72 490.07 1143.27 491.44 1142.8 492.28C1142.33 493.11 1142.17 494.15 1141.66 494.97C1141.16 495.78 1140.44 496.49 1139.91 497.29C1139.38 498.08 1138.25 498.47 1137.68 499.24C1137.12 500.01 1137.16 501.26 1136.57 502.01C1135.98 502.76 1134.65 502.92 1134.03 503.65C1133.41 504.37 1132.84 505.14 1132.19 505.84C1131.54 506.54 1130.78 507.12 1130.1 507.8C1129.42 508.48 1128.41 508.78 1127.71 509.42C1127.01 510.07 1126.44 510.84 1125.72 511.46C1124.99 512.08 1125.19 513.84 1124.44 514.43C1123.69 515.02 1121.83 514.16 1121.06 514.72C1120.29 515.28 1120.06 516.61 1119.27 517.14C1118.48 517.67 1117.95 518.66 1117.14 519.16C1116.33 519.66 1115.63 520.44 1114.8 520.9C1113.96 521.37 1112.83 521.32 1111.98 521.76C1111.13 522.19 1110.44 523.02 1109.57 523.42C1108.7 523.82 1107.12 522.59 1106.24 522.95C1105.36 523.31 1104.71 524.21 1103.81 524.54C1102.91 524.87 1102.35 526.18 1101.44 526.47C1100.53 526.76 1099.18 525.59 1098.26 525.85C1097.34 526.11 1096.8 527.82 1095.87 528.04C1094.94 528.26 1093.94 528.26 1093 528.44C1092.06 528.63 1091.12 528.93 1090.18 529.08C1089.24 529.23 1088.26 529.34 1087.31 529.46C1086.36 529.58 1085.38 529.61 1084.43 529.68C1083.48 529.75 1082.51 529.9 1081.55 529.93C1080.59 529.96 1079.62 529.26 1078.66 529.26C1077.7 529.26 1076.76 529.11 1075.8 529.07C1074.85 529.03 1073.95 528.37 1073 528.29C1072.05 528.22 1071.12 528.23 1070.17 528.12C1069.22 528.01 1068.19 528.62 1067.24 528.47C1066.29 528.32 1065.38 528.02 1064.44 527.83C1063.5 527.64 1062.35 528.37 1061.42 528.14C1060.49 527.92 1059.68 527.15 1058.76 526.89C1057.84 526.63 1057.24 525.36 1056.33 525.07C1055.42 524.78 1054.13 525.61 1053.23 525.28C1052.33 524.95 1051.73 523.87 1050.84 523.51C1049.96 523.15 1048.57 523.91 1047.7 523.51C1046.83 523.11 1046.58 521.42 1045.73 520.98C1044.88 520.55 1044.02 520.17 1043.19 519.7C1042.36 519.23 1041.64 518.61 1040.82 518.11C1040 517.61 1038.61 518.03 1037.81 517.5C1037.02 516.97 1035.98 516.75 1035.2 516.18C1034.42 515.61 1034.7 513.68 1033.94 513.09C1033.18 512.5 1032.49 511.9 1031.76 511.28C1031.04 510.66 1029.4 511.07 1028.69 510.42C1027.98 509.77 1028.32 508.06 1027.64 507.38C1026.96 506.7 1025.99 506.34 1025.35 505.64C1024.7 504.94 1024.25 504.08 1023.64 503.35C1023.02 502.62 1021.13 502.92 1020.54 502.17C1019.95 501.42 1020.48 499.8 1019.92 499.03C1019.36 498.26 1019.09 497.3 1018.56 496.51C1018.03 495.72 1017.7 494.83 1017.2 494.02C1016.7 493.21 1014.78 493.23 1014.31 492.39C1013.84 491.55 1014.27 490.23 1013.83 489.38C1013.4 488.53 1011.82 488.21 1011.42 487.35C1011.02 486.48 1011.25 485.31 1010.88 484.43C1010.51 483.55 1009.94 482.73 1009.61 481.83C1009.28 480.93 1010.28 479.58 1009.98 478.67C1009.68 477.76 1008.68 477.08 1008.42 476.16C1008.16 475.24 1007.82 474.34 1007.6 473.41C1007.38 472.48 1007.07 471.56 1006.89 470.63C1006.71 469.7 1007.62 468.57 1007.48 467.63C1007.34 466.69 1006.3 465.88 1006.18 464.93C1006.06 463.98 1005.83 463.04 1005.76 462.09C1005.69 461.14 1005.65 460.18 1005.61 459.22C1005.57 458.26 1005.4 457.31 1005.4 456.35C1005.4 455.39 1006.45 454.47 1006.49 453.51C1006.53 452.55 1005.68 451.56 1005.76 450.61C1005.83 449.66 1005.5 448.65 1005.61 447.7C1005.72 446.75 1006.27 445.85 1006.42 444.9C1006.57 443.95 1006.42 442.95 1006.62 442.01C1006.81 441.07 1007.34 440.2 1007.57 439.27C1007.79 438.34 1007.83 437.36 1008.09 436.44C1008.35 435.52 1009.59 434.91 1009.89 434C1010.19 433.09 1010.75 432.31 1011.08 431.41C1011.41 430.51 1010.84 429.29 1011.2 428.4C1011.56 427.52 1012.01 426.67 1012.41 425.8C1012.81 424.93 1013.37 424.15 1013.81 423.3C1014.24 422.45 1014.1 421.29 1014.57 420.45C1015.04 419.61 1016.54 419.4 1017.04 418.59C1017.54 417.78 1018.16 417.08 1018.7 416.29C1019.24 415.5 1018.62 413.91 1019.18 413.14C1019.74 412.37 1020.62 411.82 1021.22 411.07C1021.81 410.32 1023.08 410.15 1023.71 409.42C1024.34 408.69 1024.73 407.81 1025.38 407.1C1026.03 406.4 1026.22 405.26 1026.9 404.59L1026.88 404.64Z" fill="#FF7CAE"/>
<path d="M1078.61 487.54C1095.88 487.54 1109.88 473.54 1109.88 456.27C1109.88 439 1095.88 425 1078.61 425C1061.34 425 1047.34 439 1047.34 456.27C1047.34 473.54 1061.34 487.54 1078.61 487.54Z" fill="#FAEECE"/>
<path fill-rule="evenodd" clip-rule="evenodd" d="M106.212 426.129L60.7422 115.139L68.658 113.981L114.128 424.971L106.212 426.129Z" fill="#2D892D"/>
<path d="M66.1198 149.7C45.6498 149.7 29.0498 133.1 29.0498 112.63V39.74H90.8598L102.62 106.17C106.64 128.87 89.1698 149.7 66.1198 149.7Z" fill="#EB3F24"/>
<path fill-rule="evenodd" clip-rule="evenodd" d="M602.404 243.856L560.324 555.326L552.396 554.254L594.476 242.784L602.404 243.856Z" fill="#46A646"/>
<path d="M587.12 298.31C559.69 291.55 542.93 263.84 549.69 236.41L573.75 138.74L656.57 159.14L650.39 252.03C648.28 283.78 618.01 305.91 587.11 298.3L587.12 298.31Z" fill="#F25B2F"/>
<path d="M562.99 431.73L548.03 426.4C546.32 425.79 545.17 424.17 545.17 422.35V419.66C545.17 417.91 544.11 416.33 542.49 415.67L533.38 411.96C531.48 411.19 530.39 409.18 530.78 407.16L531.79 401.9C532.12 400.18 531.38 398.43 529.9 397.47L522.56 392.71C521.06 391.73 520.31 389.93 520.7 388.18L521.73 383.46C522.07 381.89 521.51 380.25 520.27 379.23L515.69 375.44C514.58 374.52 514.01 373.11 514.16 371.68L516.09 353C516.39 350.07 519.49 348.3 522.17 349.53L542.1 358.7C543.63 359.4 544.61 360.93 544.61 362.61V366.7C544.61 368.6 545.85 370.27 547.67 370.82L553.3 372.53C555.12 373.08 556.36 374.75 556.36 376.65V379.86C556.36 382.13 558.12 384.01 560.39 384.16L563.46 384.36C565.73 384.51 567.49 386.39 567.49 388.66V399.82C567.49 402.2 569.42 404.12 571.79 404.12C574.4 404.12 576.4 406.42 576.06 409L573.16 430.47C572.76 433.41 569.57 435.08 566.93 433.72L563.51 431.96C563.34 431.87 563.17 431.8 562.99 431.73Z" fill="#46A646"/>
<path d="M84.8102 309.51L68.9702 310.64C67.1502 310.77 65.4502 309.74 64.7202 308.08L63.6402 305.62C62.9402 304.02 61.3302 303 59.5802 303.05L49.7402 303.31C47.6902 303.36 45.8802 301.96 45.4302 299.96L44.2502 294.74C43.8602 293.03 42.4802 291.73 40.7402 291.44L32.1102 290.03C30.3402 289.74 28.9302 288.39 28.5802 286.63L27.6302 281.89C27.3102 280.31 26.1402 279.04 24.5902 278.6L18.8702 276.97C17.4902 276.57 16.3902 275.52 15.9502 274.15L10.2202 256.27C9.32015 253.46 11.4502 250.6 14.3902 250.65L36.3202 251.04C38.0002 251.07 39.5102 252.07 40.1902 253.61L41.8302 257.36C42.5902 259.1 44.4002 260.13 46.2802 259.9L52.1202 259.2C54.0002 258.97 55.8102 260.01 56.5702 261.74L57.8602 264.68C58.7702 266.76 61.1402 267.77 63.2802 266.99L66.1702 265.94C68.3002 265.16 70.6702 266.18 71.5901 268.25L76.0702 278.47C77.0302 280.65 79.5602 281.64 81.7402 280.68C84.1301 279.63 86.8902 280.93 87.6102 283.44L93.5802 304.26C94.4002 307.12 92.1502 309.92 89.1802 309.74L85.3401 309.51C85.1501 309.5 84.9602 309.5 84.7701 309.51H84.8102Z" fill="#2D892D"/>
<path d="M577.72 394.5L579.41 378.71C579.6 376.9 580.92 375.41 582.69 374.98L585.31 374.35C587.01 373.94 588.3 372.54 588.56 370.81L590.04 361.08C590.35 359.05 592.05 357.52 594.1 357.43L599.45 357.19C601.2 357.11 602.73 355.98 603.31 354.32L606.22 346.08C606.82 344.39 608.4 343.25 610.19 343.21L615.02 343.11C616.63 343.08 618.09 342.15 618.8 340.7L621.42 335.36C622.05 334.07 623.29 333.18 624.72 332.99L643.33 330.51C646.25 330.12 648.69 332.72 648.12 335.61L643.85 357.13C643.52 358.78 642.27 360.09 640.63 360.48L636.65 361.43C634.81 361.87 633.47 363.47 633.36 365.36L633.02 371.24C632.91 373.13 631.57 374.73 629.73 375.17L626.61 375.92C624.4 376.45 622.99 378.6 623.37 380.84L623.89 383.87C624.28 386.11 622.86 388.26 620.65 388.79L609.8 391.39C607.49 391.94 606.06 394.27 606.62 396.58C607.23 399.11 605.46 401.6 602.87 401.87L581.32 404.06C578.36 404.36 576 401.65 576.7 398.76L577.61 395.03C577.65 394.85 577.69 394.66 577.71 394.47L577.72 394.5Z" fill="#46A646"/>
<path d="M573.76 138.74C573.76 138.74 606.87 173.81 602.39 219.28C602.39 219.28 615.45 171.45 656.58 159.15L573.76 138.75V138.74Z" fill="#EB3F24"/>
<path d="M1000.55 43.79C1047.83 43.79 1086.22 82.18 1086.22 129.46C1038.94 129.46 1000.55 91.07 1000.55 43.79Z" fill="#F25F02"/>
<path d="M1197.23 87.8225C1224.59 49.2689 1278.12 40.1867 1316.68 67.5549C1289.31 106.109 1235.78 115.191 1197.23 87.8225Z" fill="#F25B2F"/>
<path d="M596.859 435.528C624.228 396.974 677.754 387.892 716.308 415.261C688.94 453.814 635.413 462.896 596.859 435.528Z" fill="#F25F02"/>
<path d="M383.12 17.8398C383.12 65.1198 344.73 103.51 297.45 103.51C297.45 56.2298 335.84 17.8398 383.12 17.8398Z" fill="#F25F02"/>
<path fill-rule="evenodd" clip-rule="evenodd" d="M14.0552 254.453L93.6052 306.953L93.0544 307.787L13.5044 255.287L14.0552 254.453Z" fill="#1C731C"/>
<path fill-rule="evenodd" clip-rule="evenodd" d="M1196.89 384.247L1274.32 356.827L1274.98 358.713L1197.55 386.133L1196.89 384.247Z" fill="#2D892D"/>
<path fill-rule="evenodd" clip-rule="evenodd" d="M1195.96 511.296L1199.46 431.926L1201.46 432.014L1197.96 511.384L1195.96 511.296Z" fill="#2D892D"/>
<path fill-rule="evenodd" clip-rule="evenodd" d="M642.108 337.156L581.378 399.746L579.942 398.354L640.672 335.764L642.108 337.156Z" fill="#2D892D"/>
<path fill-rule="evenodd" clip-rule="evenodd" d="M567.652 429.526L519.152 355.066L520.828 353.974L569.328 428.434L567.652 429.526Z" fill="#2D892D"/>
<path fill-rule="evenodd" clip-rule="evenodd" d="M109.268 331.24L144.628 257.089L146.433 257.95L111.073 332.1L109.268 331.24Z" fill="#2D892D"/>
<path fill-rule="evenodd" clip-rule="evenodd" d="M28.1045 40.0655C28.1041 40.0644 28.1039 40.0638 29.05 39.7398C29.996 39.4158 29.9961 39.416 29.9963 39.4166L30.0021 39.4336L30.0217 39.49C30.0391 39.5403 30.0655 39.6158 30.1004 39.7153C30.1704 39.9141 30.275 40.2087 30.4128 40.5891C30.6883 41.3499 31.0963 42.4537 31.6248 43.8214C32.6819 46.5573 34.2196 50.3457 36.1412 54.5541C39.9964 62.9969 45.3527 73.0302 51.4234 79.678C54.461 83.0042 57.6007 85.3965 60.7382 86.3782C63.8113 87.3397 66.9592 86.9753 70.1838 84.6212C73.4612 82.2284 76.8488 77.7524 80.1971 70.4184C83.5386 63.0992 86.8036 53.0175 89.8851 39.5173L91.8349 39.9623C88.7364 53.5371 85.4348 63.7616 82.0164 71.249C78.6048 78.7217 75.0391 83.5527 71.3631 86.2365C67.6342 88.9589 63.8285 89.4407 60.141 88.2869C56.518 87.1534 53.0903 84.4691 49.9466 81.0266C43.6548 74.1369 38.1936 63.8639 34.3219 55.3848C32.3801 51.1323 30.827 47.3059 29.7592 44.5422C29.2251 43.16 28.8122 42.0429 28.5323 41.2701C28.3924 40.8837 28.2857 40.5834 28.2138 40.379C28.1779 40.2769 28.1506 40.1987 28.1322 40.1457L28.1113 40.0854L28.1045 40.0655Z" fill="#F25B2F"/>
</g>
</g>
<defs>
<clipPath id="clip0_1528_83727">
<rect width="1335" height="464" fill="white"/>
</clipPath>
</defs>
</svg>
