<svg width="1335" height="464" viewBox="0 0 1335 464" fill="none" xmlns="http://www.w3.org/2000/svg">
<g clip-path="url(#clip0_1528_82961)">
<rect width="1335" height="464" fill="#FFD985"/>
<mask id="mask0_1528_82961" style="mask-type:luminance" maskUnits="userSpaceOnUse" x="0" y="0" width="1335" height="464">
<path d="M1335 0H0V464H1335V0Z" fill="white"/>
</mask>
<g mask="url(#mask0_1528_82961)">
<path d="M1335 0H0V464H1335V0Z" fill="#FFD985"/>
<path d="M1118.21 309.47L1088.55 314.11C1065.84 317.67 1045.88 331.13 1034.07 350.86C1025.48 365.22 1009.97 374.01 993.24 374.01H957.19C922.57 374.01 889.01 386.01 862.24 407.96L793.91 463.99H1078.48C1095.67 463.99 1109.35 449.59 1108.46 432.42L1108.4 431.28C1107.75 418.8 1115.6 407.45 1127.5 403.64C1140.57 399.46 1148.68 386.43 1146.68 372.86L1140.96 334.14L1118.21 309.46" fill="#FFD7E5"/>
<path d="M1102.72 56.08L1003.96 34.45C990.46 31.49 976.38 35.62 966.61 45.39L755.51 256.49C745.74 266.26 741.61 280.34 744.57 293.84L766.2 392.6C774.16 428.97 810.1 452 846.48 444.04L847.66 443.78C884.03 435.82 907.06 399.88 899.1 363.5L895.12 345.34L895.37 345.09L1055.23 185.23L1055.48 184.98L1073.64 188.96C1110.01 196.92 1145.95 173.9 1153.92 137.52L1154.18 136.34C1162.14 99.97 1139.12 64.03 1102.74 56.06L1102.72 56.08Z" fill="#423772"/>
<path d="M937.536 88.3048L798.419 227.421C796.342 229.499 796.342 232.867 798.419 234.945L891.255 327.781C893.333 329.858 896.701 329.858 898.779 327.781L1037.9 188.664C1039.97 186.587 1039.97 183.219 1037.9 181.141L945.059 88.3049C942.981 86.2273 939.613 86.2272 937.536 88.3048Z" fill="#58AF67"/>
<path d="M1031.55 174.8L1037.9 181.15C1039.98 183.23 1039.98 186.59 1037.9 188.67L898.78 327.79C896.71 329.86 893.34 329.87 891.26 327.79L884.91 321.44L1031.55 174.8Z" fill="#CDE6D0"/>
<path d="M1024.29 167.53L1031.61 174.85L971.81 234.65L967.22 228.01C966.37 226.79 965.45 225.67 964.44 224.66C955.42 215.64 940.41 215.3 931 224.71C929.25 226.46 926.95 227.34 924.65 227.34C922.34 227.34 920.04 226.46 918.29 224.7C912.85 219.26 904.02 219.26 898.58 224.7L873.39 249.89C871.17 252.11 868.27 253.22 865.36 253.22C862.45 253.22 859.54 252.11 857.32 249.89C848.91 258.3 835.28 258.29 826.88 249.89L825.09 248.1C821.36 244.37 815.31 244.37 811.58 248.1L801.93 238.45C902.11 138.27 994.03 157.24 1024.29 167.53Z" fill="#FEEECC"/>
<path fill-rule="evenodd" clip-rule="evenodd" d="M799.126 228.128C797.439 229.815 797.439 232.55 799.126 234.238L891.962 327.074C893.649 328.761 896.385 328.761 898.072 327.074L1037.19 187.957C1038.88 186.27 1038.88 183.535 1037.19 181.848L944.352 89.012C942.665 87.3249 939.93 87.3249 938.243 89.0119L799.126 228.128ZM797.712 235.652C795.244 233.184 795.244 229.182 797.712 226.714L936.828 87.5977C939.296 85.1296 943.298 85.1296 945.766 87.5978L1038.6 180.434C1041.07 182.902 1041.07 186.903 1038.6 189.372L899.486 328.488C897.018 330.956 893.016 330.956 890.548 328.488L797.712 235.652Z" fill="#161616"/>
<path d="M781.14 223.82L756.65 242.43C752.2 245.81 751.75 252.35 755.71 256.3L787.74 224.27C785.96 222.49 783.14 222.3 781.14 223.82Z" fill="#B7B3B2"/>
<path d="M933.93 71.03L952.54 46.54C955.92 42.09 962.46 41.64 966.41 45.6L934.38 77.63C932.6 75.85 932.41 73.03 933.93 71.03Z" fill="#E8E8E8"/>
<path d="M996.16 122.87C1005.71 122.87 1013.45 115.129 1013.45 105.58C1013.45 96.031 1005.71 88.29 996.16 88.29C986.611 88.29 978.87 96.031 978.87 105.58C978.87 115.129 986.611 122.87 996.16 122.87Z" fill="#313030"/>
<path d="M996.16 116.79C1002.35 116.79 1007.37 111.771 1007.37 105.58C1007.37 99.3889 1002.35 94.37 996.16 94.37C989.969 94.37 984.95 99.3889 984.95 105.58C984.95 111.771 989.969 116.79 996.16 116.79Z" fill="#E8E8E8"/>
<path d="M827.93 315.56C837.479 315.56 845.22 307.819 845.22 298.27C845.22 288.721 837.479 280.98 827.93 280.98C818.381 280.98 810.64 288.721 810.64 298.27C810.64 307.819 818.381 315.56 827.93 315.56Z" fill="#313030"/>
<path d="M827.93 309.48C834.121 309.48 839.14 304.461 839.14 298.27C839.14 292.079 834.121 287.06 827.93 287.06C821.739 287.06 816.72 292.079 816.72 298.27C816.72 304.461 821.739 309.48 827.93 309.48Z" fill="#E8E8E8"/>
<path d="M827.93 364.47C837.479 364.47 845.22 356.729 845.22 347.18C845.22 337.631 837.479 329.89 827.93 329.89C818.381 329.89 810.64 337.631 810.64 347.18C810.64 356.729 818.381 364.47 827.93 364.47Z" fill="#313030"/>
<path d="M827.93 358.39C834.121 358.39 839.14 353.371 839.14 347.18C839.14 340.989 834.121 335.97 827.93 335.97C821.739 335.97 816.72 340.989 816.72 347.18C816.72 353.371 821.739 358.39 827.93 358.39Z" fill="#E8E8E8"/>
<path d="M1027.39 159.29C1030.04 159.29 1032.18 157.145 1032.18 154.5C1032.18 151.855 1030.04 149.71 1027.39 149.71C1024.74 149.71 1022.6 151.855 1022.6 154.5C1022.6 157.145 1024.74 159.29 1027.39 159.29Z" fill="#313030"/>
<path d="M1036.23 168.13C1038.88 168.13 1041.02 165.985 1041.02 163.34C1041.02 160.695 1038.88 158.55 1036.23 158.55C1033.58 158.55 1031.44 160.695 1031.44 163.34C1031.44 165.985 1033.58 168.13 1036.23 168.13Z" fill="#313030"/>
<path d="M1045.07 159.29C1047.72 159.29 1049.86 157.145 1049.86 154.5C1049.86 151.855 1047.72 149.71 1045.07 149.71C1042.42 149.71 1040.28 151.855 1040.28 154.5C1040.28 157.145 1042.42 159.29 1045.07 159.29Z" fill="#313030"/>
<path d="M791.44 248C792.572 248 793.49 247.082 793.49 245.95C793.49 244.818 792.572 243.9 791.44 243.9C790.308 243.9 789.39 244.818 789.39 245.95C789.39 247.082 790.308 248 791.44 248Z" fill="#313030"/>
<path d="M786.16 253.28C787.292 253.28 788.21 252.362 788.21 251.23C788.21 250.098 787.292 249.18 786.16 249.18C785.028 249.18 784.11 250.098 784.11 251.23C784.11 252.362 785.028 253.28 786.16 253.28Z" fill="#313030"/>
<path d="M780.88 258.56C782.012 258.56 782.93 257.642 782.93 256.51C782.93 255.378 782.012 254.46 780.88 254.46C779.748 254.46 778.83 255.378 778.83 256.51C778.83 257.642 779.748 258.56 780.88 258.56Z" fill="#4F4F4F"/>
<path d="M775.6 263.84C776.732 263.84 777.65 262.922 777.65 261.79C777.65 260.658 776.732 259.74 775.6 259.74C774.468 259.74 773.55 260.658 773.55 261.79C773.55 262.922 774.468 263.84 775.6 263.84Z" fill="#4F4F4F"/>
<path d="M796.3 252.85C797.432 252.85 798.35 251.932 798.35 250.8C798.35 249.668 797.432 248.75 796.3 248.75C795.168 248.75 794.25 249.668 794.25 250.8C794.25 251.932 795.168 252.85 796.3 252.85Z" fill="#313030"/>
<path d="M791.02 258.13C792.152 258.13 793.07 257.212 793.07 256.08C793.07 254.948 792.152 254.03 791.02 254.03C789.888 254.03 788.97 254.948 788.97 256.08C788.97 257.212 789.888 258.13 791.02 258.13Z" fill="#313030"/>
<path d="M785.73 263.41C786.862 263.41 787.78 262.492 787.78 261.36C787.78 260.228 786.862 259.31 785.73 259.31C784.598 259.31 783.68 260.228 783.68 261.36C783.68 262.492 784.598 263.41 785.73 263.41Z" fill="#313030"/>
<path d="M780.45 268.69C781.582 268.69 782.5 267.772 782.5 266.64C782.5 265.508 781.582 264.59 780.45 264.59C779.318 264.59 778.4 265.508 778.4 266.64C778.4 267.772 779.318 268.69 780.45 268.69Z" fill="#313030"/>
<path d="M801.15 257.7C802.282 257.7 803.2 256.782 803.2 255.65C803.2 254.518 802.282 253.6 801.15 253.6C800.018 253.6 799.1 254.518 799.1 255.65C799.1 256.782 800.018 257.7 801.15 257.7Z" fill="#313030"/>
<path d="M795.87 262.98C797.002 262.98 797.92 262.062 797.92 260.93C797.92 259.798 797.002 258.88 795.87 258.88C794.738 258.88 793.82 259.798 793.82 260.93C793.82 262.062 794.738 262.98 795.87 262.98Z" fill="#313030"/>
<path d="M790.59 268.26C791.722 268.26 792.64 267.342 792.64 266.21C792.64 265.078 791.722 264.16 790.59 264.16C789.458 264.16 788.54 265.078 788.54 266.21C788.54 267.342 789.458 268.26 790.59 268.26Z" fill="#313030"/>
<path d="M785.31 273.55C786.442 273.55 787.36 272.632 787.36 271.5C787.36 270.368 786.442 269.45 785.31 269.45C784.178 269.45 783.26 270.368 783.26 271.5C783.26 272.632 784.178 273.55 785.31 273.55Z" fill="#313030"/>
<path d="M806 262.55C807.132 262.55 808.05 261.632 808.05 260.5C808.05 259.368 807.132 258.45 806 258.45C804.868 258.45 803.95 259.368 803.95 260.5C803.95 261.632 804.868 262.55 806 262.55Z" fill="#313030"/>
<path d="M800.72 267.84C801.852 267.84 802.77 266.922 802.77 265.79C802.77 264.658 801.852 263.74 800.72 263.74C799.588 263.74 798.67 264.658 798.67 265.79C798.67 266.922 799.588 267.84 800.72 267.84Z" fill="#313030"/>
<path d="M795.44 273.12C796.572 273.12 797.49 272.202 797.49 271.07C797.49 269.938 796.572 269.02 795.44 269.02C794.308 269.02 793.39 269.938 793.39 271.07C793.39 272.202 794.308 273.12 795.44 273.12Z" fill="#313030"/>
<path d="M790.16 278.4C791.292 278.4 792.21 277.482 792.21 276.35C792.21 275.218 791.292 274.3 790.16 274.3C789.028 274.3 788.11 275.218 788.11 276.35C788.11 277.482 789.028 278.4 790.16 278.4Z" fill="#313030"/>
<path d="M971.91 67.53C973.042 67.53 973.96 66.6122 973.96 65.48C973.96 64.3478 973.042 63.43 971.91 63.43C970.778 63.43 969.86 64.3478 969.86 65.48C969.86 66.6122 970.778 67.53 971.91 67.53Z" fill="#313030"/>
<path d="M966.63 72.81C967.762 72.81 968.68 71.8921 968.68 70.76C968.68 69.6278 967.762 68.71 966.63 68.71C965.498 68.71 964.58 69.6278 964.58 70.76C964.58 71.8921 965.498 72.81 966.63 72.81Z" fill="#313030"/>
<path d="M961.34 78.1C962.472 78.1 963.39 77.1822 963.39 76.05C963.39 74.9178 962.472 74 961.34 74C960.208 74 959.29 74.9178 959.29 76.05C959.29 77.1822 960.208 78.1 961.34 78.1Z" fill="#313030"/>
<path d="M956.06 83.38C957.192 83.38 958.11 82.4622 958.11 81.33C958.11 80.1978 957.192 79.28 956.06 79.28C954.928 79.28 954.01 80.1978 954.01 81.33C954.01 82.4622 954.928 83.38 956.06 83.38Z" fill="#313030"/>
<path d="M976.76 72.39C977.892 72.39 978.81 71.4722 978.81 70.34C978.81 69.2078 977.892 68.29 976.76 68.29C975.628 68.29 974.71 69.2078 974.71 70.34C974.71 71.4722 975.628 72.39 976.76 72.39Z" fill="#313030"/>
<path d="M971.48 77.67C972.612 77.67 973.53 76.7522 973.53 75.62C973.53 74.4878 972.612 73.57 971.48 73.57C970.348 73.57 969.43 74.4878 969.43 75.62C969.43 76.7522 970.348 77.67 971.48 77.67Z" fill="#313030"/>
<path d="M966.2 82.95C967.332 82.95 968.25 82.0322 968.25 80.9C968.25 79.7678 967.332 78.85 966.2 78.85C965.068 78.85 964.15 79.7678 964.15 80.9C964.15 82.0322 965.068 82.95 966.2 82.95Z" fill="#313030"/>
<path d="M960.92 88.23C962.052 88.23 962.97 87.3122 962.97 86.18C962.97 85.0478 962.052 84.13 960.92 84.13C959.788 84.13 958.87 85.0478 958.87 86.18C958.87 87.3122 959.788 88.23 960.92 88.23Z" fill="#313030"/>
<path d="M981.61 77.24C982.742 77.24 983.66 76.3222 983.66 75.19C983.66 74.0578 982.742 73.14 981.61 73.14C980.478 73.14 979.56 74.0578 979.56 75.19C979.56 76.3222 980.478 77.24 981.61 77.24Z" fill="#313030"/>
<path d="M976.33 82.52C977.462 82.52 978.38 81.6022 978.38 80.47C978.38 79.3378 977.462 78.42 976.33 78.42C975.198 78.42 974.28 79.3378 974.28 80.47C974.28 81.6022 975.198 82.52 976.33 82.52Z" fill="#313030"/>
<path d="M971.05 87.8C972.182 87.8 973.1 86.8822 973.1 85.75C973.1 84.6178 972.182 83.7 971.05 83.7C969.918 83.7 969 84.6178 969 85.75C969 86.8822 969.918 87.8 971.05 87.8Z" fill="#313030"/>
<path d="M965.77 93.08C966.902 93.08 967.82 92.1622 967.82 91.03C967.82 89.8978 966.902 88.98 965.77 88.98C964.638 88.98 963.72 89.8978 963.72 91.03C963.72 92.1622 964.638 93.08 965.77 93.08Z" fill="#313030"/>
<path d="M986.47 82.09C987.602 82.09 988.52 81.1722 988.52 80.04C988.52 78.9078 987.602 77.99 986.47 77.99C985.338 77.99 984.42 78.9078 984.42 80.04C984.42 81.1722 985.338 82.09 986.47 82.09Z" fill="#313030"/>
<path d="M981.18 87.37C982.312 87.37 983.23 86.4522 983.23 85.32C983.23 84.1878 982.312 83.27 981.18 83.27C980.048 83.27 979.13 84.1878 979.13 85.32C979.13 86.4522 980.048 87.37 981.18 87.37Z" fill="#313030"/>
<path d="M975.9 92.66C977.032 92.66 977.95 91.7422 977.95 90.61C977.95 89.4778 977.032 88.56 975.9 88.56C974.768 88.56 973.85 89.4778 973.85 90.61C973.85 91.7422 974.768 92.66 975.9 92.66Z" fill="#313030"/>
<path d="M970.62 97.94C971.752 97.94 972.67 97.0222 972.67 95.89C972.67 94.7578 971.752 93.84 970.62 93.84C969.488 93.84 968.57 94.7578 968.57 95.89C968.57 97.0222 969.488 97.94 970.62 97.94Z" fill="#313030"/>
<path d="M1029.9 127.32C1035.16 127.32 1039.43 123.053 1039.43 117.79C1039.43 112.527 1035.16 108.26 1029.9 108.26C1024.64 108.26 1020.37 112.527 1020.37 117.79C1020.37 123.053 1024.64 127.32 1029.9 127.32Z" fill="#FF5817"/>
<path d="M1029.9 102.91C1035.16 102.91 1039.43 98.6432 1039.43 93.38C1039.43 88.1167 1035.16 83.85 1029.9 83.85C1024.64 83.85 1020.37 88.1167 1020.37 93.38C1020.37 98.6432 1024.64 102.91 1029.9 102.91Z" fill="#46A6F6"/>
<path fill-rule="evenodd" clip-rule="evenodd" d="M756.924 255.076C757.705 255.857 757.705 257.123 756.924 257.904C747.636 267.193 743.71 280.578 746.524 293.412C746.76 294.491 746.077 295.557 744.998 295.794C743.919 296.03 742.853 295.347 742.616 294.268C739.51 280.102 743.844 265.327 754.096 255.076C754.877 254.295 756.143 254.295 756.924 255.076Z" fill="#161616"/>
<path fill-rule="evenodd" clip-rule="evenodd" d="M965.196 43.9858C975.447 33.7342 990.222 29.4002 1004.39 32.5064C1005.47 32.7429 1006.15 33.8094 1005.91 34.8883C1005.68 35.9673 1004.61 36.6501 1003.53 36.4136C990.698 33.5998 977.313 37.5257 968.024 46.8142C967.243 47.5952 965.977 47.5952 965.196 46.8142C964.415 46.0331 964.415 44.7668 965.196 43.9858Z" fill="#161616"/>
<path d="M778.018 263.892C784.459 259.457 785.095 249.202 779.438 240.987C773.782 232.772 763.975 229.707 757.533 234.142C751.092 238.577 750.456 248.833 756.113 257.048C761.77 265.263 771.577 268.327 778.018 263.892Z" fill="#313030"/>
<path d="M770.816 253.432C772.726 252.116 772.914 249.073 771.235 246.635C769.556 244.197 766.646 243.287 764.736 244.602C762.825 245.918 762.638 248.961 764.317 251.399C765.995 253.837 768.905 254.747 770.816 253.432Z" fill="#423772"/>
<path d="M866.468 236.419C872.909 231.984 873.545 221.729 867.888 213.514C862.231 205.298 852.424 202.234 845.983 206.669C839.542 211.104 838.906 221.359 844.563 229.574C850.219 237.79 860.027 240.854 866.468 236.419Z" fill="#313030"/>
<path d="M859.265 225.959C861.176 224.643 861.363 221.6 859.685 219.162C858.006 216.724 855.096 215.814 853.186 217.129C851.275 218.445 851.087 221.488 852.766 223.926C854.445 226.364 857.355 227.274 859.265 225.959Z" fill="#423772"/>
<path fill-rule="evenodd" clip-rule="evenodd" d="M937.528 139.582L943.668 159.342L942.713 159.638L936.573 139.878L937.528 139.582Z" fill="#05252E"/>
<path d="M913.45 142.84L947.01 132.42L949.89 141.7L914.89 147.48L913.45 142.84Z" fill="#05252E"/>
<path d="M944.48 194.21L734.31 259.44L725.82 232.09L742.76 226.87C754.52 223.22 765.31 217.3 774.59 209.55C783.8 201.87 791.5 192.42 797.19 181.6L800.2 175.89C802.04 172.36 804.44 169.17 807.24 166.44C811.53 162.2 816.8 159.02 822.67 157.2L887.64 137.03C897.31 134.03 907.78 134.98 916.75 139.71L947.99 156.15C964.31 164.74 962.1 188.76 944.5 194.22L944.48 194.21Z" fill="#FF5817"/>
<path d="M737.64 248.8C740.617 248.8 743.03 246.387 743.03 243.41C743.03 240.433 740.617 238.02 737.64 238.02C734.663 238.02 732.25 240.433 732.25 243.41C732.25 246.387 734.663 248.8 737.64 248.8Z" fill="#FBBA06"/>
<path d="M791.93 231.94C794.907 231.94 797.32 229.527 797.32 226.55C797.32 223.573 794.907 221.16 791.93 221.16C788.953 221.16 786.54 223.573 786.54 226.55C786.54 229.527 788.953 231.94 791.93 231.94Z" fill="#FBBA06"/>
<path d="M845.69 242.876C852.131 238.441 852.767 228.186 847.111 219.971C841.454 211.756 831.647 208.691 825.206 213.127C818.765 217.562 818.129 227.817 823.785 236.032C829.442 244.247 839.249 247.311 845.69 242.876Z" fill="#C6C6C6"/>
<path d="M838.488 232.416C840.398 231.1 840.586 228.057 838.907 225.619C837.229 223.181 834.319 222.271 832.408 223.587C830.498 224.902 830.31 227.945 831.989 230.383C833.668 232.821 836.577 233.731 838.488 232.416Z" fill="#423772"/>
<path d="M934.14 215.403C940.581 210.968 941.217 200.713 935.56 192.498C929.904 184.283 920.096 181.218 913.655 185.653C907.214 190.089 906.578 200.344 912.235 208.559C917.892 216.774 927.699 219.838 934.14 215.403Z" fill="#C6C6C6"/>
<path d="M926.937 204.943C928.848 203.627 929.036 200.584 927.357 198.146C925.678 195.708 922.768 194.798 920.858 196.114C918.947 197.429 918.76 200.472 920.438 202.91C922.117 205.348 925.027 206.258 926.937 204.943Z" fill="#423772"/>
<path d="M777.036 225.963L748.233 234.907C745.601 235.724 744.129 238.52 744.947 241.152L744.95 241.162C745.767 243.794 748.563 245.265 751.195 244.448L779.998 235.504C782.63 234.687 784.101 231.891 783.284 229.259L783.281 229.249C782.464 226.617 779.668 225.146 777.036 225.963Z" fill="#313030"/>
<path d="M852.43 152.41L834.12 187.21C832.57 190.16 829.9 192.38 826.72 193.37L774.57 209.56C783.78 201.88 791.48 192.43 797.17 181.61L800.18 175.9C802.02 172.37 804.42 169.18 807.22 166.45L852.42 152.41H852.43Z" fill="#FBBA06"/>
<path d="M855.44 152.79L840.74 181.6C839.06 184.88 842.17 188.57 845.69 187.47L877 177.75C879.2 177.07 880.43 174.73 879.74 172.53L872.87 150.42C872.19 148.22 869.85 146.99 867.65 147.68L857.91 150.7C856.84 151.03 855.94 151.78 855.43 152.79H855.44Z" fill="#FBBA06"/>
<path d="M891.79 141.5L920.23 156.91C923.47 158.67 923 163.46 919.48 164.55L888.17 174.27C885.97 174.95 883.64 173.72 882.95 171.53L876.08 149.42C875.4 147.22 876.63 144.89 878.82 144.2L888.56 141.18C889.63 140.85 890.79 140.96 891.78 141.5H891.79Z" fill="#FBBA06"/>
<path d="M1140.96 334.15L1118.21 309.47L1154.76 286.33L1166.99 299.6L1140.96 334.15Z" fill="#E8E8E8"/>
<path d="M1130.06 301.97L1143.21 331.17L1153.97 316.88L1136.49 297.9L1130.06 301.97Z" fill="#969595"/>
<path d="M1235.71 221.9L1229.6 223.02C1215.26 225.64 1201.96 232.28 1191.24 242.16L1133.86 295.04L1156.61 319.72L1213.99 266.84C1224.71 256.96 1232.41 244.24 1236.19 230.16L1237.8 224.16C1238.15 222.87 1237.03 221.66 1235.72 221.9H1235.71Z" fill="white"/>
<path d="M1142.91 309.477C1143.53 294.09 1156.53 282.108 1171.92 282.734C1171.29 298.122 1158.29 310.103 1142.91 309.477Z" fill="#E8E8E8"/>
<path d="M1205.68 261.52C1211.11 261.52 1215.52 257.114 1215.52 251.68C1215.52 246.245 1211.11 241.84 1205.68 241.84C1200.25 241.84 1195.84 246.245 1195.84 251.68C1195.84 257.114 1200.25 261.52 1205.68 261.52Z" fill="#423772"/>
<path d="M1205.68 259.29C1209.88 259.29 1213.29 255.883 1213.29 251.68C1213.29 247.477 1209.88 244.07 1205.68 244.07C1201.48 244.07 1198.07 247.477 1198.07 251.68C1198.07 255.883 1201.48 259.29 1205.68 259.29Z" fill="#FBBA06"/>
<path d="M1136.69 335.12L1137.1 329.98L1129.58 321.82L1122.06 313.66H1116.9C1107.39 313.64 1099.56 321.14 1099.17 330.64L1098.57 345.25L1091.92 344.98C1084.52 344.68 1078.28 350.43 1077.98 357.83L1077.49 369.82L1089.48 370.31C1096.88 370.61 1103.12 364.86 1103.42 357.46L1103.69 350.81L1118.3 351.41C1127.81 351.8 1135.92 344.61 1136.68 335.12H1136.69Z" fill="#FF5817"/>
<path d="M1101.1 349.43C1101.1 349.43 1132.35 348.06 1133.25 325.79L1129.58 321.81L1125.91 317.83C1103.64 316.92 1099.73 347.95 1099.73 347.95L1097.77 347.82C1096.16 347.71 1094.61 348.46 1093.68 349.79C1091.33 353.17 1095.21 357.38 1098.77 355.31C1100.17 354.5 1101.04 353.01 1101.06 351.4L1101.09 349.44L1101.1 349.43Z" fill="#FDB0CE"/>
<path d="M577.25 216.92L543.52 335.47C542.17 340.23 537.21 342.99 532.44 341.65L316.1 280.1L247.48 260.57C242.73 259.22 239.96 254.26 241.3 249.49L275.03 130.96C276.38 126.19 281.34 123.42 286.11 124.78L331.9 137.8L571.07 205.84C575.83 207.2 578.59 212.15 577.25 216.92Z" fill="#FBBA06"/>
<path d="M391.49 187.28L316.1 280.1L247.48 260.57C242.73 259.22 239.96 254.26 241.3 249.49L275.03 130.96C276.38 126.19 281.34 123.42 286.11 124.78L331.9 137.8L390.66 180.83C392.73 182.35 393.11 185.29 391.49 187.28Z" fill="#423772"/>
<path d="M349.23 200.6L339.91 197.95C336.5 196.98 334.51 193.42 335.49 190.01L338.14 180.69C339.11 177.28 337.13 173.72 333.72 172.75L317.35 168.09C313.94 167.12 310.38 169.1 309.41 172.51L306.76 181.83C305.79 185.24 302.23 187.23 298.82 186.25L289.5 183.6C286.09 182.63 282.53 184.61 281.56 188.02L276.9 204.39C275.93 207.8 277.91 211.36 281.32 212.33L290.64 214.98C294.05 215.95 296.04 219.51 295.06 222.92L292.41 232.24C291.44 235.65 293.42 239.21 296.83 240.18L313.2 244.84C316.61 245.81 320.17 243.83 321.14 240.42L323.79 231.1C324.76 227.69 328.32 225.7 331.73 226.68L341.05 229.33C344.46 230.3 348.02 228.32 348.99 224.91L353.65 208.54C354.62 205.13 352.64 201.57 349.23 200.6Z" fill="#46A6F6"/>
<path d="M413.63 229.51C420.042 229.51 425.24 224.312 425.24 217.9C425.24 211.488 420.042 206.29 413.63 206.29C407.218 206.29 402.02 211.488 402.02 217.9C402.02 224.312 407.218 229.51 413.63 229.51Z" fill="#FDDD97"/>
<path d="M404.92 260.12C411.332 260.12 416.53 254.922 416.53 248.51C416.53 242.098 411.332 236.9 404.92 236.9C398.508 236.9 393.31 242.098 393.31 248.51C393.31 254.922 398.508 260.12 404.92 260.12Z" fill="#FDDD97"/>
<path d="M481.97 295.99C494.452 295.99 504.57 285.872 504.57 273.39C504.57 260.908 494.452 250.79 481.97 250.79C469.488 250.79 459.37 260.908 459.37 273.39C459.37 285.872 469.488 295.99 481.97 295.99Z" fill="#FF5817"/>
<path d="M528.33 270.17C540.812 270.17 550.93 260.052 550.93 247.57C550.93 235.088 540.812 224.97 528.33 224.97C515.848 224.97 505.73 235.088 505.73 247.57C505.73 260.052 515.848 270.17 528.33 270.17Z" fill="#423772"/>
<path fill-rule="evenodd" clip-rule="evenodd" d="M491.097 -105.719C492.174 -105.472 492.846 -104.4 492.599 -103.323L432.329 159.467C432.083 160.544 431.01 161.216 429.933 160.969C428.856 160.722 428.184 159.65 428.431 158.573L488.701 -104.217C488.948 -105.294 490.021 -105.966 491.097 -105.719Z" fill="#423772"/>
<path d="M465.529 162.225L398.788 143.238C396.466 142.578 394.049 143.924 393.389 146.246L392.201 150.42C391.541 152.741 392.887 155.159 395.209 155.819L461.95 174.806C464.272 175.466 466.689 174.12 467.349 171.798L468.537 167.624C469.197 165.303 467.851 162.885 465.529 162.225Z" fill="#423772"/>
<path d="M479.07 272.49C481.45 272.49 483.38 270.56 483.38 268.18C483.38 265.8 481.45 263.87 479.07 263.87C476.69 263.87 474.76 265.8 474.76 268.18C474.76 270.56 476.69 272.49 479.07 272.49Z" fill="#423772"/>
<path d="M484.88 282.91C487.26 282.91 489.19 280.98 489.19 278.6C489.19 276.22 487.26 274.29 484.88 274.29C482.5 274.29 480.57 276.22 480.57 278.6C480.57 280.98 482.5 282.91 484.88 282.91Z" fill="#423772"/>
<path d="M528.33 251.88C530.71 251.88 532.64 249.95 532.64 247.57C532.64 245.19 530.71 243.26 528.33 243.26C525.95 243.26 524.02 245.19 524.02 247.57C524.02 249.95 525.95 251.88 528.33 251.88Z" fill="#46A6F6"/>
<path d="M325.514 175.211L324.168 174.828C323.419 174.615 322.639 175.049 322.426 175.798L318.012 191.313C317.799 192.062 318.233 192.842 318.982 193.055L320.329 193.438C321.078 193.651 321.858 193.217 322.071 192.468L326.485 176.953C326.698 176.204 326.263 175.424 325.514 175.211Z" fill="#423772"/>
<path d="M312.712 220.202L311.366 219.819C310.617 219.606 309.837 220.04 309.624 220.789L305.21 236.303C304.997 237.052 305.432 237.832 306.181 238.045L307.527 238.429C308.276 238.642 309.056 238.207 309.269 237.458L313.683 221.944C313.896 221.195 313.461 220.415 312.712 220.202Z" fill="#E4E4E4"/>
<path d="M347.269 216.295L347.652 214.948C347.865 214.199 347.431 213.42 346.682 213.206L331.167 208.793C330.418 208.58 329.638 209.014 329.425 209.763L329.042 211.11C328.829 211.859 329.263 212.639 330.012 212.852L345.527 217.265C346.276 217.479 347.056 217.044 347.269 216.295Z" fill="#423772"/>
<path d="M302.271 203.494L302.654 202.148C302.867 201.399 302.432 200.619 301.683 200.406L286.169 195.992C285.42 195.779 284.64 196.214 284.427 196.963L284.044 198.309C283.831 199.058 284.265 199.838 285.014 200.051L300.529 204.465C301.278 204.678 302.058 204.243 302.271 203.494Z" fill="#E4E4E4"/>
<path d="M332.591 198.209L95.8818 10.3264C93.2863 8.26631 89.5122 8.70032 87.4521 11.2958L7.13534 112.485C5.07522 115.081 5.50923 118.855 8.10473 120.915L244.814 308.797C247.409 310.857 251.183 310.423 253.243 307.828L333.56 206.639C335.62 204.043 335.186 200.269 332.591 198.209Z" fill="#FEEECC"/>
<path d="M127.42 106.4L119.83 100.37C117.05 98.16 116.58 94.12 118.79 91.34L124.82 83.75C127.03 80.97 126.56 76.93 123.78 74.72L110.45 64.14C107.67 61.93 103.63 62.4 101.42 65.18L95.39 72.77C93.18 75.55 89.14 76.02 86.36 73.81L78.77 67.78C75.99 65.57 71.95 66.04 69.74 68.82L59.16 82.15C56.95 84.93 57.42 88.97 60.2 91.18L67.79 97.21C70.57 99.42 71.04 103.46 68.83 106.24L62.8 113.83C60.59 116.61 61.06 120.65 63.84 122.86L77.17 133.44C79.95 135.65 83.99 135.18 86.2 132.4L92.23 124.81C94.44 122.03 98.48 121.56 101.26 123.77L108.85 129.8C111.63 132.01 115.67 131.54 117.88 128.76L128.46 115.43C130.67 112.65 130.2 108.61 127.42 106.4Z" fill="#FF5F2F"/>
<path d="M180.24 158.7C186.652 158.7 191.85 153.502 191.85 147.09C191.85 140.678 186.652 135.48 180.24 135.48C173.828 135.48 168.63 140.678 168.63 147.09C168.63 153.502 173.828 158.7 180.24 158.7Z" fill="#423772"/>
<path d="M160.46 183.63C166.872 183.63 172.07 178.432 172.07 172.02C172.07 165.608 166.872 160.41 160.46 160.41C154.048 160.41 148.85 165.608 148.85 172.02C148.85 178.432 154.048 183.63 160.46 183.63Z" fill="#423772"/>
<path d="M222.07 247.16C234.552 247.16 244.67 237.042 244.67 224.56C244.67 212.078 234.552 201.96 222.07 201.96C209.588 201.96 199.47 212.078 199.47 224.56C199.47 237.042 209.588 247.16 222.07 247.16Z" fill="#FBBA06"/>
<path d="M274.79 241.09C287.272 241.09 297.39 230.972 297.39 218.49C297.39 206.008 287.272 195.89 274.79 195.89C262.308 195.89 252.19 206.008 252.19 218.49C252.19 230.972 262.308 241.09 274.79 241.09Z" fill="#46A6F6"/>
<path fill-rule="evenodd" clip-rule="evenodd" d="M333.997 -44.0456C334.856 -43.3514 334.99 -42.0922 334.296 -41.233L219.856 100.397C219.161 101.256 217.902 101.39 217.043 100.696C216.184 100.001 216.05 98.7422 216.744 97.883L331.184 -43.747C331.879 -44.6061 333.138 -44.7398 333.997 -44.0456Z" fill="#423772"/>
<path d="M249.546 115.589L195.195 72.4492C193.305 70.9488 190.556 71.2649 189.056 73.1553L186.358 76.5546C184.857 78.445 185.173 81.1938 187.064 82.6943L241.414 125.834C243.304 127.334 246.053 127.018 247.554 125.128L250.252 121.728C251.752 119.838 251.436 117.089 249.546 115.589Z" fill="#423772"/>
<path d="M221.39 222.94C223.77 222.94 225.7 221.01 225.7 218.63C225.7 216.25 223.77 214.32 221.39 214.32C219.01 214.32 217.08 216.25 217.08 218.63C217.08 221.01 219.01 222.94 221.39 222.94Z" fill="#423772"/>
<path d="M222.75 234.79C225.13 234.79 227.06 232.86 227.06 230.48C227.06 228.1 225.13 226.17 222.75 226.17C220.37 226.17 218.44 228.1 218.44 230.48C218.44 232.86 220.37 234.79 222.75 234.79Z" fill="#423772"/>
<path d="M274.79 222.8C277.17 222.8 279.1 220.87 279.1 218.49C279.1 216.11 277.17 214.18 274.79 214.18C272.41 214.18 270.48 216.11 270.48 218.49C270.48 220.87 272.41 222.8 274.79 222.8Z" fill="#423772"/>
<path d="M115.244 73.8631L114.148 72.9927C113.538 72.5086 112.651 72.6105 112.167 73.2205L102.139 85.8545C101.655 86.4644 101.757 87.3513 102.367 87.8354L103.463 88.7058C104.073 89.1899 104.96 89.088 105.444 88.478L115.472 75.844C115.956 75.2341 115.854 74.3472 115.244 73.8631Z" fill="#FBBA06"/>
<path d="M86.1684 110.503L85.0718 109.632C84.4619 109.148 83.5749 109.25 83.0908 109.86L73.0629 122.494C72.5788 123.104 72.6807 123.991 73.2907 124.475L74.3873 125.346C74.9972 125.83 75.8841 125.728 76.3682 125.118L86.3962 112.484C86.8803 111.874 86.7783 110.987 86.1684 110.503Z" fill="#FBBA06"/>
<path d="M119.579 120.146L120.449 119.05C120.934 118.44 120.832 117.553 120.222 117.069L107.588 107.041C106.978 106.557 106.091 106.659 105.607 107.269L104.736 108.365C104.252 108.975 104.354 109.862 104.964 110.346L117.598 120.374C118.208 120.858 119.095 120.756 119.579 120.146Z" fill="#FBBA06"/>
<path d="M82.9352 91.0665L83.8055 89.9699C84.2897 89.36 84.1877 88.4731 83.5777 87.989L70.9438 77.961C70.3338 77.4769 69.4469 77.5789 68.9628 78.1888L68.0924 79.2854C67.6083 79.8953 67.7103 80.7822 68.3202 81.2664L80.9542 91.2943C81.5641 91.7784 82.451 91.6764 82.9352 91.0665Z" fill="#FBBA06"/>
<path d="M81.12 206.49H58.27C57.1654 206.49 56.27 207.385 56.27 208.49V231.34C56.27 232.445 57.1654 233.34 58.27 233.34H81.12C82.2246 233.34 83.12 232.445 83.12 231.34V208.49C83.12 207.385 82.2246 206.49 81.12 206.49Z" fill="#FF5F2F"/>
<path d="M597.87 67.77H555.02C553.915 67.77 553.02 68.6654 553.02 69.77V112.62C553.02 113.725 553.915 114.62 555.02 114.62H597.87C598.975 114.62 599.87 113.725 599.87 112.62V69.77C599.87 68.6654 598.975 67.77 597.87 67.77Z" fill="#FBBA06"/>
<path d="M621.29 114.62H578.44C577.335 114.62 576.44 115.515 576.44 116.62V159.47C576.44 160.575 577.335 161.47 578.44 161.47H621.29C622.394 161.47 623.29 160.575 623.29 159.47V116.62C623.29 115.515 622.394 114.62 621.29 114.62Z" fill="#FEEECC"/>
<path d="M621.29 44.34H578.44C577.335 44.34 576.44 45.2354 576.44 46.34V89.19C576.44 90.2945 577.335 91.19 578.44 91.19H621.29C622.394 91.19 623.29 90.2945 623.29 89.19V46.34C623.29 45.2354 622.394 44.34 621.29 44.34Z" fill="#46A6F6"/>
<path d="M1279.83 368.89H1248.5C1247.4 368.89 1246.5 369.785 1246.5 370.89V402.22C1246.5 403.325 1247.4 404.22 1248.5 404.22H1279.83C1280.93 404.22 1281.83 403.325 1281.83 402.22V370.89C1281.83 369.785 1280.93 368.89 1279.83 368.89Z" fill="#FBBA06"/>
<path d="M1297.49 386.56H1266.16C1265.06 386.56 1264.16 387.455 1264.16 388.56V419.89C1264.16 420.995 1265.06 421.89 1266.16 421.89H1297.49C1298.59 421.89 1299.49 420.995 1299.49 419.89V388.56C1299.49 387.455 1298.59 386.56 1297.49 386.56Z" fill="#FEEECC"/>
<path d="M263.08 408.85H294.41C295.515 408.85 296.41 407.955 296.41 406.85V375.52C296.41 374.415 295.515 373.52 294.41 373.52H263.08C261.975 373.52 261.08 374.415 261.08 375.52V406.85C261.08 407.955 261.975 408.85 263.08 408.85Z" fill="#454027"/>
<path d="M245.42 391.19H276.75C277.855 391.19 278.75 390.295 278.75 389.19V357.86C278.75 356.755 277.855 355.86 276.75 355.86H245.42C244.315 355.86 243.42 356.755 243.42 357.86V389.19C243.42 390.295 244.315 391.19 245.42 391.19Z" fill="#00D3F2"/>
<path d="M67.95 233.08H45.1C43.9954 233.08 43.1 233.975 43.1 235.08V257.93C43.1 259.035 43.9954 259.93 45.1 259.93H67.95C69.0545 259.93 69.95 259.035 69.95 257.93V235.08C69.95 233.975 69.0545 233.08 67.95 233.08Z" fill="#454027"/>
<path d="M787.94 65.28H769.95C768.845 65.28 767.95 66.1754 767.95 67.28V85.27C767.95 86.3745 768.845 87.27 769.95 87.27H787.94C789.045 87.27 789.94 86.3745 789.94 85.27V67.28C789.94 66.1754 789.045 65.28 787.94 65.28Z" fill="#FBBA06"/>
<path d="M777.16 43.5H759.17C758.065 43.5 757.17 44.3954 757.17 45.5V63.49C757.17 64.5946 758.065 65.49 759.17 65.49H777.16C778.264 65.49 779.16 64.5946 779.16 63.49V45.5C779.16 44.3954 778.264 43.5 777.16 43.5Z" fill="#FEEECC"/>
<path d="M0 465.63H153.81C156.08 465.63 156.59 462.44 154.44 461.73L89.78 440.35L116.46 374.89C117.15 373.2 115.41 371.55 113.76 372.32L47.75 403.24L42.4 347.85C42.19 345.72 39.24 345.36 38.52 347.38L16.9 408.59L3.9 369.17C3.19 367.01 0 367.52 0 369.8L0 465.63Z" fill="#FBBA06"/>
<path d="M1331.08 141.18L1310.82 72.38L1259.42 124.97C1257.88 126.55 1255.3 124.84 1256.14 122.8L1284.51 54.58L1208.12 59.46C1205.86 59.6 1205.14 56.46 1207.24 55.61L1271.03 29.72L1196.99 3.88C1194.87 3.15 1195.4 0 1197.65 0H1335V140.62C1335 142.93 1331.73 143.4 1331.08 141.18Z" fill="#FF5817"/>
<path d="M409.61 460.04L478.46 445.61L445.64 392.06C444.5 390.2 446.73 388.12 448.51 389.39L505.49 430.05L490.18 357.32C489.71 355.1 492.71 353.94 493.86 355.89L533.1 422.57L560.6 340.02C561.31 337.9 564.43 338.36 564.5 340.59L567.04 425.06L629.38 394.32C631.31 393.37 633.18 395.73 631.8 397.39L595.21 441.55L672.95 460.04C675.26 460.59 674.86 463.99 672.49 463.99H410.03C407.63 463.99 407.27 460.53 409.62 460.03L409.61 460.04Z" fill="#FEEECC"/>
</g>
</g>
<defs>
<clipPath id="clip0_1528_82961">
<rect width="1335" height="464" fill="white"/>
</clipPath>
</defs>
</svg>
