<svg width="1335" height="464" viewBox="0 0 1335 464" fill="none" xmlns="http://www.w3.org/2000/svg">
<g clip-path="url(#clip0_1528_79425)">
<rect width="1335" height="464" fill="#FFDD9F"/>
<mask id="mask0_1528_79425" style="mask-type:luminance" maskUnits="userSpaceOnUse" x="0" y="-1" width="1335" height="466">
<path d="M1335 -0.0899963H0V464.08H1335V-0.0899963Z" fill="white"/>
</mask>
<g mask="url(#mask0_1528_79425)">
<path d="M1335 -0.0899963H0V464.08H1335V-0.0899963Z" fill="#FFDD9F"/>
<path d="M1320.6 95.45H1158.76C1142.43 95.45 1129.18 82.21 1129.18 65.87C1129.18 41.41 1157.18 27.52 1176.65 42.32L1236.35 87.69V77.75C1236.35 66.88 1248.9 60.83 1257.41 67.59L1286.41 90.67C1286.41 82.62 1295.46 77.9 1302.06 82.51L1320.59 95.44L1320.6 95.45Z" fill="#FEEECC"/>
<path d="M202.51 328.02C202.51 340.98 192 351.49 179.04 351.49C166.08 351.49 155.57 340.98 155.57 328.02C155.57 315.06 166.08 282.23 179.04 282.23C192 282.23 202.51 315.06 202.51 328.02Z" fill="#F76341"/>
<path d="M271.72 290.45C272.75 288.35 273.34 286 273.34 283.5C273.34 278.02 270.56 273.18 266.33 270.33C267.2 268.83 267.7 267.09 267.7 265.23C267.7 259.58 263.12 254.99 257.46 254.99C251.8 254.99 247.22 259.57 247.22 265.23C247.22 267.09 247.72 268.83 248.59 270.33C244.36 273.18 241.58 278.02 241.58 283.5C241.58 286 242.17 288.35 243.2 290.45C237.94 294.64 234.57 301.1 234.57 308.35C234.57 320.99 244.82 331.23 257.45 331.23C270.08 331.23 280.33 320.98 280.33 308.35C280.33 301.1 276.96 294.65 271.7 290.45H271.72Z" fill="#8C802F"/>
<path d="M309.28 322.58C298.1 322.58 289.04 313.52 289.04 302.34V255.79C289.04 249.69 293.99 244.74 300.09 244.74C304.57 244.74 308.61 247.45 310.31 251.59L328 294.65C333.47 307.97 323.68 322.58 309.28 322.58Z" fill="#9B9716"/>
<path d="M195.29 321.65C195.29 308.69 205.8 298.18 218.76 298.18C231.72 298.18 242.23 308.69 242.23 321.65C242.23 334.61 231.72 367.44 218.76 367.44C205.8 367.44 195.29 334.61 195.29 321.65Z" fill="#9B9716"/>
<path d="M333.65 339.74C322.64 337.82 315.27 327.34 317.2 316.33L325.21 270.47C326.26 264.46 331.98 260.44 337.99 261.49C342.4 262.26 345.91 265.62 346.88 269.99L356.9 315.45C360 329.51 347.84 342.22 333.66 339.74H333.65Z" fill="#F76341"/>
<path d="M0.25 374.41C0.25 374.41 570.01 220.88 793.84 372.81C793.84 372.81 1067.88 289.01 1334.75 372.81L0.25 374.41Z" fill="#FFCD5C"/>
<path d="M627.08 371.56L618.59 348.96C618.03 347.48 620.1 346.48 620.92 347.84L631.99 366.3C632.61 367.33 634.17 367.04 634.38 365.86L634.75 363.72C635.02 362.16 637.32 362.36 637.32 363.94C637.32 365.32 639.18 365.75 639.78 364.51C644.1 355.6 654.36 340.06 672.34 342.95C673.49 343.13 673.82 344.66 672.85 345.3C669.01 347.86 662.96 354.27 662.96 369.27C662.96 390.21 702.22 365.72 695.99 329.66C695.76 328.31 697.51 327.56 698.31 328.68C702.82 334.97 709.73 347.1 707.78 360.35C707.6 361.55 709.06 362.29 709.95 361.46L729.81 342.87C730.84 341.9 732.46 343.05 731.88 344.35L721.96 366.52C721.39 367.8 722.98 368.96 724.02 368.01L740.05 353.34C741.09 352.38 742.69 353.55 742.1 354.84L737.51 364.79C736.91 366.1 738.58 367.27 739.6 366.25L753.27 352.67C753.98 351.97 755.18 352.29 755.44 353.26L758.17 363.64C758.5 364.89 760.26 364.94 760.66 363.71L764.52 351.78C764.87 350.71 766.31 350.56 766.88 351.53L779.35 373.09C781.39 376.62 785.17 378.8 789.25 378.8C794.86 378.8 799.64 374.74 800.54 369.2L804.73 343.44C804.97 341.99 807.05 341.99 807.29 343.44L812.79 377.3C812.92 378.09 812.31 378.8 811.51 378.8H628.46C627.74 378.8 627.16 378.22 627.16 377.5V372.01C627.16 371.85 627.13 371.7 627.08 371.55V371.56Z" fill="#A5AD3A"/>
<path d="M1335 371H0V464.09H1335V371Z" fill="#A5AD3A"/>
<path d="M830.15 286.88L882.27 380.45L872.85 406.11H889.81L896.99 393.91C903.12 383.5 903.77 370.76 898.74 359.79L865.32 286.88H830.15Z" fill="#313030"/>
<path d="M1211.16 181.14L1069.41 205.25L1071.07 210.33C1083.92 249.62 1113.82 281.01 1152.43 295.77" fill="#62544E"/>
<path d="M777.581 96.02L752.141 52.9C751.031 51.01 748.151 51.65 747.941 53.83L745.471 79.46L777.581 96.02Z" fill="#313030"/>
<path d="M1168.8 123.71L1293.6 267.14C1285.54 267.14 1277.79 264.02 1271.98 258.45L1173.03 163.53L1168.8 123.71Z" fill="#989797"/>
<path d="M1103.33 219.06L1137.24 329.58L1087.63 406.11H1104.59L1177.43 318.28L1160.48 212.15L1103.33 219.06Z" fill="#3A3832"/>
<path d="M890.44 279.72L773.01 322.05L759.59 341.35C756.59 345.67 751.66 348.25 746.39 348.25H737.84L753.67 319.19C757.31 312.5 763.07 307.21 770.06 304.15L825.74 279.72L767.51 177.05C754.6 154.29 747.24 128.83 746 102.71H698.87C696.38 102.71 693.96 102.03 691.87 100.78C690.48 99.96 689.24 98.89 688.2 97.61L681.94 89.86L698.45 85.19L749.8 70.67C764.8 66.43 780.85 72.19 789.72 85L818.21 126.12L890.43 279.72H890.44Z" fill="#989797"/>
<path d="M818.221 126.12L964.541 141.19L1086.83 107.28C1104.6 102.35 1123.38 102.43 1141.1 107.49C1188.71 121.09 1219.23 167.44 1212.92 216.55L1200.66 312.01L1221.91 332.56C1231.21 341.55 1232.43 356.03 1224.78 366.45L1195.64 406.13H1170.52L1199.41 359.12L1157.59 328.2C1136.43 312.55 1121.92 289.51 1116.94 263.66L1105.83 205.93L890.431 279.74L818.211 126.14L818.221 126.12Z" fill="#989797"/>
<path fill-rule="evenodd" clip-rule="evenodd" d="M1211.94 216.413C1218.19 167.793 1187.97 121.906 1140.84 108.442L1141.39 106.518C1189.47 120.254 1220.3 167.067 1213.92 216.667L1211.94 216.413Z" fill="#5A5959"/>
<path d="M763.95 79.31C763.95 79.31 780.03 103.2 802.97 103.2L791.62 79.31H763.96H763.95Z" fill="#5A5959"/>
<path d="M759.19 77.04C759.19 77.04 774.89 100.37 814.45 92.2C814.45 92.2 792.47 64.38 759.19 77.04Z" fill="#989797"/>
<path d="M890.44 279.72L861.37 217.89L949.72 259.4L890.44 279.72Z" fill="#313030"/>
<path d="M702.96 89.69L691.87 100.78C690.48 99.96 689.24 98.89 688.2 97.61L681.94 89.86L698.45 85.19L702.95 89.69H702.96Z" fill="#313030"/>
<path d="M748 84.42C749.414 84.42 750.56 83.2739 750.56 81.86C750.56 80.4462 749.414 79.3 748 79.3C746.587 79.3 745.44 80.4462 745.44 81.86C745.44 83.2739 746.587 84.42 748 84.42Z" fill="#313030"/>
<path d="M909.11 327.91L893.44 356.02L879.67 380.72L878.51 382.8L876.42 386.55L867.66 402.26L860.44 415.21L858.6 418.51L858.51 418.66L848.91 415.52L820.27 406.14L815.68 404.64L815 404.41L803.2 400.54C796.41 398.32 798.34 388.22 805.48 388.67L829.42 390.15L848.87 391.35L848.91 391.24L854.05 378.56L856.11 373.47L856.51 372.49L867.55 345.23L874.57 327.91H909.11Z" fill="#6D3C1D"/>
<path d="M876.43 386.55L867.669 402.26L861.63 413.23L860.479 415.23L850.88 411.71L820.27 406.14L829.419 390.15L848.88 391.35L848.919 391.25L854.06 378.56L876.43 386.55Z" fill="#FFC033"/>
<path d="M867.669 402.26C867.269 400.65 865.709 399.42 863.879 399.66L854.069 400.93L848.929 391.43V391.25L848.889 391.36L805.499 388.68C798.359 388.23 796.429 398.32 803.219 400.55L815.019 404.42L815.699 404.65L848.939 415.53V415.4L858.619 418.53L861.169 419.36C861.569 419.49 861.969 419.54 862.349 419.54C863.919 419.54 865.369 418.58 865.949 417.06C866.149 416.49 866.229 415.89 866.159 415.29L865.549 409.7L867.549 404.29C867.809 403.6 867.829 402.91 867.679 402.28L867.669 402.26Z" fill="#FFF8EB"/>
<path d="M1062 12.27V75.39C1062 98.86 1055.62 121.86 1043.57 141.93L1043.53 141.99C1042.58 143.58 1041.6 145.16 1040.57 146.71L1019.84 180.04L906.899 361.63L892.239 385.2L879.669 380.73L856.509 372.49L842.449 367.48L853.829 339.51L986.899 12.29V12.28L1061.99 12.27H1062Z" fill="#3D76BC"/>
<path d="M1224.89 268.57L1283.15 284.73L1289.58 286.51L1306.92 291.32L1324.85 296.29L1325.02 296.34L1324.22 306.41L1321.86 336.46L1321.48 341.28L1321.42 341.99L1320.44 354.37C1319.88 361.5 1309.61 362 1308.37 354.95L1304.16 331.34L1300.74 312.15L1300.63 312.13L1287.09 310.13L1280.61 309.17L1233.03 302.13L1224.89 268.57Z" fill="#6D3C1D"/>
<path d="M1289.58 286.51L1306.92 291.32L1319 294.61L1321.21 295.25L1320.06 305.4L1321.86 336.46L1304.16 331.35L1300.74 312.15L1300.63 312.14L1287.09 310.13L1289.58 286.51Z" fill="#FBC400"/>
<path d="M1306.92 291.32C1305.45 292.09 1304.62 293.89 1305.29 295.62L1308.84 304.86L1300.82 312.09L1300.64 312.13L1300.75 312.15L1308.38 354.95C1309.62 361.99 1319.89 361.49 1320.45 354.37L1321.43 341.99L1321.49 341.28L1324.23 306.42L1324.1 306.45L1324.86 296.3L1325.06 293.63C1325.09 293.21 1325.06 292.81 1324.96 292.44C1324.59 290.91 1323.32 289.73 1321.7 289.53C1321.1 289.47 1320.5 289.53 1319.93 289.74L1314.64 291.65L1308.91 290.98C1308.18 290.89 1307.51 291.03 1306.93 291.33L1306.92 291.32Z" fill="#FFF8EB"/>
<path d="M1267.21 274.38L1254.55 331.31L1223.99 326.81L1096.6 308.04C1088.89 306.9 1081.56 304.62 1074.78 301.37C1053.54 291.18 1037.78 271.44 1033.07 247.48L1019.52 178.41L986.899 12.28H1072.15L1127.06 235.51L1237.51 266.14L1267.21 274.38Z" fill="#3D76BC"/>
<path d="M986.909 12.27H1007.64V35.18C1007.64 48.85 1018.72 59.93 1032.39 59.93H1080.63C1095.06 59.93 1104.48 44.79 1098.11 31.85L1088.47 12.28V-0.0899963H986.909V12.27Z" fill="#423772"/>
<path d="M1074.78 94.6V301.37C1053.54 291.18 1037.78 271.44 1033.08 247.48L1019.85 180.04L1074.79 94.6H1074.78Z" fill="#115EC1"/>
<path d="M819 126.58H747.65L745.47 113.94L802.97 103.19L819 126.58Z" fill="#F76341"/>
<path d="M1056.17 17.81H1025.42V25.39H1056.17V17.81Z" fill="#FFC033"/>
<path d="M1081.87 58.62C1073.69 58.62 1067.05 51.99 1067.05 43.8V17.8H1090.48L1096.21 40.11C1098.62 49.48 1091.54 58.61 1081.86 58.61L1081.87 58.62Z" fill="#FFC033"/>
<path d="M1016.24 -0.0899963H990.65V6.3H1016.24V-0.0899963Z" fill="#FBC400"/>
<path fill-rule="evenodd" clip-rule="evenodd" d="M1086.13 9.95999H1026.12V7.95999H1086.13V9.95999Z" fill="#313030"/>
<path fill-rule="evenodd" clip-rule="evenodd" d="M136.844 388.839L125.836 328.339L127.804 327.981L139.494 392.231C139.581 392.711 139.31 393.183 138.852 393.35C138.394 393.516 137.884 393.329 137.642 392.907C137.642 392.906 137.642 392.906 137.642 392.906C137.642 392.906 137.642 392.905 137.641 392.905L137.641 392.904L137.632 392.89C137.622 392.873 137.606 392.846 137.582 392.808C137.534 392.733 137.458 392.616 137.35 392.464C137.134 392.16 136.794 391.714 136.309 391.172C135.34 390.09 133.795 388.626 131.518 387.155C126.972 384.219 119.46 381.22 107.7 381.22V379.22C119.82 379.22 127.713 382.316 132.603 385.475C134.414 386.645 135.806 387.819 136.844 388.839Z" fill="#6D3C1D"/>
<path d="M1165.53 376.49L1169.61 414.74C1169.88 417.27 1169.56 419.82 1168.67 422.2L1166.91 426.94C1166.05 429.25 1164.08 430.97 1161.67 431.51C1158.85 432.14 1156.84 434.64 1156.84 437.54V438.73H1173.39L1193.59 411.01L1165.53 376.5V376.49Z" fill="#313030"/>
<path d="M1011.53 307.26L1047.38 326.74C1050.69 328.54 1051.89 332.69 1050.05 335.97C1048.19 339.3 1043.93 340.43 1040.66 338.46L1005.77 317.4L1011.53 307.26Z" fill="#313030"/>
<path d="M1023 370.15L1017.87 389.22C1015.52 397.94 1020.11 407.04 1028.52 410.34L1063.13 423.91L1064.5 419.79C1066.12 414.94 1063.85 409.65 1059.22 407.49L1049.38 402.88L1053.59 375.1L1023.01 370.16L1023 370.15Z" fill="#663E23"/>
<path d="M1211.82 353.35C1204.19 352.96 1195.87 351.71 1187.94 348.87C1201.08 357.05 1210.64 369.78 1214.92 384.43C1216.56 390.04 1217.43 395.93 1217.43 401.96V411.55L1224.04 416.9C1227.41 419.63 1230.22 422.93 1232.37 426.64C1234.5 430.34 1235.97 434.43 1236.66 438.71L1188.7 417.49C1180.54 413.88 1175.28 405.8 1175.28 396.87V392.47L1173.52 393.17C1167.47 395.57 1161.67 398.53 1156.08 401.86C1149.54 405.76 1143.31 408.68 1137.41 410.77C1137.06 410.89 1136.73 411.01 1136.39 411.12C1113.37 418.98 1095.22 414.4 1082.2 406.98C1081.96 406.85 1081.73 406.7 1081.49 406.57C1070.73 400.26 1057.12 407.55 1056.61 420.02L1055.97 435.5C1055.89 437.29 1054.42 438.71 1052.63 438.71H1037.04C1034.04 436.85 1034.59 432.32 1037.95 431.23L1043.21 429.51L1031.68 405.2L1015.78 371.7L1001.95 342.54L979.64 320.48C978.1 318.96 977.18 316.94 977.02 314.79L976.85 312.49C976.56 312.27 976.3 312.03 976.06 311.79C974.5 310.24 973.61 308.13 973.61 305.9V305.2C973.61 303.93 974.81 303.02 976.02 303.34L980.86 304.65L991.1 307.4C994.08 308.2 997.25 307.73 999.86 306.09L1000.21 305.88C1003.58 303.76 1007.84 303.63 1011.35 305.52L1015.46 307.73C1016.3 308.19 1017.12 308.69 1017.91 309.23C1019.63 310.42 1021.2 311.8 1022.58 313.35C1024.59 315.61 1026.21 318.22 1027.34 321.07C1028.47 323.92 1030.09 326.54 1032.1 328.8C1034.11 331.04 1036.51 332.96 1039.21 334.41C1039.21 334.41 1039.21 334.41 1039.23 334.41C1040.98 335.35 1042.77 336.26 1044.56 337.1C1047.38 338.44 1050.24 339.66 1053.13 340.75C1070.78 347.45 1089.67 349.71 1108.17 347.54C1112.72 347.02 1117.22 346.22 1121.69 345.14C1127.98 343.64 1134.19 341.6 1140.23 339.04C1140.31 339.01 1140.38 338.97 1140.46 338.95C1144.73 337.14 1149.15 335.79 1153.65 334.91C1163.88 332.89 1174.51 333.26 1184.7 336.02L1200.98 340.44L1236.57 350.09C1237.58 350.37 1237.51 351.83 1236.47 351.99C1231.39 352.79 1222.25 353.86 1211.81 353.33L1211.82 353.35Z" fill="#A16135"/>
<path d="M1218.2 431.3L1226.34 426.43L1236.65 438.72H1216.03V435.13C1216.03 433.56 1216.85 432.11 1218.2 431.3Z" fill="#663E23"/>
<path d="M1001.18 317.39C1002.63 317.39 1003.81 316.213 1003.81 314.76C1003.81 313.308 1002.63 312.13 1001.18 312.13C999.728 312.13 998.551 313.308 998.551 314.76C998.551 316.213 999.728 317.39 1001.18 317.39Z" fill="#313030"/>
<path d="M980.88 304.65C980.78 307.84 978.83 310.56 976.07 311.79C974.51 310.24 973.62 308.13 973.62 305.9V305.2C973.62 303.93 974.82 303.02 976.03 303.34L980.87 304.65H980.88Z" fill="#313030"/>
<path fill-rule="evenodd" clip-rule="evenodd" d="M983.585 316.66L976.445 313.4L977.276 311.58L984.416 314.84L983.585 316.66Z" fill="#663E23"/>
<path d="M1137.4 410.78C1113.9 419.13 1095.4 414.53 1082.19 406.99C1098.85 384.11 1068.99 364.27 1035.77 372.41C1006.8 379.51 1029.8 346.7 1039.22 334.4C1039.22 334.4 1039.22 334.4 1039.24 334.4C1064.77 348.14 1094.16 351.72 1121.71 345.14C1147.65 373.06 1108.15 393.31 1108.15 393.31C1108.15 393.31 1135.92 392.46 1137.4 410.77V410.78Z" fill="#663E23"/>
<path d="M1236.49 352.01C1227.7 353.4 1206.73 355.6 1187.95 348.87C1201.09 357.05 1210.65 369.78 1214.93 384.43C1199.14 379.45 1207.06 355.62 1173.94 364.56C1143.39 372.8 1150.35 344.8 1153.66 334.92C1163.89 332.9 1174.52 333.27 1184.71 336.03L1236.59 350.1C1237.6 350.38 1237.53 351.84 1236.49 352V352.01Z" fill="#663E23"/>
<path d="M1036.11 330.71L1009.94 360.28C1009.03 361.32 1007.44 361.42 1006.4 360.5C1005.43 359.64 1005.29 358.19 1006.03 357.16L1029.17 325.15C1032.96 320.29 1040.04 325.93 1036.11 330.71Z" fill="#FF5F2F"/>
<path d="M1011.37 305.52L1001.55 344.35C999.72 351.57 1004.92 358.67 1012.35 359.11C1019.59 359.54 1025.52 353.45 1024.89 346.22L1021.89 311.96C1021.57 308.31 1018.52 305.52 1014.86 305.52H1011.38H1011.37Z" fill="#6D3C1D"/>
<path d="M389.16 289.11L417.31 347.47C419.79 352.61 424.68 356.16 430.34 356.91L461.28 361.04V359.05C461.28 355.06 458.51 351.61 454.61 350.74L432.92 345.93L407.47 289.11H389.16Z" fill="#6D3C1D"/>
<path d="M379.76 160.75L351.34 177.73C341.46 183.64 338.94 196.84 345.95 205.97C353.73 216.1 369.03 215.97 376.65 205.72L390.53 187.04L379.75 160.74L379.76 160.75Z" fill="#FFF8EB"/>
<path d="M412.7 216.15L381.26 236.72L366.67 210.23C361.41 203.34 354.27 198.12 346.11 195.17L318.58 183.79C317.42 183.37 316.44 182.63 315.73 181.69C314.92 180.63 314.45 179.3 314.45 177.9V172.63L324.91 173.88L347.39 176.56L358.06 176.16C361.5 176.03 364.76 177.65 366.74 180.46L376.86 194.85L412.69 216.16L412.7 216.15Z" fill="#A16135"/>
<path fill-rule="evenodd" clip-rule="evenodd" d="M550.306 241.186L598.066 193.416L600.894 196.244L553.134 244.014L550.306 241.186Z" fill="#6D3C1D"/>
<path d="M419.56 339.68L410.22 361.79L404.4 375.57C402.91 379.09 400.57 382.07 397.69 384.3C393.96 387.21 389.3 388.87 384.35 388.87H369.45C369.45 385.61 370.77 382.65 372.91 380.51C375.05 378.37 378.01 377.05 381.27 377.05H384.35C385.13 377.05 385.89 376.96 386.63 376.78C389.68 376.07 392.25 373.94 393.51 370.97L397.39 361.79L407.62 337.58L402.27 233.57L414.07 232.96L419.56 339.68Z" fill="#A16135"/>
<path d="M410.22 361.79L404.4 375.57C402.91 379.09 400.57 382.07 397.69 384.3C393.11 382.18 389.48 379.52 386.63 376.78C389.68 376.07 392.25 373.94 393.51 370.97L397.39 361.79H410.22Z" fill="#313030"/>
<path d="M573.64 328.02L569.39 355.06L564.87 383.87C564.42 386.79 561.9 388.87 559.03 388.87H534.63C534.63 382.34 539.93 377.05 546.45 377.05H553.98L556.49 361.04L561.33 330.19L540.73 319.46L518.28 307.76C513.27 305.15 510.83 299.55 512 294.29L512.09 293.94L524.71 237.44H536.52L547.59 286.97L568.35 317.69L571.73 322.69L572.8 324.27C573.57 325.41 573.83 326.76 573.64 328.02Z" fill="#313030"/>
<path d="M583.65 328.02L579.4 355.06L574.88 383.87C574.43 386.79 571.91 388.87 569.04 388.87H544.64C544.64 382.34 549.94 377.05 556.46 377.05H563.99L566.5 361.04L571.34 330.19L550.74 319.46L528.29 307.76C523.28 305.15 520.84 299.55 522.01 294.29L522.1 293.94L534.72 237.44H546.53L557.6 286.97L578.36 317.69L581.74 322.69L582.81 324.27C583.58 325.41 583.84 326.76 583.65 328.02Z" fill="#A16135"/>
<path d="M583.65 328.02L579.4 355.06L566.5 361.04L571.34 330.19L550.74 319.46L550.67 317.69H578.36L581.74 322.69L582.81 324.27C583.58 325.41 583.84 326.76 583.65 328.02Z" fill="#6D3C1D"/>
<path d="M434.48 346.43C434.48 346.83 434.47 347.23 434.45 347.62C433.83 362.95 421.21 375.18 405.73 375.18C390.25 375.18 376.99 362.31 376.99 346.43C376.99 336.53 382 327.8 389.62 322.63C394.21 319.51 399.76 317.69 405.73 317.69C421.61 317.69 434.48 330.56 434.48 346.43Z" fill="#FFF8EB"/>
<path d="M434.48 346.43C434.48 346.83 434.47 347.23 434.45 347.62C413.28 344.15 397.82 331.21 389.62 322.63C394.21 319.51 399.76 317.69 405.73 317.69C421.61 317.69 434.48 330.56 434.48 346.43Z" fill="#CBCBCB"/>
<path d="M572.32 347.3C561.67 352.61 549.23 350.35 541.11 342.56C538.89 340.45 537 337.91 535.55 335.01C528.79 321.47 534.29 305.01 547.83 298.24C555.72 294.31 564.59 294.52 571.96 298.07C577.25 300.61 581.77 304.86 584.6 310.53C591.36 324.07 585.87 340.54 572.32 347.3Z" fill="#FFF8EB"/>
<path d="M571.96 298.07C552.63 312.31 544.51 330.03 541.11 342.56C538.89 340.45 537 337.91 535.55 335.01C528.79 321.47 534.29 305.01 547.83 298.24C555.72 294.31 564.59 294.52 571.96 298.07Z" fill="#CBCBCB"/>
<path d="M357.38 184.4C358.882 184.4 360.1 183.182 360.1 181.68C360.1 180.178 358.882 178.96 357.38 178.96C355.878 178.96 354.66 180.178 354.66 181.68C354.66 183.182 355.878 184.4 357.38 184.4Z" fill="#161413"/>
<path d="M570.09 245.48C558.76 224.82 533.19 216.01 511.55 225.34C509.04 226.42 506.67 227.7 504.47 229.14C494.58 235.6 481.46 233.91 473.21 225.45C461.8 213.75 445.69 206.67 427.93 207.24C395.87 208.28 369.94 234.69 369.47 266.76C368.96 300.58 396.23 328.16 429.94 328.16C456.89 328.16 479.71 310.53 487.52 286.18C487.83 286.88 488.15 287.58 488.5 288.27C499.86 311.04 527.54 320.28 550.3 308.92C573.06 297.56 582.75 268.55 570.1 245.49L570.09 245.48Z" fill="#FFF8EB"/>
<path d="M599.48 210.13C607.93 210.13 614.78 203.28 614.78 194.83C614.78 186.38 607.93 179.53 599.48 179.53C591.03 179.53 584.18 186.38 584.18 194.83C584.18 203.28 591.03 210.13 599.48 210.13Z" fill="#FFF8EB"/>
<path d="M407.59 161.33C407.59 165.23 406.81 168.95 405.4 172.34C405.4 172.36 405.39 172.39 405.38 172.41C401.04 182.79 390.79 190.08 378.84 190.08C366.29 190.08 355.63 182.05 351.71 170.84C350.66 167.86 350.09 164.66 350.09 161.33C350.09 145.45 362.96 132.58 378.84 132.58C394.72 132.58 407.59 145.45 407.59 161.33Z" fill="#FFF8EB"/>
<path d="M405.831 170.84C405.831 170.84 405.691 171.38 405.401 172.34C405.401 172.36 405.391 172.39 405.381 172.41C401.041 182.79 390.791 190.08 378.841 190.08C371.951 190.08 365.641 187.66 360.691 183.63C355.451 179.35 358.521 170.84 365.291 170.84H405.831Z" fill="#CBCBCB"/>
<path d="M366.331 161.37L362.501 201.48C361.171 215.43 372.301 227.41 386.311 227.11C401.851 226.78 412.751 211.68 408.201 196.83L399.891 169.76L366.341 161.37H366.331Z" fill="#FFF8EB"/>
<path d="M324.92 173.86C324.2 178.3 320.37 181.68 315.74 181.68C314.93 180.62 314.46 179.29 314.46 177.89V172.62L324.92 173.87V173.86Z" fill="#161413"/>
<path d="M124.6 325.93C158.68 360.01 94.9702 360.01 129.05 325.93C94.9702 360.01 94.9702 296.3 129.05 330.38C94.9702 296.3 158.68 296.3 124.6 330.38C158.68 296.3 158.68 360.01 124.6 325.93Z" fill="#FBC400"/>
<path d="M126.82 325.01C126.82 373.21 81.7701 328.15 129.96 328.15C81.7601 328.15 126.82 283.1 126.82 331.29C126.82 283.09 171.87 328.15 123.68 328.15C171.88 328.15 126.82 373.2 126.82 325.01Z" fill="#F76341"/>
<path fill-rule="evenodd" clip-rule="evenodd" d="M483.113 410.497L479.003 406.387L480.417 404.973L484.527 409.083C494.165 418.721 499.58 431.795 499.58 445.43H497.58C497.58 432.325 492.375 419.76 483.113 410.497Z" fill="#8C802F"/>
<path d="M497.561 401.662L483.73 387.831C481.508 385.609 477.906 385.609 475.684 387.831L461.853 401.662C459.631 403.884 459.631 407.487 461.853 409.709L475.684 423.54C477.906 425.762 481.508 425.762 483.73 423.54L497.561 409.709C499.784 407.487 499.784 403.884 497.561 401.662Z" fill="#FFC033"/>
<path d="M479.71 411.28C482.803 411.28 485.31 408.773 485.31 405.68C485.31 402.587 482.803 400.08 479.71 400.08C476.618 400.08 474.11 402.587 474.11 405.68C474.11 408.773 476.618 411.28 479.71 411.28Z" fill="#F76341"/>
<path fill-rule="evenodd" clip-rule="evenodd" d="M235.07 373.27V346.44H237.07V373.27H235.07Z" fill="#A79B4E"/>
<path d="M236.07 365.11C236.07 365.11 227.1 366 227.1 356.14C227.1 356.14 236.07 358.73 236.07 365.11Z" fill="#9B9716"/>
<path d="M236.07 371.29C236.07 371.29 248.41 372.51 248.41 358.95C248.41 358.95 236.07 362.52 236.07 371.29Z" fill="#9B9716"/>
<path fill-rule="evenodd" clip-rule="evenodd" d="M952.63 405.25V378.42H954.63V405.25H952.63Z" fill="#46411E"/>
<path d="M953.63 397.1C953.63 397.1 944.66 397.99 944.66 388.13C944.66 388.13 953.63 390.72 953.63 397.1Z" fill="#46411E"/>
<path d="M953.63 403.28C953.63 403.28 965.97 404.5 965.97 390.94C965.97 390.94 953.63 394.51 953.63 403.28Z" fill="#46411E"/>
<path d="M492.13 441.85C489.29 441.85 486.98 439.54 486.98 436.7V434.5H484.91C483.32 434.5 482.02 433.21 482.02 431.61C482.02 430.02 483.31 428.72 484.91 428.72H488.61C491.49 428.72 493.82 431.05 493.82 433.93V437.59C496.27 437.59 498.26 439.58 498.26 442.03V443.85C496.48 442.55 494.34 441.84 492.14 441.84L492.13 441.85Z" fill="#8C802F"/>
<path d="M503.78 426.48C507.54 426.48 510.59 423.43 510.59 419.67V416.76H513.33C515.44 416.76 517.15 415.05 517.15 412.94C517.15 410.83 515.44 409.12 513.33 409.12H508.44C504.64 409.12 501.55 412.2 501.55 416.01V420.85C498.31 420.85 495.68 423.48 495.68 426.72V429.13C498.03 427.41 500.86 426.48 503.78 426.48Z" fill="#8C802F"/>
<path d="M369.31 371.29C363.9 369.26 350.79 363.23 342.76 350.19C342.53 349.81 341.94 350.01 341.97 350.45C342.24 353.91 343.23 361.57 346.85 365.05C347.16 365.34 346.86 365.86 346.45 365.77L320.38 360.03C319.89 359.92 319.65 360.6 320.1 360.83L328.31 364.99C328.74 365.21 328.529 365.87 328.049 365.79L306.579 362.39C306.069 362.31 305.879 363.03 306.359 363.21L315.07 366.52C315.48 366.68 315.42 367.28 314.98 367.34L290.17 370.97C289.65 371.05 289.7 371.82 290.23 371.82L369.16 372.12C369.64 372.12 369.76 371.46 369.32 371.3L369.31 371.29Z" fill="#A5AD3A"/>
<path d="M66.2003 143.58H262.99C281.72 143.58 296.91 128.39 296.91 109.66C296.91 77.28 255.87 63.31 236.12 88.96L202.51 132.59C202.51 108.2 174 94.94 155.35 110.64L129.28 132.59C129.28 117.69 112.87 108.62 100.26 116.54L64.8303 138.79C62.6303 140.17 63.6103 143.58 66.2103 143.58H66.2003Z" fill="#FEEECC"/>
<path d="M811.79 419.53L806.93 409.69C806.7 409.23 807.16 408.73 807.64 408.92L826.45 416.18C831.79 418.24 837.83 417.17 842.14 413.4L849.35 407.08C849.65 406.82 850.11 407.03 850.11 407.42V410.78C850.11 414.66 854.04 417.29 857.64 415.84C864.89 412.92 876.37 409.88 887.6 413.54C887.96 413.66 887.98 414.18 887.62 414.32L874.99 419.53H811.8H811.79Z" fill="#8C802F"/>
<path fill-rule="evenodd" clip-rule="evenodd" d="M884.68 420.53H794.56V418.53H884.68V420.53Z" fill="#8C802F"/>
<path fill-rule="evenodd" clip-rule="evenodd" d="M1003.98 421.242L1012.38 428.032C1020.13 434.299 1029.8 437.72 1039.77 437.72H1077.43V439.72H993.18V437.72H1026.42C1020.89 436.024 1015.69 433.277 1011.12 429.588L1002.72 422.798L1003.98 421.242Z" fill="#8C802F"/>
<path fill-rule="evenodd" clip-rule="evenodd" d="M1180.63 439.72H1153.79V437.72H1180.63V439.72Z" fill="#8C802F"/>
<path fill-rule="evenodd" clip-rule="evenodd" d="M1173.23 434.087L1170.78 436.537L1170.77 436.539C1168.73 438.574 1165.97 439.72 1163.08 439.72H1156.44V437.72H1163.08C1165.43 437.72 1167.69 436.786 1169.36 435.122C1169.36 435.122 1169.36 435.121 1169.36 435.121L1171.81 432.673L1173.23 434.087Z" fill="#8C802F"/>
<path fill-rule="evenodd" clip-rule="evenodd" d="M1225.84 439.72C1225.29 439.72 1224.84 439.272 1224.84 438.72C1224.84 438.168 1225.29 437.72 1225.84 437.72H1235.94C1241.06 437.72 1246.03 435.904 1249.95 432.605L1251.23 434.135C1249.48 435.61 1247.54 436.813 1245.47 437.72H1257.89V439.72H1225.84Z" fill="#8C802F"/>
<path d="M906.9 361.63L892.24 385.2L879.67 380.73L878.51 382.8L856.11 373.47L856.51 372.49V372.48L842.45 367.48L853.83 339.51L867.55 345.23L893.44 356.02L906.9 361.63Z" fill="#423772"/>
<path d="M1267.21 274.38L1254.55 331.31L1223.99 326.81L1237.51 266.14L1267.21 274.38Z" fill="#423772"/>
<path d="M853.83 339.51L922.87 335.97L906.9 361.63L853.83 339.51Z" fill="#115EC1"/>
<path d="M243.1 346.435C243.1 342.55 239.951 339.4 236.065 339.4C232.18 339.4 229.03 342.55 229.03 346.435C229.03 350.32 232.18 353.47 236.065 353.47C239.951 353.47 243.1 350.32 243.1 346.435Z" fill="#FFF8EB"/>
<path d="M236.07 349.17C237.578 349.17 238.8 347.948 238.8 346.44C238.8 344.932 237.578 343.71 236.07 343.71C234.562 343.71 233.34 344.932 233.34 346.44C233.34 347.948 234.562 349.17 236.07 349.17Z" fill="#FF5F2F"/>
<path d="M965.97 374.41C965.97 367.683 960.517 362.23 953.79 362.23C947.064 362.23 941.61 367.683 941.61 374.41C941.61 381.137 947.064 386.59 953.79 386.59C960.517 386.59 965.97 381.137 965.97 374.41Z" fill="#FFC033"/>
<path fill-rule="evenodd" clip-rule="evenodd" d="M840.064 272.826L809.854 287.776L808.967 285.984L839.177 271.034L840.064 272.826Z" fill="#5A5959"/>
<path fill-rule="evenodd" clip-rule="evenodd" d="M854.177 120.437L852.237 122.377C847.504 127.11 840.897 129.455 834.239 128.775L822.598 127.575L822.803 125.585L834.442 126.785C834.442 126.785 834.442 126.785 834.442 126.785C840.503 127.405 846.516 125.27 850.823 120.963L852.763 119.023L854.177 120.437Z" fill="#5A5959"/>
<path fill-rule="evenodd" clip-rule="evenodd" d="M853.728 130.785C853.727 130.785 853.728 130.785 853.728 130.785L831.338 128.475L831.543 126.485L853.933 128.795C859.813 129.404 865.666 127.32 869.843 123.143L871.258 124.557C866.655 129.159 860.208 131.456 853.728 130.785Z" fill="#5A5959"/>
<path fill-rule="evenodd" clip-rule="evenodd" d="M779.565 201.34L773.226 190.16L775.835 188.68L782.175 199.86C786.117 206.816 784.939 215.553 779.28 221.202L777.161 219.078C781.862 214.386 782.844 207.124 779.565 201.34Z" fill="#FFF8EB"/>
<path fill-rule="evenodd" clip-rule="evenodd" d="M776.275 195.54L778.885 194.06L790.145 213.92C790.145 213.92 790.145 213.92 790.145 213.92C793.937 220.602 795.288 228.396 793.958 235.97L791.003 235.45C792.117 229.107 791.163 222.594 788.31 216.856C788.485 221.797 787.3 226.776 784.751 231.208L782.15 229.712C786.365 222.383 786.384 213.369 782.216 206.02L776.275 195.54Z" fill="#FFF8EB"/>
<path fill-rule="evenodd" clip-rule="evenodd" d="M1075.63 95.1346L969.435 262.995L967.745 261.925L1073.94 94.0654L1075.63 95.1346Z" fill="#423772"/>
<path fill-rule="evenodd" clip-rule="evenodd" d="M1127.42 234.578C1127.81 234.728 1128.06 235.098 1128.06 235.51V257.72H1126.06V238.077L1103.04 263.137L1101.56 261.783L1126.32 234.833C1126.6 234.53 1127.04 234.429 1127.42 234.578Z" fill="#423772"/>
<path fill-rule="evenodd" clip-rule="evenodd" d="M1011.43 70.4496L989.027 39.3796L992.272 37.0404L1014.67 68.1104L1011.43 70.4496Z" fill="#423772"/>
</g>
</g>
<defs>
<clipPath id="clip0_1528_79425">
<rect width="1335" height="464" fill="white"/>
</clipPath>
</defs>
</svg>
