<svg width="1335" height="464" viewBox="0 0 1335 464" fill="none" xmlns="http://www.w3.org/2000/svg">
<g clip-path="url(#clip0_1528_82131)">
<mask id="mask0_1528_82131" style="mask-type:luminance" maskUnits="userSpaceOnUse" x="0" y="0" width="1335" height="464">
<path d="M1335 0H0V464H1335V0Z" fill="white"/>
</mask>
<g mask="url(#mask0_1528_82131)">
<path d="M1335 -0.600098H0V464.6H1335V-0.600098Z" fill="#CCB2E5"/>
<path d="M743.1 200.101C753.1 200.101 761.2 192.001 761.2 182.001C761.2 172.001 753.1 163.901 743.1 163.901C733.1 163.901 725 172.001 725 182.001C725 192.001 733.1 200.101 743.1 200.101Z" fill="#FFDCE5"/>
<path d="M419 144.901C425.1 144.901 430 140.001 430 133.901C430 127.801 425.1 122.901 419 122.901C412.9 122.901 408 127.801 408 133.901C408 140.001 413 144.901 419 144.901Z" fill="#8E88C3"/>
<path d="M1268 209C1274.1 209 1279 204.1 1279 198C1279 191.9 1274.1 187 1268 187C1261.9 187 1257 191.9 1257 198C1257 204.1 1262 209 1268 209Z" fill="#FFDCE5"/>
<path d="M371.1 310.001L345.8 280.901L335 290.301L360.3 319.401L371.1 310.001Z" fill="#8E88C3"/>
<path d="M1324.6 290L1295 314.7L1304.2 325.7L1333.8 301L1324.6 290Z" fill="#8E88C3"/>
<path d="M613.1 109.901L567 124.201L573.9 146.501L620 132.201L613.1 109.901Z" fill="#FFAECD"/>
<path d="M485.939 372.876C485.939 372.876 581.973 356.949 473.092 196.112C473.092 196.112 389.39 247.513 485.939 372.876Z" fill="#9B9716"/>
<path d="M701.97 321.861C701.97 321.861 747.583 257.314 820.581 288.474C820.482 288.487 777.333 352.602 701.97 321.861Z" fill="#9B9716"/>
<path d="M738.487 389.401C730.589 395.204 716.718 388.088 707.832 390.29C698.55 392.546 689.548 405.157 680.282 403.778C671.016 402.399 666.119 387.72 657.986 382.759C650.078 377.969 634.796 380.627 629.006 372.829C623.203 364.931 630.32 351.06 628.117 342.174C625.861 332.892 613.251 323.89 614.629 314.624C616.008 305.358 630.687 300.461 635.648 292.328C640.438 284.42 637.78 269.138 645.578 263.348C653.476 257.545 667.347 264.662 676.233 262.459C685.515 260.203 694.517 247.593 703.783 248.971C713.049 250.35 717.946 265.029 726.079 269.99C733.987 274.78 749.269 272.122 755.059 279.921C760.862 287.818 753.745 301.689 755.948 310.575C758.204 319.857 770.814 328.859 769.436 338.125C768.057 347.391 753.378 352.288 748.417 360.421C743.713 368.217 746.384 383.598 738.487 389.401Z" fill="#FFDCE5"/>
<path d="M696.775 361.304C716.101 358.708 729.657 340.945 727.061 321.619C724.465 302.292 706.702 288.736 687.376 291.332C668.05 293.928 654.494 311.691 657.09 331.018C659.686 350.344 677.349 363.913 696.775 361.304Z" fill="#FCD632"/>
<path d="M606.527 341.442C601.831 350.044 586.321 349.504 579.13 355.313C571.669 361.36 568.868 376.568 559.837 379.193C550.807 381.819 540.223 370.628 530.699 369.587C521.486 368.605 508.755 377.479 500.166 372.881C491.564 368.184 492.104 352.675 486.295 345.484C480.486 338.293 465.04 335.222 462.414 326.191C459.789 317.16 470.979 306.577 472.021 297.053C473.016 287.939 464.129 275.108 468.727 266.52C473.324 257.931 488.933 258.458 496.124 252.649C503.585 246.602 506.386 231.394 515.416 228.768C524.447 226.143 535.031 237.333 544.555 238.375C553.767 239.357 566.499 230.483 575.088 235.08C583.69 239.777 583.15 255.287 588.959 262.478C595.006 269.939 610.214 272.739 612.84 281.77C615.465 290.801 604.275 301.385 603.233 310.908C602.238 320.022 611.224 332.84 606.527 341.442Z" fill="#FFDCE5"/>
<path d="M542.326 338.966C561.653 336.37 575.209 318.608 572.613 299.281C570.017 279.955 552.254 266.399 532.928 268.995C513.601 271.591 500.045 289.354 502.641 308.68C505.237 328.006 523 341.562 542.326 338.966Z" fill="#FCD632"/>
<path d="M632.66 243.794C655.926 248.741 658.099 234.121 634.499 231.944C654.351 218.986 645.597 207.146 627.353 222.309C632.3 199.044 617.68 196.871 615.503 220.471C602.544 200.619 590.705 209.373 605.868 227.617C582.603 222.67 580.429 237.289 604.029 239.467C584.178 252.425 592.833 264.278 611.176 249.101C606.229 272.367 620.848 274.54 623.026 250.94C635.885 270.805 647.837 262.137 632.66 243.794Z" fill="#FCD632"/>
<path d="M632.66 243.794C630.841 241.516 628.513 239.205 625.86 236.737C629.183 235.18 631.996 233.592 634.499 231.944C631.631 231.623 628.294 231.567 624.686 231.749C625.931 228.252 626.82 225.105 627.452 222.296C625.174 224.116 622.863 226.444 620.394 229.096C618.838 225.774 617.236 222.861 615.602 220.457C615.38 223.312 615.224 226.663 615.406 230.271C611.909 229.025 608.763 228.136 605.954 227.504C607.773 229.783 610.102 232.093 612.754 234.562C609.432 236.118 606.519 237.72 604.115 239.355C606.983 239.676 610.321 239.732 613.929 239.55C612.683 243.047 611.794 246.193 611.162 249.002C613.44 247.183 615.751 244.855 618.319 242.189C619.875 245.512 621.477 248.424 623.112 250.828C623.334 247.973 623.489 244.622 623.307 241.015C626.619 242.386 629.765 243.275 632.66 243.794Z" fill="#FF5817"/>
<path d="M641.037 383.522C675.21 386.297 675.672 364.946 641.436 366.215C667.517 344.045 652.838 328.663 629.463 353.697C632.238 319.524 610.887 319.062 612.156 353.298C589.986 327.217 574.604 341.896 599.638 365.271C565.465 362.496 565.003 383.847 599.239 382.578C573.158 404.747 587.837 420.13 611.212 395.096C608.437 429.269 629.788 429.731 628.519 395.495C650.688 421.576 666.071 406.897 641.037 383.522Z" fill="#FCD632"/>
<path d="M641.036 383.522C637.934 380.71 634.297 377.667 629.952 374.618C634.417 371.799 638.273 368.96 641.436 366.215C637.22 366.377 632.535 366.805 627.309 367.709C628.427 362.514 629.117 357.881 629.463 353.697C626.651 356.799 623.608 360.437 620.559 364.781C617.74 360.317 614.901 356.46 612.156 353.298C612.318 357.514 612.746 362.198 613.65 367.425C608.455 366.306 603.822 365.617 599.638 365.271C602.74 368.083 606.378 371.126 610.722 374.174C606.258 376.994 602.401 379.833 599.239 382.578C603.455 382.415 608.139 381.988 613.366 381.084C612.247 386.279 611.558 390.912 611.212 395.096C614.024 391.994 617.067 388.356 620.115 384.012C622.935 388.476 625.773 392.332 628.519 395.495C628.356 391.279 627.929 386.594 627.025 381.368C632.121 382.5 636.853 383.176 641.036 383.522Z" fill="#FF5817"/>
<path d="M791.62 395.952L563.323 475.03L563.977 476.92L792.274 397.842L791.62 395.952Z" fill="#041F49"/>
<path d="M781.805 451.992L777.735 446.485C762.424 425.637 735.692 417.423 711.296 425.846L710.634 423.917C735.895 415.176 763.486 423.78 779.287 445.267L783.356 450.774L781.805 451.992Z" fill="#041F49"/>
<path d="M619.711 457.621L619.048 455.692L653.657 443.677C667.728 438.761 680.877 430.739 691.599 420.419L700.98 411.39L702.382 412.816L693.001 421.845C682.008 432.403 668.688 440.65 654.32 445.606L619.711 457.621Z" fill="#041F49"/>
<path d="M662.555 480.622L658.22 474.646C647.594 460.132 628.959 454.361 611.995 460.272L611.333 458.343C629.162 452.114 648.642 458.175 659.772 473.429L664.106 479.405L662.555 480.622Z" fill="#041F49"/>
<path d="M774.059 404.096L773.397 402.167C780.432 399.709 785.475 393.684 786.512 386.381L788.521 372.792L790.484 373.134L788.475 386.722C787.333 394.746 781.775 401.445 774.059 404.096Z" fill="#041F49"/>
<path d="M644.501 419.59L596.017 463.784L597.364 465.263L645.849 421.069L644.501 419.59Z" fill="#041F49"/>
<path d="M778.061 448.157L763.617 443.538C760.98 442.682 758.186 443.663 756.569 445.898L747.739 458.284L759.471 474.264L773.865 469.505C776.475 468.65 778.263 466.19 778.201 463.474L778.061 448.157Z" fill="#9285DC"/>
<path d="M788.386 383.808L777.129 373.616C775.065 371.775 772.098 371.467 769.753 372.791L756.551 380.416L760.66 399.741L775.808 401.339C778.563 401.574 781.192 400.111 782.273 397.645L788.386 383.808Z" fill="#9285DC"/>
<path d="M749.016 425.723L736.414 425.801C734.095 425.81 732.074 427.292 731.461 429.493L727.627 441.511L741.025 451.113L751.214 443.589C753.05 442.233 753.834 439.807 753.144 437.68L749.016 425.723Z" fill="#9285DC"/>
<path d="M646.037 463.569L635.101 457.269C633.131 456.121 630.64 456.354 628.93 457.896L619.581 466.416L626.343 481.45L638.884 480.169C641.177 479.962 643.058 478.196 643.472 476.021L646.037 463.569Z" fill="#9285DC"/>
<path d="M695.661 418.36L684.725 412.06C682.754 410.912 680.263 411.146 678.553 412.687L669.191 421.108L675.953 436.142L688.593 434.848C690.886 434.641 692.668 432.888 693.182 430.7L695.661 418.36Z" fill="#9285DC"/>
<path d="M615.432 446.794L610.253 435.281C609.365 433.18 607.184 431.96 604.891 432.167L592.363 433.547L588.975 449.641L599.911 455.942C601.882 457.09 604.373 456.856 606.083 455.315L615.432 446.794Z" fill="#9285DC"/>
<path d="M641.255 424.962L630.034 430.808C628.059 431.88 626.838 434.062 627.244 436.328L629.331 448.862L645.603 451.318L651.242 439.966C652.277 437.91 651.845 435.445 650.218 433.848L641.255 424.962Z" fill="#9285DC"/>
<path d="M480.109 398.58C480.109 398.58 522.197 351.357 587.919 416.992C587.906 416.893 525.64 460.369 480.109 398.58Z" fill="#7D7900"/>
<path d="M455.638 336.586L648.621 518.11L324.559 739.119L268.941 708.148L455.638 336.586Z" fill="#9285DC"/>
<path d="M508.353 402.742L298.503 741.968L300.204 743.02L510.053 403.794L508.353 402.742Z" fill="#CCB2E5"/>
<path d="M1244.1 311.401L1168.3 374.301L1152.6 387.301L1128.8 407.101L1111.2 421.701L1087.4 441.401L1069.8 456.001L1059.8 464.301C1057.2 463.001 1054 462.301 1051.6 460.801C1048.3 458.701 1045.7 454.301 1041.8 453.301C1038 452.301 1033.7 455.001 1029.6 455.201C1025.5 455.501 1020.9 453.401 1017.3 454.901C1013.5 456.401 1011.6 461.101 1008.6 463.601C1006.4 465.401 1003.3 466.501 1001 468.101L990 461.201L970.6 449.101L944.4 432.701L925 420.601L898.8 404.201L881.5 393.301L798 341.001L926.7 205.201L953.7 176.901C958.3 172.001 961.7 166.401 964 160.201C965.5 156.101 966.4 151.701 966.7 147.301C966.9 145.201 966.9 143.001 966.7 140.801C965.9 129.201 969.9 118.401 977 110.301C984.1 102.201 994.3 96.801 1005.8 96.101C1017.4 95.301 1028.2 99.301 1036.3 106.401C1044.4 113.501 1049.8 123.701 1050.5 135.201C1050.5 135.501 1050.5 135.801 1050.6 136.001C1051.7 149.001 1058 161.001 1068.2 169.201L1099.3 194.301L1244.1 311.401Z" fill="#9285DC"/>
<path d="M1104.4 232.401L933.5 255.201L926.8 205.201L953.7 176.901C958.3 172.101 961.7 166.401 964 160.201C965.5 156.101 966.4 151.701 966.7 147.301L1050.6 136.101C1051.7 149.101 1058 161.101 1068.2 169.301L1099.3 194.401L1104.4 232.401Z" fill="#041F49"/>
<path d="M1204.1 149.401L816.2 175.201C813.1 175.401 810.7 178.101 810.9 181.201L832 497.501C832.2 500.601 834.9 503.001 838 502.801L1225.9 477.001C1229 476.801 1231.4 474.101 1231.2 471.001L1210.1 154.701C1210 151.501 1207.2 149.201 1204.1 149.401Z" fill="#FFDCE5"/>
<path d="M858.1 496.901C847.4 496.901 838.4 488.601 837.7 477.801L828.3 335.501L819.3 200.301C818.9 194.901 820.7 189.601 824.3 185.501C827.9 181.401 832.9 178.901 838.3 178.601L1182.7 155.701C1193.9 154.901 1203.7 163.501 1204.5 174.701L1223 452.201C1223.7 463.401 1215.2 473.201 1204 474.001L1203.9 472.001C1214 471.301 1221.8 462.501 1221.1 452.401L1202.6 174.901C1201.9 164.801 1193.1 157.001 1183 157.701L838.5 180.501C828.4 181.201 820.6 190.001 821.3 200.101L830.9 344.701L839.8 477.701C840.1 482.601 842.3 487.101 846.1 490.401C849.8 493.601 854.5 495.301 859.5 494.901L859.6 496.901C859 496.901 858.6 496.901 858.1 496.901Z" fill="#FF7CAE"/>
<path d="M1244.1 311.401L1265.6 634.101L819.6 663.801L798.1 341.101L1017.7 478.701L1031.9 487.601L1232.8 320.901L1232.9 320.801L1244.1 311.401Z" fill="#FCF4E6"/>
<path d="M1165.5 376.701L1152.7 387.401L898.9 404.301L884.8 395.401C883.2 394.401 883.7 391.901 885.6 391.701C885.6 391.701 885.6 391.701 885.7 391.701L1164.2 373.201C1166 373.001 1166.9 375.501 1165.5 376.701Z" fill="#FDB0CE"/>
<path d="M1128.8 407.101L1111.2 421.701L944.4 432.801L925 420.701L1128.8 407.101Z" fill="#FDB0CE"/>
<path d="M1087.4 441.401L1069.8 456.001L990 461.301L970.6 449.201L1087.4 441.401Z" fill="#FDB0CE"/>
<path d="M1232.12 320.052L919.549 579.451L920.826 580.99L1233.4 321.591L1232.12 320.052Z" fill="#6053A5"/>
<path d="M893.6 252.901C882.1 252.901 871.2 248.801 862.5 241.201C853 232.901 847.3 221.301 846.4 208.701L848.5 208.601C849.3 220.701 854.8 231.701 863.8 239.601C872.9 247.601 884.5 251.501 896.6 250.701L896.7 252.801C895.8 252.801 894.7 252.901 893.6 252.901Z" fill="#FDB0CE"/>
<path d="M852.6 301.101C851.8 288.501 855.9 276.301 864.2 266.701C872.5 257.201 884.1 251.501 896.7 250.601L896.8 252.701C884.7 253.501 873.7 259.001 865.8 268.001C857.9 277.001 853.9 288.901 854.7 300.901L852.6 301.101Z" fill="#FDB0CE"/>
<path d="M867.9 245.401C867.1 232.801 871.2 220.601 879.5 211.001C887.8 201.501 899.4 195.801 912 194.901L912.1 197.001C900 197.801 889 203.301 881.1 212.301C873.1 221.401 869.2 233.001 870 245.101L867.9 245.401Z" fill="#FDB0CE"/>
<path d="M920.4 207.701C927.1 207.701 932.6 202.301 932.6 195.501C932.6 188.701 927.2 183.301 920.4 183.301C913.6 183.301 908.2 188.701 908.2 195.501C908.2 202.301 913.7 207.701 920.4 207.701Z" fill="#9285DC"/>
<path d="M847 212.901C853.8 212.901 859.3 207.401 859.3 200.601C859.3 193.801 853.8 188.301 847 188.301C840.2 188.301 834.7 193.801 834.7 200.601C834.6 207.401 840.1 212.901 847 212.901Z" fill="#9285DC"/>
<path d="M847 204.901C849.4 204.901 851.3 203.001 851.3 200.601C851.3 198.201 849.4 196.301 847 196.301C844.6 196.301 842.7 198.201 842.7 200.601C842.6 203.001 844.6 204.901 847 204.901Z" fill="#2D2D2D"/>
<path d="M853.6 313.301C860.4 313.301 865.9 307.801 865.9 301.001C865.9 294.201 860.4 288.701 853.6 288.701C846.8 288.701 841.3 294.201 841.3 301.001C841.3 307.801 846.8 313.301 853.6 313.301Z" fill="#9285DC"/>
<path d="M853.6 305.301C856 305.301 857.9 303.401 857.9 301.001C857.9 298.601 856 296.701 853.6 296.701C851.2 296.701 849.3 298.601 849.3 301.001C849.3 303.401 851.2 305.301 853.6 305.301Z" fill="#2D2D2D"/>
<path d="M920.4 201.201C923.4 201.201 925.9 198.701 925.9 195.701C925.9 192.701 923.4 190.201 920.4 190.201C917.4 190.201 914.9 192.701 914.9 195.701C914.9 198.801 917.4 201.201 920.4 201.201Z" fill="#2D2D2D"/>
<path d="M890.1 210.001L889.5 201.601L897.9 201.001C905.2 200.501 911.4 206.001 911.9 213.301L912.5 221.701L904.1 222.301C896.9 222.701 890.6 217.201 890.1 210.001Z" fill="#9285DC"/>
<path d="M827.8 238.101L827.2 229.701C826.7 222.401 832.2 216.201 839.5 215.701L847.9 215.101L848.5 223.501C849 230.801 843.5 237.001 836.2 237.501L827.8 238.101Z" fill="#9285DC"/>
<path d="M888.3 286.301L879.9 286.901C872.6 287.401 866.4 281.901 865.9 274.601L865.3 266.201L873.7 265.601C881 265.101 887.2 270.601 887.7 277.901L888.3 286.301Z" fill="#9285DC"/>
<path d="M855.1 282.301L846.7 282.901C839.4 283.401 833.2 277.901 832.7 270.601L832.1 262.201L840.5 261.601C847.8 261.101 854 266.601 854.5 273.901L855.1 282.301Z" fill="#9285DC"/>
<path d="M862.7 195.601L862.1 187.201L870.5 186.601C877.8 186.101 884 191.601 884.5 198.901L885.1 207.301L876.7 207.901C869.5 208.301 863.2 202.801 862.7 195.601Z" fill="#9285DC"/>
<path d="M1134.3 236.501L1134.2 234.401C1146.3 233.601 1157.3 228.201 1165.2 219.101C1173.1 210.001 1177.1 198.401 1176.3 186.301L1178.4 186.201C1179.2 198.801 1175.1 211.001 1166.8 220.601C1158.5 230.001 1146.9 235.701 1134.3 236.501Z" fill="#FDB0CE"/>
<path d="M1182.4 278.701C1181.6 266.601 1176.2 255.601 1167.1 247.701C1158 239.701 1146.3 235.801 1134.3 236.601L1134.2 234.501C1146.8 233.701 1159 237.801 1168.6 246.101C1178.1 254.401 1183.8 266.001 1184.7 278.601L1182.4 278.701Z" fill="#FDB0CE"/>
<path d="M1159.9 225.601C1159.1 213.501 1153.7 202.501 1144.6 194.601C1135.5 186.601 1123.9 182.701 1111.8 183.501L1111.7 181.401C1124.3 180.601 1136.5 184.701 1146.1 193.001C1155.6 201.301 1161.3 212.901 1162.2 225.501L1159.9 225.601Z" fill="#FDB0CE"/>
<path d="M1103.3 195.101C1110 195.101 1115.5 189.701 1115.5 182.901C1115.5 176.201 1110.1 170.701 1103.3 170.701C1096.6 170.701 1091.1 176.101 1091.1 182.901C1091.2 189.601 1096.6 195.101 1103.3 195.101Z" fill="#9285DC"/>
<path d="M1176.8 190.501C1183.6 190.501 1189.1 185.001 1189.1 178.201C1189.1 171.401 1183.6 165.901 1176.8 165.901C1170 165.901 1164.5 171.401 1164.5 178.201C1164.5 185.001 1170 190.501 1176.8 190.501Z" fill="#9285DC"/>
<path d="M1176.8 182.501C1179.2 182.501 1181.1 180.601 1181.1 178.201C1181.1 175.801 1179.2 173.901 1176.8 173.901C1174.4 173.901 1172.5 175.801 1172.5 178.201C1172.5 180.601 1174.4 182.501 1176.8 182.501Z" fill="#2D2D2D"/>
<path d="M1183.5 290.901C1190.3 290.901 1195.8 285.401 1195.8 278.601C1195.8 271.801 1190.3 266.301 1183.5 266.301C1176.7 266.301 1171.2 271.801 1171.2 278.601C1171.2 285.401 1176.7 290.901 1183.5 290.901Z" fill="#9285DC"/>
<path d="M1183.5 282.901C1185.9 282.901 1187.8 281.001 1187.8 278.601C1187.8 276.201 1185.9 274.301 1183.5 274.301C1181.1 274.301 1179.2 276.201 1179.2 278.601C1179.2 281.001 1181.1 282.901 1183.5 282.901Z" fill="#2D2D2D"/>
<path d="M1103.4 188.601C1106.4 188.601 1108.9 186.101 1108.9 183.101C1108.9 180.101 1106.4 177.601 1103.4 177.601C1100.4 177.601 1097.9 180.101 1097.9 183.101C1097.9 186.101 1100.3 188.601 1103.4 188.601Z" fill="#2D2D2D"/>
<path d="M1114.5 207.801L1113.9 199.401C1113.4 192.101 1118.9 185.901 1126.2 185.401L1134.6 184.801L1135.2 193.201C1135.7 200.501 1130.2 206.701 1122.9 207.201L1114.5 207.801Z" fill="#9285DC"/>
<path d="M1178.3 201.101L1177.7 192.701L1186 192.101C1193.3 191.601 1199.5 197.101 1200 204.401L1200.6 212.801L1192.2 213.401C1185 213.901 1178.8 208.401 1178.3 201.101Z" fill="#9285DC"/>
<path d="M1158.9 246.201L1167.2 245.601L1167.8 254.001C1168.3 261.301 1162.8 267.501 1155.5 268.001L1147.2 268.601L1146.6 260.201C1146.2 252.901 1151.7 246.601 1158.9 246.201Z" fill="#9285DC"/>
<path d="M1191.3 237.801L1199.7 237.201L1200.3 245.601C1200.8 252.901 1195.3 259.101 1188 259.601L1179.6 260.201L1179 251.801C1178.5 244.601 1184 238.301 1191.3 237.801Z" fill="#9285DC"/>
<path d="M1139.7 189.901L1139.2 181.501C1138.7 174.201 1144.2 168.001 1151.5 167.501L1159.9 166.901L1160.4 175.301C1160.9 182.601 1155.4 188.801 1148.1 189.301L1139.7 189.901Z" fill="#9285DC"/>
<path d="M1025 232.601L1026.4 235.001L1030.3 217.401L1003.1 208.801L979.3 266.701C975.7 275.701 979.2 285.701 987.1 290.701C989 291.901 989.9 294.101 989.2 296.201L980.2 324.801C973.4 323.001 965.9 323.601 959.1 327.101C958.5 327.401 958.5 328.401 959.2 328.601L978.5 334.701L997.8 340.801C998.5 341.001 999.1 340.301 998.8 339.601C995.3 332.801 989.5 328.101 982.8 325.601L991.8 297.001C992.5 294.901 994.5 293.601 996.7 293.701C1003.6 294.001 1010.2 290.601 1014 284.901L999.2 244.601L1025 232.601Z" fill="#9285DC"/>
<path d="M1084.4 343.901C1077.2 341.301 1069.7 341.701 1063.2 344.401L1050.5 317.301C1049.6 315.301 1050.2 313.001 1051.8 311.601C1058.9 305.701 1061.1 295.301 1056.3 286.801L1026.4 235.001L1016.7 278.501C1016.2 280.901 1015.2 283.101 1013.9 285.001L1020.7 303.401C1024.1 312.501 1033.5 317.501 1042.6 315.801C1044.8 315.401 1046.9 316.501 1047.9 318.401L1060.6 345.501C1054.4 348.801 1049.2 354.301 1046.6 361.501C1046.4 362.201 1047 362.901 1047.7 362.501L1066 353.901L1084.3 345.301C1085.1 345.101 1085.1 344.201 1084.4 343.901Z" fill="#041F49"/>
<path d="M1026.4 235.001L1025 232.601L999.1 244.701L1013.9 285.001C1015.2 283.101 1016.1 280.901 1016.7 278.501L1026.4 235.001Z" fill="#C9BEFF"/>
<path d="M1232.08 320.121L1031.16 486.859L1032.44 488.398L1233.35 321.66L1232.08 320.121Z" fill="#6053A5"/>
<path d="M814.907 350.443L813.845 352.137L1031.26 488.418L1032.32 486.723L814.907 350.443Z" fill="#6053A5"/>
<path d="M1303.1 439.2C1313.1 439.2 1321.2 431.1 1321.2 421.1C1321.2 411.1 1313.1 403 1303.1 403C1293.1 403 1285 411.1 1285 421.1C1285 431.1 1293.1 439.2 1303.1 439.2Z" fill="#FFAECD"/>
</g>
</g>
<defs>
<clipPath id="clip0_1528_82131">
<rect width="1335" height="464" fill="white"/>
</clipPath>
</defs>
</svg>
