<svg width="1335" height="464" viewBox="0 0 1335 464" fill="none" xmlns="http://www.w3.org/2000/svg">
<g clip-path="url(#clip0_1528_85641)">
<rect width="1335" height="464" fill="#042D12"/>
<mask id="mask0_1528_85641" style="mask-type:luminance" maskUnits="userSpaceOnUse" x="0" y="0" width="1335" height="464">
<path d="M1335 464L0 463.99V0H1335V464Z" fill="white"/>
</mask>
<g mask="url(#mask0_1528_85641)">
<path d="M1335 464L0 463.99V0H1335V464Z" fill="#042D12"/>
<path d="M884.66 216.89V432.84H1232.79" fill="#82882E"/>
<path d="M1232.79 365.42H884.66V217.34L1232.79 243.59V365.42Z" fill="#AB2F0F"/>
<path fill-rule="evenodd" clip-rule="evenodd" d="M1232.72 244.587L884.585 218.337L884.735 216.343L1232.87 242.593L1232.72 244.587Z" fill="#3B1005"/>
<path fill-rule="evenodd" clip-rule="evenodd" d="M1232.72 259.717L884.585 233.467L884.735 231.473L1232.87 257.723L1232.72 259.717Z" fill="#3B1005"/>
<path fill-rule="evenodd" clip-rule="evenodd" d="M1232.72 274.857L884.585 248.607L884.735 246.613L1232.87 272.863L1232.72 274.857Z" fill="#3B1005"/>
<path fill-rule="evenodd" clip-rule="evenodd" d="M1232.72 289.997L884.585 263.747L884.735 261.753L1232.87 288.003L1232.72 289.997Z" fill="#3B1005"/>
<path fill-rule="evenodd" clip-rule="evenodd" d="M1232.72 305.127L884.585 278.877L884.735 276.883L1232.87 303.133L1232.72 305.127Z" fill="#3B1005"/>
<path fill-rule="evenodd" clip-rule="evenodd" d="M1232.72 320.267L884.585 294.017L884.735 292.023L1232.87 318.273L1232.72 320.267Z" fill="#3B1005"/>
<path fill-rule="evenodd" clip-rule="evenodd" d="M1232.72 335.397L884.585 309.147L884.735 307.153L1232.87 333.403L1232.72 335.397Z" fill="#3B1005"/>
<path d="M1232.79 326.65V432.82H884.72V326.65C884.72 325.68 885.36 324.75 886.52 324.03L1058.65 217.34L1231 324.03C1232.16 324.75 1232.8 325.68 1232.8 326.65H1232.79Z" fill="#F25B2F"/>
<path d="M1150.68 283.03H966.77V379.05H1150.68V283.03Z" fill="#F5CF72"/>
<path d="M1150.68 379.05H966.77V398.28H1150.68V379.05Z" fill="#AB2F0F"/>
<path d="M884.66 217.34H669.15V432.85H884.66V217.34Z" fill="#D23A13"/>
<path d="M669.15 217.34L776.91 136.11L884.66 217.34H669.15Z" fill="#D23A13"/>
<path fill-rule="evenodd" clip-rule="evenodd" d="M772.395 130.121C775.068 128.106 778.752 128.106 781.425 130.121L889.175 211.351C892.482 213.845 893.142 218.547 890.649 221.855C888.155 225.162 883.452 225.822 880.145 223.329L776.91 145.502L673.664 223.329C670.357 225.822 665.654 225.162 663.161 221.855C660.667 218.547 661.328 213.844 664.635 211.351L772.395 130.121Z" fill="#FDF9F0"/>
<path fill-rule="evenodd" clip-rule="evenodd" d="M1053.85 209.72C1056.78 207.881 1060.5 207.88 1063.42 209.717L1237.57 319.027C1241.78 321.67 1243.06 327.225 1240.41 331.435C1237.77 335.645 1232.22 336.915 1228.01 334.273L1058.64 227.968L889.509 334.27C885.301 336.915 879.745 335.648 877.1 331.439C874.455 327.231 875.722 321.675 879.931 319.03L1053.85 209.72Z" fill="#FDF9F0"/>
<path d="M810.24 216.38H743.58V283.04H810.24V216.38Z" fill="#F25B2F"/>
<path d="M810.24 272H743.58V283.04H810.24V272Z" fill="#AB2F0F"/>
<path d="M678.9 225C675.1 225 672.5 224.5 672.2 224.5L672.8 221.6C672.9 221.6 687 224.2 698 216.7C704.6 212.2 708.9 204.9 710.7 195.1C710.8 194.6 711.1 194.2 711.5 194C711.9 193.8 712.4 193.8 712.8 194C712.9 194.1 723.8 199.1 733.3 194C740.6 190 745.2 181.1 747 167.5C747.1 167.1 747.3 166.7 747.6 166.5C747.9 166.3 748.3 166.2 748.8 166.2C749.7 166.4 770.1 169.8 775.5 145.2C775.7 144.5 776.3 144 777 144C777.7 144 778.3 144.5 778.5 145.2C778.7 146 783.3 165.4 812.4 171.1C813.1 171.2 813.6 171.8 813.6 172.5C813.6 172.6 814.6 186 824.9 195C832.1 201.3 842.1 204 854.6 203.1C855.3 203 856 203.5 856.2 204.2C856.3 204.8 860 218.4 878.4 221.5L877.9 224.5C860.5 221.5 855 209.9 853.6 206.1C840.8 206.8 830.4 203.8 822.8 197.1C813.3 188.8 811.1 177.4 810.6 173.7C788.8 169.1 780.3 157 777.1 150.3C771.4 167 757.8 170.1 749.7 169.3C747.6 183.1 742.6 192.3 734.7 196.5C726.2 201.1 717.1 198.7 713.3 197.3C711.2 207 706.6 214.3 699.7 219C692.6 223.9 684.5 225 678.9 225Z" fill="#121831"/>
<path d="M801.946 349.614L779.978 381.322C759.577 410.762 780.662 451 816.5 451C852.338 451 873.423 410.772 853.022 381.322L831.054 349.614C824.019 339.462 808.991 339.462 801.956 349.614H801.946Z" fill="#1A7249"/>
<path d="M1090.12 303.59L1058.59 376.45C1058.06 377.68 1058.96 379.06 1060.3 379.06H1123.37C1124.71 379.06 1125.62 377.68 1125.08 376.45L1093.55 303.59C1092.9 302.09 1090.77 302.09 1090.12 303.59Z" fill="#46350B"/>
<path d="M693.59 200.8L693.05 211.54L692.48 222.95C692.44 223.72 691.79 224.31 691.01 224.28C690.29 224.24 689.72 223.66 689.68 222.95L688.58 200.8C688.52 197.34 693.64 197.33 693.58 200.8H693.59Z" fill="white"/>
<path d="M896.3 332.6C894.6 332.6 893.6 332.5 893.6 332.5L893.9 329.5C895.2 329.7 927 332.9 945.7 296.9C946 296.4 946.6 296 947.2 296.1C947.6 296.1 985.1 298.6 1000.3 262.7C1000.5 262.1 1001.1 261.8 1001.8 261.8C1001.9 261.8 1013.9 262.5 1026.6 258.5C1043.5 253.2 1053.7 242.6 1057.1 227C1057.2 226.4 1057.7 225.9 1058.4 225.8C1059 225.7 1059.6 226 1059.9 226.6C1059.9 226.7 1064.3 235.1 1072.5 242.9C1083.4 253.3 1095.7 258 1108.9 256.8C1109.5 256.7 1110.1 257.1 1110.4 257.7C1110.6 258 1125.9 290.9 1159.2 290C1159.8 290 1160.4 290.4 1160.6 290.9C1161.1 292.1 1172.8 320.6 1201.9 316.5L1202.3 319.5C1174 323.4 1160.7 298.3 1158.2 293C1158 293 1157.8 293 1157.7 293C1126.7 293 1110.9 265.4 1108.1 259.9C1107 260 1105.9 260 1104.8 260C1079.8 260 1064.2 239.3 1059 231.2C1049.3 264.3 1009.6 265 1002.6 264.9C987.7 298.6 954.2 299.4 947.9 299.2C931.4 330 904.8 332.6 896.3 332.6Z" fill="#121831"/>
<path d="M698.67 193.41L698.13 204.15L697.56 215.56C697.52 216.33 696.87 216.92 696.09 216.89C695.37 216.85 694.8 216.27 694.76 215.56L693.66 193.41C693.6 189.95 698.72 189.94 698.66 193.41H698.67Z" fill="white"/>
<path d="M783.9 141.57L783.36 152.31L782.79 163.72C782.75 164.49 782.1 165.08 781.32 165.05C780.6 165.01 780.03 164.43 779.99 163.72L778.89 141.57C778.83 138.11 783.95 138.1 783.89 141.57H783.9Z" fill="white"/>
<path d="M789.53 150.32L788.99 161.06L788.42 172.47C788.38 173.24 787.73 173.83 786.95 173.8C786.23 173.76 785.66 173.18 785.62 172.47L784.52 150.32C784.46 146.86 789.58 146.85 789.52 150.32H789.53Z" fill="white"/>
<path d="M792.2 144.51L791.66 155.25L791.09 166.66C791.05 167.43 790.4 168.02 789.62 167.99C788.9 167.95 788.33 167.37 788.29 166.66L787.19 144.51C787.13 141.05 792.25 141.04 792.19 144.51H792.2Z" fill="white"/>
<path d="M887.16 335.97L886.62 346.71L886.05 358.12C886.01 358.89 885.36 359.48 884.58 359.45C883.86 359.41 883.29 358.83 883.25 358.12L882.15 335.97C882.09 332.51 887.21 332.5 887.15 335.97H887.16Z" fill="#FDF9F0"/>
<path d="M892.64 326.65L892.1 337.39L891.53 348.8C891.49 349.57 890.84 350.16 890.06 350.13C889.34 350.09 888.77 349.51 888.73 348.8L887.63 326.65C887.57 323.19 892.69 323.18 892.63 326.65H892.64Z" fill="#FDF9F0"/>
<path d="M932.59 297.61L932.05 308.35L931.48 319.76C931.44 320.53 930.79 321.12 930.01 321.09C929.29 321.05 928.72 320.47 928.68 319.76L927.58 297.61C927.52 294.15 932.64 294.14 932.58 297.61H932.59Z" fill="#FDF9F0"/>
<path d="M1283.6 432.8H861.7C858.6 432.8 857.8 428.6 860.6 427.4L919.1 402.1L921.9 400.9C939.6 393.2 959.9 394.4 976.7 404L1003.4 419.5C1007.7 422 1012.8 423.1 1017.8 422.6L1054.9 419.1C1060.9 418.5 1066.8 418.7 1072.7 419.7L1100.4 424.3C1105.8 425.2 1111.3 425.3 1116.7 424.5L1163.1 417.7C1173.9 416.2 1185 416.3 1195.8 418.1L1283.6 432.8Z" fill="#FFF9E3"/>
<path d="M908 432.8H861.7C858.6 432.8 857.8 428.6 860.6 427.4L919.1 402.1C921.2 412.2 920.6 425 908 432.8Z" fill="#D9D9D9"/>
<path d="M1283.79 421.367C1283.72 422.04 1283.64 422.639 1283.49 423.313C1282.06 433.93 1277.86 443.425 1272.23 450H1235.01C1227.21 442.826 1220.23 432.209 1216.1 420.319C1213.18 411.872 1213.4 404.019 1216.18 397.743C1220.38 387.949 1230.81 381.742 1245.22 382.116C1268.78 382.715 1286.11 400.282 1283.79 421.367Z" fill="#6AC294"/>
<path d="M1283.79 421.45C1283.71 422.125 1283.63 422.725 1283.48 423.4L1270.71 406.543C1266.51 400.998 1259.14 398.904 1252.69 401.298L1243.82 404.518C1234.51 408.037 1223.99 405.718 1217 398.673L1216.1 397.773C1220.31 387.96 1230.75 381.741 1245.17 382.116C1268.76 382.716 1286.12 400.318 1283.79 421.444L1283.79 421.45Z" fill="#FDF9F0"/>
<path d="M1150.68 342.49H966.77V351.6H1150.68V342.49Z" fill="#D23A13"/>
<path d="M1091.86 288.44L1094.16 292.41H1098.75L1096.46 296.39L1098.75 300.37H1094.16L1091.86 304.35L1089.57 300.37H1084.97L1087.27 296.39L1084.97 292.41H1089.57L1091.86 288.44Z" fill="#46350B"/>
<path d="M966.77 379.05L987.74 369.14C998.89 363.87 1011.74 363.55 1023.13 368.27L1031.52 371.74C1035.89 373.55 1040.81 373.48 1045.12 371.56L1057.7 365.94C1064.78 362.78 1073 363.47 1079.45 367.78L1090.06 374.86C1092.72 376.63 1096.11 376.88 1099 375.51L1104.49 372.91C1108.53 370.99 1113.1 370.49 1117.46 371.49L1150.66 379.05H966.75H966.77Z" fill="#FDF9F0"/>
<path d="M462.329 113.24C470.542 105.028 469.887 91.0568 460.866 82.0356C451.844 73.0145 437.874 72.3592 429.661 80.5719C421.448 88.7847 422.104 102.755 431.125 111.777C440.146 120.798 454.117 121.453 462.329 113.24Z" fill="#FFF9E3"/>
<path d="M285.321 171.784C287.446 159.205 279.885 147.438 268.433 145.504C256.981 143.569 245.974 152.198 243.848 164.777C241.723 177.357 249.284 189.123 260.736 191.058C272.188 192.993 283.195 184.364 285.321 171.784Z" fill="#FFF9E3"/>
<path d="M57.7219 150.037C68.2093 142.772 71.3497 129.143 64.7361 119.596C58.1225 110.048 44.2594 108.197 33.7719 115.462C23.2845 122.726 20.1441 136.355 26.7577 145.903C33.3713 155.451 47.2344 157.301 57.7219 150.037Z" fill="#FFF9E3"/>
<path d="M1006.4 93.1476C1016.23 85.0086 1018.19 71.1602 1010.78 62.2162C1003.37 53.2722 989.397 52.6196 979.572 60.7585C969.748 68.8975 967.79 82.746 975.2 91.69C982.61 100.634 996.581 101.287 1006.4 93.1476Z" fill="#FFF9E3"/>
<path d="M600.133 259.393C605.026 253.3 603.563 244.001 596.866 238.624C590.17 233.248 580.775 233.829 575.882 239.923C570.99 246.017 572.452 255.315 579.149 260.692C585.846 266.069 595.241 265.487 600.133 259.393Z" fill="#FFF9E3"/>
<path d="M1294.64 194.408C1296.82 186.102 1292.46 177.759 1284.9 175.773C1277.35 173.787 1269.45 178.911 1267.27 187.217C1265.09 195.523 1269.44 203.867 1277 205.852C1284.56 207.838 1292.46 202.714 1294.64 194.408Z" fill="#FFF9E3"/>
<path d="M667.63 250.33L602 432.83H737.63L672 250.33C671.26 248.28 668.37 248.28 667.63 250.33Z" fill="#22A268"/>
<path fill-rule="evenodd" clip-rule="evenodd" d="M723.545 382.119C723.661 382.939 723.091 383.699 722.271 383.815L611.721 399.495C610.9 399.611 610.141 399.041 610.025 398.221C609.908 397.4 610.479 396.641 611.299 396.525L721.849 380.845C722.67 380.728 723.429 381.299 723.545 382.119Z" fill="#121831"/>
<path fill-rule="evenodd" clip-rule="evenodd" d="M631.914 338.437C631.971 337.61 632.687 336.987 633.513 337.044L709.304 342.274C710.13 342.331 710.754 343.047 710.697 343.873C710.64 344.7 709.923 345.324 709.097 345.267L633.307 340.037C632.48 339.98 631.857 339.263 631.914 338.437Z" fill="#121831"/>
<path fill-rule="evenodd" clip-rule="evenodd" d="M689.065 293.437C689.216 294.251 688.678 295.034 687.863 295.185L649.763 302.245C648.949 302.396 648.166 301.858 648.015 301.043C647.864 300.229 648.402 299.446 649.217 299.295L687.317 292.235C688.131 292.084 688.914 292.622 689.065 293.437Z" fill="#121831"/>
<path d="M629.9 406.83C632.965 406.83 635.45 404.345 635.45 401.28C635.45 398.215 632.965 395.73 629.9 395.73C626.835 395.73 624.35 398.215 624.35 401.28C624.35 404.345 626.835 406.83 629.9 406.83Z" fill="#EC5E3A"/>
<path d="M678.86 400.47C681.925 400.47 684.41 397.985 684.41 394.92C684.41 391.855 681.925 389.37 678.86 389.37C675.795 389.37 673.31 391.855 673.31 394.92C673.31 397.985 675.795 400.47 678.86 400.47Z" fill="#F2BF43"/>
<path d="M704.87 354.12C707.935 354.12 710.42 351.635 710.42 348.57C710.42 345.505 707.935 343.02 704.87 343.02C701.805 343.02 699.32 345.505 699.32 348.57C699.32 351.635 701.805 354.12 704.87 354.12Z" fill="#EC5E3A"/>
<path d="M701.18 395.72C704.245 395.72 706.73 393.235 706.73 390.17C706.73 387.105 704.245 384.62 701.18 384.62C698.115 384.62 695.63 387.105 695.63 390.17C695.63 393.235 698.115 395.72 701.18 395.72Z" fill="#EC5E3A"/>
<path d="M636.67 349.64C639.735 349.64 642.22 347.155 642.22 344.09C642.22 341.025 639.735 338.54 636.67 338.54C633.605 338.54 631.12 341.025 631.12 344.09C631.12 347.155 633.605 349.64 636.67 349.64Z" fill="#1A6BCD"/>
<path d="M658.34 309.9C661.405 309.9 663.89 307.415 663.89 304.35C663.89 301.285 661.405 298.8 658.34 298.8C655.275 298.8 652.79 301.285 652.79 304.35C652.79 307.415 655.275 309.9 658.34 309.9Z" fill="#F9D3DD"/>
<path d="M687.59 342.27C690.655 342.27 693.14 339.785 693.14 336.72C693.14 333.655 690.655 331.17 687.59 331.17C684.525 331.17 682.04 333.655 682.04 336.72C682.04 339.785 684.525 342.27 687.59 342.27Z" fill="#F9D3DD"/>
<path d="M674.09 307.51C677.155 307.51 679.64 305.025 679.64 301.96C679.64 298.895 677.155 296.41 674.09 296.41C671.025 296.41 668.54 298.895 668.54 301.96C668.54 305.025 671.025 307.51 674.09 307.51Z" fill="#F2BF43"/>
<path d="M661.23 349.64C664.295 349.64 666.78 347.155 666.78 344.09C666.78 341.025 664.295 338.54 661.23 338.54C658.165 338.54 655.68 341.025 655.68 344.09C655.68 347.155 658.165 349.64 661.23 349.64Z" fill="#F2BF43"/>
<path d="M689.49 299.39C692.555 299.39 695.04 296.905 695.04 293.84C695.04 290.775 692.555 288.29 689.49 288.29C686.425 288.29 683.94 290.775 683.94 293.84C683.94 296.905 686.425 299.39 689.49 299.39Z" fill="#57AAE3"/>
<path d="M650.84 399.77C653.905 399.77 656.39 397.285 656.39 394.22C656.39 391.155 653.905 388.67 650.84 388.67C647.775 388.67 645.29 391.155 645.29 394.22C645.29 397.285 647.775 399.77 650.84 399.77Z" fill="#57AAE3"/>
<path d="M681.22 232.9C683.589 232.9 685.51 230.979 685.51 228.61C685.51 226.241 683.589 224.32 681.22 224.32C678.851 224.32 676.93 226.241 676.93 228.61C676.93 230.979 678.851 232.9 681.22 232.9Z" fill="#6AC294"/>
<path d="M702.73 225.92C705.099 225.92 707.02 223.999 707.02 221.63C707.02 219.261 705.099 217.34 702.73 217.34C700.361 217.34 698.44 219.261 698.44 221.63C698.44 223.999 700.361 225.92 702.73 225.92Z" fill="#F2BF43"/>
<path d="M714.44 210.01C716.809 210.01 718.73 208.089 718.73 205.72C718.73 203.351 716.809 201.43 714.44 201.43C712.071 201.43 710.15 203.351 710.15 205.72C710.15 208.089 712.071 210.01 714.44 210.01Z" fill="#F9D3DD"/>
<path d="M732.25 205.72C734.619 205.72 736.54 203.799 736.54 201.43C736.54 199.061 734.619 197.14 732.25 197.14C729.881 197.14 727.96 199.061 727.96 201.43C727.96 203.799 729.881 205.72 732.25 205.72Z" fill="#EC5E3A"/>
<path d="M747.87 190.83C750.239 190.83 752.16 188.909 752.16 186.54C752.16 184.171 750.239 182.25 747.87 182.25C745.501 182.25 743.58 184.171 743.58 186.54C743.58 188.909 745.501 190.83 747.87 190.83Z" fill="#F2BF43"/>
<path d="M758.43 176.76C760.799 176.76 762.72 174.839 762.72 172.47C762.72 170.101 760.799 168.18 758.43 168.18C756.061 168.18 754.14 170.101 754.14 172.47C754.14 174.839 756.061 176.76 758.43 176.76Z" fill="#EC5E3A"/>
<path d="M774.07 167.42C776.44 167.42 778.36 165.499 778.36 163.13C778.36 160.761 776.44 158.84 774.07 158.84C771.701 158.84 769.78 160.761 769.78 163.13C769.78 165.499 771.701 167.42 774.07 167.42Z" fill="#6AC294"/>
<path d="M798.11 178.23C800.479 178.23 802.4 176.309 802.4 173.94C802.4 171.571 800.479 169.65 798.11 169.65C795.741 169.65 793.82 171.571 793.82 173.94C793.82 176.309 795.741 178.23 798.11 178.23Z" fill="#F2BF43"/>
<path d="M811.65 192.31C814.019 192.31 815.94 190.389 815.94 188.02C815.94 185.651 814.019 183.73 811.65 183.73C809.281 183.73 807.36 185.651 807.36 188.02C807.36 190.389 809.281 192.31 811.65 192.31Z" fill="#6AC294"/>
<path d="M830.87 210.82C833.239 210.82 835.16 208.899 835.16 206.53C835.16 204.161 833.239 202.24 830.87 202.24C828.501 202.24 826.58 204.161 826.58 206.53C826.58 208.899 828.501 210.82 830.87 210.82Z" fill="#EC5E3A"/>
<path d="M853.06 217.84C855.429 217.84 857.35 215.919 857.35 213.55C857.35 211.181 855.429 209.26 853.06 209.26C850.691 209.26 848.77 211.181 848.77 213.55C848.77 215.919 850.691 217.84 853.06 217.84Z" fill="#6AC294"/>
<path d="M927.02 310.68L921.88 332.83C921.57 334.29 919.39 334.28 919.09 332.83L913.95 310.68C913.11 307.07 915.36 303.47 918.97 302.63C923.68 301.42 928.21 306.01 927.02 310.68Z" fill="#FDF9F0"/>
<path d="M876.28 232.02C878.65 232.02 880.57 230.099 880.57 227.73C880.57 225.361 878.65 223.44 876.28 223.44C873.911 223.44 871.99 225.361 871.99 227.73C871.99 230.099 873.911 232.02 876.28 232.02Z" fill="#F2BF43"/>
<path d="M904.68 340.75C907.32 340.75 909.46 338.61 909.46 335.97C909.46 333.33 907.32 331.19 904.68 331.19C902.04 331.19 899.9 333.33 899.9 335.97C899.9 338.61 902.04 340.75 904.68 340.75Z" fill="#F2BF43"/>
<path d="M939.5 321.75C942.14 321.75 944.28 319.61 944.28 316.97C944.28 314.33 942.14 312.19 939.5 312.19C936.86 312.19 934.72 314.33 934.72 316.97C934.72 319.61 936.86 321.75 939.5 321.75Z" fill="#F9D3DD"/>
<path d="M958.66 307.24C961.3 307.24 963.44 305.1 963.44 302.46C963.44 299.82 961.3 297.68 958.66 297.68C956.02 297.68 953.88 299.82 953.88 302.46C953.88 305.1 956.02 307.24 958.66 307.24Z" fill="#AB2F0F"/>
<path d="M989.68 293.22C992.32 293.22 994.46 291.08 994.46 288.44C994.46 285.8 992.32 283.66 989.68 283.66C987.04 283.66 984.9 285.8 984.9 288.44C984.9 291.08 987.04 293.22 989.68 293.22Z" fill="#6AC294"/>
<path d="M1012.47 273.23C1015.11 273.23 1017.25 271.09 1017.25 268.45C1017.25 265.81 1015.11 263.67 1012.47 263.67C1009.83 263.67 1007.69 265.81 1007.69 268.45C1007.69 271.09 1009.83 273.23 1012.47 273.23Z" fill="#F2BF43"/>
<path d="M1035.45 267.21C1038.09 267.21 1040.23 265.07 1040.23 262.43C1040.23 259.79 1038.09 257.65 1035.45 257.65C1032.81 257.65 1030.67 259.79 1030.67 262.43C1030.67 265.07 1032.81 267.21 1035.45 267.21Z" fill="#D23A13"/>
<path d="M1057.63 248.37C1060.27 248.37 1062.41 246.23 1062.41 243.59C1062.41 240.95 1060.27 238.81 1057.63 238.81C1054.99 238.81 1052.85 240.95 1052.85 243.59C1052.85 246.23 1054.99 248.37 1057.63 248.37Z" fill="#F9D3DD"/>
<path d="M1077.57 260.69C1080.21 260.69 1082.35 258.55 1082.35 255.91C1082.35 253.27 1080.21 251.13 1077.57 251.13C1074.93 251.13 1072.79 253.27 1072.79 255.91C1072.79 258.55 1074.93 260.69 1077.57 260.69Z" fill="#6AC294"/>
<path d="M1111.9 276.78C1114.54 276.78 1116.68 274.64 1116.68 272C1116.68 269.36 1114.54 267.22 1111.9 267.22C1109.26 267.22 1107.12 269.36 1107.12 272C1107.12 274.64 1109.26 276.78 1111.9 276.78Z" fill="#D23A13"/>
<path d="M1139.88 298.69C1142.52 298.69 1144.66 296.55 1144.66 293.91C1144.66 291.27 1142.52 289.13 1139.88 289.13C1137.24 289.13 1135.1 291.27 1135.1 293.91C1135.1 296.55 1137.24 298.69 1139.88 298.69Z" fill="#6AC294"/>
<path d="M1160.74 310.33C1163.38 310.33 1165.52 308.19 1165.52 305.55C1165.52 302.91 1163.38 300.77 1160.74 300.77C1158.1 300.77 1155.96 302.91 1155.96 305.55C1155.96 308.19 1158.1 310.33 1160.74 310.33Z" fill="#F2BF43"/>
<path d="M1187.51 327.52C1190.15 327.52 1192.29 325.38 1192.29 322.74C1192.29 320.1 1190.15 317.96 1187.51 317.96C1184.87 317.96 1182.73 320.1 1182.73 322.74C1182.73 325.38 1184.87 327.52 1187.51 327.52Z" fill="#F9D3DD"/>
<path d="M871.59 442.68C881.05 434.79 887.2 423.06 887.2 409.77C887.2 393.97 878.59 380.32 865.9 372.85C865.12 372.39 865.02 371.39 865.68 370.78C873.06 363.93 877.27 353.72 875.44 342.46C873.33 329.5 862.81 318.76 849.88 316.51C829.87 313.02 812.49 328.33 812.49 347.7C812.49 356.86 816.46 365.01 822.68 370.78C823.34 371.39 823.24 372.39 822.46 372.85C809.76 380.32 801.16 393.97 801.16 409.77C801.16 423.06 807.31 434.79 816.78 442.68C813.32 445.58 810.27 448.96 807.85 452.8H880.53C878.11 448.96 875.06 445.58 871.6 442.68H871.59Z" fill="#FFF9E3"/>
<path d="M835.8 346.53L832.66 347.69L830.08 345.56L830.64 342.27L833.77 341.1L836.35 343.23L835.8 346.53Z" fill="#3A261B"/>
<path d="M850 345.25L850.47 341.76L853.73 340.42L856.53 342.57L856.05 346.07L852.79 347.41L850 345.25Z" fill="#3A261B"/>
<path d="M843.23 345.04L861.99 355.78L840.03 352.31L843.23 345.04Z" fill="#F25536"/>
<path fill-rule="evenodd" clip-rule="evenodd" d="M840.17 361.331L832 355.641L833.143 354L841.313 359.69L840.17 361.331Z" fill="#3A261B"/>
<path d="M873.23 377.19L810.49 383.23L818.99 366.71L869 369.71L873.23 377.19Z" fill="#F25536"/>
<path d="M844.306 376.109L833.696 374.316L828.612 404.41L839.221 406.202L844.306 376.109Z" fill="#F25536"/>
<path d="M848.48 374.164L838.632 378.501L846.23 395.752L856.077 391.415L848.48 374.164Z" fill="#F25536"/>
<path fill-rule="evenodd" clip-rule="evenodd" d="M781.59 366.979V355.07H778.59V368.221L785.73 375.364L776.298 374.172L775.922 377.148L789.19 378.825L807.679 397.321L809.801 395.2L781.59 366.979ZM903.926 365.993L917.297 368.231L916.802 371.189L904.954 369.207L896.778 377.383L905.594 385.923L903.506 388.077L894.657 379.505L876.841 397.321L874.719 395.199L903.926 365.993Z" fill="#3A261B"/>
<path fill-rule="evenodd" clip-rule="evenodd" d="M850.073 358.89L840.273 361.34L839.788 359.4L849.588 356.95L850.073 358.89Z" fill="#3A261B"/>
<path d="M0 375.38C0 375.38 96.5 360.4 199.89 418.55C213.21 426.04 229.03 427.9 243.45 422.86C278.08 410.75 345.76 392.68 393.1 415.56C416.74 426.98 443.11 431.54 469.36 431.54H1335V464H0V375.38Z" fill="#08471E"/>
<path d="M101.96 464L132.13 369.34C138.28 350.03 124.33 330.18 104.08 329.42C88.3698 328.83 74.7698 340.23 72.5898 355.8L65.1198 409.28C64.1398 416.27 54.2198 416.72 52.6098 409.85L33.5998 328.79C30.6398 316.17 15.2298 311.36 5.61977 320.05C2.04977 323.28 0.00976562 327.87 0.00976562 332.68V464H101.97H101.96Z" fill="#1A7249"/>
<path d="M681.22 92.24L685.55 100L693.32 104.33L685.55 108.66L681.22 116.42L676.89 108.66L669.13 104.33L676.89 100L681.22 92.24Z" fill="#F5CF72"/>
<path d="M1300.55 243.96L1303.12 248.57L1307.72 251.13L1303.12 253.7L1300.55 258.31L1297.98 253.7L1293.37 251.13L1297.98 248.57L1300.55 243.96Z" fill="#F5CF72"/>
<path d="M1135.09 80.39L1142 92.77L1154.38 99.67L1142 106.58L1135.09 118.96L1128.19 106.58L1115.81 99.67L1128.19 92.77L1135.09 80.39Z" fill="#F5CF72"/>
<path d="M140.98 58.54L143.33 62.74L147.53 65.09L143.33 67.43L140.98 71.64L138.64 67.43L134.43 65.09L138.64 62.74L140.98 58.54Z" fill="#F5CF72"/>
<path d="M518.596 330.15L521.095 334.644L525.59 337.144L521.095 339.656L518.596 344.15L516.084 339.656L511.59 337.144L516.084 334.644L518.596 330.15Z" fill="#F5CF72"/>
<path fill-rule="evenodd" clip-rule="evenodd" d="M1150.68 380.05H966.77V378.05H1150.68V380.05Z" fill="#3B1005"/>
<path fill-rule="evenodd" clip-rule="evenodd" d="M810.23 273H743.58V271H810.23V273Z" fill="#121831"/>
</g>
</g>
<defs>
<clipPath id="clip0_1528_85641">
<rect width="1335" height="464" fill="white"/>
</clipPath>
</defs>
</svg>
