<svg width="1335" height="464" viewBox="0 0 1335 464" fill="none" xmlns="http://www.w3.org/2000/svg">
<g clip-path="url(#clip0_1528_86413)">
<rect width="1335" height="464" fill="#E3E1F2"/>
<mask id="mask0_1528_86413" style="mask-type:luminance" maskUnits="userSpaceOnUse" x="0" y="0" width="1335" height="464">
<path d="M1335 0H0V464H1335V0Z" fill="white"/>
</mask>
<g mask="url(#mask0_1528_86413)">
<path d="M1335 0H0V464H1335V0Z" fill="#E3E1F2"/>
<path d="M1335 322.95H0V464H1335V322.95Z" fill="#AFA9DE"/>
<path fill-rule="evenodd" clip-rule="evenodd" d="M308.72 322.95V-16.86H310.72V322.95H308.72Z" fill="#7C73C9"/>
<path fill-rule="evenodd" clip-rule="evenodd" d="M657.1 322.95V-16.86H659.1V322.95H657.1Z" fill="#7C73C9"/>
<path fill-rule="evenodd" clip-rule="evenodd" d="M1005.49 322.95V-16.86H1007.49V322.95H1005.49Z" fill="#7C73C9"/>
<path d="M698.25 441.41L1244.79 441.41V424.67L698.25 424.67V441.41Z" fill="#7C73C9"/>
<path d="M957.8 228L940.59 226.55L889.95 222.26L871.78 220.72L751.9 210.59C748.41 210.29 744.9 211.01 741.8 212.65L734.46 216.54C734.11 216.73 733.71 216.82 733.33 216.82C732.7 216.82 732.07 216.57 731.6 216.11C730.65 215.16 730.66 213.61 731.61 212.68L735.11 209.22C735.69 208.63 735.34 207.64 734.52 207.56L718.87 205.91C717.6 205.78 716.63 204.7 716.63 203.44V203.42C716.63 202.03 717.76 200.92 719.14 200.92L749.06 201.07L850.56 195.82C853.11 195.68 855.66 195.78 858.19 196.1L873.37 197.99L878.64 198.04L892.35 198.18L940.79 198.68L948.85 212.6L957.79 228.01L957.8 228Z" fill="#FFB196"/>
<path d="M1179.65 208.18C1179.65 208.82 1179.4 209.41 1179 209.85C1178.59 210.29 1178.03 210.59 1177.39 210.65L1161.72 212.14C1160.91 212.23 1160.55 213.22 1161.12 213.8L1164.58 217.29C1165.53 218.24 1165.52 219.79 1164.57 220.73C1164.1 221.2 1163.48 221.43 1162.85 221.43C1162.46 221.43 1162.06 221.33 1161.7 221.14L1154.39 217.17C1151.31 215.5 1147.81 214.75 1144.31 215.02L1035.44 223.18L1006.49 225.35L938.27 230.46L940.6 226.55L948.87 212.59L957.7 197.7L1014.37 201.57L1021.69 202.07L1023.38 201.85L1036.67 200.13C1041.91 199.46 1047.2 199.28 1052.48 199.61L1147.26 205.52L1177.18 205.67C1178.56 205.67 1179.68 206.8 1179.67 208.19L1179.65 208.18Z" fill="#FFB196"/>
<path d="M874.03 344.81L865.77 347.5L869.86 354.04C873.26 359.49 875.21 365.72 875.53 372.13L877.92 421.04C878.01 423.01 876.44 424.66 874.47 424.66H832.13C828.56 424.66 827.83 419.62 831.25 418.6L858.51 410.5L835.52 340.37C831.48 328.03 838.45 314.79 850.92 311.15L870.44 305.44L885.33 301.09L920.33 290.85L933.67 325.37L903.66 335.15L874.03 344.81Z" fill="#FFB196"/>
<path d="M1156.88 424.66H1121.82C1118.14 424.66 1114.52 423.72 1111.32 421.92L1056.53 391.14C1050.57 387.16 1045.31 382.21 1041 376.5L1035.07 368.64L996.1 348.63L973.88 337.22L959.34 329.75L976.84 322.91L1008.09 310.7L1009.93 312.18L1114.44 395.89C1123.69 403.39 1134.09 409.34 1145.25 413.52L1158.03 418.3C1161.46 419.58 1160.54 424.66 1156.88 424.66Z" fill="#FFB196"/>
<path d="M1009.93 312.18L996.1 348.63L973.88 337.22L976.84 322.91L1008.09 310.7L1009.93 312.18Z" fill="#FF8D6D"/>
<path d="M903.66 335.15L874.03 344.81L870.44 305.44L885.33 301.09L903.66 335.15Z" fill="#FF8D6D"/>
<path d="M892.36 198.17L889.96 222.26L871.79 220.73L878.65 198.03L892.36 198.17Z" fill="#FF8D6D"/>
<path d="M1035.44 223.19L1006.49 225.36L1014.36 201.57L1021.68 202.07L1023.36 201.85L1035.44 223.19Z" fill="#FF8D6D"/>
<path d="M1009.01 310.34L982.12 344.58L939.97 326.67L889.79 341.58L874.51 296.02L909.38 284.13V266.92L970.81 269.51C970.81 270.67 970.88 271.83 971.02 272.97C971.45 276.44 972.52 279.78 974.15 282.82C976.27 286.8 979.36 290.28 983.21 292.88L1009.01 310.34Z" fill="#403A76"/>
<path d="M974.15 282.82L958.97 298C954.72 302.25 949.15 304.38 943.58 304.38C938.01 304.38 932.44 302.25 928.19 298C924.37 294.18 919.19 292.04 913.8 292.04H886.18L909.38 284.13V272.97H971.02C971.45 276.44 972.52 279.78 974.15 282.82Z" fill="#041F49"/>
<path d="M1022.2 199.28L1017.14 226.39L991.42 230.83C986 231.77 981.83 236.13 981.15 241.59L975.79 284.25L898.94 280.14L900.88 242.11C901.22 235.48 897.22 229.39 890.99 227.07L880.54 223.18L884.59 197.35L934.78 192.63L943.07 211.21L952.11 192.74L1022.18 199.28H1022.2Z" fill="#FFECC1"/>
<path fill-rule="evenodd" clip-rule="evenodd" d="M859.156 349.041L870.096 345.041L870.783 346.919L859.843 350.919L859.156 349.041Z" fill="#FF5F2F"/>
<path fill-rule="evenodd" clip-rule="evenodd" d="M866.398 409.536L855.278 412.506L854.762 410.574L865.882 407.604L866.398 409.536Z" fill="#FF5F2F"/>
<path fill-rule="evenodd" clip-rule="evenodd" d="M1115.33 419.835L1113.19 416.466L1114.87 415.394L1117.01 418.764C1118.89 421.725 1122.16 423.53 1125.67 423.53H1130.88V425.53H1125.67C1121.48 425.53 1117.57 423.374 1115.33 419.835C1115.33 419.835 1115.33 419.835 1115.33 419.835Z" fill="#FF5F2F"/>
<path fill-rule="evenodd" clip-rule="evenodd" d="M978.698 301.453L973.218 287.383L975.082 286.657L980.562 300.727L978.698 301.453Z" fill="#251A5F"/>
<path d="M920.72 165.09L922.95 166.67V171.72C922.95 174.1 924.43 176.23 926.67 177.06L934.23 179.86L934.14 192.71L942.96 212.47L952.57 192.83L952.04 177.36L956.5 169C957.69 166.78 958.28 164.33 958.28 161.88C958.28 159.43 957.67 156.93 956.45 154.69C954.6 151.28 951.52 148.71 947.83 147.5L946.44 147.05C942.78 145.86 938.82 146.11 935.34 147.73L934.34 148.2C931.4 149.57 928.99 151.86 927.46 154.69C927.26 155.07 927.07 155.45 926.9 155.85L923.98 162.53C923.75 163.07 923.3 163.47 922.74 163.65L920.85 164.26C920.48 164.38 920.41 164.87 920.73 165.09H920.72Z" fill="#FFB196"/>
<path d="M572.77 131.04C540.64 126.62 509.74 145.03 498.33 175.39L479.11 226.56L527.08 207.64C551.02 198.19 567.78 176.27 570.6 150.69L572.77 131.04Z" fill="#6EAB6E"/>
<path d="M619.4 157.84L622.75 150.92C635.38 124.83 635.18 94.35 622.21 68.43L589.91 3.85004L578.99 62.86C572.16 99.76 588.08 137.17 619.4 157.83V157.84Z" fill="#6EAB6E"/>
<path d="M669.52 76.4301L677.93 80.1101C721.08 99.0101 771.44 88.8801 803.93 54.7701L842.52 14.2501L778.28 10.4601C731.84 7.72006 688.55 33.9801 669.52 76.4301Z" fill="#6EAB6E"/>
<path d="M673.94 270.93L679.14 268.86C700.26 260.45 713.66 239.51 712.44 216.81L711.02 190.32L686.51 214.2C671.4 228.92 666.46 251.21 673.95 270.93H673.94Z" fill="#6EAB6E"/>
<path fill-rule="evenodd" clip-rule="evenodd" d="M576.433 125.973C582.461 119.945 592.768 122.772 594.869 131.044L594.869 131.044L632.519 279.334L630.581 279.826L592.931 131.536C592.931 131.536 592.931 131.536 592.931 131.536C591.212 124.768 582.779 122.455 577.847 127.387L518.037 187.197L516.623 185.783L576.433 125.973Z" fill="#057E25"/>
<path fill-rule="evenodd" clip-rule="evenodd" d="M597.004 28.4819L643.764 286.842L641.796 287.198L595.036 28.8381L597.004 28.4819Z" fill="#057E25"/>
<path fill-rule="evenodd" clip-rule="evenodd" d="M692.405 228.378L662.535 301.468L660.684 300.712L690.554 227.622L692.405 228.378Z" fill="#057E25"/>
<path fill-rule="evenodd" clip-rule="evenodd" d="M779.512 36.0859L664.402 79.4258C656.221 82.5092 650.8 90.3368 650.8 99.08V294.05H648.8V99.08C648.8 89.5033 654.738 80.9309 663.697 77.5543L663.697 77.5542L778.807 34.2142L779.512 36.0859Z" fill="#057E25"/>
<path d="M733.79 161.48L710.03 150.75C692.9 143.01 672.69 149.56 663.35 165.87L667.28 169.23C678.23 178.57 693.65 180.6 706.65 174.41L733.78 161.48H733.79Z" fill="#6EAB6E"/>
<path fill-rule="evenodd" clip-rule="evenodd" d="M678.64 162.47C663.262 162.47 650.8 174.932 650.8 190.31H648.8C648.8 173.828 662.158 160.47 678.64 160.47H702.03V162.47H678.64Z" fill="#057E25"/>
<path d="M698.26 279.58H601.34V322.95H698.26V279.58Z" fill="#996699"/>
<path d="M958.73 155.07L954.77 150.06C954.77 147.42 952.54 145.33 949.91 145.5L938.46 146.22C935.94 146.38 933.47 145.45 931.68 143.66L931.33 143.31C930.59 142.57 929.47 142.35 928.5 142.77C926.38 143.69 926.48 146.74 928.66 147.52C928.9 147.61 928.97 147.91 928.79 148.09L924.93 151.95C923.99 152.89 923.99 154.41 924.93 155.34C925.87 156.28 927.39 156.28 928.32 155.34L927.98 155.68C927.98 155.68 927.87 158.11 930.41 158.11C931.08 158.11 932.73 156.75 932.73 156.75L933.69 166.01H935.45L937.14 162.63C937.8 161.31 939.56 161.02 940.61 162.07C941.29 162.75 941.44 163.8 940.98 164.64L939.18 167.91C938.32 169.48 938.42 171.41 939.45 172.88L945.44 181.46H950.52L953.74 183.73V180.74C953.74 178.84 954.27 176.97 955.28 175.35L959.51 168.56C962.13 164.35 961.83 158.94 958.75 155.05L958.73 155.07Z" fill="#6D392C"/>
</g>
</g>
<defs>
<clipPath id="clip0_1528_86413">
<rect width="1335" height="464" fill="white"/>
</clipPath>
</defs>
</svg>
